<svg width="14" height="18" viewBox="0 0 14 18" fill="none" xmlns="http://www.w3.org/2000/svg">
<path d="M0.744727 17.6602C0.659394 17.4896 0.552727 17.3616 0.424727 17.2762C0.296727 17.1696 0.232727 17.0736 0.232727 16.9882C0.232727 16.9029 0.222061 16.8176 0.200727 16.7322C0.200727 16.6256 0.158061 16.5296 0.0727273 16.4442C-0.0339394 16.3162 -0.0232727 16.0282 0.104727 15.5802C0.232727 15.1109 0.446061 14.5456 0.744727 13.8842C1.04339 13.2016 1.39539 12.4869 1.80073 11.7402C1.97139 11.5696 2.14206 11.3456 2.31273 11.0682C2.48339 10.7909 2.61139 10.6096 2.69673 10.5242C2.69673 10.4389 2.72873 10.3642 2.79273 10.3002C2.85673 10.2149 2.93139 10.1722 3.01673 10.1722V9.98024C3.01673 9.87357 3.11273 9.69224 3.30473 9.43624C3.51806 9.18024 3.77406 8.9029 4.07273 8.60424C4.37139 8.28424 4.68073 7.98557 5.00073 7.70824C5.32073 7.40957 5.58739 7.19624 5.80073 7.06824C6.24873 6.76957 6.70739 6.58824 7.17673 6.52424C7.66739 6.46024 8.08339 6.5669 8.42473 6.84424C8.48873 6.90824 8.59539 7.0149 8.74473 7.16424C8.89406 7.31357 9.06473 7.48424 9.25673 7.67624C9.47006 7.8469 9.68339 8.02824 9.89673 8.22023L11.0807 9.27624L10.5047 10.8762C10.2274 11.7296 10.1527 12.4762 10.2807 13.1162C10.4301 13.7562 10.6434 14.3109 10.9207 14.7802C11.0274 15.0149 11.2407 15.2389 11.5607 15.4522C11.9021 15.6656 12.2221 15.7936 12.5207 15.8362C12.6914 15.8576 12.8514 15.9216 13.0007 16.0282C13.1501 16.1349 13.2247 16.3056 13.2247 16.5402C13.2247 16.7536 13.1821 16.9242 13.0967 17.0522C13.0114 17.1802 12.8621 17.2656 12.6487 17.3082C11.9447 17.3936 11.2834 17.2229 10.6647 16.7962C10.0674 16.3696 9.51273 15.6656 9.00073 14.6842C8.91539 14.5562 8.79806 14.3216 8.64873 13.9802C8.52073 13.6176 8.44606 13.3829 8.42473 13.2762C8.33939 13.3829 8.17939 13.5856 7.94473 13.8842C7.71006 14.1616 7.52873 14.3642 7.40073 14.4922C5.88606 16.0282 4.57406 17.0629 3.46473 17.5962C2.37673 18.1082 1.47006 18.1296 0.744727 17.6602ZM1.89673 15.8682C1.89673 16.0176 2.12073 16.0176 2.56873 15.8682C3.03806 15.6976 3.53939 15.3989 4.07273 14.9722C4.79806 14.3536 5.52339 13.6709 6.24873 12.9242C6.99539 12.1776 7.59273 11.4842 8.04073 10.8442L8.74473 9.69223C8.53139 9.20157 8.29673 8.8709 8.04073 8.70024C7.80606 8.50824 7.60339 8.41224 7.43273 8.41224C7.15539 8.41224 6.73939 8.66824 6.18473 9.18023C5.65139 9.69224 5.07539 10.3749 4.45673 11.2282C3.83806 12.0816 3.25139 13.0202 2.69673 14.0442C2.48339 14.4709 2.29139 14.8869 2.12073 15.2922C1.97139 15.6762 1.89673 15.8682 1.89673 15.8682ZM9.76873 4.60423C9.61939 4.4549 9.50206 4.2309 9.41673 3.93223C9.35273 3.63357 9.33139 3.44157 9.35273 3.35624C9.37406 3.24957 9.51273 3.03623 9.76873 2.71624C10.0461 2.39624 10.3661 2.04424 10.7287 1.66024C11.0914 1.27624 11.4327 0.934902 11.7527 0.636235C12.0941 0.337569 12.3394 0.156235 12.4887 0.0922347C12.7234 -0.057098 12.9474 -0.0250978 13.1607 0.188235C13.3741 0.380235 13.5874 0.646902 13.8007 0.988235C13.8647 1.18023 13.7794 1.4149 13.5447 1.69224C13.3314 1.94824 13.0434 2.22557 12.6807 2.52424C12.3181 2.8229 11.9554 3.12157 11.5927 3.42023C11.2514 3.69757 10.9954 3.95357 10.8247 4.18824C10.6114 4.52957 10.4407 4.73224 10.3127 4.79624C10.2061 4.86023 10.0247 4.79623 9.76873 4.60423Z" fill="#1A1A1A"/>
</svg>
