<svg width="14" height="18" viewBox="0 0 14 18" fill="none" xmlns="http://www.w3.org/2000/svg">
<path d="M0.744727 17.0276C0.659394 16.8569 0.552727 16.7289 0.424727 16.6436C0.296727 16.5369 0.232727 16.4409 0.232727 16.3556C0.232727 16.2702 0.222061 16.1849 0.200727 16.0996C0.200727 15.9929 0.158061 15.8969 0.0727273 15.8116C-0.0339394 15.6836 -0.0232727 15.3956 0.104727 14.9476C0.232727 14.4782 0.446061 13.9129 0.744727 13.2516C1.04339 12.5689 1.39539 11.8542 1.80073 11.1076C1.97139 10.9369 2.14206 10.7129 2.31273 10.4356C2.48339 10.1582 2.61139 9.97689 2.69673 9.89156C2.69673 9.80622 2.72873 9.73156 2.79273 9.66756C2.85673 9.58222 2.93139 9.53956 3.01673 9.53956V9.34756C3.01673 9.24089 3.11273 9.05956 3.30473 8.80356C3.51806 8.54756 3.77406 8.27022 4.07273 7.97156C4.37139 7.65156 4.68073 7.35289 5.00073 7.07556C5.32073 6.77689 5.58739 6.56356 5.80073 6.43556C6.24873 6.13689 6.70739 5.95556 7.17673 5.89156C7.66739 5.82756 8.08339 5.93422 8.42473 6.21156C8.48873 6.27556 8.59539 6.38222 8.74473 6.53156C8.89406 6.68089 9.06473 6.85156 9.25673 7.04356C9.47006 7.21422 9.68339 7.39556 9.89673 7.58755L11.0807 8.64356L10.5047 10.2436C10.2274 11.0969 10.1527 11.8436 10.2807 12.4836C10.4301 13.1236 10.6434 13.6782 10.9207 14.1476C11.0274 14.3822 11.2407 14.6062 11.5607 14.8196C11.9021 15.0329 12.2221 15.1609 12.5207 15.2036C12.6914 15.2249 12.8514 15.2889 13.0007 15.3956C13.1501 15.5022 13.2247 15.6729 13.2247 15.9076C13.2247 16.1209 13.1821 16.2916 13.0967 16.4196C13.0114 16.5476 12.8621 16.6329 12.6487 16.6756C11.9447 16.7609 11.2834 16.5902 10.6647 16.1636C10.0674 15.7369 9.51273 15.0329 9.00073 14.0516C8.91539 13.9236 8.79806 13.6889 8.64873 13.3476C8.52073 12.9849 8.44606 12.7502 8.42473 12.6436C8.33939 12.7502 8.17939 12.9529 7.94473 13.2516C7.71006 13.5289 7.52873 13.7316 7.40073 13.8596C5.88606 15.3956 4.57406 16.4302 3.46473 16.9636C2.37673 17.4756 1.47006 17.4969 0.744727 17.0276ZM1.89673 15.2356C1.89673 15.3849 2.12073 15.3849 2.56873 15.2356C3.03806 15.0649 3.53939 14.7662 4.07273 14.3396C4.79806 13.7209 5.52339 13.0382 6.24873 12.2916C6.99539 11.5449 7.59273 10.8516 8.04073 10.2116L8.74473 9.05956C8.53139 8.56889 8.29673 8.23822 8.04073 8.06756C7.80606 7.87556 7.60339 7.77956 7.43273 7.77956C7.15539 7.77956 6.73939 8.03556 6.18473 8.54755C5.65139 9.05956 5.07539 9.74222 4.45673 10.5956C3.83806 11.4489 3.25139 12.3876 2.69673 13.4116C2.48339 13.8382 2.29139 14.2542 2.12073 14.6596C1.97139 15.0436 1.89673 15.2356 1.89673 15.2356ZM7.20873 3.58756C6.84606 3.95022 6.53673 4.11022 6.28073 4.06756C6.02473 4.00355 5.86473 3.84356 5.80073 3.58756C5.73673 3.31022 5.82206 3.02222 6.05673 2.72356C6.12073 2.63822 6.27006 2.48889 6.50473 2.27556C6.73939 2.06222 7.00606 1.81689 7.30473 1.53955C7.62473 1.26222 7.94473 1.00622 8.26473 0.771555C8.58473 0.536889 8.85139 0.355555 9.06473 0.227555C9.25673 0.0568888 9.43806 -0.0177776 9.60873 0.00355549C9.77939 0.00355549 9.92873 0.0995555 10.0567 0.291556C10.3127 0.504889 10.6221 0.803555 10.9847 1.18756C11.3687 1.55022 11.7207 1.89156 12.0407 2.21156C12.3607 2.53156 12.5421 2.72356 12.5847 2.78755C12.7127 2.95822 12.7661 3.16089 12.7447 3.39556C12.7447 3.60889 12.6701 3.79022 12.5207 3.93956C12.3927 4.08889 12.2221 4.14222 12.0087 4.09956C11.7954 4.03556 11.5394 3.83289 11.2407 3.49156C11.0914 3.29956 10.8461 3.04356 10.5047 2.72356C10.1634 2.38222 9.83273 2.07289 9.51273 1.79556C9.25673 1.94489 8.96873 2.13689 8.64873 2.37156C8.35006 2.60622 8.07273 2.84089 7.81673 3.07556C7.56073 3.28889 7.35806 3.45956 7.20873 3.58756Z" fill="#1A1A1A"/>
</svg>
