<svg width="14" height="19" viewBox="0 0 14 19" fill="none" xmlns="http://www.w3.org/2000/svg">
<path d="M0.744727 17.8598C0.659394 17.6891 0.552727 17.5611 0.424727 17.4758C0.296727 17.3691 0.232727 17.2731 0.232727 17.1878C0.232727 17.1024 0.222061 17.0171 0.200727 16.9318C0.200727 16.8251 0.158061 16.7291 0.0727273 16.6438C-0.0339394 16.5158 -0.0232727 16.2278 0.104727 15.7798C0.232727 15.3104 0.446061 14.7451 0.744727 14.0838C1.04339 13.4011 1.39539 12.6864 1.80073 11.9398C1.97139 11.7691 2.14206 11.5451 2.31273 11.2678C2.48339 10.9904 2.61139 10.8091 2.69673 10.7238C2.69673 10.6384 2.72873 10.5638 2.79273 10.4998C2.85673 10.4144 2.93139 10.3718 3.01673 10.3718V10.1798C3.01673 10.0731 3.11273 9.89176 3.30473 9.63577C3.51806 9.37977 3.77406 9.10243 4.07273 8.80377C4.37139 8.48376 4.68073 8.1851 5.00073 7.90777C5.32073 7.6091 5.58739 7.39576 5.80073 7.26777C6.24873 6.9691 6.70739 6.78777 7.17673 6.72377C7.66739 6.65976 8.08339 6.76643 8.42473 7.04377C8.48873 7.10776 8.59539 7.21443 8.74473 7.36376C8.89406 7.5131 9.06473 7.68376 9.25673 7.87576C9.47006 8.04643 9.68339 8.22777 9.89673 8.41976L11.0807 9.47577L10.5047 11.0758C10.2274 11.9291 10.1527 12.6758 10.2807 13.3158C10.4301 13.9558 10.6434 14.5104 10.9207 14.9798C11.0274 15.2144 11.2407 15.4384 11.5607 15.6518C11.9021 15.8651 12.2221 15.9931 12.5207 16.0358C12.6914 16.0571 12.8514 16.1211 13.0007 16.2278C13.1501 16.3344 13.2247 16.5051 13.2247 16.7398C13.2247 16.9531 13.1821 17.1238 13.0967 17.2518C13.0114 17.3798 12.8621 17.4651 12.6487 17.5078C11.9447 17.5931 11.2834 17.4224 10.6647 16.9958C10.0674 16.5691 9.51273 15.8651 9.00073 14.8838C8.91539 14.7558 8.79806 14.5211 8.64873 14.1798C8.52073 13.8171 8.44606 13.5824 8.42473 13.4758C8.33939 13.5824 8.17939 13.7851 7.94473 14.0838C7.71006 14.3611 7.52873 14.5638 7.40073 14.6918C5.88606 16.2278 4.57406 17.2624 3.46473 17.7958C2.37673 18.3078 1.47006 18.3291 0.744727 17.8598ZM1.89673 16.0678C1.89673 16.2171 2.12073 16.2171 2.56873 16.0678C3.03806 15.8971 3.53939 15.5984 4.07273 15.1718C4.79806 14.5531 5.52339 13.8704 6.24873 13.1238C6.99539 12.3771 7.59273 11.6838 8.04073 11.0438L8.74473 9.89176C8.53139 9.4011 8.29673 9.07043 8.04073 8.89977C7.80606 8.70776 7.60339 8.61176 7.43273 8.61176C7.15539 8.61176 6.73939 8.86776 6.18473 9.37976C5.65139 9.89176 5.07539 10.5744 4.45673 11.4278C3.83806 12.2811 3.25139 13.2198 2.69673 14.2438C2.48339 14.6704 2.29139 15.0864 2.12073 15.4918C1.97139 15.8758 1.89673 16.0678 1.89673 16.0678ZM9.83273 4.89977C9.57673 5.09177 9.39539 5.1451 9.28873 5.05976C9.20339 4.97443 9.09673 4.75043 8.96873 4.38776C8.84073 4.13177 8.65939 3.82243 8.42473 3.45976C8.19006 3.0971 7.95539 2.73443 7.72073 2.37176C7.50739 2.0091 7.34739 1.67843 7.24073 1.37977C7.15539 1.05976 7.17673 0.803764 7.30473 0.611764C7.58206 0.377098 7.81673 0.195765 8.00873 0.0677653C8.22206 -0.0602356 8.43539 -0.00690228 8.64873 0.227765C8.79806 0.313099 8.96873 0.537098 9.16073 0.899764C9.37406 1.2411 9.57673 1.63576 9.76873 2.08376C9.98206 2.53176 10.1527 2.94777 10.2807 3.33177C10.4087 3.69443 10.4727 3.93976 10.4727 4.06777C10.4941 4.13177 10.4727 4.22776 10.4087 4.35576C10.3447 4.46243 10.2594 4.5691 10.1527 4.67577C10.0674 4.78243 9.96073 4.8571 9.83273 4.89977Z" fill="#1A1A1A"/>
</svg>
