<svg width="15" height="17" viewBox="0 0 15 17" fill="none" xmlns="http://www.w3.org/2000/svg">
<path d="M0.744727 16.08C0.659394 15.9093 0.552727 15.7813 0.424727 15.696C0.296727 15.5893 0.232727 15.4933 0.232727 15.408C0.232727 15.3227 0.222061 15.2373 0.200727 15.152C0.200727 15.0453 0.158061 14.9493 0.0727273 14.864C-0.0339394 14.736 -0.0232727 14.448 0.104727 14C0.232727 13.5307 0.446061 12.9653 0.744727 12.304C1.04339 11.6213 1.39539 10.9067 1.80073 10.16C1.97139 9.98933 2.14206 9.76533 2.31273 9.488C2.48339 9.21067 2.61139 9.02933 2.69673 8.944C2.69673 8.85867 2.72873 8.784 2.79273 8.72C2.85673 8.63467 2.93139 8.592 3.01673 8.592V8.4C3.01673 8.29333 3.11273 8.112 3.30473 7.856C3.51806 7.6 3.77406 7.32267 4.07273 7.024C4.37139 6.704 4.68073 6.40533 5.00073 6.128C5.32073 5.82933 5.58739 5.616 5.80073 5.488C6.24873 5.18933 6.70739 5.008 7.17673 4.944C7.66739 4.88 8.08339 4.98667 8.42473 5.264C8.48873 5.328 8.59539 5.43467 8.74473 5.584C8.89406 5.73333 9.06473 5.904 9.25673 6.096C9.47006 6.26667 9.68339 6.448 9.89673 6.64L11.0807 7.696L10.5047 9.296C10.2274 10.1493 10.1527 10.896 10.2807 11.536C10.4301 12.176 10.6434 12.7307 10.9207 13.2C11.0274 13.4347 11.2407 13.6587 11.5607 13.872C11.9021 14.0853 12.2221 14.2133 12.5207 14.256C12.6914 14.2773 12.8514 14.3413 13.0007 14.448C13.1501 14.5547 13.2247 14.7253 13.2247 14.96C13.2247 15.1733 13.1821 15.344 13.0967 15.472C13.0114 15.6 12.8621 15.6853 12.6487 15.728C11.9447 15.8133 11.2834 15.6427 10.6647 15.216C10.0674 14.7893 9.51273 14.0853 9.00073 13.104C8.91539 12.976 8.79806 12.7413 8.64873 12.4C8.52073 12.0373 8.44606 11.8027 8.42473 11.696C8.33939 11.8027 8.17939 12.0053 7.94473 12.304C7.71006 12.5813 7.52873 12.784 7.40073 12.912C5.88606 14.448 4.57406 15.4827 3.46473 16.016C2.37673 16.528 1.47006 16.5493 0.744727 16.08ZM1.89673 14.288C1.89673 14.4373 2.12073 14.4373 2.56873 14.288C3.03806 14.1173 3.53939 13.8187 4.07273 13.392C4.79806 12.7733 5.52339 12.0907 6.24873 11.344C6.99539 10.5973 7.59273 9.904 8.04073 9.264L8.74473 8.112C8.53139 7.62133 8.29673 7.29067 8.04073 7.12C7.80606 6.928 7.60339 6.832 7.43273 6.832C7.15539 6.832 6.73939 7.088 6.18473 7.6C5.65139 8.112 5.07539 8.79467 4.45673 9.648C3.83806 10.5013 3.25139 11.44 2.69673 12.464C2.48339 12.8907 2.29139 13.3067 2.12073 13.712C1.97139 14.096 1.89673 14.288 1.89673 14.288ZM11.1127 3.504C10.6861 3.504 10.3341 3.42933 10.0567 3.28C9.80073 3.10933 9.47006 2.88533 9.06473 2.608C8.87273 2.50133 8.61673 2.288 8.29673 1.968C7.97673 1.648 7.68873 1.488 7.43273 1.488C7.21939 1.488 7.03806 1.57333 6.88873 1.744C6.76073 1.91467 6.63273 2.096 6.50473 2.288C6.37673 2.45867 6.19539 2.56533 5.96073 2.608C5.93939 2.71467 5.87539 2.85333 5.76873 3.024C5.66206 3.17333 5.58739 3.19467 5.54473 3.088C5.33139 3.024 5.16073 2.91733 5.03273 2.768C4.92606 2.61867 4.88339 2.49067 4.90473 2.384C4.92606 2.192 5.08606 1.85067 5.38473 1.36C5.68339 0.869332 6.19539 0.442666 6.92073 0.0799999C7.17673 -0.0266666 7.52873 -0.0266666 7.97673 0.0799999C8.44606 0.186666 8.85139 0.4 9.19273 0.719999C9.68339 1.168 10.0567 1.49867 10.3127 1.712C10.5687 1.904 10.8994 1.91467 11.3047 1.744C11.6247 1.65867 11.9661 1.49867 12.3287 1.264C12.7127 1.008 13.1287 0.794666 13.5767 0.623999C13.7261 0.559999 13.8647 0.570667 13.9927 0.656C14.1207 0.719999 14.2167 0.826666 14.2807 0.976C14.3447 1.12533 14.3661 1.264 14.3447 1.392C14.3447 1.47733 14.2701 1.62667 14.1207 1.84C13.9927 2.05333 13.8327 2.21333 13.6407 2.32C13.0007 2.68267 12.5101 2.94933 12.1687 3.12C11.8274 3.29067 11.5821 3.39733 11.4327 3.44C11.3047 3.48267 11.1981 3.504 11.1127 3.504Z" fill="#1A1A1A"/>
</svg>
