<svg width="11" height="19" viewBox="0 0 11 19" fill="none" xmlns="http://www.w3.org/2000/svg">
<path d="M4.24 12.256C3.62133 12.3627 3.056 12.3307 2.544 12.16C2.032 11.968 1.616 11.6587 1.296 11.232C0.997333 10.784 0.848 10.2187 0.848 9.536C0.784 8.896 0.858667 8.16 1.072 7.328C1.28533 6.47467 1.59467 5.62133 2 4.768C2.42667 3.91467 2.88533 3.17867 3.376 2.56C3.80267 2.048 4.22933 1.57867 4.656 1.152C5.08267 0.725334 5.46667 0.437333 5.808 0.288C6.10667 0.16 6.384 0.0853332 6.64 0.0640001C6.91733 0.0213334 7.14133 0 7.312 0C7.65333 0.0853335 8.016 0.245334 8.4 0.48C8.80533 0.693334 9.008 0.928 9.008 1.184C9.008 1.184 9.02933 1.216 9.072 1.28C9.136 1.32267 9.168 1.344 9.168 1.344C9.296 1.344 9.40267 1.48267 9.488 1.76C9.59467 2.03733 9.65867 2.35733 9.68 2.72C9.70133 3.06133 9.648 3.34933 9.52 3.584C9.43467 3.98933 9.28533 4.34133 9.072 4.64C8.85867 4.93867 8.66667 5.088 8.496 5.088C8.41067 5.088 8.32533 5.09867 8.24 5.12C8.176 5.12 8.144 5.17333 8.144 5.28C8.144 5.38667 8.08 5.42933 7.952 5.408C7.84533 5.38667 7.728 5.32267 7.6 5.216C7.472 5.088 7.376 4.93867 7.312 4.768C7.312 4.66133 7.35467 4.48 7.44 4.224C7.52533 3.968 7.61067 3.63733 7.696 3.232C7.824 2.63467 7.81333 2.25067 7.664 2.08C7.51467 1.888 7.22667 1.87733 6.8 2.048C6.26667 2.34667 5.75467 2.76267 5.264 3.296C4.79467 3.82933 4.35733 4.52267 3.952 5.376C3.54667 6.208 3.184 7.25333 2.864 8.512C2.736 9.00267 2.68267 9.42933 2.704 9.792C2.74667 10.1547 2.8 10.3467 2.864 10.368C3.16267 10.4533 3.568 10.4747 4.08 10.432C4.592 10.368 4.96533 10.272 5.2 10.144C5.54133 9.97333 5.92533 9.74933 6.352 9.472C6.77867 9.17333 7.152 8.90667 7.472 8.672C7.57867 8.608 7.70667 8.50133 7.856 8.352C8.00533 8.20267 8.16533 8.08533 8.336 8C8.50667 7.744 8.656 7.59467 8.784 7.552C8.912 7.50933 9.104 7.488 9.36 7.488C9.53067 7.53067 9.69067 7.59467 9.84 7.68C9.98933 7.76533 10.0853 7.85067 10.128 7.936C10.192 8.02133 10.16 8.096 10.032 8.16C9.94667 8.16 9.89333 8.192 9.872 8.256C9.872 8.29867 9.872 8.32 9.872 8.32C9.91467 8.40533 9.81867 8.58667 9.584 8.864C9.37067 9.12 9.09333 9.408 8.752 9.728C8.41067 10.048 8.08 10.3253 7.76 10.56C7.46133 10.7733 7.248 10.88 7.12 10.88C6.90667 10.88 6.8 10.944 6.8 11.072C6.8 11.1147 6.64 11.2213 6.32 11.392C6.02133 11.5627 5.66933 11.7333 5.264 11.904C4.88 12.0747 4.53867 12.192 4.24 12.256ZM3.728 18.304C3.408 18.368 3.024 18.368 2.576 18.304C2.128 18.2613 1.712 18.1867 1.328 18.08C0.944 17.9947 0.688 17.9307 0.56 17.888C0.304 17.8027 0.133333 17.6747 0.048 17.504C-0.016 17.3333 -0.016 17.152 0.048 16.96C0.112 16.7893 0.229333 16.6507 0.4 16.544C0.570667 16.4587 0.762667 16.448 0.976 16.512C1.31733 16.6187 1.69067 16.736 2.096 16.864C2.52267 16.992 2.90667 17.056 3.248 17.056C3.58933 17.056 3.83467 16.9067 3.984 16.608C4.13333 16.3733 4.15467 16.1387 4.048 15.904C3.96267 15.6907 3.80267 15.456 3.568 15.2C3.41867 15.008 3.23733 14.7733 3.024 14.496C2.81067 14.24 2.58667 14.0053 2.352 13.792C2.18133 13.536 2.064 13.28 2 13.024C1.95733 12.7893 2.10667 12.512 2.448 12.192C2.78933 11.8507 3.472 11.424 4.496 10.912L5.552 11.648C5.01867 11.904 4.58133 12.1493 4.24 12.384C3.92 12.6187 3.76 12.8747 3.76 13.152C4.05867 13.5787 4.38933 13.984 4.752 14.368C5.11467 14.7733 5.34933 15.1893 5.456 15.616C5.584 16.128 5.584 16.5653 5.456 16.928C5.34933 17.312 5.136 17.6107 4.816 17.824C4.51733 18.0587 4.15467 18.2187 3.728 18.304Z" fill="#1A1A1A"/>
</svg>
