<svg width="12" height="19" viewBox="0 0 12 19" fill="none" xmlns="http://www.w3.org/2000/svg">
<path d="M5.43289 17.6922C4.98489 18.0762 4.46222 18.3002 3.86489 18.3642C3.28889 18.4282 2.72356 18.3429 2.16889 18.1082C1.61422 17.8522 1.15556 17.4682 0.792889 16.9562C0.430222 16.4869 0.195556 15.9536 0.088889 15.3562C-0.0177778 14.7376 -0.0284445 13.9376 0.0568889 12.9562C0.120889 12.1242 0.387556 11.2922 0.856889 10.4602C1.32622 9.6069 1.89156 8.84957 2.55289 8.18824C3.23556 7.5269 3.90756 7.06824 4.56889 6.81223C4.88889 6.5989 5.15556 6.5029 5.36889 6.52424C5.60356 6.52424 5.95556 6.54557 6.42489 6.58823C6.91556 6.65224 7.27822 6.74824 7.51289 6.87624C7.76889 7.00424 7.97156 7.1749 8.12089 7.38824C8.44089 7.70824 8.65422 8.02824 8.76089 8.34824C8.86756 8.6469 8.92089 8.94557 8.92089 9.24424C8.83556 9.71357 8.51556 10.2896 7.96089 10.9722C7.42756 11.6336 6.72356 12.1776 5.84889 12.6042C5.37956 12.7536 4.86756 12.8176 4.31289 12.7962C3.75822 12.7749 3.29956 12.6362 2.93689 12.3802C2.53156 12.2096 2.26489 12.2416 2.13689 12.4762C2.00889 12.6896 1.89156 13.2229 1.78489 14.0762C1.69956 14.8869 1.76356 15.4842 1.97689 15.8682C2.19022 16.2309 2.47822 16.4442 2.84089 16.5082C3.26756 16.5936 3.59822 16.6576 3.83289 16.7002C4.08889 16.7216 4.39822 16.6256 4.76089 16.4122C5.10222 16.1989 5.31556 16.0816 5.40089 16.0602C5.48622 16.0176 5.55022 15.9749 5.59289 15.9322C5.65689 15.8682 5.79556 15.7296 6.00889 15.5162C6.15822 15.3669 6.27556 15.2602 6.36089 15.1962C6.44622 15.1109 6.54222 15.0682 6.64889 15.0682C6.75556 15.0682 6.85156 15.1216 6.93689 15.2282C7.02222 15.3136 7.10756 15.3776 7.19289 15.4202C7.40622 15.4202 7.44889 15.5482 7.32089 15.8042C7.21422 16.0602 6.99022 16.3696 6.64889 16.7322C6.30756 17.0736 5.90222 17.3936 5.43289 17.6922ZM5.40089 10.9082C5.63556 10.8016 5.88089 10.6522 6.13689 10.4602C6.39289 10.2469 6.60622 10.0229 6.77689 9.78824C6.96889 9.53224 7.06489 9.3189 7.06489 9.14824C7.06489 8.84957 6.92622 8.60424 6.64889 8.41224C6.37156 8.1989 5.95556 8.1669 5.40089 8.31624C5.16622 8.38024 4.89956 8.54024 4.60089 8.79624C4.30222 9.0309 4.01422 9.29757 3.73689 9.59624C3.48089 9.8949 3.26756 10.1616 3.09689 10.3962C2.94756 10.6309 2.89422 10.7696 2.93689 10.8122C3.00089 10.9189 3.18222 11.0042 3.48089 11.0682C3.77956 11.1109 4.11022 11.1216 4.47289 11.1002C4.85689 11.0789 5.16622 11.0149 5.40089 10.9082ZM7.19289 4.60423C7.04356 4.4549 6.92622 4.2309 6.84089 3.93223C6.77689 3.63357 6.75556 3.44157 6.77689 3.35624C6.79822 3.24957 6.93689 3.03623 7.19289 2.71624C7.47022 2.39624 7.79022 2.04424 8.15289 1.66024C8.51556 1.27624 8.85689 0.934902 9.17689 0.636235C9.51822 0.337569 9.76356 0.156235 9.91289 0.0922347C10.1476 -0.057098 10.3716 -0.0250978 10.5849 0.188235C10.7982 0.380235 11.0116 0.646902 11.2249 0.988235C11.2889 1.18023 11.2036 1.4149 10.9689 1.69224C10.7556 1.94824 10.4676 2.22557 10.1049 2.52424C9.74222 2.8229 9.37956 3.12157 9.01689 3.42023C8.67556 3.69757 8.41956 3.95357 8.24889 4.18824C8.03556 4.52957 7.86489 4.73224 7.73689 4.79624C7.63022 4.86023 7.44889 4.79623 7.19289 4.60423Z" fill="#1A1A1A"/>
</svg>
