<svg width="11" height="18" viewBox="0 0 11 18" fill="none" xmlns="http://www.w3.org/2000/svg">
<path d="M5.43289 17.0596C4.98489 17.4436 4.46222 17.6676 3.86489 17.7316C3.28889 17.7956 2.72356 17.7102 2.16889 17.4756C1.61422 17.2196 1.15556 16.8356 0.792889 16.3236C0.430222 15.8542 0.195556 15.3209 0.088889 14.7236C-0.0177778 14.1049 -0.0284445 13.3049 0.0568889 12.3236C0.120889 11.4916 0.387556 10.6596 0.856889 9.82756C1.32622 8.97422 1.89156 8.21689 2.55289 7.55556C3.23556 6.89422 3.90756 6.43556 4.56889 6.17955C4.88889 5.96622 5.15556 5.87022 5.36889 5.89156C5.60356 5.89156 5.95556 5.91289 6.42489 5.95555C6.91556 6.01956 7.27822 6.11556 7.51289 6.24356C7.76889 6.37156 7.97156 6.54222 8.12089 6.75556C8.44089 7.07556 8.65422 7.39556 8.76089 7.71556C8.86756 8.01422 8.92089 8.31289 8.92089 8.61156C8.83556 9.08089 8.51556 9.65689 7.96089 10.3396C7.42756 11.0009 6.72356 11.5449 5.84889 11.9716C5.37956 12.1209 4.86756 12.1849 4.31289 12.1636C3.75822 12.1422 3.29956 12.0036 2.93689 11.7476C2.53156 11.5769 2.26489 11.6089 2.13689 11.8436C2.00889 12.0569 1.89156 12.5902 1.78489 13.4436C1.69956 14.2542 1.76356 14.8516 1.97689 15.2356C2.19022 15.5982 2.47822 15.8116 2.84089 15.8756C3.26756 15.9609 3.59822 16.0249 3.83289 16.0676C4.08889 16.0889 4.39822 15.9929 4.76089 15.7796C5.10222 15.5662 5.31556 15.4489 5.40089 15.4276C5.48622 15.3849 5.55022 15.3422 5.59289 15.2996C5.65689 15.2356 5.79556 15.0969 6.00889 14.8836C6.15822 14.7342 6.27556 14.6276 6.36089 14.5636C6.44622 14.4782 6.54222 14.4356 6.64889 14.4356C6.75556 14.4356 6.85156 14.4889 6.93689 14.5956C7.02222 14.6809 7.10756 14.7449 7.19289 14.7876C7.40622 14.7876 7.44889 14.9156 7.32089 15.1716C7.21422 15.4276 6.99022 15.7369 6.64889 16.0996C6.30756 16.4409 5.90222 16.7609 5.43289 17.0596ZM5.40089 10.2756C5.63556 10.1689 5.88089 10.0196 6.13689 9.82756C6.39289 9.61422 6.60622 9.39022 6.77689 9.15556C6.96889 8.89956 7.06489 8.68622 7.06489 8.51556C7.06489 8.21689 6.92622 7.97156 6.64889 7.77956C6.37156 7.56622 5.95556 7.53422 5.40089 7.68356C5.16622 7.74756 4.89956 7.90756 4.60089 8.16356C4.30222 8.39822 4.01422 8.66489 3.73689 8.96356C3.48089 9.26222 3.26756 9.52889 3.09689 9.76356C2.94756 9.99822 2.89422 10.1369 2.93689 10.1796C3.00089 10.2862 3.18222 10.3716 3.48089 10.4356C3.77956 10.4782 4.11022 10.4889 4.47289 10.4676C4.85689 10.4462 5.16622 10.3822 5.40089 10.2756ZM4.63289 3.58756C4.27022 3.95022 3.96089 4.11022 3.70489 4.06756C3.44889 4.00355 3.28889 3.84356 3.22489 3.58756C3.16089 3.31022 3.24622 3.02222 3.48089 2.72356C3.54489 2.63822 3.69422 2.48889 3.92889 2.27556C4.16356 2.06222 4.43022 1.81689 4.72889 1.53955C5.04889 1.26222 5.36889 1.00622 5.68889 0.771555C6.00889 0.536889 6.27556 0.355555 6.48889 0.227555C6.68089 0.0568888 6.86222 -0.0177776 7.03289 0.00355549C7.20356 0.00355549 7.35289 0.0995555 7.48089 0.291556C7.73689 0.504889 8.04622 0.803555 8.40889 1.18756C8.79289 1.55022 9.14489 1.89156 9.46489 2.21156C9.78489 2.53156 9.96622 2.72356 10.0089 2.78755C10.1369 2.95822 10.1902 3.16089 10.1689 3.39556C10.1689 3.60889 10.0942 3.79022 9.94489 3.93956C9.81689 4.08889 9.64622 4.14222 9.43289 4.09956C9.21956 4.03556 8.96356 3.83289 8.66489 3.49156C8.51556 3.29956 8.27022 3.04356 7.92889 2.72356C7.58756 2.38222 7.25689 2.07289 6.93689 1.79556C6.68089 1.94489 6.39289 2.13689 6.07289 2.37156C5.77422 2.60622 5.49689 2.84089 5.24089 3.07556C4.98489 3.28889 4.78222 3.45956 4.63289 3.58756Z" fill="#1A1A1A"/>
</svg>
