<svg width="11" height="19" viewBox="0 0 11 19" fill="none" xmlns="http://www.w3.org/2000/svg">
<path d="M4.36 18.5463C3.76267 18.781 3.13333 18.7383 2.472 18.4183C1.832 18.1196 1.27733 17.6396 0.808 16.9783C0.722667 16.8503 0.616 16.6476 0.488 16.3703C0.381333 16.1143 0.274667 15.8476 0.168 15.5703C0.0826665 15.293 0.0293332 15.0476 0.00800003 14.8343C-0.0133333 14.621 0.00799995 14.493 0.0719999 14.4503C0.136 14.3863 0.242667 14.365 0.392 14.3863C0.541333 14.4076 0.68 14.461 0.808 14.5463C0.957333 14.6316 1.05333 14.7383 1.096 14.8663C1.16 15.0156 1.256 15.2076 1.384 15.4423C1.53333 15.677 1.69333 15.8903 1.864 16.0823C2.03467 16.2743 2.16267 16.381 2.248 16.4023C2.65333 16.5943 2.952 16.6796 3.144 16.6583C3.336 16.637 3.50667 16.573 3.656 16.4663C4.01867 16.189 4.31733 15.8263 4.552 15.3783C4.78667 14.9303 5.05333 14.237 5.352 13.2983C5.58667 12.509 5.82133 11.677 6.056 10.8023C6.312 9.90629 6.536 9.21295 6.728 8.72229C6.792 8.46629 6.86667 8.25295 6.952 8.08229C7.05867 7.89029 7.15467 7.75162 7.24 7.66629H7.432C6.96267 7.96495 6.54667 8.30629 6.184 8.69029C5.82133 9.07429 5.36267 9.38362 4.808 9.61829C4.68 9.76762 4.36 9.86362 3.848 9.90629C3.35733 9.92762 2.87733 9.86362 2.408 9.71429C2.10933 9.54362 1.88533 9.41562 1.736 9.33029C1.608 9.24495 1.50133 9.12762 1.416 8.97829C1.352 8.82895 1.256 8.59429 1.128 8.27429C0.978667 7.95429 0.957333 7.43162 1.064 6.70629C1.17067 5.98095 1.36267 5.25562 1.64 4.53029C1.896 3.99695 2.26933 3.42095 2.76 2.80229C3.25067 2.18362 3.77333 1.62895 4.328 1.13829C4.88267 0.626286 5.384 0.306286 5.832 0.178286C6.00267 0.0929521 6.184 0.0396188 6.376 0.0182858C6.58933 -0.024381 6.888 0.00761894 7.272 0.114286C7.63467 0.156952 7.912 0.242286 8.104 0.370286C8.296 0.476953 8.60533 0.711619 9.032 1.07429C9.30933 1.35162 9.53333 1.62895 9.704 1.90629C9.896 2.18362 10.0453 2.47162 10.152 2.77029C10.3013 3.09029 10.3547 3.38895 10.312 3.66629C10.2907 3.92229 10.1733 4.18895 9.96 4.46629C9.768 4.74362 9.56533 5.02095 9.352 5.29829C9.13867 5.57562 8.97867 5.95962 8.872 6.45029C8.76533 7.09029 8.59467 7.81562 8.36 8.62629C8.12533 9.41562 7.92267 10.1516 7.752 10.8343L7.24 12.8183C6.70667 14.6316 6.19467 15.9756 5.704 16.8503C5.23467 17.7463 4.78667 18.3116 4.36 18.5463ZM3.208 8.30629C3.63467 8.28495 4.04 8.19962 4.424 8.05029C4.808 7.90095 5.18133 7.65562 5.544 7.31429C5.90667 6.95162 6.26933 6.49295 6.632 5.93829C6.99467 5.42629 7.25067 4.89295 7.4 4.33829C7.54933 3.76229 7.60267 3.20762 7.56 2.67429C7.53867 2.33295 7.48533 2.10895 7.4 2.00229C7.31467 1.89562 7.13333 1.86362 6.856 1.90629C6.45067 1.97029 6.00267 2.19429 5.512 2.57829C5.02133 2.94095 4.56267 3.39962 4.136 3.95429C3.816 4.38095 3.54933 4.89295 3.336 5.49029C3.12267 6.13029 2.99467 6.73829 2.952 7.31429C2.90933 7.89029 2.99467 8.22095 3.208 8.30629Z" fill="#1A1A1A"/>
</svg>
