<svg width="13" height="20" viewBox="0 0 13 20" fill="none" xmlns="http://www.w3.org/2000/svg">
<path d="M1.352 19.2C1.20267 19.2213 1.04267 19.2213 0.872 19.2C0.722667 19.1573 0.573333 19.0827 0.424 18.976C0.253333 18.8053 0.136 18.6773 0.0719999 18.592C0.00799995 18.4853 -0.0133333 18.3253 0.00800003 18.112C0.0506666 17.8987 0.125333 17.568 0.232 17.12C0.338667 16.7787 0.466667 16.3093 0.616 15.712C0.765333 15.0933 0.925333 14.4853 1.096 13.888C1.16 13.5467 1.24533 13.1947 1.352 12.832C1.48 12.4693 1.608 12.1387 1.736 11.84C1.864 11.52 1.96 11.2747 2.024 11.104C2.19467 10.5067 2.35467 9.984 2.504 9.536C2.67467 9.088 2.87733 8.576 3.112 8C3.34667 7.40267 3.63467 6.61333 3.976 5.632C4.44533 4.352 4.79733 3.38133 5.032 2.72C5.288 2.03733 5.46933 1.54667 5.576 1.248C5.704 0.928 5.78933 0.682667 5.832 0.512001C5.832 0.341334 5.87467 0.213334 5.96 0.128C6.06667 0.0426668 6.19467 0 6.344 0C6.64267 0 6.87733 0.149333 7.048 0.448C7.24 0.725334 7.35733 1.06667 7.4 1.472C7.44267 1.856 7.37867 2.21867 7.208 2.56C6.86667 3.328 6.504 4.24533 6.12 5.312C5.736 6.35733 5.36267 7.392 5 8.416C4.63733 9.41867 4.296 10.272 3.976 10.976C3.976 11.0613 3.944 11.2107 3.88 11.424C3.816 11.6373 3.74133 11.8293 3.656 12C3.57067 12.1707 3.48533 12.3307 3.4 12.48C3.336 12.6293 3.304 12.704 3.304 12.704C3.304 12.7893 3.272 12.9493 3.208 13.184C3.144 13.4187 3.05867 13.7067 2.952 14.048C2.86667 14.304 2.76 14.6347 2.632 15.04C2.52533 15.4453 2.45067 15.7867 2.408 16.064C2.51467 15.872 2.73867 15.584 3.08 15.2C3.42133 14.816 3.74133 14.4853 4.04 14.208C4.38133 13.9093 4.76533 13.5787 5.192 13.216C5.61867 12.8533 5.96 12.5867 6.216 12.416C6.472 12.2453 6.696 12.096 6.888 11.968C7.10133 11.8187 7.208 11.744 7.208 11.744C7.208 11.6587 7.24 11.616 7.304 11.616C7.38933 11.5947 7.47467 11.584 7.56 11.584C7.64533 11.584 7.688 11.5733 7.688 11.552C7.70933 11.5307 7.72 11.4773 7.72 11.392C7.72 11.2853 7.83733 11.1893 8.072 11.104C8.328 11.0187 8.616 10.9547 8.936 10.912C9.27733 10.848 9.55467 10.816 9.768 10.816C10.024 10.816 10.2267 10.8693 10.376 10.976C10.5253 11.0827 10.7173 11.3173 10.952 11.68C11.208 12.0213 11.368 12.4373 11.432 12.928C11.5173 13.3973 11.4747 13.888 11.304 14.4C11.304 14.5707 11.272 14.816 11.208 15.136C11.1653 15.4347 11.144 15.7547 11.144 16.096L10.952 17.12H11.464C11.6347 17.12 11.7947 17.152 11.944 17.216C12.0933 17.2587 12.168 17.28 12.168 17.28C12.2533 17.3653 12.3387 17.4507 12.424 17.536C12.5093 17.6 12.5947 17.632 12.68 17.632C12.936 17.632 13.032 17.7387 12.968 17.952C12.904 18.144 12.744 18.3253 12.488 18.496C11.976 18.8373 11.5067 19.008 11.08 19.008C10.6747 19.008 10.3013 18.8373 9.96 18.496C9.61867 18.1333 9.40533 17.728 9.32 17.28C9.23467 16.832 9.27733 16.2667 9.448 15.584C9.53333 14.6453 9.576 13.9627 9.576 13.536C9.59733 13.088 9.49067 12.864 9.256 12.864C9.04267 12.864 8.66933 13.0133 8.136 13.312C7.60267 13.5893 7.00533 13.9733 6.344 14.464C5.68267 14.9547 5.032 15.4987 4.392 16.096C3.752 16.6933 3.21867 17.312 2.792 17.952C2.536 18.272 2.29067 18.56 2.056 18.816C1.82133 19.0507 1.58667 19.1787 1.352 19.2Z" fill="#1A1A1A"/>
</svg>
