<svg width="9" height="19" viewBox="0 0 9 19" fill="none" xmlns="http://www.w3.org/2000/svg">
<path d="M0.456 17.7882C0.285334 17.6176 0.157333 17.4042 0.0720001 17.1482C0.00800002 16.8922 -0.0133334 16.6362 0.00800002 16.3802C0.0293334 16.1242 0.0826668 15.9109 0.168 15.7402C0.168 15.5696 0.189333 15.4416 0.232 15.3562C0.296 15.2496 0.317333 15.1536 0.296 15.0682C0.274667 14.9829 0.296 14.8336 0.36 14.6202C0.424 14.4069 0.488 14.2042 0.552 14.0122C0.701333 13.6709 0.861333 13.2656 1.032 12.7962C1.20267 12.3056 1.36267 11.8256 1.512 11.3562C1.66133 10.8869 1.78933 10.4816 1.896 10.1402C2.00267 9.7989 2.06667 9.58557 2.088 9.50024C2.088 9.24424 2.25867 9.10557 2.6 9.08424C2.856 8.9989 3.048 8.9989 3.176 9.08424C3.304 9.14824 3.47467 9.3509 3.688 9.69223C3.85867 9.8629 3.92267 10.1189 3.88 10.4602C3.83733 10.8016 3.69867 11.2282 3.464 11.7402C3.37867 11.9109 3.272 12.1562 3.144 12.4762C3.03733 12.7962 2.96267 13.0842 2.92 13.3402C2.83467 13.5109 2.728 13.7562 2.6 14.0762C2.49333 14.3749 2.39733 14.6629 2.312 14.9402C2.26933 15.0469 2.22667 15.2069 2.184 15.4202C2.14133 15.6122 2.088 15.8256 2.024 16.0602C1.96 16.2736 1.87467 16.4656 1.768 16.6362C1.576 17.5109 1.39467 18.0229 1.224 18.1722C1.07467 18.3216 0.818667 18.1936 0.456 17.7882ZM4.584 4.60423C4.43467 4.4549 4.31733 4.2309 4.232 3.93223C4.168 3.63357 4.14667 3.44157 4.168 3.35624C4.18933 3.24957 4.328 3.03623 4.584 2.71624C4.86133 2.39624 5.18133 2.04424 5.544 1.66024C5.90667 1.27624 6.248 0.934902 6.568 0.636235C6.90933 0.337569 7.15467 0.156235 7.304 0.0922347C7.53867 -0.057098 7.76267 -0.0250978 7.976 0.188235C8.18933 0.380235 8.40267 0.646902 8.616 0.988235C8.68 1.18023 8.59467 1.4149 8.36 1.69224C8.14667 1.94824 7.85867 2.22557 7.496 2.52424C7.13333 2.8229 6.77067 3.12157 6.408 3.42023C6.06667 3.69757 5.81067 3.95357 5.64 4.18824C5.42667 4.52957 5.256 4.73224 5.128 4.79624C5.02133 4.86023 4.84 4.79623 4.584 4.60423Z" fill="#1A1A1A"/>
</svg>
