<svg width="7" height="17" viewBox="0 0 7 17" fill="none" xmlns="http://www.w3.org/2000/svg">
<path d="M0.456 16.2743C0.285334 16.1036 0.157333 15.8903 0.0720001 15.6343C0.00800002 15.3783 -0.0133334 15.1223 0.00800002 14.8663C0.0293334 14.6103 0.0826668 14.397 0.168 14.2263C0.168 14.0556 0.189333 13.9276 0.232 13.8423C0.296 13.7356 0.317333 13.6396 0.296 13.5543C0.274667 13.469 0.296 13.3196 0.36 13.1063C0.424 12.893 0.488 12.6903 0.552 12.4983C0.701333 12.157 0.861333 11.7516 1.032 11.2823C1.20267 10.7916 1.36267 10.3116 1.512 9.84229C1.66133 9.37295 1.78933 8.96762 1.896 8.62629C2.00267 8.28495 2.06667 8.07162 2.088 7.98629C2.088 7.73029 2.25867 7.59162 2.6 7.57029C2.856 7.48495 3.048 7.48495 3.176 7.57029C3.304 7.63429 3.47467 7.83695 3.688 8.17829C3.85867 8.34895 3.92267 8.60495 3.88 8.94629C3.83733 9.28762 3.69867 9.71429 3.464 10.2263C3.37867 10.397 3.272 10.6423 3.144 10.9623C3.03733 11.2823 2.96267 11.5703 2.92 11.8263C2.83467 11.997 2.728 12.2423 2.6 12.5623C2.49333 12.861 2.39733 13.149 2.312 13.4263C2.26933 13.533 2.22667 13.693 2.184 13.9063C2.14133 14.0983 2.088 14.3116 2.024 14.5463C1.96 14.7596 1.87467 14.9516 1.768 15.1223C1.576 15.997 1.39467 16.509 1.224 16.6583C1.07467 16.8076 0.818667 16.6796 0.456 16.2743ZM3.56 3.28229C3.45333 3.17562 3.35733 3.02629 3.272 2.83429C3.18667 2.62095 3.13333 2.42895 3.112 2.25829C3.09067 2.06629 3.112 1.97029 3.176 1.97029C3.34667 1.94895 3.54933 1.76762 3.784 1.42629C4.01867 1.08495 4.11467 0.786286 4.072 0.530285C4.072 0.444953 4.104 0.370287 4.168 0.306286C4.232 0.220953 4.30667 0.167619 4.392 0.146286C4.648 -0.0243807 4.89333 -0.0457144 5.128 0.0822852C5.384 0.188952 5.61867 0.412952 5.832 0.754286C6.024 1.15962 6.07733 1.50095 5.992 1.77829C5.90667 2.03429 5.672 2.39695 5.288 2.86629C4.968 3.29295 4.66933 3.52762 4.392 3.57029C4.136 3.61295 3.85867 3.51695 3.56 3.28229Z" fill="#1A1A1A"/>
</svg>
