<svg width="12" height="11" viewBox="0 0 12 11" fill="none" xmlns="http://www.w3.org/2000/svg">
<path d="M11.2 10.2187C10.7733 10.2187 10.4213 10.1333 10.144 9.96267C9.86667 9.77067 9.632 9.46133 9.44 9.03467C9.35467 8.736 9.28 8.40533 9.216 8.04267C9.17333 7.65867 9.152 7.30667 9.152 6.98667C9.152 6.64533 9.184 6.42133 9.248 6.31467C9.33333 6.22933 9.36533 6.08 9.344 5.86667C9.344 5.632 9.344 5.38667 9.344 5.13067C9.32267 4.704 9.216 4.46933 9.024 4.42667C8.85333 4.36267 8.59733 4.42667 8.256 4.61867C7.872 4.85333 7.37067 5.17333 6.752 5.57867C6.13333 5.96267 5.48267 6.38933 4.8 6.85867C4.13867 7.328 3.50933 7.81867 2.912 8.33067C2.44267 8.84267 2.15467 9.23733 2.048 9.51467C1.96267 9.77067 1.83467 9.89867 1.664 9.89867C1.49333 9.984 1.344 9.99467 1.216 9.93067C1.10933 9.84533 0.949334 9.71733 0.736 9.54667C0.586667 9.376 0.437333 9.216 0.288 9.06667C0.138667 8.896 0.0426668 8.768 0 8.68267C0 8.576 0.0320001 8.352 0.0960002 8.01067C0.16 7.66933 0.234667 7.328 0.32 6.98667C0.426667 6.64533 0.501333 6.42133 0.544 6.31467C0.650667 6.31467 0.736 6.208 0.8 5.99467C0.885333 5.78133 1.01333 5.54667 1.184 5.29067C1.22667 5.03467 1.33333 4.69333 1.504 4.26667C1.696 3.81867 1.86667 3.424 2.016 3.08267C2.31467 2.57067 2.51733 2.144 2.624 1.80267C2.752 1.46133 2.83733 1.03467 2.88 0.522667C2.85867 0.437334 2.88 0.362667 2.944 0.298667C3.008 0.213334 3.08267 0.170667 3.168 0.170667C3.33867 0 3.54133 -0.0426668 3.776 0.0426668C4.01067 0.106667 4.224 0.266667 4.416 0.522667C4.8 1.03467 4.94933 1.568 4.864 2.12267C4.8 2.656 4.45867 3.424 3.84 4.42667C3.69067 4.768 3.57333 5.03467 3.488 5.22667C3.424 5.39733 3.392 5.536 3.392 5.64267C3.392 5.64267 3.49867 5.568 3.712 5.41867C3.94667 5.26933 4.20267 5.09867 4.48 4.90667C4.77867 4.69333 5.01333 4.53333 5.184 4.42667C5.29067 4.32 5.536 4.128 5.92 3.85067C6.304 3.57333 6.70933 3.30667 7.136 3.05067C7.584 2.77333 7.91467 2.61333 8.128 2.57067C8.29867 2.48533 8.48 2.41067 8.672 2.34667C8.864 2.26133 9.00267 2.21867 9.088 2.21867C9.25867 2.21867 9.472 2.31467 9.728 2.50667C10.0053 2.67733 10.2613 2.89067 10.496 3.14667C10.7307 3.38133 10.8693 3.584 10.912 3.75467C10.912 3.84 10.912 3.92533 10.912 4.01067C10.9333 4.096 10.9547 4.18133 10.976 4.26667C11.0613 4.544 11.104 4.91733 11.104 5.38667C11.1253 5.856 11.1147 6.28267 11.072 6.66667C11.0293 7.05067 10.9547 7.27467 10.848 7.33867C10.848 7.33867 10.848 7.37067 10.848 7.43467C10.8693 7.47733 10.9227 7.49867 11.008 7.49867C11.008 7.584 11.008 7.63733 11.008 7.65867C10.9013 7.65867 10.8587 7.75467 10.88 7.94667C10.9013 8.11733 10.9653 8.30933 11.072 8.52267C11.2 8.736 11.328 8.90667 11.456 9.03467C11.712 9.29067 11.8187 9.536 11.776 9.77067C11.7333 9.984 11.5413 10.1333 11.2 10.2187Z" fill="#1A1A1A"/>
</svg>
