<svg width="13" height="19" viewBox="0 0 13 19" fill="none" xmlns="http://www.w3.org/2000/svg">
<path d="M2.32229 18.3322C2.04495 18.3322 1.82095 18.2789 1.65029 18.1722C1.50095 18.0656 1.30895 17.9162 1.07429 17.7242C0.668952 17.2976 0.380953 16.8922 0.210286 16.5082C0.0396191 16.1029 -0.0137142 15.7189 0.0502857 15.3562C0.114286 15.1856 0.135619 15.0256 0.114286 14.8762C0.114286 14.7056 0.114286 14.6202 0.114286 14.6202C0.00761907 14.5136 -0.0243809 14.4496 0.0182857 14.4282C0.0609524 14.3856 0.103619 14.3216 0.146286 14.2362C0.274286 14.2362 0.316952 14.1189 0.274286 13.8842C0.231619 13.7136 0.316952 13.3402 0.530286 12.7642C0.743619 12.1882 1.01029 11.6442 1.33029 11.1322C1.45829 10.9189 1.65029 10.6416 1.90629 10.3002C2.16229 9.93757 2.43962 9.58557 2.73829 9.24424C3.05829 8.88157 3.34629 8.59357 3.60229 8.38024C4.13562 7.93224 4.60495 7.60157 5.01029 7.38824C5.41562 7.1749 5.85295 7.0149 6.32229 6.90824C6.79162 6.80157 7.11162 6.74824 7.28229 6.74824C7.47429 6.74824 7.73029 6.9189 8.05029 7.26023C8.54095 7.47357 8.89295 7.72957 9.10629 8.02824C9.34095 8.3269 9.49029 8.76424 9.55429 9.34024C9.61829 9.98024 9.56495 10.7162 9.39429 11.5482C9.24495 12.3589 8.74362 13.3722 7.89029 14.5882C7.35695 15.3562 6.86629 15.9322 6.41829 16.3162C5.97029 16.6789 5.43695 17.0416 4.81829 17.4042C4.37029 17.7029 3.96495 17.9269 3.60229 18.0762C3.23962 18.2042 2.81295 18.2896 2.32229 18.3322ZM5.39429 14.9402C5.90629 14.3642 6.31162 13.8202 6.61029 13.3082C6.93029 12.7962 7.22895 12.1456 7.50629 11.3562C7.59162 11.1216 7.64495 10.8336 7.66629 10.4922C7.68762 10.1296 7.67695 9.7989 7.63429 9.50024C7.61295 9.18024 7.53829 8.9989 7.41029 8.95623C7.15429 8.8069 6.84495 8.76424 6.48229 8.82824C6.11962 8.8709 5.72495 9.07357 5.29829 9.43624C4.63695 9.9909 4.06095 10.6842 3.57029 11.5162C3.07962 12.3269 2.59962 13.2549 2.13029 14.3002C1.81029 15.0682 1.73562 15.6869 1.90629 16.1562C2.09829 16.6042 2.49295 16.7642 3.09029 16.6362C3.70895 16.4869 4.47695 15.9216 5.39429 14.9402ZM7.98629 4.60423C7.83695 4.4549 7.71962 4.2309 7.63429 3.93223C7.57029 3.63357 7.54895 3.44157 7.57029 3.35624C7.59162 3.24957 7.73029 3.03623 7.98629 2.71624C8.26362 2.39624 8.58362 2.04424 8.94629 1.66024C9.30895 1.27624 9.65029 0.934902 9.97029 0.636235C10.3116 0.337569 10.557 0.156235 10.7063 0.0922347C10.941 -0.057098 11.165 -0.0250978 11.3783 0.188235C11.5916 0.380235 11.805 0.646902 12.0183 0.988235C12.0823 1.18023 11.997 1.4149 11.7623 1.69224C11.549 1.94824 11.261 2.22557 10.8983 2.52424C10.5356 2.8229 10.173 3.12157 9.81029 3.42023C9.46895 3.69757 9.21295 3.95357 9.04229 4.18824C8.82895 4.52957 8.65829 4.73224 8.53029 4.79624C8.42362 4.86023 8.24229 4.79623 7.98629 4.60423Z" fill="#1A1A1A"/>
</svg>
