<svg width="11" height="18" viewBox="0 0 11 18" fill="none" xmlns="http://www.w3.org/2000/svg">
<path d="M2.32229 17.6996C2.04495 17.6996 1.82095 17.6462 1.65029 17.5396C1.50095 17.4329 1.30895 17.2836 1.07429 17.0916C0.668952 16.6649 0.380953 16.2596 0.210286 15.8756C0.0396191 15.4702 -0.0137142 15.0862 0.0502857 14.7236C0.114286 14.5529 0.135619 14.3929 0.114286 14.2436C0.114286 14.0729 0.114286 13.9876 0.114286 13.9876C0.00761907 13.8809 -0.0243809 13.8169 0.0182857 13.7956C0.0609524 13.7529 0.103619 13.6889 0.146286 13.6036C0.274286 13.6036 0.316952 13.4862 0.274286 13.2516C0.231619 13.0809 0.316952 12.7076 0.530286 12.1316C0.743619 11.5556 1.01029 11.0116 1.33029 10.4996C1.45829 10.2862 1.65029 10.0089 1.90629 9.66756C2.16229 9.30489 2.43962 8.95289 2.73829 8.61156C3.05829 8.24889 3.34629 7.96089 3.60229 7.74756C4.13562 7.29956 4.60495 6.96889 5.01029 6.75556C5.41562 6.54222 5.85295 6.38222 6.32229 6.27556C6.79162 6.16889 7.11162 6.11556 7.28229 6.11556C7.47429 6.11556 7.73029 6.28622 8.05029 6.62755C8.54095 6.84089 8.89295 7.09689 9.10629 7.39556C9.34095 7.69422 9.49029 8.13156 9.55429 8.70756C9.61829 9.34756 9.56495 10.0836 9.39429 10.9156C9.24495 11.7262 8.74362 12.7396 7.89029 13.9556C7.35695 14.7236 6.86629 15.2996 6.41829 15.6836C5.97029 16.0462 5.43695 16.4089 4.81829 16.7716C4.37029 17.0702 3.96495 17.2942 3.60229 17.4436C3.23962 17.5716 2.81295 17.6569 2.32229 17.6996ZM5.39429 14.3076C5.90629 13.7316 6.31162 13.1876 6.61029 12.6756C6.93029 12.1636 7.22895 11.5129 7.50629 10.7236C7.59162 10.4889 7.64495 10.2009 7.66629 9.85956C7.68762 9.49689 7.67695 9.16622 7.63429 8.86756C7.61295 8.54756 7.53829 8.36622 7.41029 8.32355C7.15429 8.17422 6.84495 8.13156 6.48229 8.19556C6.11962 8.23822 5.72495 8.44089 5.29829 8.80356C4.63695 9.35822 4.06095 10.0516 3.57029 10.8836C3.07962 11.6942 2.59962 12.6222 2.13029 13.6676C1.81029 14.4356 1.73562 15.0542 1.90629 15.5236C2.09829 15.9716 2.49295 16.1316 3.09029 16.0036C3.70895 15.8542 4.47695 15.2889 5.39429 14.3076ZM5.42629 3.58756C5.06362 3.95022 4.75429 4.11022 4.49829 4.06756C4.24229 4.00355 4.08229 3.84356 4.01829 3.58756C3.95429 3.31022 4.03962 3.02222 4.27429 2.72356C4.33829 2.63822 4.48762 2.48889 4.72229 2.27556C4.95695 2.06222 5.22362 1.81689 5.52229 1.53955C5.84229 1.26222 6.16229 1.00622 6.48229 0.771555C6.80229 0.536889 7.06895 0.355555 7.28229 0.227555C7.47429 0.0568888 7.65562 -0.0177776 7.82629 0.00355549C7.99695 0.00355549 8.14629 0.0995555 8.27429 0.291556C8.53029 0.504889 8.83962 0.803555 9.20229 1.18756C9.58629 1.55022 9.93829 1.89156 10.2583 2.21156C10.5783 2.53156 10.7596 2.72356 10.8023 2.78755C10.9303 2.95822 10.9836 3.16089 10.9623 3.39556C10.9623 3.60889 10.8876 3.79022 10.7383 3.93956C10.6103 4.08889 10.4396 4.14222 10.2263 4.09956C10.013 4.03556 9.75695 3.83289 9.45829 3.49156C9.30895 3.29956 9.06362 3.04356 8.72229 2.72356C8.38095 2.38222 8.05029 2.07289 7.73029 1.79556C7.47429 1.94489 7.18629 2.13689 6.86629 2.37156C6.56762 2.60622 6.29029 2.84089 6.03429 3.07556C5.77829 3.28889 5.57562 3.45956 5.42629 3.58756Z" fill="#1A1A1A"/>
</svg>
