<svg width="13" height="17" viewBox="0 0 13 17" fill="none" xmlns="http://www.w3.org/2000/svg">
<path d="M2.32229 16.752C2.04495 16.752 1.82095 16.6987 1.65029 16.592C1.50095 16.4853 1.30895 16.336 1.07429 16.144C0.668952 15.7173 0.380953 15.312 0.210286 14.928C0.0396191 14.5227 -0.0137142 14.1387 0.0502857 13.776C0.114286 13.6053 0.135619 13.4453 0.114286 13.296C0.114286 13.1253 0.114286 13.04 0.114286 13.04C0.00761907 12.9333 -0.0243809 12.8693 0.0182857 12.848C0.0609524 12.8053 0.103619 12.7413 0.146286 12.656C0.274286 12.656 0.316952 12.5387 0.274286 12.304C0.231619 12.1333 0.316952 11.76 0.530286 11.184C0.743619 10.608 1.01029 10.064 1.33029 9.552C1.45829 9.33867 1.65029 9.06133 1.90629 8.72C2.16229 8.35733 2.43962 8.00533 2.73829 7.664C3.05829 7.30133 3.34629 7.01333 3.60229 6.8C4.13562 6.352 4.60495 6.02133 5.01029 5.808C5.41562 5.59467 5.85295 5.43467 6.32229 5.328C6.79162 5.22133 7.11162 5.168 7.28229 5.168C7.47429 5.168 7.73029 5.33867 8.05029 5.68C8.54095 5.89333 8.89295 6.14933 9.10629 6.448C9.34095 6.74667 9.49029 7.184 9.55429 7.76C9.61829 8.4 9.56495 9.136 9.39429 9.968C9.24495 10.7787 8.74362 11.792 7.89029 13.008C7.35695 13.776 6.86629 14.352 6.41829 14.736C5.97029 15.0987 5.43695 15.4613 4.81829 15.824C4.37029 16.1227 3.96495 16.3467 3.60229 16.496C3.23962 16.624 2.81295 16.7093 2.32229 16.752ZM5.39429 13.36C5.90629 12.784 6.31162 12.24 6.61029 11.728C6.93029 11.216 7.22895 10.5653 7.50629 9.776C7.59162 9.54133 7.64495 9.25333 7.66629 8.912C7.68762 8.54933 7.67695 8.21867 7.63429 7.92C7.61295 7.6 7.53829 7.41867 7.41029 7.376C7.15429 7.22667 6.84495 7.184 6.48229 7.248C6.11962 7.29067 5.72495 7.49333 5.29829 7.856C4.63695 8.41067 4.06095 9.104 3.57029 9.936C3.07962 10.7467 2.59962 11.6747 2.13029 12.72C1.81029 13.488 1.73562 14.1067 1.90629 14.576C2.09829 15.024 2.49295 15.184 3.09029 15.056C3.70895 14.9067 4.47695 14.3413 5.39429 13.36ZM9.33029 3.504C8.90362 3.504 8.55162 3.42933 8.27429 3.28C8.01829 3.10933 7.68762 2.88533 7.28229 2.608C7.09029 2.50133 6.83429 2.288 6.51429 1.968C6.19429 1.648 5.90629 1.488 5.65029 1.488C5.43695 1.488 5.25562 1.57333 5.10629 1.744C4.97829 1.91467 4.85029 2.096 4.72229 2.288C4.59429 2.45867 4.41295 2.56533 4.17829 2.608C4.15695 2.71467 4.09295 2.85333 3.98629 3.024C3.87962 3.17333 3.80495 3.19467 3.76229 3.088C3.54895 3.024 3.37829 2.91733 3.25029 2.768C3.14362 2.61867 3.10095 2.49067 3.12229 2.384C3.14362 2.192 3.30362 1.85067 3.60229 1.36C3.90095 0.869332 4.41295 0.442666 5.13829 0.0799999C5.39429 -0.0266666 5.74629 -0.0266666 6.19429 0.0799999C6.66362 0.186666 7.06895 0.4 7.41029 0.719999C7.90095 1.168 8.27429 1.49867 8.53029 1.712C8.78629 1.904 9.11695 1.91467 9.52229 1.744C9.84229 1.65867 10.1836 1.49867 10.5463 1.264C10.9303 1.008 11.3463 0.794666 11.7943 0.623999C11.9436 0.559999 12.0823 0.570667 12.2103 0.656C12.3383 0.719999 12.4343 0.826666 12.4983 0.976C12.5623 1.12533 12.5836 1.264 12.5623 1.392C12.5623 1.47733 12.4876 1.62667 12.3383 1.84C12.2103 2.05333 12.0503 2.21333 11.8583 2.32C11.2183 2.68267 10.7276 2.94933 10.3863 3.12C10.045 3.29067 9.79962 3.39733 9.65029 3.44C9.52229 3.48267 9.41562 3.504 9.33029 3.504Z" fill="#1A1A1A"/>
</svg>
