<svg width="10" height="12" viewBox="0 0 10 12" fill="none" xmlns="http://www.w3.org/2000/svg">
<path d="M2.32229 11.584C2.04495 11.584 1.82095 11.5307 1.65029 11.424C1.50095 11.3173 1.30895 11.168 1.07429 10.976C0.668952 10.5493 0.380953 10.144 0.210286 9.76C0.0396191 9.35467 -0.0137142 8.97067 0.0502857 8.608C0.114286 8.43733 0.135619 8.27733 0.114286 8.128C0.114286 7.95733 0.114286 7.872 0.114286 7.872C0.00761907 7.76533 -0.0243809 7.70133 0.0182857 7.68C0.0609524 7.63733 0.103619 7.57333 0.146286 7.488C0.274286 7.488 0.316952 7.37067 0.274286 7.136C0.231619 6.96533 0.316952 6.592 0.530286 6.016C0.743619 5.44 1.01029 4.896 1.33029 4.384C1.45829 4.17067 1.65029 3.89333 1.90629 3.552C2.16229 3.18933 2.43962 2.83733 2.73829 2.496C3.05829 2.13333 3.34629 1.84533 3.60229 1.632C4.13562 1.184 4.60495 0.853333 5.01029 0.639999C5.41562 0.426666 5.85295 0.266666 6.32229 0.16C6.79162 0.0533333 7.11162 0 7.28229 0C7.47429 0 7.73029 0.170666 8.05029 0.511999C8.54095 0.725333 8.89295 0.981333 9.10629 1.28C9.34095 1.57867 9.49029 2.016 9.55429 2.592C9.61829 3.232 9.56495 3.968 9.39429 4.8C9.24495 5.61067 8.74362 6.624 7.89029 7.84C7.35695 8.608 6.86629 9.184 6.41829 9.568C5.97029 9.93067 5.43695 10.2933 4.81829 10.656C4.37029 10.9547 3.96495 11.1787 3.60229 11.328C3.23962 11.456 2.81295 11.5413 2.32229 11.584ZM5.39429 8.192C5.90629 7.616 6.31162 7.072 6.61029 6.56C6.93029 6.048 7.22895 5.39733 7.50629 4.608C7.59162 4.37333 7.64495 4.08533 7.66629 3.744C7.68762 3.38133 7.67695 3.05067 7.63429 2.752C7.61295 2.432 7.53829 2.25067 7.41029 2.208C7.15429 2.05867 6.84495 2.016 6.48229 2.08C6.11962 2.12267 5.72495 2.32533 5.29829 2.688C4.63695 3.24267 4.06095 3.936 3.57029 4.768C3.07962 5.57867 2.59962 6.50667 2.13029 7.552C1.81029 8.32 1.73562 8.93867 1.90629 9.408C2.09829 9.856 2.49295 10.016 3.09029 9.888C3.70895 9.73867 4.47695 9.17333 5.39429 8.192Z" fill="#1A1A1A"/>
</svg>
