<svg width="13" height="21" viewBox="0 0 13 21" fill="none" xmlns="http://www.w3.org/2000/svg">
<path d="M0.832 20.7406C0.746667 20.7406 0.64 20.7406 0.512 20.7406C0.384 20.7619 0.266667 20.6766 0.16 20.4846C0.0746667 20.3779 0.0213334 20.2179 0 20.0046C0 19.7912 0.0533334 19.4072 0.16 18.8526C0.266667 18.4899 0.352 18.1272 0.416 17.7646C0.48 17.4232 0.512 17.1672 0.512 16.9966C0.512 16.9112 0.533333 16.7406 0.576 16.4846C0.64 16.2499 0.672 16.0792 0.672 15.9726C0.778667 15.8019 0.864 15.5672 0.928 15.2686C0.992 14.9699 1.024 14.7032 1.024 14.4686C1.024 14.2126 1.152 13.9779 1.408 13.7646C1.408 13.5939 1.44 13.3806 1.504 13.1246C1.58933 12.8686 1.632 12.6979 1.632 12.6126C1.696 12.3139 1.83467 11.7912 2.048 11.0446C2.28267 10.2766 2.56 9.41257 2.88 8.45257C3.22133 7.49257 3.552 6.5539 3.872 5.63657C4.192 4.71924 4.48 3.94057 4.736 3.30057C4.992 2.70324 5.16267 2.19124 5.248 1.76457C5.35467 1.31657 5.408 0.985905 5.408 0.772572C5.408 0.687238 5.42933 0.623238 5.472 0.580571C5.51467 0.516571 5.61067 0.399238 5.76 0.228571C5.97333 0.0152379 6.15467 -0.0487619 6.304 0.0365716C6.47467 0.121904 6.67733 0.249904 6.912 0.420571C7.08267 0.697904 7.2 0.932571 7.264 1.12457C7.34933 1.31657 7.34933 1.64724 7.264 2.11657C7.264 2.43657 7.21067 2.7139 7.104 2.94857C6.99733 3.18324 6.90133 3.36457 6.816 3.49257C6.73067 3.59924 6.70933 3.6419 6.752 3.62057C7.62667 3.21524 8.39467 3.0019 9.056 2.98057C9.73867 2.9379 10.304 3.05524 10.752 3.33257C11.2213 3.58857 11.5733 3.95124 11.808 4.42057C12.0427 4.8899 12.16 5.4339 12.16 6.05257C12.16 6.30857 12.1067 6.6179 12 6.98057C11.8933 7.3219 11.7547 7.6419 11.584 7.94057C11.4347 8.2179 11.296 8.42057 11.168 8.54857C11.0827 8.54857 10.9973 8.62324 10.912 8.77257C10.8267 8.90057 10.7413 9.0499 10.656 9.22057C10.4853 9.4339 10.208 9.67924 9.824 9.95657C9.46133 10.2126 9.09867 10.4259 8.736 10.5966C8.37333 10.7459 8.10667 10.7886 7.936 10.7246C7.936 10.7246 7.904 10.7352 7.84 10.7566C7.79733 10.7566 7.776 10.8099 7.776 10.9166C7.776 10.9592 7.60533 11.0552 7.264 11.2046C6.92267 11.3326 6.528 11.4606 6.08 11.5886C5.632 11.6952 5.23733 11.7486 4.896 11.7486C4.448 11.7486 4.128 11.6632 3.936 11.4926C3.89333 11.5352 3.84 11.5992 3.776 11.6846C3.73333 11.7699 3.712 11.8446 3.712 11.9086C3.712 12.0366 3.65867 12.2819 3.552 12.6446C3.46667 12.9859 3.36 13.3166 3.232 13.6366C3.104 13.9566 2.98667 14.1166 2.88 14.1166C2.88 14.1166 2.85867 14.1486 2.816 14.2126C2.77333 14.2766 2.79467 14.3619 2.88 14.4686C2.88 14.4686 2.86933 14.5859 2.848 14.8206C2.848 15.0766 2.79467 15.2899 2.688 15.4606C2.688 15.6312 2.656 15.8872 2.592 16.2286C2.528 16.5699 2.45333 16.8259 2.368 16.9966C2.368 17.2526 2.32533 17.4979 2.24 17.7326C2.176 17.9886 2.10133 18.1166 2.016 18.1166C1.93067 18.1379 1.87733 18.2659 1.856 18.5006C1.83467 18.7566 1.824 18.9379 1.824 19.0446C1.80267 19.5779 1.696 19.9939 1.504 20.2926C1.312 20.5912 1.088 20.7406 0.832 20.7406ZM4.704 10.0526C4.87467 10.0526 5.22667 9.9779 5.76 9.82857C6.29333 9.67924 6.83733 9.4979 7.392 9.28457C7.968 9.0499 8.39467 8.81524 8.672 8.58057C9.22667 8.08991 9.65333 7.53524 9.952 6.91657C10.272 6.27657 10.2507 5.66857 9.888 5.09257C9.71733 4.7939 9.408 4.67657 8.96 4.74057C8.512 4.78324 8.02133 4.9539 7.488 5.25257C6.95467 5.55124 6.45333 5.92457 5.984 6.37257C5.728 6.6499 5.49333 6.99124 5.28 7.39657C5.06667 7.8019 4.88533 8.20724 4.736 8.61257C4.608 9.0179 4.53333 9.35924 4.512 9.63657C4.49067 9.91391 4.55467 10.0526 4.704 10.0526Z" fill="#1A1A1A"/>
</svg>
