<svg width="11" height="19" viewBox="0 0 11 19" fill="none" xmlns="http://www.w3.org/2000/svg">
<path d="M7.264 18.6522C7.05067 18.4389 6.83733 18.1509 6.624 17.7882C6.41067 17.4042 6.24 16.9669 6.112 16.4762C6.06933 16.3056 6.048 16.0709 6.048 15.7722C6.06933 15.4736 6.06933 15.2602 6.048 15.1322C5.984 15.2816 5.87733 15.4416 5.728 15.6122C5.6 15.7616 5.472 15.8896 5.344 15.9962C5.25867 16.0816 5.06667 16.2522 4.768 16.5082C4.46933 16.7429 4.17067 16.9349 3.872 17.0842C3.168 17.5322 2.58133 17.7776 2.112 17.8202C1.664 17.8629 1.23733 17.6282 0.832 17.1162C0.490667 16.8389 0.245333 16.5296 0.096 16.1882C-0.032 15.8469 -0.032 15.3776 0.096 14.7802C0.138667 14.0336 0.245333 13.3082 0.416 12.6042C0.586667 11.8789 0.938667 10.9189 1.472 9.72424C1.92 8.84957 2.26133 8.20957 2.496 7.80424C2.73067 7.37757 2.88 7.12157 2.944 7.03624C3.264 6.92957 3.53067 6.94024 3.744 7.06824C3.95733 7.1749 4.08533 7.37757 4.128 7.67624C4.256 7.88957 4.23467 8.25224 4.064 8.76424C3.91467 9.27624 3.648 9.90557 3.264 10.6522C2.96533 11.3776 2.688 12.1029 2.432 12.8282C2.19733 13.5536 2.05867 14.1722 2.016 14.6842C1.97333 15.1962 2.10133 15.5056 2.4 15.6122C2.592 15.7189 2.92267 15.6869 3.392 15.5162C3.88267 15.3456 4.42667 14.9189 5.024 14.2362C5.64267 13.5536 6.24 12.5189 6.816 11.1322C6.98667 10.7056 7.11467 10.3322 7.2 10.0122C7.28533 9.6709 7.33867 9.29757 7.36 8.89224C7.31733 8.63624 7.328 8.41224 7.392 8.22024C7.47733 8.0069 7.648 7.82557 7.904 7.67624C7.98933 7.56957 8.10667 7.47357 8.256 7.38824C8.40533 7.28157 8.50133 7.28157 8.544 7.38824L9.056 7.35624C9.14133 7.3349 9.19467 7.38824 9.216 7.51624C9.25867 7.6229 9.33333 7.7189 9.44 7.80424C9.67467 7.99624 9.73867 8.41224 9.632 9.05224C9.52533 9.69224 9.22667 10.5882 8.736 11.7402C8.33067 12.6149 8.05333 13.2762 7.904 13.7242C7.776 14.1722 7.70133 14.6096 7.68 15.0362C7.68 15.4202 7.75467 15.7829 7.904 16.1242C8.05333 16.4656 8.288 16.7749 8.608 17.0522C8.84267 17.2016 8.97067 17.3722 8.992 17.5642C9.03467 17.7562 9.04533 17.9802 9.024 18.2362C8.98133 18.4282 8.85333 18.5882 8.64 18.7162C8.448 18.8229 8.224 18.8762 7.968 18.8762C7.712 18.8762 7.47733 18.8016 7.264 18.6522ZM6.368 4.60424C6.21867 4.4549 6.10133 4.2309 6.016 3.93224C5.952 3.63357 5.93067 3.44157 5.952 3.35624C5.97333 3.24957 6.112 3.03624 6.368 2.71624C6.64533 2.39624 6.96533 2.04423 7.328 1.66023C7.69067 1.27624 8.032 0.934903 8.352 0.636237C8.69333 0.337569 8.93867 0.156235 9.088 0.092236C9.32267 -0.057098 9.54667 -0.0250984 9.76 0.188235C9.97333 0.380235 10.1867 0.646902 10.4 0.988236C10.464 1.18024 10.3787 1.4149 10.144 1.69224C9.93067 1.94824 9.64267 2.22557 9.28 2.52424C8.91733 2.8229 8.55467 3.12157 8.192 3.42024C7.85067 3.69757 7.59467 3.95357 7.424 4.18824C7.21067 4.52957 7.04 4.73224 6.912 4.79624C6.80533 4.86024 6.624 4.79624 6.368 4.60424Z" fill="#1A1A1A"/>
</svg>
