<svg width="10" height="12" viewBox="0 0 10 12" fill="none" xmlns="http://www.w3.org/2000/svg">
<path d="M7.264 11.6887C7.05067 11.4754 6.83733 11.1874 6.624 10.8247C6.41067 10.4407 6.24 10.0034 6.112 9.51273C6.06933 9.34206 6.048 9.10739 6.048 8.80873C6.06933 8.51006 6.06933 8.29673 6.048 8.16873C5.984 8.31806 5.87733 8.47806 5.728 8.64873C5.6 8.79806 5.472 8.92606 5.344 9.03273C5.25867 9.11806 5.06667 9.28873 4.768 9.54473C4.46933 9.77939 4.17067 9.97139 3.872 10.1207C3.168 10.5687 2.58133 10.8141 2.112 10.8567C1.664 10.8994 1.23733 10.6647 0.832 10.1527C0.490667 9.87539 0.245333 9.56606 0.096 9.22473C-0.032 8.88339 -0.032 8.41406 0.096 7.81673C0.138667 7.07006 0.245333 6.34473 0.416 5.64073C0.586667 4.91539 0.938667 3.95539 1.472 2.76073C1.92 1.88606 2.26133 1.24606 2.496 0.840727C2.73067 0.41406 2.88 0.15806 2.944 0.0727273C3.264 -0.0339393 3.53067 -0.0232727 3.744 0.104727C3.95733 0.211393 4.08533 0.41406 4.128 0.712727C4.256 0.92606 4.23467 1.28873 4.064 1.80073C3.91467 2.31273 3.648 2.94206 3.264 3.68873C2.96533 4.41406 2.688 5.13939 2.432 5.86473C2.19733 6.59006 2.05867 7.20873 2.016 7.72073C1.97333 8.23273 2.10133 8.54206 2.4 8.64873C2.592 8.75539 2.92267 8.72339 3.392 8.55273C3.88267 8.38206 4.42667 7.95539 5.024 7.27273C5.64267 6.59006 6.24 5.55539 6.816 4.16873C6.98667 3.74206 7.11467 3.36873 7.2 3.04873C7.28533 2.70739 7.33867 2.33406 7.36 1.92873C7.31733 1.67273 7.328 1.44873 7.392 1.25673C7.47733 1.04339 7.648 0.86206 7.904 0.712727C7.98933 0.60606 8.10667 0.51006 8.256 0.424728C8.40533 0.31806 8.50133 0.31806 8.544 0.424728L9.056 0.392727C9.14133 0.371394 9.19467 0.424727 9.216 0.552727C9.25867 0.659393 9.33333 0.755393 9.44 0.840727C9.67467 1.03273 9.73867 1.44873 9.632 2.08873C9.52533 2.72873 9.22667 3.62473 8.736 4.77673C8.33067 5.65139 8.05333 6.31273 7.904 6.76073C7.776 7.20873 7.70133 7.64606 7.68 8.07273C7.68 8.45673 7.75467 8.81939 7.904 9.16073C8.05333 9.50206 8.288 9.81139 8.608 10.0887C8.84267 10.2381 8.97067 10.4087 8.992 10.6007C9.03467 10.7927 9.04533 11.0167 9.024 11.2727C8.98133 11.4647 8.85333 11.6247 8.64 11.7527C8.448 11.8594 8.224 11.9127 7.968 11.9127C7.712 11.9127 7.47733 11.8381 7.264 11.6887Z" fill="#1A1A1A"/>
</svg>
