<svg width="12" height="12" viewBox="0 0 12 12" fill="none" xmlns="http://www.w3.org/2000/svg">
<path d="M10.72 11.2582C10.6347 11.2582 10.5173 11.2475 10.368 11.2262C10.24 11.2048 10.1333 11.1515 10.048 11.0662C9.96267 11.0662 9.81333 11.0342 9.6 10.9702C9.38667 10.9062 9.19467 10.8315 9.024 10.7462C8.81067 10.6608 8.52267 10.4902 8.16 10.2342C7.79733 9.95685 7.43467 9.65818 7.072 9.33818C6.70933 9.01818 6.4 8.71951 6.144 8.44218C5.90933 8.16485 5.792 7.96218 5.792 7.83418C5.792 7.72752 5.73867 7.67418 5.632 7.67418C5.632 7.67418 5.6 7.64218 5.536 7.57818C5.472 7.49285 5.44 7.40752 5.44 7.32218C5.44 7.10885 5.33333 7.00218 5.12 7.00218C5.12 7.00218 4.93867 7.15152 4.576 7.45018C4.21333 7.74885 3.81867 8.11152 3.392 8.53818C2.79467 9.13552 2.34667 9.57285 2.048 9.85018C1.77067 10.1062 1.54667 10.2342 1.376 10.2342C1.20533 10.2342 1.01333 10.1702 0.8 10.0422C0.586667 9.91418 0.394667 9.76485 0.224 9.59418C0.0746667 9.40218 0 9.22085 0 9.05018C0 9.05018 0.213333 8.80485 0.64 8.31418C1.088 7.82352 1.61067 7.32218 2.208 6.81018L4.256 4.79418L3.904 3.57818C3.75467 3.23685 3.59467 2.88485 3.424 2.52218C3.27467 2.13818 3.15733 1.81818 3.072 1.56218C2.816 1.19951 2.67733 0.975515 2.656 0.890181C2.656 0.783515 2.74133 0.602182 2.912 0.346182C3.08267 0.175515 3.22133 0.0688482 3.328 0.0261821C3.456 -0.0378184 3.648 0.0155149 3.904 0.186182C4.032 0.186182 4.20267 0.367515 4.416 0.730182C4.62933 1.07152 4.82133 1.45552 4.992 1.88218C5.184 2.28752 5.28 2.57552 5.28 2.74618C5.28 3.08751 5.408 3.22618 5.664 3.16218C5.92 3.09818 6.304 2.89552 6.816 2.55418C7.072 2.31952 7.27467 2.12752 7.424 1.97818C7.57333 1.80751 7.648 1.72218 7.648 1.72218C7.712 1.65818 7.904 1.51951 8.224 1.30618C8.544 1.07151 8.87467 0.836848 9.216 0.602181C9.55733 0.367515 9.78133 0.228849 9.888 0.186182C10.0587 0.0581817 10.2507 0.0581817 10.464 0.186182C10.6773 0.292849 10.8587 0.463515 11.008 0.698182C11.1573 0.911515 11.232 1.13552 11.232 1.37018C11.232 1.62618 11.168 1.82885 11.04 1.97818C10.912 2.12752 10.6347 2.31952 10.208 2.55418C9.824 2.83151 9.48267 3.07685 9.184 3.29018C8.90667 3.50352 8.608 3.73818 8.288 3.99418C7.98933 4.22885 7.60533 4.54885 7.136 4.95418L6.304 5.62618L6.816 6.49018C6.90133 6.63952 7.01867 6.85285 7.168 7.13018C7.33867 7.40752 7.49867 7.58885 7.648 7.67418C7.776 7.84485 8.02133 8.07952 8.384 8.37818C8.74667 8.67685 9.09867 8.95418 9.44 9.21018C9.80267 9.44485 10.0053 9.56218 10.048 9.56218C10.1333 9.56218 10.2293 9.59418 10.336 9.65818C10.4427 9.72218 10.5707 9.79685 10.72 9.88218C10.8907 10.0528 10.9973 10.2448 11.04 10.4582C11.104 10.6715 11.104 10.8635 11.04 11.0342C10.9973 11.1835 10.8907 11.2582 10.72 11.2582Z" fill="#1A1A1A"/>
</svg>
