<svg width="10" height="11" viewBox="0 0 10 11" fill="none" xmlns="http://www.w3.org/2000/svg">
<path d="M6.396 10.2948C6.292 10.3268 6.192 10.3188 6.096 10.2708C6.008 10.2308 5.944 10.1628 5.904 10.0668C5.872 9.9628 5.876 9.8628 5.916 9.7668C5.964 9.6708 6.04 9.6068 6.144 9.5748C6.656 9.3908 7.072 9.1588 7.392 8.8788C7.72 8.5908 7.96 8.2788 8.112 7.9428C8.264 7.6068 8.34 7.2708 8.34 6.9348C8.34 6.5988 8.264 6.2748 8.112 5.9628C7.96 5.6428 7.72 5.3668 7.392 5.1348C7.072 4.9028 6.656 4.7428 6.144 4.6548C6.016 5.3588 5.816 6.0148 5.544 6.6228C5.28 7.2308 4.964 7.7628 4.596 8.2188C4.644 8.3068 4.692 8.3948 4.74 8.4828C4.796 8.5708 4.852 8.6588 4.908 8.7468C4.964 8.8348 4.98 8.9308 4.956 9.0348C4.94 9.1388 4.888 9.2188 4.8 9.2748C4.712 9.3308 4.616 9.3508 4.512 9.3348C4.408 9.3108 4.328 9.2548 4.272 9.1668C4.24 9.1028 4.204 9.0428 4.164 8.9868C4.132 8.9308 4.096 8.8748 4.056 8.8188C3.688 9.1628 3.296 9.4348 2.88 9.6348C2.472 9.8268 2.056 9.9228 1.632 9.9228C1.144 9.9228 0.748 9.7868 0.444 9.5148C0.148 9.2428 0 8.8148 0 8.2308C0 7.6388 0.128 7.0948 0.384 6.5988C0.648 6.1028 1 5.6668 1.44 5.2908C1.888 4.9068 2.384 4.5988 2.928 4.3668C2.92 4.0628 2.924 3.7508 2.94 3.4308C2.964 3.1108 2.992 2.7868 3.024 2.4588C2.152 2.5068 1.368 2.5188 0.672 2.4948C0.568 2.4868 0.48 2.4468 0.408 2.3748C0.336 2.2948 0.304 2.2028 0.312 2.0988C0.32 1.9868 0.36 1.8988 0.432 1.8348C0.512 1.7628 0.604 1.7308 0.708 1.7388C1.42 1.7628 2.224 1.7508 3.12 1.7028C3.16 1.4708 3.2 1.2388 3.24 1.0068C3.28 0.7748 3.328 0.5388 3.384 0.2988C3.4 0.1948 3.452 0.1148 3.54 0.0587999C3.628 0.00280014 3.724 -0.0131999 3.828 0.0107998C3.932 0.0348 4.012 0.0908 4.068 0.1788C4.124 0.2588 4.144 0.3508 4.128 0.4548C4.08 0.6548 4.036 0.8548 3.996 1.0548C3.964 1.2548 3.932 1.4508 3.9 1.6428C4.324 1.6028 4.736 1.5588 5.136 1.5108C5.544 1.4628 5.912 1.4108 6.24 1.3548C6.344 1.3388 6.44 1.3588 6.528 1.4148C6.616 1.4708 6.668 1.5508 6.684 1.6548C6.7 1.7588 6.68 1.8548 6.624 1.9428C6.568 2.0308 6.484 2.0828 6.372 2.0988C6.004 2.1628 5.596 2.2188 5.148 2.2668C4.708 2.3148 4.256 2.3588 3.792 2.3988C3.72 2.9988 3.684 3.5668 3.684 4.1028C4.228 3.9428 4.776 3.8628 5.328 3.8628C6.136 3.8628 6.82 4.0028 7.38 4.2828C7.94 4.5548 8.364 4.9228 8.652 5.3868C8.948 5.8508 9.096 6.3668 9.096 6.9348C9.096 7.3588 9 7.7868 8.808 8.2188C8.624 8.6508 8.332 9.0508 7.932 9.4188C7.54 9.7788 7.028 10.0708 6.396 10.2948ZM1.632 9.1788C1.992 9.1788 2.348 9.0868 2.7 8.9028C3.052 8.7188 3.388 8.4628 3.708 8.1348C3.292 7.2228 3.044 6.2148 2.964 5.1108C2.308 5.4308 1.776 5.8668 1.368 6.4188C0.96 6.9628 0.756 7.5668 0.756 8.2308C0.756 8.5748 0.832 8.8188 0.984 8.9628C1.144 9.1068 1.36 9.1788 1.632 9.1788ZM4.248 7.4748C4.52 7.0908 4.756 6.6548 4.956 6.1668C5.164 5.6788 5.32 5.1548 5.424 4.5948H5.328C5.04 4.5868 4.76 4.6068 4.488 4.6548C4.216 4.6948 3.952 4.7508 3.696 4.8228C3.76 5.7988 3.944 6.6828 4.248 7.4748Z" fill="black"/>
</svg>
