<svg width="9" height="11" viewBox="0 0 9 11" fill="none" xmlns="http://www.w3.org/2000/svg">
<path d="M3.85333 10.2012C3.74933 10.2012 3.65733 10.1652 3.57733 10.0932C3.50533 10.0212 3.46533 9.9332 3.45733 9.8292C3.44933 9.7172 3.48133 9.6252 3.55333 9.5532C3.63333 9.4732 3.72533 9.4292 3.82933 9.4212C5.04533 9.3812 5.94133 9.1492 6.51733 8.7252C7.09333 8.2932 7.38133 7.6852 7.38133 6.9012C7.38133 6.4292 7.24133 6.0532 6.96133 5.7732C6.68933 5.4932 6.32533 5.3252 5.86933 5.2692C5.41333 5.2052 4.91333 5.2652 4.36933 5.4492C3.82533 5.6252 3.28933 5.9332 2.76133 6.3732C2.61733 6.4932 2.46533 6.5012 2.30533 6.3972C2.24133 6.3572 2.19333 6.2972 2.16133 6.2172C2.12933 6.1372 2.12533 6.0572 2.14933 5.9772C2.26933 5.5292 2.37733 5.0012 2.47333 4.3932C2.57733 3.7852 2.66133 3.1852 2.72533 2.5932C1.82133 2.6332 1.02933 2.6332 0.349333 2.5932C0.245333 2.5852 0.157333 2.5412 0.0853333 2.4612C0.0213333 2.3732 -0.00666668 2.2772 0.00133334 2.1732C0.0173334 2.0692 0.0653334 1.9852 0.145333 1.9212C0.225333 1.8492 0.317333 1.8172 0.421333 1.8252C0.749333 1.8572 1.11733 1.8772 1.52533 1.8852C1.93333 1.8932 2.35733 1.8892 2.79733 1.8732C2.82133 1.5772 2.83733 1.3012 2.84533 1.0452C2.86133 0.7892 2.86933 0.5692 2.86933 0.3852C2.86133 0.2812 2.89333 0.1932 2.96533 0.1212C3.03733 0.0411999 3.12533 0.00119997 3.22933 0.00119997C3.34133 -0.00679993 3.43333 0.0252001 3.50533 0.0972002C3.58533 0.1692 3.62533 0.2572 3.62533 0.3612C3.62533 0.5532 3.61733 0.7772 3.60133 1.0332C3.58533 1.2812 3.56533 1.5492 3.54133 1.8372C4.00533 1.8052 4.45733 1.7652 4.89733 1.7172C5.33733 1.6612 5.72933 1.5932 6.07333 1.5132C6.17733 1.4892 6.26933 1.5052 6.34933 1.5612C6.43733 1.6172 6.49333 1.6972 6.51733 1.8012C6.54133 1.9052 6.52533 2.0052 6.46933 2.1012C6.41333 2.1892 6.33333 2.2412 6.22933 2.2572C5.84533 2.3212 5.41333 2.3812 4.93333 2.4372C4.45333 2.4852 3.96533 2.5252 3.46933 2.5572C3.41333 3.0692 3.34533 3.5812 3.26533 4.0932C3.18533 4.5972 3.10133 5.0292 3.01333 5.3892C3.45333 5.0772 3.90933 4.8532 4.38133 4.7172C4.85333 4.5812 5.31333 4.5252 5.76133 4.5492C6.20933 4.5732 6.61333 4.6812 6.97333 4.8732C7.33333 5.0572 7.61733 5.3212 7.82533 5.6652C8.04133 6.0012 8.14933 6.4132 8.14933 6.9012C8.14933 7.9332 7.76533 8.7332 6.99733 9.3012C6.23733 9.8612 5.18933 10.1612 3.85333 10.2012Z" fill="black"/>
</svg>
