<svg width="9" height="10" viewBox="0 0 9 10" fill="none" xmlns="http://www.w3.org/2000/svg">
<path d="M6.72 9.882C5.992 9.89 5.464 9.726 5.136 9.39C4.808 9.054 4.696 8.474 4.8 7.65C4.832 7.37 4.8 7.158 4.704 7.014C4.608 6.87 4.476 6.782 4.308 6.75C4.148 6.71 3.976 6.718 3.792 6.774C3.608 6.83 3.448 6.922 3.312 7.05C2.976 7.37 2.64 7.694 2.304 8.022C1.968 8.342 1.656 8.634 1.368 8.898C1.08 9.162 0.84 9.378 0.648 9.546C0.568 9.618 0.476 9.654 0.372 9.654C0.268 9.654 0.18 9.614 0.108 9.534C0.036 9.454 0 9.362 0 9.258C0 9.146 0.04 9.058 0.12 8.994C0.32 8.826 0.572 8.602 0.876 8.322C1.18 8.042 1.508 7.738 1.86 7.41C2.212 7.074 2.56 6.742 2.904 6.414C3.248 6.086 3.56 5.782 3.84 5.502C4.12 5.222 4.336 5.002 4.488 4.842C4.776 4.522 4.932 4.242 4.956 4.002C4.98 3.754 4.888 3.57 4.68 3.45C4.48 3.33 4.188 3.302 3.804 3.366C3.764 3.374 3.664 3.394 3.504 3.426C3.344 3.45 3.156 3.478 2.94 3.51C2.724 3.542 2.508 3.578 2.292 3.618C2.076 3.65 1.888 3.682 1.728 3.714C1.568 3.738 1.468 3.754 1.428 3.762C1.324 3.77 1.228 3.746 1.14 3.69C1.06 3.634 1.012 3.554 0.996 3.45C0.98 3.338 1 3.242 1.056 3.162C1.12 3.074 1.204 3.022 1.308 3.006C1.364 2.998 1.5 2.978 1.716 2.946C1.932 2.914 2.176 2.878 2.448 2.838C2.728 2.79 2.984 2.75 3.216 2.718C3.456 2.678 3.616 2.654 3.696 2.646C4.192 2.574 4.6 2.602 4.92 2.73C5.248 2.85 5.48 3.038 5.616 3.294C5.752 3.55 5.776 3.85 5.688 4.194C5.608 4.538 5.408 4.89 5.088 5.25C4.992 5.354 4.872 5.486 4.728 5.646C4.584 5.798 4.432 5.954 4.272 6.114C4.512 6.09 4.736 6.13 4.944 6.234C5.152 6.338 5.316 6.51 5.436 6.75C5.556 6.982 5.596 7.286 5.556 7.662C5.516 8.062 5.524 8.37 5.58 8.586C5.644 8.802 5.768 8.95 5.952 9.03C6.136 9.102 6.384 9.138 6.696 9.138C6.936 9.138 7.2 9.118 7.488 9.078C7.784 9.038 8.096 8.986 8.424 8.922C8.528 8.906 8.624 8.926 8.712 8.982C8.8 9.038 8.852 9.122 8.868 9.234C8.884 9.338 8.864 9.43 8.808 9.51C8.752 9.598 8.672 9.654 8.568 9.678C8.2 9.75 7.856 9.802 7.536 9.834C7.224 9.866 6.952 9.882 6.72 9.882ZM5.268 1.482C4.94 1.442 4.584 1.386 4.2 1.314C3.816 1.234 3.448 1.142 3.096 1.038C2.744 0.934 2.444 0.834 2.196 0.737999C2.1 0.697999 2.028 0.63 1.98 0.534C1.94 0.438 1.94 0.342 1.98 0.246C2.02 0.142 2.084 0.0699999 2.172 0.03C2.268 -0.00999999 2.368 -0.00999999 2.472 0.03C2.856 0.182 3.304 0.326 3.816 0.461999C4.328 0.59 4.836 0.678 5.34 0.726C5.452 0.733999 5.54 0.778 5.604 0.858C5.676 0.938 5.704 1.03 5.688 1.134C5.68 1.238 5.636 1.326 5.556 1.398C5.476 1.462 5.38 1.49 5.268 1.482Z" fill="black"/>
</svg>
