<svg width="11" height="9" viewBox="0 0 11 9" fill="none" xmlns="http://www.w3.org/2000/svg">
<path d="M3.33733 8.52546C3.24133 8.48546 3.17333 8.41745 3.13333 8.32146C3.09333 8.21745 3.08933 8.11745 3.12133 8.02145C3.16133 7.92545 3.22933 7.85745 3.32533 7.81745C3.42933 7.77745 3.52933 7.77745 3.62533 7.81745C3.99333 7.96945 4.32933 8.04545 4.63333 8.04545C4.93733 8.04545 5.17733 7.97345 5.35333 7.82945C5.53733 7.68545 5.62933 7.47745 5.62933 7.20545C5.62933 6.72545 5.55333 6.32546 5.40133 6.00546C5.25733 5.68545 5.10133 5.38945 4.93333 5.11745C4.80533 4.90945 4.68533 4.70146 4.57333 4.49345C4.46933 4.27745 4.40133 4.04145 4.36933 3.78545C4.33733 3.52945 4.36133 3.23345 4.44133 2.89745C4.46533 2.79345 4.52133 2.71345 4.60933 2.65745C4.69733 2.60145 4.79333 2.58945 4.89733 2.62145C5.00133 2.64545 5.07733 2.70145 5.12533 2.78945C5.18133 2.87745 5.19733 2.97345 5.17333 3.07745C5.08533 3.48545 5.09733 3.83345 5.20933 4.12145C5.32933 4.40145 5.47733 4.68145 5.65333 4.96145C5.82933 5.24146 5.99333 5.55345 6.14533 5.89745C6.30533 6.24146 6.38533 6.67745 6.38533 7.20545C6.38533 7.68545 6.24133 8.06145 5.95333 8.33346C5.66533 8.60546 5.28933 8.76146 4.82533 8.80146C4.36133 8.83346 3.86533 8.74146 3.33733 8.52546ZM10.3093 7.68545C10.2213 7.74146 10.1253 7.75746 10.0213 7.73346C9.91733 7.70946 9.83733 7.65345 9.78133 7.56545C9.63733 7.32545 9.44533 7.05746 9.20533 6.76146C8.97333 6.46546 8.72533 6.16946 8.46133 5.87346C8.19733 5.57746 7.94533 5.31745 7.70533 5.09345C7.62533 5.02145 7.58533 4.93345 7.58533 4.82945C7.58533 4.72545 7.62133 4.63745 7.69333 4.56545C7.76533 4.48545 7.85333 4.44545 7.95733 4.44545C8.06133 4.43745 8.15333 4.46945 8.23333 4.54145C8.48133 4.77345 8.74533 5.04945 9.02533 5.36945C9.30533 5.68145 9.56933 5.99745 9.81733 6.31745C10.0733 6.62945 10.2773 6.90945 10.4293 7.15745C10.4853 7.24545 10.5013 7.34145 10.4773 7.44546C10.4533 7.54146 10.3973 7.62145 10.3093 7.68545ZM0.625333 7.72146C0.545333 7.78546 0.453333 7.81745 0.349333 7.81745C0.245333 7.80945 0.157333 7.76545 0.0853333 7.68545C0.0213333 7.59746 -0.00666666 7.50145 0.00133333 7.39745C0.00933335 7.29345 0.0533333 7.20946 0.133333 7.14545C0.277333 7.02545 0.457333 6.88145 0.673333 6.71345C0.897333 6.53745 1.12533 6.35745 1.35733 6.17345C1.59733 5.98145 1.82133 5.80545 2.02933 5.64545C2.24533 5.47745 2.41733 5.34546 2.54533 5.24945C2.63333 5.18546 2.72933 5.16146 2.83333 5.17745C2.93733 5.18545 3.01733 5.23345 3.07333 5.32146C3.13733 5.40145 3.16133 5.49745 3.14533 5.60945C3.13733 5.71345 3.08933 5.79745 3.00133 5.86145C2.79333 6.01345 2.53733 6.20545 2.23333 6.43745C1.93733 6.66945 1.64133 6.90145 1.34533 7.13345C1.05733 7.35745 0.817333 7.55346 0.625333 7.72146ZM6.13333 2.02145C5.91733 1.84545 5.66933 1.67745 5.38933 1.51745C5.11733 1.34945 4.84533 1.19745 4.57333 1.06145C4.30133 0.925454 4.05333 0.821454 3.82933 0.749454C3.72533 0.709454 3.64933 0.645455 3.60133 0.557455C3.55333 0.469454 3.54533 0.373455 3.57733 0.269455C3.60933 0.173455 3.66933 0.101455 3.75733 0.0534548C3.85333 -0.00254542 3.95333 -0.0145455 4.05733 0.0174546C4.32133 0.105454 4.60533 0.229454 4.90933 0.389455C5.21333 0.541455 5.51333 0.705455 5.80933 0.881455C6.10533 1.05745 6.36533 1.23345 6.58933 1.40945C6.67733 1.47345 6.72533 1.55745 6.73333 1.66145C6.74933 1.76545 6.72533 1.86145 6.66133 1.94945C6.59733 2.02945 6.51333 2.07745 6.40933 2.09346C6.30533 2.10145 6.21333 2.07745 6.13333 2.02145Z" fill="black"/>
</svg>
