<svg width="10" height="10" viewBox="0 0 10 10" fill="none" xmlns="http://www.w3.org/2000/svg">
<path d="M4.744 9.468C4.216 9.468 3.784 9.344 3.448 9.096C3.112 8.848 2.944 8.48 2.944 7.992C2.944 7.528 3.104 7.164 3.424 6.9C3.752 6.636 4.196 6.504 4.756 6.504C5.108 6.504 5.456 6.54 5.8 6.612C5.792 6.14 5.78 5.6 5.764 4.992C5.748 4.384 5.732 3.764 5.716 3.132C5.228 3.164 4.756 3.188 4.3 3.204C3.844 3.22 3.448 3.224 3.112 3.216C3.008 3.216 2.92 3.18 2.848 3.108C2.776 3.028 2.74 2.936 2.74 2.832C2.748 2.72 2.788 2.628 2.86 2.556C2.94 2.484 3.032 2.452 3.136 2.46C3.464 2.468 3.852 2.468 4.3 2.46C4.756 2.452 5.224 2.432 5.704 2.4C5.696 2.04 5.688 1.688 5.68 1.344C5.68 1 5.68 0.68 5.68 0.384C5.68 0.28 5.716 0.192 5.788 0.12C5.868 0.04 5.96 0 6.064 0C6.168 0 6.256 0.04 6.328 0.12C6.4 0.192 6.436 0.28 6.436 0.384C6.436 0.688 6.436 1.008 6.436 1.344C6.444 1.672 6.452 2.008 6.46 2.352C6.876 2.32 7.268 2.284 7.636 2.244C8.004 2.204 8.316 2.16 8.572 2.112C8.676 2.096 8.768 2.12 8.848 2.184C8.936 2.24 8.988 2.32 9.004 2.424C9.02 2.528 9 2.624 8.944 2.712C8.888 2.8 8.804 2.852 8.692 2.868C8.428 2.9 8.1 2.936 7.708 2.976C7.324 3.008 6.912 3.044 6.472 3.084C6.488 3.78 6.504 4.456 6.52 5.112C6.544 5.76 6.56 6.32 6.568 6.792C7.04 6.928 7.484 7.1 7.9 7.308C8.316 7.516 8.68 7.736 8.992 7.968C9.08 8.024 9.132 8.104 9.148 8.208C9.172 8.312 9.152 8.408 9.088 8.496C9.024 8.576 8.94 8.628 8.836 8.652C8.732 8.668 8.636 8.644 8.548 8.58C8.3 8.396 8.004 8.216 7.66 8.04C7.316 7.856 6.956 7.7 6.58 7.572V7.764C6.588 8.356 6.436 8.788 6.124 9.06C5.812 9.332 5.352 9.468 4.744 9.468ZM0.616 9.504C0.512 9.52 0.416 9.496 0.328 9.432C0.24 9.376 0.188 9.296 0.172 9.192C0.124 8.92 0.0840001 8.56 0.0520001 8.112C0.0280001 7.656 0.012 7.144 0.00400001 6.576C-0.00400001 6.008 0 5.42 0.016 4.812C0.0320001 4.204 0.0560001 3.612 0.088 3.036C0.12 2.46 0.16 1.932 0.208 1.452C0.264 0.972 0.328 0.584 0.4 0.288C0.424 0.184 0.48 0.108 0.568 0.0599999C0.656 0.00399971 0.752 -0.0120003 0.856 0.0119998C0.96 0.036 1.04 0.092 1.096 0.18C1.152 0.268 1.168 0.364 1.144 0.468C1.072 0.772 1.008 1.156 0.952 1.62C0.896 2.084 0.852 2.592 0.82 3.144C0.788 3.688 0.764 4.248 0.748 4.824C0.74 5.4 0.74 5.96 0.748 6.504C0.756 7.04 0.776 7.532 0.808 7.98C0.84 8.42 0.88 8.78 0.928 9.06C0.944 9.164 0.92 9.256 0.856 9.336C0.8 9.424 0.72 9.48 0.616 9.504ZM4.744 8.748C5.136 8.748 5.412 8.672 5.572 8.52C5.74 8.36 5.824 8.108 5.824 7.764V7.344C5.64 7.304 5.456 7.272 5.272 7.248C5.096 7.224 4.92 7.212 4.744 7.212C4.032 7.212 3.676 7.472 3.676 7.992C3.676 8.24 3.768 8.428 3.952 8.556C4.144 8.684 4.408 8.748 4.744 8.748Z" fill="black"/>
</svg>
