<svg width="11" height="5" viewBox="0 0 11 5" fill="none" xmlns="http://www.w3.org/2000/svg">
<path d="M9.5988 4.92982C9.1828 4.62582 8.7308 4.28182 8.2428 3.89782C7.7628 3.51382 7.2788 3.11382 6.7908 2.69782C6.3108 2.27382 5.8548 1.86582 5.4228 1.47382C5.0868 1.15382 4.7908 0.941818 4.5348 0.837818C4.2788 0.725818 4.0188 0.717818 3.7548 0.813818C3.4908 0.901818 3.1708 1.08982 2.7948 1.37782C2.4028 1.67382 2.0228 1.95782 1.6548 2.22982C1.2868 2.50182 0.9348 2.74182 0.5988 2.94982C0.5108 3.00582 0.4148 3.02582 0.3108 3.00982C0.2068 2.98582 0.1228 2.92582 0.0588 2.82982C0.00280001 2.74182 -0.0132 2.64582 0.0108 2.54182C0.0348 2.42982 0.0908 2.34582 0.1788 2.28982C0.4988 2.08982 0.8468 1.86182 1.2228 1.60582C1.5988 1.34982 1.9708 1.08182 2.3388 0.801818C2.8188 0.433818 3.2468 0.193818 3.6228 0.0818182C3.9988 -0.0381817 4.3668 -0.0261818 4.7268 0.117818C5.0948 0.253818 5.4988 0.525818 5.9388 0.933818C6.3628 1.31782 6.8188 1.71782 7.3068 2.13382C7.7948 2.54182 8.2788 2.93382 8.7588 3.30982C9.2388 3.67782 9.6708 4.00182 10.0548 4.28182C10.1428 4.34582 10.1948 4.43382 10.2108 4.54582C10.2348 4.64982 10.2148 4.74582 10.1508 4.83382C10.0868 4.92182 9.9988 4.97782 9.8868 5.00182C9.7828 5.01782 9.6868 4.99382 9.5988 4.92982Z" fill="black"/>
</svg>
