<svg width="10" height="9" viewBox="0 0 10 9" fill="none" xmlns="http://www.w3.org/2000/svg">
<path d="M3.7188 8.412C3.1908 8.412 2.7108 8.296 2.2788 8.064C1.8548 7.832 1.5188 7.472 1.2708 6.984C1.0228 6.496 0.8988 5.876 0.8988 5.124C0.8988 4.412 1.0428 3.684 1.3308 2.94C1.6188 2.188 2.0548 1.488 2.6388 0.84C2.2868 0.872 1.9188 0.92 1.5348 0.984C1.1588 1.048 0.7948 1.112 0.4428 1.176C0.3388 1.192 0.2428 1.172 0.1548 1.116C0.0748 1.052 0.0268 0.968 0.0108 0.864C-0.0132 0.76 0.00279998 0.664 0.0588 0.576C0.1228 0.488 0.2068 0.436 0.3108 0.42C0.7588 0.348 1.2628 0.284 1.8228 0.228C2.3828 0.164 2.9068 0.124 3.3948 0.108C3.5708 0.0920001 3.6908 0.172 3.7548 0.348C3.8188 0.508 3.7868 0.648 3.6588 0.768C3.2028 1.16 2.8228 1.604 2.5188 2.1C2.2228 2.588 1.9988 3.092 1.8468 3.612C1.7028 4.124 1.6308 4.612 1.6308 5.076C1.6308 5.972 1.8228 6.624 2.2068 7.032C2.5988 7.44 3.1108 7.644 3.7428 7.644C4.7108 7.644 5.4068 7.284 5.8308 6.564C6.2548 5.836 6.4668 4.832 6.4668 3.552C6.4668 3.104 6.4428 2.624 6.3948 2.112C6.3468 1.592 6.2708 1.04 6.1668 0.456C6.1508 0.352 6.1668 0.26 6.2148 0.18C6.2708 0.1 6.3468 0.0440002 6.4428 0.0120002C6.5388 -0.012 6.6308 -1.60187e-07 6.7188 0.0479997C6.8068 0.096 6.8668 0.164 6.8988 0.252C7.0988 0.812 7.4148 1.324 7.8468 1.788C8.2788 2.244 8.7868 2.608 9.3708 2.88C9.4668 2.92 9.5308 2.992 9.5628 3.096C9.5948 3.192 9.5908 3.288 9.5508 3.384C9.5108 3.48 9.4388 3.548 9.3348 3.588C9.2388 3.62 9.1428 3.612 9.0468 3.564C8.6548 3.396 8.2908 3.164 7.9548 2.868C7.6188 2.572 7.3188 2.236 7.0548 1.86C7.1428 2.524 7.1868 3.128 7.1868 3.672C7.1868 5.216 6.8868 6.392 6.2868 7.2C5.6948 8.008 4.8388 8.412 3.7188 8.412Z" fill="black"/>
</svg>
