<svg width="10" height="10" viewBox="0 0 10 10" fill="none" xmlns="http://www.w3.org/2000/svg">
<path d="M4.65 9.2148C4.146 9.2148 3.718 9.0948 3.366 8.8548C3.022 8.6068 2.85 8.2348 2.85 7.7388C2.85 7.2668 3.01 6.8988 3.33 6.6348C3.658 6.3708 4.102 6.2388 4.662 6.2388C5.014 6.2388 5.362 6.2748 5.706 6.3468C5.698 6.0028 5.686 5.6268 5.67 5.2188C5.662 4.8028 5.65 4.3788 5.634 3.9468C5.21 3.9788 4.802 4.0028 4.41 4.0188C4.018 4.0268 3.686 4.0268 3.414 4.0188C3.31 4.0188 3.222 3.9788 3.15 3.8988C3.078 3.8188 3.046 3.7268 3.054 3.6228C3.062 3.5188 3.102 3.4308 3.174 3.3588C3.254 3.2868 3.346 3.2548 3.45 3.2628C3.706 3.2708 4.026 3.2708 4.41 3.2628C4.794 3.2548 5.198 3.2348 5.622 3.2028C5.614 2.8828 5.606 2.5788 5.598 2.2908C5.59 1.9948 5.586 1.7268 5.586 1.4868C5.242 1.5108 4.894 1.5308 4.542 1.5468C4.198 1.5548 3.874 1.5588 3.57 1.5588C3.466 1.5588 3.374 1.5228 3.294 1.4508C3.222 1.3788 3.186 1.2908 3.186 1.1868C3.186 1.0748 3.222 0.9828 3.294 0.9108C3.374 0.8388 3.466 0.8028 3.57 0.8028C3.986 0.8028 4.434 0.7908 4.914 0.7668C5.402 0.7428 5.878 0.7068 6.342 0.6588C6.806 0.6108 7.206 0.5588 7.542 0.5028C7.646 0.4868 7.742 0.5108 7.83 0.5748C7.918 0.6308 7.97 0.7108 7.986 0.8148C8.002 0.9188 7.978 1.0148 7.914 1.1028C7.858 1.1908 7.774 1.2428 7.662 1.2588C7.478 1.2908 7.274 1.3188 7.05 1.3428C6.826 1.3668 6.59 1.3908 6.342 1.4148C6.35 1.6788 6.354 1.9588 6.354 2.2548C6.362 2.5428 6.37 2.8388 6.378 3.1428C6.682 3.1188 6.974 3.0908 7.254 3.0588C7.542 3.0188 7.79 2.9828 7.998 2.9508C8.11 2.9348 8.206 2.9588 8.286 3.0228C8.374 3.0788 8.426 3.1588 8.442 3.2628C8.458 3.3668 8.434 3.4628 8.37 3.5508C8.314 3.6308 8.234 3.6788 8.13 3.6948C7.906 3.7268 7.642 3.7628 7.338 3.8028C7.034 3.8348 6.718 3.8668 6.39 3.8988C6.406 4.3868 6.418 4.8588 6.426 5.3148C6.442 5.7708 6.454 6.1748 6.462 6.5268C6.934 6.6628 7.378 6.8348 7.794 7.0428C8.218 7.2508 8.586 7.4708 8.898 7.7028C8.986 7.7668 9.038 7.8508 9.054 7.9548C9.078 8.0588 9.058 8.1548 8.994 8.2428C8.938 8.3228 8.858 8.3708 8.754 8.3868C8.65 8.4028 8.554 8.3828 8.466 8.3268C8.21 8.1428 7.91 7.9588 7.566 7.7748C7.222 7.5908 6.862 7.4308 6.486 7.2948V7.4988C6.486 8.0588 6.338 8.4868 6.042 8.7828C5.754 9.0708 5.29 9.2148 4.65 9.2148ZM0.606 9.3228C0.502 9.3388 0.406 9.3148 0.318 9.2508C0.23 9.1948 0.178 9.1148 0.162 9.0108C0.114 8.7388 0.078 8.3828 0.0539999 7.9428C0.03 7.4948 0.014 6.9948 0.00600001 6.4428C-0.002 5.8908 -0.002 5.3188 0.00600001 4.7268C0.022 4.1348 0.046 3.5588 0.078 2.9988C0.11 2.4308 0.15 1.9148 0.198 1.4508C0.254 0.9788 0.318 0.5948 0.39 0.2988C0.414 0.1948 0.47 0.1148 0.558 0.0588002C0.646 0.00279996 0.742 -0.0132001 0.846 0.0108001C0.95 0.0428002 1.03 0.1028 1.086 0.1908C1.142 0.2788 1.158 0.3748 1.134 0.4788C1.062 0.7828 0.998 1.1628 0.942 1.6188C0.886 2.0668 0.842 2.5588 0.81 3.0948C0.778 3.6308 0.754 4.1828 0.738 4.7508C0.73 5.3108 0.73 5.8548 0.738 6.3828C0.746 6.9108 0.766 7.3908 0.798 7.8228C0.83 8.2548 0.87 8.6068 0.918 8.8788C0.934 8.9828 0.91 9.0788 0.846 9.1668C0.79 9.2548 0.71 9.3068 0.606 9.3228ZM4.65 8.5068C5.042 8.5068 5.318 8.4268 5.478 8.2668C5.646 8.0988 5.73 7.8428 5.73 7.4988V7.0788C5.546 7.0388 5.362 7.0068 5.178 6.9828C5.002 6.9588 4.826 6.9468 4.65 6.9468C4.282 6.9468 4.014 7.0228 3.846 7.1748C3.678 7.3188 3.594 7.5068 3.594 7.7388C3.594 7.9868 3.686 8.1788 3.87 8.3148C4.054 8.4428 4.314 8.5068 4.65 8.5068Z" fill="black"/>
</svg>
