<svg width="10" height="7" viewBox="0 0 10 7" fill="none" xmlns="http://www.w3.org/2000/svg">
<path d="M2.59108 6.3012C2.26308 6.3172 1.95108 6.2452 1.65508 6.0852C1.35908 5.9172 1.10708 5.6612 0.899077 5.3172C0.699077 4.9892 0.527077 4.5532 0.383077 4.0092C0.239077 3.4652 0.131077 2.8732 0.0590768 2.2332C-0.0049231 1.5932 -0.0169231 0.9692 0.023077 0.3612C0.0310769 0.2572 0.0710769 0.1692 0.143077 0.0972002C0.223077 0.0252001 0.315077 -0.00679993 0.419077 0.00119997C0.531077 0.00919987 0.619077 0.0531998 0.683077 0.1332C0.755077 0.2132 0.787077 0.3052 0.779077 0.4092C0.747077 0.9932 0.755077 1.5772 0.803077 2.1612C0.851077 2.7372 0.939077 3.2652 1.06708 3.7452C1.19508 4.2252 1.35108 4.6172 1.53508 4.9212C1.66308 5.1212 1.81108 5.2772 1.97908 5.3892C2.14708 5.4932 2.32708 5.5412 2.51908 5.5332C3.01508 5.5252 3.41108 5.0732 3.70708 4.1772C3.73908 4.0732 3.79908 3.9972 3.88708 3.9492C3.98308 3.9012 4.08308 3.8932 4.18708 3.9252C4.29108 3.9572 4.36708 4.0212 4.41508 4.1172C4.46308 4.2132 4.46708 4.3092 4.42708 4.4052C4.20308 5.0612 3.92708 5.5372 3.59908 5.8332C3.27908 6.1212 2.94308 6.2772 2.59108 6.3012ZM9.09508 4.1892C8.99108 4.2212 8.89108 4.2172 8.79508 4.1772C8.70708 4.1292 8.64308 4.0572 8.60308 3.9612C8.40308 3.4492 8.11108 2.9532 7.72708 2.4732C7.35108 1.9932 6.93908 1.6052 6.49108 1.3092C6.41108 1.2532 6.36308 1.1732 6.34708 1.0692C6.33108 0.9572 6.35508 0.8612 6.41908 0.7812C6.49108 0.6932 6.57508 0.6492 6.67108 0.6492C6.77508 0.6412 6.87508 0.6692 6.97108 0.7332C7.27508 0.9252 7.58308 1.1852 7.89508 1.5132C8.20708 1.8332 8.49108 2.1852 8.74708 2.5692C9.01108 2.9452 9.20708 3.3212 9.33508 3.6972C9.37508 3.8012 9.37108 3.9012 9.32308 3.9972C9.27508 4.0852 9.19908 4.1492 9.09508 4.1892Z" fill="black"/>
</svg>
