<svg width="10" height="10" viewBox="0 0 10 10" fill="none" xmlns="http://www.w3.org/2000/svg">
<path d="M0.145333 9.1212C0.0653333 9.0572 0.0173333 8.9732 0.00133334 8.8692C-0.00666668 8.7572 0.0213333 8.6612 0.0853333 8.5812C0.445333 8.1252 0.777333 7.6212 1.08133 7.0692C1.39333 6.5092 1.67333 5.9252 1.92133 5.3172C2.16933 4.7012 2.38133 4.0932 2.55733 3.4932C2.22933 3.5252 1.88933 3.5612 1.53733 3.6012C1.18533 3.6332 0.825333 3.6692 0.457333 3.7092C0.353333 3.7172 0.261333 3.6892 0.181333 3.6252C0.101333 3.5612 0.0533333 3.4772 0.0373333 3.3732C0.0293333 3.2692 0.0573333 3.1772 0.121333 3.0972C0.185333 3.0092 0.269333 2.9612 0.373333 2.9532C0.789333 2.9132 1.19733 2.8772 1.59733 2.8452C1.99733 2.8052 2.38533 2.7732 2.76133 2.7492C2.97733 1.8772 3.10533 1.0812 3.14533 0.3612C3.15333 0.2492 3.19733 0.1612 3.27733 0.0972002C3.35733 0.0252001 3.44933 -0.00679993 3.55333 0.00119997C3.65733 0.00919987 3.74533 0.0531998 3.81733 0.1332C3.88933 0.2052 3.92133 0.2932 3.91333 0.3972C3.88933 0.7332 3.84533 1.0972 3.78133 1.4892C3.72533 1.8732 3.64533 2.2772 3.54133 2.7012C4.66133 2.6532 5.42933 2.8772 5.84533 3.3732C6.26933 3.8692 6.40133 4.6852 6.24133 5.8212C6.11333 6.7332 5.92133 7.4412 5.66533 7.9452C5.40933 8.4492 5.07333 8.7892 4.65733 8.9652C4.24933 9.1332 3.74133 9.1772 3.13333 9.0972C3.02933 9.0812 2.94533 9.0332 2.88133 8.9532C2.81733 8.8732 2.79333 8.7812 2.80933 8.6772C2.82533 8.5652 2.87333 8.4772 2.95333 8.4132C3.03333 8.3492 3.12533 8.3252 3.22933 8.3412C3.51733 8.3812 3.78133 8.3852 4.02133 8.3532C4.26133 8.3212 4.47333 8.2212 4.65733 8.0532C4.84933 7.8772 5.01333 7.6052 5.14933 7.2372C5.28533 6.8612 5.39733 6.3532 5.48533 5.7132C5.56533 5.1372 5.56133 4.6772 5.47333 4.3332C5.39333 3.9812 5.19333 3.7332 4.87333 3.5892C4.56133 3.4452 4.09333 3.3932 3.46933 3.4332H3.34933C3.16533 4.0892 2.94133 4.7572 2.67733 5.4372C2.41333 6.1092 2.11333 6.7532 1.77733 7.3692C1.44133 7.9852 1.07333 8.5452 0.673333 9.0492C0.617333 9.1292 0.537333 9.1772 0.433333 9.1932C0.329333 9.2092 0.233333 9.1852 0.145333 9.1212ZM9.64933 5.5452C9.56133 5.5932 9.46533 5.6012 9.36133 5.5692C9.25733 5.5372 9.18133 5.4772 9.13333 5.3892C8.98133 5.1092 8.80133 4.8212 8.59333 4.5252C8.38533 4.2212 8.16133 3.9332 7.92133 3.6612C7.68933 3.3892 7.46133 3.1492 7.23733 2.9412C7.15733 2.8772 7.11733 2.7932 7.11733 2.6892C7.11733 2.5772 7.15333 2.4852 7.22533 2.4132C7.29733 2.3332 7.38533 2.2932 7.48933 2.2932C7.59333 2.2852 7.68533 2.3172 7.76533 2.3892C8.00533 2.6132 8.24933 2.8772 8.49733 3.1812C8.75333 3.4772 8.99333 3.7852 9.21733 4.1052C9.44933 4.4252 9.64533 4.7332 9.80533 5.0292C9.85333 5.1172 9.86133 5.2132 9.82933 5.3172C9.79733 5.4132 9.73733 5.4892 9.64933 5.5452Z" fill="black"/>
</svg>
