<svg width="9" height="10" viewBox="0 0 9 10" fill="none" xmlns="http://www.w3.org/2000/svg">
<path d="M4.704 9.168C4.624 9.24 4.532 9.272 4.428 9.264C4.324 9.264 4.236 9.224 4.164 9.144C4.092 9.056 4.06 8.96 4.068 8.856C4.076 8.752 4.12 8.664 4.2 8.592C4.688 8.168 5.052 7.708 5.292 7.212C5.532 6.708 5.692 6.148 5.772 5.532C5.86 4.916 5.904 4.22 5.904 3.444V3.072C5.448 3.104 4.996 3.144 4.548 3.192C4.1 3.24 3.7 3.296 3.348 3.36C3.244 3.376 3.148 3.356 3.06 3.3C2.972 3.244 2.92 3.164 2.904 3.06C2.88 2.956 2.896 2.86 2.952 2.772C3.016 2.684 3.1 2.632 3.204 2.616C3.58 2.552 4.004 2.496 4.476 2.448C4.948 2.4 5.424 2.36 5.904 2.328V0.372C5.904 0.268 5.94 0.18 6.012 0.108C6.092 0.036 6.184 0 6.288 0C6.392 0 6.48 0.036 6.552 0.108C6.624 0.18 6.66 0.268 6.66 0.372V2.292C6.996 2.276 7.312 2.268 7.608 2.268C7.912 2.26 8.184 2.264 8.424 2.28C8.536 2.28 8.624 2.32 8.688 2.4C8.76 2.472 8.792 2.564 8.784 2.676C8.776 2.78 8.732 2.868 8.652 2.94C8.58 3.012 8.492 3.044 8.388 3.036C7.908 3.012 7.332 3.012 6.66 3.036V3.444C6.66 4.252 6.608 5.008 6.504 5.712C6.4 6.408 6.208 7.044 5.928 7.62C5.648 8.196 5.24 8.712 4.704 9.168ZM0.78 8.796C0.676 8.812 0.58 8.792 0.492 8.736C0.404 8.68 0.348 8.6 0.324 8.496C0.228 8.008 0.152 7.428 0.096 6.756C0.04 6.084 0.00800002 5.376 0 4.632C0 3.88 0.028 3.14 0.084 2.412C0.14 1.684 0.232 1.016 0.36 0.408C0.376 0.304 0.428 0.224 0.516 0.168C0.604 0.112 0.7 0.0960002 0.804 0.12C0.908 0.136 0.988 0.188 1.044 0.276C1.1 0.364 1.12 0.46 1.104 0.564C0.976 1.148 0.884 1.792 0.828 2.496C0.772 3.192 0.744 3.9 0.744 4.62C0.752 5.34 0.784 6.024 0.84 6.672C0.896 7.312 0.972 7.868 1.068 8.34C1.092 8.444 1.076 8.54 1.02 8.628C0.964 8.716 0.884 8.772 0.78 8.796Z" fill="black"/>
</svg>
