<svg width="7" height="11" viewBox="0 0 7 11" fill="none" xmlns="http://www.w3.org/2000/svg">
<path d="M4.1535 10.3068C2.9055 10.3228 1.9255 10.1268 1.2135 9.7188C0.5095 9.3188 0.1575 8.7348 0.1575 7.9668C0.1575 7.5028 0.2735 7.1148 0.5055 6.8028C0.7455 6.4908 1.0695 6.2588 1.4775 6.1068C1.8855 5.9468 2.3535 5.8748 2.8815 5.8908C3.4095 5.8988 3.9655 5.9988 4.5495 6.1908C4.3415 5.9188 4.1415 5.6268 3.9495 5.3148C3.7575 4.9948 3.5695 4.6628 3.3855 4.3188C2.8895 4.4068 2.3895 4.4908 1.8855 4.5708C1.3815 4.6428 0.9055 4.6988 0.4575 4.7388C0.3535 4.7468 0.2615 4.7188 0.1815 4.6548C0.1015 4.5828 0.0575001 4.4948 0.0495001 4.3908C0.0415 4.2868 0.0695 4.1948 0.1335 4.1148C0.2055 4.0348 0.2935 3.9908 0.3975 3.9828C0.7895 3.9508 1.2135 3.9068 1.6695 3.8508C2.1335 3.7868 2.5975 3.7148 3.0615 3.6348C2.9575 3.4028 2.8575 3.1708 2.7615 2.9388C2.6655 2.7068 2.5735 2.4748 2.4855 2.2428C2.1175 2.2988 1.7535 2.3548 1.3935 2.4108C1.0335 2.4668 0.7095 2.5148 0.4215 2.5548C0.3175 2.5628 0.2255 2.5348 0.1455 2.4708C0.0655 2.4068 0.0175 2.3228 0.00149996 2.2188C-0.00649993 2.1068 0.0175001 2.0108 0.0735001 1.9308C0.1375 1.8508 0.2215 1.8068 0.3255 1.7988C0.5895 1.7748 0.8895 1.7428 1.2255 1.7028C1.5615 1.6548 1.9015 1.6028 2.2455 1.5468C2.1895 1.3628 2.1335 1.1828 2.0775 1.0068C2.0295 0.8308 1.9815 0.6548 1.9335 0.4788C1.9095 0.3748 1.9215 0.2788 1.9695 0.1908C2.0255 0.0948002 2.1055 0.0348003 2.2095 0.0108001C2.3135 -0.0132001 2.4095 0.00279996 2.4975 0.0588002C2.5855 0.1068 2.6415 0.1828 2.6655 0.2868C2.7135 0.4708 2.7655 0.6588 2.8215 0.8508C2.8775 1.0428 2.9335 1.2348 2.9895 1.4268C3.3175 1.3628 3.6295 1.2988 3.9255 1.2348C4.2215 1.1708 4.4815 1.1108 4.7055 1.0548C4.8095 1.0308 4.9055 1.0468 4.9935 1.1028C5.0815 1.1588 5.1375 1.2388 5.1615 1.3428C5.1855 1.4468 5.1695 1.5428 5.1135 1.6308C5.0575 1.7188 4.9775 1.7748 4.8735 1.7988C4.6495 1.8468 4.3935 1.8988 4.1055 1.9548C3.8255 2.0108 3.5295 2.0668 3.2175 2.1228C3.3055 2.3548 3.3935 2.5868 3.4815 2.8188C3.5695 3.0508 3.6655 3.2828 3.7695 3.5148C4.1535 3.4348 4.5255 3.3588 4.8855 3.2868C5.2455 3.2068 5.5735 3.1308 5.8695 3.0588C5.9735 3.0348 6.0695 3.0508 6.1575 3.1068C6.2455 3.1628 6.3015 3.2428 6.3255 3.3468C6.3495 3.4508 6.3335 3.5468 6.2775 3.6348C6.2215 3.7228 6.1415 3.7788 6.0375 3.8028C5.7815 3.8588 5.4855 3.9228 5.1495 3.9948C4.8215 4.0588 4.4695 4.1268 4.0935 4.1988C4.3255 4.6388 4.5735 5.0588 4.8375 5.4588C5.1095 5.8508 5.3975 6.2028 5.7015 6.5148C5.8375 6.6668 5.8535 6.8268 5.7495 6.9948C5.6295 7.1548 5.4735 7.2028 5.2815 7.1388C4.4495 6.7868 3.7055 6.5988 3.0495 6.5748C2.3935 6.5428 1.8735 6.6508 1.4895 6.8988C1.1135 7.1388 0.9255 7.4948 0.9255 7.9668C0.9255 8.4948 1.2015 8.8948 1.7535 9.1668C2.3055 9.4308 3.1015 9.5548 4.1415 9.5388C4.2535 9.5388 4.3455 9.5748 4.4175 9.6468C4.4895 9.7188 4.5295 9.8108 4.5375 9.9228C4.5375 10.0268 4.5015 10.1148 4.4295 10.1868C4.3575 10.2668 4.2655 10.3068 4.1535 10.3068Z" fill="black"/>
</svg>
