<svg width="7" height="9" viewBox="0 0 7 9" fill="none" xmlns="http://www.w3.org/2000/svg">
<path d="M6.654 7.788C5.51 8.052 4.478 8.172 3.558 8.148C2.646 8.124 1.886 7.964 1.278 7.668C0.67 7.364 0.254 6.94 0.03 6.396C-0.00999999 6.3 -0.00999999 6.204 0.03 6.108C0.0699999 6.004 0.138 5.936 0.234 5.904C0.338 5.864 0.438 5.864 0.534 5.904C0.63 5.944 0.698 6.012 0.738 6.108C0.922 6.54 1.286 6.868 1.83 7.092C2.382 7.308 3.058 7.412 3.858 7.404C4.666 7.396 5.538 7.276 6.474 7.044C6.578 7.02 6.674 7.036 6.762 7.092C6.85 7.148 6.906 7.228 6.93 7.332C6.954 7.436 6.938 7.532 6.882 7.62C6.834 7.708 6.758 7.764 6.654 7.788ZM5.694 1.116C5.246 1.004 4.754 0.92 4.218 0.864C3.682 0.8 3.158 0.764 2.646 0.756C2.142 0.748 1.698 0.764 1.314 0.804C1.21 0.812 1.114 0.788 1.026 0.732C0.946 0.668 0.898 0.584 0.882 0.48C0.874 0.368 0.902 0.272 0.966 0.192C1.03 0.104 1.114 0.056 1.218 0.0480001C1.522 0.016 1.87 0 2.262 0C2.662 0 3.074 0.016 3.498 0.0480001C3.93 0.0720003 4.35 0.112 4.758 0.168C5.166 0.224 5.534 0.296 5.862 0.384C5.966 0.408 6.046 0.464 6.102 0.552C6.158 0.64 6.174 0.736 6.15 0.84C6.126 0.944 6.07 1.024 5.982 1.08C5.894 1.136 5.798 1.148 5.694 1.116Z" fill="black"/>
</svg>
