<svg width="5" height="11" viewBox="0 0 5 11" fill="none" xmlns="http://www.w3.org/2000/svg">
<path d="M4.41366 10.032C4.33366 10.088 4.24166 10.108 4.13766 10.092C4.03366 10.076 3.94966 10.024 3.88566 9.936C3.60566 9.536 3.30166 9.132 2.97366 8.724C2.64566 8.316 2.31766 7.928 1.98966 7.56C1.66966 7.192 1.36566 6.868 1.07766 6.588C0.589658 6.116 0.265659 5.68 0.105658 5.28C-0.0463415 4.88 -0.0343414 4.484 0.141659 4.092C0.317659 3.692 0.653659 3.272 1.14966 2.832C1.38966 2.624 1.66966 2.364 1.98966 2.052C2.30966 1.74 2.63366 1.412 2.96166 1.068C3.29766 0.724 3.60166 0.408 3.87366 0.12C3.94566 0.04 4.03366 0 4.13766 0C4.24166 0 4.32966 0.0320001 4.40166 0.0960002C4.48166 0.168 4.52166 0.26 4.52166 0.372C4.52966 0.476 4.49766 0.564 4.42566 0.636C4.13766 0.94 3.82566 1.264 3.48966 1.608C3.15366 1.952 2.82566 2.28 2.50566 2.592C2.18566 2.896 1.90166 3.16 1.65366 3.384C1.27766 3.728 1.02166 4.036 0.885658 4.308C0.757658 4.572 0.753658 4.84 0.873659 5.112C0.993658 5.376 1.23366 5.688 1.59366 6.048C1.88966 6.336 2.20566 6.676 2.54166 7.068C2.88566 7.452 3.22566 7.856 3.56166 8.28C3.90566 8.696 4.22166 9.104 4.50966 9.504C4.57366 9.584 4.59366 9.676 4.56966 9.78C4.55366 9.884 4.50166 9.968 4.41366 10.032Z" fill="black"/>
</svg>
