<svg width="7" height="11" viewBox="0 0 7 11" fill="none" xmlns="http://www.w3.org/2000/svg">
<path d="M1.848 10.068C1.304 10.068 0.86 9.94 0.516 9.684C0.172 9.436 0 9.072 0 8.592C0 8.128 0.164 7.76 0.492 7.488C0.828 7.216 1.288 7.08 1.872 7.08C2.056 7.08 2.24 7.092 2.424 7.116C2.616 7.132 2.808 7.16 3 7.2C2.992 6.896 2.984 6.572 2.976 6.228C2.976 5.876 2.968 5.512 2.952 5.136C2.024 5.16 1.172 5.16 0.396 5.136C0.292 5.136 0.204 5.096 0.132 5.016C0.06 4.936 0.028 4.844 0.0359999 4.74C0.0439999 4.636 0.0839999 4.548 0.156 4.476C0.236 4.404 0.328 4.372 0.432 4.38C0.808 4.396 1.208 4.408 1.632 4.416C2.056 4.416 2.488 4.412 2.928 4.404C2.92 4.1 2.912 3.8 2.904 3.504C2.904 3.2 2.9 2.9 2.892 2.604C1.996 2.628 1.164 2.628 0.396 2.604C0.292 2.604 0.204 2.564 0.132 2.484C0.06 2.404 0.028 2.312 0.0359999 2.208C0.0439999 2.104 0.0839999 2.016 0.156 1.944C0.236 1.872 0.328 1.84 0.432 1.848C0.8 1.864 1.192 1.876 1.608 1.884C2.024 1.884 2.448 1.88 2.88 1.872C2.872 1.6 2.868 1.34 2.868 1.092C2.868 0.835999 2.868 0.595999 2.868 0.372C2.868 0.268 2.904 0.18 2.976 0.108C3.048 0.036 3.136 0 3.24 0C3.352 0 3.444 0.036 3.516 0.108C3.588 0.18 3.624 0.268 3.624 0.372C3.624 0.595999 3.624 0.832 3.624 1.08C3.632 1.32 3.636 1.572 3.636 1.836C4.036 1.82 4.42 1.796 4.788 1.764C5.164 1.724 5.504 1.684 5.808 1.644C5.912 1.628 6.004 1.652 6.084 1.716C6.172 1.78 6.224 1.864 6.24 1.968C6.256 2.072 6.232 2.168 6.168 2.256C6.104 2.336 6.02 2.384 5.916 2.4C5.588 2.432 5.232 2.464 4.848 2.496C4.464 2.528 4.064 2.552 3.648 2.568C3.656 2.864 3.664 3.164 3.672 3.468C3.68 3.764 3.688 4.064 3.696 4.368C4.08 4.352 4.452 4.328 4.812 4.296C5.18 4.256 5.512 4.216 5.808 4.176C5.912 4.16 6.004 4.184 6.084 4.248C6.172 4.312 6.224 4.396 6.24 4.5C6.256 4.604 6.232 4.7 6.168 4.788C6.104 4.868 6.02 4.916 5.916 4.932C5.596 4.964 5.248 4.996 4.872 5.028C4.496 5.06 4.108 5.084 3.708 5.1C3.724 5.516 3.736 5.92 3.744 6.312C3.752 6.696 3.76 7.052 3.768 7.38C4.264 7.524 4.74 7.7 5.196 7.908C5.652 8.116 6.04 8.332 6.36 8.556C6.448 8.612 6.504 8.692 6.528 8.796C6.552 8.9 6.532 8.996 6.468 9.084C6.412 9.172 6.328 9.224 6.216 9.24C6.112 9.256 6.016 9.236 5.928 9.18C5.656 8.996 5.336 8.812 4.968 8.628C4.6 8.436 4.204 8.272 3.78 8.136V8.376C3.78 9.504 3.136 10.068 1.848 10.068ZM1.848 9.36C2.288 9.36 2.592 9.276 2.76 9.108C2.928 8.94 3.012 8.696 3.012 8.376V7.932C2.812 7.892 2.616 7.86 2.424 7.836C2.232 7.812 2.04 7.8 1.848 7.8C1.496 7.8 1.228 7.872 1.044 8.016C0.86 8.152 0.768 8.344 0.768 8.592C0.768 8.848 0.864 9.04 1.056 9.168C1.248 9.296 1.512 9.36 1.848 9.36Z" fill="black"/>
</svg>
