<svg width="10" height="9" viewBox="0 0 10 9" fill="none" xmlns="http://www.w3.org/2000/svg">
<path d="M5.328 8.7408C5.224 8.7488 5.132 8.7208 5.052 8.6568C4.98 8.5848 4.936 8.4968 4.92 8.3928C4.912 8.2888 4.944 8.1968 5.016 8.1168C5.088 8.0368 5.176 7.9928 5.28 7.9848C6.24 7.9048 6.98 7.6208 7.5 7.1328C8.028 6.6448 8.288 5.9848 8.28 5.1528C8.28 4.5128 8.076 3.9768 7.668 3.5448C7.26 3.1128 6.7 2.8288 5.988 2.6928C5.628 3.7808 5.16 4.7168 4.584 5.5008C4.704 5.6128 4.824 5.7208 4.944 5.8248C5.064 5.9208 5.18 6.0088 5.292 6.0888C5.38 6.1448 5.432 6.2248 5.448 6.3288C5.472 6.4328 5.452 6.5288 5.388 6.6168C5.324 6.7048 5.24 6.7568 5.136 6.7728C5.032 6.7888 4.936 6.7688 4.848 6.7128C4.728 6.6248 4.608 6.5288 4.488 6.4248C4.368 6.3128 4.244 6.1968 4.116 6.0768C3.868 6.3488 3.604 6.5968 3.324 6.8208C3.052 7.0368 2.76 7.2288 2.448 7.3968C2.032 7.6288 1.636 7.7408 1.26 7.7328C0.884 7.7248 0.58 7.5928 0.348 7.3368C0.116 7.0808 0 6.7048 0 6.2088C0 5.5448 0.156 4.9368 0.468 4.3848C0.78 3.8248 1.196 3.3488 1.716 2.9568C1.532 2.6448 1.364 2.3368 1.212 2.0328C1.068 1.7208 0.94 1.4208 0.828 1.1328C0.796 1.0288 0.8 0.9328 0.84 0.8448C0.888 0.7488 0.964 0.6848 1.068 0.6528C1.164 0.6128 1.26 0.6168 1.356 0.6648C1.452 0.7128 1.516 0.7848 1.548 0.8808C1.636 1.1448 1.744 1.4208 1.872 1.7088C2.008 1.9888 2.16 2.2728 2.328 2.5608C2.72 2.3448 3.144 2.1768 3.6 2.0568C4.056 1.9368 4.528 1.8768 5.016 1.8768C5.088 1.8768 5.16 1.8808 5.232 1.8888C5.304 1.8888 5.372 1.8928 5.436 1.9008C5.5 1.6528 5.56 1.3968 5.616 1.1328C5.68 0.8688 5.736 0.5968 5.784 0.3168C5.8 0.2128 5.848 0.1328 5.928 0.0767999C6.016 0.0127998 6.112 -0.0112001 6.216 0.00480014C6.32 0.0207999 6.4 0.0728 6.456 0.1608C6.52 0.2488 6.544 0.3448 6.528 0.4488C6.48 0.7208 6.428 0.9848 6.372 1.2408C6.316 1.4968 6.256 1.7488 6.192 1.9968C7.072 2.1728 7.768 2.5408 8.28 3.1008C8.792 3.6608 9.048 4.3448 9.048 5.1528C9.048 6.1928 8.72 7.0288 8.064 7.6608C7.408 8.2928 6.496 8.6528 5.328 8.7408ZM2.064 6.7728C2.344 6.6128 2.612 6.4328 2.868 6.2328C3.132 6.0248 3.376 5.7928 3.6 5.5368C3.336 5.2408 3.076 4.9288 2.82 4.6008C2.564 4.2648 2.32 3.9208 2.088 3.5688C1.672 3.9048 1.34 4.3008 1.092 4.7568C0.852 5.2128 0.732 5.6968 0.732 6.2088C0.732 6.5768 0.856 6.8168 1.104 6.9288C1.36 7.0328 1.68 6.9808 2.064 6.7728ZM4.056 4.9608C4.288 4.6328 4.5 4.2728 4.692 3.8808C4.892 3.4808 5.068 3.0528 5.22 2.5968H5.016C4.576 2.5968 4.16 2.6488 3.768 2.7528C3.376 2.8488 3.016 2.9848 2.688 3.1608C2.896 3.4808 3.116 3.7928 3.348 4.0968C3.58 4.4008 3.816 4.6888 4.056 4.9608Z" fill="black"/>
</svg>
