<svg width="10" height="10" viewBox="0 0 10 10" fill="none" xmlns="http://www.w3.org/2000/svg">
<path d="M4.98 9.01142C4.9 8.93142 4.86 8.83942 4.86 8.73542C4.86 8.63142 4.896 8.54342 4.968 8.47142C5.344 8.08742 5.688 7.62342 6 7.07942C6.32 6.53542 6.588 5.97142 6.804 5.38742C6.348 5.25942 5.9 5.15542 5.46 5.07542C5.028 4.99542 4.62 4.93942 4.236 4.90742C3.892 5.62742 3.508 6.19542 3.084 6.61142C2.668 7.01942 2.252 7.27942 1.836 7.39142C1.5 7.47942 1.192 7.49542 0.912 7.43942C0.64 7.37542 0.42 7.24342 0.252 7.04342C0.084 6.84342 0 6.57942 0 6.25142C0 5.87542 0.12 5.53142 0.36 5.21942C0.6 4.89942 0.976 4.64342 1.488 4.45142C2.008 4.25942 2.68 4.16342 3.504 4.16342C3.544 4.16342 3.584 4.16342 3.624 4.16342C3.664 4.16342 3.704 4.16742 3.744 4.17542C3.856 3.90342 3.96 3.61542 4.056 3.31142C4.152 2.99942 4.24 2.66342 4.32 2.30342C4.48 1.63942 4.456 1.19942 4.248 0.983419C4.048 0.759419 3.64 0.679419 3.024 0.743419C2.856 0.767419 2.656 0.795419 2.424 0.827419C2.192 0.851419 2 0.871419 1.848 0.88742C1.744 0.895419 1.652 0.867419 1.572 0.803419C1.492 0.731419 1.448 0.643419 1.44 0.539419C1.432 0.435419 1.46 0.343419 1.524 0.263419C1.596 0.183419 1.684 0.139419 1.788 0.131419C1.932 0.115419 2.124 0.0954191 2.364 0.0714194C2.604 0.0474192 2.796 0.0314192 2.94 0.0234193C3.924 -0.0645806 4.576 0.0954195 4.896 0.50342C5.216 0.903419 5.272 1.56342 5.064 2.48342C4.92 3.11542 4.744 3.69542 4.536 4.22342C4.928 4.26342 5.336 4.32342 5.76 4.40342C6.184 4.48342 6.608 4.57942 7.032 4.69142C7.136 4.33942 7.216 3.99542 7.272 3.65942C7.328 3.31542 7.356 2.99542 7.356 2.69942C7.356 2.58742 7.392 2.49542 7.464 2.42342C7.544 2.35142 7.636 2.31542 7.74 2.31542C7.844 2.31542 7.932 2.35142 8.004 2.42342C8.084 2.49542 8.12 2.58342 8.112 2.68742C8.112 3.03142 8.08 3.39142 8.016 3.76742C7.952 4.13542 7.864 4.51142 7.752 4.89542C8.04 4.98342 8.328 5.07942 8.616 5.18342C8.904 5.27942 9.184 5.38342 9.456 5.49542C9.552 5.52742 9.62 5.59542 9.66 5.69942C9.7 5.79542 9.7 5.89142 9.66 5.98742C9.62 6.08342 9.552 6.15142 9.456 6.19142C9.36 6.23142 9.26 6.23142 9.156 6.19142C8.884 6.07942 8.612 5.97542 8.34 5.87942C8.068 5.77542 7.792 5.67942 7.512 5.59142C7.272 6.24742 6.976 6.87542 6.624 7.47542C6.28 8.07542 5.908 8.58342 5.508 8.99942C5.436 9.07142 5.348 9.10742 5.244 9.10742C5.14 9.11542 5.052 9.08342 4.98 9.01142ZM1.644 6.69542C1.932 6.61542 2.232 6.42742 2.544 6.13142C2.856 5.82742 3.148 5.40742 3.42 4.87142C2.772 4.87942 2.252 4.95142 1.86 5.08742C1.468 5.21542 1.184 5.38342 1.008 5.59142C0.84 5.79142 0.756 6.01142 0.756 6.25142C0.756 6.45142 0.84 6.59142 1.008 6.67142C1.176 6.75142 1.388 6.75942 1.644 6.69542Z" fill="black"/>
</svg>
