<svg width="8" height="11" viewBox="0 0 8 11" fill="none" xmlns="http://www.w3.org/2000/svg">
<path d="M4.3632 10.0212C3.4912 10.0212 2.8192 9.8012 2.3472 9.3612C1.8752 8.9212 1.6392 8.3012 1.6392 7.5012C1.6392 7.3732 1.6512 7.2012 1.6752 6.9852C1.7072 6.7612 1.7472 6.5092 1.7952 6.2292C1.5152 6.1812 1.2432 6.1292 0.9792 6.0732C0.7152 6.0172 0.4792 5.9612 0.2712 5.9052C0.1672 5.8732 0.0912001 5.8132 0.0432001 5.7252C-0.00480001 5.6292 -0.0128 5.5292 0.0192 5.4252C0.0512 5.3212 0.1112 5.2452 0.1992 5.1972C0.2952 5.1492 0.3952 5.1412 0.4992 5.1732C0.6832 5.2292 0.8992 5.2852 1.1472 5.3412C1.3952 5.3892 1.6552 5.4372 1.9272 5.4852C1.9912 5.1572 2.0592 4.8132 2.1312 4.4532C2.2032 4.0852 2.2712 3.7212 2.3352 3.3612C2.0792 3.3132 1.8312 3.2652 1.5912 3.2172C1.3512 3.1612 1.1392 3.1052 0.9552 3.0492C0.8512 3.0252 0.7752 2.9692 0.7272 2.8812C0.6792 2.7852 0.6672 2.6852 0.6912 2.5812C0.7232 2.4772 0.7832 2.4012 0.8712 2.3532C0.9672 2.2972 1.0632 2.2852 1.1592 2.3172C1.3272 2.3652 1.5232 2.4172 1.7472 2.4732C1.9792 2.5212 2.2192 2.5692 2.4672 2.6172C2.5472 2.1692 2.6152 1.7492 2.6712 1.3572C2.7352 0.9652 2.7752 0.6332 2.7912 0.3612C2.7912 0.2492 2.8312 0.1612 2.9112 0.0972002C2.9912 0.0252001 3.0832 -0.00679993 3.1872 0.00119997C3.2912 0.00919987 3.3792 0.0531998 3.4512 0.1332C3.5232 0.2052 3.5552 0.2932 3.5472 0.3972C3.5312 0.6692 3.4872 1.0132 3.4152 1.4292C3.3512 1.8372 3.2752 2.2772 3.1872 2.7492C3.3872 2.7812 3.5712 2.8092 3.7392 2.8332C3.9152 2.8572 4.0672 2.8772 4.1952 2.8932C4.2992 2.9012 4.3832 2.9492 4.4472 3.0372C4.5112 3.1172 4.5352 3.2132 4.5192 3.3252C4.5112 3.4292 4.4632 3.5132 4.3752 3.5772C4.2952 3.6332 4.2032 3.6572 4.0992 3.6492C3.9472 3.6332 3.7832 3.6132 3.6072 3.5892C3.4312 3.5572 3.2472 3.5252 3.0552 3.4932C2.9912 3.8532 2.9232 4.2132 2.8512 4.5732C2.7872 4.9252 2.7232 5.2652 2.6592 5.5932C2.8832 5.6252 3.1032 5.6492 3.3192 5.6652C3.5352 5.6812 3.7312 5.6972 3.9072 5.7132C4.0192 5.7132 4.1072 5.7532 4.1712 5.8332C4.2432 5.9052 4.2752 5.9972 4.2672 6.1092C4.2592 6.2132 4.2192 6.3012 4.1472 6.3732C4.0752 6.4452 3.9832 6.4772 3.8712 6.4692C3.6632 6.4532 3.4432 6.4332 3.2112 6.4092C2.9872 6.3852 2.7592 6.3572 2.5272 6.3252C2.4792 6.5892 2.4432 6.8252 2.4192 7.0332C2.3952 7.2332 2.3832 7.3892 2.3832 7.5012C2.3832 8.0612 2.5432 8.4972 2.8632 8.8092C3.1832 9.1132 3.6832 9.2652 4.3632 9.2652C4.9392 9.2652 5.4072 9.1252 5.7672 8.8452C6.1352 8.5572 6.3552 8.1932 6.4272 7.7532C6.4832 7.4012 6.4272 7.0452 6.2592 6.6852C6.0912 6.3172 5.8232 5.9732 5.4552 5.6532C5.3752 5.5892 5.3312 5.5052 5.3232 5.4012C5.3232 5.2892 5.3552 5.1932 5.4192 5.1132C5.4912 5.0332 5.5792 4.9932 5.6832 4.9932C5.7872 4.9852 5.8792 5.0132 5.9592 5.0772C6.4472 5.4932 6.7872 5.9492 6.9792 6.4452C7.1792 6.9412 7.2352 7.4372 7.1472 7.9332C7.0752 8.3332 6.9112 8.6932 6.6552 9.0132C6.4072 9.3252 6.0872 9.5692 5.6952 9.7452C5.3112 9.9292 4.8672 10.0212 4.3632 10.0212Z" fill="black"/>
</svg>
