<svg width="10" height="11" viewBox="0 0 10 11" fill="none" xmlns="http://www.w3.org/2000/svg">
<path d="M4.716 10.104C2.756 10.104 1.776 9.424 1.776 8.064C1.776 7.808 1.82 7.56 1.908 7.32C1.996 7.08 2.108 6.844 2.244 6.612C2.172 6.636 2.088 6.656 1.992 6.672C1.904 6.688 1.816 6.696 1.728 6.696C1.216 6.696 0.816 6.556 0.528 6.276C0.24 5.996 0.096 5.648 0.096 5.232C0.096 4.76 0.252 4.396 0.564 4.14C0.884 3.876 1.264 3.744 1.704 3.744C2.096 3.744 2.424 3.852 2.688 4.068V2.412C2.28 2.444 1.876 2.472 1.476 2.496C1.076 2.512 0.708 2.52 0.372 2.52C0.268 2.528 0.18 2.496 0.108 2.424C0.036 2.344 0 2.252 0 2.148C0 2.036 0.036 1.944 0.108 1.872C0.188 1.8 0.28 1.764 0.384 1.764C0.712 1.772 1.076 1.768 1.476 1.752C1.884 1.736 2.288 1.712 2.688 1.68V0.384C2.688 0.272 2.724 0.18 2.796 0.108C2.876 0.036 2.968 0 3.072 0C3.176 0 3.264 0.036 3.336 0.108C3.408 0.18 3.444 0.272 3.444 0.384V1.62C3.668 1.596 3.88 1.568 4.08 1.536C4.28 1.504 4.464 1.472 4.632 1.44C4.744 1.424 4.84 1.448 4.92 1.512C5.008 1.568 5.06 1.648 5.076 1.752C5.092 1.856 5.072 1.952 5.016 2.04C4.96 2.128 4.876 2.18 4.764 2.196C4.572 2.22 4.364 2.248 4.14 2.28C3.916 2.304 3.684 2.328 3.444 2.352V5.196C3.444 5.476 3.396 5.732 3.3 5.964C3.212 6.196 3.108 6.424 2.988 6.648C2.868 6.864 2.76 7.088 2.664 7.32C2.576 7.544 2.532 7.792 2.532 8.064C2.532 8.528 2.72 8.86 3.096 9.06C3.472 9.252 4.012 9.348 4.716 9.348C5.54 9.348 6.164 9.228 6.588 8.988C7.012 8.74 7.284 8.388 7.404 7.932C7.524 7.476 7.54 6.928 7.452 6.288C7.444 6.176 7.468 6.08 7.524 6C7.588 5.912 7.672 5.864 7.776 5.856C7.888 5.84 7.984 5.864 8.064 5.928C8.152 5.992 8.2 6.076 8.208 6.18C8.4 7.46 8.204 8.436 7.62 9.108C7.036 9.772 6.068 10.104 4.716 10.104ZM9.132 4.584C8.828 4.336 8.468 4.088 8.052 3.84C7.644 3.584 7.248 3.368 6.864 3.192C6.776 3.152 6.712 3.084 6.672 2.988C6.64 2.884 6.644 2.784 6.684 2.688C6.732 2.592 6.804 2.528 6.9 2.496C7.004 2.456 7.104 2.46 7.2 2.508C7.472 2.636 7.752 2.788 8.04 2.964C8.336 3.132 8.624 3.308 8.904 3.492C9.184 3.676 9.428 3.852 9.636 4.02C9.724 4.076 9.768 4.16 9.768 4.272C9.776 4.376 9.744 4.468 9.672 4.548C9.608 4.628 9.524 4.672 9.42 4.68C9.316 4.68 9.22 4.648 9.132 4.584ZM1.752 6.036C2.032 6.036 2.256 5.972 2.424 5.844C2.6 5.708 2.688 5.504 2.688 5.232C2.688 4.984 2.612 4.788 2.46 4.644C2.308 4.492 2.072 4.416 1.752 4.416C1.44 4.416 1.208 4.5 1.056 4.668C0.904 4.828 0.828 5.016 0.828 5.232C0.828 5.448 0.9 5.636 1.044 5.796C1.196 5.956 1.432 6.036 1.752 6.036Z" fill="black"/>
</svg>
