<svg width="10" height="11" viewBox="0 0 18 18" fill="none" xmlns="http://www.w3.org/2000/svg">
<g filter="url(#filter0_d_13_93)">
<path d="M4.22533 9.07745C4.12933 9.03745 4.06133 8.96945 4.02133 8.87346C3.98933 8.76945 3.99333 8.66945 4.03333 8.57345C4.16933 8.28545 4.34133 7.91745 4.54933 7.46945C4.75733 7.02145 4.98933 6.52545 5.24533 5.98145C5.50933 5.43746 5.77733 4.88145 6.04933 4.31345C6.32933 3.74545 6.59733 3.19745 6.85333 2.66945C7.11733 2.13345 7.35733 1.65345 7.57333 1.22945C7.78933 0.797455 7.96533 0.453455 8.10133 0.197455C8.14933 0.101455 8.22533 0.0414544 8.32933 0.0174542C8.43333 -0.0145454 8.52933 -0.00254528 8.61733 0.0534545C8.70533 0.109455 8.76133 0.189455 8.78533 0.293454C8.81733 0.389454 8.80933 0.481454 8.76133 0.569454C8.62533 0.809455 8.44133 1.15745 8.20933 1.61345C7.97733 2.06145 7.72133 2.56545 7.44133 3.12545C7.16133 3.68545 6.87733 4.26146 6.58933 4.85346C6.83733 4.66146 7.09333 4.51345 7.35733 4.40945C7.62133 4.29745 7.87733 4.24146 8.12533 4.24146C8.79733 4.24146 9.25333 4.44546 9.49333 4.85346C9.73333 5.25346 9.74933 5.82545 9.54133 6.56945C9.38133 7.14545 9.37733 7.55745 9.52933 7.80545C9.68133 8.04545 9.96533 8.16545 10.3813 8.16545C10.7813 8.16545 11.1373 8.02145 11.4493 7.73345C11.7613 7.43745 12.0573 6.91345 12.3373 6.16145C12.3773 6.06545 12.4453 5.99746 12.5413 5.95746C12.6373 5.90946 12.7333 5.90545 12.8293 5.94545C12.9253 5.97745 12.9933 6.04146 13.0333 6.13745C13.0813 6.23345 13.0853 6.33345 13.0453 6.43745C12.7253 7.28545 12.3533 7.91346 11.9293 8.32146C11.5053 8.72145 10.9893 8.92146 10.3813 8.92146C9.94133 8.92146 9.57333 8.82946 9.27733 8.64546C8.98933 8.45345 8.79733 8.16945 8.70133 7.79345C8.61333 7.41745 8.64933 6.94145 8.80933 6.36546C8.94533 5.88546 8.96133 5.52945 8.85733 5.29745C8.75333 5.06545 8.50133 4.94945 8.10133 4.94945C7.64533 4.94945 7.19733 5.10545 6.75733 5.41745C6.31733 5.72945 5.93333 6.22945 5.60533 6.91745C5.43733 7.28545 5.27333 7.64545 5.11333 7.99746C4.96133 8.34945 4.83333 8.64546 4.72933 8.88546C4.68933 8.98145 4.61733 9.04945 4.51333 9.08945C4.41733 9.12145 4.32133 9.11745 4.22533 9.07745Z" fill="black"/>
</g>
<defs>
<filter id="filter0_d_13_93" x="0" y="0" width="17.0726" height="17.1108" filterUnits="userSpaceOnUse" color-interpolation-filters="sRGB">
<feFlood flood-opacity="0" result="BackgroundImageFix"/>
<feColorMatrix in="SourceAlpha" type="matrix" values="0 0 0 0 0 0 0 0 0 0 0 0 0 0 0 0 0 0 127 0" result="hardAlpha"/>
<feOffset dy="4"/>
<feGaussianBlur stdDeviation="2"/>
<feComposite in2="hardAlpha" operator="out"/>
<feColorMatrix type="matrix" values="0 0 0 0 0 0 0 0 0 0 0 0 0 0 0 0 0 0 0.25 0"/>
<feBlend mode="normal" in2="BackgroundImageFix" result="effect1_dropShadow_13_93"/>
<feBlend mode="normal" in="SourceGraphic" in2="effect1_dropShadow_13_93" result="shape"/>
</filter>
</defs>
</svg>
