<svg width="9" height="11" viewBox="0 0 9 11" fill="none" xmlns="http://www.w3.org/2000/svg">
<path d="M4.128 10.188C3.616 10.188 3.188 10.064 2.844 9.816C2.5 9.568 2.328 9.2 2.328 8.712C2.328 8.256 2.488 7.896 2.808 7.632C3.136 7.36 3.576 7.224 4.128 7.224C4.488 7.224 4.848 7.26 5.208 7.332V4.572C5.208 4.46 5.244 4.368 5.316 4.296C5.396 4.224 5.488 4.188 5.592 4.188C5.696 4.188 5.784 4.224 5.856 4.296C5.928 4.368 5.964 4.46 5.964 4.572V7.524C6.452 7.676 6.904 7.856 7.32 8.064C7.744 8.272 8.096 8.48 8.376 8.688C8.464 8.752 8.516 8.836 8.532 8.94C8.556 9.044 8.536 9.14 8.472 9.228C8.416 9.308 8.336 9.356 8.232 9.372C8.128 9.388 8.032 9.368 7.944 9.312C7.72 9.144 7.432 8.968 7.08 8.784C6.736 8.6 6.364 8.436 5.964 8.292V8.484C5.964 9.076 5.804 9.508 5.484 9.78C5.172 10.052 4.72 10.188 4.128 10.188ZM0.648 6.864C0.568 6.936 0.476 6.972 0.372 6.972C0.268 6.972 0.18 6.932 0.108 6.852C0.036 6.78 0 6.692 0 6.588C0 6.484 0.036 6.396 0.108 6.324C0.66 5.804 1.136 5.224 1.536 4.584C1.936 3.944 2.244 3.284 2.46 2.604C2.148 2.652 1.84 2.692 1.536 2.724C1.232 2.748 0.952 2.768 0.696 2.784C0.576 2.792 0.48 2.756 0.408 2.676C0.336 2.596 0.3 2.496 0.3 2.376C0.3 2.272 0.34 2.188 0.42 2.124C0.5 2.06 0.596 2.028 0.708 2.028C0.98 2.02 1.284 2 1.62 1.968C1.964 1.936 2.312 1.892 2.664 1.836C2.72 1.588 2.76 1.344 2.784 1.104C2.808 0.856 2.82 0.612 2.82 0.372C2.82 0.268 2.856 0.18 2.928 0.108C3 0.036 3.088 0 3.192 0C3.304 0 3.396 0.036 3.468 0.108C3.548 0.18 3.584 0.268 3.576 0.372C3.56 0.82 3.512 1.26 3.432 1.692C3.584 1.66 3.728 1.628 3.864 1.596C4.008 1.564 4.144 1.532 4.272 1.5C4.384 1.468 4.484 1.48 4.572 1.536C4.66 1.584 4.716 1.664 4.74 1.776C4.764 1.88 4.748 1.976 4.692 2.064C4.636 2.152 4.556 2.208 4.452 2.232C4.276 2.28 4.084 2.324 3.876 2.364C3.676 2.404 3.468 2.444 3.252 2.484C3.028 3.308 2.692 4.096 2.244 4.848C1.796 5.6 1.264 6.272 0.648 6.864ZM4.128 9.48C4.52 9.48 4.796 9.4 4.956 9.24C5.124 9.08 5.208 8.828 5.208 8.484V8.076C5.024 8.036 4.84 8.004 4.656 7.98C4.48 7.948 4.304 7.932 4.128 7.932C3.76 7.932 3.492 8.008 3.324 8.16C3.156 8.304 3.072 8.488 3.072 8.712C3.072 8.96 3.164 9.152 3.348 9.288C3.532 9.416 3.792 9.48 4.128 9.48ZM8.1 3.576C7.948 3.472 7.744 3.36 7.488 3.24C7.24 3.112 6.984 2.992 6.72 2.88C6.456 2.768 6.228 2.688 6.036 2.64C5.94 2.608 5.864 2.548 5.808 2.46C5.752 2.372 5.736 2.276 5.76 2.172C5.784 2.068 5.84 1.992 5.928 1.944C6.024 1.888 6.124 1.872 6.228 1.896C6.452 1.952 6.708 2.044 6.996 2.172C7.292 2.292 7.58 2.424 7.86 2.568C8.14 2.704 8.364 2.832 8.532 2.952C8.62 3.008 8.672 3.088 8.688 3.192C8.712 3.296 8.692 3.392 8.628 3.48C8.572 3.568 8.492 3.62 8.388 3.636C8.284 3.652 8.188 3.632 8.1 3.576Z" fill="black"/>
</svg>
