<svg width="11" height="10" viewBox="0 0 11 10" fill="none" xmlns="http://www.w3.org/2000/svg">
<path d="M2.748 9.996C2.644 9.996 2.556 9.96 2.484 9.888C2.412 9.816 2.376 9.728 2.376 9.624V6.168C2.12 6.52 1.86 6.88 1.596 7.248C1.34 7.616 1.084 7.984 0.828 8.352C0.772 8.432 0.688 8.48 0.576 8.496C0.472 8.504 0.38 8.48 0.3 8.424C0.22 8.36 0.168 8.276 0.144 8.172C0.128 8.068 0.152 7.976 0.216 7.896C0.568 7.416 0.924 6.928 1.284 6.432C1.644 5.936 2.008 5.46 2.376 5.004V3.108C2.32 3.116 2.256 3.128 2.184 3.144C2.12 3.16 2.044 3.18 1.956 3.204C1.852 3.236 1.716 3.28 1.548 3.336C1.38 3.392 1.204 3.452 1.02 3.516C0.836 3.58 0.672 3.64 0.528 3.696C0.432 3.736 0.332 3.736 0.228 3.696C0.132 3.656 0.064 3.588 0.024 3.492C-0.008 3.396 -0.008 3.3 0.024 3.204C0.064 3.1 0.132 3.032 0.228 3C0.444 2.928 0.704 2.848 1.008 2.76C1.312 2.664 1.56 2.588 1.752 2.532C1.992 2.468 2.2 2.432 2.376 2.424V0.372C2.376 0.268 2.412 0.18 2.484 0.108C2.556 0.036 2.644 0 2.748 0C2.86 0 2.952 0.036 3.024 0.108C3.096 0.18 3.132 0.268 3.132 0.372V2.616C3.156 2.64 3.18 2.668 3.204 2.7C3.236 2.724 3.264 2.752 3.288 2.784C3.472 3.032 3.488 3.408 3.336 3.912C3.872 3.352 4.42 2.896 4.98 2.544C5.548 2.192 6.14 2.016 6.756 2.016C7.268 2.016 7.736 2.136 8.16 2.376C8.592 2.616 8.936 2.992 9.192 3.504C9.456 4.016 9.588 4.68 9.588 5.496C9.588 6.24 9.464 6.904 9.216 7.488C9.568 7.8 9.9 8.168 10.212 8.592C10.276 8.672 10.3 8.764 10.284 8.868C10.276 8.972 10.228 9.056 10.14 9.12C10.06 9.184 9.964 9.208 9.852 9.192C9.748 9.176 9.664 9.128 9.6 9.048C9.472 8.88 9.348 8.724 9.228 8.58C9.108 8.428 8.98 8.288 8.844 8.16C8.604 8.504 8.312 8.776 7.968 8.976C7.624 9.168 7.244 9.264 6.828 9.264C6.324 9.264 5.916 9.136 5.604 8.88C5.3 8.616 5.148 8.264 5.148 7.824C5.148 7.368 5.304 7.012 5.616 6.756C5.936 6.5 6.34 6.372 6.828 6.372C7.116 6.372 7.408 6.428 7.704 6.54C8.008 6.644 8.308 6.8 8.604 7.008C8.748 6.576 8.82 6.072 8.82 5.496C8.82 4.808 8.72 4.264 8.52 3.864C8.328 3.464 8.076 3.18 7.764 3.012C7.452 2.836 7.12 2.748 6.768 2.748C6.336 2.748 5.912 2.856 5.496 3.072C5.088 3.28 4.688 3.568 4.296 3.936C3.904 4.304 3.516 4.724 3.132 5.196V9.624C3.132 9.728 3.096 9.816 3.024 9.888C2.952 9.96 2.86 9.996 2.748 9.996ZM6.828 8.556C7.132 8.556 7.408 8.476 7.656 8.316C7.912 8.156 8.128 7.936 8.304 7.656C8.056 7.472 7.808 7.328 7.56 7.224C7.32 7.12 7.076 7.068 6.828 7.068C6.524 7.068 6.288 7.136 6.12 7.272C5.96 7.408 5.88 7.592 5.88 7.824C5.88 8.312 6.196 8.556 6.828 8.556Z" fill="black"/>
</svg>
