<svg width="9" height="9" viewBox="0 0 9 9" fill="none" xmlns="http://www.w3.org/2000/svg">
<path d="M0.68 8.6988C0.576 8.7148 0.48 8.6948 0.392 8.6388C0.304 8.5748 0.252 8.4908 0.236 8.3868C0.14 7.8588 0.072 7.2508 0.0320001 6.5628C0 5.8748 -0.00800002 5.1588 0.00800002 4.4148C0.0320001 3.6628 0.0800001 2.9308 0.152 2.2188C0.224 1.5068 0.324 0.8668 0.452 0.2988C0.468 0.1948 0.52 0.1148 0.608 0.0587999C0.696 0.00280014 0.792 -0.0131999 0.896 0.0107998C1.008 0.0348 1.088 0.0908 1.136 0.1788C1.192 0.2668 1.212 0.3628 1.196 0.4668C1.068 1.0508 0.964 1.6828 0.884 2.3628C0.812 3.0348 0.768 3.7228 0.752 4.4268C0.736 5.1228 0.744 5.7988 0.776 6.4548C0.816 7.1108 0.884 7.7108 0.98 8.2548C1.004 8.3588 0.984 8.4548 0.92 8.5428C0.864 8.6308 0.784 8.6828 0.68 8.6988ZM5.66 8.0388C4.684 8.0388 3.956 7.8628 3.476 7.5108C3.004 7.1508 2.736 6.6548 2.672 6.0228C2.664 5.9108 2.692 5.8148 2.756 5.7348C2.828 5.6548 2.916 5.6108 3.02 5.6028C3.124 5.5868 3.216 5.6148 3.296 5.6868C3.376 5.7508 3.42 5.8348 3.428 5.9388C3.476 6.3788 3.672 6.7188 4.016 6.9588C4.36 7.1908 4.908 7.3068 5.66 7.3068C5.972 7.3068 6.324 7.2868 6.716 7.2468C7.116 7.1988 7.528 7.1268 7.952 7.0308C8.056 7.0068 8.152 7.0228 8.24 7.0788C8.328 7.1348 8.384 7.2188 8.408 7.3308C8.424 7.4348 8.404 7.5308 8.348 7.6188C8.292 7.6988 8.212 7.7508 8.108 7.7748C7.668 7.8788 7.24 7.9508 6.824 7.9908C6.416 8.0228 6.028 8.0388 5.66 8.0388ZM3.332 2.0748C3.228 2.0908 3.132 2.0708 3.044 2.0148C2.956 1.9588 2.9 1.8788 2.876 1.7748C2.86 1.6708 2.88 1.5748 2.936 1.4868C2.992 1.3988 3.072 1.3468 3.176 1.3308C3.608 1.2428 4.096 1.1828 4.64 1.1508C5.184 1.1188 5.728 1.1148 6.272 1.1388C6.816 1.1628 7.3 1.2148 7.724 1.2948C7.828 1.3108 7.908 1.3628 7.964 1.4508C8.028 1.5308 8.052 1.6228 8.036 1.7268C8.02 1.8308 7.968 1.9148 7.88 1.9788C7.792 2.0348 7.696 2.0548 7.592 2.0388C6.168 1.7828 4.748 1.7948 3.332 2.0748Z" fill="black"/>
</svg>
