<svg width="10" height="9" viewBox="0 0 10 9" fill="none" xmlns="http://www.w3.org/2000/svg">
<path d="M5.64 8.1C5.536 8.124 5.436 8.112 5.34 8.064C5.252 8.008 5.196 7.928 5.172 7.824C5.14 7.712 5.152 7.612 5.208 7.524C5.264 7.436 5.344 7.376 5.448 7.344C6.376 7.112 7.104 6.708 7.632 6.132C8.16 5.556 8.424 4.82 8.424 3.924C8.424 3.316 8.28 2.776 7.992 2.304C7.712 1.832 7.316 1.456 6.804 1.176C6.292 0.896 5.692 0.744 5.004 0.72C4.924 1.696 4.784 2.588 4.584 3.396C4.392 4.196 4.156 4.888 3.876 5.472C3.604 6.048 3.304 6.496 2.976 6.816C2.648 7.128 2.312 7.284 1.968 7.284C1.584 7.284 1.244 7.164 0.948 6.924C0.652 6.684 0.42 6.352 0.252 5.928C0.084 5.504 0 5.024 0 4.488C0 3.84 0.124 3.244 0.372 2.7C0.62 2.148 0.964 1.672 1.404 1.272C1.844 0.864 2.356 0.552 2.94 0.336C3.532 0.112 4.168 0 4.848 0C5.68 0 6.42 0.164 7.068 0.492C7.724 0.812 8.24 1.268 8.616 1.86C9 2.444 9.192 3.132 9.192 3.924C9.192 4.996 8.872 5.892 8.232 6.612C7.592 7.324 6.728 7.82 5.64 8.1ZM1.968 6.504C2.192 6.504 2.424 6.356 2.664 6.06C2.904 5.764 3.132 5.352 3.348 4.824C3.572 4.296 3.764 3.684 3.924 2.988C4.084 2.292 4.196 1.548 4.26 0.756C3.508 0.836 2.868 1.064 2.34 1.44C1.82 1.808 1.424 2.26 1.152 2.796C0.888 3.332 0.756 3.896 0.756 4.488C0.756 5.104 0.872 5.596 1.104 5.964C1.336 6.324 1.624 6.504 1.968 6.504Z" fill="black"/>
</svg>
