<svg width="11" height="9" viewBox="0 0 11 9" fill="none" xmlns="http://www.w3.org/2000/svg">
<path d="M6.78 8.9772C6.3 8.9772 5.924 8.8612 5.652 8.6292C5.388 8.3972 5.256 8.0852 5.256 7.6932C5.256 7.2772 5.392 6.9532 5.664 6.7212C5.944 6.4812 6.324 6.3612 6.804 6.3612C7.34 6.3612 7.88 6.5212 8.424 6.8412C8.464 6.6812 8.496 6.5092 8.52 6.3252C8.544 6.1412 8.556 5.9452 8.556 5.7372C8.556 4.9212 8.3 4.2852 7.788 3.8292C7.284 3.3652 6.6 3.1332 5.736 3.1332C5.664 3.1332 5.592 3.1372 5.52 3.1452C5.456 3.1452 5.388 3.1492 5.316 3.1572C5.228 3.7892 5.1 4.3772 4.932 4.9212C4.764 5.4572 4.564 5.9412 4.332 6.3732C4.372 6.4052 4.412 6.4412 4.452 6.4812C4.492 6.5132 4.528 6.5452 4.56 6.5772C4.632 6.6412 4.668 6.7252 4.668 6.8292C4.676 6.9332 4.648 7.0252 4.584 7.1052C4.52 7.1852 4.436 7.2292 4.332 7.2372C4.228 7.2372 4.136 7.2012 4.056 7.1292L3.948 7.0212C3.492 7.6852 2.988 8.1692 2.436 8.4732C2.004 8.7052 1.604 8.8172 1.236 8.8092C0.868 8.7932 0.568 8.6572 0.336 8.4012C0.112 8.1452 0 7.7612 0 7.2492C0 6.6572 0.136 6.0732 0.408 5.4972C0.68 4.9212 1.068 4.4052 1.572 3.9492C1.388 3.6532 1.216 3.3732 1.056 3.1092C0.904 2.8372 0.772 2.5892 0.66 2.3652C0.612 2.2772 0.608 2.1852 0.648 2.0892C0.688 1.9852 0.752 1.9132 0.84 1.8732C0.936 1.8332 1.032 1.8332 1.128 1.8732C1.224 1.9052 1.292 1.9692 1.332 2.0652C1.436 2.2732 1.556 2.5012 1.692 2.7492C1.828 2.9972 1.976 3.2492 2.136 3.5052C2.48 3.2572 2.86 3.0492 3.276 2.8812C3.7 2.7132 4.156 2.5892 4.644 2.5092C4.676 2.1812 4.696 1.8412 4.704 1.4892C4.712 1.1372 4.708 0.7732 4.692 0.3972C4.684 0.2932 4.716 0.2052 4.788 0.1332C4.86 0.0532005 4.948 0.00920034 5.052 0.00119997C5.164 -0.00679993 5.256 0.0252001 5.328 0.0972002C5.408 0.1692 5.448 0.2612 5.448 0.3732C5.464 0.7332 5.468 1.0852 5.46 1.4292C5.452 1.7732 5.432 2.1092 5.4 2.4372C5.464 2.4292 5.52 2.4252 5.568 2.4252C5.624 2.4252 5.68 2.4252 5.736 2.4252C6.464 2.4252 7.096 2.5652 7.632 2.8452C8.168 3.1172 8.58 3.5012 8.868 3.9972C9.164 4.4932 9.312 5.0732 9.312 5.7372C9.312 6.0252 9.288 6.2972 9.24 6.5532C9.2 6.8092 9.136 7.0532 9.048 7.2852C9.232 7.4372 9.408 7.6092 9.576 7.8012C9.744 7.9852 9.896 8.1852 10.032 8.4012C10.088 8.4892 10.104 8.5852 10.08 8.6892C10.064 8.7852 10.012 8.8652 9.924 8.9292C9.836 8.9852 9.74 9.0052 9.636 8.9892C9.532 8.9652 9.452 8.9092 9.396 8.8212C9.172 8.4852 8.94 8.1972 8.7 7.9572C8.476 8.2772 8.2 8.5292 7.872 8.7132C7.552 8.8892 7.188 8.9772 6.78 8.9772ZM2.04 7.8852C2.552 7.6212 3.02 7.1532 3.444 6.4812C3.196 6.2012 2.948 5.8972 2.7 5.5692C2.452 5.2332 2.212 4.8932 1.98 4.5492C1.588 4.9172 1.28 5.3372 1.056 5.8092C0.832 6.2732 0.72 6.7532 0.72 7.2492C0.72 7.6492 0.84 7.9052 1.08 8.0172C1.328 8.1292 1.648 8.0852 2.04 7.8852ZM3.804 5.7972C3.964 5.4452 4.108 5.0612 4.236 4.6452C4.364 4.2212 4.468 3.7572 4.548 3.2532C4.164 3.3332 3.8 3.4452 3.456 3.5892C3.12 3.7332 2.808 3.9052 2.52 4.1052C2.728 4.4012 2.94 4.6972 3.156 4.9932C3.372 5.2812 3.588 5.5492 3.804 5.7972ZM6.78 8.3052C7.044 8.3052 7.292 8.2372 7.524 8.1012C7.764 7.9652 7.968 7.7612 8.136 7.4892C7.92 7.3452 7.696 7.2332 7.464 7.1532C7.232 7.0732 7 7.0332 6.768 7.0332C6.52 7.0332 6.324 7.0892 6.18 7.2012C6.036 7.3132 5.964 7.4732 5.964 7.6812C5.964 7.8652 6.028 8.0172 6.156 8.1372C6.292 8.2492 6.5 8.3052 6.78 8.3052Z" fill="black"/>
</svg>
