<svg width="10" height="10" viewBox="0 0 10 10" fill="none" xmlns="http://www.w3.org/2000/svg">
<path d="M5.244 9.864C5.14 9.856 5.048 9.812 4.968 9.732C4.896 9.66 4.86 9.572 4.86 9.468C4.868 9.356 4.908 9.264 4.98 9.192C5.06 9.12 5.152 9.084 5.256 9.084C6.136 9.116 6.816 8.996 7.296 8.724C7.776 8.444 8.016 8.024 8.016 7.464C8.016 6.928 7.792 6.52 7.344 6.24C6.896 5.96 6.284 5.82 5.508 5.82C5.14 5.82 4.784 5.84 4.44 5.88C4.104 5.92 3.784 5.972 3.48 6.036V7.764C3.48 8.476 3.336 9 3.048 9.336C2.768 9.672 2.316 9.84 1.692 9.84C1.204 9.84 0.8 9.708 0.48 9.444C0.16 9.172 0 8.784 0 8.28C0 7.656 0.248 7.108 0.744 6.636C1.248 6.156 1.908 5.784 2.724 5.52V3.084C2.316 3.116 1.916 3.144 1.524 3.168C1.14 3.184 0.784 3.196 0.456 3.204C0.352 3.212 0.26 3.18 0.18 3.108C0.108 3.028 0.0720001 2.936 0.0720001 2.832C0.0720001 2.72 0.108 2.628 0.18 2.556C0.26 2.484 0.352 2.448 0.456 2.448C0.784 2.44 1.14 2.428 1.524 2.412C1.916 2.388 2.316 2.36 2.724 2.328V0.384C2.724 0.272 2.76 0.18 2.832 0.108C2.912 0.036 3.004 0 3.108 0C3.212 0 3.3 0.036 3.372 0.108C3.444 0.18 3.48 0.272 3.48 0.384V2.268C3.76 2.236 4.028 2.204 4.284 2.172C4.548 2.14 4.796 2.108 5.028 2.076C5.14 2.06 5.236 2.08 5.316 2.136C5.404 2.192 5.452 2.276 5.46 2.388C5.476 2.492 5.452 2.584 5.388 2.664C5.332 2.744 5.248 2.792 5.136 2.808C4.904 2.84 4.644 2.876 4.356 2.916C4.076 2.948 3.784 2.98 3.48 3.012V5.316C3.8 5.252 4.128 5.204 4.464 5.172C4.808 5.132 5.16 5.112 5.52 5.112C6.56 5.112 7.364 5.328 7.932 5.76C8.508 6.184 8.796 6.752 8.796 7.464C8.796 8.264 8.484 8.876 7.86 9.3C7.236 9.716 6.364 9.904 5.244 9.864ZM1.692 9.096C2.044 9.096 2.304 9.004 2.472 8.82C2.64 8.628 2.724 8.276 2.724 7.764V6.264C2.108 6.488 1.628 6.78 1.284 7.14C0.94 7.492 0.768 7.868 0.768 8.268C0.768 8.508 0.844 8.708 0.996 8.868C1.156 9.02 1.388 9.096 1.692 9.096ZM8.496 4.128C8.352 4.016 8.156 3.884 7.908 3.732C7.668 3.58 7.42 3.432 7.164 3.288C6.916 3.136 6.696 3.016 6.504 2.928C6.416 2.888 6.348 2.82 6.3 2.724C6.26 2.62 6.264 2.52 6.312 2.424C6.36 2.328 6.432 2.264 6.528 2.232C6.632 2.2 6.732 2.204 6.828 2.244C7.036 2.34 7.276 2.468 7.548 2.628C7.828 2.788 8.096 2.948 8.352 3.108C8.608 3.268 8.808 3.404 8.952 3.516C9.04 3.58 9.088 3.664 9.096 3.768C9.112 3.872 9.088 3.968 9.024 4.056C8.968 4.136 8.888 4.184 8.784 4.2C8.68 4.208 8.584 4.184 8.496 4.128Z" fill="black"/>
</svg>
