<svg width="7" height="10" viewBox="0 0 7 10" fill="none" xmlns="http://www.w3.org/2000/svg">
<path d="M2.16491 9.46533C2.06091 9.46533 1.96891 9.42933 1.88891 9.35733C1.81691 9.28533 1.78091 9.19733 1.78091 9.09333C1.78091 8.98133 1.81691 8.88933 1.88891 8.81733C1.96091 8.74533 2.04891 8.70533 2.15291 8.69733C3.32091 8.68133 4.23691 8.49733 4.90091 8.14533C5.56491 7.78533 5.89691 7.20133 5.89691 6.39333C5.89691 5.87333 5.72091 5.47733 5.36891 5.20533C5.02491 4.92533 4.59291 4.78533 4.07291 4.78533C3.55291 4.78533 2.99291 4.91333 2.39291 5.16933C1.80091 5.41733 1.21691 5.83333 0.640909 6.41733C0.584909 6.47333 0.512909 6.50933 0.424909 6.52533C0.344909 6.53333 0.268909 6.52133 0.196909 6.48933C0.044909 6.40933 -0.0190909 6.28133 0.00490911 6.10533C0.084909 5.58533 0.176909 5.02533 0.280909 4.42533C0.392909 3.82533 0.512909 3.24133 0.640909 2.67333C0.664909 2.56933 0.720909 2.49333 0.808909 2.44533C0.904909 2.38933 1.00491 2.37333 1.10891 2.39733C1.21291 2.42133 1.28891 2.47733 1.33691 2.56533C1.39291 2.65333 1.40891 2.74933 1.38491 2.85333C1.30491 3.17333 1.21291 3.54933 1.10891 3.98133C1.01291 4.40533 0.920909 4.86533 0.832909 5.36133C1.39291 4.89733 1.94891 4.56533 2.50091 4.36533C3.05291 4.15733 3.57691 4.05733 4.07291 4.06533C4.60091 4.06533 5.05691 4.16533 5.44091 4.36533C5.82491 4.55733 6.12091 4.82933 6.32891 5.18133C6.54491 5.52533 6.65291 5.92933 6.65291 6.39333C6.65291 7.33733 6.28491 8.07733 5.54891 8.61333C4.81291 9.14133 3.68491 9.42533 2.16491 9.46533ZM4.26491 1.91733C4.08891 1.83733 3.87691 1.74533 3.62891 1.64133C3.38891 1.52933 3.13691 1.41733 2.87291 1.30533C2.60891 1.18533 2.36091 1.07733 2.12891 0.981333C1.89691 0.877333 1.70091 0.789333 1.54091 0.717333C1.44491 0.677333 1.37691 0.609333 1.33691 0.513333C1.30491 0.409333 1.31291 0.309333 1.36091 0.213333C1.40091 0.117333 1.46891 0.053333 1.56491 0.0213334C1.66891 -0.0106667 1.76891 -0.00666671 1.86491 0.0333333C2.08891 0.129333 2.36491 0.253333 2.69291 0.405333C3.02091 0.549333 3.35291 0.697333 3.68891 0.849333C4.02491 0.993333 4.31291 1.11733 4.55291 1.22133C4.64891 1.26133 4.71691 1.32933 4.75691 1.42533C4.79691 1.52133 4.79691 1.61733 4.75691 1.71333C4.71691 1.81733 4.64891 1.88933 4.55291 1.92933C4.45691 1.96933 4.36091 1.96533 4.26491 1.91733Z" fill="black"/>
</svg>
