<svg width="11" height="11" viewBox="0 0 11 11" fill="none" xmlns="http://www.w3.org/2000/svg">
<path d="M2.69345 10.356C2.58945 10.356 2.50145 10.32 2.42945 10.248C2.36545 10.176 2.33345 10.088 2.33345 9.984V6.264C2.08545 6.6 1.84545 6.944 1.61345 7.296C1.38145 7.64 1.15345 7.988 0.929455 8.34C0.873455 8.42 0.793455 8.472 0.689455 8.496C0.593455 8.512 0.501455 8.492 0.413455 8.436C0.333455 8.372 0.281455 8.292 0.257455 8.196C0.241455 8.092 0.261455 8 0.317455 7.92C0.597455 7.52 0.909455 7.076 1.25345 6.588C1.59745 6.1 1.95745 5.624 2.33345 5.16V3.144C2.18145 3.12 1.99345 3.136 1.76945 3.192C1.66545 3.216 1.52945 3.252 1.36145 3.3C1.19345 3.34 1.02545 3.384 0.857455 3.432C0.697455 3.472 0.569455 3.508 0.473455 3.54C0.377455 3.564 0.281455 3.552 0.185455 3.504C0.0974546 3.448 0.0414545 3.368 0.0174545 3.264C-0.0145454 3.16 -0.00254542 3.064 0.0534546 2.976C0.109455 2.888 0.189455 2.828 0.293455 2.796C0.389455 2.772 0.521455 2.74 0.689455 2.7C0.857455 2.66 1.02945 2.62 1.20545 2.58C1.38945 2.532 1.54145 2.496 1.66145 2.472C1.89345 2.416 2.11745 2.388 2.33345 2.388V0.372C2.33345 0.268 2.36545 0.18 2.42945 0.108C2.50145 0.036 2.58945 0 2.69345 0C2.79745 0 2.88545 0.036 2.95745 0.108C3.02945 0.18 3.06545 0.268 3.06545 0.372V2.664C3.15345 2.752 3.22545 2.852 3.28145 2.964C3.33745 3.076 3.36545 3.228 3.36545 3.42C3.36545 3.604 3.34145 3.812 3.29345 4.044C3.75745 3.556 4.22145 3.152 4.68545 2.832C5.15745 2.512 5.61345 2.352 6.05345 2.352C6.58145 2.352 7.00546 2.476 7.32546 2.724C7.64545 2.964 7.84945 3.356 7.93746 3.9C8.03345 4.436 7.99745 5.144 7.82945 6.024C7.71745 6.608 7.64545 7.072 7.61345 7.416C7.58145 7.752 7.59345 8.008 7.64945 8.184C7.70545 8.352 7.80146 8.476 7.93746 8.556C8.16146 8.684 8.44146 8.7 8.77746 8.604C9.11345 8.508 9.44146 8.312 9.76146 8.016C9.84146 7.944 9.93346 7.912 10.0375 7.92C10.1415 7.928 10.2295 7.972 10.3015 8.052C10.3655 8.132 10.3935 8.224 10.3855 8.328C10.3855 8.432 10.3455 8.52 10.2655 8.592C9.84146 8.984 9.37745 9.24 8.87346 9.36C8.36946 9.472 7.92545 9.424 7.54145 9.216C7.28545 9.072 7.10146 8.876 6.98946 8.628C6.88546 8.372 6.84545 8.028 6.86945 7.596C6.89345 7.164 6.96545 6.616 7.08545 5.952C7.22945 5.168 7.27345 4.572 7.21745 4.164C7.16945 3.748 7.04145 3.468 6.83346 3.324C6.63345 3.172 6.37745 3.096 6.06545 3.096C5.61746 3.096 5.13346 3.304 4.61345 3.72C4.10145 4.136 3.58545 4.664 3.06545 5.304V9.984C3.06545 10.088 3.02945 10.176 2.95745 10.248C2.88545 10.32 2.79745 10.356 2.69345 10.356Z" fill="black"/>
</svg>
