<svg width="6" height="11" viewBox="0 0 6 11" fill="none" xmlns="http://www.w3.org/2000/svg">
<path d="M2.236 10.0248C2.156 9.9528 2.112 9.8608 2.104 9.7488C2.104 9.6448 2.144 9.5568 2.224 9.4848C2.648 9.0608 3.012 8.5568 3.316 7.9728C3.62 7.3808 3.856 6.7328 4.024 6.0288C4.192 5.3168 4.276 4.5768 4.276 3.8088C4.276 3.0728 4.152 2.5288 3.904 2.1768C3.656 1.8248 3.288 1.6488 2.8 1.6488C2.512 1.6488 2.236 1.7528 1.972 1.9608C1.716 2.1608 1.488 2.4408 1.288 2.8008C1.096 3.1608 0.956 3.5768 0.868 4.0488C0.788 4.5128 0.776 5.0128 0.832 5.5488C0.848 5.6448 0.82 5.7328 0.748 5.8128C0.684 5.8848 0.604 5.9248 0.508 5.9328C0.412 5.9408 0.324 5.9168 0.244 5.8608C0.172 5.8048 0.128 5.7248 0.112 5.6208C0.0640001 5.2208 0.0320001 4.7768 0.0160001 4.2888C8.00937e-08 3.8008 -0.00399999 3.3128 0.00399991 2.8248C0.0199999 2.3288 0.044 1.8648 0.0760001 1.4328C0.108 0.9928 0.14 0.6248 0.172 0.3288C0.188 0.2248 0.232 0.140801 0.304 0.0768004C0.384 0.0128003 0.476 -0.0111999 0.58 0.00479988C0.684 0.0128003 0.768 0.0568004 0.832 0.1368C0.896 0.2168 0.92 0.3088 0.904 0.4128C0.872 0.6928 0.836 1.0448 0.796 1.4688C0.764 1.8848 0.74 2.3128 0.724 2.7528C0.94 2.1848 1.232 1.7328 1.6 1.3968C1.976 1.0608 2.384 0.892801 2.824 0.892801C3.536 0.892801 4.084 1.1408 4.468 1.6368C4.852 2.1328 5.044 2.8568 5.044 3.8088C5.044 4.6168 4.956 5.4008 4.78 6.1608C4.604 6.9208 4.348 7.6288 4.012 8.2848C3.676 8.9408 3.268 9.5168 2.788 10.0128C2.716 10.0928 2.624 10.1328 2.512 10.1328C2.408 10.1408 2.316 10.1048 2.236 10.0248Z" fill="black"/>
</svg>
