<svg width="8" height="10" viewBox="0 0 8 10" fill="none" xmlns="http://www.w3.org/2000/svg">
<path d="M3.43333 9.57634C3.32933 9.57634 3.23733 9.54034 3.15733 9.46834C3.07733 9.39634 3.03333 9.30834 3.02533 9.20434C3.01733 9.09234 3.04933 9.00034 3.12133 8.92834C3.20133 8.84834 3.29333 8.80434 3.39733 8.79634C4.48533 8.74834 5.32133 8.50434 5.90533 8.06434C6.49733 7.61634 6.79333 7.01634 6.79333 6.26434C6.79333 5.79234 6.65333 5.42034 6.37333 5.14834C6.10133 4.86834 5.74533 4.68834 5.30533 4.60834C5.03333 4.56034 4.71333 4.55234 4.34533 4.58434C3.97733 4.61634 3.57733 4.72434 3.14533 4.90834C2.72133 5.08434 2.28133 5.37234 1.82533 5.77234C1.61733 5.95634 1.40933 6.14034 1.20133 6.32434C1.00133 6.50834 0.809334 6.68034 0.625333 6.84034C0.545333 6.90434 0.449333 6.93234 0.337333 6.92434C0.233333 6.91634 0.149333 6.87234 0.0853333 6.79234C0.0213333 6.71234 -0.00666668 6.62034 0.00133334 6.51634C0.00933335 6.40434 0.0533334 6.31634 0.133333 6.25234C0.621333 5.86034 1.12933 5.42834 1.65733 4.95634C2.19333 4.47634 2.69733 3.99234 3.16933 3.50434C3.64933 3.00834 4.04933 2.54834 4.36933 2.12434C4.73733 1.64434 4.84133 1.28434 4.68133 1.04434C4.52933 0.796343 4.18133 0.692343 3.63733 0.732343C3.53333 0.740343 3.38933 0.756343 3.20533 0.780343C3.02933 0.796343 2.84933 0.816343 2.66533 0.840343C2.48133 0.856343 2.31733 0.872343 2.17333 0.888343C2.02933 0.904343 1.93733 0.916343 1.89733 0.924343C1.79333 0.932343 1.70133 0.904343 1.62133 0.840343C1.54133 0.776343 1.49333 0.692343 1.47733 0.588343C1.46933 0.476343 1.49733 0.380343 1.56133 0.300343C1.62533 0.220343 1.70933 0.176343 1.81333 0.168343C1.93333 0.152343 2.09733 0.136343 2.30533 0.120343C2.51333 0.0963427 2.73333 0.0763427 2.96533 0.0603429C3.20533 0.0363427 3.41733 0.0203427 3.60133 0.0123428C4.22533 -0.0356571 4.70533 0.056343 5.04133 0.288343C5.37733 0.512343 5.54533 0.824343 5.54533 1.22434C5.55333 1.61634 5.37333 2.04434 5.00533 2.50834C4.82133 2.74034 4.58933 3.00834 4.30933 3.31234C4.03733 3.60834 3.76133 3.89634 3.48133 4.17634C3.83333 4.01634 4.18533 3.92434 4.53733 3.90034C4.89733 3.86834 5.24533 3.88434 5.58133 3.94834C6.17333 4.05234 6.64933 4.30834 7.00933 4.71634C7.36933 5.12434 7.54933 5.64034 7.54933 6.26434C7.54933 7.23234 7.18933 8.01234 6.46933 8.60434C5.74933 9.19634 4.73733 9.52034 3.43333 9.57634Z" fill="black"/>
</svg>
