<svg width="8" height="10" viewBox="0 0 8 10" fill="none" xmlns="http://www.w3.org/2000/svg">
<path d="M3.73333 9.39704C3.08533 9.39704 2.58133 9.26104 2.22133 8.98904C1.86133 8.71704 1.68133 8.34504 1.68133 7.87304C1.68133 7.40104 1.85733 7.03304 2.20933 6.76904C2.56133 6.50504 3.00133 6.40504 3.52933 6.46904C3.94533 6.51704 4.25733 6.65704 4.46533 6.88904C4.68133 7.11304 4.80133 7.37704 4.82533 7.68104C4.85733 7.98504 4.80133 8.28904 4.65733 8.59304C5.20133 8.48104 5.62133 8.24504 5.91733 7.88504C6.22133 7.51704 6.37333 7.04504 6.37333 6.46904C6.37333 6.06904 6.26533 5.72104 6.04933 5.42504C5.84133 5.12904 5.54933 4.90904 5.17333 4.76504C4.79733 4.62104 4.36533 4.56904 3.87733 4.60904C3.38933 4.64104 2.86533 4.78504 2.30533 5.04104C1.75333 5.28904 1.19333 5.66904 0.625333 6.18104C0.545333 6.25304 0.449333 6.28504 0.337333 6.27704C0.233333 6.26104 0.149333 6.21304 0.0853335 6.13304C0.0213335 6.05304 -0.0066666 5.96104 0.0013333 5.85704C0.00933332 5.74504 0.0533333 5.66104 0.133333 5.60504C0.509333 5.33304 0.893333 5.03704 1.28533 4.71704C1.67733 4.38904 2.06133 4.05704 2.43733 3.72104C2.82133 3.38504 3.18133 3.06104 3.51733 2.74904C3.85333 2.43704 4.14533 2.15704 4.39333 1.90904C4.76933 1.54904 4.89733 1.24904 4.77733 1.00904C4.66533 0.761043 4.34533 0.665043 3.81733 0.721043C3.53733 0.753043 3.20933 0.793043 2.83333 0.841044C2.45733 0.889043 2.11333 0.933043 1.80133 0.973043C1.69733 0.989043 1.60533 0.965043 1.52533 0.901043C1.44533 0.837043 1.39733 0.753043 1.38133 0.649043C1.36533 0.545043 1.38933 0.453043 1.45333 0.373043C1.51733 0.285043 1.60133 0.237043 1.70533 0.229043C1.88133 0.205043 2.09333 0.181043 2.34133 0.157043C2.58933 0.125043 2.84133 0.0970431 3.09733 0.0730434C3.35333 0.0490433 3.58133 0.0290433 3.78133 0.0130435C4.27733 -0.0269565 4.67333 0.0250433 4.96933 0.169043C5.26533 0.305043 5.46133 0.501043 5.55733 0.757043C5.65333 1.00504 5.64533 1.28104 5.53333 1.58504C5.42933 1.88104 5.22133 2.16904 4.90933 2.44904C4.62933 2.68904 4.30533 2.96904 3.93733 3.28904C3.56933 3.60904 3.20933 3.92104 2.85733 4.22504C3.38533 4.01704 3.90133 3.91704 4.40533 3.92504C4.90933 3.93304 5.36533 4.04104 5.77333 4.24904C6.18933 4.44904 6.51733 4.73704 6.75733 5.11304C7.00533 5.48904 7.12933 5.94104 7.12933 6.46904C7.12933 7.43704 6.82533 8.16904 6.21733 8.66504C5.61733 9.15304 4.78933 9.39704 3.73333 9.39704ZM3.67333 8.68904H3.84133C4.08933 8.32104 4.16933 7.98904 4.08133 7.69304C4.00133 7.38904 3.78533 7.21704 3.43333 7.17704C3.13733 7.13704 2.89333 7.18104 2.70133 7.30904C2.51733 7.43704 2.42533 7.62904 2.42533 7.88504C2.42533 8.40504 2.84133 8.67304 3.67333 8.68904Z" fill="black"/>
</svg>
