<svg width="7" height="10" viewBox="0 0 7 10" fill="none" xmlns="http://www.w3.org/2000/svg">
<path d="M5.196 9.9108C4.348 9.9268 3.604 9.8388 2.964 9.6468C2.324 9.4628 1.828 9.1708 1.476 8.7708C1.124 8.3708 0.948 7.8628 0.948 7.2468C0.948 6.7428 1.068 6.3268 1.308 5.9988C1.548 5.6708 1.872 5.4268 2.28 5.2668C2.696 5.0988 3.172 5.0108 3.708 5.0028C4.252 4.9868 4.824 5.0508 5.424 5.1948C5.072 4.8828 4.724 4.5028 4.38 4.0548C4.036 3.5988 3.728 3.1188 3.456 2.6148C2.944 2.6948 2.428 2.7628 1.908 2.8188C1.388 2.8748 0.884 2.9148 0.396 2.9388C0.292 2.9468 0.2 2.9148 0.12 2.8428C0.048 2.7708 0.00800002 2.6828 0 2.5788C0 2.4668 0.036 2.3748 0.108 2.3028C0.18 2.2308 0.268 2.1908 0.372 2.1828C0.796 2.1668 1.24 2.1388 1.704 2.0988C2.176 2.0508 2.644 1.9908 3.108 1.9188C3.004 1.6708 2.908 1.4268 2.82 1.1868C2.74 0.9388 2.676 0.6948 2.628 0.4548C2.604 0.3508 2.62 0.2548 2.676 0.1668C2.732 0.0788001 2.812 0.0268001 2.916 0.0107998C3.028 -0.0131999 3.124 0.00280014 3.204 0.0587999C3.292 0.1148 3.348 0.1948 3.372 0.2988C3.468 0.7788 3.632 1.2788 3.864 1.7988C4.328 1.7108 4.772 1.6188 5.196 1.5228C5.62 1.4188 6.008 1.3068 6.36 1.1868C6.464 1.1548 6.56 1.1628 6.648 1.2108C6.744 1.2588 6.808 1.3348 6.84 1.4388C6.872 1.5348 6.864 1.6308 6.816 1.7268C6.768 1.8148 6.692 1.8748 6.588 1.9068C6.236 2.0108 5.856 2.1108 5.448 2.2068C5.048 2.3028 4.636 2.3948 4.212 2.4828C4.54 3.0668 4.928 3.6228 5.376 4.1508C5.832 4.6788 6.312 5.1188 6.816 5.4708C6.896 5.5268 6.948 5.5988 6.972 5.6868C6.996 5.7748 6.988 5.8628 6.948 5.9508C6.908 6.0308 6.844 6.0908 6.756 6.1308C6.668 6.1708 6.58 6.1788 6.492 6.1548C5.532 5.8348 4.692 5.6748 3.972 5.6748C3.26 5.6668 2.704 5.7988 2.304 6.0708C1.912 6.3428 1.716 6.7388 1.716 7.2588C1.716 7.7148 1.86 8.0868 2.148 8.3748C2.436 8.6548 2.84 8.8588 3.36 8.9868C3.88 9.1068 4.488 9.1628 5.184 9.1548C5.288 9.1548 5.376 9.1908 5.448 9.2628C5.528 9.3348 5.568 9.4228 5.568 9.5268C5.568 9.6308 5.532 9.7188 5.46 9.7908C5.388 9.8708 5.3 9.9108 5.196 9.9108Z" fill="black"/>
</svg>
