<svg width="11" height="9" viewBox="0 0 11 9" fill="none" xmlns="http://www.w3.org/2000/svg">
<path d="M8.57333 8.568C7.35733 8.696 6.38533 8.7 5.65733 8.58C4.93733 8.46 4.36533 8.208 3.94133 7.824C3.30933 7.248 2.99333 6.364 2.99333 5.172V3.66C2.52133 3.716 2.06933 3.776 1.63733 3.84C1.20533 3.896 0.809333 3.956 0.449333 4.02C0.345333 4.036 0.249333 4.016 0.161333 3.96C0.0733333 3.904 0.0213333 3.824 0.00533333 3.72C-0.0106667 3.608 0.00933334 3.512 0.0653334 3.432C0.129333 3.344 0.213333 3.292 0.317333 3.276C1.06133 3.156 1.95333 3.04 2.99333 2.928V0.6C2.99333 0.496 3.02933 0.408 3.10133 0.336001C3.18133 0.264001 3.27333 0.228001 3.37733 0.228001C3.48933 0.228001 3.58133 0.264001 3.65333 0.336001C3.72533 0.408 3.76133 0.496 3.76133 0.6V2.844C4.28133 2.796 4.81333 2.748 5.35733 2.7C5.90133 2.652 6.44133 2.612 6.97733 2.58C7.01733 2.172 7.04933 1.78 7.07333 1.404C7.10533 1.02 7.12533 0.676 7.13333 0.372C7.14133 0.268 7.18133 0.18 7.25333 0.108C7.33333 0.036 7.42533 0 7.52933 0C7.63333 0.00800037 7.72133 0.0480006 7.79333 0.120001C7.86533 0.192001 7.89733 0.284001 7.88933 0.396001C7.88133 0.708 7.86533 1.048 7.84133 1.416C7.81733 1.784 7.78533 2.16 7.74533 2.544C8.16933 2.52 8.58133 2.5 8.98133 2.484C9.38133 2.468 9.76133 2.46 10.1213 2.46C10.2333 2.452 10.3253 2.488 10.3973 2.568C10.4693 2.64 10.5053 2.728 10.5053 2.832C10.5053 2.936 10.4693 3.028 10.3973 3.108C10.3253 3.18 10.2333 3.216 10.1213 3.216C9.74533 3.208 9.34933 3.212 8.93333 3.228C8.51733 3.236 8.09333 3.252 7.66133 3.276C7.60533 3.708 7.54133 4.132 7.46933 4.548C7.40533 4.964 7.32933 5.348 7.24133 5.7C7.20933 5.804 7.14933 5.884 7.06133 5.94C6.97333 5.988 6.87733 6 6.77333 5.976C6.66933 5.952 6.58933 5.896 6.53333 5.808C6.48533 5.72 6.47333 5.624 6.49733 5.52C6.57733 5.192 6.64933 4.84 6.71333 4.464C6.77733 4.088 6.83733 3.704 6.89333 3.312C6.36533 3.344 5.83733 3.384 5.30933 3.432C4.78133 3.472 4.26533 3.52 3.76133 3.576V5.172C3.76133 6.148 3.99333 6.844 4.45733 7.26C4.80933 7.572 5.29333 7.768 5.90933 7.848C6.53333 7.928 7.39733 7.912 8.50133 7.8C8.60533 7.784 8.69733 7.812 8.77733 7.884C8.86533 7.948 8.91333 8.032 8.92133 8.136C8.93733 8.24 8.90933 8.336 8.83733 8.424C8.77333 8.504 8.68533 8.552 8.57333 8.568Z" fill="black"/>
</svg>
