<svg width="7" height="10" viewBox="0 0 7 10" fill="none" xmlns="http://www.w3.org/2000/svg">
<path d="M2.76 9.612C1.904 9.612 1.228 9.392 0.732 8.952C0.244 8.512 0 7.828 0 6.9V0.372C0 0.267999 0.0359999 0.18 0.108 0.108C0.18 0.036 0.268 0 0.372 0C0.484 0 0.576 0.036 0.648 0.108C0.72 0.18 0.756 0.267999 0.756 0.372V6.9C0.756 7.396 0.836 7.788 0.996 8.076C1.164 8.364 1.4 8.568 1.704 8.688C2.008 8.8 2.36 8.856 2.76 8.856C3.352 8.856 3.9 8.692 4.404 8.364C4.916 8.036 5.312 7.572 5.592 6.972C5.632 6.876 5.704 6.812 5.808 6.78C5.912 6.74 6.012 6.744 6.108 6.792C6.204 6.84 6.268 6.916 6.3 7.02C6.34 7.116 6.336 7.212 6.288 7.308C5.944 8.044 5.456 8.612 4.824 9.012C4.192 9.412 3.504 9.612 2.76 9.612Z" fill="black"/>
</svg>
