<svg width="9" height="10" viewBox="0 0 9 10" fill="none" xmlns="http://www.w3.org/2000/svg">
<path d="M6.87733 9.92945C6.10133 9.91346 5.44933 9.76146 4.92133 9.47346C4.40133 9.18546 4.00933 8.81746 3.74533 8.36946C3.48133 7.92146 3.34933 7.44946 3.34933 6.95345C3.34933 6.53746 3.44133 6.13745 3.62533 5.75346C3.81733 5.36946 4.09733 5.03745 4.46533 4.75745C3.78533 4.84546 3.08933 4.92946 2.37733 5.00946C1.66533 5.08946 1.01333 5.16146 0.421333 5.22546C0.317333 5.23346 0.225333 5.20545 0.145333 5.14146C0.0653334 5.06946 0.0173334 4.98145 0.00133334 4.87745C-0.00666668 4.77345 0.0213333 4.68145 0.0853333 4.60145C0.157333 4.52145 0.245333 4.47746 0.349333 4.46945C0.581333 4.45345 0.821333 4.43345 1.06933 4.40945C1.31733 4.38546 1.56533 4.36145 1.81333 4.33746C2.26933 4.12146 2.72133 3.85746 3.16933 3.54545C3.61733 3.22545 4.04133 2.87745 4.44133 2.50145C4.84933 2.11746 5.21733 1.72945 5.54533 1.33745C5.87333 0.937455 6.14133 0.553455 6.34933 0.185455C6.40533 0.0974547 6.48133 0.0414547 6.57733 0.0174546C6.68133 -0.0145455 6.77733 -0.00254542 6.86533 0.0534548C6.96133 0.101455 7.02133 0.177455 7.04533 0.281455C7.07733 0.385455 7.06533 0.481455 7.00933 0.569455C6.76933 1.00145 6.45333 1.43345 6.06133 1.86546C5.67733 2.29745 5.24933 2.70945 4.77733 3.10145C4.30533 3.49345 3.81333 3.84945 3.30133 4.16946C4.14933 4.08146 4.96933 3.98146 5.76133 3.86946C6.56133 3.75746 7.24133 3.65346 7.80133 3.55745C7.91333 3.53345 8.00933 3.54945 8.08933 3.60545C8.17733 3.66145 8.23333 3.74545 8.25733 3.85745C8.27333 3.96145 8.25333 4.05746 8.19733 4.14545C8.14133 4.23345 8.06133 4.28545 7.95733 4.30146C7.76533 4.33346 7.54133 4.36546 7.28533 4.39746C7.02933 4.42945 6.76133 4.46546 6.48133 4.50546C5.91333 4.56946 5.45333 4.72945 5.10133 4.98546C4.75733 5.24146 4.50533 5.54545 4.34533 5.89746C4.18533 6.24146 4.10533 6.58946 4.10533 6.94145C4.10533 7.31745 4.20533 7.67345 4.40533 8.00945C4.61333 8.34546 4.92133 8.62146 5.32933 8.83745C5.74533 9.04545 6.26933 9.15746 6.90133 9.17346C7.00533 9.17346 7.09333 9.21346 7.16533 9.29346C7.23733 9.36545 7.27333 9.45345 7.27333 9.55746C7.26533 9.66146 7.22533 9.74946 7.15333 9.82146C7.08133 9.89345 6.98933 9.92945 6.87733 9.92945ZM2.95333 2.10545L1.63333 0.785455C1.55333 0.713455 1.51333 0.625455 1.51333 0.521455C1.51333 0.409455 1.55333 0.317455 1.63333 0.245454C1.70533 0.173454 1.79333 0.137454 1.89733 0.137454C2.00133 0.137454 2.08933 0.173454 2.16133 0.245454L3.49333 1.56545C3.56533 1.64545 3.60133 1.73745 3.60133 1.84145C3.60133 1.94545 3.56533 2.03345 3.49333 2.10545C3.42133 2.17745 3.33333 2.21345 3.22933 2.21345C3.12533 2.21345 3.03333 2.17745 2.95333 2.10545Z" fill="black"/>
</svg>
