<svg width="11" height="11" viewBox="0 0 11 11" fill="none" xmlns="http://www.w3.org/2000/svg">
<path d="M3.84133 10.368C3.74533 10.408 3.64533 10.408 3.54133 10.368C3.44533 10.328 3.37733 10.26 3.33733 10.164C3.29733 10.068 3.29733 9.968 3.33733 9.864C3.37733 9.768 3.44933 9.7 3.55333 9.66C4.32933 9.332 4.90933 8.916 5.29333 8.412C5.67733 7.908 5.90533 7.352 5.97733 6.744C5.67333 7.096 5.27733 7.272 4.78933 7.272C4.25333 7.272 3.82933 7.136 3.51733 6.864C3.21333 6.584 3.06133 6.192 3.06133 5.688C3.06133 5.192 3.22133 4.792 3.54133 4.488C3.86133 4.176 4.28533 4.02 4.81333 4.02C5.09333 4.02 5.35733 4.072 5.60533 4.176C5.58133 3.944 5.55733 3.704 5.53333 3.456C5.51733 3.208 5.50533 2.956 5.49733 2.7C4.60933 2.732 3.72533 2.78 2.84533 2.844C1.97333 2.9 1.16533 2.964 0.421333 3.036C0.317333 3.044 0.225333 3.016 0.145333 2.952C0.0653333 2.888 0.0173333 2.804 0.00133333 2.7C-0.00666666 2.596 0.0213334 2.504 0.0853334 2.424C0.149333 2.336 0.233333 2.288 0.337333 2.28C1.07333 2.216 1.88933 2.156 2.78533 2.1C3.68133 2.044 4.58533 2 5.49733 1.968V0.384C5.49733 0.28 5.53333 0.192 5.60533 0.12C5.67733 0.04 5.76533 0 5.86933 0C5.98133 0 6.07333 0.04 6.14533 0.12C6.21733 0.192 6.25333 0.28 6.25333 0.384V1.944C6.98933 1.92 7.69333 1.904 8.36533 1.896C9.04533 1.88 9.65733 1.876 10.2013 1.884C10.3053 1.884 10.3933 1.924 10.4653 2.004C10.5373 2.076 10.5693 2.164 10.5613 2.268C10.5613 2.372 10.5213 2.464 10.4413 2.544C10.3693 2.616 10.2813 2.648 10.1773 2.64C9.62533 2.624 9.01333 2.62 8.34133 2.628C7.66933 2.628 6.97333 2.64 6.25333 2.664C6.26133 3.024 6.27333 3.388 6.28933 3.756C6.31333 4.116 6.33333 4.46 6.34933 4.788C6.46933 4.972 6.56133 5.188 6.62533 5.436C6.69733 5.676 6.73333 5.948 6.73333 6.252C6.73333 7.148 6.48533 7.964 5.98933 8.7C5.50133 9.436 4.78533 9.992 3.84133 10.368ZM4.78933 6.588C5.06933 6.58 5.29333 6.496 5.46133 6.336C5.63733 6.168 5.72533 5.936 5.72533 5.64C5.72533 5.56 5.72133 5.476 5.71333 5.388C5.71333 5.3 5.70933 5.212 5.70133 5.124C5.50133 4.86 5.20533 4.728 4.81333 4.728C4.51733 4.728 4.26933 4.812 4.06933 4.98C3.87733 5.14 3.78133 5.368 3.78133 5.664C3.78933 5.96 3.88133 6.192 4.05733 6.36C4.23333 6.52 4.47733 6.596 4.78933 6.588Z" fill="black"/>
</svg>
