<svg width="9" height="10" viewBox="0 0 9 10" fill="none" xmlns="http://www.w3.org/2000/svg">
<path d="M0.1668 9.672C0.0868 9.616 0.0348 9.536 0.0107999 9.432C-0.0132 9.328 0.00280005 9.232 0.0588 9.144C0.4108 8.592 0.7188 7.976 0.9828 7.296C1.2468 6.608 1.4708 5.9 1.6548 5.172C1.8388 4.444 1.9788 3.74 2.0748 3.06C1.7868 3.092 1.5068 3.12 1.2348 3.144C0.9628 3.168 0.7028 3.188 0.4548 3.204C0.3508 3.212 0.2588 3.18 0.1788 3.108C0.0988001 3.036 0.0548 2.948 0.0468 2.844C0.0388 2.74 0.0708 2.648 0.1428 2.568C0.2148 2.488 0.3028 2.448 0.4068 2.448C0.6628 2.432 0.9388 2.412 1.2348 2.388C1.5388 2.364 1.8508 2.336 2.1708 2.304C2.2108 1.936 2.2388 1.592 2.2548 1.272C2.2708 0.952 2.2708 0.66 2.2548 0.396C2.2468 0.292 2.2788 0.204 2.3508 0.132C2.4228 0.0519998 2.5108 0.0079999 2.6148 0C2.7268 0 2.8188 0.036 2.8908 0.108C2.9628 0.172 3.0028 0.26 3.0108 0.372C3.0268 0.62 3.0268 0.9 3.0108 1.212C2.9948 1.524 2.9668 1.856 2.9268 2.208C3.5268 2.136 4.0508 2.044 4.4988 1.932C4.6028 1.908 4.6988 1.928 4.7868 1.992C4.8748 2.048 4.9308 2.128 4.9548 2.232C4.9788 2.336 4.9628 2.432 4.9068 2.52C4.8508 2.608 4.7668 2.66 4.6548 2.676C4.3828 2.732 4.0908 2.784 3.7788 2.832C3.4748 2.88 3.1588 2.924 2.8308 2.964C2.7268 3.692 2.5748 4.456 2.3748 5.256C2.1828 6.056 1.9468 6.828 1.6668 7.572C1.3868 8.316 1.0628 8.976 0.6948 9.552C0.6388 9.64 0.5588 9.696 0.4548 9.72C0.3508 9.744 0.2548 9.728 0.1668 9.672ZM8.5068 9.396C7.3948 9.628 6.4308 9.648 5.6148 9.456C4.7988 9.264 4.2068 8.832 3.8388 8.16C3.7908 8.072 3.7788 7.976 3.8028 7.872C3.8348 7.768 3.8988 7.692 3.9948 7.644C4.0828 7.596 4.1748 7.588 4.2708 7.62C4.3748 7.644 4.4548 7.704 4.5108 7.8C4.7268 8.184 5.0228 8.456 5.3988 8.616C5.7828 8.776 6.2268 8.852 6.7308 8.844C7.2348 8.836 7.7748 8.772 8.3508 8.652C8.4548 8.636 8.5468 8.656 8.6268 8.712C8.7148 8.76 8.7708 8.84 8.7948 8.952C8.8188 9.056 8.8028 9.152 8.7468 9.24C8.6908 9.328 8.6108 9.38 8.5068 9.396ZM8.0028 4.668C7.5148 4.556 6.9908 4.496 6.4308 4.488C5.8708 4.472 5.3268 4.516 4.7988 4.62C4.6948 4.636 4.5988 4.616 4.5108 4.56C4.4308 4.504 4.3788 4.424 4.3548 4.32C4.3388 4.208 4.3588 4.112 4.4148 4.032C4.4708 3.944 4.5508 3.892 4.6548 3.876C5.2228 3.772 5.8188 3.728 6.4428 3.744C7.0748 3.752 7.6548 3.812 8.1828 3.924C8.2868 3.948 8.3628 4.008 8.4108 4.104C8.4668 4.192 8.4828 4.288 8.4588 4.392C8.4348 4.496 8.3788 4.576 8.2908 4.632C8.2028 4.68 8.1068 4.692 8.0028 4.668Z" fill="black"/>
</svg>
