<svg width="9" height="9" viewBox="0 0 9 9" fill="none" xmlns="http://www.w3.org/2000/svg">
<path d="M7.8048 8.77733C6.9328 8.64933 6.2048 8.39733 5.6208 8.02133C5.0368 7.63733 4.6008 7.17333 4.3128 6.62933C4.0248 6.07733 3.8808 5.49733 3.8808 4.88933C3.8808 4.08933 4.0848 3.36533 4.4928 2.71733C4.9008 2.06133 5.4328 1.52133 6.0888 1.09733C5.7048 1.15333 5.2688 1.22533 4.7808 1.31333C4.2928 1.39333 3.7888 1.47733 3.2688 1.56533C2.7488 1.65333 2.2408 1.74133 1.7448 1.82933C1.2568 1.91733 0.8208 1.99733 0.4368 2.06933C0.3328 2.08533 0.2368 2.06133 0.1488 1.99733C0.0688 1.93333 0.0208 1.84933 0.00480002 1.74533C-0.0112 1.64133 0.0128 1.54933 0.0768 1.46933C0.1408 1.38133 0.2248 1.32933 0.3288 1.31333C0.5208 1.28133 0.8048 1.23333 1.1808 1.16933C1.5648 1.10533 2.0048 1.03333 2.5008 0.953334C2.9968 0.873333 3.5168 0.789333 4.0608 0.701334C4.6128 0.605333 5.1488 0.513333 5.6688 0.425333C6.1968 0.337334 6.6808 0.257334 7.1208 0.185334C7.5688 0.113334 7.9368 0.0533335 8.2248 0.00533319C8.3208 -0.0106666 8.4088 0.00933362 8.4888 0.0653339C8.5768 0.121334 8.6328 0.197334 8.6568 0.293334C8.6728 0.397333 8.6528 0.493333 8.5968 0.581334C8.5488 0.669333 8.4728 0.725333 8.3688 0.749334C7.8168 0.853334 7.3128 1.04133 6.8568 1.31333C6.4008 1.58533 6.0048 1.91333 5.6688 2.29733C5.3408 2.67333 5.0848 3.08533 4.9008 3.53333C4.7248 3.97333 4.6368 4.41733 4.6368 4.86533C4.6368 5.46533 4.7768 5.98533 5.0568 6.42533C5.3368 6.86533 5.7208 7.22133 6.2088 7.49333C6.7048 7.75733 7.2728 7.93733 7.9128 8.03333C8.0248 8.04133 8.1088 8.08933 8.1648 8.17733C8.2288 8.25733 8.2528 8.34933 8.2368 8.45333C8.2288 8.55733 8.1808 8.64133 8.0928 8.70533C8.0128 8.76933 7.9168 8.79333 7.8048 8.77733Z" fill="black"/>
</svg>
