<svg width="7" height="10" viewBox="0 0 7 10" fill="none" xmlns="http://www.w3.org/2000/svg">
<path d="M6.048 9.53345C4.136 9.78146 2.648 9.70146 1.584 9.29346C0.528 8.88546 0 8.13345 0 7.03745C0 6.38145 0.176 5.81345 0.528 5.33345C0.888 4.85345 1.4 4.43745 2.064 4.08545C2.032 3.94145 1.98 3.71345 1.908 3.40145C1.836 3.08945 1.756 2.74945 1.668 2.38145C1.58 2.01345 1.492 1.65745 1.404 1.31345C1.316 0.969455 1.24 0.693455 1.176 0.485454C1.144 0.389454 1.152 0.297454 1.2 0.209454C1.256 0.113454 1.336 0.0494542 1.44 0.0174547C1.536 -0.0145454 1.628 -0.00254557 1.716 0.0534542C1.812 0.101455 1.876 0.173455 1.908 0.269454C2.068 0.781454 2.22 1.34945 2.364 1.97345C2.516 2.59745 2.64 3.19345 2.736 3.76145C3.144 3.58545 3.592 3.42145 4.08 3.26945C4.576 3.11745 5.104 2.97745 5.664 2.84945C5.768 2.82545 5.864 2.84145 5.952 2.89745C6.04 2.95345 6.096 3.03345 6.12 3.13745C6.144 3.24145 6.128 3.34145 6.072 3.43745C6.016 3.52545 5.936 3.57745 5.832 3.59345C4.544 3.87345 3.528 4.18545 2.784 4.52945C2.048 4.86545 1.524 5.24145 1.212 5.65745C0.908 6.07345 0.756 6.53745 0.756 7.04945C0.756 7.85745 1.2 8.40545 2.088 8.69345C2.976 8.97345 4.264 9.00145 5.952 8.77745C6.064 8.76145 6.16 8.78545 6.24 8.84945C6.328 8.91346 6.376 8.99745 6.384 9.10145C6.4 9.20545 6.376 9.30145 6.312 9.38945C6.248 9.46945 6.16 9.51746 6.048 9.53345Z" fill="black"/>
</svg>
