<svg width="10" height="8" viewBox="0 0 10 8" fill="none" xmlns="http://www.w3.org/2000/svg">
<path d="M4.116 7.05221C4.012 7.06821 3.916 7.04421 3.828 6.98021C3.748 6.90821 3.7 6.82021 3.684 6.71621C3.668 6.61221 3.692 6.51621 3.756 6.42821C3.828 6.34021 3.916 6.29221 4.02 6.28421C5.02 6.17221 5.844 5.96421 6.492 5.66021C7.148 5.34821 7.632 4.96821 7.944 4.52021C8.264 4.06421 8.424 3.56421 8.424 3.02021C8.424 2.22821 8.18 1.63621 7.692 1.24421C7.212 0.852211 6.512 0.692211 5.592 0.764211C5.232 0.78821 4.828 0.83621 4.38 0.90821C3.932 0.97221 3.472 1.05221 3 1.14821C2.528 1.23621 2.076 1.32821 1.644 1.42421C1.212 1.52021 0.828 1.61621 0.492 1.71221C0.388 1.74421 0.288 1.73221 0.192 1.67621C0.104 1.62021 0.044 1.54021 0.012 1.43621C-0.012 1.33221 1.86265e-08 1.23621 0.0480001 1.14821C0.104 1.05221 0.184 0.98821 0.288 0.95621C0.624 0.860211 1.016 0.764211 1.464 0.668211C1.912 0.57221 2.38 0.48021 2.868 0.392211C3.356 0.304211 3.832 0.228211 4.296 0.164211C4.768 0.0922106 5.188 0.0442105 5.556 0.0202103C6.364 -0.0437893 7.036 0.0442108 7.572 0.284211C8.108 0.51621 8.508 0.87221 8.772 1.35221C9.044 1.82421 9.18 2.38421 9.18 3.03221C9.18 4.07221 8.748 4.95221 7.884 5.67221C7.028 6.38421 5.772 6.84421 4.116 7.05221Z" fill="black"/>
</svg>
