<svg width="6" height="11" viewBox="0 0 6 11" fill="none" xmlns="http://www.w3.org/2000/svg">
<path d="M3.3732 10.6032C3.2932 10.6752 3.1972 10.7072 3.0852 10.6992C2.9812 10.6912 2.8932 10.6472 2.8212 10.5672C2.7572 10.4872 2.7252 10.3912 2.7252 10.2792C2.7332 10.1752 2.7772 10.0872 2.8572 10.0152C3.5212 9.4232 4.0332 8.7392 4.3932 7.9632C4.7532 7.1872 4.9332 6.3672 4.9332 5.5032C4.9332 4.8872 4.7572 4.4072 4.4052 4.0632C4.0612 3.7192 3.5972 3.5472 3.0132 3.5472C2.1972 3.5472 1.4012 3.8872 0.6252 4.5672C0.5452 4.6392 0.4532 4.6752 0.3492 4.6752C0.2452 4.6672 0.1612 4.6232 0.0972 4.5432C0.0252001 4.4552 -0.00679993 4.3592 0.00119997 4.2552C0.00919999 4.1512 0.0532 4.0672 0.1332 4.0032C0.5812 3.6112 1.0532 3.3152 1.5492 3.1152C2.0452 2.9152 2.5292 2.8112 3.0012 2.8032C3.5292 2.8032 3.9932 2.9112 4.3932 3.1272C4.8012 3.3352 5.1212 3.6392 5.3532 4.0392C5.5852 4.4392 5.7012 4.9272 5.7012 5.5032C5.7012 6.4552 5.4972 7.3792 5.0892 8.2752C4.6812 9.1632 4.1092 9.9392 3.3732 10.6032ZM4.6092 1.8552C4.0412 1.7112 3.4732 1.5392 2.9052 1.3392C2.3372 1.1312 1.8452 0.9232 1.4292 0.7152C1.3412 0.6672 1.2772 0.5952 1.2372 0.4992C1.2052 0.3952 1.2132 0.2992 1.2612 0.2112C1.3092 0.1152 1.3812 0.0512002 1.4772 0.0192001C1.5812 -0.0128 1.6812 -0.00480007 1.7772 0.0431998C2.1772 0.2352 2.6412 0.4272 3.1692 0.6192C3.6972 0.8112 4.2412 0.9792 4.8012 1.1232C4.9052 1.1472 4.9812 1.2072 5.0292 1.3032C5.0852 1.3912 5.1012 1.4832 5.0772 1.5792C5.0452 1.6832 4.9852 1.7632 4.8972 1.8192C4.8092 1.8672 4.7132 1.8792 4.6092 1.8552Z" fill="black"/>
</svg>
