<svg width="10" height="11" viewBox="0 0 10 11" fill="none" xmlns="http://www.w3.org/2000/svg">
<path d="M3 10.404C2.896 10.404 2.808 10.368 2.736 10.296C2.664 10.224 2.628 10.136 2.628 10.032V6.18C2.292 6.46 1.956 6.756 1.62 7.068C1.292 7.38 0.96 7.696 0.624 8.016C0.552 8.088 0.464 8.124 0.36 8.124C0.256 8.124 0.168 8.084 0.096 8.004C0.032 7.932 0 7.844 0 7.74C0 7.636 0.04 7.552 0.12 7.488C0.536 7.096 0.952 6.712 1.368 6.336C1.784 5.96 2.204 5.608 2.628 5.28V5.244L2.616 5.232L2.628 5.208V3.084C2.556 3.084 2.46 3.096 2.34 3.12C2.292 3.128 2.184 3.152 2.016 3.192C1.848 3.232 1.66 3.276 1.452 3.324C1.244 3.364 1.052 3.404 0.876 3.444C0.7 3.484 0.58 3.512 0.516 3.528C0.412 3.552 0.316 3.54 0.228 3.492C0.14 3.436 0.084 3.356 0.06 3.252C0.036 3.148 0.048 3.052 0.096 2.964C0.152 2.868 0.232 2.812 0.336 2.796C0.384 2.78 0.5 2.756 0.684 2.724C0.876 2.684 1.084 2.644 1.308 2.604C1.54 2.556 1.748 2.516 1.932 2.484C2.116 2.444 2.232 2.42 2.28 2.412C2.344 2.396 2.404 2.388 2.46 2.388C2.516 2.38 2.572 2.372 2.628 2.364V0.36C2.628 0.256 2.664 0.172 2.736 0.108C2.808 0.036 2.896 0 3 0C3.104 0 3.188 0.036 3.252 0.108C3.324 0.172 3.36 0.256 3.36 0.36V2.508C3.496 2.596 3.608 2.712 3.696 2.856C3.8 3.032 3.832 3.284 3.792 3.612C3.752 3.932 3.652 4.28 3.492 4.656C4.012 4.304 4.536 4.024 5.064 3.816C5.592 3.608 6.12 3.504 6.648 3.504C7.528 3.504 8.224 3.732 8.736 4.188C9.256 4.644 9.516 5.276 9.516 6.084C9.516 6.396 9.46 6.72 9.348 7.056C9.244 7.384 9.052 7.704 8.772 8.016C8.5 8.328 8.112 8.608 7.608 8.856C7.104 9.096 6.452 9.28 5.652 9.408C5.548 9.424 5.452 9.404 5.364 9.348C5.284 9.284 5.236 9.2 5.22 9.096C5.204 8.984 5.224 8.888 5.28 8.808C5.344 8.72 5.428 8.668 5.532 8.652C7.684 8.316 8.76 7.46 8.76 6.084C8.76 5.492 8.572 5.036 8.196 4.716C7.828 4.388 7.312 4.224 6.648 4.224C6.088 4.224 5.536 4.352 4.992 4.608C4.448 4.856 3.904 5.18 3.36 5.58V10.032C3.36 10.136 3.324 10.224 3.252 10.296C3.188 10.368 3.104 10.404 3 10.404Z" fill="black"/>
</svg>
