<svg width="9" height="11" viewBox="0 0 9 11" fill="none" xmlns="http://www.w3.org/2000/svg">
<path d="M7.0572 9.94036C6.0252 10.0764 5.1612 10.1324 4.4652 10.1084C3.7692 10.0844 3.2092 9.99236 2.7852 9.83236C2.3692 9.67236 2.0692 9.46036 1.8852 9.19636C1.7092 8.92436 1.6212 8.62036 1.6212 8.28436C1.6212 7.70036 1.8772 7.16036 2.3892 6.66436C2.9012 6.16836 3.6212 5.73636 4.5492 5.36836C4.3092 4.96836 3.9732 4.72836 3.5412 4.64836C3.1172 4.56036 2.6972 4.61636 2.2812 4.81636C1.8732 5.01636 1.4692 5.32436 1.0692 5.74036C0.9892 5.82036 0.8892 5.86436 0.7692 5.87236C0.6572 5.88036 0.5692 5.84436 0.5052 5.76436C0.4332 5.68436 0.3972 5.59236 0.3972 5.48836C0.4052 5.37636 0.4492 5.28836 0.5292 5.22436C1.0012 4.83236 1.4172 4.38436 1.7772 3.88036C2.1372 3.37636 2.4332 2.85636 2.6652 2.32036C2.2412 2.32836 1.8292 2.33636 1.4292 2.34436C1.0292 2.34436 0.6772 2.34036 0.3732 2.33236C0.2692 2.32436 0.1772 2.28436 0.0972 2.21236C0.0252 2.14036 -0.00680001 2.05236 0.0012 1.94836C0.0012 1.83636 0.0412 1.74836 0.1212 1.68436C0.2012 1.61236 0.2932 1.58036 0.3972 1.58836C0.7412 1.60436 1.1332 1.61236 1.5732 1.61236C2.0212 1.61236 2.4772 1.60436 2.9412 1.58836C3.0132 1.37236 3.0732 1.16036 3.1212 0.952363C3.1692 0.744364 3.2092 0.540364 3.2412 0.340364C3.2572 0.236364 3.3012 0.152364 3.3732 0.0883639C3.4532 0.0163639 3.5452 -0.0116363 3.6492 0.00436353C3.7532 0.0123634 3.8372 0.0603635 3.9012 0.148364C3.9652 0.228364 3.9892 0.320364 3.9732 0.424364C3.9252 0.792364 3.8412 1.17236 3.7212 1.56436C4.1212 1.54836 4.5052 1.52436 4.8732 1.49236C5.2492 1.46036 5.5892 1.42836 5.8932 1.39636C5.9972 1.38036 6.0892 1.40436 6.1692 1.46836C6.2572 1.53236 6.3052 1.61636 6.3132 1.72036C6.3292 1.82436 6.3052 1.91636 6.2412 1.99636C6.1772 2.07636 6.0892 2.12436 5.9772 2.14036C5.6332 2.17236 5.2412 2.20436 4.8012 2.23636C4.3692 2.26036 3.9252 2.28036 3.4692 2.29636C3.2052 2.93636 2.8652 3.54836 2.4492 4.13236C2.6812 4.04436 2.9052 3.99236 3.1212 3.97636C3.3452 3.95236 3.5572 3.95636 3.7572 3.98836C4.0612 4.02836 4.3452 4.14036 4.6092 4.32436C4.8732 4.50836 5.0972 4.77236 5.2812 5.11636C5.7132 4.98036 6.1772 4.85636 6.6732 4.74436C7.1692 4.63236 7.6972 4.53636 8.2572 4.45636C8.3692 4.44036 8.4652 4.46436 8.5452 4.52836C8.6332 4.58436 8.6812 4.66436 8.6892 4.76836C8.7052 4.87236 8.6812 4.96436 8.6172 5.04436C8.5532 5.12436 8.4692 5.17236 8.3652 5.18836C7.8292 5.26036 7.3252 5.34836 6.8532 5.45236C6.3812 5.54836 5.9452 5.65636 5.5452 5.77636C5.7052 6.28036 5.7852 6.88436 5.7852 7.58836C5.7852 7.69236 5.7492 7.78436 5.6772 7.86436C5.6052 7.93636 5.5172 7.97236 5.4132 7.97236C5.3092 7.97236 5.2172 7.93636 5.1372 7.86436C5.0652 7.78436 5.0292 7.69236 5.0292 7.58836C5.0292 7.28436 5.0132 7.00436 4.9812 6.74836C4.9492 6.48436 4.9012 6.24036 4.8372 6.01636C4.0212 6.32836 3.4052 6.68036 2.9892 7.07236C2.5812 7.46436 2.3772 7.86836 2.3772 8.28436C2.3772 8.57236 2.5252 8.81636 2.8212 9.01636C3.1252 9.20836 3.6132 9.32836 4.2852 9.37636C4.9572 9.41636 5.8492 9.36036 6.9612 9.20836C7.0652 9.19236 7.1572 9.21636 7.2372 9.28036C7.3252 9.33636 7.3732 9.41636 7.3812 9.52036C7.3972 9.62436 7.3732 9.71636 7.3092 9.79636C7.2452 9.87636 7.1612 9.92436 7.0572 9.94036Z" fill="black"/>
</svg>
