<svg width="11" height="10" viewBox="0 0 11 10" fill="none" xmlns="http://www.w3.org/2000/svg">
<path d="M5.15733 9.89782C5.05333 9.90582 4.95733 9.87782 4.86933 9.81382C4.78933 9.74982 4.74133 9.66582 4.72533 9.56182C4.62133 8.76182 4.44933 7.88582 4.20933 6.93382C3.96933 5.97382 3.68533 5.03382 3.35733 4.11382C2.84533 4.28982 2.34533 4.46582 1.85733 4.64182C1.36933 4.80982 0.921333 4.96582 0.513333 5.10982C0.409333 5.14182 0.309333 5.13782 0.213333 5.09782C0.125333 5.04982 0.0613333 4.97382 0.0213333 4.86982C-0.0106667 4.77382 -0.00666667 4.67782 0.0333333 4.58182C0.0813333 4.48582 0.157333 4.42182 0.261333 4.38982C0.669333 4.25382 1.11733 4.10182 1.60533 3.93382C2.09333 3.76582 2.59333 3.59782 3.10533 3.42982C2.94533 3.02182 2.77733 2.62982 2.60133 2.25382C2.43333 1.86982 2.25733 1.51382 2.07333 1.18582C2.02533 1.09782 2.01733 1.00182 2.04933 0.897818C2.08133 0.793818 2.14133 0.717818 2.22933 0.669818C2.31733 0.621819 2.41333 0.613818 2.51733 0.645818C2.62133 0.669818 2.69733 0.729818 2.74533 0.825819C2.92933 1.16982 3.10933 1.54182 3.28533 1.94182C3.46133 2.34182 3.63333 2.76182 3.80133 3.20182C4.34533 3.02582 4.87733 2.86182 5.39733 2.70982C5.92533 2.54982 6.40933 2.41382 6.84933 2.30182C7.61733 2.09382 8.27333 2.04182 8.81733 2.14582C9.36133 2.24182 9.77733 2.46182 10.0653 2.80582C10.3533 3.14982 10.4973 3.59782 10.4973 4.14982C10.4973 4.67782 10.3693 5.12182 10.1133 5.48182C9.86533 5.83382 9.52533 6.08982 9.09333 6.24982C8.66133 6.40182 8.17733 6.43782 7.64133 6.35782C7.10533 6.26982 6.54933 6.04582 5.97333 5.68582C5.88533 5.62982 5.82533 5.55382 5.79333 5.45782C5.76933 5.35382 5.78533 5.25782 5.84133 5.16982C5.90533 5.08182 5.98533 5.02582 6.08133 5.00182C6.18533 4.96982 6.28133 4.98582 6.36933 5.04982C6.97733 5.42582 7.53333 5.62582 8.03733 5.64982C8.54933 5.67382 8.95733 5.55382 9.26133 5.28982C9.56533 5.02582 9.71733 4.64582 9.71733 4.14982C9.71733 3.60582 9.49333 3.22582 9.04533 3.00982C8.60533 2.79382 7.92933 2.79782 7.01733 3.02182C6.57733 3.12582 6.10133 3.25382 5.58933 3.40582C5.08533 3.55782 4.57333 3.71782 4.05333 3.88582C4.27733 4.50182 4.48133 5.13782 4.66533 5.79382C4.85733 6.44182 5.02133 7.07782 5.15733 7.70182C5.30133 8.32582 5.40933 8.91382 5.48133 9.46582C5.49733 9.56982 5.47333 9.66182 5.40933 9.74182C5.34533 9.82982 5.26133 9.88182 5.15733 9.89782ZM6.38133 2.02582C6.30133 2.08182 6.20933 2.09782 6.10533 2.07382C6.00133 2.04982 5.91733 1.99782 5.85333 1.91782L4.98933 0.597819C4.93333 0.509818 4.91733 0.413818 4.94133 0.309818C4.96533 0.205818 5.01733 0.125818 5.09733 0.0698182C5.18533 0.0058181 5.28133 -0.0141819 5.38533 0.00981829C5.48933 0.0338185 5.56933 0.0898184 5.62533 0.177818L6.48933 1.49782C6.55333 1.57782 6.57333 1.66982 6.54933 1.77382C6.52533 1.87782 6.46933 1.96182 6.38133 2.02582Z" fill="black"/>
</svg>
