<svg width="8" height="10" viewBox="0 0 8 10" fill="none" xmlns="http://www.w3.org/2000/svg">
<path d="M1.8 9.66C1.216 9.66 0.768 9.508 0.456 9.204C0.152 8.892 0 8.532 0 8.124C0 7.7 0.16 7.34 0.48 7.044C0.808 6.74 1.312 6.588 1.992 6.588C2.192 6.588 2.4 6.6 2.616 6.624C2.84 6.648 3.064 6.68 3.288 6.72C3.264 6.24 3.232 5.72 3.192 5.16C3.16 4.6 3.124 4.036 3.084 3.468C3.044 2.892 3.012 2.34 2.988 1.812C2.964 1.276 2.952 0.8 2.952 0.384C2.952 0.272 2.988 0.18 3.06 0.108C3.132 0.036 3.22 0 3.324 0C3.436 0 3.528 0.036 3.6 0.108C3.672 0.18 3.708 0.272 3.708 0.384C3.708 0.688 3.716 1.04 3.732 1.44C3.748 1.84 3.768 2.264 3.792 2.712C3.984 2.68 4.216 2.644 4.488 2.604C4.768 2.556 5.048 2.504 5.328 2.448C5.616 2.392 5.876 2.344 6.108 2.304C6.34 2.256 6.512 2.216 6.624 2.184C6.736 2.16 6.836 2.176 6.924 2.232C7.012 2.28 7.072 2.356 7.104 2.46C7.128 2.564 7.112 2.664 7.056 2.76C7.008 2.856 6.932 2.916 6.828 2.94C6.676 2.972 6.476 3.012 6.228 3.06C5.98 3.1 5.712 3.144 5.424 3.192C5.136 3.24 4.852 3.284 4.572 3.324C4.292 3.364 4.048 3.396 3.84 3.42C3.88 4.028 3.92 4.636 3.96 5.244C4 5.852 4.032 6.4 4.056 6.888C4.624 7.032 5.184 7.224 5.736 7.464C6.288 7.696 6.784 7.956 7.224 8.244C7.312 8.3 7.364 8.384 7.38 8.496C7.404 8.608 7.384 8.708 7.32 8.796C7.264 8.884 7.18 8.94 7.068 8.964C6.956 8.98 6.856 8.96 6.768 8.904C6.376 8.64 5.948 8.4 5.484 8.184C5.02 7.968 4.552 7.788 4.08 7.644V7.92C4.08 8.416 3.9 8.832 3.54 9.168C3.18 9.496 2.6 9.66 1.8 9.66ZM1.8 8.94C2.28 8.94 2.652 8.856 2.916 8.688C3.188 8.52 3.324 8.264 3.324 7.92V7.464C3.092 7.416 2.864 7.38 2.64 7.356C2.416 7.324 2.2 7.308 1.992 7.308C1.576 7.308 1.268 7.388 1.068 7.548C0.868 7.7 0.768 7.892 0.768 8.124C0.768 8.34 0.852 8.532 1.02 8.7C1.196 8.86 1.456 8.94 1.8 8.94Z" fill="black"/>
</svg>
