<svg width="10" height="11" viewBox="0 0 10 11" fill="none" xmlns="http://www.w3.org/2000/svg">
<path d="M3.984 10.5912C3.904 10.6552 3.812 10.6832 3.708 10.6752C3.604 10.6672 3.516 10.6232 3.444 10.5432C3.38 10.4632 3.352 10.3712 3.36 10.2672C3.368 10.1632 3.412 10.0792 3.492 10.0152C3.932 9.6312 4.296 9.1232 4.584 8.4912C4.072 8.2992 3.628 7.9792 3.252 7.5312C2.876 7.0752 2.652 6.4832 2.58 5.7552C2.572 5.6512 2.596 5.5592 2.652 5.4792C2.716 5.3992 2.8 5.3552 2.904 5.3472C3.008 5.3392 3.1 5.3672 3.18 5.4312C3.26 5.4952 3.304 5.5792 3.312 5.6832C3.376 6.2672 3.552 6.7352 3.84 7.0872C4.128 7.4312 4.46 7.6752 4.836 7.8192C5.068 7.1152 5.212 6.3432 5.268 5.5032C5.332 4.6632 5.32 3.8312 5.232 3.0072C4.696 3.0792 4.188 3.2632 3.708 3.5592C3.228 3.8472 2.796 4.2072 2.412 4.6392C2.036 5.0712 1.72 5.5512 1.464 6.0792C1.216 6.5992 1.044 7.1312 0.948 7.6752C0.94 7.7632 0.896 7.8352 0.816 7.8912C0.744 7.9472 0.664 7.9752 0.576 7.9752C0.48 7.9672 0.396 7.9352 0.324 7.8792C0.26 7.8152 0.224 7.7352 0.216 7.6392C0.168 7.2152 0.128 6.7592 0.0959999 6.2712C0.064 5.7832 0.04 5.2992 0.024 4.8192C0.00799999 4.3392 0 3.8912 0 3.4752C0 3.0512 0.00799999 2.6952 0.024 2.4072C0.032 2.3032 0.072 2.2192 0.144 2.1552C0.224 2.0832 0.316 2.0512 0.42 2.0592C0.524 2.0592 0.608 2.0992 0.672 2.1792C0.744 2.2512 0.776 2.3392 0.768 2.4432C0.76 2.6992 0.752 3.0192 0.744 3.4032C0.736 3.7872 0.732 4.2032 0.732 4.6512C0.74 5.0992 0.752 5.5552 0.768 6.0192C1.056 5.3232 1.42 4.7112 1.86 4.1832C2.308 3.6552 2.812 3.2312 3.372 2.9112C3.932 2.5832 4.52 2.3792 5.136 2.2992C5.04 1.6592 4.896 1.0592 4.704 0.4992C4.672 0.4032 4.68 0.3072 4.728 0.2112C4.776 0.1152 4.848 0.0511997 4.944 0.0191996C5.048 -0.0128 5.144 -0.00479981 5.232 0.0432C5.328 0.0911999 5.392 0.1632 5.424 0.2592C5.536 0.5712 5.628 0.8952 5.7 1.2312C5.78 1.5672 5.848 1.9112 5.904 2.2632C6.536 2.2872 7.096 2.4352 7.584 2.7072C8.08 2.9712 8.468 3.3352 8.748 3.7992C9.028 4.2552 9.168 4.7872 9.168 5.3952C9.168 5.9152 9.072 6.3792 8.88 6.7872C8.688 7.1952 8.428 7.5432 8.1 7.8312C7.78 8.1112 7.416 8.3272 7.008 8.4792C6.6 8.6232 6.18 8.6952 5.748 8.6952C5.612 8.6952 5.464 8.6832 5.304 8.6592C5.144 9.0512 4.952 9.4112 4.728 9.7392C4.512 10.0752 4.264 10.3592 3.984 10.5912ZM5.772 7.9872C6.252 7.9872 6.692 7.8792 7.092 7.6632C7.492 7.4392 7.812 7.1312 8.052 6.7392C8.292 6.3472 8.412 5.8992 8.412 5.3952C8.412 4.9152 8.304 4.5032 8.088 4.1592C7.872 3.8072 7.58 3.5312 7.212 3.3312C6.852 3.1312 6.444 3.0152 5.988 2.9832C6.076 3.8312 6.084 4.6912 6.012 5.5632C5.94 6.4272 5.788 7.2312 5.556 7.9752C5.596 7.9832 5.632 7.9872 5.664 7.9872C5.704 7.9872 5.74 7.9872 5.772 7.9872Z" fill="black"/>
</svg>
