<svg width="8" height="30" viewBox="0 0 8 30" fill="none" xmlns="http://www.w3.org/2000/svg">
<path d="M2.208 15.296V29.056C2.208 29.3547 2.05867 29.504 1.76 29.504H0.448C0.149333 29.504 0 29.3547 0 29.056V0.448C0 0.149333 0.149333 0 0.448 0H1.76C2.05867 0 2.208 0.149333 2.208 0.448V13.376H6.624C6.752 13.376 6.85867 13.4187 6.944 13.504C7.05067 13.568 7.104 13.664 7.104 13.792V14.88C7.104 14.9867 7.05067 15.0827 6.944 15.168C6.85867 15.2533 6.752 15.296 6.624 15.296H2.208Z" fill="#1A1A1A"/>
</svg>
