<svg width="11" height="30" viewBox="0 0 11 30" fill="none" xmlns="http://www.w3.org/2000/svg">
<path d="M8.128 13.344V0.448C8.128 0.149333 8.27733 0 8.576 0H9.792C10.0907 0 10.24 0.149333 10.24 0.448V29.056C10.24 29.3547 10.0907 29.504 9.792 29.504H8.576C8.27733 29.504 8.128 29.3547 8.128 29.056V15.264H2.112V27.84C2.112 28.1387 1.96267 28.288 1.664 28.288H0.448C0.149333 28.288 0 28.1387 0 27.84V0.992001C0 0.693334 0.149333 0.544001 0.448 0.544001H1.664C1.96267 0.544001 2.112 0.693334 2.112 0.992001V13.344H8.128Z" fill="#1A1A1A"/>
</svg>
