<svg width="16" height="14" viewBox="0 0 16 14" fill="none" xmlns="http://www.w3.org/2000/svg">
<path d="M2.4 13.376C1.888 13.376 1.472 13.344 1.152 13.28C0.853333 13.216 0.618667 13.0987 0.448 12.928C0.277333 12.736 0.16 12.5013 0.0960002 12.224C0.0320001 11.9253 0 11.552 0 11.104V0.352001C0 0.245335 0.0426668 0.160001 0.128 0.0960007C0.213333 0.0320002 0.309333 0 0.416 0H1.824C1.93067 0 2.016 0.0426668 2.08 0.128C2.16533 0.192001 2.208 0.266668 2.208 0.352001V4.544H13.024V0.416C13.024 0.309334 13.056 0.213334 13.12 0.128C13.2053 0.0426668 13.3013 0 13.408 0H14.816C14.9227 0 15.0187 0.0426668 15.104 0.128C15.1893 0.192001 15.232 0.277334 15.232 0.384001V11.328C15.232 12.1387 15.0613 12.6827 14.72 12.96C14.3787 13.2373 13.7387 13.376 12.8 13.376H2.4ZM2.208 6.464V10.688C2.208 11.008 2.26133 11.2213 2.368 11.328C2.47467 11.4133 2.67733 11.456 2.976 11.456H12.256C12.5547 11.456 12.7573 11.4133 12.864 11.328C12.9707 11.2213 13.024 11.008 13.024 10.688V6.464H2.208Z" fill="#1A1A1A"/>
</svg>
