<svg width="20" height="17" viewBox="0 0 20 17" fill="none" xmlns="http://www.w3.org/2000/svg">
<path d="M12.2347 11.2C12.512 11.392 12.8 11.5947 13.0987 11.808C13.7173 12.2347 14.3467 12.64 14.9867 13.024C15.648 13.408 16.3093 13.76 16.9707 14.08C17.632 14.3787 18.2507 14.624 18.8267 14.816C19.1253 14.9227 19.1893 15.136 19.0187 15.456L18.4747 16.448C18.304 16.704 18.0693 16.7573 17.7707 16.608C16.4693 16.0747 15.168 15.4133 13.8667 14.624C12.672 13.92 11.552 13.1627 10.5067 12.352C10.4427 12.3947 10.3787 12.4373 10.3147 12.48C9.056 13.2693 7.68 14.0267 6.18667 14.752C4.69333 15.456 3.04 16.1387 1.22667 16.8C1.03467 16.864 0.896 16.896 0.810667 16.896C0.746667 16.8747 0.682667 16.8107 0.618667 16.704L0.0746667 15.584C-0.0746667 15.328 0 15.1467 0.298667 15.04C3.47733 13.8667 6.21867 12.608 8.52267 11.264C10.848 9.89867 12.8 8.49067 14.3787 7.04C14.5707 6.86933 14.6133 6.688 14.5067 6.496C14.4213 6.304 14.1973 6.208 13.8347 6.208H1.51467C1.25867 6.208 1.13067 6.06933 1.13067 5.792V4.672C1.13067 4.416 1.25867 4.288 1.51467 4.288H14.6987C15.3387 4.288 15.8613 4.384 16.2667 4.576C16.6933 4.768 17.0027 5.01333 17.1947 5.312C17.3867 5.58933 17.4507 5.90933 17.3867 6.272C17.344 6.61333 17.152 6.95467 16.8107 7.296C15.8507 8.256 14.848 9.16267 13.8027 10.016C13.2907 10.4213 12.768 10.816 12.2347 11.2ZM12.6187 0C12.9387 0 13.0987 0.149333 13.0987 0.448V1.472C13.0987 1.792 12.9387 1.952 12.6187 1.952H5.38667C5.06667 1.952 4.90667 1.792 4.90667 1.472V0.448C4.90667 0.149333 5.06667 0 5.38667 0H12.6187Z" fill="#1A1A1A"/>
</svg>
