<svg width="16" height="14" viewBox="0 0 16 14" fill="none" xmlns="http://www.w3.org/2000/svg">
<path d="M15.712 12.864C15.712 13.1627 15.5733 13.312 15.296 13.312H2.432C1.49333 13.312 0.853333 13.1627 0.512 12.864C0.170667 12.544 0 11.936 0 11.04V2.272C0 1.376 0.170667 0.778668 0.512 0.480001C0.853333 0.16 1.49333 0 2.432 0H14.752C15.0293 0 15.168 0.138667 15.168 0.416V1.472C15.168 1.77067 15.0293 1.92 14.752 1.92H3.008C2.70933 1.92 2.50667 1.984 2.4 2.112C2.29333 2.21867 2.24 2.432 2.24 2.752V10.56C2.24 10.8587 2.29333 11.072 2.4 11.2C2.50667 11.328 2.70933 11.392 3.008 11.392H15.296C15.5733 11.392 15.712 11.5307 15.712 11.808V12.864Z" fill="#1A1A1A"/>
</svg>
