<svg width="14" height="30" viewBox="0 0 14 30" fill="none" xmlns="http://www.w3.org/2000/svg">
<path d="M13.184 29.056C13.184 29.3547 13.0347 29.504 12.736 29.504H11.52C11.2213 29.504 11.072 29.3547 11.072 29.056V0.448C11.072 0.149333 11.2213 0 11.52 0H12.736C13.0347 0 13.184 0.149333 13.184 0.448V29.056ZM5.408 12.288V0.992001C5.408 0.693334 5.55733 0.544001 5.856 0.544001H7.072C7.37067 0.544001 7.52 0.693334 7.52 0.992001V27.84C7.52 28.1387 7.37067 28.288 7.072 28.288H5.856C5.55733 28.288 5.408 28.1387 5.408 27.84V14.208H0.416C0.138667 14.208 0 14.08 0 13.824V12.672C0 12.416 0.138667 12.288 0.416 12.288H5.408Z" fill="#1A1A1A"/>
</svg>
