<svg width="7" height="6" viewBox="0 0 7 6" fill="none" xmlns="http://www.w3.org/2000/svg">
<path d="M6.89062 3.21094C6.89062 3.32812 6.88281 3.48828 6.86719 3.69141C6.85938 3.89453 6.84766 4.10938 6.83203 4.33594C6.81641 4.5625 6.79297 4.78516 6.76172 5.00391C6.73828 5.22266 6.71484 5.40234 6.69141 5.54297L6.17578 5.625C6.16016 5.48438 6.14453 5.31641 6.12891 5.12109C6.12109 4.91797 6.11328 4.71094 6.10547 4.5C6.09766 4.28906 6.08984 4.09375 6.08203 3.91406C6.08203 3.72656 6.08203 3.57812 6.08203 3.46875V0.550781C5.77734 0.542969 5.43359 0.542969 5.05078 0.550781C4.67578 0.550781 4.28906 0.5625 3.89062 0.585938C3.5 0.601562 3.11328 0.621094 2.73047 0.644531C2.35547 0.667969 2.01172 0.691406 1.69922 0.714844C1.44922 0.730469 1.22656 0.75 1.03125 0.773438C0.835938 0.796875 0.609375 0.828125 0.351562 0.867188L0 0.128906C0.226562 0.160156 0.460938 0.1875 0.703125 0.210938C0.953125 0.234375 1.19531 0.246094 1.42969 0.246094C1.83594 0.246094 2.29297 0.242188 2.80078 0.234375C3.31641 0.21875 3.82812 0.199219 4.33594 0.175781C4.85156 0.152344 5.33984 0.125 5.80078 0.09375C6.26172 0.0625 6.64453 0.03125 6.94922 0C6.93359 0.101562 6.92188 0.1875 6.91406 0.257812C6.91406 0.320312 6.91016 0.378906 6.90234 0.433594C6.89453 0.480469 6.89062 0.53125 6.89062 0.585938C6.89062 0.632812 6.89062 0.6875 6.89062 0.75V3.21094Z" fill="#1A1A1A"/>
</svg>
