<svg width="16" height="15" viewBox="0 0 16 15" fill="none" xmlns="http://www.w3.org/2000/svg">
<path d="M0 0.383999C0 0.255999 0.0533333 0.159999 0.16 0.0959988C0.266667 0.0319996 0.373333 0 0.48 0H12.64C13.6427 0 14.2933 0.192 14.592 0.576C14.912 0.938666 15.072 1.55733 15.072 2.432V13.6C15.072 13.8987 14.9227 14.048 14.624 14.048H13.312C13.0133 14.048 12.864 13.8987 12.864 13.6V2.592C12.864 2.29333 12.8107 2.112 12.704 2.048C12.6187 1.96267 12.4267 1.92 12.128 1.92H0.48C0.373333 1.92 0.266667 1.888 0.16 1.824C0.0533333 1.73867 0 1.64267 0 1.536V0.383999Z" fill="#1A1A1A"/>
</svg>
