<svg width="18" height="18" viewBox="0 0 18 18" fill="none" xmlns="http://www.w3.org/2000/svg">
<path d="M13.44 1.536C13.44 1.83467 13.28 1.984 12.96 1.984H4.512C4.40533 1.984 4.29867 1.952 4.192 1.888C4.10667 1.80267 4.064 1.696 4.064 1.568V0.448C4.064 0.32 4.10667 0.213334 4.192 0.128C4.27733 0.0426668 4.37333 0 4.48 0H12.96C13.28 0 13.44 0.149333 13.44 0.448V1.536ZM17.952 5.216C17.952 5.49333 17.792 5.632 17.472 5.632H0.448C0.341333 5.632 0.234667 5.58933 0.128 5.504C0.0426666 5.41867 0 5.312 0 5.184V4.192C0 4.064 0.0426666 3.95733 0.128 3.872C0.234667 3.78667 0.341333 3.744 0.448 3.744H17.472C17.792 3.744 17.952 3.88267 17.952 4.16V5.216ZM15.904 12.224C15.904 13.0133 15.7227 13.7387 15.36 14.4C15.0187 15.04 14.5387 15.5947 13.92 16.064C13.3013 16.512 12.5653 16.864 11.712 17.12C10.8587 17.376 9.94133 17.504 8.96 17.504C7.95733 17.504 7.02933 17.376 6.176 17.12C5.344 16.864 4.61867 16.512 4 16.064C3.38133 15.5947 2.89067 15.04 2.528 14.4C2.18667 13.7387 2.016 13.0133 2.016 12.224C2.016 11.4347 2.18667 10.72 2.528 10.08C2.89067 9.41867 3.38133 8.864 4 8.416C4.61867 7.94667 5.344 7.59467 6.176 7.36C7.02933 7.104 7.95733 6.976 8.96 6.976C9.94133 6.976 10.8587 7.104 11.712 7.36C12.5653 7.616 13.3013 7.97867 13.92 8.448C14.5387 8.896 15.0187 9.44 15.36 10.08C15.7227 10.72 15.904 11.4347 15.904 12.224ZM13.728 12.288C13.728 11.2 13.28 10.3573 12.384 9.76C11.488 9.14133 10.3467 8.832 8.96 8.832C8.27733 8.832 7.63733 8.91733 7.04 9.088C6.464 9.23733 5.96267 9.46133 5.536 9.76C5.10933 10.0373 4.768 10.4 4.512 10.848C4.27733 11.2747 4.16 11.7547 4.16 12.288C4.16 12.8213 4.27733 13.3013 4.512 13.728C4.768 14.1547 5.10933 14.5173 5.536 14.816C5.96267 15.1147 6.464 15.3493 7.04 15.52C7.63733 15.6693 8.27733 15.744 8.96 15.744C10.3467 15.744 11.488 15.4347 12.384 14.816C13.28 14.1973 13.728 13.3547 13.728 12.288Z" fill="#1A1A1A"/>
</svg>
