<svg width="17" height="16" viewBox="0 0 17 16" fill="none" xmlns="http://www.w3.org/2000/svg">
<path d="M16.032 7.68C16.032 8.74667 15.8293 9.74933 15.424 10.688C15.0187 11.6053 14.4533 12.4053 13.728 13.088C13.0027 13.7707 12.1387 14.304 11.136 14.688C10.1547 15.072 9.088 15.264 7.936 15.264C6.80533 15.264 5.74933 15.072 4.768 14.688C3.808 14.304 2.976 13.7707 2.272 13.088C1.568 12.4053 1.01333 11.6053 0.608 10.688C0.202667 9.77067 0 8.768 0 7.68C0 6.464 0.202667 5.38667 0.608 4.448C1.01333 3.488 1.568 2.67733 2.272 2.016C2.976 1.35467 3.808 0.853333 4.768 0.511999C5.74933 0.170666 6.80533 0 7.936 0C9.00267 0 10.0267 0.181333 11.008 0.543999C11.9893 0.885333 12.8533 1.38667 13.6 2.048C14.3467 2.70933 14.9333 3.52 15.36 4.48C15.808 5.41867 16.032 6.48533 16.032 7.68ZM13.664 7.648C13.664 6.77333 13.504 6.00533 13.184 5.344C12.864 4.68267 12.4373 4.128 11.904 3.68C11.392 3.232 10.784 2.89067 10.08 2.656C9.39733 2.42133 8.68267 2.304 7.936 2.304C7.168 2.304 6.44267 2.42133 5.76 2.656C5.07733 2.89067 4.48 3.232 3.968 3.68C3.456 4.128 3.05067 4.69333 2.752 5.376C2.45333 6.03733 2.304 6.79467 2.304 7.648C2.304 8.45867 2.44267 9.20533 2.72 9.888C3.01867 10.5493 3.41333 11.1147 3.904 11.584C4.416 12.0533 5.01333 12.416 5.696 12.672C6.37867 12.928 7.12533 13.056 7.936 13.056C8.68267 13.056 9.39733 12.928 10.08 12.672C10.784 12.3947 11.392 12.0213 11.904 11.552C12.4373 11.0613 12.864 10.4853 13.184 9.824C13.504 9.16267 13.664 8.43733 13.664 7.648Z" fill="#1A1A1A"/>
</svg>
