<svg width="21" height="16" viewBox="0 0 21 16" fill="none" xmlns="http://www.w3.org/2000/svg">
<path d="M9.95576 9.344C9.87043 9.38667 9.79576 9.44 9.73176 9.504C8.55843 10.4213 7.2891 11.328 5.92377 12.224C4.55843 13.0987 3.01177 14.0267 1.28376 15.008C1.00643 15.1573 0.793098 15.104 0.643765 14.848L0.0677646 13.92C-0.0602353 13.6427 -0.00690188 13.44 0.227765 13.312C1.80643 12.416 3.23576 11.5627 4.51576 10.752C5.8171 9.94133 7.01176 9.12 8.09976 8.288C9.18776 7.43467 10.2011 6.54933 11.1398 5.632C12.0998 4.71467 13.0384 3.72267 13.9558 2.656C14.1691 2.42133 14.2651 2.24 14.2438 2.112C14.2438 1.984 14.0731 1.92 13.7318 1.92H1.89176C1.61443 1.92 1.47576 1.78133 1.47576 1.504V0.384001C1.47576 0.128 1.61443 0 1.89176 0H14.5958C15.4278 0 16.0678 0.0853335 16.5158 0.256001C16.9851 0.405334 17.2838 0.629335 17.4118 0.928001C17.5398 1.20533 17.5184 1.54667 17.3478 1.952C17.1771 2.35733 16.8678 2.79467 16.4198 3.264C15.2891 4.48 14.1904 5.58933 13.1238 6.592C12.6118 7.08267 12.0891 7.552 11.5558 8C12.0464 8.32 12.5584 8.62933 13.0918 8.928C13.8811 9.41867 14.6811 9.888 15.4918 10.336C16.3024 10.784 17.1238 11.2107 17.9558 11.616C18.7878 12 19.6091 12.3307 20.4198 12.608C20.6118 12.672 20.7184 12.7467 20.7398 12.832C20.7611 12.896 20.7291 12.992 20.6438 13.12L20.1318 14.24C20.0464 14.4747 19.8438 14.5173 19.5238 14.368C17.7958 13.7493 15.9611 12.8853 14.0198 11.776C12.6331 11.008 11.2784 10.1973 9.95576 9.344Z" fill="#1A1A1A"/>
</svg>
