<svg width="16" height="15" viewBox="0 0 16 15" fill="none" xmlns="http://www.w3.org/2000/svg">
<path d="M13.216 6.688V2.592C13.216 2.29333 13.1627 2.112 13.056 2.048C12.9707 1.96267 12.7787 1.92 12.48 1.92H0.48C0.373333 1.92 0.266666 1.888 0.16 1.824C0.0533333 1.73867 0 1.64267 0 1.536V0.383999C0 0.255999 0.0533333 0.159999 0.16 0.0959988C0.266666 0.0319996 0.373333 0 0.48 0H12.992C13.9947 0 14.6453 0.192 14.944 0.576C15.264 0.938666 15.424 1.55733 15.424 2.432V14.208C15.424 14.5067 15.2747 14.656 14.976 14.656H13.664C13.3653 14.656 13.216 14.5067 13.216 14.208V8.512H0.96C0.661333 8.512 0.512 8.39467 0.512 8.16V7.104C0.512 6.82667 0.650666 6.688 0.928 6.688H13.216Z" fill="#1A1A1A"/>
</svg>
