<svg width="16" height="13" viewBox="0 0 16 13" fill="none" xmlns="http://www.w3.org/2000/svg">
<path d="M0 2.272C0 1.376 0.170667 0.778668 0.512 0.480001C0.853333 0.16 1.49333 0 2.432 0H12.8C13.312 0 13.7173 0.0320002 14.016 0.0960007C14.336 0.160001 14.5813 0.277334 14.752 0.448C14.944 0.618667 15.072 0.853334 15.136 1.152C15.2 1.45067 15.232 1.824 15.232 2.272V10.688C15.232 11.584 15.0613 12.192 14.72 12.512C14.3787 12.8107 13.7387 12.96 12.8 12.96H2.432C1.92 12.96 1.504 12.928 1.184 12.864C0.885334 12.8 0.64 12.6827 0.448 12.512C0.277333 12.32 0.16 12.0853 0.0960002 11.808C0.0320001 11.5093 0 11.136 0 10.688V2.272ZM2.976 1.92C2.67733 1.92 2.47467 1.984 2.368 2.112C2.26133 2.21867 2.208 2.432 2.208 2.752V10.208C2.208 10.528 2.26133 10.752 2.368 10.88C2.47467 10.9867 2.67733 11.04 2.976 11.04H12.256C12.5547 11.04 12.7573 10.9867 12.864 10.88C12.9707 10.752 13.024 10.528 13.024 10.208V2.752C13.024 2.432 12.9707 2.21867 12.864 2.112C12.7573 1.984 12.5547 1.92 12.256 1.92H2.976Z" fill="#1A1A1A"/>
</svg>
