<svg width="16" height="14" viewBox="0 0 16 14" fill="none" xmlns="http://www.w3.org/2000/svg">
<path d="M15.2 13.152C15.2 13.28 15.1467 13.376 15.04 13.44C14.9333 13.504 14.8267 13.536 14.72 13.536H2.432C1.42933 13.536 0.768 13.3547 0.448 12.992C0.149333 12.608 0 11.9787 0 11.104V0.448C0 0.149333 0.149333 0 0.448 0H1.76C2.05867 0 2.208 0.149333 2.208 0.448V10.944C2.208 11.2427 2.25067 11.4347 2.336 11.52C2.44267 11.584 2.64533 11.616 2.944 11.616H14.72C14.8267 11.616 14.9333 11.6587 15.04 11.744C15.1467 11.808 15.2 11.8933 15.2 12V13.152Z" fill="#1A1A1A"/>
</svg>
