<svg width="28" height="13" viewBox="0 0 28 13" fill="none" xmlns="http://www.w3.org/2000/svg">
<path d="M12.608 10.304V0.48C12.608 0.352 12.64 0.245333 12.704 0.16C12.7893 0.0533333 12.896 0 13.024 0H14.4C14.5067 0 14.6027 0.0533333 14.688 0.16C14.7733 0.245333 14.816 0.352 14.816 0.48V10.304H27.04C27.1467 10.304 27.2533 10.3467 27.36 10.432C27.4667 10.496 27.52 10.592 27.52 10.72V11.808C27.52 11.9147 27.4667 12.0107 27.36 12.096C27.2533 12.1813 27.1467 12.224 27.04 12.224H0.48C0.352 12.224 0.234667 12.1813 0.128 12.096C0.0426667 12.0107 0 11.9147 0 11.808V10.72C0 10.592 0.0426667 10.496 0.128 10.432C0.234667 10.3467 0.352 10.304 0.48 10.304H12.608Z" fill="#1A1A1A"/>
</svg>
