<svg width="24" height="30" viewBox="0 0 24 30" fill="none" xmlns="http://www.w3.org/2000/svg">
<path d="M8.832 21.216V12.416C8.832 12.288 8.864 12.1813 8.928 12.096C9.01333 11.9893 9.12 11.936 9.248 11.936H10.624C10.7307 11.936 10.8267 11.9893 10.912 12.096C10.9973 12.1813 11.04 12.288 11.04 12.416V21.088C12.1493 21.0027 13.28 20.896 14.432 20.768C15.9893 20.5973 17.4293 20.3947 18.752 20.16C19.0933 20.096 19.2747 20.1707 19.296 20.384L19.488 21.504C19.5307 21.76 19.392 21.9093 19.072 21.952C17.6427 22.1867 16.1813 22.4 14.688 22.592C13.1947 22.784 11.584 22.9333 9.856 23.04C9.23733 23.0827 8.512 23.1147 7.68 23.136C6.848 23.1573 5.99467 23.1787 5.12 23.2C4.26667 23.2 3.424 23.2 2.592 23.2C1.78133 23.2 1.07733 23.1893 0.48 23.168C0.352 23.168 0.234667 23.1253 0.128 23.04C0.0426667 22.9547 0 22.8587 0 22.752V21.664C0 21.536 0.0426667 21.44 0.128 21.376C0.234667 21.2907 0.352 21.248 0.48 21.248C1.056 21.248 1.73867 21.2587 2.528 21.28C3.31733 21.28 4.13867 21.28 4.992 21.28C5.86667 21.2587 6.72 21.2373 7.552 21.216H8.832ZM23.616 29.056C23.616 29.3547 23.4667 29.504 23.168 29.504H21.856C21.5573 29.504 21.408 29.3547 21.408 29.056V0.448C21.408 0.149333 21.5573 0 21.856 0H23.168C23.4667 0 23.616 0.149333 23.616 0.448V29.056Z" fill="#1A1A1A"/>
</svg>
