<svg width="19" height="15" viewBox="0 0 19 15" fill="none" xmlns="http://www.w3.org/2000/svg">
<path d="M11.712 1.92H6.496V12.224H11.712V1.92ZM4.288 1.92H1.408C1.30133 1.92 1.19467 1.87733 1.088 1.792C1.00267 1.70667 0.96 1.6 0.96 1.472V0.448C0.96 0.32 1.00267 0.213334 1.088 0.128C1.19467 0.0426668 1.30133 0 1.408 0H16.672C16.992 0 17.152 0.138667 17.152 0.416V1.504C17.152 1.78133 16.992 1.92 16.672 1.92H13.92V12.224H17.632C17.952 12.224 18.112 12.3627 18.112 12.64V13.728C18.112 14.0053 17.952 14.144 17.632 14.144H0.448C0.341333 14.144 0.234667 14.1013 0.128 14.016C0.0426668 13.9307 0 13.824 0 13.696V12.672C0 12.544 0.0426668 12.4373 0.128 12.352C0.234667 12.2667 0.341333 12.224 0.448 12.224H4.288V1.92Z" fill="#1A1A1A"/>
</svg>
