<svg width="16" height="15" viewBox="0 0 16 15" fill="none" xmlns="http://www.w3.org/2000/svg">
<path d="M15.968 13.824C15.968 13.9307 15.9147 14.0267 15.808 14.112C15.7227 14.176 15.6373 14.208 15.552 14.208H2.496C1.49333 14.208 0.832 14.0267 0.512 13.664C0.213333 13.28 0.0640001 12.64 0.0640001 11.744V8.384C0.0640001 7.488 0.245333 6.89067 0.608 6.592C0.992 6.272 1.664 6.112 2.624 6.112H12.384C12.6827 6.112 12.8747 6.06933 12.96 5.984C13.0453 5.89867 13.088 5.696 13.088 5.376V2.592C13.088 2.272 13.0453 2.06933 12.96 1.984C12.896 1.89867 12.7147 1.856 12.416 1.856H0.448C0.341333 1.856 0.234667 1.824 0.128 1.76C0.0426666 1.696 0 1.61067 0 1.504V0.351999C0 0.245333 0.0426666 0.159999 0.128 0.0959988C0.234667 0.0319996 0.341333 0 0.448 0H12.768C13.28 0 13.696 0.0426668 14.016 0.128C14.336 0.191999 14.592 0.309333 14.784 0.48C14.976 0.650667 15.104 0.896 15.168 1.216C15.2533 1.51467 15.296 1.888 15.296 2.336V5.696C15.296 6.592 15.104 7.2 14.72 7.52C14.3573 7.81867 13.696 7.968 12.736 7.968H2.944C2.64533 7.968 2.45333 8.01067 2.368 8.096C2.304 8.18133 2.272 8.384 2.272 8.704V11.616C2.272 11.9147 2.31467 12.1173 2.4 12.224C2.48533 12.3093 2.67733 12.352 2.976 12.352H15.52C15.6267 12.352 15.7227 12.384 15.808 12.448C15.9147 12.512 15.968 12.5973 15.968 12.704V13.824Z" fill="#1A1A1A"/>
</svg>
