<svg width="18" height="15" viewBox="0 0 18 15" fill="none" xmlns="http://www.w3.org/2000/svg">
<path d="M8.41752 6.912C8.20419 7.31733 7.98019 7.72267 7.74552 8.128C6.99886 9.344 6.10286 10.496 5.05752 11.584C4.01219 12.672 2.82819 13.6427 1.50552 14.496C1.35619 14.6027 1.22819 14.6667 1.12152 14.688C1.03619 14.688 0.94019 14.624 0.833524 14.496L0.0975239 13.536C-0.0731428 13.3013 -0.0198096 13.088 0.257524 12.896C1.40952 12.1707 2.45486 11.3173 3.39352 10.336C4.35352 9.33333 5.16419 8.27733 5.82552 7.168C6.50819 6.05867 7.02019 4.93867 7.36152 3.808C7.72419 2.656 7.89486 1.55733 7.87352 0.511999C7.87352 0.341333 7.91619 0.213334 8.00152 0.128C8.08686 0.0426668 8.17219 0 8.25752 0L9.72952 0.0960007C9.96419 0.0960007 10.0815 0.245334 10.0815 0.544001C10.0602 1.824 9.84686 3.104 9.44152 4.384C9.48419 4.68267 9.77219 5.25867 10.3055 6.112C10.8389 6.96533 11.4682 7.79733 12.1935 8.608C12.9402 9.39733 13.7615 10.1333 14.6575 10.816C15.5535 11.4773 16.4709 12.0107 17.4095 12.416C17.5375 12.4587 17.6015 12.544 17.6015 12.672C17.6015 12.7787 17.5802 12.8747 17.5375 12.96L16.9295 14.048C16.8655 14.176 16.7695 14.2507 16.6415 14.272C16.5349 14.272 16.4175 14.2507 16.2895 14.208C15.4789 13.8453 14.6469 13.3653 13.7935 12.768C12.9615 12.1493 12.1722 11.4773 11.4255 10.752C10.7002 10.0267 10.0495 9.28 9.47352 8.512C9.04686 7.95733 8.69486 7.424 8.41752 6.912Z" fill="#1A1A1A"/>
</svg>
