<svg width="16" height="14" viewBox="0 0 16 14" fill="none" xmlns="http://www.w3.org/2000/svg">
<path d="M2.24 7.936V11.2C2.24 11.4987 2.29333 11.712 2.4 11.84C2.50667 11.968 2.70933 12.032 3.008 12.032H15.552C15.8293 12.032 15.968 12.1707 15.968 12.448V13.44C15.968 13.7387 15.8293 13.888 15.552 13.888H2.432C1.49333 13.888 0.853333 13.7387 0.512 13.44C0.170667 13.12 0 12.512 0 11.616V2.272C0 1.376 0.170667 0.778666 0.512 0.48C0.853333 0.16 1.49333 0 2.432 0H15.008C15.2853 0 15.424 0.138666 15.424 0.415998V1.408C15.424 1.70667 15.2853 1.856 15.008 1.856H3.008C2.70933 1.856 2.50667 1.92 2.4 2.048C2.29333 2.15467 2.24 2.368 2.24 2.688V6.112H14.816C15.1147 6.112 15.264 6.22933 15.264 6.464V7.52C15.264 7.79733 15.1253 7.936 14.848 7.936H2.24Z" fill="#1A1A1A"/>
</svg>
