<svg width="28" height="16" viewBox="0 0 28 16" fill="none" xmlns="http://www.w3.org/2000/svg">
<path d="M14.848 1.92V14.656C14.848 14.784 14.8053 14.9013 14.72 15.008C14.656 15.0933 14.56 15.136 14.432 15.136H13.056C12.9493 15.136 12.8533 15.0933 12.768 15.008C12.6827 14.9013 12.64 14.784 12.64 14.656V1.92H0.48C0.352 1.92 0.234667 1.87733 0.128 1.792C0.0426667 1.70667 0 1.61067 0 1.504V0.416C0 0.288 0.0426667 0.192 0.128 0.128C0.234667 0.0426668 0.352 0 0.48 0H27.04C27.1467 0 27.2533 0.0426668 27.36 0.128C27.4667 0.192 27.52 0.288 27.52 0.416V1.504C27.52 1.61067 27.4667 1.70667 27.36 1.792C27.2533 1.87733 27.1467 1.92 27.04 1.92H14.848Z" fill="#1A1A1A"/>
</svg>
