<svg width="25" height="30" viewBox="0 0 25 30" fill="none" xmlns="http://www.w3.org/2000/svg">
<path d="M24.384 29.056C24.384 29.3547 24.2347 29.504 23.936 29.504H22.624C22.3253 29.504 22.176 29.3547 22.176 29.056V0.448C22.176 0.149333 22.3253 0 22.624 0H23.936C24.2347 0 24.384 0.149333 24.384 0.448V29.056ZM19.712 18.112C19.8187 18.0907 19.9147 18.112 20 18.176C20.1067 18.2187 20.1707 18.2827 20.192 18.368L20.352 19.488C20.3733 19.744 20.2453 19.904 19.968 19.968C18.5173 20.224 16.9493 20.4373 15.264 20.608C13.6 20.7573 11.904 20.8747 10.176 20.96C9.51467 21.0027 8.736 21.0347 7.84 21.056C6.96533 21.0773 6.06933 21.0987 5.152 21.12C4.23467 21.1413 3.36 21.1627 2.528 21.184C1.696 21.184 1.01333 21.1733 0.48 21.152C0.352 21.152 0.234667 21.1093 0.128 21.024C0.0426667 20.9387 0 20.8427 0 20.736V19.648C0 19.52 0.0426667 19.424 0.128 19.36C0.234667 19.2747 0.352 19.232 0.48 19.232C1.09867 19.232 1.83467 19.232 2.688 19.232C3.56267 19.232 4.448 19.232 5.344 19.232C6.24 19.2107 7.104 19.1893 7.936 19.168C8.78933 19.1467 9.51467 19.1147 10.112 19.072C10.9013 19.0293 11.7333 18.976 12.608 18.912C13.504 18.848 14.3787 18.7733 15.232 18.688C16.1067 18.6027 16.928 18.5173 17.696 18.432C18.464 18.3253 19.136 18.2187 19.712 18.112Z" fill="#1A1A1A"/>
</svg>
