<svg width="28" height="30" viewBox="0 0 28 30" fill="none" xmlns="http://www.w3.org/2000/svg">
<path d="M7.232 21.248V12.416C7.232 12.288 7.264 12.1813 7.328 12.096C7.41333 11.9893 7.52 11.936 7.648 11.936H9.024C9.13067 11.936 9.22667 11.9893 9.312 12.096C9.39733 12.1813 9.44 12.288 9.44 12.416V21.184C9.568 21.1627 9.68533 21.152 9.792 21.152C11.3067 21.0667 12.736 20.9387 14.08 20.768C15.4453 20.5973 16.7893 20.3947 18.112 20.16C18.4533 20.096 18.6347 20.1707 18.656 20.384L18.848 21.504C18.8907 21.76 18.752 21.9093 18.432 21.952C17.728 22.08 17.0453 22.1973 16.384 22.304C15.7227 22.4107 15.0507 22.5173 14.368 22.624C13.6853 22.7093 12.9707 22.7947 12.224 22.88C11.4987 22.944 10.7093 22.9973 9.856 23.04C9.23733 23.0827 8.512 23.1147 7.68 23.136C6.848 23.1573 5.99467 23.1787 5.12 23.2C4.26667 23.2 3.424 23.2 2.592 23.2C1.78133 23.2 1.07733 23.1893 0.48 23.168C0.352 23.168 0.234667 23.1253 0.128 23.04C0.0426667 22.9547 0 22.8587 0 22.752V21.664C0 21.536 0.0426667 21.44 0.128 21.376C0.234667 21.2907 0.352 21.248 0.48 21.248C1.056 21.248 1.73867 21.2587 2.528 21.28C3.31733 21.28 4.14933 21.2693 5.024 21.248H7.232ZM22.304 12.96H26.72C26.848 12.96 26.9547 13.0027 27.04 13.088C27.1467 13.152 27.2 13.248 27.2 13.376V14.464C27.2 14.5707 27.1467 14.6667 27.04 14.752C26.9547 14.8373 26.848 14.88 26.72 14.88H22.304V29.056C22.304 29.3547 22.1547 29.504 21.856 29.504H20.544C20.2453 29.504 20.096 29.3547 20.096 29.056V0.448C20.096 0.149333 20.2453 0 20.544 0H21.856C22.1547 0 22.304 0.149333 22.304 0.448V12.96Z" fill="#1A1A1A"/>
</svg>
