<svg width="26" height="30" viewBox="0 0 26 30" fill="none" xmlns="http://www.w3.org/2000/svg">
<path d="M7.424 20.832V12.416C7.424 12.288 7.456 12.1813 7.52 12.096C7.60533 11.9893 7.712 11.936 7.84 11.936H9.216C9.32267 11.936 9.41867 11.9893 9.504 12.096C9.58933 12.1813 9.632 12.288 9.632 12.416V20.736C10.4853 20.6933 11.3173 20.6293 12.128 20.544C13.3227 20.4587 14.4 20.3307 15.36 20.16C15.7227 20.096 15.9147 20.1813 15.936 20.416L16.128 21.536C16.1707 21.7707 16.032 21.92 15.712 21.984C15.264 22.0693 14.7307 22.1547 14.112 22.24C13.5147 22.304 12.8853 22.368 12.224 22.432C11.584 22.496 10.9333 22.5493 10.272 22.592C9.632 22.6347 9.04533 22.6667 8.512 22.688C7.89333 22.7093 7.24267 22.7307 6.56 22.752C5.87733 22.7733 5.184 22.7947 4.48 22.816C3.776 22.816 3.08267 22.816 2.4 22.816C1.71733 22.816 1.07733 22.8053 0.48 22.784C0.352 22.784 0.234667 22.7413 0.128 22.656C0.0426667 22.5707 0 22.4747 0 22.368V21.28C0 21.152 0.0426667 21.056 0.128 20.992C0.234667 20.9067 0.352 20.864 0.48 20.864C1.71733 20.8853 3.05067 20.896 4.48 20.896C5.52533 20.896 6.50667 20.8747 7.424 20.832ZM23.648 12.608V0.448C23.648 0.149333 23.7973 0 24.096 0H25.312C25.6107 0 25.76 0.149333 25.76 0.448V29.056C25.76 29.3547 25.6107 29.504 25.312 29.504H24.096C23.7973 29.504 23.648 29.3547 23.648 29.056V14.528H19.584V27.84C19.584 28.1387 19.4347 28.288 19.136 28.288H17.92C17.6213 28.288 17.472 28.1387 17.472 27.84V0.992001C17.472 0.693334 17.6213 0.544001 17.92 0.544001H19.136C19.4347 0.544001 19.584 0.693334 19.584 0.992001V12.608H23.648Z" fill="#1A1A1A"/>
</svg>
