<svg width="27" height="30" viewBox="0 0 27 30" fill="none" xmlns="http://www.w3.org/2000/svg">
<path d="M26.112 29.056C26.112 29.3547 25.9627 29.504 25.664 29.504H24.448C24.1493 29.504 24 29.3547 24 29.056V0.448C24 0.149333 24.1493 0 24.448 0H25.664C25.9627 0 26.112 0.149333 26.112 0.448V29.056ZM9.44 15.84V27.296C9.44 27.424 9.39733 27.5307 9.312 27.616C9.248 27.7227 9.152 27.776 9.024 27.776H7.648C7.54133 27.776 7.44533 27.7227 7.36 27.616C7.27467 27.5307 7.232 27.424 7.232 27.296V15.968C6.208 16.032 5.17333 16.0747 4.128 16.096C2.74133 16.16 1.52533 16.1707 0.48 16.128C0.352 16.128 0.234667 16.0853 0.128 16C0.0426666 15.9147 0 15.8187 0 15.712V14.624C0 14.496 0.0426666 14.4 0.128 14.336C0.234667 14.2507 0.352 14.208 0.48 14.208C1.71733 14.2293 3.008 14.2187 4.352 14.176C5.696 14.1333 6.976 14.08 8.192 14.016C9.49333 13.952 10.72 13.8773 11.872 13.792C13.0453 13.7067 14.2613 13.5467 15.52 13.312C15.6267 13.2907 15.7227 13.312 15.808 13.376C15.9147 13.4187 15.9787 13.4827 16 13.568L16.16 14.656C16.1813 14.912 16.0533 15.072 15.776 15.136C15.2 15.2427 14.624 15.3387 14.048 15.424C13.472 15.488 12.8853 15.552 12.288 15.616C11.6907 15.68 11.0613 15.7333 10.4 15.776C10.1013 15.7973 9.78133 15.8187 9.44 15.84ZM18.336 21.184H13.184C12.9067 21.184 12.768 21.056 12.768 20.8V19.712C12.768 19.456 12.9067 19.328 13.184 19.328H18.336V0.992001C18.336 0.693334 18.4853 0.544001 18.784 0.544001H20C20.2987 0.544001 20.448 0.693334 20.448 0.992001V27.84C20.448 28.1387 20.2987 28.288 20 28.288H18.784C18.4853 28.288 18.336 28.1387 18.336 27.84V21.184Z" fill="#1A1A1A"/>
</svg>
