<svg width="25" height="30" viewBox="0 0 25 30" fill="none" xmlns="http://www.w3.org/2000/svg">
<path d="M24.384 29.056C24.384 29.3547 24.2347 29.504 23.936 29.504H22.624C22.3253 29.504 22.176 29.3547 22.176 29.056V0.448C22.176 0.149333 22.3253 0 22.624 0H23.936C24.2347 0 24.384 0.149333 24.384 0.448V29.056ZM11.072 16.16V27.488C11.072 27.616 11.0293 27.7227 10.944 27.808C10.88 27.9147 10.784 27.968 10.656 27.968H9.28C9.17333 27.968 9.07733 27.9147 8.992 27.808C8.90667 27.7227 8.864 27.616 8.864 27.488V16.288C8.544 16.3093 8.21333 16.32 7.872 16.32C6.976 16.3627 6.06933 16.4053 5.152 16.448C4.23467 16.4693 3.36 16.4907 2.528 16.512C1.696 16.512 1.01333 16.5013 0.48 16.48C0.352 16.48 0.234667 16.4373 0.128 16.352C0.0426667 16.2667 0 16.1707 0 16.064V14.976C0 14.848 0.0426667 14.752 0.128 14.688C0.234667 14.6027 0.352 14.56 0.48 14.56C1.09867 14.56 1.83467 14.56 2.688 14.56C3.56267 14.5387 4.448 14.5173 5.344 14.496C6.26133 14.4747 7.136 14.4533 7.968 14.432C8.82133 14.3893 9.536 14.3573 10.112 14.336C10.7307 14.3147 11.4453 14.272 12.256 14.208C13.088 14.144 13.9413 14.0693 14.816 13.984C15.712 13.8987 16.5867 13.8133 17.44 13.728C18.3147 13.6213 19.104 13.5147 19.808 13.408C19.9147 13.3867 20.0107 13.408 20.096 13.472C20.2027 13.5147 20.2667 13.5787 20.288 13.664L20.448 14.752C20.4693 15.0507 20.3413 15.2107 20.064 15.232C18.5493 15.4667 16.9387 15.6693 15.232 15.84C13.824 15.9893 12.4373 16.096 11.072 16.16Z" fill="#1A1A1A"/>
</svg>
