<svg width="25" height="30" viewBox="0 0 25 30" fill="none" xmlns="http://www.w3.org/2000/svg">
<path d="M11.072 16.096V27.488C11.072 27.616 11.0293 27.7227 10.944 27.808C10.88 27.9147 10.784 27.968 10.656 27.968H9.28C9.17333 27.968 9.07733 27.9147 8.992 27.808C8.90667 27.7227 8.864 27.616 8.864 27.488V16.224C8.544 16.2453 8.21333 16.2667 7.872 16.288C6.976 16.3307 6.06933 16.3733 5.152 16.416C4.23467 16.4373 3.36 16.4587 2.528 16.48C1.696 16.48 1.01333 16.4693 0.48 16.448C0.352 16.448 0.234667 16.4053 0.128 16.32C0.0426667 16.2347 0 16.1387 0 16.032V14.944C0 14.816 0.0426667 14.72 0.128 14.656C0.234667 14.5707 0.352 14.528 0.48 14.528C1.09867 14.528 1.83467 14.528 2.688 14.528C3.56267 14.5067 4.448 14.4853 5.344 14.464C6.26133 14.4427 7.136 14.4213 7.968 14.4C8.82133 14.3573 9.536 14.3147 10.112 14.272C10.8587 14.2293 11.6693 14.1653 12.544 14.08C13.4187 13.9947 14.2933 13.9093 15.168 13.824C16.0427 13.7173 16.8747 13.6107 17.664 13.504C18.4533 13.3973 19.136 13.2907 19.712 13.184C19.8187 13.1627 19.9147 13.184 20 13.248C20.1067 13.2907 20.1707 13.3547 20.192 13.44L20.352 14.528C20.3733 14.784 20.2453 14.944 19.968 15.008C18.5173 15.264 16.9493 15.488 15.264 15.68C13.856 15.8507 12.4587 15.9893 11.072 16.096ZM22.176 20V0.448C22.176 0.149333 22.3253 0 22.624 0H23.936C24.2347 0 24.384 0.149333 24.384 0.448V29.056C24.384 29.3547 24.2347 29.504 23.936 29.504H22.624C22.3253 29.504 22.176 29.3547 22.176 29.056V21.856H15.776C15.4987 21.856 15.36 21.728 15.36 21.472V20.384C15.36 20.128 15.4987 20 15.776 20H22.176Z" fill="#1A1A1A"/>
</svg>
