<svg width="8" height="30" viewBox="0 0 8 30" fill="none" xmlns="http://www.w3.org/2000/svg">
<path d="M2.208 9.024H6.624C6.752 9.024 6.85867 9.06667 6.944 9.152C7.05067 9.216 7.104 9.312 7.104 9.44V10.464C7.104 10.5707 7.05067 10.6667 6.944 10.752C6.85867 10.8373 6.752 10.88 6.624 10.88H2.208V17.664H6.624C6.752 17.664 6.85867 17.7067 6.944 17.792C7.05067 17.856 7.104 17.952 7.104 18.08V19.104C7.104 19.2107 7.05067 19.3067 6.944 19.392C6.85867 19.4773 6.752 19.52 6.624 19.52H2.208V29.056C2.208 29.3547 2.05867 29.504 1.76 29.504H0.448C0.149333 29.504 0 29.3547 0 29.056V0.448C0 0.149333 0.149333 0 0.448 0H1.76C2.05867 0 2.208 0.149333 2.208 0.448V9.024Z" fill="#1A1A1A"/>
</svg>
