<svg width="14" height="30" viewBox="0 0 14 30" fill="none" xmlns="http://www.w3.org/2000/svg">
<path d="M13.088 29.056C13.088 29.3547 12.9387 29.504 12.64 29.504H11.424C11.1253 29.504 10.976 29.3547 10.976 29.056V0.448C10.976 0.149333 11.1253 0 11.424 0H12.64C12.9387 0 13.088 0.149333 13.088 0.448V29.056ZM5.312 19.52H0.416C0.138667 19.52 0 19.392 0 19.136V18.016C0 17.76 0.138667 17.632 0.416 17.632H5.312V11.104H0.416C0.138667 11.104 0 10.976 0 10.72V9.6C0 9.344 0.138667 9.216 0.416 9.216H5.312V0.992001C5.312 0.693334 5.46133 0.544001 5.76 0.544001H6.976C7.27467 0.544001 7.424 0.693334 7.424 0.992001V27.84C7.424 28.1387 7.27467 28.288 6.976 28.288H5.76C5.46133 28.288 5.312 28.1387 5.312 27.84V19.52Z" fill="#1A1A1A"/>
</svg>
