<svg width="9" height="30" viewBox="0 0 9 30" fill="none" xmlns="http://www.w3.org/2000/svg">
<path d="M6.464 10.816H0.415999C0.138666 10.816 0 10.688 0 10.432V9.312C0 9.056 0.138666 8.928 0.415999 8.928H6.464V0.448C6.464 0.149333 6.61333 0 6.912 0H8.224C8.52267 0 8.672 0.149333 8.672 0.448V29.056C8.672 29.3547 8.52267 29.504 8.224 29.504H6.912C6.61333 29.504 6.464 29.3547 6.464 29.056V19.008H0.415999C0.138666 19.008 0 18.88 0 18.624V17.504C0 17.248 0.138666 17.12 0.415999 17.12H6.464V10.816Z" fill="#1A1A1A"/>
</svg>
