<svg width="28" height="13" viewBox="0 0 28 13" fill="none" xmlns="http://www.w3.org/2000/svg">
<path d="M7.808 10.272V0.48C7.808 0.352 7.84 0.245334 7.904 0.160001C7.98933 0.0533336 8.096 0 8.224 0H9.6C9.70667 0 9.80267 0.0533336 9.888 0.160001C9.97333 0.245334 10.016 0.352 10.016 0.48V10.272H17.248V0.48C17.248 0.352 17.28 0.245334 17.344 0.160001C17.4293 0.0533336 17.536 0 17.664 0H19.04C19.1467 0 19.2427 0.0533336 19.328 0.160001C19.4133 0.245334 19.456 0.352 19.456 0.48V10.272H27.04C27.1467 10.272 27.2533 10.3147 27.36 10.4C27.4667 10.464 27.52 10.56 27.52 10.688V11.776C27.52 11.8827 27.4667 11.9787 27.36 12.064C27.2533 12.1493 27.1467 12.192 27.04 12.192H0.48C0.352 12.192 0.234667 12.1493 0.128 12.064C0.0426667 11.9787 0 11.8827 0 11.776V10.688C0 10.56 0.0426667 10.464 0.128 10.4C0.234667 10.3147 0.352 10.272 0.48 10.272H7.808Z" fill="#1A1A1A"/>
</svg>
