<svg width="28" height="16" viewBox="0 0 28 16" fill="none" xmlns="http://www.w3.org/2000/svg">
<path d="M20 1.92V14.88C20 15.008 19.9573 15.1253 19.872 15.232C19.808 15.3173 19.712 15.36 19.584 15.36H18.208C18.1013 15.36 18.0053 15.3173 17.92 15.232C17.8347 15.1253 17.792 15.008 17.792 14.88V1.92H9.76V14.88C9.76 15.008 9.71733 15.1253 9.632 15.232C9.568 15.3173 9.472 15.36 9.344 15.36H7.968C7.86133 15.36 7.76533 15.3173 7.68 15.232C7.59467 15.1253 7.552 15.008 7.552 14.88V1.92H0.48C0.352 1.92 0.234667 1.87733 0.128 1.792C0.0426667 1.70667 0 1.61067 0 1.504V0.416C0 0.288 0.0426667 0.192 0.128 0.128C0.234667 0.0426668 0.352 0 0.48 0H27.04C27.1467 0 27.2533 0.0426668 27.36 0.128C27.4667 0.192 27.52 0.288 27.52 0.416V1.504C27.52 1.61067 27.4667 1.70667 27.36 1.792C27.2533 1.87733 27.1467 1.92 27.04 1.92H20Z" fill="#1A1A1A"/>
</svg>
