<svg width="19" height="29" viewBox="0 0 19 29" fill="none" xmlns="http://www.w3.org/2000/svg">
<path d="M0.642 27.9168C0.258 27.7035 0.0446667 27.4688 0.00200001 27.2128C-0.0193334 26.9568 0.13 26.5088 0.45 25.8688C0.77 25.2288 1.27133 24.2368 1.954 22.8928C2.466 21.9328 2.85 21.1861 3.106 20.6528C3.38333 20.0981 3.56467 19.7035 3.65 19.4688C3.75667 19.2341 3.81 19.0848 3.81 19.0208C3.76733 18.8288 3.78867 18.6795 3.874 18.5728C3.95933 18.4448 4.098 18.3381 4.29 18.2528C4.39667 18.1461 4.56733 17.9541 4.802 17.6768C5.058 17.3995 5.29267 17.0688 5.506 16.6848C5.698 16.2368 5.922 15.7781 6.178 15.3088C6.434 14.8395 6.77533 14.2528 7.202 13.5488C7.62867 12.8235 8.18333 11.8848 8.866 10.7328C9.29267 9.98613 9.762 9.2288 10.274 8.4608C10.786 7.67147 11.33 6.8928 11.906 6.1248C12.1407 5.82613 12.354 5.59147 12.546 5.4208C12.738 5.2288 12.93 5.14347 13.122 5.1648C13.378 5.1648 13.666 5.25013 13.986 5.4208C14.3273 5.59147 14.6367 5.81547 14.914 6.0928C15.1913 6.37013 15.394 6.6688 15.522 6.9888C15.6287 7.15947 15.6713 7.52213 15.65 8.0768C15.6287 8.63147 15.586 9.30347 15.522 10.0928C15.458 10.8821 15.3833 11.7248 15.298 12.6208C15.234 13.4955 15.138 14.5301 15.01 15.7248C14.882 16.9195 14.754 18.1675 14.626 19.4688C14.5193 20.7701 14.434 22.0288 14.37 23.2448C14.306 24.4395 14.306 25.4848 14.37 26.3808C14.3913 26.5728 14.3913 26.7541 14.37 26.9248C14.3487 27.0955 14.338 27.2341 14.338 27.3408C14.21 27.4688 13.9967 27.5221 13.698 27.5008C13.4207 27.5008 13.1433 27.4368 12.866 27.3088C12.61 27.1808 12.4607 27.0208 12.418 26.8288C12.354 26.7648 12.3113 26.6795 12.29 26.5728C12.29 26.4448 12.3007 26.1888 12.322 25.8048C12.3433 25.4208 12.3647 24.8128 12.386 23.9808L12.546 18.7968L12.13 18.8288C11.938 18.8288 11.5753 18.8501 11.042 18.8928C10.5087 18.9355 9.93267 18.9995 9.314 19.0848C8.69533 19.1488 8.11933 19.2235 7.586 19.3088C7.074 19.3728 6.722 19.4368 6.53 19.5008C6.338 19.5008 6.10333 19.6288 5.826 19.8848C5.57 20.1408 5.32467 20.4715 5.09 20.8768C5.00467 21.1755 4.84467 21.4955 4.61 21.8368C4.39667 22.1568 4.29 22.3701 4.29 22.4768C4.14067 22.5835 4.01267 22.7115 3.906 22.8608C3.82067 23.0101 3.778 23.0848 3.778 23.0848C3.778 23.2128 3.67133 23.5328 3.458 24.0448C3.266 24.5355 3.02067 25.0901 2.722 25.7088C2.42333 26.3061 2.12467 26.8288 1.826 27.2768L1.154 28.3008L0.642 27.9168ZM7.266 17.6128C7.266 17.6128 7.37267 17.5915 7.586 17.5488C7.82067 17.5061 8.08733 17.4635 8.386 17.4208C8.706 17.3568 8.994 17.3248 9.25 17.3248C10.146 17.1115 10.7967 16.9728 11.202 16.9088C11.6073 16.8235 11.8847 16.7808 12.034 16.7808C12.2047 16.7808 12.354 16.8128 12.482 16.8768C12.5673 16.9835 12.642 17.0475 12.706 17.0688C12.7913 17.0901 12.834 17.1008 12.834 17.1008C12.8553 17.0581 12.8873 16.8128 12.93 16.3648C12.9727 15.9168 13.026 15.3621 13.09 14.7008C13.1753 14.0395 13.25 13.3568 13.314 12.6528C13.3993 11.9275 13.4633 11.2661 13.506 10.6688C13.5487 10.0501 13.5807 9.5808 13.602 9.2608C13.6233 8.85547 13.6447 8.4928 13.666 8.1728C13.6873 7.83147 13.698 7.6608 13.698 7.6608C13.57 7.6608 13.2927 7.89547 12.866 8.3648C12.4607 8.83413 12.002 9.4528 11.49 10.2208C10.978 10.9888 10.498 11.8101 10.05 12.6848C9.83667 13.0901 9.634 13.4528 9.442 13.7728C9.25 14.0928 9.10067 14.2528 8.994 14.2528C8.95133 14.2955 8.82333 14.4875 8.61 14.8288C8.418 15.1488 8.20467 15.5221 7.97 15.9488C7.73533 16.3541 7.54333 16.7275 7.394 17.0688C7.24467 17.3888 7.202 17.5701 7.266 17.6128ZM16.802 2.8608C16.6527 2.71147 16.5247 2.53013 16.418 2.3168C16.3327 2.08213 16.3007 1.92213 16.322 1.8368C16.3647 1.73013 16.4393 1.52747 16.546 1.2288C16.674 0.9088 16.8127 0.6848 16.962 0.5568C17.026 0.514133 17.1007 0.450133 17.186 0.364799C17.2713 0.258132 17.3567 0.194133 17.442 0.1728C17.698 -0.0192005 17.9327 -0.0512001 18.146 0.0768008C18.3807 0.2048 18.5513 0.439467 18.658 0.780799C18.85 1.07947 18.914 1.34613 18.85 1.5808C18.786 1.79413 18.6153 2.08213 18.338 2.4448C18.018 2.8928 17.73 3.13813 17.474 3.1808C17.218 3.22347 16.994 3.1168 16.802 2.8608ZM12.674 2.8608C12.5247 2.71147 12.3967 2.53013 12.29 2.3168C12.2047 2.08213 12.1727 1.92213 12.194 1.8368C12.2367 1.73013 12.3113 1.52747 12.418 1.2288C12.546 0.9088 12.6847 0.6848 12.834 0.5568C12.898 0.514133 12.962 0.450133 13.026 0.364799C13.1113 0.258132 13.1967 0.194133 13.282 0.1728C13.4527 0.0448 13.6127 -0.0085333 13.762 0.0127998C13.9327 0.0341328 14.082 0.1088 14.21 0.236801C14.3593 0.3648 14.466 0.546133 14.53 0.780799C14.722 1.07947 14.786 1.34613 14.722 1.5808C14.658 1.79413 14.4873 2.08213 14.21 2.4448C13.8687 2.8928 13.57 3.13813 13.314 3.1808C13.058 3.22347 12.8447 3.1168 12.674 2.8608Z" fill="#1A1A1A"/>
</svg>
