<svg width="19" height="26" viewBox="0 0 19 26" fill="none" xmlns="http://www.w3.org/2000/svg">
<path d="M4.61714 25.536C4.21181 25.6 3.83848 25.632 3.49714 25.632C3.15581 25.6533 2.65448 25.5787 1.99314 25.408C1.65181 25.3013 1.40648 25.1733 1.25714 25.024C1.12914 24.8747 0.905143 24.5973 0.585143 24.192C0.350476 23.8507 0.17981 23.5307 0.0731429 23.232C-0.0121905 22.9547 -0.0228571 22.7307 0.0411428 22.56C0.105143 22.4107 0.24381 22.368 0.457143 22.432C0.521143 22.4533 0.617143 22.5173 0.745143 22.624C0.894476 22.752 1.03314 22.9013 1.16114 23.072C1.45981 23.392 1.82248 23.6053 2.24914 23.712C2.67581 23.8187 3.24114 23.8293 3.94514 23.744C4.24381 23.68 4.60648 23.584 5.03314 23.456C5.45981 23.3493 5.87581 23.2107 6.28114 23.04C6.68648 22.8693 7.00648 22.6987 7.24114 22.528C8.37181 21.76 9.27848 21.152 9.96114 20.704C10.6438 20.256 10.9851 20.032 10.9851 20.032C11.0278 19.9467 11.1025 19.8827 11.2091 19.84C11.3371 19.776 11.4865 19.712 11.6571 19.648C11.7851 19.52 11.9878 19.3173 12.2651 19.04C12.5638 18.7627 12.8411 18.4853 13.0971 18.208C13.3745 17.9307 13.5451 17.7707 13.6091 17.728C13.6518 17.536 13.6945 17.3867 13.7371 17.28C13.7798 17.152 13.8011 17.024 13.8011 16.896C13.9718 16.7253 14.1958 16.3733 14.4731 15.84C14.7718 15.2853 15.0705 14.6773 15.3691 14.016C15.6678 13.3333 15.8811 12.7147 16.0091 12.16C16.3078 10.6667 16.3825 9.408 16.2331 8.384C16.0838 7.36 15.7745 6.48533 15.3051 5.76C14.8571 5.01333 14.2918 4.352 13.6091 3.776C13.3745 3.584 13.0438 3.38133 12.6171 3.168C12.2118 2.93333 11.7851 2.73067 11.3371 2.56C10.8891 2.38933 10.4945 2.25067 10.1531 2.144C9.83314 2.03733 9.64114 1.99467 9.57714 2.016C9.49181 2.03733 9.31048 2.37867 9.03314 3.04C8.77714 3.68 8.46781 4.50133 8.10514 5.504C7.74248 6.50667 7.34781 7.57333 6.92114 8.704C6.51581 9.83467 6.13181 10.9013 5.76914 11.904C5.64114 12.3093 5.50248 12.736 5.35314 13.184C5.20381 13.632 5.07581 14.0267 4.96914 14.368C4.86248 14.688 4.80914 14.9013 4.80914 15.008C4.57448 15.3707 4.38248 15.8507 4.23314 16.448C4.10514 17.0453 3.95581 18.0373 3.78514 19.424C3.59314 20.1493 3.45448 20.704 3.36914 21.088C3.28381 21.4507 3.19848 21.6213 3.11314 21.6C3.11314 21.6 3.10248 21.6107 3.08114 21.632C3.08114 21.632 3.04914 21.664 2.98514 21.728C2.98514 21.856 2.89981 21.92 2.72914 21.92C2.55848 21.92 2.35581 21.8773 2.12114 21.792C1.90781 21.6853 1.73714 21.568 1.60914 21.44C1.54514 21.2053 1.50248 20.9813 1.48114 20.768C1.48114 20.5547 1.56648 20.1387 1.73714 19.52C1.84381 19.1147 1.97181 18.624 2.12114 18.048C2.29181 17.4507 2.47314 16.8427 2.66514 16.224C2.85714 15.584 3.03848 14.9973 3.20914 14.464C3.37981 13.9307 3.50781 13.5253 3.59314 13.248C3.74248 12.8853 3.95581 12.2027 4.23314 11.2C4.40381 10.6453 4.57448 10.0907 4.74514 9.536C4.93714 8.98133 5.11848 8.49067 5.28914 8.064C5.45981 7.616 5.57714 7.328 5.64114 7.2C5.74781 6.92267 5.90781 6.45333 6.12114 5.792C6.33448 5.13067 6.61181 4.39467 6.95314 3.584L7.17714 2.528L6.82514 2.368C6.56914 2.45333 6.36648 2.48533 6.21714 2.464C6.08914 2.42133 6.00381 2.38933 5.96114 2.368C5.83314 2.41067 5.65181 2.37867 5.41714 2.272C5.18248 2.16533 4.96914 2.02667 4.77714 1.856C4.60648 1.68533 4.49981 1.536 4.45714 1.408C4.41448 1.32267 4.38248 1.216 4.36114 1.088C4.36114 0.938666 4.36114 0.863999 4.36114 0.863999C4.38248 0.736 4.54248 0.618667 4.84114 0.512C5.13981 0.384 5.52381 0.277334 5.99314 0.192C6.48381 0.106667 7.00648 0.0533336 7.56114 0.0320005C8.13714 -0.0106668 8.69181 -0.0106668 9.22514 0.0320005C9.77981 0.0746667 10.3025 0.192 10.7931 0.384C11.2838 0.576 11.8171 0.778666 12.3931 0.992C13.0758 1.248 13.7905 1.696 14.5371 2.336C15.3051 2.95467 15.9985 3.69067 16.6171 4.544C17.2571 5.39733 17.6838 6.29333 17.8971 7.232C17.9611 7.488 18.0251 7.85067 18.0891 8.32C18.1531 8.78933 18.1851 9.248 18.1851 9.696C18.2065 10.1227 18.1638 10.4 18.0571 10.528C18.0145 10.6133 17.9825 10.72 17.9611 10.848C17.9611 10.9547 18.0038 11.0293 18.0891 11.072C18.0678 11.136 17.9931 11.3813 17.8651 11.808C17.7371 12.2133 17.6198 12.5653 17.5131 12.864C17.4705 13.4187 17.3425 13.9947 17.1291 14.592C16.9158 15.1893 16.6811 15.7547 16.4251 16.288C16.1691 16.8 15.9345 17.2373 15.7211 17.6C15.6358 17.6 15.5505 17.6213 15.4651 17.664C15.4011 17.6853 15.4118 17.7067 15.4971 17.728C15.4971 17.8347 15.3798 18.0373 15.1451 18.336C15.0598 18.4 14.9211 18.56 14.7291 18.816C14.5585 19.0507 14.4198 19.2107 14.3131 19.296C14.2918 19.4453 14.2278 19.5733 14.1211 19.68C14.0145 19.7653 13.9185 19.808 13.8331 19.808C13.8331 19.808 13.8118 19.808 13.7691 19.808C13.7478 19.808 13.7371 19.8507 13.7371 19.936C13.5665 20.192 13.2998 20.5013 12.9371 20.864C12.5745 21.2053 12.1585 21.568 11.6891 21.952C11.2411 22.3147 10.7718 22.656 10.2811 22.976C9.81181 23.296 9.36381 23.5413 8.93714 23.712C8.72381 23.8613 8.49981 23.9787 8.26514 24.064C8.03048 24.1707 7.80648 24.2773 7.59314 24.384C7.48648 24.4693 7.25181 24.5867 6.88914 24.736C6.52648 24.9067 6.13181 25.0667 5.70514 25.216C5.29981 25.3653 4.93714 25.472 4.61714 25.536Z" fill="#1A1A1A"/>
</svg>
