<svg width="19" height="24" viewBox="0 0 19 24" fill="none" xmlns="http://www.w3.org/2000/svg">
<path d="M8.64 0C10.048 0 11.2533 0.213333 12.256 0.639999C13.28 1.04533 14.1227 1.64267 14.784 2.432C15.4453 3.2 15.9467 4.11733 16.288 5.184L11.744 10.016C13.088 10.0587 14.2827 10.3467 15.328 10.88C16.3733 11.392 17.1947 12.128 17.792 13.088C18.3893 14.048 18.688 15.2107 18.688 16.576C18.688 17.92 18.4107 19.1147 17.856 20.16C17.3013 21.184 16.4373 21.9947 15.264 22.592C14.112 23.1893 12.5973 23.488 10.72 23.488C9.61067 23.488 8.55467 23.392 7.552 23.2C6.57067 23.0293 5.64267 22.7093 4.768 22.24V19.616C5.64267 20.0853 6.592 20.4587 7.616 20.736C8.66133 20.992 9.65333 21.12 10.592 21.12C12.4053 21.12 13.7067 20.7253 14.496 19.936C15.2853 19.1253 15.68 17.9947 15.68 16.544C15.68 15.1787 15.2213 14.144 14.304 13.44C13.3867 12.7147 12.0107 12.352 10.176 12.352H8.192V10.272L13.184 5.024C12.928 4.46933 12.5867 4.01067 12.16 3.648C11.7333 3.264 11.2213 2.976 10.624 2.784C10.0267 2.592 9.312 2.496 8.48 2.496C7.17867 2.496 6.112 2.752 5.28 3.264C4.448 3.75467 3.82933 4.448 3.424 5.344C3.04 6.21867 2.848 7.232 2.848 8.384V23.168H0V8.384C0 6.80533 0.309333 5.38667 0.928 4.128C1.54667 2.848 2.496 1.84533 3.776 1.12C5.056 0.373334 6.67733 0 8.64 0Z" fill="#1A1A1A"/>
</svg>
