<svg width="21" height="26" viewBox="0 0 21 26" fill="none" xmlns="http://www.w3.org/2000/svg">
<path d="M1.55055 25.0596C1.55055 25.0596 1.51855 25.0382 1.45455 24.9956C1.39055 24.9742 1.30521 24.9529 1.19855 24.9316C1.11321 24.9102 1.00655 24.8996 0.878545 24.8996C0.537212 24.8142 0.291879 24.6222 0.142545 24.3236C-0.00678788 24.0462 -0.0387879 23.7369 0.0465455 23.3956C0.131879 23.3102 0.195879 23.1289 0.238545 22.8516C0.281212 22.5742 0.302546 22.3502 0.302546 22.1796C0.387879 22.0089 0.441212 21.8916 0.462545 21.8276C0.483879 21.7422 0.537212 21.5289 0.622545 21.1876C0.686545 20.8249 0.793212 20.3236 0.942546 19.6836C1.11321 19.0222 1.29455 18.3182 1.48655 17.5716C1.69988 16.8249 1.90255 16.1102 2.09455 15.4276C2.28655 14.7449 2.45721 14.1689 2.60655 13.6996C2.77721 13.2302 2.89455 12.9636 2.95855 12.8996C2.95855 12.8996 2.95855 12.8676 2.95855 12.8036C2.95855 12.7182 2.95855 12.6329 2.95855 12.5476C2.95855 12.5476 2.96921 12.4516 2.99055 12.2596C3.03321 12.0462 3.13988 11.8116 3.31055 11.5556C3.39588 11.3209 3.47055 11.0649 3.53455 10.7876C3.59855 10.5102 3.63055 10.3289 3.63055 10.2436C3.71588 10.1369 3.83321 9.88089 3.98255 9.47556C4.15321 9.04889 4.31321 8.63289 4.46255 8.22756C4.59055 7.88622 4.72921 7.52356 4.87855 7.13956C5.04921 6.75556 5.18788 6.42489 5.29455 6.14756C5.42255 5.87022 5.48655 5.73156 5.48655 5.73156C5.48655 5.64622 5.48655 5.60356 5.48655 5.60356C5.48655 5.58222 5.48655 5.57156 5.48655 5.57156C5.57188 5.48622 5.77455 5.05956 6.09455 4.29156C6.43588 3.50222 6.89455 2.48889 7.47055 1.25156C7.55588 1.08089 7.66255 0.888889 7.79055 0.675556C7.91855 0.462223 7.98255 0.31289 7.98255 0.227556C8.08921 0.0568894 8.23855 -0.0177776 8.43055 0.00355546C8.62255 0.00355546 8.81454 0.0675559 9.00655 0.195557C9.21988 0.323556 9.37988 0.504889 9.48655 0.739556L9.80655 1.25156L8.65455 3.55556C8.31321 4.15289 8.02521 4.69689 7.79055 5.18756C7.57721 5.67822 7.47055 5.96622 7.47055 6.05156C7.47055 6.05156 7.40655 6.22222 7.27855 6.56356C7.15055 6.90489 7.00121 7.31022 6.83055 7.77956C6.65988 8.24889 6.51055 8.67556 6.38255 9.05956C6.14788 9.72089 5.92388 10.2649 5.71055 10.6916C5.51855 11.1182 5.42255 11.3742 5.42255 11.4596C5.42255 11.4169 5.65721 11.3849 6.12655 11.3636C6.59588 11.3422 7.19321 11.3316 7.91855 11.3316C8.64388 11.3316 9.37988 11.3316 10.1265 11.3316C10.8945 11.3102 11.5665 11.2996 12.1425 11.2996C12.7399 11.2782 13.1452 11.2462 13.3585 11.2036L15.0225 11.0436L16.1105 7.74756C16.2812 7.15022 16.5052 6.42489 16.7825 5.57156C17.0599 4.71822 17.3052 3.99289 17.5185 3.39556C17.8599 2.41422 18.1265 1.80622 18.3185 1.57156C18.5105 1.33689 18.7345 1.21956 18.9905 1.21956C19.0545 1.21956 19.1399 1.24089 19.2465 1.28356C19.3745 1.30489 19.4919 1.35822 19.5985 1.44356C19.7265 1.50756 19.8119 1.60356 19.8545 1.73156C20.1105 1.96622 20.2279 2.23289 20.2065 2.53156C20.2065 2.83022 20.0359 3.22489 19.6945 3.71556C19.3532 4.29156 19.0652 4.92089 18.8305 5.60356C18.6172 6.26489 18.4252 6.80889 18.2545 7.23556C18.2545 7.49156 18.2225 7.70489 18.1585 7.87556C18.0945 8.02489 18.0199 8.14222 17.9345 8.22756C17.8919 8.27022 17.8065 8.43022 17.6785 8.70756C17.5505 8.98489 17.4332 9.26222 17.3265 9.53956C17.2199 9.81689 17.1665 9.98756 17.1665 10.0516C17.1665 10.2009 17.1345 10.3822 17.0705 10.5956C17.0065 10.8089 16.9319 10.9582 16.8465 11.0436C16.8039 11.1716 16.7079 11.4916 16.5585 12.0036C16.4092 12.5156 16.2385 13.1236 16.0465 13.8276C15.8545 14.5102 15.6519 15.1822 15.4385 15.8436C15.2252 16.4836 15.0332 17.0169 14.8625 17.4436C14.8625 17.5929 14.8092 17.7849 14.7025 18.0196C14.5959 18.2329 14.5425 18.4249 14.5425 18.5956C14.4572 18.8516 14.3505 19.1716 14.2225 19.5556C14.0945 19.9396 14.0305 20.1849 14.0305 20.2916C13.9239 20.7822 13.8065 21.2836 13.6785 21.7956C13.5719 22.3076 13.4759 22.7449 13.3905 23.1076C13.3265 23.4916 13.2945 23.7156 13.2945 23.7796C13.2092 23.8649 13.0812 23.8756 12.9105 23.8116C12.7399 23.7476 12.5372 23.6729 12.3025 23.5876C11.8972 23.3529 11.6519 23.0969 11.5665 22.8196C11.5025 22.5636 11.5879 22.1902 11.8225 21.6996C11.9292 21.5289 12.0572 21.1129 12.2065 20.4516C12.3772 19.7689 12.5479 19.0969 12.7185 18.4356C12.8465 18.1156 12.9852 17.6889 13.1345 17.1556C13.2839 16.6009 13.4332 16.0462 13.5825 15.4916C13.7319 14.9156 13.8599 14.4356 13.9665 14.0516C14.0732 13.6462 14.1479 13.4222 14.1905 13.3796C14.1905 13.2942 14.1905 13.2196 14.1905 13.1556C14.1905 13.0916 14.1905 13.0596 14.1905 13.0596C14.1479 13.0169 13.8812 12.9849 13.3905 12.9636C12.8999 12.9209 12.2919 12.9102 11.5665 12.9316C10.8412 12.9316 10.0839 12.9529 9.29455 12.9956C8.52655 13.0169 7.83321 13.0702 7.21455 13.1556C6.97988 13.1556 6.71321 13.1556 6.41455 13.1556C6.11588 13.1556 5.88121 13.1556 5.71055 13.1556C5.47588 13.1556 5.27321 13.1556 5.10255 13.1556C4.95321 13.1556 4.87855 13.1556 4.87855 13.1556C4.85721 13.2196 4.78255 13.4436 4.65455 13.8276C4.52655 14.2116 4.37721 14.6809 4.20655 15.2356C4.03588 15.7689 3.85455 16.3236 3.66255 16.8996C3.49188 17.4542 3.34255 17.9662 3.21455 18.4356C3.10788 18.8836 3.03321 19.2036 2.99055 19.3956C2.90521 19.7796 2.78788 20.2596 2.63855 20.8356C2.51055 21.4116 2.36121 21.9982 2.19055 22.5956C2.04121 23.2142 1.90255 23.7476 1.77455 24.1956C1.66788 24.6436 1.59321 24.9316 1.55055 25.0596Z" fill="#1A1A1A"/>
</svg>
