<svg width="18" height="22" viewBox="0 0 18 22" fill="none" xmlns="http://www.w3.org/2000/svg">
<path d="M4.62222 21.5147C4.47289 21.28 4.13156 21.1307 3.59822 21.0667C3.08622 21.0027 2.45689 20.992 1.71022 21.0347C1.41156 21.0773 1.12356 21.056 0.846222 20.9707C0.568889 20.9067 0.344889 20.7893 0.174222 20.6187C0.0248889 20.4693 -0.0284444 20.3093 0.0142222 20.1387C0.0355556 19.8827 0.248889 19.68 0.654222 19.5307C1.08089 19.3813 1.75289 19.296 2.67022 19.2747L4.36622 19.2427L4.68622 18.6027C4.77156 18.368 4.87822 18.0373 5.00622 17.6107C5.13422 17.184 5.27289 16.7253 5.42222 16.2347C5.50756 15.936 5.63556 15.5307 5.80622 15.0187C5.97689 14.5067 6.15822 13.9627 6.35022 13.3867C6.54222 12.8107 6.71289 12.2987 6.86222 11.8507C7.01156 11.3813 7.10756 11.0507 7.15022 10.8587C7.23556 10.6667 7.35289 10.3467 7.50222 9.89867C7.65156 9.42933 7.79022 8.96 7.91822 8.49067C8.06756 8 8.16356 7.648 8.20622 7.43467C8.76089 5.74933 9.12356 4.55467 9.29422 3.85067C9.46489 3.12533 9.50756 2.752 9.42222 2.73067C9.33689 2.73067 9.12356 2.74133 8.78222 2.76267C8.46222 2.784 8.09956 2.816 7.69422 2.85867C7.31022 2.88 6.95822 2.912 6.63822 2.95467C6.33956 2.99733 6.15822 3.04 6.09422 3.08267C5.98756 3.232 5.80622 3.264 5.55022 3.17867C5.29422 3.09333 5.13422 2.944 5.07022 2.73067C5.04889 2.53867 5.03822 2.38933 5.03822 2.28267C5.05956 2.176 5.12356 2.09067 5.23022 2.02667C5.37956 1.89867 5.66756 1.76 6.09422 1.61067C6.52089 1.44 7.00089 1.29067 7.53422 1.16267C8.08889 1.03467 8.61156 0.938667 9.10222 0.874667C9.46489 0.831999 9.82756 0.757333 10.1902 0.650666C10.5529 0.522666 10.8409 0.373333 11.0542 0.202666C11.2462 0.138667 11.4276 0.0853335 11.5982 0.0426661C11.7902 0 11.9822 -0.0106665 12.1742 0.0106665C12.3449 0.117333 12.6329 0.170666 13.0382 0.170666C13.4649 0.170666 13.9129 0.16 14.3822 0.138667C15.5769 0.0320002 16.3769 0 16.7822 0.0426661C17.2089 0.0853335 17.4969 0.256001 17.6462 0.554667C17.7529 0.96 17.7742 1.28 17.7102 1.51467C17.6462 1.728 17.4329 1.824 17.0702 1.80267C16.8782 1.84533 16.5262 1.888 16.0142 1.93067C15.5236 1.952 15.0009 1.97333 14.4462 1.99467C12.9316 2.12267 12.1209 2.272 12.0142 2.44267C11.9289 2.528 11.8542 2.61333 11.7902 2.69867C11.7476 2.784 11.6836 2.88 11.5982 2.98667C11.6196 3.072 11.5662 3.34933 11.4382 3.81867C11.3316 4.26667 11.1929 4.72533 11.0222 5.19467C10.9369 5.472 10.8089 5.86667 10.6382 6.37867C10.4676 6.89067 10.2862 7.424 10.0942 7.97867C9.92356 8.512 9.76356 9.00267 9.61422 9.45067C9.46489 9.87733 9.35822 10.1653 9.29422 10.3147C9.20889 10.5067 9.13422 10.72 9.07022 10.9547C9.02756 11.168 8.99556 11.328 8.97422 11.4347C8.67556 12.48 8.40889 13.3653 8.17422 14.0907C7.96089 14.816 7.75822 15.456 7.56622 16.0107C7.39556 16.544 7.23556 17.0667 7.08622 17.5787C6.93689 18.0693 6.77689 18.6133 6.60622 19.2107C6.60622 19.2107 6.76622 19.2 7.08622 19.1787C7.42756 19.136 7.87556 19.0933 8.43022 19.0507C9.43289 18.944 10.1476 18.88 10.5742 18.8587C11.0222 18.8373 11.3209 18.8693 11.4702 18.9547C11.6196 19.0187 11.7262 19.1467 11.7902 19.3387C12.2169 19.9147 12.2702 20.3093 11.9502 20.5227C11.6302 20.736 10.8729 20.832 9.67822 20.8107C8.56889 20.8533 7.71556 20.8853 7.11822 20.9067C6.54222 20.9493 6.13689 21.0027 5.90222 21.0667C5.68889 21.1307 5.56089 21.2373 5.51822 21.3867C5.51822 21.5573 5.43289 21.6427 5.26222 21.6427C5.09156 21.6427 4.87822 21.6 4.62222 21.5147Z" fill="#1A1A1A"/>
</svg>
