<svg width="16" height="28" viewBox="0 0 16 28" fill="none" xmlns="http://www.w3.org/2000/svg">
<path d="M4.08533 27.728C3.72267 27.8987 3.30667 27.9627 2.83733 27.92C2.38933 27.8987 1.94133 27.7707 1.49333 27.536C1.04533 27.3227 0.650667 27.0347 0.309333 26.672C0.16 26.5013 0.064 26.3307 0.0213333 26.16C-0.0213333 26.0107 0 25.7973 0.0853333 25.52C0.192 25.136 0.330667 24.944 0.501333 24.944C0.736 24.944 1.00267 25.1467 1.30133 25.552C1.89867 26.0853 2.48533 26.2347 3.06133 26C3.65867 25.7653 4.288 25.136 4.94933 24.112C5.07733 23.792 5.28 23.3333 5.55733 22.736C5.83467 22.1387 6.12267 21.4987 6.42133 20.816C6.74133 20.1333 7.02933 19.504 7.28533 18.928C7.54133 18.3307 7.712 17.904 7.79733 17.648C7.79733 17.648 7.79733 17.616 7.79733 17.552C7.81867 17.4667 7.872 17.3813 7.95733 17.296C7.97867 17.2107 8.032 17.04 8.11733 16.784C8.20267 16.528 8.288 16.2293 8.37333 15.888C8.45867 15.6533 8.576 15.3013 8.72533 14.832C8.896 14.3627 9.06667 13.872 9.23733 13.36C9.42933 12.848 9.58933 12.4213 9.71733 12.08C9.824 11.632 9.952 11.152 10.1013 10.64C10.272 10.1067 10.4107 9.70133 10.5173 9.424C10.6027 9.25333 10.7307 8.912 10.9013 8.4C11.072 7.86667 11.264 7.29067 11.4773 6.672C11.7333 5.84 11.9787 5.072 12.2133 4.368C12.448 3.64267 12.6293 3.056 12.7573 2.608C12.9067 2.13867 12.96 1.872 12.9173 1.808C12.9173 1.808 12.7253 1.84 12.3413 1.904C11.9787 1.968 11.5733 2.04267 11.1253 2.128C10.7627 2.27733 10.4 2.33067 10.0373 2.288C9.696 2.224 9.536 2.14933 9.55733 2.064C9.55733 1.97867 9.55733 1.936 9.55733 1.936C9.55733 1.91467 9.55733 1.904 9.55733 1.904C9.49333 1.94667 9.408 1.936 9.30133 1.872C9.19467 1.78667 9.09867 1.68 9.01333 1.552C8.928 1.40267 8.88533 1.27467 8.88533 1.168C8.88533 0.997334 9.09867 0.848 9.52533 0.719999C9.952 0.570667 10.496 0.453334 11.1573 0.368C11.584 0.304 12 0.250666 12.4053 0.208C12.832 0.144 13.184 0.0906665 13.4613 0.0480003C13.5467 -0.0160001 13.696 -0.0160001 13.9093 0.0480003C14.144 0.112 14.3787 0.197332 14.6133 0.303999C14.8693 0.410667 15.0507 0.528001 15.1573 0.656C15.2853 0.826667 15.36 1.008 15.3813 1.2C15.424 1.392 15.4027 1.65867 15.3173 2C15.232 2.34133 15.072 2.832 14.8373 3.472C14.624 4.09067 14.3147 4.944 13.9093 6.032C13.44 7.35467 13.024 8.56 12.6613 9.648C12.2987 10.7147 11.968 11.6 11.6693 12.304C11.6053 12.5387 11.488 12.88 11.3173 13.328C11.168 13.776 11.0187 14.2347 10.8693 14.704C10.72 15.152 10.6027 15.5253 10.5173 15.824C10.3467 16.2293 10.1867 16.6667 10.0373 17.136C9.888 17.6053 9.77067 17.9787 9.68533 18.256C9.68533 18.4267 9.64267 18.6187 9.55733 18.832C9.472 19.0453 9.376 19.2053 9.26933 19.312C9.26933 19.312 9.19467 19.504 9.04533 19.888C8.896 20.2507 8.71467 20.688 8.50133 21.2C8.33067 21.6267 8.13867 22.096 7.92533 22.608C7.73333 23.1413 7.552 23.5467 7.38133 23.824C7.27467 24.08 7.14667 24.3147 6.99733 24.528C6.848 24.7627 6.77333 24.9227 6.77333 25.008C6.77333 25.008 6.76267 25.04 6.74133 25.104C6.74133 25.168 6.69867 25.2 6.61333 25.2C6.61333 25.2 6.58133 25.2213 6.51733 25.264C6.45333 25.328 6.42133 25.4133 6.42133 25.52C6.37867 25.648 6.26133 25.8187 6.06933 26.032C5.89867 26.2453 5.68533 26.4693 5.42933 26.704C5.19467 26.9387 4.94933 27.1413 4.69333 27.312C4.45867 27.504 4.256 27.6427 4.08533 27.728Z" fill="#1A1A1A"/>
</svg>
