<svg width="20" height="23" viewBox="0 0 20 23" fill="none" xmlns="http://www.w3.org/2000/svg">
<path d="M0.452571 22.3476C0.175238 22.177 0.0259048 22.0063 0.00457144 21.8356C-0.0167619 21.6863 0.0365714 21.3876 0.164572 20.9396C0.143238 20.6623 0.153905 20.4063 0.196572 20.1716C0.260572 19.937 0.303238 19.777 0.324572 19.6916C0.431238 19.6916 0.495238 19.6276 0.516572 19.4996C0.537905 19.3716 0.548572 19.265 0.548572 19.1796C0.548572 19.009 0.612572 18.721 0.740571 18.3156C0.889905 17.9103 1.0179 17.4943 1.12457 17.0676C1.29524 16.641 1.45524 16.2463 1.60457 15.8836C1.77524 15.4996 1.86057 15.265 1.86057 15.1796C1.86057 15.009 1.90324 14.8383 1.98857 14.6676C2.0739 14.4756 2.1699 14.2943 2.27657 14.1236C2.38324 13.8676 2.4579 13.5903 2.50057 13.2916C2.56457 12.9716 2.59657 12.7263 2.59657 12.5556C2.72457 12.2783 2.86324 11.9796 3.01257 11.6596C3.16191 11.3396 3.27924 11.009 3.36457 10.6676C3.49257 10.305 3.6739 9.7823 3.90857 9.09964C4.16457 8.39564 4.43124 7.68097 4.70857 6.95564C4.90057 6.5503 5.09257 6.12364 5.28457 5.67564C5.47657 5.22764 5.64724 4.84364 5.79657 4.52364C5.94591 4.20364 6.05257 4.04364 6.11657 4.04364C6.11657 4.04364 6.11657 4.01164 6.11657 3.94764C6.11657 3.8623 6.11657 3.77697 6.11657 3.69164C6.11657 3.58497 6.2019 3.3823 6.37257 3.08364C6.54324 2.76364 6.70324 2.43297 6.85257 2.09164C7.06591 1.77164 7.21524 1.47297 7.30057 1.19564C7.3859 0.89697 7.42857 0.747637 7.42857 0.747637C7.42857 0.747637 7.46057 0.683636 7.52457 0.555635C7.6099 0.427636 7.69524 0.320969 7.78057 0.235636C8.05791 0.0436357 8.31391 -0.0310307 8.54857 0.0116367C8.80457 0.0543028 9.01791 0.256969 9.18857 0.619637C9.35924 0.960969 9.4339 1.24897 9.41257 1.48364C9.39124 1.69697 9.29524 1.93164 9.12457 2.18764C8.95391 2.57164 8.72991 3.0623 8.45257 3.65964C8.17524 4.23564 7.87657 4.86497 7.55657 5.54764C7.25791 6.20897 6.96991 6.84897 6.69257 7.46764C6.43657 8.06497 6.22324 8.58764 6.05257 9.03564C5.90324 9.4623 5.82857 9.72897 5.82857 9.83564L4.51657 13.0676C4.51657 13.1103 4.4739 13.217 4.38857 13.3876C4.32457 13.5583 4.22857 13.8143 4.10057 14.1556C3.99391 14.497 3.85524 14.945 3.68457 15.4996C3.51391 16.0543 3.31124 16.7263 3.07657 17.5156C2.6499 18.881 2.31924 19.9476 2.08457 20.7156C1.8499 21.4623 1.6579 21.9743 1.50857 22.2516C1.38057 22.5503 1.2419 22.6996 1.09257 22.6996C1.00724 22.6996 0.911238 22.657 0.804572 22.5716C0.719238 22.5076 0.601905 22.433 0.452571 22.3476ZM11.7486 22.6036C11.5566 22.625 11.2899 22.529 10.9486 22.3156C10.6286 22.1236 10.2766 21.8783 9.89257 21.5796C9.52991 21.281 9.17791 20.9716 8.83657 20.6516C8.51657 20.3316 8.26057 20.0543 8.06857 19.8196C7.72724 19.329 7.30057 18.689 6.78857 17.8996C6.27657 17.089 5.89257 16.225 5.63657 15.3076C5.48724 14.625 5.33791 14.0916 5.18857 13.7076C5.03924 13.3023 4.94324 12.9716 4.90057 12.7156L4.93257 10.4756L6.56457 10.9876C6.67124 12.1396 6.83124 13.0996 7.04457 13.8676C7.27924 14.6143 7.55657 15.2756 7.87657 15.8516C8.13257 16.4063 8.42057 16.961 8.74057 17.5156C9.06057 18.049 9.40191 18.497 9.76457 18.8596C10.2552 19.393 10.6926 19.7876 11.0766 20.0436C11.4606 20.2996 11.7486 20.4276 11.9406 20.4276C12.0472 20.449 12.1966 20.5236 12.3886 20.6516C12.6019 20.7796 12.7939 20.9183 12.9646 21.0676C13.1566 21.1956 13.2632 21.3236 13.2846 21.4516C13.3059 21.5156 13.3166 21.6116 13.3166 21.7396C13.3166 21.889 13.2952 22.017 13.2526 22.1236C13.2312 22.2516 13.1992 22.3476 13.1566 22.4116C13.0926 22.561 12.9752 22.689 12.8046 22.7956C12.6552 22.9236 12.3032 22.8596 11.7486 22.6036ZM4.58057 10.7316L6.91657 9.03564C6.98057 8.97164 7.20457 8.7583 7.58857 8.39564C7.99391 8.03297 8.65524 7.5103 9.57257 6.82764L13.5086 3.62764C14.0419 3.3503 14.5859 2.9983 15.1406 2.57164C15.7166 2.14497 16.1539 1.83564 16.4526 1.64364C16.8152 1.38764 17.1352 1.16364 17.4126 0.971636C17.6899 0.779636 17.8712 0.694302 17.9566 0.715635C18.1272 0.630303 18.2979 0.662303 18.4686 0.811636C18.6606 0.939636 18.8099 1.12097 18.9166 1.35564C19.0446 1.56897 19.0979 1.76097 19.0766 1.93164C19.1192 2.14497 19.0766 2.3263 18.9486 2.47564C18.8206 2.62497 18.5112 2.8383 18.0206 3.11564C17.6152 3.30764 17.2526 3.49964 16.9326 3.69164C16.6339 3.88364 16.4526 4.04364 16.3886 4.17164C16.3886 4.17164 16.1859 4.33164 15.7806 4.65164C15.3966 4.9503 14.8952 5.31297 14.2766 5.73964C13.4232 6.2943 12.6872 6.81697 12.0686 7.30764C11.4712 7.7983 11.0872 8.17164 10.9166 8.42764C10.8312 8.42764 10.7459 8.45964 10.6606 8.52364C10.5966 8.58764 10.5219 8.60897 10.4366 8.58764C10.4366 8.58764 10.3512 8.64097 10.1806 8.74764C10.0312 8.8543 9.91391 8.96097 9.82857 9.06764C9.78591 9.1743 9.68991 9.32364 9.54057 9.51564C9.41257 9.70764 9.24191 9.79297 9.02857 9.77164C8.87924 9.85697 8.61257 10.0383 8.22857 10.3156C7.84457 10.5716 7.43924 10.8596 7.01257 11.1796C6.60724 11.4996 6.25524 11.7876 5.95657 12.0436C5.6579 12.2996 5.49791 12.449 5.47657 12.4916L4.58057 10.7316Z" fill="#1A1A1A"/>
</svg>
