<svg width="25" height="23" viewBox="0 0 25 23" fill="none" xmlns="http://www.w3.org/2000/svg">
<path d="M20.064 22.7984C20.0427 22.9264 19.9147 22.9584 19.68 22.8944C19.4667 22.8517 19.2747 22.7024 19.104 22.4464C18.9333 22.0411 18.848 21.6677 18.848 21.3264C18.848 20.9851 18.8587 20.4731 18.88 19.7904C19.008 19.0437 19.1787 18.0731 19.392 16.8784C19.6267 15.6624 19.8933 14.3077 20.192 12.8144C20.512 11.2997 20.8533 9.72107 21.216 8.0784C21.472 7.22507 21.6747 6.4464 21.824 5.7424C21.9947 5.01707 22.1227 4.4304 22.208 3.9824C22.2933 3.5344 22.336 3.3104 22.336 3.3104C22.336 3.2464 22.272 3.2784 22.144 3.4064C22.0373 3.51307 21.9307 3.64107 21.824 3.7904C21.7173 3.93973 21.6747 4.05707 21.696 4.1424C21.696 4.1424 21.6213 4.24907 21.472 4.4624C21.3227 4.67573 21.1307 4.96373 20.896 5.3264C20.6827 5.53973 20.4267 5.9664 20.128 6.6064C19.8293 7.2464 19.4987 7.84373 19.136 8.3984C18.7947 9.0384 18.432 9.73173 18.048 10.4784C17.664 11.2037 17.3227 11.8117 17.024 12.3024C16.832 12.5797 16.64 12.8997 16.448 13.2624C16.256 13.6251 16.1387 13.8597 16.096 13.9664C16.0107 14.2011 15.8613 14.4891 15.648 14.8304C15.4347 15.1504 15.2 15.4704 14.944 15.7904C14.816 15.9824 14.688 16.1851 14.56 16.3984C14.432 16.5904 14.3253 16.7611 14.24 16.9104C14.176 17.0384 14.144 17.1024 14.144 17.1024C14.144 17.1664 14.0373 17.3584 13.824 17.6784C13.632 17.9984 13.3867 18.3504 13.088 18.7344C12.8107 19.1184 12.544 19.4491 12.288 19.7264C11.5413 20.5157 10.944 20.9851 10.496 21.1344C10.048 21.2624 9.54667 21.0704 8.992 20.5584C8.71467 20.2171 8.512 19.8331 8.384 19.4064C8.256 18.9584 8.20267 18.4144 8.224 17.7744C8.24533 17.1131 8.32 16.2917 8.448 15.3104C8.59733 14.5637 8.736 13.8171 8.864 13.0704C8.992 12.3024 9.10933 11.5877 9.216 10.9264C9.344 10.2437 9.45067 9.66773 9.536 9.1984C9.64267 8.72907 9.728 8.41973 9.792 8.2704C9.83467 7.84373 9.824 7.60907 9.76 7.5664C9.696 7.52373 9.568 7.65173 9.376 7.9504C9.29067 8.09973 9.06667 8.47307 8.704 9.0704C8.34133 9.6464 7.91467 10.3611 7.424 11.2144C6.95467 12.0677 6.48533 12.9957 6.016 13.9984C5.14133 15.6197 4.416 16.9637 3.84 18.0304C3.28533 19.0757 2.83733 19.9077 2.496 20.5264C2.176 21.1451 1.94133 21.6037 1.792 21.9024C1.64267 22.2011 1.536 22.4037 1.472 22.5104C1.408 22.6171 1.35467 22.6917 1.312 22.7344C1.12 22.7344 0.917333 22.6491 0.704 22.4784C0.512 22.3291 0.309333 22.1477 0.096 21.9344C0.032 21.7851 0 21.6357 0 21.4864C0.0213333 21.3371 0.096 21.1237 0.224 20.8464C0.352 20.5477 0.544 20.0997 0.8 19.5024C1.07733 18.9477 1.33333 18.4677 1.568 18.0624C1.80267 17.6357 1.984 17.3797 2.112 17.2944C2.21867 17.1237 2.31467 16.9531 2.4 16.7824C2.48533 16.6117 2.53867 16.4091 2.56 16.1744C2.66667 16.0464 2.82667 15.7904 3.04 15.4064C3.27467 15.0011 3.50933 14.5637 3.744 14.0944C3.91467 13.8171 4.128 13.4544 4.384 13.0064C4.66133 12.5584 4.94933 12.0677 5.248 11.5344C5.54667 10.9797 5.81333 10.4571 6.048 9.9664C7.02933 8.28107 7.86133 6.8624 8.544 5.7104C9.22667 4.53707 9.73867 3.7904 10.08 3.4704C10.1867 3.36373 10.2933 3.2144 10.4 3.0224C10.528 2.8304 10.592 2.65973 10.592 2.5104C10.592 2.0624 10.6773 1.65707 10.848 1.2944C11.04 0.910401 11.232 0.739734 11.424 0.7824C11.6373 0.7824 11.8293 0.803734 12 0.846401C12.1707 0.889067 12.352 1.02773 12.544 1.2624C12.7147 1.5184 12.864 1.7744 12.992 2.0304C13.12 2.2864 13.1093 2.7984 12.96 3.5664C12.96 3.86507 12.928 4.2064 12.864 4.5904C12.8 4.95307 12.736 5.2944 12.672 5.6144C12.6293 5.91307 12.5973 6.14773 12.576 6.3184C12.2987 7.1504 12.0427 8.08907 11.808 9.1344C11.5733 10.1584 11.36 11.2037 11.168 12.2704C10.976 13.3157 10.816 14.2971 10.688 15.2144C10.56 16.1104 10.4747 16.8571 10.432 17.4544C10.4107 18.0304 10.432 18.3611 10.496 18.4464C10.6453 18.5317 10.7733 18.5424 10.88 18.4784C10.9867 18.4144 11.168 18.1371 11.424 17.6464C11.5733 17.3904 11.776 17.0811 12.032 16.7184C12.3093 16.3344 12.576 15.9824 12.832 15.6624C13.0027 15.3637 13.2693 14.9157 13.632 14.3184C13.9947 13.7211 14.4533 12.9531 15.008 12.0144C15.584 11.0757 16.2667 9.9344 17.056 8.5904C17.8667 7.22507 18.784 5.6464 19.808 3.8544C20.2987 3.10773 20.7573 2.3824 21.184 1.6784C21.632 0.953067 21.9947 0.483734 22.272 0.270401C22.5707 -0.00693285 22.88 -0.0709333 23.2 0.0783994C23.52 0.2064 23.7973 0.483734 24.032 0.9104C24.288 1.33707 24.4267 1.8704 24.448 2.5104C24.4693 2.80907 24.4267 3.28907 24.32 3.9504C24.2347 4.61173 24.096 5.36907 23.904 6.2224C23.712 7.0544 23.4667 7.9184 23.168 8.8144C23.104 9.17707 22.9973 9.63573 22.848 10.1904C22.72 10.7237 22.5707 11.2784 22.4 11.8544C22.2293 12.4304 22.0587 12.9744 21.888 13.4864C21.7813 14.1904 21.6533 14.8837 21.504 15.5664C21.376 16.2491 21.3333 16.7077 21.376 16.9424C21.184 17.2837 21.056 17.7744 20.992 18.4144C20.928 19.0544 20.896 19.7157 20.896 20.3984C20.8107 21.2304 20.7467 21.8171 20.704 22.1584C20.6613 22.4997 20.5867 22.6597 20.48 22.6384C20.2027 22.5531 20.064 22.6064 20.064 22.7984Z" fill="#1A1A1A"/>
</svg>
