<svg width="21" height="26" viewBox="0 0 21 26" fill="none" xmlns="http://www.w3.org/2000/svg">
<path d="M0.4736 25.1876C0.260267 24.9529 0.1216 24.7502 0.0576001 24.5796C-0.00640001 24.4302 -0.0170667 24.2382 0.0256001 24.0036C0.0896 23.7902 0.174933 23.4809 0.2816 23.0756C0.452267 22.3929 0.6336 21.8276 0.8256 21.3796C1.03893 20.9102 1.2416 20.4302 1.4336 19.9396C1.64693 19.4276 1.82827 18.7769 1.9776 17.9876C2.31893 17.1982 2.6176 16.4516 2.8736 15.7476C3.15093 15.0436 3.36427 14.4676 3.5136 14.0196C3.66293 13.5716 3.7376 13.3476 3.7376 13.3476C3.75893 13.2622 3.85493 13.0382 4.0256 12.6756C4.19627 12.3129 4.4096 11.8756 4.6656 11.3636C4.94293 10.8302 5.19893 10.2969 5.4336 9.76356C5.79627 8.73956 6.08427 7.86489 6.2976 7.13955C6.53227 6.39289 6.76693 5.72089 7.0016 5.12356C7.23627 4.52622 7.5456 3.93956 7.9296 3.36356C8.1856 2.91556 8.48427 2.62756 8.8256 2.49956C9.16693 2.37155 9.48693 2.38222 9.7856 2.53156C10.1056 2.65956 10.3296 2.93689 10.4576 3.36356C10.5643 3.57689 10.6496 3.83289 10.7136 4.13156C10.7989 4.43022 10.8736 4.86756 10.9376 5.44356C11.0016 5.99822 11.0443 6.78755 11.0656 7.81155C11.1083 9.02756 11.1189 10.2329 11.0976 11.4276C11.0763 12.6009 11.0763 13.6889 11.0976 14.6916C11.1403 15.6942 11.2576 16.5476 11.4496 17.2516C11.5136 17.6356 11.5989 18.1049 11.7056 18.6596C11.8336 19.1929 11.9616 19.7262 12.0896 20.2596C12.2389 20.7929 12.3776 21.2409 12.5056 21.6036C12.6549 21.9662 12.7723 22.1476 12.8576 22.1476C12.9643 22.1476 13.1029 22.0089 13.2736 21.7316C13.4656 21.4542 13.7003 20.9529 13.9776 20.2276C14.2763 19.5022 14.6283 18.4782 15.0336 17.1556C15.4389 15.8116 15.8976 14.0942 16.4096 12.0036C16.5163 11.6409 16.6549 11.0542 16.8256 10.2436C17.0176 9.43289 17.1563 8.61156 17.2416 7.77956C17.3909 7.24622 17.5403 6.65956 17.6896 6.01956C17.8389 5.37956 17.9669 4.81422 18.0736 4.32355C18.2016 3.83289 18.2656 3.55555 18.2656 3.49155C18.2656 3.34222 18.2656 3.21422 18.2656 3.10756C18.2869 3.00089 18.2869 2.89422 18.2656 2.78756C18.3723 2.78756 18.4683 2.64889 18.5536 2.37156C18.6389 2.07289 18.6816 1.81689 18.6816 1.60356C18.6816 1.24089 18.7243 0.952889 18.8096 0.739556C18.9163 0.504888 19.0229 0.334221 19.1296 0.227555C19.1936 0.0568888 19.3536 -0.0177776 19.6096 0.00355549C19.8656 0.00355549 20.1216 0.0675553 20.3776 0.195555C20.6336 0.323555 20.7936 0.494222 20.8576 0.707556C20.9003 0.942222 20.8363 1.47556 20.6656 2.30755C20.5163 3.11822 20.2816 4.21689 19.9616 5.60356C19.9616 5.83822 19.8976 6.22222 19.7696 6.75556C19.6416 7.28889 19.5029 7.85422 19.3536 8.45156C19.2256 9.04889 19.1296 9.56089 19.0656 9.98756C18.9803 10.5422 18.8843 11.0649 18.7776 11.5556C18.6709 12.0249 18.5643 12.2489 18.4576 12.2276C17.9029 14.6382 17.3163 16.6969 16.6976 18.4036C16.1003 20.0889 15.5669 21.4649 15.0976 22.5316C14.5856 23.7049 14.0203 24.4089 13.4016 24.6436C12.8043 24.8996 12.1643 24.5902 11.4816 23.7156C11.0763 23.1609 10.7563 22.6169 10.5216 22.0836C10.2869 21.5289 10.0949 20.8889 9.9456 20.1636C9.79627 19.4169 9.61493 18.4996 9.4016 17.4116C9.0816 16.5369 8.90027 15.6516 8.8576 14.7556C8.83627 13.8596 8.86827 12.9422 8.9536 12.0036C9.03893 11.0436 9.10293 10.0516 9.1456 9.02756C9.12427 8.00356 9.0816 7.32089 9.0176 6.97956C8.9536 6.63822 8.8256 6.65956 8.6336 7.04356C8.46293 7.40622 8.17493 8.15289 7.7696 9.28356C7.62027 9.68889 7.4176 10.1796 7.1616 10.7556C6.92693 11.3316 6.69227 11.9076 6.4576 12.4836C6.22293 13.0382 6.02027 13.5289 5.8496 13.9556C5.67893 14.3609 5.57227 14.6169 5.5296 14.7236C5.4016 14.9796 5.25227 15.3209 5.0816 15.7476C4.91093 16.1529 4.77227 16.5902 4.6656 17.0596C3.8976 19.0649 3.3216 20.6649 2.9376 21.8596C2.57493 23.0542 2.30827 23.8862 2.1376 24.3556C1.92427 24.9529 1.70027 25.3476 1.4656 25.5396C1.23093 25.7529 0.900267 25.6356 0.4736 25.1876Z" fill="#1A1A1A"/>
</svg>
