<svg width="17" height="29" viewBox="0 0 17 29" fill="none" xmlns="http://www.w3.org/2000/svg">
<path d="M1.92 27.5008C1.13067 26.9035 0.629333 26.4448 0.416 26.1248C0.202667 25.7835 0.0746667 25.3781 0.0319999 24.9088C-0.0106666 24.5248 -0.0106666 24.0021 0.0319999 23.3408C0.0959999 22.6795 0.170667 22.0288 0.256 21.3888C0.341333 20.7488 0.416 20.2688 0.48 19.9488C0.586667 19.8421 0.629333 19.7035 0.608 19.5328C0.608 19.3408 0.608 19.2448 0.608 19.2448C0.586667 19.1381 0.661333 18.8608 0.832 18.4128C1.00267 17.9435 1.16267 17.3461 1.312 16.6208C1.73867 15.3408 2.144 14.2741 2.528 13.4208C2.93333 12.5461 3.328 11.7995 3.712 11.1808C4.096 10.5621 4.48 9.9968 4.864 9.4848C5.73867 8.5888 6.44267 7.9168 6.976 7.4688C7.50933 6.99947 8.10667 6.61547 8.768 6.3168C9.19467 6.0608 9.58933 5.85813 9.952 5.7088C10.3147 5.55947 10.6133 5.53813 10.848 5.6448C12.0427 5.9008 12.9387 6.39147 13.536 7.1168C14.1333 7.8208 14.5707 8.91947 14.848 10.4128C14.9973 11.3515 15.0827 12.2048 15.104 12.9728C15.1467 13.7195 15.0933 14.4661 14.944 15.2128C14.7947 15.9381 14.5173 16.7381 14.112 17.6128C13.728 18.4875 13.184 19.5115 12.48 20.6848C11.7333 22.1568 10.8907 23.4368 9.952 24.5248C9.03467 25.6128 8.08533 26.4661 7.104 27.0848C6.144 27.7248 5.20533 28.0875 4.288 28.1728C3.392 28.2581 2.60267 28.0341 1.92 27.5008ZM3.968 26.5728C4.45867 26.5088 4.928 26.3595 5.376 26.1248C5.824 25.8901 6.29333 25.5488 6.784 25.1008C7.27467 24.6315 7.82933 24.0448 8.448 23.3408C9.00267 22.7008 9.45067 22.1675 9.792 21.7408C10.1547 21.2928 10.4533 20.8448 10.688 20.3968C10.944 19.9488 11.1787 19.4048 11.392 18.7648C11.6267 18.1248 11.8933 17.2928 12.192 16.2688C12.3627 15.6288 12.4907 15.0955 12.576 14.6688C12.6613 14.2421 12.7147 13.8475 12.736 13.4848C12.7573 13.1008 12.7573 12.6635 12.736 12.1728C12.736 11.6821 12.736 11.0528 12.736 10.2848C12.7147 9.92213 12.64 9.5488 12.512 9.1648C12.384 8.75947 12.2347 8.4608 12.064 8.2688C11.8507 8.03413 11.552 7.87413 11.168 7.7888C10.784 7.68213 10.3573 7.73547 9.888 7.9488C9.632 8.05547 9.30133 8.3008 8.896 8.6848C8.49067 9.04747 8.064 9.47414 7.616 9.9648C7.168 10.4555 6.74133 10.9568 6.336 11.4688C5.952 11.9808 5.632 12.4395 5.376 12.8448C5.14133 13.2288 5.024 13.4955 5.024 13.6448C5.024 13.6448 5.01333 13.6981 4.992 13.8048C4.992 13.9115 4.94933 14.0181 4.864 14.1248C4.58667 14.4235 4.27733 14.9568 3.936 15.7248C3.616 16.4928 3.30667 17.3675 3.008 18.3488C2.70933 19.3088 2.45333 20.2688 2.24 21.2288C2.048 22.1675 1.93067 22.9888 1.888 23.6928C1.84533 24.2688 1.824 24.6635 1.824 24.8768C1.824 25.0901 1.86667 25.2608 1.952 25.3888C2.03733 25.4955 2.176 25.7088 2.368 26.0288C2.496 26.2421 2.70933 26.4021 3.008 26.5088C3.328 26.6155 3.648 26.6368 3.968 26.5728ZM14.528 2.8608C14.3787 2.71147 14.2507 2.53013 14.144 2.3168C14.0587 2.08213 14.0267 1.92213 14.048 1.8368C14.0907 1.73013 14.1653 1.52747 14.272 1.2288C14.4 0.9088 14.5387 0.6848 14.688 0.5568C14.752 0.514133 14.8267 0.450133 14.912 0.364799C14.9973 0.258132 15.0827 0.194133 15.168 0.1728C15.424 -0.0192005 15.6587 -0.0512001 15.872 0.0768008C16.1067 0.2048 16.2773 0.439467 16.384 0.780799C16.576 1.07947 16.64 1.34613 16.576 1.5808C16.512 1.79413 16.3413 2.08213 16.064 2.4448C15.744 2.8928 15.456 3.13813 15.2 3.1808C14.944 3.22347 14.72 3.1168 14.528 2.8608ZM10.4 2.8608C10.2507 2.71147 10.1227 2.53013 10.016 2.3168C9.93067 2.08213 9.89867 1.92213 9.92 1.8368C9.96267 1.73013 10.0373 1.52747 10.144 1.2288C10.272 0.9088 10.4107 0.6848 10.56 0.5568C10.624 0.514133 10.688 0.450133 10.752 0.364799C10.8373 0.258132 10.9227 0.194133 11.008 0.1728C11.1787 0.0448 11.3387 -0.0085333 11.488 0.0127998C11.6587 0.0341328 11.808 0.1088 11.936 0.236801C12.0853 0.3648 12.192 0.546133 12.256 0.780799C12.448 1.07947 12.512 1.34613 12.448 1.5808C12.384 1.79413 12.2133 2.08213 11.936 2.4448C11.5947 2.8928 11.296 3.13813 11.04 3.1808C10.784 3.22347 10.5707 3.1168 10.4 2.8608Z" fill="#1A1A1A"/>
</svg>
