<svg width="16" height="23" viewBox="0 0 16 23" fill="none" xmlns="http://www.w3.org/2000/svg">
<path d="M1.92 21.9227C1.13067 21.3253 0.629333 20.8667 0.416 20.5467C0.202667 20.2053 0.0746667 19.8 0.0319999 19.3307C-0.0106666 18.9467 -0.0106666 18.424 0.0319999 17.7627C0.0959999 17.1013 0.170667 16.4507 0.256 15.8107C0.341333 15.1707 0.416 14.6907 0.48 14.3707C0.586667 14.264 0.629333 14.1253 0.608 13.9547C0.608 13.7627 0.608 13.6667 0.608 13.6667C0.586667 13.56 0.661333 13.2827 0.832 12.8347C1.00267 12.3653 1.16267 11.768 1.312 11.0427C1.73867 9.76267 2.144 8.696 2.528 7.84267C2.93333 6.968 3.328 6.22133 3.712 5.60267C4.096 4.984 4.48 4.41867 4.864 3.90667C5.73867 3.01067 6.44267 2.33867 6.976 1.89067C7.50933 1.42133 8.10667 1.03733 8.768 0.738667C9.19467 0.482667 9.58933 0.28 9.952 0.130667C10.3147 -0.0186665 10.6133 -0.0400002 10.848 0.0666664C12.0427 0.322667 12.9387 0.813334 13.536 1.53867C14.1333 2.24267 14.5707 3.34133 14.848 4.83467C14.9973 5.77333 15.0827 6.62667 15.104 7.39467C15.1467 8.14133 15.0933 8.888 14.944 9.63467C14.7947 10.36 14.5173 11.16 14.112 12.0347C13.728 12.9093 13.184 13.9333 12.48 15.1067C11.7333 16.5787 10.8907 17.8587 9.952 18.9467C9.03467 20.0347 8.08533 20.888 7.104 21.5067C6.144 22.1467 5.20533 22.5093 4.288 22.5947C3.392 22.68 2.60267 22.456 1.92 21.9227ZM3.968 20.9947C4.45867 20.9307 4.928 20.7813 5.376 20.5467C5.824 20.312 6.29333 19.9707 6.784 19.5227C7.27467 19.0533 7.82933 18.4667 8.448 17.7627C9.00267 17.1227 9.45067 16.5893 9.792 16.1627C10.1547 15.7147 10.4533 15.2667 10.688 14.8187C10.944 14.3707 11.1787 13.8267 11.392 13.1867C11.6267 12.5467 11.8933 11.7147 12.192 10.6907C12.3627 10.0507 12.4907 9.51733 12.576 9.09067C12.6613 8.664 12.7147 8.26933 12.736 7.90667C12.7573 7.52267 12.7573 7.08533 12.736 6.59467C12.736 6.104 12.736 5.47467 12.736 4.70667C12.7147 4.344 12.64 3.97067 12.512 3.58667C12.384 3.18133 12.2347 2.88267 12.064 2.69067C11.8507 2.456 11.552 2.296 11.168 2.21067C10.784 2.104 10.3573 2.15733 9.888 2.37067C9.632 2.47733 9.30133 2.72267 8.896 3.10667C8.49067 3.46933 8.064 3.896 7.616 4.38667C7.168 4.87733 6.74133 5.37867 6.336 5.89067C5.952 6.40267 5.632 6.86133 5.376 7.26667C5.14133 7.65067 5.024 7.91733 5.024 8.06667C5.024 8.06667 5.01333 8.12 4.992 8.22667C4.992 8.33333 4.94933 8.44 4.864 8.54667C4.58667 8.84533 4.27733 9.37867 3.936 10.1467C3.616 10.9147 3.30667 11.7893 3.008 12.7707C2.70933 13.7307 2.45333 14.6907 2.24 15.6507C2.048 16.5893 1.93067 17.4107 1.888 18.1147C1.84533 18.6907 1.824 19.0853 1.824 19.2987C1.824 19.512 1.86667 19.6827 1.952 19.8107C2.03733 19.9173 2.176 20.1307 2.368 20.4507C2.496 20.664 2.70933 20.824 3.008 20.9307C3.328 21.0373 3.648 21.0587 3.968 20.9947Z" fill="#1A1A1A"/>
</svg>
