<svg width="17" height="23" viewBox="0 0 17 23" fill="none" xmlns="http://www.w3.org/2000/svg">
<path d="M0.899556 22.752C0.643556 22.752 0.430222 22.6133 0.259556 22.336C0.131556 22.208 0.0462223 22.0267 0.00355557 21.792C-0.0177778 21.5787 0.0568888 21.184 0.227556 20.608C0.398222 20.0107 0.686222 19.104 1.09156 17.888C1.30489 17.0773 1.47556 16.4907 1.60356 16.128C1.73156 15.744 1.79556 15.4667 1.79556 15.296C1.79556 15.0613 1.81689 14.8693 1.85956 14.72C1.92356 14.5493 1.95556 14.3893 1.95556 14.24C2.08356 14.24 2.21156 14.1227 2.33956 13.888C2.46756 13.6533 2.57422 13.3333 2.65956 12.928C2.74489 12.5653 2.81956 12.2773 2.88356 12.064C2.96889 11.8293 3.01156 11.6693 3.01156 11.584C3.11822 11.4133 3.22489 11.1467 3.33156 10.784C3.45956 10.4213 3.65156 9.984 3.90756 9.472C4.07822 8.832 4.27022 8.17067 4.48356 7.488C4.69689 6.784 4.91022 6.13333 5.12356 5.536C5.35822 4.91733 5.55022 4.43733 5.69956 4.096C5.93422 3.43467 6.11556 2.976 6.24356 2.72C6.37156 2.44267 6.37156 2.26133 6.24356 2.176C6.09422 2.06933 6.06222 1.888 6.14756 1.632C6.23289 1.376 6.46756 1.088 6.85156 0.768C7.08622 0.490667 7.28889 0.298668 7.45956 0.192001C7.63022 0.0640004 7.84356 0 8.09956 0C8.37689 0 8.77156 0.0213337 9.28356 0.0640011C9.66756 0.0853341 10.0729 0.0960007 10.4996 0.0960007C10.9476 0.0960007 11.2249 0.0960007 11.3316 0.0960007C11.5236 0.181334 11.7582 0.277334 12.0356 0.384001C12.3129 0.469334 12.5582 0.554668 12.7716 0.640001C13.0062 0.725334 13.1236 0.8 13.1236 0.864C13.1236 0.992 13.1662 1.07733 13.2516 1.12C13.3582 1.14133 13.4649 1.16267 13.5716 1.184C13.7209 1.184 13.9236 1.30133 14.1796 1.536C14.4356 1.74933 14.7022 2.02667 14.9796 2.368C15.2569 2.688 15.4702 3.02933 15.6196 3.392C15.7902 3.75467 15.9182 4.096 16.0036 4.416C16.1102 4.736 16.1102 5.19467 16.0036 5.792C15.9822 6.112 15.9289 6.432 15.8436 6.752C15.7796 7.072 15.7049 7.28533 15.6196 7.392C15.4916 7.47733 15.3742 7.584 15.2676 7.712C15.1609 7.84 15.1076 7.95733 15.1076 8.064C15.1076 8.14933 15.0329 8.32 14.8836 8.576C14.7342 8.81067 14.5422 9.088 14.3076 9.408C14.0729 9.728 13.8169 10.048 13.5396 10.368C13.2622 10.688 12.9956 10.9653 12.7396 11.2C12.4622 11.5413 12.1316 11.8613 11.7476 12.16C11.3849 12.4587 11.0542 12.704 10.7556 12.896C10.2009 13.152 9.58222 13.408 8.89956 13.664C8.23822 13.92 7.59822 14.1333 6.97956 14.304C6.38222 14.4747 5.88089 14.5493 5.47556 14.528C4.85689 14.6133 4.45156 14.6987 4.25956 14.784C4.08889 14.848 3.96089 15.0293 3.87556 15.328C3.76889 15.6053 3.66222 15.8933 3.55556 16.192C3.47022 16.4693 3.42756 16.6613 3.42756 16.768C3.38489 16.8533 3.27822 17.12 3.10756 17.568C2.95822 17.9947 2.78756 18.496 2.59556 19.072C2.42489 19.648 2.25422 20.2133 2.08356 20.768C1.91289 21.3227 1.78489 21.7813 1.69956 22.144C1.61422 22.4427 1.50756 22.6133 1.37956 22.656C1.25156 22.72 1.09156 22.752 0.899556 22.752ZM4.86756 12.832C4.95289 12.9173 5.28356 12.928 5.85956 12.864C6.43556 12.8 7.05422 12.64 7.71556 12.384C8.14222 12.2347 8.56889 12.0533 8.99556 11.84C9.44356 11.6267 9.87022 11.392 10.2756 11.136C10.4889 10.9867 10.8089 10.72 11.2356 10.336C11.6622 9.952 12.0889 9.49333 12.5156 8.96C12.5796 8.85333 12.6862 8.65067 12.8356 8.352C13.0062 8.032 13.1556 7.73333 13.2836 7.456C13.4756 7.15733 13.6676 6.72 13.8596 6.144C14.0516 5.54667 14.0942 5.056 13.9876 4.672C13.8809 4.11733 13.6036 3.60533 13.1556 3.136C12.7076 2.64533 12.1742 2.31467 11.5556 2.144C11.0862 2.05867 10.6916 2.016 10.3716 2.016C10.0729 2.016 9.74222 2.048 9.37956 2.112C9.03822 2.21867 8.78222 2.368 8.61156 2.56C8.46222 2.752 8.25956 3.15733 8.00356 3.776C7.85422 4.07467 7.64089 4.53333 7.36356 5.152C7.08622 5.74933 6.85156 6.31467 6.65956 6.848C6.27556 8.256 5.89156 9.41867 5.50756 10.336C5.14489 11.232 4.92089 11.7973 4.83556 12.032C4.85689 12.2667 4.84622 12.4373 4.80356 12.544C4.76089 12.6293 4.78222 12.7253 4.86756 12.832Z" fill="#1A1A1A"/>
</svg>
