<svg width="18" height="24" viewBox="0 0 18 24" fill="none" xmlns="http://www.w3.org/2000/svg">
<path d="M1.8848 23.09C1.79947 23.3033 1.63947 23.4207 1.4048 23.442C1.19147 23.4633 0.903467 23.3353 0.5408 23.058C0.2848 22.802 0.114133 22.5993 0.0288 22.45C-0.0352 22.322 0.00746669 22.0873 0.1568 21.746C0.306133 21.426 0.562133 20.85 0.9248 20.018C1.01013 19.506 1.15947 18.994 1.3728 18.482C1.58613 17.9487 1.74613 17.5753 1.8528 17.362C1.93813 17.0633 2.1088 16.5727 2.3648 15.89C2.64213 15.186 2.95147 14.4073 3.2928 13.554C3.65547 12.7007 3.9968 11.9007 4.3168 11.154C4.6368 10.386 4.87147 9.81 5.0208 9.426C5.38347 8.57267 5.7568 7.67667 6.1408 6.738C6.5248 5.79933 7.04747 4.61533 7.7088 3.186C7.79413 2.97267 7.8368 2.74867 7.8368 2.514C7.85813 2.27933 7.68747 2.162 7.3248 2.162C7.11147 1.92733 6.99413 1.69267 6.9728 1.458C6.95147 1.202 7.05813 1.02067 7.2928 0.914L8.9568 0.241999C9.95947 0.00733325 10.9835 -0.0566666 12.0288 0.05C13.0955 0.135333 14.0981 0.423334 15.0368 0.914C16.0608 1.51133 16.7861 2.11933 17.2128 2.738C17.6395 3.33533 17.8528 3.94333 17.8528 4.562C17.8741 5.18067 17.7675 5.78867 17.5328 6.386C17.3621 6.834 17.0315 7.32467 16.5408 7.858C16.0715 8.39133 15.5168 8.92467 14.8768 9.458C14.2581 9.99133 13.6075 10.482 12.9248 10.93C12.2635 11.3567 11.6448 11.6873 11.0688 11.922C10.5355 12.178 9.9808 12.402 9.4048 12.594C8.8288 12.786 8.23147 12.978 7.6128 13.17C7.27147 13.2553 6.86613 13.298 6.3968 13.298C5.92747 13.298 5.57547 13.2553 5.3408 13.17L4.7968 14.674C4.58347 15.442 4.21013 16.5833 3.6768 18.098C3.1648 19.6127 2.56747 21.2767 1.8848 23.09ZM14.5888 23.442C14.4181 23.506 14.2155 23.5273 13.9808 23.506C13.7675 23.4847 13.4155 23.314 12.9248 22.994C11.9861 22.4393 11.0475 21.7673 10.1088 20.978C9.17013 20.1887 8.11413 19.122 6.9408 17.778C6.4928 17.2447 6.1088 16.754 5.7888 16.306C5.49013 15.858 5.17013 15.2287 4.8288 14.418L4.3808 12.69L5.2448 12.21L6.3968 13.362C6.73813 14.1087 7.17547 14.8233 7.7088 15.506C8.26347 16.1887 8.77547 16.7967 9.2448 17.33C9.6288 17.778 10.1515 18.322 10.8128 18.962C11.4741 19.5807 12.1781 20.178 12.9248 20.754C13.6715 21.33 14.3435 21.7673 14.9408 22.066C15.0688 22.1727 15.1115 22.3327 15.0688 22.546C15.0261 22.7593 14.9515 22.9513 14.8448 23.122C14.7595 23.314 14.6741 23.4207 14.5888 23.442ZM6.3328 11.538C6.82347 11.4953 7.39947 11.378 8.0608 11.186C8.72213 10.9727 9.38347 10.7273 10.0448 10.45C10.6635 10.1513 11.3141 9.79933 11.9968 9.394C12.7008 8.96733 13.3515 8.498 13.9488 7.986C14.5461 7.474 15.0261 6.94067 15.3888 6.386C15.7728 5.83133 15.9435 5.27667 15.9008 4.722C15.9008 4.44467 15.7941 4.15667 15.5808 3.858C15.3675 3.55933 15.1115 3.29267 14.8128 3.058C14.5141 2.82333 14.2261 2.66333 13.9488 2.578C13.0955 2.36467 12.3915 2.226 11.8368 2.162C11.2821 2.098 10.8555 2.14067 10.5568 2.29C10.2581 2.418 10.0555 2.69533 9.9488 3.122C9.9488 3.186 9.86347 3.39933 9.6928 3.762C9.52213 4.12467 9.3088 4.57267 9.0528 5.106C8.81813 5.63933 8.58347 6.20467 8.3488 6.802C7.73013 8.06067 7.2608 9.02067 6.9408 9.682C6.6208 10.322 6.41813 10.77 6.3328 11.026C6.24747 11.282 6.24747 11.4527 6.3328 11.538Z" fill="#1A1A1A"/>
</svg>
