<svg width="17" height="24" viewBox="0 0 17 24" fill="none" xmlns="http://www.w3.org/2000/svg">
<path d="M3.936 23.808C3.552 23.7013 3.24267 23.6053 3.008 23.52C2.77333 23.456 2.656 23.424 2.656 23.424C2.69867 23.3173 2.67733 23.2213 2.592 23.136C2.528 23.0507 2.37867 22.9973 2.144 22.976C1.824 22.784 1.52533 22.5387 1.248 22.24C0.992 21.9627 0.778666 21.6853 0.608 21.408C0.437333 21.1307 0.309333 20.896 0.224 20.704C0.0746667 20.384 0 20.192 0 20.128C0.0213331 20.0427 0.149333 19.9467 0.384 19.84C0.618667 19.6693 0.789333 19.616 0.896 19.68C1.024 19.744 1.17333 19.9573 1.344 20.32C1.62133 20.8107 2.09067 21.184 2.752 21.44C3.43467 21.696 4.192 21.8133 5.024 21.792C5.87733 21.7493 6.688 21.5573 7.456 21.216C8.24533 20.896 8.736 20.5653 8.928 20.224C9.14133 19.8613 9.06667 19.4027 8.704 18.848C8.64 18.6773 8.56533 18.5387 8.48 18.432C8.39467 18.3253 8.256 18.1867 8.064 18.016C7.89333 17.8453 7.60533 17.568 7.2 17.184C6.88 17.0347 6.58133 16.896 6.304 16.768C6.048 16.64 5.77067 16.5013 5.472 16.352C5.13067 16.1813 4.71467 15.936 4.224 15.616C3.75467 15.2747 3.30667 14.9013 2.88 14.496C2.45333 14.0907 2.144 13.7173 1.952 13.376C1.61067 13.056 1.35467 12.6187 1.184 12.064C1.01333 11.488 0.949333 10.88 0.992 10.24C1.03467 9.6 1.19467 9.024 1.472 8.512C1.6 8.21333 1.81333 7.85067 2.112 7.424C2.432 6.976 2.784 6.528 3.168 6.08C3.552 5.632 3.92533 5.22667 4.288 4.864C4.65067 4.50133 4.94933 4.24533 5.184 4.096C5.35467 3.92533 5.536 3.75467 5.728 3.584C5.92 3.392 6.016 3.296 6.016 3.296C6.03733 3.18933 6.06933 3.136 6.112 3.136C6.176 3.136 6.208 3.136 6.208 3.136C6.31467 3.072 6.54933 2.96533 6.912 2.816C7.27467 2.66667 7.66933 2.38933 8.096 1.984C9.52533 1.30133 10.688 0.799999 11.584 0.48C12.48 0.16 13.216 0 13.792 0C14.3253 0.0213331 14.8053 0.149333 15.232 0.383999C15.68 0.597332 16.0427 0.885332 16.32 1.248C16.6187 1.61067 16.8 2.048 16.864 2.56C17.0133 3.072 16.9707 3.66933 16.736 4.352C16.5013 5.01333 16.1493 5.64267 15.68 6.24C15.232 6.816 14.7413 7.25333 14.208 7.552C13.6107 7.808 13.2053 7.92533 12.992 7.904C12.8 7.86133 12.7147 7.63733 12.736 7.232C12.736 7.06133 12.7893 6.85867 12.896 6.624C13.024 6.38933 13.3547 5.97333 13.888 5.376C14.5707 4.37333 14.9867 3.57333 15.136 2.976C15.2853 2.37867 15.1467 2.048 14.72 1.984C14.592 1.94133 14.3573 1.94133 14.016 1.984C13.696 2.02667 13.3333 2.09067 12.928 2.176C12.544 2.24 12.2133 2.31467 11.936 2.4C11.6587 2.464 11.52 2.51733 11.52 2.56C11.52 2.56 11.52 2.592 11.52 2.656C11.52 2.72 11.4773 2.74133 11.392 2.72C11.3493 2.72 11.168 2.80533 10.848 2.976C10.528 3.14667 10.144 3.37067 9.696 3.648C9.248 3.92533 8.8 4.20267 8.352 4.48C7.904 4.75733 7.52 5.00267 7.2 5.216C6.90133 5.408 6.74133 5.52533 6.72 5.568C6.67733 5.80267 6.432 6.016 5.984 6.208C5.55733 6.464 5.16267 6.83733 4.8 7.328C4.45867 7.81867 4.07467 8.42667 3.648 9.152C3.28533 9.64267 3.02933 10.176 2.88 10.752C2.73067 11.3067 2.73067 11.7547 2.88 12.096C2.98667 12.4373 3.31733 12.8747 3.872 13.408C4.42667 13.9413 5.12 14.4533 5.952 14.944C6.67733 15.3493 7.328 15.7547 7.904 16.16C8.48 16.544 8.94933 16.9173 9.312 17.28C9.696 17.6427 9.952 17.9627 10.08 18.24C10.336 18.6027 10.5173 18.976 10.624 19.36C10.752 19.7227 10.816 20.0747 10.816 20.416C10.8373 20.7573 10.8053 21.0667 10.72 21.344C10.5707 21.6853 10.304 22.0373 9.92 22.4C9.55733 22.7627 9.248 22.9333 8.992 22.912C8.75733 22.976 8.576 23.0507 8.448 23.136C8.34133 23.2213 8.21333 23.296 8.064 23.36C7.91467 23.4453 7.59467 23.5307 7.104 23.616C6.63467 23.7013 6.112 23.7547 5.536 23.776C4.96 23.8187 4.42667 23.8293 3.936 23.808Z" fill="#1A1A1A"/>
</svg>
