<svg width="17" height="29" viewBox="0 0 17 29" fill="none" xmlns="http://www.w3.org/2000/svg">
<path d="M3.10539 28.5248C2.12406 28.1621 1.36672 27.5968 0.833391 26.8288C0.321391 26.0395 0.0440579 24.9408 0.00139129 23.5328C-0.0199419 22.1035 0.204058 20.2795 0.673391 18.0608C0.822725 17.3141 1.03606 16.4608 1.31339 15.5008C1.59072 14.5408 1.91072 13.5595 2.27339 12.5568C2.65739 11.5328 3.05206 10.5515 3.45739 9.6128C3.88406 8.6528 4.30006 7.81013 4.70539 7.0848C5.19606 6.21013 5.56939 5.66613 5.82539 5.4528C6.10272 5.21813 6.34806 5.12213 6.56139 5.1648C6.96672 5.27147 7.25472 5.47413 7.42539 5.7728C7.61739 6.05013 7.68139 6.35947 7.61739 6.7008C7.57473 7.0208 7.37206 7.29813 7.00939 7.5328C6.77473 7.81013 6.46539 8.32213 6.08139 9.0688C5.71872 9.79413 5.34539 10.4981 4.96139 11.1808C4.53473 12.4181 4.16139 13.5168 3.84139 14.4768C3.52139 15.4155 3.25472 16.3008 3.04139 17.1328C2.82806 17.9648 2.63606 18.8395 2.46539 19.7568C2.27339 20.6528 2.12406 21.3888 2.01739 21.9648C1.93206 22.5408 1.86806 23.0208 1.82539 23.4048C1.80406 23.7675 1.79339 24.0875 1.79339 24.3648C1.79339 24.6421 1.79339 24.9301 1.79339 25.2288C1.96406 25.5061 2.10272 25.7515 2.20939 25.9648C2.31606 26.1781 2.45472 26.3061 2.62539 26.3488C2.98806 26.5195 3.39339 26.5621 3.84139 26.4768C4.31072 26.3915 4.76939 26.2208 5.21739 25.9648C5.32406 25.7515 5.46272 25.6021 5.63339 25.5168C5.80406 25.4315 5.88939 25.3888 5.88939 25.3888C5.93206 25.4955 5.97472 25.5275 6.01739 25.4848C6.08139 25.4208 6.12406 25.3461 6.14539 25.2608C6.12406 25.1755 6.14539 25.1008 6.20939 25.0368C6.27339 24.9515 6.34806 24.8661 6.43339 24.7808C6.60406 24.7168 6.84939 24.5035 7.16939 24.1408C7.51072 23.7568 7.85206 23.3301 8.19339 22.8608C8.55606 22.3915 8.85473 21.9648 9.08939 21.5808C9.34539 21.1968 9.47339 20.9621 9.47339 20.8768C9.47339 20.7701 9.51606 20.6741 9.60139 20.5888C9.68673 20.5035 9.78273 20.3968 9.88939 20.2688C9.99606 20.1621 10.2094 19.8208 10.5294 19.2448C10.8707 18.6475 11.2334 17.9541 11.6174 17.1648C12.0227 16.3755 12.3854 15.6501 12.7054 14.9888C12.7694 14.7541 12.8867 14.3808 13.0574 13.8688C13.2281 13.3355 13.4094 12.7275 13.6014 12.0448C13.8147 11.3621 14.0174 10.6795 14.2094 9.9968C14.4014 9.2928 14.5721 8.67413 14.7214 8.1408C14.8921 7.58613 14.9987 7.1808 15.0414 6.9248C15.0841 6.64747 15.1481 6.42347 15.2334 6.2528C15.3187 6.0608 15.3721 5.92213 15.3934 5.8368C15.5001 5.79413 15.6281 5.8048 15.7774 5.8688C15.9267 5.9328 16.0761 6.00747 16.2254 6.0928C16.3961 6.17813 16.5454 6.2528 16.6734 6.3168C16.8014 6.48747 16.8547 6.7008 16.8334 6.9568C16.8121 7.2128 16.7374 7.60747 16.6094 8.1408C16.5027 8.6528 16.3427 9.39947 16.1294 10.3808C15.6814 12.1301 15.1374 13.7408 14.4974 15.2128C13.8787 16.6848 13.2067 18.2421 12.4814 19.8848C12.4814 19.8848 12.4814 19.8955 12.4814 19.9168C12.4814 19.9168 12.4814 19.9701 12.4814 20.0768C12.2254 20.2261 12.0227 20.4501 11.8734 20.7488C11.7667 20.9408 11.6707 21.1115 11.5854 21.2608C11.5214 21.3888 11.4361 21.4848 11.3294 21.5488C11.2654 21.7408 11.2014 21.9115 11.1374 22.0608C11.0734 22.2101 11.0414 22.2848 11.0414 22.2848C11.0201 22.3915 10.9454 22.4875 10.8174 22.5728C10.6894 22.6581 10.5614 22.7435 10.4334 22.8288C10.3267 22.8715 10.2627 22.9568 10.2414 23.0848C10.2201 23.2128 10.1774 23.3195 10.1134 23.4048C9.64406 24.1088 9.11073 24.8021 8.51339 25.4848C7.91606 26.1675 7.29739 26.7541 6.65739 27.2448C6.03873 27.7568 5.44139 28.1195 4.86539 28.3328C4.48139 28.4821 4.16139 28.5675 3.90539 28.5888C3.67072 28.6101 3.40406 28.5888 3.10539 28.5248ZM13.7934 2.8608C13.6441 2.71147 13.5161 2.53013 13.4094 2.3168C13.3241 2.08213 13.2921 1.92213 13.3134 1.8368C13.3561 1.73013 13.4307 1.52747 13.5374 1.2288C13.6654 0.9088 13.8041 0.6848 13.9534 0.5568C14.0174 0.514133 14.0921 0.450133 14.1774 0.364799C14.2627 0.258132 14.3481 0.194133 14.4334 0.1728C14.6894 -0.0192005 14.9241 -0.0512001 15.1374 0.0768008C15.3721 0.2048 15.5427 0.439467 15.6494 0.780799C15.8414 1.07947 15.9054 1.34613 15.8414 1.5808C15.7774 1.79413 15.6067 2.08213 15.3294 2.4448C15.0094 2.8928 14.7214 3.13813 14.4654 3.1808C14.2094 3.22347 13.9854 3.1168 13.7934 2.8608ZM9.66539 2.8608C9.51606 2.71147 9.38806 2.53013 9.28139 2.3168C9.19606 2.08213 9.16406 1.92213 9.18539 1.8368C9.22806 1.73013 9.30273 1.52747 9.40939 1.2288C9.53739 0.9088 9.67606 0.6848 9.82539 0.5568C9.88939 0.514133 9.95339 0.450133 10.0174 0.364799C10.1027 0.258132 10.1881 0.194133 10.2734 0.1728C10.4441 0.0448 10.6041 -0.0085333 10.7534 0.0127998C10.9241 0.0341328 11.0734 0.1088 11.2014 0.236801C11.3507 0.3648 11.4574 0.546133 11.5214 0.780799C11.7134 1.07947 11.7774 1.34613 11.7134 1.5808C11.6494 1.79413 11.4787 2.08213 11.2014 2.4448C10.8601 2.8928 10.5614 3.13813 10.3054 3.1808C10.0494 3.22347 9.83606 3.1168 9.66539 2.8608Z" fill="#1A1A1A"/>
</svg>
