<svg width="20" height="23" viewBox="0 0 20 23" fill="none" xmlns="http://www.w3.org/2000/svg">
<path d="M18.496 0.311112C18.9227 0.332445 19.2 0.513777 19.328 0.85511C19.456 1.17511 19.4347 1.62311 19.264 2.19911C19.0933 2.77511 18.752 3.42578 18.24 4.15111C17.7493 4.64178 17.472 5.05778 17.408 5.39911C17.2587 5.59111 17.024 5.86844 16.704 6.23111C16.4053 6.57244 16.0747 6.94578 15.712 7.35111C15.3707 7.73511 15.0613 8.07644 14.784 8.37511C14.528 8.67378 14.3573 8.85511 14.272 8.91911C13.9733 9.17511 13.632 9.47378 13.248 9.81511C12.8853 10.1564 12.5547 10.4764 12.256 10.7751C11.9787 11.0524 11.7973 11.2444 11.712 11.3511C11.5627 11.5004 11.424 11.6604 11.296 11.8311C11.168 11.9804 11.0507 12.0764 10.944 12.1191C10.9227 12.2044 10.8587 12.3111 10.752 12.4391C10.6453 12.5458 10.5707 12.6524 10.528 12.7591C10.4853 12.7804 10.3467 12.8978 10.112 13.1111C9.87733 13.3244 9.61067 13.5698 9.312 13.8471C9.03467 14.1031 8.77867 14.3378 8.544 14.5511C8.33067 14.7644 8.21333 14.8924 8.192 14.9351C7.95733 15.1484 7.59467 15.5218 7.104 16.0551C6.61333 16.5671 6.06933 17.1431 5.472 17.7831C4.87467 18.4231 4.29867 19.0524 3.744 19.6711C3.18933 20.2684 2.72 20.7804 2.336 21.2071C1.97333 21.6551 1.77067 21.9324 1.728 22.0391C1.64267 22.2098 1.504 22.3164 1.312 22.3591C1.14133 22.4231 0.970667 22.4338 0.8 22.3911C0.714667 22.4338 0.618667 22.4444 0.512 22.4231C0.426667 22.4231 0.362667 22.4124 0.32 22.3911C0.32 22.3911 0.298667 22.3378 0.256 22.2311C0.213333 22.1244 0.170667 21.9538 0.128 21.7191C2.98023e-08 21.5058 -0.032 21.3031 0.032 21.1111C0.096 20.9191 0.170667 20.7058 0.256 20.4711C0.405333 20.1938 0.554667 19.9591 0.704 19.7671C0.853333 19.5751 1.10933 19.3191 1.472 18.9991C1.83467 18.6578 2.38933 18.1351 3.136 17.4311C3.47733 17.0898 3.81867 16.7698 4.16 16.4711C4.52267 16.1511 4.71467 15.9591 4.736 15.8951C4.75733 15.8098 4.84267 15.6924 4.992 15.5431C5.14133 15.3938 5.29067 15.2124 5.44 14.9991C5.58933 14.8924 5.83467 14.6791 6.176 14.3591C6.53867 14.0178 6.93333 13.6444 7.36 13.2391C7.78667 12.8124 8.20267 12.3964 8.608 11.9911C9.03467 11.5858 9.38667 11.2551 9.664 10.9991C9.792 10.8284 9.94133 10.6578 10.112 10.4871C10.304 10.2951 10.5067 10.0711 10.72 9.81511C10.7413 9.77244 10.88 9.62311 11.136 9.36711C11.4133 9.08978 11.7333 8.76978 12.096 8.40711C12.4587 8.02311 12.8 7.66044 13.12 7.31911C13.4613 6.95644 13.7173 6.67911 13.888 6.48711C14.7413 5.48444 15.5093 4.55644 16.192 3.70311C16.896 2.82844 17.3867 2.09244 17.664 1.49511C17.8773 1.04711 18.0267 0.748444 18.112 0.599112C18.1973 0.428445 18.3253 0.332445 18.496 0.311112ZM13.984 21.7511C13.5787 21.7084 13.1733 21.4951 12.768 21.1111C12.3627 20.7484 11.9147 20.1298 11.424 19.2551C10.6347 18.1671 9.94133 16.8551 9.344 15.3191C8.74667 13.7618 8.33067 12.0871 8.096 10.2951C7.98933 9.54844 7.872 8.90844 7.744 8.37511C7.616 7.82044 7.53067 7.52178 7.488 7.47911C7.46667 7.39378 7.47733 7.34044 7.52 7.31911C7.584 7.27644 7.616 7.25511 7.616 7.25511C7.68 7.19111 7.69067 7.12711 7.648 7.06311C7.60533 6.97778 7.56267 6.88178 7.52 6.77511C7.52 6.77511 7.46667 6.52978 7.36 6.03911C7.25333 5.54844 7.168 4.94044 7.104 4.21511C7.01867 3.44711 6.944 2.78578 6.88 2.23111C6.83733 1.65511 6.79467 1.28178 6.752 1.11111C6.688 1.06844 6.656 1.00444 6.656 0.919111C6.656 0.833778 6.656 0.791111 6.656 0.791111C6.69867 0.663111 6.76267 0.556445 6.848 0.471111C6.93333 0.364445 7.008 0.279111 7.072 0.215111C7.392 -0.0195553 7.70133 -0.0622221 8 0.0871106C8.32 0.21511 8.576 0.481777 8.768 0.887112C8.98133 1.27111 9.088 1.72978 9.088 2.26311C9.088 2.81778 9.152 3.15911 9.28 3.28711C9.25867 3.32978 9.248 3.48978 9.248 3.76711C9.26933 4.04444 9.29067 4.36444 9.312 4.72711C9.35467 5.06844 9.39733 5.38844 9.44 5.68711C9.48267 5.98578 9.51467 6.18844 9.536 6.29511C9.45067 6.55111 9.45067 6.73244 9.536 6.83911C9.55733 7.00978 9.58933 7.24444 9.632 7.54311C9.67467 7.82044 9.68533 8.01244 9.664 8.11911C9.64267 8.22578 9.664 8.41778 9.728 8.69511C9.81333 8.95111 9.888 9.21778 9.952 9.49511L10.784 12.3751C10.9547 13.0578 11.1147 13.6658 11.264 14.1991C11.4133 14.7111 11.5947 15.2231 11.808 15.7351C12.0213 16.2258 12.2773 16.7804 12.576 17.3991C12.8107 17.9111 13.088 18.3911 13.408 18.8391C13.728 19.2658 14.016 19.5538 14.272 19.7031C14.3147 19.7458 14.4213 19.7778 14.592 19.7991C14.784 19.7991 14.9013 19.7671 14.944 19.7031C15.1787 19.6391 15.3493 19.6818 15.456 19.8311C15.584 19.9591 15.6693 20.1298 15.712 20.3431C15.776 20.5351 15.808 20.7378 15.808 20.9511C15.8507 21.1004 15.776 21.2391 15.584 21.3671C15.4133 21.5164 15.1787 21.6231 14.88 21.6871C14.6027 21.7724 14.304 21.7938 13.984 21.7511Z" fill="#1A1A1A"/>
</svg>
