<svg width="8" height="12" viewBox="0 0 8 12" fill="none" xmlns="http://www.w3.org/2000/svg">
<path d="M0.321 11.3776C0.129 11.2709 0.0223333 11.1536 0.001 11.0256C-0.00966668 10.8976 0.065 10.6736 0.225 10.3536C0.385 10.0336 0.635667 9.5376 0.977 8.8656C1.233 8.3856 1.425 8.01227 1.553 7.7456C1.69167 7.46827 1.78233 7.27093 1.825 7.1536C1.87833 7.03627 1.905 6.9616 1.905 6.9296C1.88367 6.8336 1.89433 6.75893 1.937 6.7056C1.97967 6.6416 2.049 6.58827 2.145 6.5456C2.19833 6.49227 2.28367 6.39627 2.401 6.2576C2.529 6.11893 2.64633 5.9536 2.753 5.7616C2.849 5.5376 2.961 5.30827 3.089 5.0736C3.217 4.83893 3.38767 4.5456 3.601 4.1936C3.81433 3.83093 4.09167 3.3616 4.433 2.7856C4.64633 2.41227 4.881 2.0336 5.137 1.6496C5.393 1.25493 5.665 0.8656 5.953 0.4816C6.07033 0.332267 6.177 0.214933 6.273 0.1296C6.369 0.0336002 6.465 -0.00906657 6.561 0.00159996C6.689 0.00159996 6.833 0.0442667 6.993 0.1296C7.16367 0.214933 7.31833 0.326933 7.457 0.4656C7.59567 0.604267 7.697 0.7536 7.761 0.9136C7.81433 0.998933 7.83567 1.18027 7.825 1.4576C7.81433 1.73493 7.793 2.07093 7.761 2.4656C7.729 2.86027 7.69167 3.2816 7.649 3.7296C7.617 4.16693 7.569 4.68427 7.505 5.2816C7.441 5.87893 7.377 6.50293 7.313 7.1536C7.25967 7.80427 7.217 8.4336 7.185 9.0416C7.153 9.63893 7.153 10.1616 7.185 10.6096C7.19567 10.7056 7.19567 10.7963 7.185 10.8816C7.17433 10.9669 7.169 11.0363 7.169 11.0896C7.105 11.1536 6.99833 11.1803 6.849 11.1696C6.71033 11.1696 6.57167 11.1376 6.433 11.0736C6.305 11.0096 6.23033 10.9296 6.209 10.8336C6.177 10.8016 6.15567 10.7589 6.145 10.7056C6.145 10.6416 6.15033 10.5136 6.161 10.3216C6.17167 10.1296 6.18233 9.8256 6.193 9.4096L6.273 6.8176L6.065 6.8336C5.969 6.8336 5.78767 6.84427 5.521 6.8656C5.25433 6.88693 4.96633 6.91893 4.657 6.9616C4.34767 6.9936 4.05967 7.03093 3.793 7.0736C3.537 7.1056 3.361 7.1376 3.265 7.1696C3.169 7.1696 3.05167 7.2336 2.913 7.3616C2.785 7.4896 2.66233 7.65493 2.545 7.8576C2.50233 8.00693 2.42233 8.16693 2.305 8.3376C2.19833 8.4976 2.145 8.60427 2.145 8.6576C2.07033 8.71093 2.00633 8.77493 1.953 8.8496C1.91033 8.92427 1.889 8.9616 1.889 8.9616C1.889 9.0256 1.83567 9.1856 1.729 9.4416C1.633 9.68693 1.51033 9.96427 1.361 10.2736C1.21167 10.5723 1.06233 10.8336 0.913 11.0576L0.577 11.5696L0.321 11.3776ZM3.633 6.2256C3.633 6.2256 3.68633 6.21493 3.793 6.1936C3.91033 6.17227 4.04367 6.15093 4.193 6.1296C4.353 6.0976 4.497 6.0816 4.625 6.0816C5.073 5.97493 5.39833 5.9056 5.601 5.8736C5.80367 5.83093 5.94233 5.8096 6.017 5.8096C6.10233 5.8096 6.177 5.8256 6.241 5.8576C6.28367 5.91093 6.321 5.94293 6.353 5.9536C6.39567 5.96427 6.417 5.9696 6.417 5.9696C6.42767 5.94827 6.44367 5.8256 6.465 5.6016C6.48633 5.3776 6.513 5.10027 6.545 4.7696C6.58767 4.43893 6.625 4.0976 6.657 3.7456C6.69967 3.38293 6.73167 3.05227 6.753 2.7536C6.77433 2.44427 6.79033 2.2096 6.801 2.0496C6.81167 1.84693 6.82233 1.6656 6.833 1.5056C6.84367 1.33493 6.849 1.2496 6.849 1.2496C6.785 1.2496 6.64633 1.36693 6.433 1.6016C6.23033 1.83627 6.001 2.1456 5.745 2.5296C5.489 2.9136 5.249 3.32427 5.025 3.7616C4.91833 3.96427 4.817 4.1456 4.721 4.3056C4.625 4.4656 4.55033 4.5456 4.497 4.5456C4.47567 4.56693 4.41167 4.66293 4.305 4.8336C4.209 4.9936 4.10233 5.18027 3.985 5.3936C3.86767 5.59627 3.77167 5.78293 3.697 5.9536C3.62233 6.1136 3.601 6.20427 3.633 6.2256Z" fill="#1F170F"/>
</svg>
