<svg width="9" height="12" viewBox="0 0 9 12" fill="none" xmlns="http://www.w3.org/2000/svg">
<path d="M1.264 11.1166C1.15733 11.1272 0.997333 11.1006 0.784 11.0366C0.581333 10.9619 0.442667 10.8872 0.368 10.8126C0.293333 10.7059 0.224 10.5779 0.16 10.4286C0.106667 10.2792 0.0639999 10.1459 0.0319999 10.0286C0.0106666 9.90057 0 9.82591 0 9.80457L0.192 8.47657C0.245333 8.38057 0.272 8.27924 0.272 8.17257C0.282667 8.06591 0.309333 7.96457 0.352 7.86857C0.341333 7.81524 0.357333 7.70857 0.4 7.54857C0.453333 7.37791 0.512 7.19124 0.576 6.98857C0.650667 6.77524 0.72 6.58324 0.784 6.41257C0.848 6.23124 0.885333 6.11391 0.896 6.06057C0.938667 5.90057 0.997333 5.74057 1.072 5.58057C1.14667 5.42057 1.216 5.26057 1.28 5.10057C1.36533 4.82324 1.42933 4.62057 1.472 4.49257C1.51467 4.36457 1.552 4.26324 1.584 4.18857C1.62667 4.11391 1.67467 4.02857 1.728 3.93257C1.78133 3.8259 1.856 3.6659 1.952 3.45257L2.896 1.30857C2.78933 1.25524 2.69333 1.1539 2.608 1.00457C2.52267 0.844571 2.48 0.700571 2.48 0.572571C2.46933 0.508571 2.48 0.465905 2.512 0.444572C2.544 0.412572 2.59733 0.380571 2.672 0.348571C2.78933 0.348571 2.912 0.343238 3.04 0.332571C3.168 0.321905 3.296 0.327238 3.424 0.348571C3.52 0.359238 3.584 0.353905 3.616 0.332571C3.648 0.300571 3.712 0.295238 3.808 0.316571C3.904 0.348572 4 0.359238 4.096 0.348571C4.20267 0.337905 4.29333 0.311238 4.368 0.268571C4.4 0.268571 4.496 0.263238 4.656 0.252571C4.816 0.241905 4.992 0.231238 5.184 0.220572C5.38667 0.209905 5.56267 0.199238 5.712 0.188571C5.872 0.177905 5.968 0.172571 6 0.172571C5.98933 0.172571 6.05867 0.167238 6.208 0.156572C6.368 0.145904 6.55467 0.135238 6.768 0.124571C6.98133 0.103238 7.17333 0.0872382 7.344 0.0765717C7.51467 0.055238 7.61067 0.0392379 7.632 0.0285714C7.856 -0.0247619 8.01067 -0.00342853 8.096 0.0925715C8.18133 0.188572 8.24533 0.279238 8.288 0.364572C8.30933 0.417905 8.336 0.476572 8.368 0.540571C8.4 0.593905 8.42133 0.641905 8.432 0.684572C8.45333 0.716572 8.448 0.737905 8.416 0.748572C8.36267 0.823238 8.288 0.876571 8.192 0.908571C8.10667 0.940572 8.00533 0.935238 7.888 0.892572C7.84533 0.881905 7.69067 0.881905 7.424 0.892572C7.15733 0.903238 6.832 0.924572 6.448 0.956572C6.07467 0.988571 5.69067 1.0259 5.296 1.06857C4.912 1.10057 4.576 1.13257 4.288 1.16457C4.18133 1.22857 4.09067 1.31391 4.016 1.42057C3.94133 1.51657 3.872 1.62324 3.808 1.74057C3.776 1.80457 3.70133 1.9539 3.584 2.18857C3.47733 2.42324 3.36 2.67924 3.232 2.95657C3.104 3.23391 2.99733 3.47391 2.912 3.67657C2.82667 3.86857 2.784 3.95924 2.784 3.94857C2.69867 4.0659 2.72 4.13524 2.848 4.15657C2.98667 4.17791 3.104 4.18857 3.2 4.18857C3.28533 4.18857 3.37067 4.20991 3.456 4.25257C3.552 4.28457 3.64267 4.29524 3.728 4.28457C3.78133 4.27391 3.88267 4.28991 4.032 4.33257C4.192 4.36457 4.36267 4.41257 4.544 4.47657C4.736 4.52991 4.90667 4.58857 5.056 4.65257C5.216 4.7059 5.328 4.7539 5.392 4.79657C5.63733 4.94591 5.85067 5.09524 6.032 5.24457C6.21333 5.3939 6.35733 5.57524 6.464 5.78857C6.57067 6.00191 6.66133 6.22057 6.736 6.44457C6.81067 6.66857 6.83733 6.90324 6.816 7.14857C6.816 7.20191 6.8 7.31391 6.768 7.48457C6.74667 7.64457 6.71467 7.80991 6.672 7.98057C6.62933 8.15124 6.58133 8.27924 6.528 8.36457C6.4 8.5779 6.26133 8.78057 6.112 8.97257C5.97333 9.15391 5.84533 9.31391 5.728 9.45257C5.55733 9.66591 5.35467 9.84724 5.12 9.99657C4.896 10.1352 4.66133 10.2632 4.416 10.3806C4.224 10.4766 4.07467 10.5512 3.968 10.6046C3.872 10.6472 3.78133 10.6792 3.696 10.7006C3.61067 10.7219 3.49333 10.7486 3.344 10.7806C3.35467 10.7806 3.30133 10.7966 3.184 10.8286C3.06667 10.8499 2.94933 10.8766 2.832 10.9086C2.71467 10.9406 2.656 10.9566 2.656 10.9566C2.51733 11.0312 2.37333 11.0792 2.224 11.1006C2.07467 11.1112 1.92533 11.1166 1.776 11.1166C1.69067 11.1166 1.60533 11.1112 1.52 11.1006C1.43467 11.1006 1.34933 11.1059 1.264 11.1166ZM1.12 10.2686C1.28 10.2579 1.44533 10.2526 1.616 10.2526C1.78667 10.2526 1.95733 10.2312 2.128 10.1886C2.66133 10.0392 3.15733 9.87924 3.616 9.70857C4.08533 9.5379 4.512 9.23924 4.896 8.81257C5.16267 8.50324 5.36 8.21524 5.488 7.94857C5.62667 7.6819 5.73333 7.37791 5.808 7.03657C5.85067 6.86591 5.85067 6.71124 5.808 6.57257C5.76533 6.42324 5.728 6.24724 5.696 6.04457C5.6 5.82057 5.50933 5.67124 5.424 5.59657C5.33867 5.51124 5.25333 5.45791 5.168 5.43657C5.08267 5.41524 4.99733 5.38324 4.912 5.34057C4.77333 5.22324 4.576 5.14324 4.32 5.10057C4.064 5.05791 3.888 5.03124 3.792 5.02057C3.856 5.03124 3.84 5.03124 3.744 5.02057C3.65867 4.99924 3.53067 4.97791 3.36 4.95657C3.18933 4.92457 3.01867 4.89791 2.848 4.87657C2.67733 4.85524 2.544 4.84457 2.448 4.84457C2.37333 5.01524 2.29333 5.20191 2.208 5.40457C2.13333 5.60724 2.05333 5.80991 1.968 6.01257C1.89333 6.20457 1.824 6.39657 1.76 6.58857C1.65333 6.89791 1.552 7.21257 1.456 7.53257C1.36 7.84191 1.26933 8.15657 1.184 8.47657C1.14133 8.65791 1.09867 8.87657 1.056 9.13257C1.01333 9.38857 0.992 9.62857 0.992 9.85257C1.00267 10.0659 1.04533 10.2046 1.12 10.2686Z" fill="#1F170F"/>
</svg>
