<svg width="8" height="13" viewBox="0 0 8 13" fill="none" xmlns="http://www.w3.org/2000/svg">
<path d="M3.54667 12.72C3.36533 12.6453 3.25867 12.5547 3.22667 12.448C3.19467 12.3413 3.21067 12.192 3.27467 12C3.33867 11.808 3.41333 11.552 3.49867 11.232C3.53067 11.136 3.568 10.9813 3.61067 10.768C3.65333 10.544 3.70133 10.304 3.75467 10.048C3.81867 9.792 3.87733 9.55733 3.93067 9.344C3.984 9.13067 4.032 8.98667 4.07467 8.912L4.89067 6.72L6.12267 3.136C6.176 2.816 6.26667 2.52267 6.39467 2.256C6.52267 1.98933 6.576 1.77067 6.55467 1.6C6.55467 1.51467 6.61333 1.44533 6.73067 1.392C6.848 1.33867 6.98133 1.31733 7.13067 1.328C7.28 1.33867 7.392 1.39733 7.46667 1.504C7.54133 1.57867 7.59467 1.664 7.62667 1.76C7.65867 1.856 7.648 1.99467 7.59467 2.176L7.01867 3.456L6.74667 4.32C6.64 4.61867 6.544 4.92267 6.45867 5.232C6.37333 5.53067 6.272 5.82933 6.15467 6.128C6.016 6.42667 5.87733 6.77867 5.73867 7.184C5.6 7.58933 5.41867 8.10133 5.19467 8.72C5.10933 8.92267 5.01867 9.216 4.92267 9.6C4.82667 9.984 4.736 10.368 4.65067 10.752C4.56533 11.1253 4.48533 11.4187 4.41067 11.632C4.42133 11.7707 4.39467 11.8933 4.33067 12C4.27733 12.1173 4.25067 12.2507 4.25067 12.4C4.26133 12.464 4.22933 12.5333 4.15467 12.608C4.08 12.6827 3.98933 12.7307 3.88267 12.752C3.776 12.784 3.664 12.7733 3.54667 12.72ZM1.86667 8.256C1.376 8.27733 0.954667 8.16533 0.602667 7.92C0.261333 7.67467 0.064 7.37067 0.0106667 7.008C-0.0106667 6.784 -5.58794e-08 6.52267 0.0426665 6.224C0.096 5.91467 0.154667 5.616 0.218667 5.328C0.293333 5.02933 0.352 4.8 0.394667 4.64C0.405333 4.58667 0.442667 4.464 0.506667 4.272C0.570667 4.06933 0.64 3.84533 0.714667 3.6C0.8 3.344 0.874667 3.12 0.938667 2.928C1.01333 2.736 1.056 2.624 1.06667 2.592C1.39733 1.93067 1.62133 1.41867 1.73867 1.056C1.856 0.693333 1.952 0.384 2.02667 0.128C2.03733 0.0426668 2.096 0 2.20267 0C2.352 0 2.50133 0.048 2.65067 0.144C2.8 0.24 2.912 0.357333 2.98667 0.496C3.072 0.624 3.07733 0.741333 3.00267 0.848C2.91733 1.008 2.82133 1.20533 2.71467 1.44C2.608 1.664 2.50133 1.888 2.39467 2.112C2.29867 2.336 2.208 2.528 2.12267 2.688L1.57867 4.032C1.504 4.23467 1.42933 4.49067 1.35467 4.8C1.29067 5.10933 1.21067 5.36 1.11467 5.552C1.104 5.63733 1.06667 5.75467 1.00267 5.904C0.949333 6.05333 0.901333 6.208 0.858667 6.368C0.826667 6.51733 0.837333 6.65067 0.890667 6.768C0.986667 7.00267 1.104 7.14133 1.24267 7.184C1.392 7.22667 1.568 7.248 1.77067 7.248C2.06933 7.248 2.40533 7.15733 2.77867 6.976C3.152 6.784 3.52533 6.54933 3.89867 6.272C4.28267 5.984 4.63467 5.696 4.95467 5.408C5.27467 5.12 5.52533 4.87467 5.70667 4.672L5.99467 5.328C5.93067 5.43467 5.78133 5.60533 5.54667 5.84C5.32267 6.064 5.04533 6.31467 4.71467 6.592C4.384 6.85867 4.03733 7.12 3.67467 7.376C3.32267 7.632 2.98667 7.84533 2.66667 8.016C2.34667 8.176 2.08 8.256 1.86667 8.256Z" fill="#1F170F"/>
</svg>
