<svg width="13" height="15" viewBox="0 0 13 15" fill="none" xmlns="http://www.w3.org/2000/svg">
<path d="M0.432 14.256C0.336 14.1387 0.250667 14.0373 0.176 13.952C0.101333 13.8773 0.048 13.7973 0.016 13.712C-0.00533333 13.6373 -0.00533333 13.5573 0.016 13.472C0.016 13.4933 0.0373333 13.4293 0.08 13.28C0.122667 13.1413 0.170667 12.96 0.224 12.736C0.288 12.5227 0.336 12.3147 0.368 12.112L0.64 10.912C0.597333 10.8373 0.602667 10.7573 0.656 10.672C0.72 10.576 0.789333 10.48 0.864 10.384L1.936 10.208C2.10667 10.1653 2.29867 10.0533 2.512 9.872C2.736 9.69067 2.94933 9.488 3.152 9.264C3.35467 9.04 3.52 8.84267 3.648 8.672C4.01067 8.18133 4.31467 7.70667 4.56 7.248C4.816 6.77867 5.04 6.29867 5.232 5.808C5.43467 5.30667 5.62667 4.77333 5.808 4.208C6 3.632 6.21333 2.992 6.448 2.288C6.544 2.20267 6.61333 2.048 6.656 1.824C6.69867 1.6 6.72 1.43467 6.72 1.328C6.624 1.28533 6.544 1.27467 6.48 1.296C6.416 1.31733 6.34133 1.31733 6.256 1.296C6.08533 1.21067 5.96267 1.08267 5.888 0.912001C5.824 0.741334 5.81333 0.586667 5.856 0.448C5.90933 0.437333 5.968 0.442667 6.032 0.464C6.096 0.474667 6.176 0.48 6.272 0.48C6.368 0.48 6.48 0.469334 6.608 0.448C6.71467 0.426667 6.88 0.4 7.104 0.368C7.328 0.336 7.536 0.304001 7.728 0.272C7.93067 0.24 8.048 0.213333 8.08 0.192C8.528 0.149334 8.92267 0.117333 9.264 0.0959997C9.616 0.0640001 9.952 0.0426671 10.272 0.0320005C10.592 0.0106668 10.9387 0 11.312 0C11.4933 0 11.6587 0.0533333 11.808 0.16C11.968 0.266667 12.064 0.378667 12.096 0.496C12.1067 0.613333 12.0693 0.842667 11.984 1.184C11.8987 1.52533 11.7867 1.93067 11.648 2.4C11.5093 2.86933 11.3547 3.36533 11.184 3.888C11.0133 4.4 10.832 4.90133 10.64 5.392C10.4587 5.88267 10.288 6.31467 10.128 6.688C10.0427 6.95467 9.94133 7.232 9.824 7.52C9.71733 7.808 9.60533 8.10667 9.488 8.416C9.44533 8.58667 9.392 8.76267 9.328 8.944C9.27467 9.11467 9.216 9.30667 9.152 9.52C9.17333 9.59467 9.20533 9.648 9.248 9.68C9.29067 9.70133 9.38133 9.70133 9.52 9.68C9.79733 9.62667 9.96267 9.58933 10.016 9.568C10.08 9.536 10.144 9.488 10.208 9.424C10.2187 9.41333 10.2507 9.408 10.304 9.408C10.368 9.408 10.4213 9.41867 10.464 9.44C10.688 9.51467 10.8587 9.62667 10.976 9.776C11.0933 9.91467 11.152 10.0267 11.152 10.112C11.1307 10.4533 11.0453 10.8267 10.896 11.232C10.7573 11.648 10.5867 12.0533 10.384 12.448C10.192 12.8427 10.0107 13.2 9.84 13.52C9.79733 13.6587 9.776 13.7333 9.776 13.744C9.78667 13.7653 9.78667 13.7867 9.776 13.808C9.776 13.8293 9.72267 13.9147 9.616 14.064C9.552 14.128 9.46667 14.1333 9.36 14.08C9.264 14.0267 9.168 13.9467 9.072 13.84C8.98667 13.744 8.928 13.6747 8.896 13.632C8.864 13.5147 8.864 13.392 8.896 13.264C8.928 13.136 8.99733 12.9653 9.104 12.752C9.31733 12.3467 9.52 11.952 9.712 11.568C9.904 11.184 10.0267 10.8587 10.08 10.592L9.968 10.464C9.92533 10.496 9.792 10.5227 9.568 10.544C9.344 10.5547 9.09333 10.5653 8.816 10.576C8.54933 10.5867 8.31467 10.5973 8.112 10.608C7.92 10.608 7.824 10.608 7.824 10.608C7.77067 10.5653 7.72267 10.544 7.68 10.544C7.648 10.5333 7.568 10.544 7.44 10.576L6.432 10.608C6.35733 10.608 6.29333 10.608 6.24 10.608C6.18667 10.5973 6.128 10.6027 6.064 10.624C5.85067 10.6667 5.68533 10.688 5.568 10.688C5.46133 10.6773 5.29067 10.688 5.056 10.72C5.03467 10.72 4.928 10.7307 4.736 10.752C4.544 10.7733 4.31467 10.7947 4.048 10.816C3.792 10.8373 3.536 10.864 3.28 10.896C3.03467 10.9173 2.82667 10.9387 2.656 10.96C2.496 10.9707 2.42667 10.976 2.448 10.976C2.192 10.976 2.01067 11.0133 1.904 11.088C1.79733 11.1733 1.67467 11.2267 1.536 11.248C1.42933 11.6107 1.32267 11.9893 1.216 12.384C1.12 12.7893 1.03467 13.136 0.96 13.424C0.896 13.712 0.858667 13.872 0.848 13.904C0.837333 13.9787 0.8 14.0427 0.736 14.096C0.682667 14.16 0.581333 14.2133 0.432 14.256ZM3.744 10.048C3.89333 10.048 4.128 10.0373 4.448 10.016C4.77867 9.99467 5.14133 9.968 5.536 9.936C5.94133 9.904 6.32533 9.872 6.688 9.84C7.06133 9.79733 7.376 9.76533 7.632 9.744C7.888 9.72267 8.02667 9.70667 8.048 9.696C8.112 9.39733 8.18133 9.12533 8.256 8.88C8.34133 8.624 8.42667 8.384 8.512 8.16C8.608 7.92533 8.69867 7.696 8.784 7.472C8.79467 7.472 8.83733 7.38667 8.912 7.216C8.98667 7.03467 9.072 6.81067 9.168 6.544C9.27467 6.26667 9.38133 5.98933 9.488 5.712C9.59467 5.424 9.68533 5.168 9.76 4.944C9.84533 4.72 9.904 4.56533 9.936 4.48C10.2347 3.62667 10.48 2.90667 10.672 2.32C10.8747 1.72267 11.0027 1.248 11.056 0.896C10.8747 0.864 10.6347 0.853334 10.336 0.864C10.048 0.864 9.744 0.874667 9.424 0.896C9.104 0.917334 8.80533 0.954667 8.528 1.008C8.26133 1.06133 8.048 1.12 7.888 1.184L7.584 1.936C7.56267 1.98933 7.49867 2.18667 7.392 2.528C7.296 2.86933 7.15733 3.30133 6.976 3.824C6.80533 4.34667 6.60267 4.912 6.368 5.52C6.13333 6.11733 5.87733 6.71467 5.6 7.312C5.32267 7.89867 5.024 8.432 4.704 8.912C4.39467 9.392 4.07467 9.77067 3.744 10.048Z" fill="#1F170F"/>
</svg>
