<svg width="8" height="12" viewBox="0 0 8 12" fill="none" xmlns="http://www.w3.org/2000/svg">
<path d="M6.93867 1.042C7.09867 1.202 7.22133 1.43133 7.30667 1.73C7.392 2.018 7.44533 2.31667 7.46667 2.626C7.49867 2.93533 7.49333 3.20733 7.45067 3.442C7.44 3.474 7.42933 3.57533 7.41867 3.746C7.408 3.906 7.392 4.09267 7.37067 4.306C7.34933 4.51933 7.328 4.71667 7.30667 4.898C7.28533 5.06867 7.25867 5.18067 7.22667 5.234C7.216 5.43667 7.16267 5.634 7.06667 5.826C6.98133 6.00733 6.92267 6.20467 6.89067 6.418C6.89067 6.40733 6.85867 6.47133 6.79467 6.61C6.73067 6.74867 6.656 6.91933 6.57067 7.122C6.48533 7.314 6.40533 7.49 6.33067 7.65C6.26667 7.79933 6.22933 7.88467 6.21867 7.906C5.984 8.418 5.68 8.93 5.30667 9.442C4.93333 9.954 4.544 10.3753 4.13867 10.706C3.968 10.8447 3.75467 10.9833 3.49867 11.122C3.24267 11.2607 3.05067 11.3247 2.92267 11.314C2.80533 11.2927 2.688 11.282 2.57067 11.282C2.45333 11.2927 2.336 11.3033 2.21867 11.314C2.10133 11.3247 1.94133 11.298 1.73867 11.234C1.54667 11.17 1.36533 11.1007 1.19467 11.026C1.03467 10.9407 0.938667 10.8873 0.906667 10.866C0.906667 10.866 0.864 10.8287 0.778667 10.754C0.693333 10.6687 0.597333 10.578 0.490667 10.482C0.394667 10.3753 0.309333 10.2847 0.234667 10.21C0.16 10.1353 0.122667 10.098 0.122667 10.098C0.0586667 10.0447 0.032 9.986 0.0426666 9.922C0.0533333 9.858 0.0426667 9.79933 0.0106667 9.746C-0.0106667 9.70333 -2.6077e-08 9.63933 0.0426666 9.554C0.096 9.46867 0.154667 9.38867 0.218667 9.314C0.293333 9.23933 0.346667 9.19667 0.378667 9.186C0.453333 9.22867 0.522667 9.27133 0.586667 9.314C0.661333 9.346 0.736 9.38333 0.810667 9.426C0.810667 9.59667 0.890667 9.76733 1.05067 9.938C1.22133 10.098 1.392 10.2153 1.56267 10.29C1.59467 10.3113 1.65867 10.3327 1.75467 10.354C1.86133 10.3753 1.968 10.3913 2.07467 10.402C2.18133 10.402 2.24 10.402 2.25067 10.402C2.51733 10.3913 2.78933 10.29 3.06667 10.098C3.35467 9.906 3.61067 9.68733 3.83467 9.442C4.06933 9.19667 4.24533 8.994 4.36267 8.834C4.52267 8.59933 4.64 8.42867 4.71467 8.322C4.78933 8.20467 4.84267 8.10867 4.87467 8.034C4.91733 7.94867 4.97067 7.842 5.03467 7.714C5.09867 7.57533 5.20533 7.37267 5.35467 7.106C5.44 6.92467 5.52 6.77533 5.59467 6.658C5.66933 6.53 5.70667 6.402 5.70667 6.274C5.57867 6.23133 5.39733 6.22067 5.16267 6.242C4.93867 6.25267 4.69333 6.27933 4.42667 6.322C4.17067 6.354 3.92 6.386 3.67467 6.418C3.44 6.43933 3.248 6.434 3.09867 6.402C2.96 6.34867 2.864 6.26333 2.81067 6.146C2.75733 6.018 2.71467 5.88467 2.68267 5.746C2.66133 5.66067 2.656 5.58067 2.66667 5.506C2.688 5.42067 2.752 5.35667 2.85867 5.314H4.07467C4.416 5.282 4.74667 5.25 5.06667 5.218C5.39733 5.186 5.69067 5.21267 5.94667 5.298C5.98933 5.30867 6.032 5.30333 6.07467 5.282C6.11733 5.25 6.144 5.21267 6.15467 5.17C6.18667 4.95667 6.23467 4.74867 6.29867 4.546C6.36267 4.34333 6.384 4.13533 6.36267 3.922C6.39467 3.634 6.41067 3.41 6.41067 3.25C6.41067 3.09 6.41067 2.946 6.41067 2.818C6.42133 2.67933 6.43733 2.498 6.45867 2.274C6.45867 2.114 6.42667 1.93267 6.36267 1.73C6.29867 1.51667 6.176 1.37267 5.99467 1.298C5.89867 1.25533 5.776 1.218 5.62667 1.186C5.488 1.14333 5.36 1.11133 5.24267 1.09C5.136 1.058 5.08267 1.042 5.08267 1.042C4.944 0.978 4.77333 0.988666 4.57067 1.074C4.37867 1.15933 4.192 1.27133 4.01067 1.41C3.84 1.54867 3.70133 1.666 3.59467 1.762C3.648 1.80467 3.68 1.84733 3.69067 1.89C3.70133 1.93267 3.68533 1.95933 3.64267 1.97C3.568 1.98067 3.49867 2.00733 3.43467 2.05C3.37067 2.082 3.312 2.13 3.25867 2.194C3.19467 2.258 3.104 2.28467 2.98667 2.274C2.86933 2.26333 2.79467 2.20467 2.76267 2.098C2.752 1.98067 2.72533 1.88467 2.68267 1.81C2.64 1.73533 2.61867 1.66067 2.61867 1.586C2.61867 1.50067 2.66667 1.40467 2.76267 1.298C2.944 1.074 3.14133 0.871334 3.35467 0.69C3.57867 0.498 3.81333 0.332667 4.05867 0.194C4.08 0.183333 4.144 0.167334 4.25067 0.146C4.368 0.124667 4.448 0.0926666 4.49067 0.0499998C4.53333 -0.00333348 4.576 -0.014 4.61867 0.0180002C4.672 0.0499998 4.72 0.0446665 4.76267 0.00200042C5.08267 0.0980005 5.35467 0.167334 5.57867 0.21C5.81333 0.252666 6.032 0.327333 6.23467 0.434C6.448 0.540667 6.68267 0.743334 6.93867 1.042Z" fill="#1F170F"/>
</svg>
