<svg width="10" height="14" viewBox="0 0 10 14" fill="none" xmlns="http://www.w3.org/2000/svg">
<path d="M3.009 13.1771C2.881 13.1451 2.75833 13.0651 2.641 12.9371C2.52367 12.8091 2.47033 12.6918 2.481 12.5851C2.55567 12.3291 2.625 12.0411 2.689 11.7211C2.753 11.4011 2.80633 11.1718 2.849 11.0331L1.601 10.3771C1.48367 10.2811 1.313 10.1318 1.089 9.92914C0.865 9.71581 0.651667 9.46514 0.449 9.17714C0.257 8.88914 0.134333 8.59048 0.081 8.28114C-0.015 7.85448 -0.0256667 7.37448 0.049 6.84114C0.134333 6.30781 0.294333 5.77981 0.529 5.25714C0.763667 4.72381 1.05167 4.24914 1.393 3.83314C1.63833 3.54514 1.91033 3.30514 2.209 3.11314C2.51833 2.91048 2.833 2.69181 3.153 2.45714C3.20633 2.41448 3.297 2.36114 3.425 2.29714C3.56367 2.23314 3.70233 2.17448 3.841 2.12114C3.97967 2.05714 4.07567 2.01448 4.129 1.99314C4.193 1.99314 4.29967 1.98248 4.449 1.96114C4.59833 1.93981 4.75833 1.91848 4.929 1.89714C5.11033 1.87581 5.25967 1.86514 5.377 1.86514L5.873 1.89714C5.94767 1.89714 6.00633 1.81181 6.049 1.64114C6.10233 1.45981 6.145 1.24114 6.177 0.985143C6.21967 0.729143 6.257 0.48381 6.289 0.249143C6.289 0.16381 6.321 0.0998098 6.385 0.057143C6.45967 0.00380972 6.545 -0.0121904 6.641 0.00914266C6.74767 0.0198098 6.87033 0.0891432 7.009 0.217143C7.15833 0.334477 7.22233 0.430477 7.201 0.505143C7.201 0.537143 7.21167 0.585143 7.233 0.649143C7.25433 0.702476 7.249 0.75581 7.217 0.809143L6.897 2.02514C6.87567 2.07848 6.881 2.11048 6.913 2.12114C6.95567 2.13181 6.98233 2.13181 6.993 2.12114L7.009 2.10514C7.11567 2.05181 7.20633 2.04114 7.281 2.07314C7.36633 2.09448 7.44633 2.16381 7.521 2.28114C7.57433 2.34514 7.681 2.44114 7.841 2.56914C8.01167 2.68648 8.23033 2.81981 8.497 2.96914C8.76367 3.15048 8.977 3.31581 9.137 3.46514C9.297 3.60381 9.425 3.77981 9.521 3.99314C9.617 4.20648 9.69167 4.51581 9.745 4.92114C9.76633 5.18781 9.77167 5.41714 9.761 5.60914C9.75033 5.79048 9.73433 5.95581 9.713 6.10514C9.69167 6.24381 9.65967 6.39314 9.617 6.55314C9.57433 6.71314 9.521 6.90514 9.457 7.12914C9.329 7.36381 9.22767 7.56648 9.153 7.73714C9.07833 7.90781 8.99833 8.07314 8.913 8.23314C8.82767 8.39314 8.71033 8.57448 8.561 8.77714C8.41167 8.96914 8.19833 9.20381 7.921 9.48114C7.81433 9.59848 7.697 9.71048 7.569 9.81714C7.45167 9.91314 7.33433 10.0145 7.217 10.1211C7.06767 10.2491 6.833 10.3878 6.513 10.5371C6.193 10.6865 5.86233 10.8145 5.521 10.9211C5.19033 11.0171 4.91833 11.0651 4.705 11.0651C4.59833 11.0758 4.433 11.0811 4.209 11.0811C3.99567 11.0705 3.857 11.0758 3.793 11.0971L3.713 11.0331C3.713 11.2251 3.69167 11.4545 3.649 11.7211C3.617 11.9985 3.54233 12.4358 3.425 13.0331C3.38233 13.1078 3.32367 13.1558 3.249 13.1771C3.17433 13.2091 3.09433 13.2091 3.009 13.1771ZM3.025 10.1851C3.04633 10.1958 3.057 10.1958 3.057 10.1851C3.06767 10.1745 3.073 10.1425 3.073 10.0891C3.08367 10.0251 3.09967 9.90781 3.121 9.73714C3.153 9.55581 3.185 9.37448 3.217 9.19314C3.25967 9.00114 3.30233 8.86248 3.345 8.77714C3.345 8.76648 3.38233 8.65448 3.457 8.44114C3.53167 8.22781 3.62767 7.95581 3.745 7.62514C3.86233 7.28381 3.985 6.92114 4.113 6.53714C4.25167 6.14248 4.385 5.76914 4.513 5.41714C4.65167 5.06514 4.77433 4.77181 4.881 4.53714C4.99833 4.25981 5.11567 3.98781 5.233 3.72114C5.35033 3.45448 5.441 3.23048 5.505 3.04914C5.57967 2.86781 5.60633 2.77714 5.585 2.77714C5.41433 2.75581 5.24367 2.76114 5.073 2.79314C4.90233 2.81448 4.73167 2.84648 4.561 2.88914C4.35833 2.93181 4.129 3.02248 3.873 3.16114C3.62767 3.29981 3.393 3.44914 3.169 3.60914C2.945 3.76914 2.75833 3.90781 2.609 4.02514C2.21433 4.33448 1.93167 4.67048 1.761 5.03314C1.67567 5.20381 1.569 5.41714 1.441 5.67314C1.32367 5.92914 1.217 6.19048 1.121 6.45714C1.03567 6.72381 0.993 6.96381 0.993 7.17714C0.961 7.28381 0.939667 7.37981 0.929 7.46514C0.918333 7.55048 0.913 7.64114 0.913 7.73714C0.913 8.02514 0.955667 8.27048 1.041 8.47314C1.137 8.66514 1.22767 8.83048 1.313 8.96914C1.49433 9.26781 1.713 9.50248 1.969 9.67314C2.23567 9.84381 2.47567 9.97181 2.689 10.0571C2.90233 10.1318 3.01433 10.1745 3.025 10.1851ZM4.049 10.1691C4.049 10.1905 4.113 10.2011 4.241 10.2011C4.369 10.2011 4.50767 10.1905 4.657 10.1691C4.817 10.1478 4.92367 10.1211 4.977 10.0891C5.06233 10.0465 5.17967 10.0145 5.329 9.99314C5.47833 9.96114 5.65433 9.89714 5.857 9.80114C6.45433 9.55581 6.945 9.19314 7.329 8.71314C7.72367 8.22248 8.05967 7.71581 8.337 7.19314C8.39033 7.07581 8.45967 6.86781 8.545 6.56914C8.641 6.27048 8.72633 5.97714 8.801 5.68914C8.82233 5.59314 8.84367 5.49714 8.865 5.40114C8.88633 5.29448 8.88633 5.18781 8.865 5.08114C8.84367 5.00648 8.82767 4.93181 8.817 4.85714C8.817 4.78248 8.81167 4.70781 8.801 4.63314C8.75833 4.23848 8.56633 3.93448 8.225 3.72114C7.95833 3.56114 7.745 3.43848 7.585 3.35314C7.425 3.25714 7.27033 3.17714 7.121 3.11314C6.97167 3.03848 6.77433 2.95848 6.529 2.87314C6.50767 3.00114 6.481 3.11314 6.449 3.20914C6.42767 3.29448 6.37967 3.42781 6.305 3.60914C6.23033 3.79048 6.11833 4.07848 5.969 4.47314C5.92633 4.57981 5.85167 4.76114 5.745 5.01714C5.649 5.27314 5.537 5.56114 5.409 5.88114C5.29167 6.20114 5.169 6.52648 5.041 6.85714C4.92367 7.17714 4.817 7.47048 4.721 7.73714C4.63567 8.00381 4.577 8.20114 4.545 8.32914C4.481 8.53181 4.40633 8.73448 4.321 8.93714C4.24633 9.12914 4.19833 9.33181 4.177 9.54514C4.16633 9.58781 4.145 9.67314 4.113 9.80114C4.09167 9.92914 4.07033 10.0518 4.049 10.1691Z" fill="#1F170F"/>
</svg>
