<svg width="10" height="12" viewBox="0 0 10 12" fill="none" xmlns="http://www.w3.org/2000/svg">
<path d="M0.928 11.4423C0.821333 11.4956 0.698667 11.501 0.56 11.4583C0.421333 11.4156 0.293333 11.3356 0.176 11.2183C0.0693334 11.1116 0.0106667 10.9943 0 10.8663C0.032 10.781 0.08 10.7116 0.144 10.6583C0.218667 10.605 0.309333 10.5783 0.416 10.5783C0.458667 10.5783 0.496 10.5676 0.528 10.5463C0.570667 10.5143 0.608 10.4823 0.64 10.4503C0.714667 10.3863 0.794667 10.3063 0.88 10.2103C0.976 10.1143 1.06667 10.0183 1.152 9.92229C1.248 9.82629 1.328 9.74629 1.392 9.68229C1.456 9.60762 1.49333 9.56495 1.504 9.55429C1.70667 9.33029 1.88267 9.11695 2.032 8.91429C2.192 8.71162 2.39467 8.43962 2.64 8.09829C2.75733 7.93829 2.864 7.77295 2.96 7.60229C3.056 7.43162 3.152 7.26095 3.248 7.09029C3.32267 6.96229 3.392 6.83429 3.456 6.70629C3.52 6.57829 3.616 6.47162 3.744 6.38629C3.78667 6.15162 3.81867 6.01829 3.84 5.98629C3.872 5.95429 3.93067 5.90629 4.016 5.84229L3.968 5.71429C4.128 5.42629 4.23467 5.22362 4.288 5.10629C4.352 4.97829 4.39467 4.88229 4.416 4.81829C4.43733 4.75429 4.46933 4.67429 4.512 4.57829C4.55467 4.47162 4.63467 4.29029 4.752 4.03429C4.784 3.92762 4.82667 3.87429 4.88 3.87429C4.944 3.86362 4.976 3.81562 4.976 3.73029C4.976 3.64495 5.024 3.47429 5.12 3.21829C5.22667 2.96229 5.34933 2.67962 5.488 2.37029C5.63733 2.06095 5.76533 1.78895 5.872 1.55429C5.76533 1.55429 5.632 1.57562 5.472 1.61829C5.32267 1.65029 5.11467 1.74095 4.848 1.89029C4.53867 2.03962 4.304 2.15695 4.144 2.24229C3.984 2.31695 3.84533 2.36495 3.728 2.38629C3.61067 2.39695 3.46133 2.37562 3.28 2.32229C3.184 2.14095 3.14667 1.94895 3.168 1.74629C3.2 1.53295 3.312 1.38895 3.504 1.31429C3.536 1.30362 3.648 1.26095 3.84 1.18629C4.032 1.11162 4.24533 1.03162 4.48 0.946286C4.71467 0.860952 4.912 0.791619 5.072 0.738286C5.24267 0.674286 5.31733 0.647619 5.296 0.658286C5.54133 0.594286 5.78667 0.524953 6.032 0.450286C6.27733 0.375619 6.52267 0.290286 6.768 0.194286C6.78933 0.194286 6.864 0.188952 6.992 0.178285C7.13067 0.167619 7.28 0.151619 7.44 0.130286C7.61067 0.108952 7.76 0.0876189 7.888 0.0662858C8.02667 0.0449521 8.112 0.0236187 8.144 0.00228567C8.35733 -0.00838086 8.576 0.0182858 8.8 0.0822856C9.03467 0.146285 9.15733 0.215619 9.168 0.290286C9.18933 0.375619 9.23733 0.434286 9.312 0.466285C9.38667 0.487619 9.44 0.540952 9.472 0.626285L9.76 0.850286C9.78133 0.850286 9.80267 0.930286 9.824 1.09029C9.856 1.23962 9.87733 1.36762 9.888 1.47429C9.90933 1.59162 9.89867 1.78362 9.856 2.05029C9.824 2.30629 9.77067 2.57829 9.696 2.86629C9.632 3.14362 9.568 3.38362 9.504 3.58629C9.45067 3.78895 9.41333 3.89029 9.392 3.89029C9.37067 4.02895 9.33867 4.17829 9.296 4.33829C9.25333 4.49829 9.22133 4.65295 9.2 4.80229C9.2 4.81295 9.17867 4.89295 9.136 5.04229C9.104 5.19162 9.06133 5.36229 9.008 5.55429C8.95467 5.74629 8.90667 5.91162 8.864 6.05029C8.82133 6.18895 8.80533 6.25829 8.816 6.25829C8.77333 6.55695 8.69867 6.89295 8.592 7.26629C8.48533 7.63962 8.36267 8.02362 8.224 8.41829C8.08533 8.80229 7.952 9.17029 7.824 9.52229C7.70667 9.86362 7.616 10.1623 7.552 10.4183C7.488 10.5036 7.44533 10.5996 7.424 10.7063C7.40267 10.813 7.34933 10.909 7.264 10.9943C7.17867 11.069 7.08267 11.1276 6.976 11.1703C6.88 11.213 6.78933 11.213 6.704 11.1703C6.59733 11.1276 6.50667 11.069 6.432 10.9943C6.368 10.9196 6.32 10.8236 6.288 10.7063C6.30933 10.6743 6.36267 10.5463 6.448 10.3223C6.53333 10.0983 6.62933 9.83695 6.736 9.53829C6.85333 9.23962 6.95467 8.96762 7.04 8.72229C7.136 8.46629 7.19467 8.30095 7.216 8.22629C7.23733 8.15162 7.26933 8.00229 7.312 7.77829C7.36533 7.55429 7.424 7.31962 7.488 7.07429C7.56267 6.81829 7.63733 6.62095 7.712 6.48229C7.73333 6.41829 7.76 6.27429 7.792 6.05029C7.824 5.81562 7.87733 5.56495 7.952 5.29829C7.97333 5.23429 8.00533 5.10629 8.048 4.91429C8.09067 4.71162 8.13333 4.51962 8.176 4.33829C8.22933 4.14629 8.26133 4.03962 8.272 4.01829L8.592 2.56229C8.63467 2.44495 8.672 2.24762 8.704 1.97029C8.74667 1.68229 8.77333 1.42095 8.784 1.18629C8.77333 1.16495 8.75733 1.14362 8.736 1.12229C8.72533 1.09029 8.736 1.05295 8.768 1.01029C8.59733 1.01029 8.42133 1.02095 8.24 1.04229C8.06933 1.05295 7.89333 1.06895 7.712 1.09029C7.53067 1.11162 7.33867 1.14362 7.136 1.18629C6.96533 1.20762 6.864 1.29829 6.832 1.45829C6.832 1.51162 6.79467 1.63429 6.72 1.82629C6.64533 2.00762 6.55467 2.22095 6.448 2.46629C6.352 2.70095 6.256 2.93029 6.16 3.15429C6.064 3.36762 5.98933 3.52762 5.936 3.63429C5.79733 3.89029 5.66933 4.15162 5.552 4.41829C5.43467 4.67429 5.31733 4.93562 5.2 5.20229C5.14667 5.37295 5.05067 5.60762 4.912 5.90629C4.77333 6.19429 4.61867 6.50362 4.448 6.83429C4.27733 7.16495 4.10133 7.49029 3.92 7.81029C3.74933 8.11962 3.59467 8.38095 3.456 8.59429C3.296 8.82895 3.14667 9.03695 3.008 9.21829C2.88 9.38895 2.74667 9.56495 2.608 9.74629C2.46933 9.91695 2.29867 10.125 2.096 10.3703C1.95733 10.5516 1.76533 10.7596 1.52 10.9943C1.27467 11.229 1.07733 11.3783 0.928 11.4423Z" fill="#1F170F"/>
</svg>
