<svg width="13" height="12" viewBox="0 0 13 12" fill="none" xmlns="http://www.w3.org/2000/svg">
<path d="M10.032 11.3992C10.0213 11.4632 9.95733 11.4792 9.84 11.4472C9.73333 11.4259 9.63733 11.3512 9.552 11.2232C9.46667 11.0205 9.424 10.8339 9.424 10.6632C9.424 10.4925 9.42933 10.2365 9.44 9.8952C9.504 9.52187 9.58933 9.03653 9.696 8.4392C9.81333 7.8312 9.94667 7.15387 10.096 6.4072C10.256 5.64987 10.4267 4.86053 10.608 4.0392C10.736 3.61253 10.8373 3.2232 10.912 2.8712C10.9973 2.50853 11.0613 2.2152 11.104 1.9912C11.1467 1.7672 11.168 1.6552 11.168 1.6552C11.168 1.6232 11.136 1.6392 11.072 1.7032C11.0187 1.75653 10.9653 1.82053 10.912 1.8952C10.8587 1.96987 10.8373 2.02853 10.848 2.0712C10.848 2.0712 10.8107 2.12453 10.736 2.2312C10.6613 2.33787 10.5653 2.48187 10.448 2.6632C10.3413 2.76987 10.2133 2.9832 10.064 3.3032C9.91467 3.6232 9.74933 3.92187 9.568 4.1992C9.39733 4.5192 9.216 4.86587 9.024 5.2392C8.832 5.60187 8.66133 5.90587 8.512 6.1512C8.416 6.28987 8.32 6.44987 8.224 6.6312C8.128 6.81253 8.06933 6.92987 8.048 6.9832C8.00533 7.10053 7.93067 7.24453 7.824 7.4152C7.71733 7.5752 7.6 7.7352 7.472 7.8952C7.408 7.9912 7.344 8.09253 7.28 8.1992C7.216 8.2952 7.16267 8.38053 7.12 8.4552C7.088 8.5192 7.072 8.5512 7.072 8.5512C7.072 8.5832 7.01867 8.6792 6.912 8.8392C6.816 8.9992 6.69333 9.1752 6.544 9.3672C6.40533 9.5592 6.272 9.72453 6.144 9.8632C5.77067 10.2579 5.472 10.4925 5.248 10.5672C5.024 10.6312 4.77333 10.5352 4.496 10.2792C4.35733 10.1085 4.256 9.91653 4.192 9.7032C4.128 9.4792 4.10133 9.2072 4.112 8.8872C4.12267 8.55653 4.16 8.14587 4.224 7.6552C4.29867 7.28187 4.368 6.90853 4.432 6.5352C4.496 6.1512 4.55467 5.79387 4.608 5.4632C4.672 5.12187 4.72533 4.83387 4.768 4.5992C4.82133 4.36453 4.864 4.20987 4.896 4.1352C4.91733 3.92187 4.912 3.80453 4.88 3.7832C4.848 3.76187 4.784 3.82587 4.688 3.9752C4.64533 4.04987 4.53333 4.23653 4.352 4.5352C4.17067 4.8232 3.95733 5.18053 3.712 5.6072C3.47733 6.03387 3.24267 6.49787 3.008 6.9992C2.57067 7.80987 2.208 8.48187 1.92 9.0152C1.64267 9.53787 1.41867 9.95387 1.248 10.2632C1.088 10.5725 0.970667 10.8019 0.896 10.9512C0.821333 11.1005 0.768 11.2019 0.736 11.2552C0.704 11.3085 0.677333 11.3459 0.656 11.3672C0.56 11.3672 0.458667 11.3245 0.352 11.2392C0.256 11.1645 0.154667 11.0739 0.048 10.9672C0.016 10.8925 0 10.8179 0 10.7432C0.0106666 10.6685 0.048 10.5619 0.112 10.4232C0.176 10.2739 0.272 10.0499 0.4 9.7512C0.538667 9.47387 0.666667 9.23387 0.784 9.0312C0.901333 8.81787 0.992 8.68987 1.056 8.6472C1.10933 8.56187 1.15733 8.47653 1.2 8.3912C1.24267 8.30587 1.26933 8.20453 1.28 8.0872C1.33333 8.0232 1.41333 7.8952 1.52 7.7032C1.63733 7.50053 1.75467 7.28187 1.872 7.0472C1.95733 6.90853 2.064 6.7272 2.192 6.5032C2.33067 6.2792 2.47467 6.03387 2.624 5.7672C2.77333 5.48987 2.90667 5.22853 3.024 4.9832C3.51467 4.14053 3.93067 3.4312 4.272 2.8552C4.61333 2.26853 4.86933 1.8952 5.04 1.7352C5.09333 1.68187 5.14667 1.6072 5.2 1.5112C5.264 1.4152 5.296 1.32987 5.296 1.2552C5.296 1.0312 5.33867 0.828533 5.424 0.6472C5.52 0.4552 5.616 0.369867 5.712 0.3912C5.81867 0.3912 5.91467 0.401867 6 0.4232C6.08533 0.444534 6.176 0.513867 6.272 0.631201C6.35733 0.7592 6.432 0.8872 6.496 1.0152C6.56 1.1432 6.55467 1.3992 6.48 1.7832C6.48 1.93253 6.464 2.1032 6.432 2.2952C6.4 2.47653 6.368 2.6472 6.336 2.8072C6.31467 2.95653 6.29867 3.07387 6.288 3.1592C6.14933 3.5752 6.02133 4.04453 5.904 4.5672C5.78667 5.0792 5.68 5.60187 5.584 6.1352C5.488 6.65787 5.408 7.14853 5.344 7.6072C5.28 8.0552 5.23733 8.42853 5.216 8.7272C5.20533 9.0152 5.216 9.18053 5.248 9.2232C5.32267 9.26587 5.38667 9.2712 5.44 9.2392C5.49333 9.2072 5.584 9.06853 5.712 8.8232C5.78667 8.6952 5.888 8.54053 6.016 8.3592C6.15467 8.1672 6.288 7.9912 6.416 7.8312C6.50133 7.68187 6.63467 7.45787 6.816 7.1592C6.99733 6.86053 7.22667 6.47653 7.504 6.0072C7.792 5.53787 8.13333 4.9672 8.528 4.2952C8.93333 3.61253 9.392 2.8232 9.904 1.9272C10.1493 1.55387 10.3787 1.1912 10.592 0.8392C10.816 0.476533 10.9973 0.241867 11.136 0.1352C11.2853 -0.00346643 11.44 -0.0354666 11.6 0.0391997C11.76 0.1032 11.8987 0.241867 12.016 0.4552C12.144 0.668533 12.2133 0.9352 12.224 1.2552C12.2347 1.40453 12.2133 1.64453 12.16 1.9752C12.1173 2.30587 12.048 2.68453 11.952 3.1112C11.856 3.5272 11.7333 3.9592 11.584 4.4072C11.552 4.58853 11.4987 4.81787 11.424 5.0952C11.36 5.36187 11.2853 5.6392 11.2 5.9272C11.1147 6.2152 11.0293 6.4872 10.944 6.7432C10.8907 7.0952 10.8267 7.44187 10.752 7.7832C10.688 8.12453 10.6667 8.35387 10.688 8.4712C10.592 8.64187 10.528 8.8872 10.496 9.2072C10.464 9.5272 10.448 9.85787 10.448 10.1992C10.4053 10.6152 10.3733 10.9085 10.352 11.0792C10.3307 11.2499 10.2933 11.3299 10.24 11.3192C10.1013 11.2765 10.032 11.3032 10.032 11.3992Z" fill="#1F170F"/>
</svg>
