<svg width="11" height="13" viewBox="0 0 11 13" fill="none" xmlns="http://www.w3.org/2000/svg">
<path d="M0.775273 12.5298C0.775273 12.5298 0.759273 12.5191 0.727273 12.4978C0.695273 12.4871 0.652606 12.4764 0.599273 12.4658C0.556606 12.4551 0.503273 12.4498 0.439273 12.4498C0.268606 12.4071 0.145939 12.3111 0.0712727 12.1618C-0.00339394 12.0231 -0.0193939 11.8684 0.0232727 11.6978C0.0659394 11.6551 0.0979394 11.5644 0.119273 11.4258C0.140606 11.2871 0.151273 11.1751 0.151273 11.0898C0.193939 11.0044 0.220606 10.9458 0.231273 10.9138C0.241939 10.8711 0.268606 10.7644 0.311273 10.5938C0.343273 10.4124 0.396606 10.1618 0.471273 9.84178C0.556606 9.51111 0.647273 9.15911 0.743273 8.78578C0.84994 8.41244 0.951273 8.05511 1.04727 7.71378C1.14327 7.37245 1.22861 7.08444 1.30327 6.84978C1.38861 6.61511 1.44727 6.48178 1.47927 6.44978C1.47927 6.44978 1.47927 6.43378 1.47927 6.40178C1.47927 6.35911 1.47927 6.31644 1.47927 6.27378C1.47927 6.27378 1.48461 6.22578 1.49527 6.12978C1.51661 6.02311 1.56994 5.90578 1.65527 5.77778C1.69794 5.66044 1.73527 5.53244 1.76727 5.39378C1.79927 5.25511 1.81527 5.16444 1.81527 5.12178C1.85794 5.06844 1.91661 4.94044 1.99127 4.73778C2.07661 4.52444 2.15661 4.31644 2.23127 4.11378C2.29527 3.94311 2.36461 3.76178 2.43927 3.56978C2.52461 3.37778 2.59394 3.21244 2.64727 3.07378C2.71127 2.93511 2.74327 2.86578 2.74327 2.86578C2.74327 2.82311 2.74327 2.80178 2.74327 2.80178C2.74327 2.79111 2.74327 2.78578 2.74327 2.78578C2.78594 2.74311 2.88727 2.52978 3.04727 2.14578C3.21794 1.75111 3.44727 1.24444 3.73527 0.625778C3.77794 0.540445 3.83127 0.444445 3.89527 0.337778C3.95927 0.231112 3.99127 0.156445 3.99127 0.113778C4.04461 0.0284447 4.11927 -0.0088888 4.21527 0.00177773C4.31127 0.00177773 4.40727 0.033778 4.50327 0.0977784C4.60994 0.161778 4.68994 0.252445 4.74327 0.369778L4.90327 0.625778L4.32727 1.77778C4.15661 2.07644 4.01261 2.34844 3.89527 2.59378C3.78861 2.83911 3.73527 2.98311 3.73527 3.02578C3.73527 3.02578 3.70327 3.11111 3.63927 3.28178C3.57527 3.45244 3.50061 3.65511 3.41527 3.88978C3.32994 4.12444 3.25527 4.33778 3.19127 4.52978C3.07394 4.86044 2.96194 5.13244 2.85527 5.34578C2.75927 5.55911 2.71127 5.68711 2.71127 5.72978C2.71127 5.70844 2.82861 5.69244 3.06327 5.68178C3.29794 5.67111 3.59661 5.66578 3.95927 5.66578C4.32194 5.66578 4.68994 5.66578 5.06327 5.66578C5.44727 5.65511 5.78327 5.64978 6.07127 5.64978C6.36994 5.63911 6.57261 5.62311 6.67927 5.60178L7.51127 5.52178L8.05527 3.87378C8.14061 3.57511 8.25261 3.21244 8.39127 2.78578C8.52994 2.35911 8.65261 1.99644 8.75927 1.69778C8.92994 1.20711 9.06327 0.903111 9.15927 0.785778C9.25527 0.668444 9.36727 0.609778 9.49527 0.609778C9.52727 0.609778 9.56994 0.620444 9.62327 0.641778C9.68727 0.652445 9.74594 0.679111 9.79927 0.721778C9.86327 0.753778 9.90594 0.801778 9.92727 0.865778C10.0553 0.983111 10.1139 1.11644 10.1033 1.26578C10.1033 1.41511 10.0179 1.61244 9.84727 1.85778C9.67661 2.14578 9.53261 2.46044 9.41527 2.80178C9.30861 3.13244 9.21261 3.40444 9.12727 3.61778C9.12727 3.74578 9.11127 3.85244 9.07927 3.93778C9.04727 4.01244 9.00994 4.07111 8.96727 4.11378C8.94594 4.13511 8.90327 4.21511 8.83927 4.35378C8.77527 4.49244 8.71661 4.63111 8.66327 4.76978C8.60994 4.90844 8.58327 4.99378 8.58327 5.02578C8.58327 5.10044 8.56727 5.19111 8.53527 5.29778C8.50327 5.40444 8.46594 5.47911 8.42327 5.52178C8.40194 5.58578 8.35394 5.74578 8.27927 6.00178C8.20461 6.25778 8.11927 6.56178 8.02327 6.91378C7.92727 7.25511 7.82594 7.59111 7.71927 7.92178C7.61261 8.24178 7.51661 8.50845 7.43127 8.72178C7.43127 8.79645 7.40461 8.89244 7.35127 9.00978C7.29794 9.11644 7.27127 9.21244 7.27127 9.29778C7.22861 9.42578 7.17527 9.58578 7.11127 9.77778C7.04727 9.96978 7.01527 10.0924 7.01527 10.1458C6.96194 10.3911 6.90327 10.6418 6.83927 10.8978C6.78594 11.1538 6.73794 11.3724 6.69527 11.5538C6.66327 11.7458 6.64727 11.8578 6.64727 11.8898C6.60461 11.9324 6.54061 11.9378 6.45527 11.9058C6.36994 11.8738 6.26861 11.8364 6.15127 11.7938C5.94861 11.6764 5.82594 11.5484 5.78327 11.4098C5.75127 11.2818 5.79394 11.0951 5.91127 10.8498C5.96461 10.7644 6.02861 10.5564 6.10327 10.2258C6.18861 9.88445 6.27394 9.54844 6.35927 9.21778C6.42327 9.05778 6.49261 8.84445 6.56727 8.57778C6.64194 8.30045 6.71661 8.02311 6.79127 7.74578C6.86594 7.45778 6.92994 7.21778 6.98327 7.02578C7.03661 6.82311 7.07394 6.71111 7.09527 6.68978C7.09527 6.64711 7.09527 6.60978 7.09527 6.57778C7.09527 6.54578 7.09527 6.52978 7.09527 6.52978C7.07394 6.50844 6.94061 6.49244 6.69527 6.48178C6.44994 6.46044 6.14594 6.45511 5.78327 6.46578C5.42061 6.46578 5.04194 6.47645 4.64727 6.49778C4.26327 6.50844 3.91661 6.53511 3.60727 6.57778C3.48994 6.57778 3.35661 6.57778 3.20727 6.57778C3.05794 6.57778 2.94061 6.57778 2.85527 6.57778C2.73794 6.57778 2.63661 6.57778 2.55127 6.57778C2.47661 6.57778 2.43927 6.57778 2.43927 6.57778C2.42861 6.60978 2.39127 6.72178 2.32727 6.91378C2.26327 7.10578 2.18861 7.34045 2.10327 7.61778C2.01794 7.88444 1.92727 8.16178 1.83127 8.44978C1.74594 8.72711 1.67127 8.98311 1.60727 9.21778C1.55394 9.44178 1.51661 9.60178 1.49527 9.69778C1.45261 9.88978 1.39394 10.1298 1.31927 10.4178C1.25527 10.7058 1.18061 10.9991 1.09527 11.2978C1.02061 11.6071 0.951273 11.8738 0.887273 12.0978C0.833939 12.3218 0.796606 12.4658 0.775273 12.5298Z" fill="#1F170F"/>
</svg>
