<svg width="9" height="12" viewBox="0 0 9 12" fill="none" xmlns="http://www.w3.org/2000/svg">
<path d="M0.449778 11.376C0.321778 11.376 0.215111 11.3067 0.129778 11.168C0.0657778 11.104 0.0231112 11.0133 0.00177778 10.896C-0.0088889 10.7893 0.0284444 10.592 0.113778 10.304C0.199111 10.0053 0.343111 9.552 0.545778 8.944C0.652444 8.53867 0.737778 8.24533 0.801778 8.064C0.865778 7.872 0.897778 7.73333 0.897778 7.648C0.897778 7.53067 0.908445 7.43467 0.929778 7.36C0.961778 7.27467 0.977778 7.19467 0.977778 7.12C1.04178 7.12 1.10578 7.06133 1.16978 6.944C1.23378 6.82667 1.28711 6.66667 1.32978 6.464C1.37244 6.28267 1.40978 6.13867 1.44178 6.032C1.48444 5.91467 1.50578 5.83467 1.50578 5.792C1.55911 5.70667 1.61244 5.57333 1.66578 5.392C1.72978 5.21067 1.82578 4.992 1.95378 4.736C2.03911 4.416 2.13511 4.08533 2.24178 3.744C2.34844 3.392 2.45511 3.06667 2.56178 2.768C2.67911 2.45867 2.77511 2.21867 2.84978 2.048C2.96711 1.71733 3.05778 1.488 3.12178 1.36C3.18578 1.22133 3.18578 1.13067 3.12178 1.088C3.04711 1.03467 3.03111 0.944 3.07378 0.816C3.11644 0.688 3.23378 0.544 3.42578 0.384C3.54311 0.245334 3.64444 0.149334 3.72978 0.0960007C3.81511 0.0320002 3.92178 0 4.04978 0C4.18844 0 4.38578 0.0106668 4.64178 0.0320005C4.83378 0.0426671 5.03644 0.0480003 5.24978 0.0480003C5.47378 0.0480003 5.61244 0.0480003 5.66578 0.0480003C5.76178 0.0906671 5.87911 0.138667 6.01778 0.192C6.15644 0.234667 6.27911 0.277334 6.38578 0.320001C6.50311 0.362667 6.56178 0.4 6.56178 0.432C6.56178 0.496 6.58311 0.538667 6.62578 0.56C6.67911 0.570667 6.73245 0.581333 6.78578 0.592C6.86044 0.592 6.96178 0.650667 7.08978 0.768001C7.21778 0.874667 7.35111 1.01333 7.48978 1.184C7.62844 1.344 7.73511 1.51467 7.80978 1.696C7.89511 1.87733 7.95911 2.048 8.00178 2.208C8.05511 2.368 8.05511 2.59733 8.00178 2.896C7.99111 3.056 7.96444 3.216 7.92178 3.376C7.88978 3.536 7.85244 3.64267 7.80978 3.696C7.74578 3.73867 7.68711 3.792 7.63378 3.856C7.58044 3.92 7.55378 3.97867 7.55378 4.032C7.55378 4.07467 7.51645 4.16 7.44178 4.288C7.36711 4.40533 7.27111 4.544 7.15378 4.704C7.03644 4.864 6.90844 5.024 6.76978 5.184C6.63111 5.344 6.49778 5.48267 6.36978 5.6C6.23111 5.77067 6.06578 5.93067 5.87378 6.08C5.69244 6.22933 5.52711 6.352 5.37778 6.448C5.10044 6.576 4.79111 6.704 4.44978 6.832C4.11911 6.96 3.79911 7.06667 3.48978 7.152C3.19111 7.23733 2.94044 7.27467 2.73778 7.264C2.42844 7.30667 2.22578 7.34933 2.12978 7.392C2.04444 7.424 1.98044 7.51467 1.93778 7.664C1.88444 7.80267 1.83111 7.94667 1.77778 8.096C1.73511 8.23467 1.71378 8.33067 1.71378 8.384C1.69244 8.42667 1.63911 8.56 1.55378 8.784C1.47911 8.99733 1.39378 9.248 1.29778 9.536C1.21244 9.824 1.12711 10.1067 1.04178 10.384C0.956445 10.6613 0.892445 10.8907 0.849778 11.072C0.807111 11.2213 0.753778 11.3067 0.689778 11.328C0.625778 11.36 0.545778 11.376 0.449778 11.376ZM2.43378 6.416C2.47644 6.45867 2.64178 6.464 2.92978 6.432C3.21778 6.4 3.52711 6.32 3.85778 6.192C4.07111 6.11733 4.28444 6.02667 4.49778 5.92C4.72178 5.81333 4.93511 5.696 5.13778 5.568C5.24444 5.49333 5.40444 5.36 5.61778 5.168C5.83111 4.976 6.04444 4.74667 6.25778 4.48C6.28978 4.42667 6.34311 4.32533 6.41778 4.176C6.50311 4.016 6.57778 3.86667 6.64178 3.728C6.73778 3.57867 6.83378 3.36 6.92978 3.072C7.02578 2.77333 7.04711 2.528 6.99378 2.336C6.94044 2.05867 6.80178 1.80267 6.57778 1.568C6.35378 1.32267 6.08711 1.15733 5.77778 1.072C5.54311 1.02933 5.34578 1.008 5.18578 1.008C5.03644 1.008 4.87111 1.024 4.68978 1.056C4.51911 1.10933 4.39111 1.184 4.30578 1.28C4.23111 1.376 4.12978 1.57867 4.00178 1.888C3.92711 2.03733 3.82044 2.26667 3.68178 2.576C3.54311 2.87467 3.42578 3.15733 3.32978 3.424C3.13778 4.128 2.94578 4.70933 2.75378 5.168C2.57244 5.616 2.46044 5.89867 2.41778 6.016C2.42844 6.13333 2.42311 6.21867 2.40178 6.272C2.38044 6.31467 2.39111 6.36267 2.43378 6.416Z" fill="#1F170F"/>
</svg>
