<svg width="8" height="12" viewBox="0 0 8 12" fill="none" xmlns="http://www.w3.org/2000/svg">
<path d="M1.588 11.7771C1.428 11.7131 1.26267 11.6438 1.092 11.5691C0.932 11.4945 0.777333 11.3825 0.628 11.2331C0.489333 11.0945 0.366667 10.8971 0.26 10.6411C0.153333 10.3318 0.0786667 10.0278 0.036 9.72914C0.00400004 9.43048 -0.00666665 9.08381 0.00399996 8.68914C0.00399996 8.13448 0.0413333 7.65448 0.116 7.24914C0.201333 6.83314 0.329333 6.41181 0.5 5.98514C0.521333 5.95314 0.558667 5.86248 0.612 5.71314C0.676 5.55314 0.745333 5.38248 0.82 5.20114C0.905333 5.01981 0.969333 4.88114 1.012 4.78514C1.09733 4.60381 1.22533 4.36381 1.396 4.06514C1.57733 3.75581 1.76933 3.45714 1.972 3.16914C2.28133 2.71048 2.53733 2.34781 2.74 2.08114C2.94267 1.81448 3.13467 1.59048 3.316 1.40914C3.49733 1.22781 3.7 1.05714 3.924 0.897143C4.15867 0.726476 4.45733 0.518476 4.82 0.273142C5.05467 0.102476 5.31067 0.0118095 5.588 0.00114296C5.876 -0.00952421 6.14267 0.0544756 6.388 0.193142C6.63333 0.321143 6.81467 0.513143 6.932 0.769143C7.04933 0.993143 7.108 1.26514 7.108 1.58514C7.108 1.89448 7.06 2.22514 6.964 2.57714C6.868 2.91848 6.73467 3.24381 6.564 3.55314C6.39333 3.86248 6.196 4.11848 5.972 4.32114C5.83333 4.44914 5.70533 4.49714 5.588 4.46514C5.48133 4.43314 5.35333 4.34781 5.204 4.20914C5.108 4.02781 5.05467 3.92114 5.044 3.88914C5.044 3.85714 5.06533 3.83581 5.108 3.82514C5.172 3.75048 5.25733 3.62248 5.364 3.44114C5.47067 3.25981 5.57733 3.06781 5.684 2.86514C5.79067 2.65181 5.86533 2.48114 5.908 2.35314C5.99333 1.90514 6.052 1.59048 6.084 1.40914C6.116 1.21714 6.084 1.07314 5.988 0.977143C5.94533 0.934476 5.88133 0.918476 5.796 0.929142C5.72133 0.939809 5.59333 0.993142 5.412 1.08914C5.16667 1.19581 4.84667 1.43581 4.452 1.80914C4.05733 2.17181 3.69467 2.57714 3.364 3.02514C2.93733 3.59048 2.58 4.09181 2.292 4.52914C2.004 4.96648 1.78533 5.41448 1.636 5.87314C1.61467 5.91581 1.57733 5.99581 1.524 6.11314C1.48133 6.23048 1.46 6.28914 1.46 6.28914C1.47067 6.33181 1.45467 6.43848 1.412 6.60914C1.36933 6.76914 1.32133 6.90781 1.268 7.02514C1.15067 7.51581 1.08133 8.02781 1.06 8.56114C1.03867 9.08381 1.06533 9.54781 1.14 9.95314C1.22533 10.3585 1.348 10.6411 1.508 10.8011C1.64667 10.8971 1.83333 10.9291 2.068 10.8971C2.31333 10.8651 2.59067 10.7905 2.9 10.6731C3.20933 10.5558 3.524 10.4278 3.844 10.2891C4.1 10.1825 4.33467 10.0651 4.548 9.93714C4.76133 9.80914 4.92133 9.69714 5.028 9.60114C5.11333 9.53714 5.22 9.47314 5.348 9.40914C5.48667 9.33448 5.604 9.29714 5.7 9.29714C5.84933 9.24381 5.93467 9.22248 5.956 9.23314C5.97733 9.24381 5.988 9.29181 5.988 9.37714C5.988 9.52648 5.90267 9.69181 5.732 9.87314C5.572 10.0545 5.364 10.2198 5.108 10.3691C5.02267 10.4545 4.91067 10.5451 4.772 10.6411C4.63333 10.7371 4.48933 10.8118 4.34 10.8651C4.116 11.0358 3.83867 11.2011 3.508 11.3611C3.17733 11.5211 2.84133 11.6438 2.5 11.7291C2.16933 11.8145 1.86533 11.8305 1.588 11.7771Z" fill="#1F170F"/>
</svg>
