<svg width="10" height="11" viewBox="0 0 10 11" fill="none" xmlns="http://www.w3.org/2000/svg">
<path d="M0.864 10.644C0.821333 10.6227 0.757333 10.6067 0.672 10.596C0.597333 10.596 0.485333 10.596 0.336 10.596C0.293333 10.5747 0.245333 10.5427 0.192 10.5C0.138667 10.4573 0.0746667 10.388 0 10.292C0.0213334 10.132 0.0426667 9.97733 0.064 9.828C0.096 9.668 0.133333 9.51867 0.176 9.38C0.261333 9.124 0.325333 8.86267 0.368 8.596C0.421333 8.32933 0.48 8.06267 0.544 7.796L0.912 7.044C0.965333 6.77733 1.03467 6.52133 1.12 6.276C1.216 6.02 1.30667 5.76933 1.392 5.524C1.47733 5.28933 1.55733 5.07067 1.632 4.868C1.71733 4.65467 1.79733 4.45733 1.872 4.276C1.92533 4.16933 1.99467 4.004 2.08 3.78C2.16533 3.54533 2.25067 3.3 2.336 3.044C2.432 2.788 2.52267 2.58 2.608 2.42C2.62933 2.36667 2.65067 2.324 2.672 2.292C2.69333 2.24933 2.70933 2.19067 2.72 2.116C2.58133 2.12667 2.43733 2.10533 2.288 2.052C2.13867 1.99867 2.048 1.93467 2.016 1.86C2.016 1.84933 2.00533 1.796 1.984 1.7C1.97333 1.604 1.95733 1.508 1.936 1.412C1.92533 1.316 1.92 1.27333 1.92 1.284C1.984 1.23067 2.096 1.188 2.256 1.156C2.42667 1.124 2.53333 1.10267 2.576 1.092C2.75733 1.00667 2.89067 0.953333 2.976 0.932C3.06133 0.9 3.22667 0.857333 3.472 0.804C3.52533 0.793334 3.66933 0.761334 3.904 0.708C4.13867 0.654667 4.4 0.596 4.688 0.532C4.98667 0.468 5.25333 0.414667 5.488 0.372C5.72267 0.318667 5.872 0.292 5.936 0.292C6.04267 0.281333 6.144 0.276 6.24 0.276C6.34667 0.276 6.45333 0.254667 6.56 0.212C6.58133 0.190667 6.64533 0.185334 6.752 0.196C6.85867 0.196 6.98133 0.196 7.12 0.196C7.25867 0.185334 7.37067 0.164 7.456 0.132C7.552 0.0999999 7.65867 0.0893334 7.776 0.100001C7.904 0.100001 8.02133 0.0786672 8.128 0.0360004C8.18133 0.00400021 8.24 -0.00666664 8.304 0.00399989C8.37867 0.0146664 8.45867 0.0199997 8.544 0.0199997C8.68267 0.0946667 8.784 0.169334 8.848 0.244001C8.92267 0.308 8.98133 0.398667 9.024 0.516V0.82C8.93867 0.873333 8.83733 0.942667 8.72 1.028C8.60267 1.11333 8.50133 1.16667 8.416 1.188C8.36267 1.19867 8.304 1.21467 8.24 1.236C8.18667 1.25733 8.12267 1.28933 8.048 1.332C7.93067 1.396 7.824 1.43333 7.728 1.444C7.64267 1.45467 7.552 1.43867 7.456 1.396C7.41333 1.364 7.36533 1.348 7.312 1.348C7.26933 1.348 7.22133 1.34267 7.168 1.332C7.14667 1.268 7.12 1.22 7.088 1.188C7.06667 1.14533 7.04533 1.11333 7.024 1.092C7.00267 1.06 6.97067 1.03333 6.928 1.012C6.768 1.08667 6.60267 1.11333 6.432 1.092C6.26133 1.06 6.096 1.08133 5.936 1.156C5.776 1.16667 5.616 1.18267 5.456 1.204C5.30667 1.22533 5.15733 1.26267 5.008 1.316C4.848 1.35867 4.68267 1.39067 4.512 1.412C4.352 1.43333 4.19733 1.48133 4.048 1.556C3.89867 1.844 3.80267 2.036 3.76 2.132C3.71733 2.21733 3.66933 2.31867 3.616 2.436C3.488 2.70267 3.36533 2.97467 3.248 3.252C3.13067 3.52933 3.024 3.80667 2.928 4.084L2.08 6.372C2.048 6.42533 2 6.548 1.936 6.74C1.872 6.92133 1.80267 7.12933 1.728 7.364C1.65333 7.588 1.584 7.796 1.52 7.988C1.46667 8.18 1.43467 8.31867 1.424 8.404C1.392 8.596 1.34933 8.78267 1.296 8.964C1.25333 9.14533 1.20533 9.32667 1.152 9.508C1.10933 9.65733 1.06667 9.80667 1.024 9.956C0.992 10.0947 0.970667 10.2493 0.96 10.42C0.96 10.452 0.949333 10.484 0.928 10.516C0.906667 10.5587 0.885333 10.6013 0.864 10.644Z" fill="#1F170F"/>
</svg>
