<svg width="7" height="11" viewBox="0 0 7 11" fill="none" xmlns="http://www.w3.org/2000/svg">
<path d="M1.8592 10.5333C1.68853 10.512 1.56053 10.5013 1.4752 10.5013C1.40053 10.512 1.32053 10.512 1.2352 10.5013C1.14987 10.5013 1.0112 10.4747 0.8192 10.4213C0.7232 10.4 0.621867 10.352 0.5152 10.2773C0.408533 10.192 0.3392 10.096 0.3072 9.98933C0.264533 9.88267 0.216533 9.78133 0.1632 9.68533C0.120533 9.57867 0.104533 9.472 0.1152 9.36533C0.136533 9.29067 0.152533 9.22133 0.1632 9.15733C0.173867 9.08267 0.1952 9.008 0.2272 8.93333C0.344533 8.624 0.493867 8.24533 0.6752 7.79733C0.8672 7.33867 1.06453 6.88 1.2672 6.42133C1.46987 5.96267 1.6512 5.56267 1.8112 5.22133C1.9712 4.88 2.07787 4.66667 2.1312 4.58133C2.1312 4.58133 2.1632 4.512 2.2272 4.37333C2.2912 4.23467 2.36053 4.07467 2.4352 3.89333C2.52053 3.712 2.5952 3.552 2.6592 3.41333C2.7232 3.264 2.7552 3.18933 2.7552 3.18933C2.7872 3.11467 2.8512 2.97067 2.9472 2.75733C3.0432 2.544 3.14453 2.31467 3.2512 2.06933C3.36853 1.81333 3.46987 1.58933 3.5552 1.39733C3.6512 1.20533 3.70453 1.09333 3.7152 1.06133C3.43787 1.02933 3.21387 1.01867 3.0432 1.02933C2.87253 1.04 2.6592 1.06667 2.4032 1.10933C2.09387 1.16267 1.7792 1.232 1.4592 1.31733C1.14987 1.392 0.829867 1.48267 0.4992 1.58933C0.392533 1.51467 0.2752 1.45067 0.1472 1.39733C0.136533 1.33333 0.120533 1.27467 0.0992 1.22133C0.0885333 1.15733 0.0725333 1.09867 0.0511999 1.04533C0.0298667 0.981333 0.0138667 0.922666 0.00320002 0.869333C-0.00746667 0.784 0.00853328 0.714666 0.0511999 0.661333C0.0938666 0.608 0.1632 0.576 0.2592 0.565333C0.344533 0.554667 0.461867 0.533333 0.6112 0.501333C0.760533 0.469333 0.909867 0.432 1.0592 0.389334C1.2192 0.346667 1.3312 0.309333 1.3952 0.277333C1.4592 0.245333 1.57653 0.218667 1.7472 0.197333C1.91787 0.165333 2.09387 0.138666 2.2752 0.117333C2.4672 0.0960001 2.61653 0.0853336 2.7232 0.0853336C2.82987 0.0320003 2.93653 0.00533369 3.0432 0.00533369C3.14987 -0.00533348 3.25653 -2.12342e-07 3.3632 0.0213335C3.6192 0.0640002 3.88587 0.0960001 4.1632 0.117333C4.31253 0.128 4.4192 0.181333 4.4832 0.277333C4.55787 0.362667 4.6912 0.501333 4.8832 0.693333C4.90453 0.757333 4.89387 0.864 4.8512 1.01333C4.8192 1.152 4.76053 1.312 4.6752 1.49333C4.60053 1.664 4.52053 1.84 4.4352 2.02133C4.36053 2.20267 4.2912 2.368 4.2272 2.51733C4.12053 2.752 4.02453 2.944 3.9392 3.09333C3.85387 3.232 3.8112 3.36 3.8112 3.47733C3.92853 3.49867 4.04587 3.52 4.1632 3.54133C4.28053 3.552 4.39253 3.568 4.4992 3.58933C4.80853 3.664 5.0912 3.776 5.3472 3.92533C5.61387 4.07467 5.86987 4.25067 6.1152 4.45333C6.2112 4.53867 6.3232 4.68267 6.4512 4.88533C6.58987 5.088 6.7072 5.29067 6.8032 5.49333C6.8992 5.696 6.9312 5.84 6.8992 5.92533C6.84587 6.07467 6.8192 6.25067 6.8192 6.45333C6.8192 6.64533 6.77653 6.86933 6.6912 7.12533C6.44587 7.712 6.0992 8.256 5.6512 8.75733C5.2032 9.248 4.69653 9.632 4.1312 9.90933C3.99253 9.984 3.84853 10.0587 3.6992 10.1333C3.54987 10.208 3.38987 10.256 3.2192 10.2773C3.0592 10.3413 2.87787 10.4 2.6752 10.4533C2.47253 10.5173 2.20053 10.544 1.8592 10.5333ZM2.1152 9.49333C2.16853 9.49333 2.29653 9.46133 2.4992 9.39733C2.71253 9.33333 2.9312 9.264 3.1552 9.18933C3.3792 9.104 3.52853 9.04 3.6032 8.99733C3.88053 8.816 4.1632 8.608 4.4512 8.37333C4.7392 8.13867 4.9792 7.88267 5.1712 7.60533C5.3312 7.36 5.4752 7.10933 5.6032 6.85333C5.74187 6.59733 5.8432 6.36267 5.9072 6.14933C5.98187 5.936 5.99787 5.78133 5.9552 5.68533C5.9232 5.52533 5.86453 5.36 5.7792 5.18933C5.69387 5.008 5.5392 4.88 5.3152 4.80533C5.1232 4.73067 4.93653 4.65067 4.7552 4.56533C4.57387 4.48 4.37653 4.432 4.1632 4.42133C4.08853 4.368 3.96053 4.34667 3.7792 4.35733C3.60853 4.35733 3.48053 4.35733 3.3952 4.35733C3.3632 4.4 3.30987 4.496 3.2352 4.64533C3.1712 4.784 3.10187 4.93867 3.0272 5.10933C2.95253 5.26933 2.88853 5.408 2.8352 5.52533C2.78187 5.64267 2.7552 5.70133 2.7552 5.70133C2.7552 5.776 2.72853 5.84533 2.6752 5.90933C2.62187 5.96267 2.58453 6.032 2.5632 6.11733C2.32853 6.69333 2.1312 7.15733 1.9712 7.50933C1.82187 7.86133 1.6992 8.14933 1.6032 8.37333C1.5072 8.58667 1.43253 8.77867 1.3792 8.94933C1.32587 9.10933 1.27787 9.29067 1.2352 9.49333H2.1152Z" fill="#1F170F"/>
</svg>
