<svg width="11" height="13" viewBox="0 0 11 13" fill="none" xmlns="http://www.w3.org/2000/svg">
<path d="M6.27077 12.4672C6.07877 12.3925 5.91877 12.2912 5.79077 12.1632C5.67344 12.0352 5.6361 11.8645 5.67877 11.6512C5.67877 11.6512 5.72144 11.5499 5.80677 11.3472C5.8921 11.1552 5.99344 10.9152 6.11077 10.6272C6.23877 10.3285 6.36144 10.0352 6.47877 9.7472C6.5961 9.4592 6.69744 9.2192 6.78277 9.0272C6.8681 8.82453 6.91077 8.7232 6.91077 8.7232C6.98544 8.5312 7.08677 8.26987 7.21477 7.9392C7.35344 7.60853 7.48677 7.27253 7.61477 6.9312C7.75344 6.5792 7.87077 6.2752 7.96677 6.0192C8.06277 5.7632 8.11077 5.6192 8.11077 5.5872C8.2281 5.32053 8.32944 5.04853 8.41477 4.7712C8.5001 4.49387 8.60677 4.2272 8.73477 3.9712C8.83077 3.75787 8.9161 3.56587 8.99077 3.3952C9.06544 3.21387 9.10277 3.05387 9.10277 2.9152C9.10277 2.9152 8.99077 3.03253 8.76677 3.2672C8.55344 3.50187 8.26544 3.81653 7.90277 4.2112C7.5401 4.5952 7.1401 5.02187 6.70277 5.4912C6.2761 5.94987 5.8441 6.41387 5.40677 6.8832C4.9801 7.35253 4.58544 7.78453 4.22277 8.1792C3.8601 8.5632 3.56677 8.87253 3.34277 9.1072C3.11877 9.34187 3.00677 9.4592 3.00677 9.4592C2.7721 9.64053 2.55344 9.83787 2.35077 10.0512C2.15877 10.2539 1.94544 10.4459 1.71077 10.6272C1.61477 10.7019 1.49744 10.7979 1.35877 10.9152C1.2201 11.0219 1.08677 11.1179 0.958769 11.2032C0.830769 11.2992 0.734769 11.3472 0.670769 11.3472C0.361436 11.2939 0.164103 11.2085 0.0787692 11.0912C-0.00656412 10.9632 -0.0225641 10.8085 0.0307693 10.6272C0.0841026 10.4352 0.158769 10.2112 0.254769 9.9552C0.308103 9.78453 0.356103 9.61387 0.398769 9.4432C0.452103 9.26187 0.489436 9.08587 0.510769 8.9152C0.585436 8.5952 0.665436 8.29653 0.750769 8.0192C0.836103 7.74187 0.916103 7.4752 0.990769 7.2192C1.06544 6.97387 1.1401 6.72853 1.21477 6.4832C1.28944 6.2272 1.3321 5.96587 1.34277 5.6992C1.47077 5.48587 1.57744 5.27787 1.66277 5.0752C1.7481 4.86187 1.8281 4.64853 1.90277 4.4352C1.97744 4.22187 2.06277 4.00853 2.15877 3.7952C2.2761 3.5392 2.3721 3.27787 2.44677 3.0112C2.5321 2.73387 2.63344 2.46187 2.75077 2.1952C2.82544 2.04587 2.92677 1.84853 3.05477 1.6032C3.18277 1.35787 3.3001 1.1072 3.40677 0.8512C3.5241 0.595201 3.58277 0.376534 3.58277 0.1952C3.58277 0.0778666 3.62544 0.0138665 3.71077 0.00319992C3.7961 -0.00746661 3.8921 0.0085335 3.99877 0.0512003C4.10544 0.093867 4.1961 0.1472 4.27077 0.2112C4.3561 0.2752 4.4041 0.3232 4.41477 0.3552C4.44677 0.4512 4.4681 0.552534 4.47877 0.6592C4.5001 0.765867 4.4841 0.877867 4.43077 0.995201L3.10277 4.3712L1.64677 8.2272C1.51877 8.6432 1.4441 8.96853 1.42277 9.2032C1.4121 9.43787 1.48144 9.51787 1.63077 9.4432L4.86277 6.2112C5.0441 6.0192 5.2201 5.82187 5.39077 5.6192C5.5721 5.40587 5.74277 5.19787 5.90277 4.9952C5.94544 4.97387 6.0521 4.8672 6.22277 4.6752C6.4041 4.4832 6.6121 4.25387 6.84677 3.9872C7.08144 3.72053 7.30544 3.46987 7.51877 3.2352C7.7321 2.98987 7.8921 2.80853 7.99877 2.6912L10.0308 0.5312L10.3348 0.4352C10.4308 0.424534 10.5268 0.456533 10.6228 0.5312C10.7188 0.605867 10.7881 0.701867 10.8308 0.8192C10.8841 0.936534 10.8841 1.0592 10.8308 1.1872C10.8308 1.1872 10.7774 1.32587 10.6708 1.6032C10.5748 1.88053 10.4468 2.23787 10.2868 2.6752C10.1268 3.10187 9.9561 3.5552 9.77477 4.0352C9.6041 4.5152 9.43877 4.96853 9.27877 5.3952C9.11877 5.82187 8.98544 6.17387 8.87877 6.4512C8.78277 6.71787 8.72944 6.8512 8.71877 6.8512C8.72944 6.8192 8.6921 6.90453 8.60677 7.1072C8.5321 7.30987 8.43077 7.57653 8.30277 7.9072C8.17477 8.23787 8.04144 8.5792 7.90277 8.9312C7.7641 9.27253 7.64144 9.57653 7.53477 9.8432C7.43877 10.1099 7.3801 10.2805 7.35877 10.3552C7.3161 10.4939 7.26277 10.6325 7.19877 10.7712C7.14544 10.8992 7.08677 11.0272 7.02277 11.1552C6.9481 11.2939 6.8841 11.4379 6.83077 11.5872C6.7881 11.7472 6.75077 11.9019 6.71877 12.0512C6.68677 12.1685 6.62277 12.2752 6.52677 12.3712C6.43077 12.4779 6.34544 12.5099 6.27077 12.4672Z" fill="#1F170F"/>
</svg>
