<svg width="10" height="12" viewBox="0 0 10 12" fill="none" xmlns="http://www.w3.org/2000/svg">
<path d="M0.226286 11.1738C0.0876191 11.0885 0.0129524 11.0032 0.00228572 10.9178C-0.00838097 10.8432 0.0182857 10.6938 0.0822858 10.4698C0.0716191 10.3312 0.0769524 10.2032 0.0982858 10.0858C0.130286 9.96848 0.151619 9.88849 0.162286 9.84582C0.215619 9.84582 0.247619 9.81382 0.258286 9.74982C0.268952 9.68582 0.274286 9.63249 0.274286 9.58982C0.274286 9.50449 0.306286 9.36049 0.370286 9.15782C0.444952 8.95515 0.508952 8.74715 0.562286 8.53382C0.647619 8.32048 0.727619 8.12315 0.802286 7.94182C0.887619 7.74982 0.930286 7.63249 0.930286 7.58982C0.930286 7.50449 0.951619 7.41915 0.994286 7.33382C1.03695 7.23782 1.08495 7.14715 1.13829 7.06182C1.19162 6.93382 1.22895 6.79515 1.25029 6.64582C1.28229 6.48582 1.29829 6.36315 1.29829 6.27782C1.36229 6.13915 1.43162 5.98982 1.50629 5.82982C1.58095 5.66982 1.63962 5.50449 1.68229 5.33382C1.74629 5.15248 1.83695 4.89115 1.95429 4.54982C2.08229 4.19782 2.21562 3.84048 2.35429 3.47782C2.45029 3.27515 2.54629 3.06182 2.64229 2.83782C2.73829 2.61382 2.82362 2.42182 2.89829 2.26182C2.97295 2.10182 3.02629 2.02182 3.05829 2.02182C3.05829 2.02182 3.05829 2.00582 3.05829 1.97382C3.05829 1.93115 3.05829 1.88848 3.05829 1.84582C3.05829 1.79249 3.10095 1.69115 3.18629 1.54182C3.27162 1.38182 3.35162 1.21648 3.42629 1.04582C3.53295 0.885818 3.60762 0.736485 3.65029 0.597818C3.69295 0.448485 3.71429 0.373818 3.71429 0.373818C3.71429 0.373818 3.73029 0.341818 3.76229 0.277818C3.80495 0.213818 3.84762 0.160485 3.89029 0.117818C4.02895 0.0218178 4.15695 -0.0155153 4.27429 0.00581836C4.40229 0.0271514 4.50895 0.128485 4.59429 0.309818C4.67962 0.480485 4.71695 0.624485 4.70629 0.741818C4.69562 0.848485 4.64762 0.965818 4.56229 1.09382C4.47695 1.28582 4.36495 1.53115 4.22629 1.82982C4.08762 2.11782 3.93829 2.43248 3.77829 2.77382C3.62895 3.10448 3.48495 3.42448 3.34629 3.73382C3.21829 4.03249 3.11162 4.29382 3.02629 4.51782C2.95162 4.73115 2.91429 4.86448 2.91429 4.91782L2.25829 6.53382C2.25829 6.55515 2.23695 6.60848 2.19429 6.69382C2.16229 6.77915 2.11429 6.90715 2.05029 7.07782C1.99695 7.24849 1.92762 7.47248 1.84229 7.74982C1.75695 8.02715 1.65562 8.36315 1.53829 8.75782C1.32495 9.44048 1.15962 9.97382 1.04229 10.3578C0.924952 10.7312 0.828952 10.9872 0.754286 11.1258C0.690286 11.2752 0.620952 11.3498 0.546286 11.3498C0.503619 11.3498 0.455619 11.3285 0.402286 11.2858C0.359619 11.2538 0.300952 11.2165 0.226286 11.1738ZM5.87429 11.3018C5.77829 11.3125 5.64495 11.2645 5.47429 11.1578C5.31429 11.0618 5.13829 10.9392 4.94629 10.7898C4.76495 10.6405 4.58895 10.4858 4.41829 10.3258C4.25829 10.1658 4.13029 10.0272 4.03429 9.90982C3.86362 9.66449 3.65029 9.34449 3.39429 8.94982C3.13829 8.54449 2.94629 8.11248 2.81829 7.65382C2.74362 7.31248 2.66895 7.04582 2.59429 6.85382C2.51962 6.65115 2.47162 6.48582 2.45029 6.35782L2.46629 5.23782L3.28229 5.49382C3.33562 6.06982 3.41562 6.54982 3.52229 6.93382C3.63962 7.30715 3.77829 7.63782 3.93829 7.92582C4.06629 8.20315 4.21029 8.48048 4.37029 8.75782C4.53029 9.02448 4.70095 9.24848 4.88229 9.42982C5.12762 9.69648 5.34629 9.89382 5.53829 10.0218C5.73029 10.1498 5.87429 10.2138 5.97029 10.2138C6.02362 10.2245 6.09829 10.2618 6.19429 10.3258C6.30095 10.3898 6.39695 10.4592 6.48229 10.5338C6.57829 10.5978 6.63162 10.6618 6.64229 10.7258C6.65295 10.7578 6.65829 10.8058 6.65829 10.8698C6.65829 10.9445 6.64762 11.0085 6.62629 11.0618C6.61562 11.1258 6.59962 11.1738 6.57829 11.2058C6.54629 11.2805 6.48762 11.3445 6.40229 11.3978C6.32762 11.4618 6.15162 11.4298 5.87429 11.3018ZM2.29029 5.36582L3.45829 4.51782C3.49029 4.48582 3.60229 4.37915 3.79429 4.19782C3.99695 4.01649 4.32762 3.75515 4.78629 3.41382L6.75429 1.81382C7.02095 1.67515 7.29295 1.49915 7.57029 1.28582C7.85829 1.07248 8.07695 0.917818 8.22629 0.821818C8.40762 0.693818 8.56762 0.581818 8.70629 0.485818C8.84495 0.389818 8.93562 0.347151 8.97829 0.357818C9.06362 0.315152 9.14895 0.331152 9.23429 0.405818C9.33029 0.469818 9.40495 0.560485 9.45829 0.677818C9.52229 0.784485 9.54895 0.880485 9.53829 0.965818C9.55962 1.07248 9.53829 1.16315 9.47429 1.23782C9.41029 1.31248 9.25562 1.41915 9.01029 1.55782C8.80762 1.65382 8.62629 1.74982 8.46629 1.84582C8.31695 1.94182 8.22629 2.02182 8.19429 2.08582C8.19429 2.08582 8.09295 2.16582 7.89029 2.32582C7.69829 2.47515 7.44762 2.65648 7.13829 2.86982C6.71162 3.14715 6.34362 3.40848 6.03429 3.65382C5.73562 3.89915 5.54362 4.08582 5.45829 4.21382C5.41562 4.21382 5.37295 4.22982 5.33029 4.26182C5.29829 4.29382 5.26095 4.30449 5.21829 4.29382C5.21829 4.29382 5.17562 4.32049 5.09029 4.37382C5.01562 4.42715 4.95695 4.48048 4.91429 4.53382C4.89295 4.58715 4.84495 4.66182 4.77029 4.75782C4.70629 4.85382 4.62095 4.89649 4.51429 4.88582C4.43962 4.92848 4.30629 5.01915 4.11429 5.15782C3.92229 5.28582 3.71962 5.42982 3.50629 5.58982C3.30362 5.74982 3.12762 5.89382 2.97829 6.02182C2.82895 6.14982 2.74895 6.22449 2.73829 6.24582L2.29029 5.36582Z" fill="#1F170F"/>
</svg>
