<svg width="10" height="12" viewBox="0 0 10 12" fill="none" xmlns="http://www.w3.org/2000/svg">
<path d="M9.248 0.155556C9.46133 0.166222 9.6 0.256889 9.664 0.427555C9.728 0.587556 9.71733 0.811556 9.632 1.09956C9.54667 1.38756 9.376 1.71289 9.12 2.07556C8.87467 2.32089 8.736 2.52889 8.704 2.69956C8.62933 2.79556 8.512 2.93422 8.352 3.11556C8.20267 3.28622 8.03733 3.47289 7.856 3.67556C7.68533 3.86756 7.53067 4.03822 7.392 4.18756C7.264 4.33689 7.17867 4.42756 7.136 4.45956C6.98667 4.58756 6.816 4.73689 6.624 4.90756C6.44267 5.07822 6.27733 5.23822 6.128 5.38756C5.98933 5.52622 5.89867 5.62222 5.856 5.67556C5.78133 5.75022 5.712 5.83022 5.648 5.91556C5.584 5.99022 5.52533 6.03822 5.472 6.05956C5.46133 6.10222 5.42933 6.15556 5.376 6.21956C5.32267 6.27289 5.28533 6.32622 5.264 6.37956C5.24267 6.39022 5.17333 6.44889 5.056 6.55556C4.93867 6.66222 4.80533 6.78489 4.656 6.92356C4.51733 7.05156 4.38933 7.16889 4.272 7.27556C4.16533 7.38222 4.10667 7.44622 4.096 7.46756C3.97867 7.57422 3.79733 7.76089 3.552 8.02756C3.30667 8.28356 3.03467 8.57156 2.736 8.89156C2.43733 9.21156 2.14933 9.52622 1.872 9.83556C1.59467 10.1342 1.36 10.3902 1.168 10.6036C0.986667 10.8276 0.885333 10.9662 0.864 11.0196C0.821333 11.1049 0.752 11.1582 0.656 11.1796C0.570667 11.2116 0.485333 11.2169 0.4 11.1956C0.357333 11.2169 0.309333 11.2222 0.256 11.2116C0.213333 11.2116 0.181333 11.2062 0.16 11.1956C0.16 11.1956 0.149333 11.1689 0.128 11.1156C0.106667 11.0622 0.0853334 10.9769 0.064 10.8596C1.49012e-08 10.7529 -0.016 10.6516 0.016 10.5556C0.048 10.4596 0.0853333 10.3529 0.128 10.2356C0.202667 10.0969 0.277333 9.97956 0.352 9.88356C0.426667 9.78756 0.554667 9.65956 0.736 9.49956C0.917333 9.32889 1.19467 9.06756 1.568 8.71556C1.73867 8.54489 1.90933 8.38489 2.08 8.23556C2.26133 8.07556 2.35733 7.97956 2.368 7.94756C2.37867 7.90489 2.42133 7.84622 2.496 7.77156C2.57067 7.69689 2.64533 7.60622 2.72 7.49956C2.79467 7.44622 2.91733 7.33956 3.088 7.17956C3.26933 7.00889 3.46667 6.82222 3.68 6.61956C3.89333 6.40622 4.10133 6.19822 4.304 5.99556C4.51733 5.79289 4.69333 5.62756 4.832 5.49956C4.896 5.41422 4.97067 5.32889 5.056 5.24356C5.152 5.14756 5.25333 5.03556 5.36 4.90756C5.37067 4.88622 5.44 4.81156 5.568 4.68356C5.70667 4.54489 5.86667 4.38489 6.048 4.20356C6.22933 4.01156 6.4 3.83022 6.56 3.65956C6.73067 3.47822 6.85867 3.33956 6.944 3.24356C7.37067 2.74222 7.75467 2.27822 8.096 1.85156C8.448 1.41422 8.69333 1.04622 8.832 0.747556C8.93867 0.523556 9.01333 0.374222 9.056 0.299556C9.09867 0.214222 9.16267 0.166222 9.248 0.155556ZM6.992 10.8756C6.78933 10.8542 6.58667 10.7476 6.384 10.5556C6.18133 10.3742 5.95733 10.0649 5.712 9.62756C5.31733 9.08356 4.97067 8.42756 4.672 7.65956C4.37333 6.88089 4.16533 6.04356 4.048 5.14756C3.99467 4.77422 3.936 4.45422 3.872 4.18756C3.808 3.91022 3.76533 3.76089 3.744 3.73956C3.73333 3.69689 3.73867 3.67022 3.76 3.65956C3.792 3.63822 3.808 3.62756 3.808 3.62756C3.84 3.59556 3.84533 3.56356 3.824 3.53156C3.80267 3.48889 3.78133 3.44089 3.76 3.38756C3.76 3.38756 3.73333 3.26489 3.68 3.01956C3.62667 2.77422 3.584 2.47022 3.552 2.10756C3.50933 1.72356 3.472 1.39289 3.44 1.11556C3.41867 0.827556 3.39733 0.640889 3.376 0.555555C3.344 0.534222 3.328 0.502222 3.328 0.459556C3.328 0.416889 3.328 0.395556 3.328 0.395556C3.34933 0.331556 3.38133 0.278222 3.424 0.235556C3.46667 0.182222 3.504 0.139556 3.536 0.107555C3.696 -0.00977766 3.85067 -0.031111 4 0.0435553C4.16 0.107555 4.288 0.240889 4.384 0.443556C4.49067 0.635555 4.544 0.864889 4.544 1.13156C4.544 1.40889 4.576 1.57956 4.64 1.64356C4.62933 1.66489 4.624 1.74489 4.624 1.88356C4.63467 2.02222 4.64533 2.18222 4.656 2.36356C4.67733 2.53422 4.69867 2.69422 4.72 2.84356C4.74133 2.99289 4.75733 3.09422 4.768 3.14756C4.72533 3.27556 4.72533 3.36622 4.768 3.41956C4.77867 3.50489 4.79467 3.62222 4.816 3.77156C4.83733 3.91022 4.84267 4.00622 4.832 4.05956C4.82133 4.11289 4.832 4.20889 4.864 4.34756C4.90667 4.47556 4.944 4.60889 4.976 4.74756L5.392 6.18756C5.47733 6.52889 5.55733 6.83289 5.632 7.09956C5.70667 7.35556 5.79733 7.61156 5.904 7.86756C6.01067 8.11289 6.13867 8.39022 6.288 8.69956C6.40533 8.95556 6.544 9.19556 6.704 9.41956C6.864 9.63289 7.008 9.77689 7.136 9.85156C7.15733 9.87289 7.21067 9.88889 7.296 9.89956C7.392 9.89956 7.45067 9.88356 7.472 9.85156C7.58933 9.81956 7.67467 9.84089 7.728 9.91556C7.792 9.97956 7.83467 10.0649 7.856 10.1716C7.888 10.2676 7.904 10.3689 7.904 10.4756C7.92533 10.5502 7.888 10.6196 7.792 10.6836C7.70667 10.7582 7.58933 10.8116 7.44 10.8436C7.30133 10.8862 7.152 10.8969 6.992 10.8756Z" fill="#1F170F"/>
</svg>
