<svg width="8" height="12" viewBox="0 0 8 12" fill="none" xmlns="http://www.w3.org/2000/svg">
<path d="M0.96 10.9613C0.565333 10.6627 0.314667 10.4333 0.208 10.2733C0.101333 10.1027 0.0373333 9.9 0.016 9.66533C-0.00533332 9.47333 -0.00533332 9.212 0.016 8.88133C0.048 8.55067 0.0853333 8.22533 0.128 7.90533C0.170667 7.58533 0.208 7.34533 0.24 7.18533C0.293333 7.132 0.314667 7.06267 0.304 6.97733C0.304 6.88133 0.304 6.83333 0.304 6.83333C0.293333 6.78 0.330667 6.64133 0.416 6.41733C0.501333 6.18267 0.581333 5.884 0.656 5.52133C0.869333 4.88133 1.072 4.348 1.264 3.92133C1.46667 3.484 1.664 3.11067 1.856 2.80133C2.048 2.492 2.24 2.20933 2.432 1.95333C2.86933 1.50533 3.22133 1.16933 3.488 0.945334C3.75467 0.710667 4.05333 0.518667 4.384 0.369334C4.59733 0.241333 4.79467 0.14 4.976 0.0653337C5.15733 -0.00933323 5.30667 -0.0200001 5.424 0.0333332C6.02133 0.161333 6.46933 0.406667 6.768 0.769333C7.06667 1.12133 7.28533 1.67067 7.424 2.41733C7.49867 2.88667 7.54133 3.31333 7.552 3.69733C7.57333 4.07067 7.54667 4.444 7.472 4.81733C7.39733 5.18 7.25867 5.58 7.056 6.01733C6.864 6.45467 6.592 6.96667 6.24 7.55333C5.86667 8.28933 5.44533 8.92933 4.976 9.47333C4.51733 10.0173 4.04267 10.444 3.552 10.7533C3.072 11.0733 2.60267 11.2547 2.144 11.2973C1.696 11.34 1.30133 11.228 0.96 10.9613ZM1.984 10.4973C2.22933 10.4653 2.464 10.3907 2.688 10.2733C2.912 10.156 3.14667 9.98533 3.392 9.76133C3.63733 9.52667 3.91467 9.23333 4.224 8.88133C4.50133 8.56133 4.72533 8.29467 4.896 8.08133C5.07733 7.85733 5.22667 7.63333 5.344 7.40933C5.472 7.18533 5.58933 6.91333 5.696 6.59333C5.81333 6.27333 5.94667 5.85733 6.096 5.34533C6.18133 5.02533 6.24533 4.75867 6.288 4.54533C6.33067 4.332 6.35733 4.13467 6.368 3.95333C6.37867 3.76133 6.37867 3.54267 6.368 3.29733C6.368 3.052 6.368 2.73733 6.368 2.35333C6.35733 2.172 6.32 1.98533 6.256 1.79333C6.192 1.59067 6.11733 1.44133 6.032 1.34533C5.92533 1.228 5.776 1.148 5.584 1.10533C5.392 1.052 5.17867 1.07867 4.944 1.18533C4.816 1.23867 4.65067 1.36133 4.448 1.55333C4.24533 1.73467 4.032 1.948 3.808 2.19333C3.584 2.43867 3.37067 2.68933 3.168 2.94533C2.976 3.20133 2.816 3.43067 2.688 3.63333C2.57067 3.82533 2.512 3.95867 2.512 4.03333C2.512 4.03333 2.50667 4.06 2.496 4.11333C2.496 4.16667 2.47467 4.22 2.432 4.27333C2.29333 4.42267 2.13867 4.68933 1.968 5.07333C1.808 5.45733 1.65333 5.89467 1.504 6.38533C1.35467 6.86533 1.22667 7.34533 1.12 7.82533C1.024 8.29467 0.965333 8.70533 0.944 9.05733C0.922667 9.34533 0.912 9.54267 0.912 9.64933C0.912 9.756 0.933333 9.84133 0.976 9.90533C1.01867 9.95867 1.088 10.0653 1.184 10.2253C1.248 10.332 1.35467 10.412 1.504 10.4653C1.664 10.5187 1.824 10.5293 1.984 10.4973Z" fill="#1F170F"/>
</svg>
