<svg width="11" height="12" viewBox="0 0 11 12" fill="none" xmlns="http://www.w3.org/2000/svg">
<path d="M0.672 11.28C0.341333 11.2587 0.144 11.2 0.08 11.104C0.0266667 11.008 0 10.9067 0 10.8C0.0533334 10.64 0.112 10.4853 0.176 10.336C0.250667 10.1867 0.304 10.0267 0.336 9.856C0.368 9.71733 0.4 9.58933 0.432 9.472C0.464 9.35467 0.501333 9.22667 0.544 9.088C0.629333 8.832 0.725333 8.51733 0.832 8.144C0.949333 7.77067 1.072 7.39733 1.2 7.024C1.328 6.65067 1.44 6.34133 1.536 6.096C1.62133 5.85067 1.69067 5.64267 1.744 5.472C1.808 5.30133 1.872 5.136 1.936 4.976C2 4.816 2.06933 4.624 2.144 4.4C2.19733 4.26133 2.24533 4.128 2.288 4C2.33067 3.86133 2.37333 3.72267 2.416 3.584C2.46933 3.44533 2.51733 3.312 2.56 3.184C2.61333 3.04533 2.66133 2.90667 2.704 2.768C2.82133 2.52267 2.92267 2.288 3.008 2.064C3.104 1.84 3.18933 1.59467 3.264 1.328C3.30667 1.232 3.30133 1.16267 3.248 1.12C3.20533 1.07733 3.184 0.986667 3.184 0.848001C3.17333 0.72 3.20533 0.629333 3.28 0.576C3.36533 0.512 3.472 0.496 3.6 0.528C3.74933 0.56 3.95733 0.586667 4.224 0.608C4.50133 0.629333 4.752 0.64 4.976 0.64C5.21067 0.629334 5.33867 0.618667 5.36 0.608C5.41333 0.586667 5.58933 0.554667 5.888 0.512C6.18667 0.458667 6.54933 0.4 6.976 0.336C7.40267 0.272 7.84 0.213333 8.288 0.16C8.74667 0.106667 9.152 0.0586665 9.504 0.0159998C9.62133 -0.00533327 9.73333 -0.00533327 9.84 0.0159998C9.95733 0.0373335 10.0693 0.0586669 10.176 0.0799999C10.3147 0.101334 10.4533 0.176 10.592 0.304C10.7307 0.432 10.7787 0.586667 10.736 0.768001C10.6933 0.885334 10.6027 0.949334 10.464 0.96C10.3253 0.96 10.1387 0.938667 9.904 0.896C9.88267 0.896 9.86133 0.938667 9.84 1.024C9.81867 1.10933 9.792 1.21067 9.76 1.328C9.73867 1.44533 9.70133 1.568 9.648 1.696C9.584 1.77067 9.50933 1.91467 9.424 2.128C9.34933 2.34133 9.26933 2.576 9.184 2.832C9.09867 3.088 9.02933 3.32267 8.976 3.536C8.92267 3.74933 8.896 3.89867 8.896 3.984C8.74667 4.21867 8.64 4.47467 8.576 4.752C8.52267 5.02933 8.45333 5.29067 8.368 5.536C8.35733 5.57867 8.31467 5.728 8.24 5.984C8.176 6.22933 8.096 6.528 8 6.88C7.904 7.232 7.808 7.584 7.712 7.936C7.616 8.27733 7.536 8.57067 7.472 8.816C7.408 9.06133 7.376 9.2 7.376 9.232C7.36533 9.44533 7.33867 9.664 7.296 9.888C7.264 10.112 7.24267 10.3307 7.232 10.544C7.24267 10.5867 7.248 10.624 7.248 10.656C7.248 10.6773 7.22667 10.6987 7.184 10.72C7.09867 10.7947 6.95467 10.832 6.752 10.832C6.54933 10.8213 6.42133 10.784 6.368 10.72C6.32533 10.6347 6.288 10.56 6.256 10.496C6.224 10.4213 6.21333 10.3413 6.224 10.256C6.24533 9.95733 6.28267 9.65867 6.336 9.36C6.38933 9.06133 6.43733 8.77333 6.48 8.496C6.53333 8.21867 6.59733 7.968 6.672 7.744C6.74667 7.52 6.8 7.39733 6.832 7.376L7.136 6.24C7.25333 5.92 7.328 5.66933 7.36 5.488C7.392 5.296 7.424 5.10933 7.456 4.928C7.49867 4.74667 7.57333 4.512 7.68 4.224C7.78667 3.95733 7.872 3.69067 7.936 3.424C8.01067 3.14667 8.08533 2.87467 8.16 2.608C8.23467 2.352 8.30933 2.128 8.384 1.936C8.45867 1.73333 8.51733 1.55733 8.56 1.408C8.61333 1.25867 8.63467 1.13067 8.624 1.024C8.38933 1.04533 8.17067 1.072 7.968 1.104C7.776 1.136 7.57333 1.168 7.36 1.2C7.15733 1.22133 6.90667 1.25333 6.608 1.296C6.42667 1.31733 6.18667 1.35467 5.888 1.408C5.58933 1.45067 5.312 1.49333 5.056 1.536C4.81067 1.568 4.656 1.584 4.592 1.584C4.51733 1.59467 4.45333 1.616 4.4 1.648C4.34667 1.68 4.32 1.72267 4.32 1.776C4.16 2.096 4.00533 2.42133 3.856 2.752C3.70667 3.072 3.57333 3.38133 3.456 3.68C3.34933 3.968 3.26933 4.224 3.216 4.448C3.19467 4.49067 3.152 4.59733 3.088 4.768C3.024 4.93867 2.94933 5.136 2.864 5.36C2.77867 5.584 2.69867 5.79733 2.624 6C2.54933 6.20267 2.49067 6.36267 2.448 6.48C2.416 6.58667 2.40533 6.61333 2.416 6.56C2.256 7.072 2.12267 7.47733 2.016 7.776C1.92 8.064 1.84 8.29333 1.776 8.464C1.712 8.63467 1.65867 8.784 1.616 8.912C1.57333 9.04 1.53067 9.19467 1.488 9.376C1.424 9.54667 1.37067 9.72267 1.328 9.904C1.28533 10.0853 1.24267 10.2667 1.2 10.448C1.18933 10.5013 1.17333 10.56 1.152 10.624C1.14133 10.688 1.12 10.8213 1.088 11.024C1.04533 11.1093 0.992 11.1733 0.928 11.216C0.874667 11.2693 0.789333 11.2907 0.672 11.28Z" fill="#1F170F"/>
</svg>
