<svg width="14" height="12" viewBox="0 0 14 12" fill="none" xmlns="http://www.w3.org/2000/svg">
<path d="M1.896 11.337C1.8 11.337 1.69867 11.337 1.592 11.337C1.496 11.3477 1.40533 11.3264 1.32 11.273C1.04267 11.2944 0.770667 11.193 0.504 10.969C0.237333 10.745 0.0773333 10.4997 0.024 10.233C-0.00800002 9.98771 -0.00800002 9.73171 0.024 9.46504C0.0773333 9.19838 0.146667 8.88371 0.232 8.52104C0.328 8.15838 0.434667 7.78504 0.552 7.40104C0.68 7.00638 0.813333 6.63838 0.952 6.29704C0.984 6.22238 1.03733 6.08371 1.112 5.88104C1.18667 5.66771 1.26667 5.43838 1.352 5.19304C1.448 4.93704 1.53333 4.70771 1.608 4.50504C1.68267 4.29171 1.73067 4.14771 1.752 4.07304C1.82667 3.84904 1.88533 3.68371 1.928 3.57704C1.97067 3.47038 2.01333 3.37971 2.056 3.30504C2.09867 3.21971 2.152 3.10771 2.216 2.96904C2.28 2.83038 2.36533 2.62238 2.472 2.34504C2.58933 2.05704 2.71733 1.77438 2.856 1.49704C3.00533 1.21971 3.16533 0.94771 3.336 0.681044C3.38933 0.606377 3.432 0.526377 3.464 0.441043C3.496 0.35571 3.528 0.27571 3.56 0.201043C3.66667 0.0197099 3.784 -0.0389567 3.912 0.0250438C4.05067 0.078377 4.216 0.153044 4.408 0.249044C4.51467 0.313044 4.57867 0.393043 4.6 0.489044C4.632 0.585044 4.60533 0.686377 4.52 0.793043C4.31733 1.12371 4.11467 1.46504 3.912 1.81704C3.72 2.15838 3.53333 2.50504 3.352 2.85704C3.33067 2.89971 3.288 2.98504 3.224 3.11304C3.17067 3.24104 3.11733 3.36904 3.064 3.49704C3.01067 3.62504 2.984 3.71571 2.984 3.76904C2.92 3.89704 2.83467 4.09971 2.728 4.37704C2.62133 4.65438 2.50933 4.95304 2.392 5.27304C2.27467 5.59304 2.16267 5.89704 2.056 6.18504C1.96 6.46238 1.88533 6.67038 1.832 6.80904C1.71467 7.09704 1.60267 7.40638 1.496 7.73704C1.4 8.05704 1.32533 8.32904 1.272 8.55304C1.26133 8.62771 1.24 8.74504 1.208 8.90504C1.176 9.05438 1.144 9.21438 1.112 9.38504C1.09067 9.54504 1.06933 9.68371 1.048 9.80104C1.02667 9.90771 1.02133 9.94504 1.032 9.91304C1.02133 9.98771 1.02133 10.057 1.032 10.121C1.04267 10.185 1.06933 10.249 1.112 10.313C1.54933 10.5157 1.99733 10.6064 2.456 10.585C2.91467 10.553 3.36267 10.521 3.8 10.489C3.82133 10.4997 3.896 10.505 4.024 10.505C4.152 10.505 4.28533 10.505 4.424 10.505C4.56267 10.4944 4.65333 10.489 4.696 10.489C4.71733 10.425 4.712 10.377 4.68 10.345C4.65867 10.3024 4.62667 10.265 4.584 10.233C4.49867 10.073 4.44533 9.94504 4.424 9.84904C4.40267 9.75304 4.41333 9.65171 4.456 9.54504C4.49867 9.43838 4.56267 9.28371 4.648 9.08104C4.68 8.93171 4.76533 8.65971 4.904 8.26504C5.04267 7.87038 5.20267 7.41704 5.384 6.90504C5.576 6.39304 5.768 5.88638 5.96 5.38504C6.152 4.87304 6.32267 4.42504 6.472 4.04104C6.62133 3.64638 6.72267 3.37971 6.776 3.24104C6.89333 2.97438 6.984 2.75571 7.048 2.58504C7.112 2.40371 7.16533 2.23304 7.208 2.07304C7.26133 1.90238 7.31467 1.70504 7.368 1.48104L7.48 1.14504C7.56533 1.11304 7.65067 1.10771 7.736 1.12904C7.82133 1.13971 7.90133 1.16104 7.976 1.19304C8.09333 1.22504 8.22133 1.29971 8.36 1.41704C8.49867 1.53438 8.52 1.67304 8.424 1.83304C8.43467 1.82238 8.40267 1.91838 8.328 2.12104C8.25333 2.32371 8.152 2.58504 8.024 2.90504C7.90667 3.22504 7.77333 3.56638 7.624 3.92904C7.48533 4.29171 7.352 4.63838 7.224 4.96904C7.096 5.29971 6.98933 5.57171 6.904 5.78504C6.82933 5.99838 6.78667 6.11038 6.776 6.12104C6.648 6.47304 6.52 6.82504 6.392 7.17704C6.264 7.51838 6.14667 7.86504 6.04 8.21704C5.86933 8.77171 5.72533 9.25171 5.608 9.65704C5.50133 10.0517 5.432 10.2917 5.4 10.377C5.464 10.4197 5.528 10.457 5.592 10.489C5.66667 10.5104 5.74133 10.489 5.816 10.425C6.05067 10.425 6.32267 10.409 6.632 10.377C6.952 10.3344 7.256 10.2917 7.544 10.249C7.84267 10.1957 8.07733 10.153 8.248 10.121C8.41867 10.089 8.472 10.0784 8.408 10.089C8.48267 10.057 8.56267 10.0304 8.648 10.009C8.73333 9.98771 8.81333 9.96104 8.888 9.92904C8.93067 9.81171 8.96267 9.69438 8.984 9.57704C9.016 9.44904 9.05333 9.33171 9.096 9.22504C9.224 8.87304 9.34133 8.51571 9.448 8.15304C9.55467 7.79038 9.688 7.44371 9.848 7.11304C9.90133 6.99571 9.94933 6.87838 9.992 6.76104C10.0453 6.64371 10.088 6.52638 10.12 6.40904C10.1413 6.33438 10.184 6.19571 10.248 5.99304C10.3227 5.77971 10.408 5.55038 10.504 5.30504C10.6 5.04904 10.6853 4.81971 10.76 4.61704C10.8347 4.40371 10.888 4.25971 10.92 4.18504C10.9627 4.06771 11.0373 3.86504 11.144 3.57704C11.2507 3.27838 11.3733 2.94771 11.512 2.58504C11.6507 2.21171 11.7893 1.84904 11.928 1.49704C12.0667 1.13438 12.184 0.825043 12.28 0.569043C12.376 0.313044 12.4347 0.16371 12.456 0.121043C12.6267 0.0890433 12.7813 0.0997098 12.92 0.153043C13.0587 0.206376 13.1973 0.297043 13.336 0.425043C13.368 0.53171 13.3787 0.638377 13.368 0.745043C13.3573 0.85171 13.3253 0.96371 13.272 1.08104C13.08 1.55038 12.872 2.05704 12.648 2.60104C12.4347 3.14504 12.2267 3.68371 12.024 4.21704C11.8213 4.75038 11.6347 5.24104 11.464 5.68904C11.2933 6.16904 11.112 6.64904 10.92 7.12904C10.7387 7.59838 10.5733 8.08371 10.424 8.58504C10.4027 8.62771 10.3653 8.72371 10.312 8.87304C10.2587 9.02238 10.2053 9.18771 10.152 9.36904C10.0987 9.53971 10.0507 9.69438 10.008 9.83304C9.976 9.97171 9.96533 10.0517 9.976 10.073C10.0293 10.1264 10.04 10.1957 10.008 10.281C9.976 10.3557 9.928 10.425 9.864 10.489C9.81067 10.553 9.75733 10.5957 9.704 10.617C9.66133 10.6277 9.61333 10.649 9.56 10.681C9.51733 10.7024 9.46933 10.6917 9.416 10.649C9.05333 10.7877 8.63733 10.8997 8.168 10.985C7.70933 11.0704 7.224 11.1557 6.712 11.241C6.59467 11.2624 6.41867 11.2677 6.184 11.257C5.96 11.257 5.74133 11.257 5.528 11.257C5.32533 11.257 5.18667 11.273 5.112 11.305C5.08 11.3264 4.99467 11.3317 4.856 11.321C4.728 11.3104 4.59467 11.2944 4.456 11.273C4.31733 11.2624 4.21067 11.257 4.136 11.257C3.912 11.257 3.64 11.2624 3.32 11.273C3.01067 11.2944 2.71733 11.3104 2.44 11.321C2.17333 11.3317 1.992 11.337 1.896 11.337Z" fill="#1F170F"/>
</svg>
