<svg width="13" height="14" viewBox="0 0 13 14" fill="none" xmlns="http://www.w3.org/2000/svg">
<path d="M11.9387 3.696C11.8533 3.90933 11.7413 4.192 11.6027 4.544C11.4747 4.896 11.3413 5.264 11.2027 5.648C11.0747 6.02133 10.9627 6.352 10.8667 6.64C10.7707 6.91733 10.712 7.088 10.6907 7.152C10.68 7.248 10.648 7.392 10.5947 7.584C10.5413 7.76533 10.488 7.94667 10.4347 8.128C10.3813 8.30933 10.3387 8.448 10.3067 8.544C10.456 8.544 10.6053 8.52267 10.7547 8.48C10.904 8.43733 11.08 8.416 11.2827 8.416C11.688 8.416 11.912 8.52267 11.9547 8.736C12.008 8.94933 11.944 9.24267 11.7627 9.616C11.688 9.776 11.6187 9.936 11.5547 10.096C11.4907 10.256 11.4107 10.4107 11.3147 10.56C11.2613 10.656 11.176 10.8107 11.0587 11.024C10.952 11.248 10.8293 11.4987 10.6907 11.776C10.5627 12.0533 10.4347 12.3307 10.3067 12.608C10.1893 12.8853 10.088 13.1253 10.0027 13.328C9.96 13.4347 9.912 13.5413 9.85867 13.648C9.80533 13.7653 9.72533 13.8613 9.61867 13.936C9.544 13.9893 9.464 14 9.37867 13.968C9.304 13.9467 9.208 13.9147 9.09067 13.872C8.97333 13.8187 8.89867 13.7493 8.86667 13.664C8.83467 13.5893 8.824 13.4987 8.83467 13.392C8.856 13.2427 8.904 13.0987 8.97867 12.96C9.05333 12.8213 9.11733 12.672 9.17067 12.512L9.87467 11.024C9.896 10.992 9.944 10.8907 10.0187 10.72C10.104 10.56 10.1947 10.3787 10.2907 10.176C10.3973 9.97333 10.488 9.79733 10.5627 9.648C10.6373 9.488 10.6747 9.40267 10.6747 9.392C10.664 9.37067 10.648 9.35467 10.6267 9.344C10.6053 9.33333 10.584 9.33333 10.5627 9.344C10.552 9.35467 10.472 9.376 10.3227 9.408C10.184 9.42933 10.0347 9.45067 9.87467 9.472C9.71467 9.49333 9.60267 9.504 9.53867 9.504L8.78667 9.664C8.616 9.67467 8.408 9.696 8.16267 9.728C7.91733 9.74933 7.73067 9.77067 7.60267 9.792C7.60267 9.792 7.50667 9.80267 7.31467 9.824C7.13333 9.84533 6.90933 9.872 6.64267 9.904C6.38667 9.92533 6.136 9.952 5.89067 9.984C5.64533 10.0053 5.464 10.0213 5.34667 10.032C5.18667 10.064 4.984 10.0747 4.73867 10.064C4.49333 10.0533 4.30133 10.0747 4.16267 10.128C4.13067 10.1387 4.01333 10.1493 3.81067 10.16C3.61867 10.16 3.4 10.16 3.15467 10.16C2.90933 10.16 2.69067 10.16 2.49867 10.16C2.31733 10.16 2.216 10.16 2.19467 10.16C1.896 10.1707 1.624 10.1173 1.37867 10C1.13333 9.88267 0.888 9.744 0.642667 9.584C0.536 9.424 0.429333 9.29067 0.322667 9.184C0.216 9.06667 0.130667 8.93867 0.0666667 8.8C0.0133333 8.65067 -0.00800001 8.45867 0.00266668 8.224C0.0240001 7.776 0.0666667 7.33333 0.130667 6.896C0.194667 6.45867 0.306667 6.02667 0.466667 5.6C0.498667 5.504 0.552 5.34933 0.626667 5.136C0.701333 4.92267 0.776 4.69867 0.850667 4.464C0.936 4.21867 1.00533 4.016 1.05867 3.856C1.112 3.68533 1.13333 3.60533 1.12267 3.616L1.47467 2.688L2.16267 1.056C2.25867 0.746667 2.32267 0.522667 2.35467 0.384C2.38667 0.245333 2.49867 0.117333 2.69067 0C2.84 0.0213331 2.99467 0.0959997 3.15467 0.224C3.32533 0.341333 3.44267 0.442666 3.50667 0.528L3.13867 1.568C3.11733 1.64267 3.06933 1.76533 2.99467 1.936C2.93067 2.10667 2.856 2.288 2.77067 2.48C2.68533 2.672 2.61067 2.84267 2.54667 2.992C2.48267 3.13067 2.44533 3.21067 2.43467 3.232C2.34933 3.36 2.25333 3.56267 2.14667 3.84C2.05067 4.11733 1.94933 4.42133 1.84267 4.752C1.74667 5.08267 1.65067 5.39733 1.55467 5.696C1.46933 5.984 1.39467 6.21867 1.33067 6.4C1.33067 6.67733 1.29333 6.944 1.21867 7.2C1.144 7.44533 1.08533 7.69067 1.04267 7.936C1 8.18133 1.02133 8.42667 1.10667 8.672C1.17067 8.84267 1.256 8.992 1.36267 9.12C1.48 9.23733 1.64 9.30667 1.84267 9.328C2.13067 9.36 2.45067 9.376 2.80267 9.376C3.16533 9.36533 3.49067 9.34933 3.77867 9.328C4.06667 9.296 4.24267 9.26933 4.30667 9.248C4.38133 9.216 4.46133 9.20533 4.54667 9.216C4.632 9.22667 4.712 9.232 4.78667 9.232C4.78667 9.17867 4.81333 9.024 4.86667 8.768C4.92 8.512 4.98933 8.208 5.07467 7.856C5.17067 7.49333 5.26667 7.12533 5.36267 6.752C5.45867 6.37867 5.54933 6.04267 5.63467 5.744C5.72 5.43467 5.78933 5.21067 5.84267 5.072C5.896 4.89067 5.94933 4.704 6.00267 4.512C6.06667 4.32 6.12 4.128 6.16267 3.936C6.19467 3.82933 6.25333 3.648 6.33867 3.392C6.43467 3.12533 6.536 2.84267 6.64267 2.544C6.76 2.24533 6.856 1.984 6.93067 1.76C7.016 1.52533 7.05867 1.38133 7.05867 1.328C7.06933 1.21067 7.10667 1.12533 7.17067 1.072C7.23467 1.01867 7.31467 0.981333 7.41067 0.96C7.56 1.00267 7.704 1.06133 7.84267 1.136C7.992 1.2 8.10933 1.312 8.19467 1.472C8.024 1.84533 7.864 2.224 7.71467 2.608C7.576 2.992 7.448 3.38133 7.33067 3.776C7.21333 4.16 7.12267 4.45867 7.05867 4.672C6.99467 4.87467 6.936 5.06133 6.88267 5.232C6.84 5.392 6.78133 5.616 6.70667 5.904C6.62133 6.192 6.536 6.48533 6.45067 6.784C6.376 7.072 6.296 7.36 6.21067 7.648C6.12533 7.97867 6.05067 8.256 5.98667 8.48C5.93333 8.704 5.90667 8.90667 5.90667 9.088C5.97067 9.09867 6.104 9.104 6.30667 9.104C6.50933 9.09333 6.712 9.07733 6.91467 9.056C7.128 9.03467 7.256 9.01867 7.29867 9.008C7.32 9.008 7.40533 8.99733 7.55467 8.976C7.71467 8.944 7.90133 8.91733 8.11467 8.896C8.328 8.864 8.52533 8.832 8.70667 8.8C8.888 8.768 9.01067 8.74133 9.07467 8.72C9.23467 8.28267 9.37333 7.84533 9.49067 7.408C9.61867 6.96 9.768 6.52267 9.93867 6.096C10.024 5.88267 10.0987 5.67467 10.1627 5.472C10.2267 5.25867 10.296 5.05067 10.3707 4.848C10.4027 4.76267 10.456 4.61333 10.5307 4.4C10.616 4.176 10.7013 3.936 10.7867 3.68C10.8827 3.424 10.9627 3.19467 11.0267 2.992C11.1013 2.78933 11.1493 2.66667 11.1707 2.624C11.192 2.57067 11.2347 2.45333 11.2987 2.272C11.3627 2.08 11.4267 1.89333 11.4907 1.712C11.5653 1.52 11.608 1.39733 11.6187 1.344C11.736 1.25867 11.8373 1.216 11.9227 1.216C12.0187 1.20533 12.1147 1.22667 12.2107 1.28C12.3173 1.33333 12.4453 1.41333 12.5947 1.52C12.6907 1.584 12.728 1.68 12.7067 1.808C12.7067 1.81867 12.6747 1.90933 12.6107 2.08C12.5467 2.24 12.4667 2.432 12.3707 2.656C12.2747 2.88 12.184 3.09333 12.0987 3.296C12.024 3.488 11.9707 3.62133 11.9387 3.696Z" fill="#1F170F"/>
</svg>
