<svg width="11" height="15" viewBox="0 0 11 15" fill="none" xmlns="http://www.w3.org/2000/svg">
<path d="M6.27077 14.932C6.07877 14.8573 5.91877 14.756 5.79077 14.628C5.67344 14.5 5.6361 14.3293 5.67877 14.116C5.67877 14.116 5.72144 14.0147 5.80677 13.812C5.8921 13.62 5.99344 13.38 6.11077 13.092C6.23877 12.7933 6.36144 12.5 6.47877 12.212C6.5961 11.924 6.69744 11.684 6.78277 11.492C6.8681 11.2893 6.91077 11.188 6.91077 11.188C6.98544 10.996 7.08677 10.7347 7.21477 10.404C7.35344 10.0733 7.48677 9.73733 7.61477 9.396C7.75344 9.044 7.87077 8.74 7.96677 8.484C8.06277 8.228 8.11077 8.084 8.11077 8.052C8.2281 7.78533 8.32944 7.51333 8.41477 7.236C8.5001 6.95867 8.60677 6.692 8.73477 6.436C8.83077 6.22267 8.9161 6.03067 8.99077 5.86C9.06544 5.67867 9.10277 5.51867 9.10277 5.38C9.10277 5.38 8.99077 5.49733 8.76677 5.732C8.55344 5.96667 8.26544 6.28133 7.90277 6.676C7.5401 7.06 7.1401 7.48667 6.70277 7.956C6.2761 8.41467 5.8441 8.87867 5.40677 9.348C4.9801 9.81733 4.58544 10.2493 4.22277 10.644C3.8601 11.028 3.56677 11.3373 3.34277 11.572C3.11877 11.8067 3.00677 11.924 3.00677 11.924C2.7721 12.1053 2.55344 12.3027 2.35077 12.516C2.15877 12.7187 1.94544 12.9107 1.71077 13.092C1.61477 13.1667 1.49744 13.2627 1.35877 13.38C1.2201 13.4867 1.08677 13.5827 0.958769 13.668C0.830769 13.764 0.734769 13.812 0.670769 13.812C0.361436 13.7587 0.164103 13.6733 0.0787692 13.556C-0.00656412 13.428 -0.0225641 13.2733 0.0307693 13.092C0.0841026 12.9 0.158769 12.676 0.254769 12.42C0.308103 12.2493 0.356103 12.0787 0.398769 11.908C0.452103 11.7267 0.489436 11.5507 0.510769 11.38C0.585436 11.06 0.665436 10.7613 0.750769 10.484C0.836103 10.2067 0.916103 9.94 0.990769 9.684C1.06544 9.43867 1.1401 9.19333 1.21477 8.948C1.28944 8.692 1.3321 8.43067 1.34277 8.164C1.47077 7.95067 1.57744 7.74267 1.66277 7.54C1.7481 7.32667 1.8281 7.11333 1.90277 6.9C1.97744 6.68667 2.06277 6.47333 2.15877 6.26C2.2761 6.004 2.3721 5.74267 2.44677 5.476C2.5321 5.19867 2.63344 4.92667 2.75077 4.66C2.82544 4.51067 2.92677 4.31333 3.05477 4.068C3.18277 3.82267 3.3001 3.572 3.40677 3.316C3.5241 3.06 3.58277 2.84133 3.58277 2.66C3.58277 2.54267 3.62544 2.47867 3.71077 2.468C3.7961 2.45733 3.8921 2.47333 3.99877 2.516C4.10544 2.55867 4.1961 2.612 4.27077 2.676C4.3561 2.74 4.4041 2.788 4.41477 2.82C4.44677 2.916 4.4681 3.01733 4.47877 3.124C4.5001 3.23067 4.4841 3.34267 4.43077 3.46L3.10277 6.836L1.64677 10.692C1.51877 11.108 1.4441 11.4333 1.42277 11.668C1.4121 11.9027 1.48144 11.9827 1.63077 11.908L4.86277 8.676C5.0441 8.484 5.2201 8.28667 5.39077 8.084C5.5721 7.87067 5.74277 7.66267 5.90277 7.46C5.94544 7.43867 6.0521 7.332 6.22277 7.14C6.4041 6.948 6.6121 6.71867 6.84677 6.452C7.08144 6.18533 7.30544 5.93467 7.51877 5.7C7.7321 5.45467 7.8921 5.27333 7.99877 5.156L10.0308 2.996L10.3348 2.9C10.4308 2.88933 10.5268 2.92133 10.6228 2.996C10.7188 3.07067 10.7881 3.16667 10.8308 3.284C10.8841 3.40133 10.8841 3.524 10.8308 3.652C10.8308 3.652 10.7774 3.79067 10.6708 4.068C10.5748 4.34533 10.4468 4.70267 10.2868 5.14C10.1268 5.56667 9.9561 6.02 9.77477 6.5C9.6041 6.98 9.43877 7.43333 9.27877 7.86C9.11877 8.28667 8.98544 8.63867 8.87877 8.916C8.78277 9.18267 8.72944 9.316 8.71877 9.316C8.72944 9.284 8.6921 9.36933 8.60677 9.572C8.5321 9.77467 8.43077 10.0413 8.30277 10.372C8.17477 10.7027 8.04144 11.044 7.90277 11.396C7.7641 11.7373 7.64144 12.0413 7.53477 12.308C7.43877 12.5747 7.3801 12.7453 7.35877 12.82C7.3161 12.9587 7.26277 13.0973 7.19877 13.236C7.14544 13.364 7.08677 13.492 7.02277 13.62C6.9481 13.7587 6.8841 13.9027 6.83077 14.052C6.7881 14.212 6.75077 14.3667 6.71877 14.516C6.68677 14.6333 6.62277 14.74 6.52677 14.836C6.43077 14.9427 6.34544 14.9747 6.27077 14.932ZM7.15077 2.084C6.7561 2.12667 6.42544 2.03067 6.15877 1.796C5.8921 1.56133 5.6841 1.21467 5.53477 0.756C5.51344 0.670666 5.5081 0.596 5.51877 0.532C5.52944 0.457333 5.55077 0.393333 5.58277 0.339999C5.6041 0.297333 5.6521 0.265333 5.72677 0.244C5.8121 0.211999 5.8761 0.206666 5.91877 0.228C6.08944 0.292 6.21744 0.361333 6.30277 0.436C6.39877 0.510666 6.45744 0.606666 6.47877 0.724C6.51077 0.777333 6.52677 0.830667 6.52677 0.884C6.53744 0.937333 6.54277 0.958667 6.54277 0.948C6.60677 1.11867 6.68677 1.236 6.78277 1.3C6.87877 1.364 7.0281 1.35867 7.23077 1.284C7.4441 1.20933 7.6521 1.124 7.85477 1.028C8.0681 0.932 8.2601 0.814667 8.43077 0.676C8.5801 0.558667 8.71877 0.452 8.84677 0.356C8.97477 0.26 9.1081 0.158667 9.24677 0.0520003L9.26277 0.0359995C9.3161 0.00399995 9.3801 -0.00666658 9.45477 0.00399995C9.52944 0.0146665 9.5721 0.0306666 9.58277 0.0520003C9.6681 0.126667 9.71077 0.201333 9.71077 0.276C9.72144 0.350667 9.72677 0.430667 9.72677 0.516L9.71077 0.548C9.7321 0.612 9.6681 0.734667 9.51877 0.916C9.36944 1.08667 9.19344 1.24133 8.99077 1.38C8.8201 1.49733 8.6281 1.604 8.41477 1.7C8.2121 1.796 8.0041 1.88667 7.79077 1.972C7.7161 2.01467 7.62544 2.04133 7.51877 2.052C7.42277 2.052 7.3001 2.06267 7.15077 2.084Z" fill="#1F170F"/>
</svg>
