<svg width="7" height="12" viewBox="0 0 7 12" fill="none" xmlns="http://www.w3.org/2000/svg">
<path d="M2.764 10.9653C2.52933 11.0507 2.25733 11.0933 1.948 11.0933C1.64933 11.104 1.36667 11.072 1.1 10.9973C0.833333 10.9227 0.636 10.816 0.508 10.6773C0.337333 10.4747 0.204 10.3253 0.108 10.2293C0.012 10.1227 -0.02 10.0107 0.012 9.89333C0.0653334 9.76533 0.108 9.63733 0.14 9.50933C0.172 9.37067 0.209333 9.232 0.252 9.09333C0.241333 9.104 0.278667 8.99733 0.364 8.77333C0.449333 8.53867 0.561333 8.23467 0.7 7.86133C0.838667 7.488 0.982667 7.09333 1.132 6.67733C1.292 6.26133 1.44133 5.872 1.58 5.50933C1.71867 5.136 1.82533 4.84267 1.9 4.62933C1.98533 4.40533 2.02267 4.30933 2.012 4.34133C2.044 4.26667 2.09733 4.128 2.172 3.92533C2.25733 3.712 2.348 3.472 2.444 3.20533C2.55067 2.928 2.652 2.66133 2.748 2.40533C2.85467 2.14933 2.94533 1.93067 3.02 1.74933C3.09467 1.55733 3.14267 1.44533 3.164 1.41333C3.28133 1.15733 3.372 0.922667 3.436 0.709334C3.5 0.496001 3.60133 0.298667 3.74 0.117334C3.78267 0.0640003 3.836 0.0320004 3.9 0.0213339C3.964 2.12342e-07 4.02267 -0.00533337 4.076 0.00533316C4.19333 0.0266669 4.31067 0.0640003 4.428 0.117334C4.54533 0.170667 4.64133 0.266667 4.716 0.405334C4.67333 0.608 4.62533 0.773334 4.572 0.901334C4.51867 1.02933 4.42267 1.20533 4.284 1.42933C4.29467 1.49333 4.284 1.552 4.252 1.60533C4.22 1.65867 4.188 1.70667 4.156 1.74933C4.04933 1.96267 3.916 2.24 3.756 2.58133C3.60667 2.92267 3.47333 3.264 3.356 3.60533C3.47333 3.62667 3.59067 3.648 3.708 3.66933C3.836 3.69067 3.96933 3.728 4.108 3.78133C4.38533 3.888 4.62 3.984 4.812 4.06933C5.004 4.144 5.21733 4.304 5.452 4.54933C5.66533 4.752 5.81467 4.97067 5.9 5.20533C5.996 5.44 6.06533 5.664 6.108 5.87733C6.15067 6.08 6.188 6.25067 6.22 6.38933C6.22 6.592 6.20933 6.8 6.188 7.01333C6.16667 7.22667 6.11333 7.43467 6.028 7.63733C5.81467 8.14933 5.55867 8.61333 5.26 9.02933C4.96133 9.43467 4.57733 9.824 4.108 10.1973C3.852 10.4 3.596 10.576 3.34 10.7253C3.084 10.864 2.892 10.944 2.764 10.9653ZM1.916 10.2293C2.15067 10.144 2.33733 10.0853 2.476 10.0533C2.62533 10.0213 2.76933 9.952 2.908 9.84533C3.11067 9.71733 3.324 9.552 3.548 9.34933C3.772 9.14667 3.97467 8.94933 4.156 8.75733C4.348 8.55467 4.48133 8.4 4.556 8.29333C4.73733 8.00533 4.88667 7.73333 5.004 7.47733C5.132 7.22133 5.20667 6.93867 5.228 6.62933C5.26 6.32 5.21733 5.94133 5.1 5.49333C5.02533 5.20533 4.86533 5.00267 4.62 4.88533C4.492 4.8 4.35333 4.73067 4.204 4.67733C4.06533 4.624 3.916 4.576 3.756 4.53333C3.66 4.512 3.564 4.48533 3.468 4.45333C3.372 4.42133 3.30267 4.34667 3.26 4.22933C3.18533 4.24 3.10533 4.32533 3.02 4.48533C2.93467 4.63467 2.84933 4.816 2.764 5.02933C2.68933 5.232 2.62 5.42933 2.556 5.62133C2.492 5.80267 2.444 5.936 2.412 6.02133C2.38 6.07467 2.332 6.192 2.268 6.37333C2.204 6.55467 2.12933 6.76267 2.044 6.99733C1.95867 7.22133 1.87867 7.44 1.804 7.65333C1.74 7.856 1.68667 8.016 1.644 8.13333C1.63333 8.176 1.596 8.28267 1.532 8.45333C1.47867 8.624 1.42 8.81067 1.356 9.01333C1.30267 9.20533 1.25467 9.37067 1.212 9.50933C1.16933 9.63733 1.15333 9.696 1.164 9.68533C1.15333 9.728 1.148 9.77067 1.148 9.81333C1.148 9.856 1.15867 9.89867 1.18 9.94133C1.29733 9.984 1.42 10.032 1.548 10.0853C1.676 10.128 1.79867 10.176 1.916 10.2293Z" fill="#1F170F"/>
</svg>
