<svg width="8" height="11" viewBox="0 0 8 11" fill="none" xmlns="http://www.w3.org/2000/svg">
<path d="M0.703059 10.848C0.617726 10.848 0.521726 10.7787 0.415059 10.64C0.308392 10.5013 0.260392 10.368 0.271059 10.24C0.281726 10.0693 0.329726 9.824 0.415059 9.504C0.500392 9.184 0.596392 8.85867 0.703059 8.528C0.809725 8.19733 0.905725 7.936 0.991059 7.744C1.03373 7.57333 1.07106 7.424 1.10306 7.296C1.14573 7.15733 1.17239 7.06667 1.18306 7.024C1.21506 6.98133 1.26306 6.86933 1.32706 6.688C1.40173 6.50667 1.46039 6.33067 1.50306 6.16C1.52439 6.07467 1.56706 5.91467 1.63106 5.68C1.70573 5.43467 1.79106 5.152 1.88706 4.832C1.99373 4.512 2.09506 4.19733 2.19106 3.888C2.29773 3.57867 2.38839 3.30667 2.46306 3.072C2.53773 2.83733 2.58573 2.68267 2.60706 2.608C2.69239 2.48 2.75639 2.35733 2.79906 2.24C2.84173 2.12267 2.86839 2.04267 2.87906 2C2.94306 1.95733 2.98039 1.904 2.99106 1.84C3.00173 1.76533 3.00706 1.70667 3.00706 1.664C3.00706 1.61067 3.02306 1.568 3.05506 1.536C3.09773 1.504 3.11906 1.46667 3.11906 1.424C3.16173 1.392 3.18839 1.344 3.19906 1.28C3.20973 1.20533 3.24173 1.14133 3.29506 1.088L3.37506 0.816L4.31906 0.799999C4.29773 0.927999 4.26573 1.088 4.22306 1.28C4.18039 1.46133 4.07906 1.70667 3.91906 2.016C3.86573 2.22933 3.80173 2.42133 3.72706 2.592C3.66306 2.76267 3.63639 2.87467 3.64706 2.928C3.62573 2.94933 3.57773 3.056 3.50306 3.248C3.43906 3.44 3.35906 3.67467 3.26306 3.952C3.17773 4.22933 3.08706 4.50667 2.99106 4.784C2.90573 5.06133 2.82573 5.30667 2.75106 5.52C2.68706 5.72267 2.64439 5.85067 2.62306 5.904C2.53773 6.07467 2.44173 6.32533 2.33506 6.656C2.22839 6.98667 2.06839 7.43467 1.85506 8C1.76973 8.17067 1.66306 8.42667 1.53506 8.768C1.41773 9.10933 1.32173 9.41867 1.24706 9.696C1.12973 10.112 1.04439 10.4 0.991059 10.56C0.948392 10.7307 0.911059 10.8213 0.879059 10.832C0.847059 10.8533 0.788392 10.8587 0.703059 10.848ZM0.831059 1.312C0.532392 1.32267 0.308392 1.30667 0.159059 1.264C0.0203922 1.22133 -0.0276078 1.11467 0.0150588 0.943999C0.0470588 0.816 0.116392 0.72 0.223059 0.655999C0.329725 0.591999 0.484392 0.543999 0.687059 0.511999C0.804392 0.490666 0.953726 0.463999 1.13506 0.431999C1.32706 0.4 1.50839 0.368 1.67906 0.335999C2.03106 0.293333 2.31906 0.256 2.54306 0.224C2.77773 0.192 3.01773 0.165333 3.26306 0.144C3.50839 0.122666 3.81773 0.101333 4.19106 0.0799999C4.50039 0.0586662 4.76173 0.0426661 4.97506 0.0319996C5.19906 0.0106665 5.31106 0 5.31106 0C5.34306 0 5.45506 0.0106665 5.64706 0.0319996C5.83906 0.0533326 6.04706 0.0799993 6.27106 0.112C6.49506 0.144 6.66039 0.181333 6.76706 0.224C7.01239 0.277333 7.18839 0.352 7.29506 0.448C7.41239 0.544 7.49239 0.682666 7.53506 0.863999C7.56706 0.992 7.56706 1.072 7.53506 1.104C7.50306 1.12533 7.44439 1.15733 7.35906 1.2C7.11373 1.27467 6.93239 1.312 6.81506 1.312C6.69773 1.312 6.56439 1.28533 6.41506 1.232C6.36173 1.17867 6.29773 1.13067 6.22306 1.088C6.15906 1.04533 6.04173 1.01333 5.87106 0.992C5.71106 0.959999 5.45506 0.933333 5.10306 0.912C4.80439 0.944 4.54306 0.96 4.31906 0.96C4.09506 0.96 3.98306 0.986667 3.98306 1.04L3.03906 1.088L2.25506 1.168C2.14839 1.17867 1.99906 1.19467 1.80706 1.216C1.61506 1.22667 1.42839 1.24267 1.24706 1.264C1.06573 1.27467 0.927059 1.29067 0.831059 1.312Z" fill="#1F170F"/>
</svg>
