<svg width="10" height="14" viewBox="0 0 10 14" fill="none" xmlns="http://www.w3.org/2000/svg">
<path d="M6.96267 13.648C6.81333 13.68 6.69067 13.6853 6.59467 13.664C6.50933 13.6533 6.42933 13.616 6.35467 13.552C6.29067 13.488 6.2 13.4133 6.08267 13.328C6.04 13.2107 6.04533 13.0933 6.09867 12.976C6.152 12.8693 6.21067 12.752 6.27467 12.624C6.34933 12.5067 6.38667 12.3787 6.38667 12.24C6.38667 12.1867 6.42933 12.0747 6.51467 11.904C6.61067 11.7333 6.712 11.5413 6.81867 11.328C6.936 11.1253 7.02667 10.9547 7.09067 10.816C7.144 10.6987 7.176 10.592 7.18667 10.496C7.19733 10.4 7.18667 10.2987 7.15467 10.192C6.824 10.16 6.488 10.1493 6.14667 10.16C5.816 10.1707 5.608 10.1813 5.52267 10.192C5.096 10.256 4.78133 10.2987 4.57867 10.32C4.38667 10.352 4.25867 10.368 4.19467 10.368C4.14133 10.3787 4.09333 10.3893 4.05067 10.4C3.79467 10.432 3.53867 10.448 3.28267 10.448C3.02667 10.4587 2.76533 10.4587 2.49867 10.448C2.04 10.448 1.60267 10.4 1.18667 10.304C0.866667 10.0907 0.632 9.88267 0.482667 9.68C0.333333 9.46667 0.2 9.22667 0.0826666 8.96C0.04 8.85333 0.0133334 8.752 0.00266668 8.656C-0.00800001 8.56 0.0133333 8.464 0.0666666 8.368C0.109333 8.08 0.178667 7.76 0.274667 7.408C0.370667 7.04533 0.477333 6.688 0.594667 6.336C0.712 5.97333 0.818667 5.65333 0.914667 5.376C1.02133 5.088 1.10133 4.88 1.15467 4.752C1.37867 4.208 1.544 3.76533 1.65067 3.424C1.75733 3.072 1.90133 2.73067 2.08267 2.4C2.18933 2.13333 2.30133 1.87733 2.41867 1.632C2.536 1.376 2.648 1.13067 2.75467 0.896C2.78667 0.821334 2.81867 0.746667 2.85067 0.672C2.88267 0.586666 2.89867 0.501333 2.89867 0.416C2.89867 0.352 2.92533 0.304 2.97867 0.272C3.032 0.229334 3.08533 0.218667 3.13867 0.24C3.27733 0.272 3.39467 0.336 3.49067 0.432C3.59733 0.517334 3.70933 0.618667 3.82667 0.736C3.83733 0.789333 3.832 0.864 3.81067 0.96C3.78933 1.04533 3.752 1.136 3.69867 1.232C3.656 1.28533 3.592 1.40267 3.50667 1.584C3.42133 1.76533 3.33067 1.96267 3.23467 2.176C3.14933 2.38933 3.06933 2.58133 2.99467 2.752C2.93067 2.912 2.89867 3.008 2.89867 3.04C2.856 3.08267 2.78667 3.22667 2.69067 3.472C2.59467 3.70667 2.48267 4.00533 2.35467 4.368C2.22667 4.72 2.09333 5.088 1.95467 5.472C1.82667 5.84533 1.70933 6.19733 1.60267 6.528C1.496 6.848 1.416 7.09867 1.36267 7.28C1.29867 7.49333 1.24 7.70667 1.18667 7.92C1.13333 8.12267 1.08533 8.33067 1.04267 8.544C0.968 8.832 1.00533 9.088 1.15467 9.312C1.19733 9.38667 1.32 9.45067 1.52267 9.504C1.72533 9.54667 1.93867 9.57867 2.16267 9.6C2.38667 9.61067 2.54667 9.60533 2.64267 9.584C2.76 9.56267 2.94667 9.54667 3.20267 9.536C3.46933 9.52533 3.72533 9.50933 3.97067 9.488C4.216 9.46667 4.36533 9.44 4.41867 9.408C4.44 9.39733 4.50933 9.392 4.62667 9.392C4.75467 9.392 4.888 9.392 5.02667 9.392C5.176 9.392 5.288 9.392 5.36267 9.392C5.448 9.24267 5.49067 9.152 5.49067 9.12C5.49067 9.088 5.50667 8.98667 5.53867 8.816C5.56 8.69867 5.60267 8.51733 5.66667 8.272C5.74133 8.02667 5.816 7.776 5.89067 7.52C5.976 7.25333 6.05067 7.03467 6.11467 6.864C6.296 6.37333 6.42933 5.98933 6.51467 5.712C6.61067 5.43467 6.68533 5.216 6.73867 5.056C6.80267 4.88533 6.872 4.736 6.94667 4.608C7.01067 4.352 7.10133 4.112 7.21867 3.888C7.336 3.664 7.43733 3.44 7.52267 3.216C7.55467 3.152 7.61867 3.00267 7.71467 2.768C7.81067 2.53333 7.92267 2.26133 8.05067 1.952C8.18933 1.64267 8.32267 1.344 8.45067 1.056C8.58933 0.757333 8.712 0.512 8.81867 0.32C8.92533 0.117333 9 0.0106665 9.04267 0C9.192 0 9.34133 0.0640001 9.49067 0.192C9.65067 0.32 9.736 0.394667 9.74667 0.416C9.768 0.458667 9.74133 0.570667 9.66667 0.752C9.60267 0.933333 9.51733 1.14667 9.41067 1.392C9.31467 1.62667 9.21867 1.85067 9.12267 2.064C9.03733 2.26667 8.97333 2.41067 8.93067 2.496C8.76 2.86933 8.58933 3.24267 8.41867 3.616C8.25867 3.98933 8.09867 4.36267 7.93867 4.736C7.832 4.97067 7.73067 5.21067 7.63467 5.456C7.54933 5.69067 7.47467 5.92533 7.41067 6.16C7.38933 6.26667 7.33067 6.432 7.23467 6.656C7.14933 6.86933 7.064 7.09333 6.97867 7.328C6.904 7.56267 6.86133 7.76 6.85067 7.92C6.744 8.12267 6.67467 8.336 6.64267 8.56C6.62133 8.77333 6.568 8.98133 6.48267 9.184C6.57867 9.25867 6.65333 9.296 6.70667 9.296C6.76 9.296 6.84 9.29067 6.94667 9.28C7.064 9.26933 7.18133 9.28533 7.29867 9.328C7.416 9.36 7.53333 9.39733 7.65067 9.44C7.98133 9.54667 8.16267 9.792 8.19467 10.176C8.248 10.56 8.18933 10.9333 8.01867 11.296C7.95467 11.4453 7.89067 11.5893 7.82667 11.728C7.76267 11.8667 7.688 12 7.60267 12.128C7.53867 12.2347 7.49067 12.3307 7.45867 12.416C7.43733 12.512 7.416 12.5973 7.39467 12.672C7.384 12.7467 7.368 12.8053 7.34667 12.848C7.32533 12.8907 7.29333 12.9173 7.25067 12.928C7.208 13.056 7.16 13.1787 7.10667 13.296C7.05333 13.4133 7.00533 13.5307 6.96267 13.648Z" fill="#1F170F"/>
</svg>
