<svg width="8" height="12" viewBox="0 0 8 12" fill="none" xmlns="http://www.w3.org/2000/svg">
<path d="M7.1296 0.421819C7.31093 0.464485 7.44427 0.571151 7.5296 0.741818C7.6256 0.901818 7.64693 1.07248 7.5936 1.25382C7.57227 1.32848 7.54027 1.40848 7.4976 1.49382C7.4656 1.56849 7.4336 1.65382 7.4016 1.74982C7.32693 1.88848 7.23093 2.10182 7.1136 2.38982C6.99627 2.66715 6.86827 2.96582 6.7296 3.28582C6.6016 3.59515 6.48427 3.87248 6.3776 4.11782C6.27093 4.36315 6.19627 4.52315 6.1536 4.59782C6.04693 4.81115 5.93493 5.02449 5.8176 5.23782C5.70027 5.45115 5.5776 5.66449 5.4496 5.87782C5.27893 6.18715 5.0976 6.49649 4.9056 6.80582C4.7136 7.11515 4.51627 7.42449 4.3136 7.73382C4.2496 7.84049 4.13227 8.01115 3.9616 8.24582C3.8016 8.46982 3.63627 8.69382 3.4656 8.91782C3.29493 9.13115 3.16693 9.28582 3.0816 9.38182C2.8896 9.66982 2.67093 9.94182 2.4256 10.1978C2.19093 10.4432 1.95093 10.6885 1.7056 10.9338C1.62027 11.0298 1.5296 11.1258 1.4336 11.2218C1.3376 11.3178 1.2416 11.4138 1.1456 11.5098C1.06027 11.6165 0.964267 11.7178 0.8576 11.8138C0.708267 11.9952 0.526933 12.0218 0.3136 11.8938C0.206933 11.8298 0.1216 11.7605 0.0576 11.6858C-0.00639997 11.6112 -0.0170667 11.5152 0.0255999 11.3978C0.0362666 11.3658 0.1056 11.2858 0.2336 11.1578C0.3616 11.0192 0.5056 10.8645 0.6656 10.6938C0.836267 10.5232 0.990933 10.3685 1.1296 10.2298C1.27893 10.0805 1.38027 9.98448 1.4336 9.94182C1.58293 9.77115 1.7376 9.60049 1.8976 9.42982C2.0576 9.24849 2.20693 9.05115 2.3456 8.83782C2.0896 8.62448 1.88693 8.37915 1.7376 8.10182C1.59893 7.82448 1.48693 7.53649 1.4016 7.23782C1.38027 7.14182 1.34827 7.05115 1.3056 6.96582C1.2736 6.88049 1.26293 6.78982 1.2736 6.69382L1.0016 5.28582C1.0336 5.20049 1.03893 5.11515 1.0176 5.02982C0.996267 4.94449 0.980267 4.85915 0.9696 4.77382L0.9216 1.98982C0.9216 2.02182 0.9216 1.98448 0.9216 1.87782C0.932267 1.76049 0.942933 1.61648 0.9536 1.44582C0.964267 1.26449 0.974933 1.09382 0.9856 0.933818C1.00693 0.773818 1.02293 0.661818 1.0336 0.597818C1.04427 0.533819 1.04427 0.453819 1.0336 0.357819C1.0336 0.261819 1.0496 0.181818 1.0816 0.117818C1.12427 0.0431515 1.1936 0.00581836 1.2896 0.00581836C1.43893 -0.0155153 1.5776 0.0218178 1.7056 0.117818C1.8336 0.213818 1.9296 0.320485 1.9936 0.437819C2.06827 0.555152 2.08427 0.645818 2.0416 0.709818C1.9776 0.827152 1.95093 0.949818 1.9616 1.07782C1.97227 1.20582 1.96693 1.32848 1.9456 1.44582C1.93493 1.53115 1.92427 1.69648 1.9136 1.94182C1.90293 2.17649 1.89227 2.44315 1.8816 2.74182C1.87093 3.02982 1.8656 3.31249 1.8656 3.58982C1.8656 3.85649 1.87093 4.06449 1.8816 4.21382C1.87093 4.12849 1.87093 4.14982 1.8816 4.27782C1.89227 4.39515 1.90827 4.55515 1.9296 4.75782C1.95093 4.96049 1.97227 5.15249 1.9936 5.33382C2.01493 5.51515 2.03093 5.62715 2.0416 5.66982C2.0416 5.80849 2.06827 6.00049 2.1216 6.24582C2.17493 6.48049 2.24427 6.73115 2.3296 6.99782C2.41493 7.26449 2.50027 7.50982 2.5856 7.73382C2.67093 7.95782 2.7456 8.13382 2.8096 8.26182L3.0336 7.98982C3.1296 7.84049 3.23093 7.70715 3.3376 7.58982C3.44427 7.46182 3.5296 7.32315 3.5936 7.17382C3.67893 6.98182 3.78027 6.80049 3.8976 6.62982C4.01493 6.45915 4.1216 6.28315 4.2176 6.10182C4.3136 5.90982 4.42027 5.72849 4.5376 5.55782C4.65493 5.37649 4.75627 5.19515 4.8416 5.01382L5.8816 3.04582C5.98827 2.70448 6.1216 2.30982 6.2816 1.86182C6.45227 1.41382 6.56427 0.992485 6.6176 0.597818C6.6496 0.480485 6.71893 0.421819 6.8256 0.421819C6.87893 0.421819 6.93227 0.416485 6.9856 0.405818C7.03893 0.395151 7.08693 0.400485 7.1296 0.421819Z" fill="#1F170F"/>
</svg>
