<svg width="8" height="12" viewBox="0 0 8 12" fill="none" xmlns="http://www.w3.org/2000/svg">
<path d="M1.95733 11.616C1.49867 11.3173 1.18933 11.056 1.02933 10.832C0.869333 10.6187 0.933333 10.4213 1.22133 10.24C1.28533 10.1973 1.38667 10.2347 1.52533 10.352C1.67467 10.4587 1.79733 10.56 1.89333 10.656C2.10667 10.848 2.368 10.9653 2.67733 11.008C2.99733 11.0613 3.35467 11.0347 3.74933 10.928C4.19733 10.7893 4.58667 10.5973 4.91733 10.352C5.25867 10.096 5.57867 9.78667 5.87733 9.424C6.10133 9.136 6.256 8.82667 6.34133 8.496C6.42667 8.15467 6.45867 7.84 6.43733 7.552C6.42667 7.264 6.368 7.06133 6.26133 6.944C5.99467 6.57067 5.62133 6.31467 5.14133 6.176C4.672 6.02667 4.11733 6.03733 3.47733 6.208C3.40267 6.21867 3.29067 6.24 3.14133 6.272C2.992 6.304 2.85867 6.336 2.74133 6.368C2.624 6.38933 2.56 6.4 2.54933 6.4C2.47467 6.42133 2.416 6.448 2.37333 6.48C2.33067 6.50133 2.27733 6.58133 2.21333 6.72C2.16 6.848 2.07467 7.08267 1.95733 7.424C1.84 7.75467 1.664 8.24533 1.42933 8.896C1.20533 9.54667 1.024 10.0107 0.885333 10.288C0.757333 10.5547 0.64 10.6773 0.533333 10.656C0.437333 10.624 0.314667 10.5067 0.165333 10.304C0.08 10.1547 0.0266666 10.0107 0.00533335 9.872C-0.016 9.72267 0.0266666 9.552 0.133333 9.36C0.186667 9.264 0.229333 9.17867 0.261333 9.104C0.293333 9.01867 0.336 8.87467 0.389333 8.672C0.442667 8.512 0.544 8.23467 0.693333 7.84C0.853333 7.43467 1.04 6.96533 1.25333 6.432C1.46667 5.888 1.69067 5.328 1.92533 4.752C2.16 4.176 2.384 3.632 2.59733 3.12C2.82133 2.608 3.008 2.176 3.15733 1.824C3.30667 1.49333 3.39733 1.25333 3.42933 1.104C3.46133 0.954667 3.45067 0.874667 3.39733 0.864C3.39733 0.810667 3.38133 0.762667 3.34933 0.72C3.31733 0.666667 3.30667 0.618667 3.31733 0.576C3.31733 0.533333 3.38667 0.474667 3.52533 0.4C3.67467 0.325333 3.83467 0.256 4.00533 0.192C4.18667 0.128 4.32533 0.106667 4.42133 0.128C4.47467 0.128 4.53867 0.128 4.61333 0.128C4.688 0.117333 4.72533 0.0906665 4.72533 0.0480003C4.75733 0.0480003 4.85867 0.0373335 5.02933 0.0159998C5.2 -0.00533327 5.38667 -0.00533327 5.58933 0.0159998C6.304 0.0799996 6.85867 0.288 7.25333 0.64C7.648 0.981334 7.84 1.45067 7.82933 2.048C7.81867 2.22933 7.72267 2.47467 7.54133 2.784C7.37067 3.09333 7.15733 3.40267 6.90133 3.712C6.656 4.02133 6.416 4.28267 6.18133 4.496C6.04267 4.61333 5.89333 4.736 5.73333 4.864C5.584 4.98133 5.45067 5.08267 5.33333 5.168C5.22667 5.24267 5.17333 5.28 5.17333 5.28C5.17333 5.28 5.216 5.296 5.30133 5.328C5.38667 5.36 5.47733 5.392 5.57333 5.424C6.064 5.60533 6.46933 5.83467 6.78933 6.112C7.10933 6.38933 7.328 6.77333 7.44533 7.264C7.488 7.424 7.488 7.62133 7.44533 7.856C7.41333 8.09067 7.36533 8.32533 7.30133 8.56C7.23733 8.784 7.168 8.976 7.09333 9.136C7.01867 9.21067 6.96 9.29067 6.91733 9.376C6.87467 9.45067 6.85333 9.488 6.85333 9.488C6.85333 9.50933 6.81067 9.59467 6.72533 9.744C6.64 9.88267 6.53867 10.0373 6.42133 10.208C6.304 10.3787 6.192 10.528 6.08533 10.656C5.97867 10.7413 5.85067 10.8427 5.70133 10.96C5.56267 11.0773 5.40267 11.1893 5.22133 11.296C5.05067 11.4027 4.864 11.4933 4.66133 11.568C4.36267 11.696 4.03733 11.7813 3.68533 11.824C3.344 11.8773 3.01867 11.8827 2.70933 11.84C2.4 11.808 2.14933 11.7333 1.95733 11.616ZM2.74133 5.456C2.74133 5.456 2.83733 5.44 3.02933 5.408C3.232 5.36533 3.45067 5.32267 3.68533 5.28C3.92 5.22667 4.09067 5.17867 4.19733 5.136C4.25067 5.104 4.32533 5.06133 4.42133 5.008C4.528 4.95467 4.63467 4.87467 4.74133 4.768C4.89067 4.62933 5.07733 4.432 5.30133 4.176C5.536 3.90933 5.76533 3.632 5.98933 3.344C6.21333 3.04533 6.384 2.77867 6.50133 2.544C6.74667 2.16 6.88 1.87733 6.90133 1.696C6.92267 1.504 6.864 1.33867 6.72533 1.2C6.62933 1.08267 6.464 1.008 6.22933 0.976C6.00533 0.933333 5.76533 0.922667 5.50933 0.944C5.25333 0.954667 5.03467 0.986667 4.85333 1.04C4.71467 1.08267 4.608 1.136 4.53333 1.2C4.45867 1.25333 4.42133 1.33867 4.42133 1.456C4.42133 1.552 4.38933 1.648 4.32533 1.744C4.272 1.82933 4.21867 1.89867 4.16533 1.952C4.15467 2.02667 4.128 2.096 4.08533 2.16C4.04267 2.21333 4.02133 2.24 4.02133 2.24C4.02133 2.28267 3.94667 2.45867 3.79733 2.768C3.648 3.07733 3.49867 3.43467 3.34933 3.84C3.15733 4.29867 3.008 4.672 2.90133 4.96C2.79467 5.23733 2.74133 5.40267 2.74133 5.456Z" fill="#1F170F"/>
</svg>
