<svg width="10" height="13" viewBox="0 0 10 13" fill="none" xmlns="http://www.w3.org/2000/svg">
<path d="M8.112 4.272C8.144 4.208 8.144 4.22933 8.112 4.336C8.08 4.432 8.032 4.576 7.968 4.768C7.904 4.96 7.83467 5.16267 7.76 5.376C7.696 5.58933 7.64267 5.78133 7.6 5.952C7.55733 6.112 7.536 6.21333 7.536 6.256C7.536 6.33067 7.50933 6.39467 7.456 6.448C7.41333 6.50133 7.376 6.56 7.344 6.624C7.36533 6.72 7.34933 6.87467 7.296 7.088C7.25333 7.29067 7.2 7.49867 7.136 7.712C7.08267 7.91467 7.03467 8.08 6.992 8.208C6.97067 8.304 6.928 8.48 6.864 8.736C6.81067 8.992 6.74667 9.27467 6.672 9.584C6.608 9.89333 6.54933 10.176 6.496 10.432C6.45333 10.6773 6.42667 10.8373 6.416 10.912C6.416 10.976 6.4 11.04 6.368 11.104C6.336 11.168 6.34667 11.232 6.4 11.296C6.368 11.3707 6.33067 11.4613 6.288 11.568C6.256 11.6747 6.24533 11.76 6.256 11.824C6.256 12.0693 6.19733 12.1973 6.08 12.208C5.96267 12.2293 5.81333 12.24 5.632 12.24C5.55733 12.1653 5.47733 12.0853 5.392 12C5.30667 11.9147 5.22133 11.8347 5.136 11.76C5.15733 11.5253 5.19467 11.28 5.248 11.024C5.30133 10.768 5.328 10.5867 5.328 10.48C5.328 10.4907 5.344 10.416 5.376 10.256C5.41867 10.096 5.456 9.90933 5.488 9.696C5.52 9.472 5.53067 9.28 5.52 9.12C5.57333 9.09867 5.62667 9.06133 5.68 9.008C5.73333 8.944 5.76533 8.88 5.776 8.816L5.968 7.936C5.98933 7.92533 6.02133 7.84533 6.064 7.696C6.10667 7.536 6.15467 7.35467 6.208 7.152C6.26133 6.94933 6.304 6.768 6.336 6.608C6.37867 6.43733 6.40533 6.34133 6.416 6.32C6.39467 6.288 6.368 6.272 6.336 6.272C6.304 6.272 6.27733 6.28267 6.256 6.304C6.16 6.368 6.05867 6.42667 5.952 6.48C5.856 6.52267 5.78133 6.55467 5.728 6.576C5.55733 6.87467 5.35467 7.15733 5.12 7.424C4.88533 7.68 4.69867 7.92533 4.56 8.16C4.51733 8.224 4.39467 8.35733 4.192 8.56C4 8.76267 3.76 8.99733 3.472 9.264C3.19467 9.53067 2.912 9.80267 2.624 10.08C2.336 10.3467 2.07467 10.592 1.84 10.816C1.60533 11.0293 1.43467 11.1893 1.328 11.296C1.22133 11.4027 1.09867 11.488 0.96 11.552C0.832 11.6267 0.682667 11.68 0.512 11.712C0.373333 11.6053 0.272 11.5253 0.208 11.472C0.154667 11.4187 0.117333 11.3547 0.096 11.28C0.0746667 11.216 0.0426667 11.12 0 10.992C0.0213333 10.96 0.0426666 10.9333 0.064 10.912C0.096 10.88 0.122667 10.848 0.144 10.816C0.176 10.784 0.208 10.7573 0.24 10.736C0.325333 10.6827 0.464 10.576 0.656 10.416C0.858667 10.256 1.072 10.0747 1.296 9.872C1.52 9.66933 1.72267 9.488 1.904 9.328C2.08533 9.168 2.20267 9.06133 2.256 9.008L3.088 8.176C3.312 7.952 3.472 7.792 3.568 7.696C3.664 7.6 3.74933 7.50933 3.824 7.424C3.90933 7.328 4.03733 7.168 4.208 6.944C3.97333 6.88 3.72267 6.784 3.456 6.656C3.18933 6.528 3.00267 6.40533 2.896 6.288C2.58667 5.936 2.39467 5.552 2.32 5.136C2.24533 4.72 2.24 4.32 2.304 3.936C2.37867 3.54133 2.46933 3.22133 2.576 2.976C2.68267 2.67733 2.78933 2.45867 2.896 2.32C3.00267 2.18133 3.12 2.05867 3.248 1.952C3.376 1.83467 3.52 1.68 3.68 1.488C3.936 1.22133 4.208 1.008 4.496 0.848001C4.79467 0.688001 5.104 0.554667 5.424 0.448C5.744 0.341333 6.05867 0.229334 6.368 0.112C6.368 0.112 6.44267 0.106667 6.592 0.0960007C6.74133 0.074667 6.912 0.0586669 7.104 0.0480003C7.30667 0.0373338 7.488 0.0266673 7.648 0.0160007C7.808 0.00533358 7.89333 0 7.904 0C8.08533 0.074667 8.18133 0.122667 8.192 0.144C8.20267 0.165334 8.26133 0.208001 8.368 0.272L8.672 0.0160007C8.78933 0.0800006 8.93333 0.16 9.104 0.256001C9.28533 0.352001 9.39733 0.517334 9.44 0.752001C9.28 1.14667 9.14133 1.48267 9.024 1.76C8.91733 2.02667 8.816 2.27733 8.72 2.512C8.63467 2.74667 8.544 3.00267 8.448 3.28C8.352 3.54667 8.24 3.87733 8.112 4.272ZM6.784 5.104C6.80533 5.04 6.848 4.91733 6.912 4.736C6.976 4.544 7.04533 4.33067 7.12 4.096C7.20533 3.85067 7.28533 3.62667 7.36 3.424C7.43467 3.21067 7.49333 3.04533 7.536 2.928C7.57867 2.81067 7.58933 2.784 7.568 2.848C7.62133 2.656 7.67467 2.496 7.728 2.368C7.78133 2.22933 7.84 2.064 7.904 1.872C7.97867 1.68 8.064 1.408 8.16 1.056C8.08533 0.938667 7.92 0.885333 7.664 0.896C7.408 0.906667 7.15733 0.938667 6.912 0.992001C6.51733 1.06667 6.08533 1.216 5.616 1.44C5.15733 1.65333 4.736 1.93067 4.352 2.272C3.968 2.61333 3.68533 2.99733 3.504 3.424C3.41867 3.63733 3.344 3.85067 3.28 4.064C3.22667 4.27733 3.20533 4.50667 3.216 4.752C3.216 5.02933 3.25333 5.23733 3.328 5.376C3.40267 5.504 3.46133 5.65867 3.504 5.84C3.52533 5.91467 3.62133 5.97867 3.792 6.032C3.96267 6.07467 4.128 6.07467 4.288 6.032C4.53333 5.94667 4.784 5.86667 5.04 5.792C5.296 5.71733 5.54667 5.6 5.792 5.44C5.93067 5.36533 6.07467 5.33333 6.224 5.344C6.384 5.344 6.52267 5.40267 6.64 5.52C6.68267 5.41333 6.71467 5.33333 6.736 5.28C6.75733 5.216 6.77333 5.15733 6.784 5.104Z" fill="#1F170F"/>
</svg>
