<svg width="9" height="11" viewBox="0 0 9 11" fill="none" xmlns="http://www.w3.org/2000/svg">
<path d="M2.384 10.8747C2.05333 10.8533 1.76 10.752 1.504 10.5707C1.25867 10.3893 0.997333 10.2027 0.72 10.0107C0.538667 9.82933 0.394667 9.63733 0.288 9.43467C0.181333 9.22133 0.096 8.944 0.032 8.60267C-0.0106667 8.4 -0.0106667 8.144 0.032 7.83467C0.0746667 7.52533 0.144 7.216 0.24 6.90667C0.336 6.58667 0.426667 6.33067 0.512 6.13867C0.64 5.84 0.8 5.52 0.992 5.17867C1.19467 4.82667 1.392 4.496 1.584 4.18667C1.78667 3.86667 1.94667 3.61067 2.064 3.41867C2.13867 3.344 2.17067 3.30667 2.16 3.30667C2.16 3.296 2.16 3.29067 2.16 3.29067C2.16 3.23733 2.21333 3.104 2.32 2.89067C2.43733 2.66667 2.53867 2.46933 2.624 2.29867C2.784 2.128 2.87467 1.98933 2.896 1.88267C2.91733 1.776 2.90133 1.69067 2.848 1.62667C2.82667 1.584 2.864 1.50933 2.96 1.40267C3.056 1.296 3.2 1.17333 3.392 1.03467C3.584 0.896 3.80267 0.757333 4.048 0.618666C4.304 0.416 4.54933 0.309333 4.784 0.298667C5.02933 0.277333 5.17333 0.325333 5.216 0.442667C5.216 0.474667 5.27467 0.485333 5.392 0.474666C5.52 0.453333 5.664 0.426667 5.824 0.394666C5.99467 0.352 6.144 0.32 6.272 0.298667C6.32533 0.234667 6.448 0.186667 6.64 0.154667C6.84267 0.112 7.07733 0.0746663 7.344 0.0426661C7.48267 0.0533333 7.616 0.0586669 7.744 0.0586669C7.88267 0.0479997 7.99467 0.0373329 8.08 0.0266663C8.176 0.0159998 8.224 0.0106665 8.224 0.0106665C8.29867 -0.0106665 8.384 0 8.48 0.0426661C8.58667 0.0853329 8.68267 0.202666 8.768 0.394666C8.84267 0.586666 8.816 0.730666 8.688 0.826667C8.57067 0.922667 8.29333 0.997333 7.856 1.05067C7.536 1.09333 7.25867 1.13067 7.024 1.16267C6.78933 1.184 6.544 1.216 6.288 1.25867C6.032 1.29067 5.71733 1.34933 5.344 1.43467C5.07733 1.488 4.85867 1.552 4.688 1.62667C4.51733 1.69067 4.368 1.792 4.24 1.93067C4.112 2.05867 3.968 2.24533 3.808 2.49067C3.73333 2.544 3.63733 2.68267 3.52 2.90667C3.40267 3.13067 3.28533 3.35467 3.168 3.57867C2.86933 3.99467 2.608 4.35733 2.384 4.66667C2.17067 4.96533 2.08533 5.14133 2.128 5.19467C2.128 5.19467 2.18667 5.21067 2.304 5.24267C2.42133 5.27467 2.50133 5.29067 2.544 5.29067C2.65067 5.23733 2.77867 5.2 2.928 5.17867C3.088 5.15733 3.216 5.136 3.312 5.11467C3.97333 4.944 4.49067 4.81067 4.864 4.71467C5.248 4.61867 5.536 4.54933 5.728 4.50667C5.93067 4.45333 6.08533 4.42133 6.192 4.41067C6.34133 4.29333 6.48533 4.272 6.624 4.34667C6.77333 4.42133 6.89067 4.53867 6.976 4.69867C7.02933 4.816 7.02933 4.91733 6.976 5.00267C6.93333 5.088 6.8 5.17333 6.576 5.25867C6.36267 5.344 6.04267 5.44533 5.616 5.56267C5.18933 5.68 4.62933 5.83467 3.936 6.02667C3.34933 6.19733 2.848 6.29867 2.432 6.33067C2.016 6.36267 1.81867 6.272 1.84 6.05867C1.76533 6.016 1.68 6.06933 1.584 6.21867C1.49867 6.35733 1.41333 6.54933 1.328 6.79467C1.24267 7.04 1.168 7.30133 1.104 7.57867C1.05067 7.856 1.01333 8.11733 0.992 8.36267C0.981333 8.59733 0.997333 8.77333 1.04 8.89067C1.12533 9.136 1.23733 9.33333 1.376 9.48267C1.51467 9.62133 1.76533 9.744 2.128 9.85067C2.34133 9.86133 2.54933 9.87733 2.752 9.89867C2.95467 9.92 3.184 9.87733 3.44 9.77067C4.06933 9.664 4.56533 9.552 4.928 9.43467C5.29067 9.31733 5.49867 9.23733 5.552 9.19467C5.63733 9.152 5.69067 9.13067 5.712 9.13067C5.744 9.12 5.78667 9.11467 5.84 9.11467C5.808 9.168 5.81867 9.17333 5.872 9.13067C5.936 9.07733 6.02133 8.99733 6.128 8.89067C6.24533 8.784 6.4 8.68267 6.592 8.58667C6.784 8.49067 6.95467 8.416 7.104 8.36267C7.264 8.30933 7.34933 8.30933 7.36 8.36267C7.424 8.46933 7.41333 8.61867 7.328 8.81067C7.24267 8.992 7.088 9.19467 6.864 9.41867C6.64 9.632 6.352 9.84 6 10.0427C5.43467 10.3413 4.82133 10.5493 4.16 10.6667C3.49867 10.7947 2.90667 10.864 2.384 10.8747Z" fill="#1F170F"/>
</svg>
