<svg width="12" height="12" viewBox="0 0 12 12" fill="none" xmlns="http://www.w3.org/2000/svg">
<path d="M2.256 11.36C2.11733 11.392 1.984 11.4027 1.856 11.392C1.728 11.3707 1.6 11.3493 1.472 11.328C1.23733 11.2747 0.992 11.1787 0.736 11.04C0.48 10.9013 0.234667 10.7147 0 10.48C0 10.192 0.0373333 9.904 0.112 9.616C0.197333 9.31733 0.282667 8.992 0.368 8.64C0.485333 8.224 0.592 7.88267 0.688 7.616C0.784 7.33867 0.901333 7.04 1.04 6.72C1.168 6.34667 1.30133 5.984 1.44 5.632C1.57867 5.26933 1.72267 4.90667 1.872 4.544C1.97867 4.29867 2.08533 4.05333 2.192 3.808C2.30933 3.552 2.42133 3.296 2.528 3.04C2.624 2.82667 2.73067 2.60267 2.848 2.368C2.976 2.12267 3.09333 1.89867 3.2 1.696C3.31733 1.48267 3.40267 1.32267 3.456 1.216C3.52 1.088 3.584 0.96 3.648 0.832C3.712 0.704 3.76533 0.570666 3.808 0.431999C3.82933 0.282666 3.87733 0.186666 3.952 0.144C4.02667 0.101333 4.09067 0.0533333 4.144 0C4.304 0.0106665 4.43733 0.0586665 4.544 0.144C4.66133 0.229333 4.77333 0.314666 4.88 0.4C4.88 0.559999 4.88 0.687999 4.88 0.783999C4.88 0.879999 4.83733 0.986666 4.752 1.104C4.48533 1.56267 4.28267 1.91467 4.144 2.16C4.016 2.39467 3.92533 2.56533 3.872 2.672C3.82933 2.768 3.79733 2.84267 3.776 2.896C3.75467 2.94933 3.72267 3.024 3.68 3.12C3.63733 3.20533 3.55733 3.35467 3.44 3.568C3.83467 3.6 4.208 3.73333 4.56 3.968C4.92267 4.20267 5.24267 4.47467 5.52 4.784C5.808 5.08267 6.03733 5.36533 6.208 5.632C6.464 6.03733 6.58667 6.464 6.576 6.912C6.576 7.34933 6.50133 7.76533 6.352 8.16C6.21333 8.544 6.05333 8.85867 5.872 9.104C5.79733 9.21067 5.65333 9.36533 5.44 9.568C5.22667 9.77067 4.98133 9.984 4.704 10.208C4.42667 10.432 4.13867 10.6347 3.84 10.816C3.552 10.9973 3.28 11.12 3.024 11.184L2.256 11.36ZM8.336 11.104C8.22933 11.1467 8.11733 11.1627 8 11.152C7.88267 11.1413 7.71733 11.0987 7.504 11.024C7.42933 10.928 7.38667 10.832 7.376 10.736C7.36533 10.6293 7.37067 10.512 7.392 10.384C7.424 10.2453 7.488 10.016 7.584 9.696C7.68 9.376 7.79733 9.00267 7.936 8.576C8.08533 8.14933 8.24 7.70667 8.4 7.248C8.56 6.78933 8.71467 6.35733 8.864 5.952C9.01333 5.54667 9.14133 5.20533 9.248 4.928C9.36533 4.64 9.45067 4.464 9.504 4.4C9.57867 4.29333 9.62667 4.16533 9.648 4.016C9.65867 3.96267 9.696 3.84533 9.76 3.664C9.824 3.48267 9.89867 3.28 9.984 3.056C10.08 2.82133 10.1653 2.60267 10.24 2.4C10.3253 2.19733 10.3893 2.04267 10.432 1.936C10.464 1.84 10.4907 1.73867 10.512 1.632C10.544 1.52533 10.5707 1.424 10.592 1.328C10.816 1.18933 11.008 1.14667 11.168 1.2C11.328 1.25333 11.4933 1.38667 11.664 1.6C11.696 1.71733 11.68 1.86133 11.616 2.032C11.5627 2.20267 11.52 2.336 11.488 2.432C11.392 2.688 11.2907 2.944 11.184 3.2C11.088 3.44533 10.9813 3.69067 10.864 3.936C10.8213 4.05333 10.7467 4.23467 10.64 4.48C10.544 4.72533 10.4373 4.98667 10.32 5.264C10.2027 5.54133 10.0907 5.80267 9.984 6.048C9.888 6.28267 9.81867 6.448 9.776 6.544C9.76533 6.576 9.728 6.68267 9.664 6.864C9.6 7.03467 9.52533 7.23733 9.44 7.472C9.35467 7.70667 9.27467 7.92533 9.2 8.128C9.136 8.33067 9.09333 8.47467 9.072 8.56C8.976 8.83733 8.89067 9.104 8.816 9.36C8.752 9.60533 8.69333 9.84 8.64 10.064C8.58667 10.2773 8.53333 10.4747 8.48 10.656C8.43733 10.8267 8.38933 10.976 8.336 11.104ZM1.76 10.384C1.99467 10.4267 2.272 10.384 2.592 10.256C2.92267 10.128 3.20533 9.97867 3.44 9.808C3.58933 9.712 3.77067 9.584 3.984 9.424C4.208 9.25333 4.42133 9.06667 4.624 8.864C4.83733 8.65067 5.00267 8.43733 5.12 8.224C5.25867 7.98933 5.36533 7.74933 5.44 7.504C5.52533 7.248 5.55733 6.98667 5.536 6.72C5.536 6.35733 5.49333 6.06933 5.408 5.856C5.33333 5.632 5.17333 5.38133 4.928 5.104C4.82133 4.96533 4.66133 4.83733 4.448 4.72C4.23467 4.60267 4.01067 4.496 3.776 4.4C3.552 4.29333 3.35467 4.208 3.184 4.144C3.088 4.35733 3.01333 4.52267 2.96 4.64C2.91733 4.75733 2.85333 4.93333 2.768 5.168C2.736 5.22133 2.68267 5.33867 2.608 5.52C2.544 5.70133 2.46933 5.89867 2.384 6.112C2.29867 6.31467 2.224 6.496 2.16 6.656C2.10667 6.816 2.07467 6.90667 2.064 6.928C1.91467 7.41867 1.75467 7.93067 1.584 8.464C1.424 8.98667 1.28 9.536 1.152 10.112C1.23733 10.1867 1.33333 10.2453 1.44 10.288C1.54667 10.32 1.65333 10.352 1.76 10.384Z" fill="#1F170F"/>
</svg>
