<svg width="9" height="14" viewBox="0 0 9 14" fill="none" xmlns="http://www.w3.org/2000/svg">
<path d="M2.384 13.8144C2.05333 13.7931 1.76 13.6917 1.504 13.5104C1.25867 13.3291 0.997333 13.1424 0.72 12.9504C0.538667 12.7691 0.394667 12.5771 0.288 12.3744C0.181333 12.1611 0.096 11.8837 0.032 11.5424C-0.0106667 11.3397 -0.0106667 11.0837 0.032 10.7744C0.0746667 10.4651 0.144 10.1557 0.24 9.8464C0.336 9.5264 0.426667 9.2704 0.512 9.0784C0.64 8.77973 0.8 8.45973 0.992 8.1184C1.19467 7.7664 1.392 7.43573 1.584 7.1264C1.78667 6.8064 1.94667 6.5504 2.064 6.3584C2.13867 6.28373 2.17067 6.2464 2.16 6.2464C2.16 6.23573 2.16 6.2304 2.16 6.2304C2.16 6.17707 2.21333 6.04373 2.32 5.8304C2.43733 5.6064 2.53867 5.40907 2.624 5.2384C2.784 5.06773 2.87467 4.92907 2.896 4.8224C2.91733 4.71573 2.90133 4.6304 2.848 4.5664C2.82667 4.52373 2.864 4.44907 2.96 4.3424C3.056 4.23573 3.2 4.11307 3.392 3.9744C3.584 3.83573 3.80267 3.69707 4.048 3.5584C4.304 3.35573 4.54933 3.24907 4.784 3.2384C5.02933 3.21707 5.17333 3.26507 5.216 3.3824C5.216 3.4144 5.27467 3.42507 5.392 3.4144C5.52 3.39307 5.664 3.3664 5.824 3.3344C5.99467 3.29173 6.144 3.25973 6.272 3.2384C6.32533 3.1744 6.448 3.1264 6.64 3.0944C6.84267 3.05173 7.07733 3.0144 7.344 2.9824C7.48267 2.99307 7.616 2.9984 7.744 2.9984C7.88267 2.98773 7.99467 2.97707 8.08 2.9664C8.176 2.95573 8.224 2.9504 8.224 2.9504C8.29867 2.92907 8.384 2.93973 8.48 2.9824C8.58667 3.02507 8.68267 3.1424 8.768 3.3344C8.84267 3.5264 8.816 3.6704 8.688 3.7664C8.57067 3.8624 8.29333 3.93707 7.856 3.9904C7.536 4.03307 7.25867 4.0704 7.024 4.1024C6.78933 4.12373 6.544 4.15573 6.288 4.1984C6.032 4.2304 5.71733 4.28907 5.344 4.3744C5.07733 4.42773 4.85867 4.49173 4.688 4.5664C4.51733 4.6304 4.368 4.73173 4.24 4.8704C4.112 4.9984 3.968 5.18507 3.808 5.4304C3.73333 5.48373 3.63733 5.6224 3.52 5.8464C3.40267 6.0704 3.28533 6.2944 3.168 6.5184C2.86933 6.9344 2.608 7.29707 2.384 7.6064C2.17067 7.90507 2.08533 8.08107 2.128 8.1344C2.128 8.1344 2.18667 8.1504 2.304 8.1824C2.42133 8.2144 2.50133 8.2304 2.544 8.2304C2.65067 8.17707 2.77867 8.13973 2.928 8.1184C3.088 8.09707 3.216 8.07573 3.312 8.0544C3.97333 7.88373 4.49067 7.7504 4.864 7.6544C5.248 7.5584 5.536 7.48907 5.728 7.4464C5.93067 7.39307 6.08533 7.36107 6.192 7.3504C6.34133 7.23307 6.48533 7.21173 6.624 7.2864C6.77333 7.36107 6.89067 7.4784 6.976 7.6384C7.02933 7.75573 7.02933 7.85707 6.976 7.9424C6.93333 8.02773 6.8 8.11307 6.576 8.1984C6.36267 8.28373 6.04267 8.38507 5.616 8.5024C5.18933 8.61973 4.62933 8.7744 3.936 8.9664C3.34933 9.13707 2.848 9.2384 2.432 9.2704C2.016 9.3024 1.81867 9.21173 1.84 8.9984C1.76533 8.95573 1.68 9.00907 1.584 9.1584C1.49867 9.29707 1.41333 9.48907 1.328 9.7344C1.24267 9.97973 1.168 10.2411 1.104 10.5184C1.05067 10.7957 1.01333 11.0571 0.992 11.3024C0.981333 11.5371 0.997333 11.7131 1.04 11.8304C1.12533 12.0757 1.23733 12.2731 1.376 12.4224C1.51467 12.5611 1.76533 12.6837 2.128 12.7904C2.34133 12.8011 2.54933 12.8171 2.752 12.8384C2.95467 12.8597 3.184 12.8171 3.44 12.7104C4.06933 12.6037 4.56533 12.4917 4.928 12.3744C5.29067 12.2571 5.49867 12.1771 5.552 12.1344C5.63733 12.0917 5.69067 12.0704 5.712 12.0704C5.744 12.0597 5.78667 12.0544 5.84 12.0544C5.808 12.1077 5.81867 12.1131 5.872 12.0704C5.936 12.0171 6.02133 11.9371 6.128 11.8304C6.24533 11.7237 6.4 11.6224 6.592 11.5264C6.784 11.4304 6.95467 11.3557 7.104 11.3024C7.264 11.2491 7.34933 11.2491 7.36 11.3024C7.424 11.4091 7.41333 11.5584 7.328 11.7504C7.24267 11.9317 7.088 12.1344 6.864 12.3584C6.64 12.5717 6.352 12.7797 6 12.9824C5.43467 13.2811 4.82133 13.4891 4.16 13.6064C3.49867 13.7344 2.90667 13.8037 2.384 13.8144ZM7.808 1.4304C7.73333 1.35573 7.66933 1.26507 7.616 1.1584C7.57333 1.04107 7.55733 0.961066 7.568 0.9184C7.58933 0.865066 7.62667 0.763733 7.68 0.6144C7.744 0.4544 7.81333 0.3424 7.888 0.2784C7.92 0.257066 7.95733 0.225066 8 0.1824C8.04267 0.129066 8.08533 0.0970663 8.128 0.0863998C8.256 -0.00960024 8.37333 -0.0256 8.48 0.0384004C8.59733 0.1024 8.68267 0.219733 8.736 0.3904C8.832 0.539733 8.864 0.673067 8.832 0.7904C8.8 0.897067 8.71467 1.04107 8.576 1.2224C8.416 1.4464 8.272 1.56907 8.144 1.5904C8.016 1.61173 7.904 1.5584 7.808 1.4304ZM5.744 1.4304C5.66933 1.35573 5.60533 1.26507 5.552 1.1584C5.50933 1.04107 5.49333 0.961066 5.504 0.9184C5.52533 0.865066 5.56267 0.763733 5.616 0.6144C5.68 0.4544 5.74933 0.3424 5.824 0.2784C5.856 0.257066 5.888 0.225066 5.92 0.1824C5.96267 0.129066 6.00533 0.0970663 6.048 0.0863998C6.13333 0.0224 6.21333 -0.00426665 6.288 0.00639988C6.37333 0.0170664 6.448 0.0543999 6.512 0.1184C6.58667 0.1824 6.64 0.273067 6.672 0.3904C6.768 0.539733 6.8 0.673067 6.768 0.7904C6.736 0.897067 6.65067 1.04107 6.512 1.2224C6.34133 1.4464 6.192 1.56907 6.064 1.5904C5.936 1.61173 5.82933 1.5584 5.744 1.4304Z" fill="#1F170F"/>
</svg>
