<svg width="12" height="12" viewBox="0 0 12 12" fill="none" xmlns="http://www.w3.org/2000/svg">
<path d="M0.216 11.472C0.024 11.312 -0.04 11.1147 0.024 10.88C0.0346666 10.8373 0.056 10.6773 0.088 10.4C0.130667 10.112 0.184 9.78133 0.248 9.408C0.312 9.024 0.381333 8.656 0.456 8.304C0.541333 7.952 0.621333 7.68533 0.696 7.504C0.770667 7.13067 0.866667 6.768 0.984 6.416C1.112 6.064 1.22933 5.71733 1.336 5.376C1.35733 5.28 1.41067 5.11467 1.496 4.88C1.592 4.64533 1.69333 4.39467 1.8 4.128C1.90667 3.85067 1.99733 3.60533 2.072 3.392C2.15733 3.17867 2.20533 3.04533 2.216 2.992C2.22667 2.94933 2.26933 2.83733 2.344 2.656C2.42933 2.47467 2.53067 2.272 2.648 2.048C2.76533 1.81333 2.87733 1.59467 2.984 1.392C3.09067 1.18933 3.17067 1.04 3.224 0.944C3.34133 0.730667 3.45867 0.538667 3.576 0.368C3.69333 0.197334 3.79467 0.074667 3.88 0C3.99733 0 4.088 0.0213334 4.152 0.0640001C4.216 0.0960004 4.28 0.144 4.344 0.208C4.408 0.272001 4.49333 0.357334 4.6 0.464001C4.62133 0.528001 4.57333 0.672001 4.456 0.896001C4.33867 1.12 4.19467 1.38133 4.024 1.68C3.864 1.968 3.704 2.24533 3.544 2.512C3.39467 2.77867 3.29333 2.98667 3.24 3.136C3.19733 3.24267 3.11733 3.42933 3 3.696C2.88267 3.96267 2.76533 4.24 2.648 4.528C2.54133 4.816 2.46133 5.05067 2.408 5.232C2.54667 5.328 2.70667 5.35467 2.888 5.312C3.08 5.25867 3.272 5.19467 3.464 5.12C3.656 5.03467 3.82667 4.992 3.976 4.992C4.34933 4.91733 4.62133 4.896 4.792 4.928C4.96267 4.96 5.13333 5.06133 5.304 5.232C5.44267 5.232 5.544 5.16267 5.608 5.024C5.68267 4.88533 5.752 4.71467 5.816 4.512C5.89067 4.30933 5.98667 4.128 6.104 3.968C6.136 3.92533 6.2 3.81333 6.296 3.632C6.40267 3.45067 6.52533 3.23733 6.664 2.992C6.81333 2.74667 6.968 2.496 7.128 2.24C7.288 1.984 7.448 1.76 7.608 1.568C7.94933 1.12 8.43467 0.768001 9.064 0.512C9.24533 0.405334 9.42667 0.384 9.608 0.448001C9.8 0.501334 9.91733 0.666667 9.96 0.944C10.2053 1.01867 10.3973 1.07733 10.536 1.12C10.6853 1.16267 10.824 1.24267 10.952 1.36C11.112 1.424 11.2453 1.55733 11.352 1.76C11.4693 1.952 11.5547 2.14933 11.608 2.352C11.6613 2.544 11.6667 2.672 11.624 2.736C11.6347 2.72533 11.6293 2.82667 11.608 3.04C11.5867 3.25333 11.5547 3.504 11.512 3.792C11.4693 4.06933 11.4213 4.304 11.368 4.496C11.3253 4.79467 11.2347 5.136 11.096 5.52C10.9573 5.89333 10.8133 6.25067 10.664 6.592C10.5147 6.93333 10.3973 7.20533 10.312 7.408C10.216 7.57867 10.072 7.81333 9.88 8.112C9.688 8.41067 9.48 8.70933 9.256 9.008C9.04267 9.296 8.83467 9.52533 8.632 9.696C8.30133 9.97333 7.96533 10.224 7.624 10.448C7.28267 10.672 6.952 10.784 6.632 10.784C6.36533 10.784 6.14133 10.7413 5.96 10.656C5.77867 10.5707 5.60267 10.4693 5.432 10.352C5.24 10.2027 5.08 10.0107 4.952 9.776C4.83467 9.54133 4.75467 9.312 4.712 9.088C4.68 8.85333 4.69067 8.688 4.744 8.592C4.712 8.50667 4.712 8.34133 4.744 8.096C4.78667 7.84 4.84 7.57333 4.904 7.296C4.968 7.01867 5.01067 6.79467 5.032 6.624C5.096 6.50667 5.15467 6.352 5.208 6.16C5.272 5.968 5.288 5.84533 5.256 5.792C5.128 5.68533 4.93067 5.65333 4.664 5.696C4.39733 5.728 4.09333 5.808 3.752 5.936C3.37867 6.064 3.04267 6.18667 2.744 6.304C2.456 6.42133 2.18933 6.48533 1.944 6.496C1.85867 6.592 1.8 6.72 1.768 6.88C1.736 7.02933 1.70933 7.152 1.688 7.248C1.688 7.26933 1.66667 7.36533 1.624 7.536C1.58133 7.696 1.528 7.89333 1.464 8.128C1.41067 8.352 1.35733 8.58133 1.304 8.816C1.25067 9.04 1.208 9.22667 1.176 9.376C1.144 9.51467 1.13333 9.57867 1.144 9.568C1.144 9.70667 1.12267 9.872 1.08 10.064C1.03733 10.2453 1.02133 10.4107 1.032 10.56C1.04267 10.6987 1.02667 10.8373 0.984 10.976C0.941333 11.104 0.925333 11.2373 0.936 11.376C0.936 11.536 0.850667 11.616 0.68 11.616C0.509333 11.616 0.354667 11.568 0.216 11.472ZM6.2 9.952C6.44533 9.952 6.68533 9.904 6.92 9.808C7.15467 9.712 7.33067 9.60533 7.448 9.488C7.704 9.22133 7.91733 9.00267 8.088 8.832C8.26933 8.66133 8.42933 8.50133 8.568 8.352C8.70667 8.192 8.84533 8.01067 8.984 7.808C9.13333 7.59467 9.29867 7.31733 9.48 6.976C9.66133 6.66667 9.79467 6.416 9.88 6.224C9.976 6.02133 10.0453 5.84 10.088 5.68C10.1413 5.52 10.1947 5.344 10.248 5.152C10.3013 4.94933 10.3813 4.69333 10.488 4.384C10.6267 4.01067 10.7013 3.648 10.712 3.296C10.7333 2.93333 10.744 2.61867 10.744 2.352C10.7653 2.192 10.7227 2.05333 10.616 1.936C10.5093 1.81867 10.392 1.77067 10.264 1.792C10.1467 1.81333 10.0187 1.83467 9.88 1.856C9.752 1.87733 9.64 1.94667 9.544 2.064C9.49067 2.128 9.432 2.176 9.368 2.208C9.31467 2.24 9.26133 2.26133 9.208 2.272C9.10133 2.25067 9.032 2.22933 9 2.208C8.97867 2.18667 8.904 2.08533 8.776 1.904C8.62667 2.01067 8.51467 2.096 8.44 2.16C8.36533 2.224 8.296 2.29867 8.232 2.384C8.168 2.46933 8.07733 2.592 7.96 2.752C7.768 3.008 7.59733 3.27467 7.448 3.552C7.30933 3.82933 7.16533 4.10667 7.016 4.384C6.78133 4.81067 6.57333 5.264 6.392 5.744C6.21067 6.224 6.05067 6.73067 5.912 7.264C5.73067 7.98933 5.656 8.576 5.688 9.024C5.73067 9.472 5.90133 9.78133 6.2 9.952Z" fill="#1F170F"/>
</svg>
