<svg width="9" height="12" viewBox="0 0 9 12" fill="none" xmlns="http://www.w3.org/2000/svg">
<path d="M2.976 11.7033C2.70933 11.6819 2.46933 11.6339 2.256 11.5593C2.05333 11.4953 1.80267 11.3833 1.504 11.2233C1.152 11.0206 0.869333 10.7859 0.656 10.5193C0.442667 10.2526 0.256 9.98594 0.096 9.71927C0.032 9.60194 0 9.48994 0 9.38327C0 9.26594 0.0373333 9.14861 0.112 9.03127C0.165333 8.94594 0.229333 8.86061 0.304 8.77527C0.378667 8.68994 0.458667 8.62061 0.544 8.56727C0.693333 8.48194 0.8 8.45527 0.864 8.48727C0.938667 8.50861 1.03467 8.53527 1.152 8.56727C1.248 8.57794 1.30667 8.60461 1.328 8.64727C1.36 8.68994 1.38133 8.74327 1.392 8.80727C1.41333 8.87127 1.44533 8.95127 1.488 9.04727C1.424 9.14327 1.36 9.23394 1.296 9.31927C1.232 9.39394 1.14133 9.45794 1.024 9.51127C1.12 9.70327 1.232 9.87927 1.36 10.0393C1.49867 10.1886 1.648 10.3219 1.808 10.4393C1.968 10.5673 2.18133 10.6739 2.448 10.7593C2.72533 10.8339 2.928 10.8499 3.056 10.8073C3.10933 10.7859 3.16267 10.7913 3.216 10.8233C3.28 10.8553 3.344 10.8553 3.408 10.8233C3.49333 10.8019 3.58933 10.7966 3.696 10.8073C3.81333 10.8073 3.94133 10.7753 4.08 10.7113C4.44267 10.6046 4.768 10.4499 5.056 10.2473C5.344 10.0446 5.6 9.79927 5.824 9.51127C6.016 9.25527 6.144 9.02594 6.208 8.82327C6.272 8.60994 6.30933 8.35394 6.32 8.05527C6.34133 7.87394 6.32533 7.69794 6.272 7.52727C6.21867 7.34594 6.16533 7.16994 6.112 6.99927C6.09067 6.91394 6.03733 6.85527 5.952 6.82327C5.87733 6.78061 5.81333 6.73261 5.76 6.67927C5.51467 6.61527 5.29067 6.54594 5.088 6.47127C4.88533 6.39661 4.624 6.41261 4.304 6.51927C4.13333 6.57261 4.01067 6.58861 3.936 6.56727C3.86133 6.54594 3.75467 6.49794 3.616 6.42327C3.53067 6.39127 3.45067 6.32727 3.376 6.23127C3.30133 6.12461 3.24267 6.01794 3.2 5.91127C3.168 5.80461 3.17333 5.71927 3.216 5.65527C3.26933 5.54861 3.34933 5.47927 3.456 5.44727C3.56267 5.40461 3.664 5.39394 3.76 5.41527C3.90933 5.44727 4.05333 5.44727 4.192 5.41527C4.33067 5.37261 4.464 5.32994 4.592 5.28727C4.69867 5.24461 4.84267 5.16461 5.024 5.04727C5.20533 4.92994 5.37067 4.81261 5.52 4.69527C5.66933 4.57794 5.744 4.51394 5.744 4.50327C5.97867 4.22594 6.19733 3.95394 6.4 3.68727C6.60267 3.40994 6.768 3.08994 6.896 2.72727C6.98133 2.56727 7.03467 2.36461 7.056 2.11927C7.088 1.86327 7.06133 1.63927 6.976 1.44727C6.95467 1.34061 6.87467 1.26061 6.736 1.20727C6.59733 1.14327 6.45333 1.10594 6.304 1.09527C6.15467 1.07394 6.03733 1.07927 5.952 1.11127C5.83467 1.11127 5.66933 1.14327 5.456 1.20727C5.25333 1.27127 5.06133 1.34061 4.88 1.41527C4.69867 1.48994 4.58667 1.54861 4.544 1.59127C4.50133 1.62327 4.4 1.70861 4.24 1.84727C4.09067 1.97527 3.936 2.11927 3.776 2.27927C3.62667 2.42861 3.52 2.55127 3.456 2.64727C3.424 2.70061 3.36533 2.73261 3.28 2.74327C3.19467 2.75394 3.10933 2.75394 3.024 2.74327C2.94933 2.73261 2.90667 2.72194 2.896 2.71127C2.8 2.55127 2.74667 2.39661 2.736 2.24727C2.72533 2.08727 2.8 1.90594 2.96 1.70327C3.10933 1.52194 3.25867 1.34594 3.408 1.17527C3.568 1.00461 3.74933 0.860606 3.952 0.743273C4.112 0.65794 4.272 0.567273 4.432 0.471273C4.60267 0.364606 4.77333 0.284606 4.944 0.231273C5.05067 0.199273 5.21067 0.145939 5.424 0.0712731C5.648 -0.0033939 5.87733 -0.019394 6.112 0.0232727C6.35733 0.0446058 6.54933 0.081939 6.688 0.135272C6.83733 0.177939 6.98133 0.252606 7.12 0.359272C7.25867 0.455272 7.42933 0.593939 7.632 0.775273C7.824 0.892606 7.952 1.11127 8.016 1.43127C8.08 1.74061 8.09067 2.07661 8.048 2.43927C8.016 2.79127 7.936 3.09527 7.808 3.35127C7.70133 3.55394 7.59467 3.76194 7.488 3.97527C7.38133 4.17794 7.25333 4.36994 7.104 4.55127C7.008 4.67927 6.90667 4.80727 6.8 4.93527C6.704 5.06327 6.60267 5.18594 6.496 5.30327C6.48533 5.32461 6.40533 5.38327 6.256 5.47927C6.10667 5.57527 5.97333 5.63927 5.856 5.67127C5.97333 5.71394 6.112 5.78861 6.272 5.89527C6.432 5.99127 6.576 6.09794 6.704 6.21527C6.84267 6.32194 6.92267 6.41794 6.944 6.50327C7.15733 6.83394 7.296 7.21261 7.36 7.63927C7.424 8.05527 7.40267 8.55661 7.296 9.14327C7.22133 9.28194 7.14667 9.42061 7.072 9.55927C6.99733 9.68727 6.92267 9.82061 6.848 9.95927C6.69867 10.2366 6.528 10.4499 6.336 10.5993C6.144 10.7486 5.94133 10.8979 5.728 11.0473C5.568 11.1539 5.40267 11.2499 5.232 11.3353C5.06133 11.4206 4.88 11.4899 4.688 11.5433C4.368 11.6286 4.05867 11.6819 3.76 11.7033C3.46133 11.7353 3.2 11.7353 2.976 11.7033Z" fill="#1F170F"/>
</svg>
