<svg width="15" height="12" viewBox="0 0 15 12" fill="none" xmlns="http://www.w3.org/2000/svg">
<path d="M5.82588 11.2053C5.66588 11.152 5.53788 11.0507 5.44188 10.9013C5.35655 10.752 5.34055 10.64 5.39388 10.5653C5.45788 10.4267 5.51122 10.2827 5.55388 10.1333C5.59655 9.97333 5.65522 9.824 5.72988 9.68533C5.80455 9.55733 5.85788 9.424 5.88988 9.28533C5.93255 9.136 5.97522 8.992 6.01788 8.85333C6.10322 8.608 6.18855 8.368 6.27388 8.13333C6.35922 7.888 6.45522 7.648 6.56188 7.41333C6.64722 7.25333 6.71655 7.08267 6.76988 6.90133C6.83388 6.70933 6.90855 6.50667 6.99388 6.29333C6.81255 6.4 6.64722 6.50667 6.49788 6.61333C6.35922 6.72 6.23122 6.83733 6.11388 6.96533C5.86855 7.21067 5.65522 7.408 5.47388 7.55733C5.30322 7.696 5.12188 7.84 4.92988 7.98933C4.74855 8.128 4.51922 8.32 4.24188 8.56533C4.23122 8.576 4.15122 8.63467 4.00188 8.74133C3.85255 8.848 3.67122 8.97067 3.45788 9.10933C3.24455 9.23733 3.04722 9.36 2.86588 9.47733C2.68455 9.59467 2.55655 9.67467 2.48188 9.71733C2.27922 9.83467 2.11388 9.94133 1.98588 10.0373C1.86855 10.1333 1.74055 10.2293 1.60188 10.3253C1.46322 10.4213 1.26588 10.5333 1.00988 10.6613C0.871216 10.7467 0.764549 10.7893 0.689882 10.7893C0.615216 10.7893 0.540549 10.768 0.465882 10.7253C0.391216 10.6827 0.284549 10.64 0.145882 10.5973C0.135216 10.5227 0.0978824 10.4373 0.0338824 10.3413C-0.0301176 10.2453 -0.00345098 10.1547 0.113882 10.0693C0.145882 10.0267 0.241882 9.952 0.401882 9.84533C0.561882 9.73867 0.743216 9.62133 0.945882 9.49333C1.15922 9.35467 1.35655 9.22667 1.53788 9.10933C1.71922 8.992 1.84722 8.90133 1.92188 8.83733C1.99655 8.784 2.11922 8.70933 2.28988 8.61333C2.46055 8.50667 2.64188 8.39467 2.83388 8.27733C3.02588 8.16 3.20188 8.05333 3.36188 7.95733C3.53255 7.85067 3.64455 7.77067 3.69788 7.71733C3.71922 7.696 3.75122 7.66933 3.79388 7.63733C3.84722 7.59467 3.94322 7.52 4.08188 7.41333C4.22055 7.30667 4.43388 7.14667 4.72188 6.93333C5.00988 6.72 5.39922 6.42667 5.88988 6.05333C6.01788 5.968 6.12988 5.86667 6.22588 5.74933C6.32188 5.62133 6.39655 5.47733 6.44988 5.31733C6.41788 5.25333 6.34855 5.136 6.24188 4.96533C6.14588 4.79467 6.03388 4.61333 5.90588 4.42133C5.78855 4.22933 5.68188 4.064 5.58588 3.92533C5.50055 3.776 5.45255 3.70133 5.44188 3.70133C5.42055 3.68 5.36188 3.616 5.26588 3.50933C5.18055 3.392 5.07922 3.26933 4.96188 3.14133C4.85522 3.00267 4.76455 2.89067 4.68988 2.80533C4.61522 2.70933 4.58855 2.672 4.60988 2.69333C4.59922 2.68267 4.53522 2.592 4.41788 2.42133C4.30055 2.25067 4.16188 2.05333 4.00188 1.82933C3.85255 1.60533 3.71922 1.408 3.60188 1.23733C3.48455 1.056 3.42055 0.954667 3.40988 0.933333C3.32455 0.816 3.23922 0.693333 3.15388 0.565333C3.06855 0.437334 3.01522 0.298667 2.99388 0.149333C3.04722 0.0639999 3.12188 0.0160002 3.21788 0.00533369C3.31388 -0.00533348 3.38322 -2.12342e-07 3.42588 0.0213335C3.54322 0.0746668 3.66588 0.122667 3.79388 0.165334C3.92188 0.197333 4.02322 0.272 4.09788 0.389334C4.20455 0.506667 4.28988 0.592 4.35388 0.645333C4.41788 0.698666 4.50322 0.816 4.60988 0.997333L6.68988 3.94133C6.73255 3.984 6.80188 4.08533 6.89788 4.24533C7.00455 4.39467 7.09522 4.53333 7.16988 4.66133C7.25522 4.78933 7.28722 4.84267 7.26588 4.82133C7.30855 4.93867 7.36188 4.96 7.42588 4.88533C7.50055 4.81067 7.56455 4.736 7.61788 4.66133C7.60722 4.50133 7.62855 4.34667 7.68188 4.19733C7.73522 4.03733 7.78322 3.872 7.82588 3.70133C7.91122 3.43467 7.99655 3.168 8.08188 2.90133C8.17788 2.624 8.25255 2.352 8.30588 2.08533C8.32722 2 8.34855 1.92 8.36988 1.84533C8.40188 1.77067 8.44455 1.696 8.49788 1.62133C8.55122 1.536 8.58322 1.44533 8.59388 1.34933C8.60455 1.25333 8.62055 1.15733 8.64188 1.06133C8.67388 0.901334 8.70588 0.741333 8.73788 0.581333C8.78055 0.410667 8.84455 0.250667 8.92988 0.101333C9.14322 0.0480001 9.30322 0.0960001 9.40988 0.245333C9.52722 0.394667 9.63922 0.528 9.74588 0.645333C9.75655 0.730667 9.75655 0.816 9.74588 0.901334C9.74588 0.986666 9.71922 1.072 9.66588 1.15733L9.44188 1.90933C9.44188 1.93067 9.41522 2.02667 9.36188 2.19733C9.31922 2.35733 9.26588 2.53867 9.20188 2.74133C9.14855 2.944 9.09522 3.10933 9.04188 3.23733C8.98855 3.39733 8.94055 3.56267 8.89788 3.73333C8.86588 3.89333 8.81788 4.048 8.75388 4.19733C8.71122 4.42133 8.65255 4.64533 8.57788 4.86933C8.51388 5.08267 8.45522 5.296 8.40188 5.50933C8.40188 5.57333 8.42855 5.57867 8.48188 5.52533C8.54588 5.46133 8.61522 5.38133 8.68988 5.28533L9.32988 4.67733C9.34055 4.66667 9.41522 4.592 9.55388 4.45333C9.70322 4.304 9.88988 4.12267 10.1139 3.90933C10.3379 3.68533 10.5725 3.456 10.8179 3.22133C11.0739 2.976 11.3085 2.75733 11.5219 2.56533C11.7459 2.37333 11.9219 2.22933 12.0499 2.13333C12.3592 1.824 12.6685 1.552 12.9779 1.31733C13.2872 1.08267 13.5592 0.928 13.7939 0.853333C13.9005 0.949333 14.0125 1.04 14.1299 1.12533C14.2579 1.2 14.3432 1.32267 14.3859 1.49333C14.3326 1.6 14.2579 1.71733 14.1619 1.84533C14.0659 1.96267 13.9699 2.05333 13.8739 2.11733C13.6072 2.256 13.3405 2.432 13.0739 2.64533C12.8179 2.848 12.6099 3.008 12.4499 3.12533C12.3325 3.2 12.1779 3.31733 11.9859 3.47733C11.8045 3.63733 11.6125 3.808 11.4099 3.98933C11.2179 4.17067 11.0419 4.34133 10.8819 4.50133C10.7219 4.65067 10.6152 4.752 10.5619 4.80533C10.4765 4.90133 10.3219 5.03467 10.0979 5.20533C9.87388 5.376 9.64455 5.62133 9.40988 5.94133C9.49522 6.09067 9.56988 6.24533 9.63388 6.40533C9.70855 6.56533 9.80455 6.704 9.92188 6.82133C9.91122 6.81067 9.95388 6.88 10.0499 7.02933C10.1459 7.17867 10.2632 7.36 10.4019 7.57333C10.5512 7.78667 10.6899 7.98933 10.8179 8.18133C10.9459 8.37333 11.0312 8.50133 11.0739 8.56533C11.1485 8.74667 11.2552 8.912 11.3939 9.06133C11.5325 9.2 11.6445 9.36 11.7299 9.54133C11.8152 9.616 11.8899 9.696 11.9539 9.78133C12.0285 9.856 12.1192 9.92 12.2259 9.97333C12.3112 10.0053 12.3805 10.0747 12.4339 10.1813C12.4872 10.288 12.5405 10.4053 12.5939 10.5333C12.5299 10.7147 12.4605 10.8213 12.3859 10.8533C12.3219 10.896 12.1565 10.928 11.8899 10.9493C11.7085 10.9067 11.5165 10.7947 11.3139 10.6133C11.1219 10.4213 10.9672 10.2347 10.8499 10.0533C10.5192 9.584 10.2259 9.13067 9.96988 8.69333C9.71388 8.256 9.47388 7.872 9.24988 7.54133C9.22855 7.41333 9.18055 7.30133 9.10588 7.20533C9.03122 7.09867 8.96722 6.992 8.91388 6.88533C8.90322 6.84267 8.88722 6.81067 8.86588 6.78933C8.84455 6.75733 8.81788 6.73067 8.78588 6.70933C8.76455 6.688 8.73255 6.67733 8.68988 6.67733C8.57255 6.656 8.48188 6.59733 8.41788 6.50133C8.35388 6.39467 8.27388 6.28267 8.17788 6.16533C8.10322 6.464 8.00722 6.74667 7.88988 7.01333C7.77255 7.26933 7.66055 7.536 7.55388 7.81333C7.53255 7.87733 7.49522 7.936 7.44188 7.98933C7.38855 8.04267 7.36188 8.112 7.36188 8.19733C7.36188 8.22933 7.32988 8.34133 7.26588 8.53333C7.20188 8.71467 7.12188 8.93867 7.02588 9.20533C6.92988 9.46133 6.83388 9.728 6.73788 10.0053C6.65255 10.272 6.58322 10.5013 6.52988 10.6933C6.48722 10.8107 6.45522 10.9013 6.43388 10.9653C6.41255 11.04 6.36988 11.0933 6.30588 11.1253C6.23122 11.168 6.15122 11.2 6.06588 11.2213C5.99122 11.2427 5.91122 11.2373 5.82588 11.2053Z" fill="#1F170F"/>
</svg>
