<svg width="7" height="6" viewBox="0 0 7 6" fill="none" xmlns="http://www.w3.org/2000/svg">
<path d="M0.372364 5.577C0.329697 5.49167 0.276364 5.42767 0.212364 5.385C0.148364 5.33167 0.116364 5.28367 0.116364 5.241C0.116364 5.19833 0.11103 5.15567 0.100364 5.113C0.100364 5.05967 0.0790303 5.01167 0.0363637 4.969C-0.0169697 4.905 -0.0116364 4.761 0.0523637 4.537C0.116364 4.30233 0.22303 4.01967 0.372364 3.689C0.521697 3.34767 0.697697 2.99033 0.900364 2.617C0.985697 2.53167 1.07103 2.41967 1.15636 2.281C1.2417 2.14233 1.3057 2.05167 1.34836 2.009C1.34836 1.96633 1.36436 1.929 1.39636 1.897C1.42836 1.85433 1.4657 1.833 1.50836 1.833V1.737C1.50836 1.68367 1.55636 1.593 1.65236 1.465C1.75903 1.337 1.88703 1.19833 2.03636 1.049C2.1857 0.889 2.34036 0.739667 2.50036 0.601C2.66036 0.451666 2.7937 0.345 2.90036 0.281C3.12436 0.131667 3.3537 0.041 3.58836 0.00900011C3.8337 -0.0230001 4.0417 0.0303332 4.21236 0.169C4.24436 0.201 4.2977 0.254333 4.37236 0.329C4.44703 0.403666 4.53236 0.489 4.62836 0.585C4.73503 0.670333 4.8417 0.761 4.94836 0.857L5.54036 1.385L5.25236 2.185C5.1137 2.61167 5.07636 2.985 5.14036 3.305C5.21503 3.625 5.3217 3.90233 5.46036 4.137C5.5137 4.25433 5.62036 4.36633 5.78036 4.473C5.95103 4.57967 6.11103 4.64367 6.26036 4.665C6.3457 4.67567 6.4257 4.70767 6.50036 4.761C6.57503 4.81433 6.61236 4.89967 6.61236 5.017C6.61236 5.12367 6.59103 5.209 6.54836 5.273C6.5057 5.337 6.43103 5.37967 6.32436 5.401C5.97236 5.44367 5.6417 5.35833 5.33236 5.145C5.0337 4.93167 4.75636 4.57967 4.50036 4.089C4.4577 4.025 4.39903 3.90767 4.32436 3.737C4.26036 3.55567 4.22303 3.43833 4.21236 3.385C4.1697 3.43833 4.0897 3.53967 3.97236 3.689C3.85503 3.82767 3.76436 3.929 3.70036 3.993C2.94303 4.761 2.28703 5.27833 1.73236 5.545C1.18836 5.801 0.73503 5.81167 0.372364 5.577ZM0.948364 4.681C0.948364 4.75567 1.06036 4.75567 1.28436 4.681C1.51903 4.59567 1.7697 4.44633 2.03636 4.233C2.39903 3.92367 2.7617 3.58233 3.12436 3.209C3.4977 2.83567 3.79636 2.489 4.02036 2.169L4.37236 1.593C4.2657 1.34767 4.14836 1.18233 4.02036 1.097C3.90303 1.001 3.8017 0.953 3.71636 0.953C3.5777 0.953 3.3697 1.081 3.09236 1.337C2.8257 1.593 2.5377 1.93433 2.22836 2.361C1.91903 2.78767 1.6257 3.257 1.34836 3.769C1.2417 3.98233 1.1457 4.19033 1.06036 4.393C0.985697 4.585 0.948364 4.681 0.948364 4.681Z" fill="#1F170F"/>
</svg>
