<svg width="8" height="10" viewBox="0 0 8 10" fill="none" xmlns="http://www.w3.org/2000/svg">
<path d="M1.16 9.96114C1.08533 9.91848 1.00533 9.87581 0.92 9.83314C0.845333 9.79048 0.770667 9.74781 0.696 9.70514C0.632 9.66248 0.573333 9.61981 0.52 9.57714C0.296 9.37448 0.146667 9.15581 0.072 8.92114C0.00800002 8.67581 -0.0133333 8.44114 0.00799998 8.21714C0.0293334 7.99314 0.0613334 7.80114 0.104 7.64114C0.146667 7.47048 0.168 7.35314 0.168 7.28914C0.157333 7.20381 0.173333 7.12381 0.216 7.04914C0.258667 6.96381 0.301333 6.87848 0.344 6.79314C0.536 6.41981 0.712 6.09981 0.872 5.83314C1.04267 5.55581 1.288 5.23581 1.608 4.87314C1.672 4.81981 1.73067 4.77181 1.784 4.72914C1.848 4.67581 1.912 4.63848 1.976 4.61714L2.344 4.88914C2.38667 4.93181 2.41333 4.98514 2.424 5.04914C2.43467 5.10248 2.424 5.17714 2.392 5.27314C2.37067 5.34781 2.344 5.42248 2.312 5.49714C2.29067 5.56114 2.25867 5.61981 2.216 5.67314C2.03467 5.84381 1.89067 6.03581 1.784 6.24914C1.67733 6.45181 1.56533 6.65981 1.448 6.87314C1.448 6.96914 1.41067 7.04914 1.336 7.11314C1.26133 7.16648 1.21867 7.24648 1.208 7.35314C1.208 7.42781 1.19733 7.50248 1.176 7.57714C1.15467 7.65181 1.13333 7.73181 1.112 7.81714C1.03733 7.98781 1.00533 8.15314 1.016 8.31314C1.02667 8.47314 1.032 8.63848 1.032 8.80914C1.11733 8.85181 1.192 8.87848 1.256 8.88914C1.32 8.88914 1.40533 8.83581 1.512 8.72914C1.72533 8.54781 1.87467 8.38781 1.96 8.24914C2.056 8.11048 2.13067 7.97181 2.184 7.83314C2.23733 7.69448 2.312 7.53448 2.408 7.35314C2.51467 7.17181 2.60533 6.94248 2.68 6.66514C2.75467 6.38781 2.808 6.12648 2.84 5.88114C2.872 5.62514 2.872 5.45448 2.84 5.36914C2.82933 5.31581 2.83467 5.25181 2.856 5.17714C2.87733 5.10248 2.84533 5.02781 2.76 4.95314C2.80267 4.91048 2.824 4.83048 2.824 4.71314C2.824 4.59581 2.81333 4.47314 2.792 4.34514C2.77067 4.21714 2.73867 4.12648 2.696 4.07314C2.67467 3.64648 2.65867 3.28914 2.648 3.00114C2.648 2.70248 2.65333 2.44648 2.664 2.23314C2.68533 2.00914 2.712 1.80114 2.744 1.60914C2.75467 1.57714 2.81867 1.47048 2.936 1.28914C3.064 1.09714 3.18133 0.94781 3.288 0.841142C3.46933 0.681143 3.71467 0.558476 4.024 0.473142C4.344 0.377142 4.616 0.339809 4.84 0.361143C4.82933 0.371809 4.89333 0.377143 5.032 0.377143C5.18133 0.377143 5.34667 0.371809 5.528 0.361143C5.70933 0.350476 5.84267 0.33981 5.928 0.329142C6.01333 0.307809 6.09867 0.286476 6.184 0.265143C6.26933 0.243809 6.41333 0.174476 6.616 0.057143C6.70133 0.00380972 6.77067 -0.0121904 6.824 0.00914266L7.256 0.377143C7.24533 0.675809 7.17067 0.899809 7.032 1.04914C6.89333 1.18781 6.62667 1.27848 6.232 1.32114C6.168 1.32114 6.09867 1.32114 6.024 1.32114C5.94933 1.31048 5.87467 1.31581 5.8 1.33714C5.736 1.35848 5.67733 1.35848 5.624 1.33714C5.58133 1.31581 5.51733 1.30514 5.432 1.30514C5.31467 1.30514 5.192 1.32114 5.064 1.35314C4.936 1.37448 4.80267 1.36914 4.664 1.33714C4.28 1.44381 3.98133 1.58781 3.768 1.76914C3.55467 1.95048 3.448 2.24914 3.448 2.66514C3.49067 3.05981 3.544 3.41181 3.608 3.72114C3.68267 4.03048 3.72 4.37181 3.72 4.74514C3.74133 4.84114 3.768 4.92114 3.8 4.98514C3.832 5.04914 3.816 5.11848 3.752 5.19314C3.80533 5.43848 3.832 5.67848 3.832 5.91314C3.832 6.13714 3.8 6.30781 3.736 6.42514C3.71467 6.49981 3.69867 6.63848 3.688 6.84114C3.688 7.03314 3.63467 7.23581 3.528 7.44914C3.28267 7.95048 3.032 8.39848 2.776 8.79314C2.52 9.17714 2.19467 9.50248 1.8 9.76914C1.72533 9.81181 1.63467 9.84381 1.528 9.86514C1.432 9.88648 1.30933 9.91848 1.16 9.96114Z" fill="#1F170F"/>
</svg>
