<svg width="5" height="7" viewBox="0 0 5 7" fill="none" xmlns="http://www.w3.org/2000/svg">
<path d="M2.58947 6.256C2.49347 6.21333 2.39747 6.16533 2.30147 6.112C2.21614 6.05867 2.14681 5.97867 2.09347 5.872C2.00814 5.744 1.96014 5.58933 1.94947 5.408C1.94947 5.22667 1.95481 5.008 1.96547 4.752C1.96547 4.70933 1.98681 4.61867 2.02947 4.48C2.07214 4.34133 2.12014 4.192 2.17347 4.032C2.23747 3.86133 2.29081 3.71733 2.33347 3.6C2.37614 3.472 2.39747 3.40267 2.39747 3.392C2.29081 3.41333 2.20014 3.45067 2.12547 3.504C2.05081 3.55733 1.97614 3.61067 1.90147 3.664C1.79481 3.77067 1.65081 3.87733 1.46947 3.984C1.28814 4.09067 1.12281 4.17067 0.973474 4.224C0.866807 4.26667 0.717474 4.25067 0.525474 4.176C0.34414 4.09067 0.210807 3.97333 0.125474 3.824C0.0934737 3.74933 0.0668071 3.68 0.0454738 3.616C0.0348071 3.54133 0.0241404 3.46667 0.0134737 3.392C-0.029193 3.04 0.0294737 2.69867 0.189474 2.368C0.317474 2.09067 0.450807 1.81867 0.589474 1.552C0.72814 1.27467 0.861474 1.00267 0.989474 0.736C1.04281 0.650667 1.09614 0.570666 1.14947 0.496C1.20281 0.410667 1.24014 0.325333 1.26147 0.24C1.27214 0.208 1.30414 0.16 1.35747 0.0960002C1.41081 0.0320001 1.46947 0 1.53347 0C1.65081 0.0106665 1.75747 0.0373332 1.85347 0.0799999C1.96014 0.112 2.05081 0.186666 2.12547 0.304C2.18947 0.378667 2.22147 0.464 2.22147 0.56C2.22147 0.645333 2.17881 0.741333 2.09347 0.848C1.89081 1.12533 1.70414 1.41867 1.53347 1.728C1.37347 2.03733 1.21881 2.34667 1.06947 2.656C1.02681 2.74133 0.989474 2.84267 0.957474 2.96C0.925474 3.07733 0.92014 3.18933 0.941474 3.296C1.10147 3.296 1.32014 3.2 1.59747 3.008C1.87481 2.80533 2.16814 2.576 2.47747 2.32C2.78681 2.064 3.05881 1.84 3.29347 1.648C3.53881 1.44533 3.75214 1.2 3.93347 0.912C3.98681 0.826667 4.05081 0.762667 4.12547 0.72C4.20014 0.666667 4.30147 0.634667 4.42947 0.624C4.46147 0.634667 4.50414 0.656 4.55747 0.688C4.61081 0.72 4.66947 0.746667 4.73347 0.768C4.78681 0.896 4.83481 0.997333 4.87747 1.072C4.93081 1.14667 4.95214 1.22133 4.94147 1.296C4.93081 1.37067 4.85614 1.48267 4.71747 1.632C4.66414 1.64267 4.57347 1.73333 4.44547 1.904C4.31747 2.064 4.18947 2.24533 4.06147 2.448C3.93347 2.64 3.83747 2.8 3.77347 2.928C3.74147 2.98133 3.69881 3.04 3.64547 3.104C3.60281 3.15733 3.56014 3.22133 3.51747 3.296L2.90947 4.768C2.89881 4.864 2.88281 4.97067 2.86147 5.088C2.84014 5.19467 2.85081 5.28 2.89347 5.344C2.97881 5.344 3.05347 5.33333 3.11747 5.312C3.18147 5.29067 3.23481 5.31733 3.27747 5.392C3.33081 5.56267 3.35747 5.68533 3.35747 5.76C3.36814 5.824 3.29347 5.94667 3.13347 6.128C2.98414 6.288 2.80281 6.33067 2.58947 6.256Z" fill="#1F170F"/>
</svg>
