<svg width="6" height="11" viewBox="0 0 6 11" fill="none" xmlns="http://www.w3.org/2000/svg">
<path d="M1.39323 10.1936C1.36123 10.2043 1.28656 10.1883 1.16923 10.1456C1.0519 10.0923 0.923897 10.0283 0.785231 9.9536C0.657231 9.86827 0.555897 9.78827 0.481231 9.7136C0.395897 9.60693 0.315897 9.50027 0.241231 9.3936C0.177231 9.27627 0.145231 9.14293 0.145231 8.9936C0.0705641 8.8336 0.0278974 8.66827 0.0172308 8.4976C0.0172308 8.31627 0.0118975 8.14027 0.00123077 7.9696C-0.00943591 7.70293 0.0492308 7.43093 0.177231 7.1536C0.305231 6.8656 0.406564 6.65227 0.481231 6.5136C0.534564 6.36427 0.641231 6.17227 0.801231 5.9376C0.971898 5.69227 1.1799 5.45227 1.42523 5.2176C1.67056 4.98293 1.92656 4.8016 2.19323 4.6736C2.3639 4.58827 2.53456 4.51893 2.70523 4.4656C2.88656 4.4016 3.09456 4.41227 3.32923 4.4976C3.44656 4.5296 3.5319 4.57227 3.58523 4.6256C3.63856 4.67893 3.69723 4.73227 3.76123 4.7856C3.84656 4.7216 3.9159 4.56693 3.96923 4.3216C4.03323 4.0656 4.07056 3.7776 4.08123 3.4576C4.10256 3.12693 4.08656 2.81227 4.03323 2.5136C3.99056 2.20427 3.8999 1.95893 3.76123 1.7776C3.50523 1.4256 3.22256 1.19627 2.91323 1.0896C2.6039 0.982933 2.2519 1.01493 1.85723 1.1856C1.72923 1.13227 1.6119 1.03093 1.50523 0.8816C1.40923 0.732266 1.38256 0.582933 1.42523 0.433599C1.51056 0.358933 1.61723 0.284266 1.74523 0.209599C1.87323 0.134933 2.00123 0.086933 2.12923 0.0655993C2.27856 0.0335997 2.4279 0.0122667 2.57723 0.00160014C2.73723 -0.00906702 2.90256 0.0335994 3.07323 0.129599C3.6279 0.310933 4.0439 0.566933 4.32123 0.8976C4.60923 1.2176 4.80656 1.60693 4.91323 2.0656C5.0199 2.52427 5.0839 3.05227 5.10523 3.6496C5.12656 3.82027 5.1319 3.97493 5.12123 4.1136C5.12123 4.2416 5.10523 4.46027 5.07323 4.7696C4.96656 4.90827 4.9239 5.0736 4.94523 5.2656C4.97723 5.44693 4.9559 5.6176 4.88123 5.7776C4.87056 5.95893 4.8279 6.10827 4.75323 6.2256C4.67856 6.34293 4.64123 6.45493 4.64123 6.5616C4.44923 7.09493 4.1879 7.6176 3.85723 8.1296C3.53723 8.6416 3.16923 9.08427 2.75323 9.4576C2.33723 9.83093 1.8839 10.0763 1.39323 10.1936ZM1.29723 9.1536C1.4039 9.19627 1.5639 9.1536 1.77723 9.0256C1.99056 8.88693 2.20923 8.7056 2.43323 8.4816C2.65723 8.24693 2.8439 8.02293 2.99323 7.8096C3.04656 7.73493 3.1159 7.61227 3.20123 7.4416C3.29723 7.27093 3.38256 7.1056 3.45723 6.9456C3.54256 6.7856 3.59056 6.68427 3.60123 6.6416C3.69723 6.37493 3.75056 6.12427 3.76123 5.8896C3.78256 5.64427 3.7559 5.48427 3.68123 5.4096C3.5639 5.27093 3.3719 5.23893 3.10523 5.3136C2.84923 5.38827 2.6039 5.51093 2.36923 5.6816C2.19856 5.8096 2.0439 5.98027 1.90523 6.1936C1.77723 6.39627 1.6439 6.58293 1.50523 6.7536C1.5159 6.82827 1.49456 6.89227 1.44123 6.9456C1.39856 6.99893 1.35056 7.05227 1.29723 7.1056C1.15856 7.37227 1.0679 7.62293 1.02523 7.8576C0.982564 8.0816 0.961231 8.22027 0.961231 8.2736C0.961231 8.44427 0.987897 8.62027 1.04123 8.8016C1.09456 8.98293 1.1799 9.10027 1.29723 9.1536Z" fill="#1F170F"/>
</svg>
