<svg width="5" height="6" viewBox="0 0 5 6" fill="none" xmlns="http://www.w3.org/2000/svg">
<path d="M0.888471 5.992C0.568471 6.00267 0.333804 5.93867 0.184471 5.8C0.0351373 5.65067 -0.0235294 5.448 0.00847058 5.192C0.0831372 5.11733 0.157804 5.06933 0.232471 5.048C0.307137 5.02667 0.413804 5.04267 0.552471 5.096C0.669804 5.13867 0.787137 5.16 0.904471 5.16C1.0218 5.16 1.13914 5.13867 1.25647 5.096C1.3098 5.064 1.36847 5.05333 1.43247 5.064C1.50714 5.064 1.5818 5.05333 1.65647 5.032C1.8058 4.97867 1.98714 4.89867 2.20047 4.792C2.42447 4.68533 2.64847 4.56267 2.87247 4.424C3.09647 4.27467 3.2778 4.12 3.41647 3.96C3.4378 3.93867 3.4698 3.87467 3.51247 3.768C3.55514 3.65067 3.57114 3.57067 3.56047 3.528C3.4538 3.528 3.28314 3.54933 3.04847 3.592C2.82447 3.624 2.65914 3.65067 2.55247 3.672C2.32847 3.704 2.1578 3.67733 2.04047 3.592C1.92314 3.50667 1.8218 3.36267 1.73647 3.16C1.70447 3.07467 1.71514 3.00533 1.76847 2.952C1.8218 2.888 1.87514 2.80267 1.92847 2.696C2.00314 2.68533 2.07247 2.68 2.13647 2.68C2.21114 2.66933 2.28047 2.68533 2.34447 2.728C2.40847 2.77067 2.4618 2.77067 2.50447 2.728C2.5578 2.68533 2.61647 2.68 2.68047 2.712C2.74447 2.73333 2.8298 2.73867 2.93647 2.728C3.04314 2.71733 3.27247 2.70133 3.62447 2.68C3.6778 2.68 3.7258 2.67467 3.76847 2.664C3.8218 2.64267 3.85914 2.6 3.88047 2.536C3.92314 2.41867 3.94447 2.296 3.94447 2.168C3.94447 2.02933 3.9338 1.82667 3.91247 1.56C3.84847 1.37867 3.7898 1.26133 3.73647 1.208C3.68314 1.144 3.6138 1.08533 3.52847 1.032C3.1978 1 2.93647 1.016 2.74447 1.08C2.55247 1.13333 2.42447 1.208 2.36047 1.304C2.1898 1.432 2.0138 1.50667 1.83247 1.528C1.6618 1.54933 1.5658 1.512 1.54447 1.416C1.54447 1.36267 1.52847 1.27733 1.49647 1.16C1.47514 1.04267 1.46447 0.936 1.46447 0.84C1.46447 0.733334 1.49114 0.68 1.54447 0.68C1.6938 0.498667 1.80047 0.36 1.86447 0.264C1.92847 0.157333 2.08314 0.0933333 2.32847 0.072C2.6378 0.00800016 2.90447 -0.0133332 3.12847 0.00799984C3.35247 0.0186667 3.5658 0.0666667 3.76847 0.152C3.8858 0.184 4.0298 0.269333 4.20047 0.408C4.37114 0.546667 4.4778 0.68 4.52047 0.808C4.5738 0.850667 4.6378 0.952 4.71247 1.112C4.7978 1.26133 4.88314 1.544 4.96847 1.96C4.91514 2.35467 4.8458 2.70667 4.76047 3.016C4.6858 3.32533 4.58447 3.61867 4.45647 3.896C4.32847 4.184 4.21114 4.39733 4.10447 4.536C3.9978 4.664 3.8698 4.80267 3.72047 4.952C3.27247 5.22933 2.94714 5.43733 2.74447 5.576C2.5418 5.71467 2.3818 5.80533 2.26447 5.848C2.14714 5.89067 1.98714 5.912 1.78447 5.912C1.6458 5.976 1.49647 6.008 1.33647 6.008C1.18714 5.99733 1.0378 5.992 0.888471 5.992Z" fill="#1F170F"/>
</svg>
