<svg width="9" height="12" viewBox="0 0 9 12" fill="none" xmlns="http://www.w3.org/2000/svg">
<path d="M8.12978 2.832C8.26844 3.14133 8.30044 3.45067 8.22578 3.76C8.15111 4.05867 8.02311 4.352 7.84178 4.64C7.67111 4.928 7.49511 5.20533 7.31378 5.472L6.33778 6.304C6.01778 6.368 5.74578 6.42667 5.52178 6.48C5.30844 6.53333 5.12178 6.55467 4.96178 6.544C4.80178 6.52267 4.63644 6.44267 4.46578 6.304C4.30578 6.16533 4.11911 5.936 3.90578 5.616L3.76178 5.664C3.71911 5.74933 3.68178 5.84 3.64978 5.936C3.61778 6.032 3.58578 6.128 3.55378 6.224C3.56444 6.192 3.54844 6.24533 3.50578 6.384C3.46311 6.512 3.40444 6.688 3.32978 6.912C3.25511 7.136 3.17511 7.36533 3.08978 7.6C3.01511 7.84533 2.95111 8.05333 2.89778 8.224C2.84444 8.39467 2.81244 8.49067 2.80178 8.512C2.72711 8.72533 2.66311 8.91733 2.60978 9.088C2.55644 9.25867 2.50844 9.44533 2.46578 9.648C2.43378 9.86133 2.38578 10.1387 2.32178 10.48C2.31111 10.6187 2.29511 10.7253 2.27378 10.8C2.25244 10.8853 2.21511 10.9653 2.16178 11.04C2.10844 11.04 2.05511 11.04 2.00178 11.04C1.94844 11.0507 1.88978 11.0507 1.82578 11.04C1.58044 11.0187 1.42578 10.896 1.36178 10.672C1.30844 10.448 1.34578 10.256 1.47378 10.096C1.46311 9.94667 1.45778 9.84 1.45778 9.776C1.45778 9.72267 1.46311 9.65867 1.47378 9.584C1.50578 9.52 1.53244 9.46133 1.55378 9.408C1.58578 9.35467 1.61244 9.29067 1.63378 9.216C1.70844 8.992 1.81511 8.68267 1.95378 8.288C2.10311 7.89333 2.24711 7.488 2.38578 7.072C2.52444 6.64533 2.61511 6.28267 2.65778 5.984L2.04978 6.48C2.00711 6.52267 1.92711 6.59733 1.80978 6.704C1.69244 6.81067 1.59111 6.89067 1.50578 6.944C1.36711 6.96533 1.23911 7.01333 1.12178 7.088C1.01511 7.16267 0.881778 7.22667 0.721778 7.28C0.625778 7.25867 0.513778 7.216 0.385778 7.152C0.268444 7.088 0.177778 7.00267 0.113778 6.896C0.0284444 6.704 -0.0088889 6.464 0.00177778 6.176C0.0124444 5.87733 0.0551111 5.60533 0.129778 5.36C0.279111 4.92267 0.407111 4.55467 0.513778 4.256C0.620444 3.94667 0.780444 3.62667 0.993778 3.296C1.08978 3.14667 1.18044 3.00267 1.26578 2.864C1.36178 2.72533 1.46844 2.59733 1.58578 2.48C1.67111 2.39467 1.76178 2.31467 1.85778 2.24C1.95378 2.15467 2.04978 2.06933 2.14578 1.984C2.44444 1.87733 2.67911 1.81333 2.84978 1.792C3.02044 1.76 3.17511 1.776 3.31378 1.84C3.45244 1.904 3.60711 2.02667 3.77778 2.208C3.78844 2.25067 3.79378 2.352 3.79378 2.512C3.79378 2.66133 3.79378 2.816 3.79378 2.976C3.80444 3.12533 3.80978 3.22133 3.80978 3.264C3.87378 3.27467 3.91644 3.21067 3.93778 3.072C3.95911 2.92267 3.97511 2.81067 3.98578 2.736C4.03911 2.58667 4.09244 2.416 4.14578 2.224C4.20978 2.032 4.27378 1.87733 4.33778 1.76C4.42311 1.57867 4.51911 1.35467 4.62578 1.088C4.73244 0.810667 4.81778 0.581333 4.88178 0.4C4.90311 0.336 4.92978 0.272 4.96178 0.208C5.00444 0.133334 5.05778 0.0640001 5.12178 0C5.30311 0.0426668 5.43644 0.101333 5.52178 0.176C5.61778 0.250667 5.68711 0.325333 5.72978 0.4C5.72978 0.784 5.68711 1.06667 5.60178 1.248C5.52711 1.41867 5.44711 1.55733 5.36178 1.664C5.27644 1.77067 5.21244 1.92533 5.16978 2.128C5.16978 2.14933 5.13244 2.24 5.05778 2.4C4.99378 2.56 4.92444 2.72 4.84978 2.88C4.77511 3.02933 4.73244 3.12 4.72178 3.152L5.87378 2.448C6.11911 2.33067 6.32178 2.224 6.48178 2.128C6.64178 2.02133 6.86044 1.99467 7.13778 2.048C7.28711 2.05867 7.46844 2.144 7.68178 2.304C7.89511 2.464 8.04445 2.64 8.12978 2.832ZM0.993778 5.92C1.13244 5.92 1.31378 5.84533 1.53778 5.696C1.77244 5.536 2.00711 5.36 2.24178 5.168C2.47644 4.96533 2.66311 4.816 2.80178 4.72C2.97244 4.60267 3.04711 4.46933 3.02578 4.32C3.01511 4.16 3.03111 4.02667 3.07378 3.92C3.09511 3.84533 3.11111 3.70667 3.12178 3.504C3.14311 3.30133 3.14844 3.09867 3.13778 2.896C3.12711 2.68267 3.10044 2.54933 3.05778 2.496C2.89778 2.57067 2.76978 2.64 2.67378 2.704C2.57778 2.768 2.48711 2.848 2.40178 2.944C2.32711 3.02933 2.22044 3.152 2.08178 3.312C1.99644 3.41867 1.92178 3.52533 1.85778 3.632C1.79378 3.728 1.73511 3.82933 1.68178 3.936C1.48978 4.37333 1.32444 4.72 1.18578 4.976C1.04711 5.232 0.956444 5.43467 0.913778 5.584C0.881778 5.72267 0.908445 5.83467 0.993778 5.92ZM5.08978 5.616C5.42044 5.616 5.70844 5.53067 5.95378 5.36C6.19911 5.18933 6.36444 5.05067 6.44978 4.944C6.55644 4.88 6.66311 4.77333 6.76978 4.624C6.87644 4.464 6.96711 4.31467 7.04178 4.176C7.11644 4.02667 7.15378 3.936 7.15378 3.904C7.18578 3.79733 7.21778 3.66933 7.24978 3.52C7.29244 3.36 7.31378 3.22133 7.31378 3.104C7.31378 2.976 7.26044 2.912 7.15378 2.912C6.89778 2.98667 6.68444 3.06667 6.51378 3.152C6.34311 3.22667 6.13511 3.36 5.88978 3.552L4.96178 4.24C4.87644 4.32533 4.78044 4.4 4.67378 4.464C4.56711 4.51733 4.44978 4.53333 4.32178 4.512C4.22578 4.55467 4.15644 4.61333 4.11378 4.688C4.08178 4.752 4.05511 4.82667 4.03378 4.912C4.08711 4.944 4.12444 4.96533 4.14578 4.976C4.16711 4.976 4.19911 4.976 4.24178 4.976C4.33778 5.2 4.44444 5.36533 4.56178 5.472C4.67911 5.568 4.85511 5.616 5.08978 5.616Z" fill="#1F170F"/>
</svg>
