<svg width="7" height="6" viewBox="0 0 7 6" fill="none" xmlns="http://www.w3.org/2000/svg">
<path d="M0.496 5.9232C0.453333 5.90187 0.394667 5.8592 0.32 5.7952C0.256 5.7312 0.197333 5.6672 0.144 5.6032C0.112 5.5712 0.0853333 5.54453 0.064 5.5232C0.0426667 5.4912 0.0213333 5.46987 0 5.4592C0 5.38453 0.016 5.3312 0.048 5.2992C0.0906667 5.2672 0.133333 5.22987 0.176 5.1872C0.218667 5.1232 0.288 5.0912 0.384 5.0912C0.48 5.0912 0.554667 5.06453 0.608 5.0112C0.8 4.87253 0.997333 4.72853 1.2 4.5792C1.40267 4.42987 1.57333 4.25387 1.712 4.0512C1.86133 3.83787 2.01067 3.60853 2.16 3.3632C2.30933 3.11787 2.45333 2.87787 2.592 2.6432C2.63467 2.56853 2.704 2.4352 2.8 2.2432C2.896 2.0512 2.98667 1.86453 3.072 1.6832C3.168 1.4912 3.22133 1.35787 3.232 1.2832C3.136 1.2512 3.04533 1.22453 2.96 1.2032C2.88533 1.1712 2.81067 1.14453 2.736 1.1232C2.64 0.973867 2.58667 0.888533 2.576 0.8672C2.56533 0.8352 2.56 0.733867 2.56 0.5632C2.56 0.4352 2.62933 0.3552 2.768 0.3232C3.07733 0.248533 3.34933 0.200533 3.584 0.1792C3.82933 0.157867 4.06933 0.1152 4.304 0.0512C4.45333 0.0085332 4.63467 -0.00746675 4.848 0.00320009C5.06133 0.0138666 5.27467 0.0618666 5.488 0.1472C5.584 0.189867 5.664 0.2432 5.728 0.3072C5.792 0.3712 5.85067 0.445867 5.904 0.5312C6.04267 0.7232 6.112 0.888533 6.112 1.0272C6.12267 1.16587 6.11733 1.2992 6.096 1.4272C6.07467 1.5552 6.09067 1.6992 6.144 1.8592C6.06933 2.1472 5.99467 2.4032 5.92 2.6272C5.84533 2.84053 5.776 3.0432 5.712 3.2352C5.648 3.41653 5.58933 3.5872 5.536 3.7472C5.48267 3.9072 5.44 4.0672 5.408 4.2272C5.36533 4.39787 5.312 4.56853 5.248 4.7392C5.184 4.90987 5.136 5.08587 5.104 5.2672C5.08267 5.40587 5.01867 5.5072 4.912 5.5712C4.816 5.6352 4.70933 5.69387 4.592 5.7472C4.54933 5.75787 4.47467 5.7472 4.368 5.7152C4.272 5.67253 4.18133 5.61387 4.096 5.5392C4.064 5.42187 4.05333 5.3152 4.064 5.2192C4.07467 5.1232 4.096 5.0272 4.128 4.9312C4.16 4.84587 4.21867 4.65387 4.304 4.3552C4.38933 4.05653 4.48533 3.72053 4.592 3.3472C4.69867 2.97387 4.8 2.6272 4.896 2.3072C4.992 1.9872 5.056 1.7632 5.088 1.6352C5.14133 1.46453 5.15733 1.33653 5.136 1.2512C5.12533 1.16587 5.10933 1.08587 5.088 1.0112C4.864 0.925867 4.70933 0.8992 4.624 0.9312C4.54933 0.952533 4.45333 0.973867 4.336 0.9952C4.28267 1.03787 4.24 1.08587 4.208 1.1392C4.176 1.19253 4.15467 1.24587 4.144 1.2992C4.02667 1.60853 3.92533 1.85387 3.84 2.0352C3.76533 2.21653 3.69067 2.38187 3.616 2.5312C3.54133 2.66987 3.456 2.82453 3.36 2.9952C3.27467 3.16587 3.16267 3.40053 3.024 3.6992C2.93867 3.8912 2.832 4.0672 2.704 4.2272C2.58667 4.3872 2.48 4.55787 2.384 4.7392L2.208 4.9632C2.21867 4.9632 2.176 5.00587 2.08 5.0912C1.984 5.17653 1.888 5.26187 1.792 5.3472C1.70667 5.43253 1.664 5.4752 1.664 5.4752L1.168 5.8592C1.11467 5.90187 1.024 5.9232 0.896 5.9232C0.768 5.9232 0.634667 5.9232 0.496 5.9232Z" fill="#1F170F"/>
</svg>
