<svg width="8" height="6" viewBox="0 0 8 6" fill="none" xmlns="http://www.w3.org/2000/svg">
<path d="M6.96 5.796C6.85333 5.74267 6.77333 5.68933 6.72 5.636C6.66667 5.572 6.576 5.50267 6.448 5.428C6.40533 5.27867 6.35733 5.12933 6.304 4.98C6.26133 4.82 6.24533 4.66533 6.256 4.516C6.26667 4.43067 6.25067 4.34 6.208 4.244C6.176 4.13733 6.18133 4.04667 6.224 3.972C6.20267 3.80133 6.208 3.58267 6.24 3.316C6.272 3.03867 6.31467 2.77733 6.368 2.532C6.42133 2.276 6.45867 2.09467 6.48 1.988C6.448 1.94533 6.416 1.91867 6.384 1.908C6.36267 1.89733 6.33067 1.91333 6.288 1.956C6.18133 2.06267 6.08 2.16933 5.984 2.276C5.888 2.38267 5.78667 2.49467 5.68 2.612C5.63733 2.65467 5.58933 2.69733 5.536 2.74C5.48267 2.772 5.456 2.82533 5.456 2.9L4.88 3.668C4.83733 3.75333 4.75733 3.86533 4.64 4.004C4.53333 4.132 4.448 4.28667 4.384 4.468C4.36267 4.54267 4.32533 4.60667 4.272 4.66C4.21867 4.70267 4.16533 4.74533 4.112 4.788C3.97333 4.73467 3.88267 4.69733 3.84 4.676C3.79733 4.65467 3.71733 4.59067 3.6 4.484C3.49333 4.37733 3.41867 4.28133 3.376 4.196C3.33333 4.1 3.32267 4.004 3.344 3.908C3.344 3.748 3.344 3.524 3.344 3.236C3.35467 2.93733 3.35467 2.65467 3.344 2.388C3.344 2.11067 3.32267 1.91867 3.28 1.812C3.16267 1.82267 3.08267 1.83867 3.04 1.86C2.99733 1.88133 2.944 1.94533 2.88 2.052C2.89067 2.04133 2.84267 2.116 2.736 2.276C2.64 2.42533 2.50667 2.62267 2.336 2.868C2.176 3.10267 2.016 3.34267 1.856 3.588C1.696 3.82267 1.56267 4.02533 1.456 4.196C1.36 4.356 1.31733 4.43067 1.328 4.42C1.25333 4.50533 1.18933 4.596 1.136 4.692C1.09333 4.788 1.05067 4.88933 1.008 4.996C0.954667 5.124 0.896 5.20933 0.832 5.252C0.768 5.284 0.709333 5.27333 0.656 5.22C0.570667 5.16667 0.48 5.11333 0.384 5.06C0.298667 5.00667 0.224 4.95867 0.16 4.916C0.117333 4.84133 0.08 4.76667 0.048 4.692C0.0266667 4.60667 0.0106667 4.51067 0 4.404C0.0853333 4.35067 0.144 4.31867 0.176 4.308C0.208 4.28667 0.234667 4.24933 0.256 4.196C0.490667 3.844 0.693333 3.54533 0.864 3.3C1.03467 3.044 1.17867 2.836 1.296 2.676C1.41333 2.516 1.504 2.39333 1.568 2.308C1.632 2.212 1.66933 2.148 1.68 2.116C1.73333 2.00933 1.79733 1.908 1.872 1.812C1.95733 1.716 2.03733 1.61467 2.112 1.508C2.12267 1.476 2.176 1.40133 2.272 1.284C2.368 1.156 2.46933 1.028 2.576 0.9C2.68267 0.772 2.75733 0.697333 2.8 0.676C2.85333 0.644 2.89067 0.601333 2.912 0.548C2.944 0.484 2.976 0.42 3.008 0.356C3.02933 0.26 3.07733 0.190667 3.152 0.148C3.22667 0.105333 3.33867 0.0946667 3.488 0.116C3.57333 0.190667 3.66933 0.270667 3.776 0.356C3.88267 0.430667 3.99467 0.510667 4.112 0.596C4.10133 0.702667 4.096 0.814667 4.096 0.932C4.10667 1.04933 4.14933 1.23067 4.224 1.476C4.192 1.604 4.19733 1.73733 4.24 1.876C4.28267 2.01467 4.28267 2.14267 4.24 2.26C4.24 2.39867 4.272 2.5 4.336 2.564C4.41067 2.61733 4.52267 2.564 4.672 2.404C4.84267 2.19067 5.04533 1.96133 5.28 1.716C5.51467 1.46 5.744 1.22 5.968 0.996C6.20267 0.761333 6.4 0.564 6.56 0.404C6.73067 0.233333 6.832 0.126667 6.864 0.084C6.88533 0.0306667 6.92267 0.0040001 6.976 0.0040001C7.04 -0.00666675 7.09867 0.00399994 7.152 0.0360002C7.33333 0.132 7.456 0.201333 7.52 0.244C7.584 0.286667 7.67467 0.366667 7.792 0.484C7.89867 0.633333 7.91467 0.766667 7.84 0.884C7.79733 0.990667 7.73867 1.16667 7.664 1.412C7.6 1.64667 7.53067 1.908 7.456 2.196C7.392 2.484 7.33333 2.756 7.28 3.012C7.23733 3.25733 7.21067 3.44933 7.2 3.588C7.18933 3.80133 7.17867 4.02533 7.168 4.26C7.15733 4.484 7.17333 4.71867 7.216 4.964C7.30133 5.29467 7.32267 5.508 7.28 5.604C7.248 5.68933 7.14133 5.75333 6.96 5.796Z" fill="#1F170F"/>
</svg>
