<svg width="6" height="7" viewBox="0 0 6 7" fill="none" xmlns="http://www.w3.org/2000/svg">
<path d="M4.864 0.5616C5.01333 0.476267 5.168 0.4496 5.328 0.4816C5.488 0.502933 5.61067 0.572267 5.696 0.6896C5.792 0.796267 5.808 0.934933 5.744 1.1056C5.76533 1.0416 5.73867 1.08427 5.664 1.2336C5.6 1.37227 5.51467 1.5536 5.408 1.7776C5.312 2.0016 5.22133 2.21493 5.136 2.4176C5.06133 2.6096 5.01333 2.7216 4.992 2.7536V2.8016C5.16267 2.8016 5.264 2.85493 5.296 2.9616C5.33867 3.0576 5.35467 3.1696 5.344 3.2976C5.216 3.31893 5.12533 3.35627 5.072 3.4096C5.01867 3.45227 4.94933 3.47893 4.864 3.4896C4.832 3.4896 4.79467 3.5056 4.752 3.5376C4.70933 3.5696 4.68267 3.60693 4.672 3.6496C4.66133 3.6816 4.62933 3.8096 4.576 4.0336C4.53333 4.24693 4.48 4.4816 4.416 4.7376C4.36267 4.98293 4.31467 5.1696 4.272 5.2976C4.25067 5.38293 4.208 5.45227 4.144 5.5056C4.08 5.54827 4.03733 5.57493 4.016 5.5856C3.80267 5.50027 3.65867 5.44693 3.584 5.4256C3.52 5.3936 3.456 5.35093 3.392 5.2976C3.38133 5.2336 3.38133 5.15893 3.392 5.0736C3.40267 4.9776 3.42933 4.8656 3.472 4.7376C3.52533 4.5776 3.568 4.42827 3.6 4.2896C3.64267 4.14027 3.68533 3.93227 3.728 3.6656C3.68533 3.64427 3.59467 3.64427 3.456 3.6656C3.328 3.67627 3.18933 3.69227 3.04 3.7136C2.89067 3.73493 2.76267 3.75627 2.656 3.7776C2.56 3.79893 2.51733 3.80427 2.528 3.7936C2.47467 3.81493 2.37333 3.83093 2.224 3.8416C2.08533 3.8416 1.94133 3.83627 1.792 3.8256C1.65333 3.80427 1.552 3.78293 1.488 3.7616L1.392 3.8096C1.38133 3.91627 1.33333 4.07627 1.248 4.2896C1.16267 4.49227 1.12 4.68427 1.12 4.8656C1.10933 5.00427 1.088 5.14293 1.056 5.2816C1.024 5.42027 1.00267 5.56427 0.992 5.7136C0.981333 5.94827 0.917333 6.09227 0.8 6.1456C0.693333 6.19893 0.528 6.1616 0.304 6.0336C0.250667 6.0016 0.197333 5.96427 0.144 5.9216C0.101333 5.87893 0.0533334 5.83093 0 5.7776L0.256 4.5456C0.298667 4.39627 0.336 4.2576 0.368 4.1296C0.4 3.99093 0.437333 3.8576 0.48 3.7296C0.565333 3.49493 0.645333 3.25493 0.72 3.0096C0.805333 2.76427 0.901333 2.53493 1.008 2.3216C1.008 2.3216 1.024 2.26827 1.056 2.1616C1.09867 2.04427 1.14667 1.91627 1.2 1.7776C1.25333 1.62827 1.296 1.51093 1.328 1.4256C1.36 1.34027 1.36533 1.32427 1.344 1.3776C1.376 1.3136 1.424 1.19093 1.488 1.0096C1.552 0.8176 1.61067 0.636266 1.664 0.4656C1.728 0.284267 1.76 0.188267 1.76 0.1776C1.78133 0.1136 1.81333 0.0709333 1.856 0.0495999C1.89867 0.0176 1.952 0.00160005 2.016 0.00160005C2.19733 -0.0090668 2.34667 0.0335998 2.464 0.1296C2.58133 0.214933 2.64533 0.3216 2.656 0.4496C2.64533 0.5136 2.64 0.572267 2.64 0.6256C2.64 0.678933 2.62933 0.7216 2.608 0.7536L1.776 2.7856V2.9136C1.88267 2.9776 2.03733 2.98827 2.24 2.9456C2.45333 2.89227 2.61333 2.8656 2.72 2.8656C2.77333 2.85493 2.896 2.84427 3.088 2.8336C3.29067 2.82293 3.48267 2.8176 3.664 2.8176C3.856 2.8176 3.95733 2.82293 3.968 2.8336C4.08533 2.5136 4.192 2.21493 4.288 1.9376C4.384 1.6496 4.51733 1.35627 4.688 1.0576C4.69867 1.03627 4.72 0.966933 4.752 0.8496C4.79467 0.732267 4.832 0.636267 4.864 0.5616Z" fill="#1F170F"/>
</svg>
