<svg width="7" height="11" viewBox="0 0 7 11" fill="none" xmlns="http://www.w3.org/2000/svg">
<path d="M0.416 10.3703C0.373333 10.3703 0.32 10.3703 0.256 10.3703C0.192 10.381 0.133333 10.3383 0.08 10.2423C0.0373334 10.189 0.0106667 10.109 0 10.0023C0 9.89562 0.0266667 9.70362 0.08 9.42629C0.133333 9.24495 0.176 9.06362 0.208 8.88229C0.24 8.71162 0.256 8.58362 0.256 8.49829C0.256 8.45562 0.266667 8.37029 0.288 8.24229C0.32 8.12495 0.336 8.03962 0.336 7.98629C0.389333 7.90095 0.432 7.78362 0.464 7.63429C0.496 7.48495 0.512 7.35162 0.512 7.23429C0.512 7.10629 0.576 6.98895 0.704 6.88229C0.704 6.79695 0.72 6.69029 0.752 6.56229C0.794667 6.43429 0.816 6.34895 0.816 6.30629C0.848 6.15695 0.917333 5.89562 1.024 5.52229C1.14133 5.13829 1.28 4.70629 1.44 4.22629C1.61067 3.74629 1.776 3.27695 1.936 2.81829C2.096 2.35962 2.24 1.97029 2.368 1.65029C2.496 1.35162 2.58133 1.09562 2.624 0.882286C2.67733 0.658286 2.704 0.492952 2.704 0.386286C2.704 0.343619 2.71467 0.311619 2.736 0.290286C2.75733 0.258286 2.80533 0.199619 2.88 0.114286C2.98667 0.00761894 3.07733 -0.024381 3.152 0.0182858C3.23733 0.0609522 3.33867 0.124952 3.456 0.210286C3.54133 0.348952 3.6 0.466285 3.632 0.562285C3.67467 0.658286 3.67467 0.823619 3.632 1.05829C3.632 1.21829 3.60533 1.35695 3.552 1.47429C3.49867 1.59162 3.45067 1.68229 3.408 1.74629C3.36533 1.79962 3.35467 1.82095 3.376 1.81029C3.81333 1.60762 4.19733 1.50095 4.528 1.49029C4.86933 1.46895 5.152 1.52762 5.376 1.66629C5.61067 1.79429 5.78667 1.97562 5.904 2.21029C6.02133 2.44495 6.08 2.71695 6.08 3.02629C6.08 3.15429 6.05333 3.30895 6 3.49029C5.94667 3.66095 5.87733 3.82095 5.792 3.97029C5.71733 4.10895 5.648 4.21029 5.584 4.27429C5.54133 4.27429 5.49867 4.31162 5.456 4.38629C5.41333 4.45029 5.37067 4.52495 5.328 4.61029C5.24267 4.71695 5.104 4.83962 4.912 4.97829C4.73067 5.10629 4.54933 5.21295 4.368 5.29829C4.18667 5.37295 4.05333 5.39429 3.968 5.36229C3.968 5.36229 3.952 5.36762 3.92 5.37829C3.89867 5.37829 3.888 5.40495 3.888 5.45829C3.888 5.47962 3.80267 5.52762 3.632 5.60229C3.46133 5.66629 3.264 5.73029 3.04 5.79429C2.816 5.84762 2.61867 5.87429 2.448 5.87429C2.224 5.87429 2.064 5.83162 1.968 5.74629C1.94667 5.76762 1.92 5.79962 1.888 5.84229C1.86667 5.88495 1.856 5.92229 1.856 5.95429C1.856 6.01829 1.82933 6.14095 1.776 6.32229C1.73333 6.49295 1.68 6.65829 1.616 6.81829C1.552 6.97829 1.49333 7.05829 1.44 7.05829C1.44 7.05829 1.42933 7.07429 1.408 7.10629C1.38667 7.13829 1.39733 7.18095 1.44 7.23429C1.44 7.23429 1.43467 7.29295 1.424 7.41029C1.424 7.53829 1.39733 7.64495 1.344 7.73029C1.344 7.81562 1.328 7.94362 1.296 8.11429C1.264 8.28495 1.22667 8.41295 1.184 8.49829C1.184 8.62629 1.16267 8.74895 1.12 8.86629C1.088 8.99429 1.05067 9.05829 1.008 9.05829C0.965333 9.06895 0.938667 9.13295 0.928 9.25029C0.917333 9.37829 0.912 9.46895 0.912 9.52229C0.901333 9.78895 0.848 9.99695 0.752 10.1463C0.656 10.2956 0.544 10.3703 0.416 10.3703ZM2.352 5.02629C2.43733 5.02629 2.61333 4.98895 2.88 4.91429C3.14667 4.83962 3.41867 4.74895 3.696 4.64229C3.984 4.52495 4.19733 4.40762 4.336 4.29029C4.61333 4.04495 4.82667 3.76762 4.976 3.45829C5.136 3.13829 5.12533 2.83429 4.944 2.54629C4.85867 2.39695 4.704 2.33829 4.48 2.37029C4.256 2.39162 4.01067 2.47695 3.744 2.62629C3.47733 2.77562 3.22667 2.96229 2.992 3.18629C2.864 3.32495 2.74667 3.49562 2.64 3.69829C2.53333 3.90095 2.44267 4.10362 2.368 4.30629C2.304 4.50895 2.26667 4.67962 2.256 4.81829C2.24533 4.95695 2.27733 5.02629 2.352 5.02629Z" fill="#1F170F"/>
</svg>
