<svg width="5" height="7" viewBox="0 0 5 7" fill="none" xmlns="http://www.w3.org/2000/svg">
<path d="M1.70708 6.128C1.39774 6.18133 1.11508 6.16533 0.859077 6.08C0.603077 5.984 0.395077 5.82933 0.235077 5.616C0.0857436 5.392 0.011077 5.10933 0.011077 4.768C-0.0209231 4.448 0.0164102 4.08 0.123077 3.664C0.229744 3.23733 0.38441 2.81067 0.587077 2.384C0.80041 1.95733 1.02974 1.58933 1.27508 1.28C1.48841 1.024 1.70174 0.789333 1.91508 0.576C2.12841 0.362667 2.32041 0.218667 2.49108 0.144C2.64041 0.0799999 2.77908 0.0426666 2.90708 0.0320001C3.04574 0.0106667 3.15774 0 3.24308 0C3.41374 0.0426668 3.59508 0.122667 3.78708 0.24C3.98974 0.346667 4.09108 0.464 4.09108 0.592C4.09108 0.592 4.10174 0.608 4.12308 0.64C4.15508 0.661333 4.17108 0.672 4.17108 0.672C4.23508 0.672 4.28841 0.741333 4.33108 0.88C4.38441 1.01867 4.41641 1.17867 4.42708 1.36C4.43774 1.53067 4.41108 1.67467 4.34708 1.792C4.30441 1.99467 4.22974 2.17067 4.12308 2.32C4.01641 2.46933 3.92041 2.544 3.83508 2.544C3.79241 2.544 3.74974 2.54933 3.70708 2.56C3.67508 2.56 3.65908 2.58667 3.65908 2.64C3.65908 2.69333 3.62708 2.71467 3.56308 2.704C3.50974 2.69333 3.45108 2.66133 3.38708 2.608C3.32308 2.544 3.27508 2.46933 3.24308 2.384C3.24308 2.33067 3.26441 2.24 3.30708 2.112C3.34974 1.984 3.39241 1.81867 3.43508 1.616C3.49908 1.31733 3.49374 1.12533 3.41908 1.04C3.34441 0.944 3.20041 0.938667 2.98708 1.024C2.72041 1.17333 2.46441 1.38133 2.21908 1.648C1.98441 1.91467 1.76574 2.26133 1.56308 2.688C1.36041 3.104 1.17908 3.62667 1.01908 4.256C0.955077 4.50133 0.92841 4.71467 0.939077 4.896C0.96041 5.07733 0.987077 5.17333 1.01908 5.184C1.16841 5.22667 1.37108 5.23733 1.62708 5.216C1.88308 5.184 2.06974 5.136 2.18708 5.072C2.35774 4.98667 2.54974 4.87467 2.76308 4.736C2.97641 4.58667 3.16308 4.45333 3.32308 4.336C3.37641 4.304 3.44041 4.25067 3.51508 4.176C3.58974 4.10133 3.66974 4.04267 3.75508 4C3.84041 3.872 3.91508 3.79733 3.97908 3.776C4.04308 3.75467 4.13908 3.744 4.26708 3.744C4.35241 3.76533 4.43241 3.79733 4.50708 3.84C4.58174 3.88267 4.62974 3.92533 4.65108 3.968C4.68308 4.01067 4.66708 4.048 4.60308 4.08C4.56041 4.08 4.53374 4.096 4.52308 4.128C4.52308 4.14933 4.52308 4.16 4.52308 4.16C4.54441 4.20267 4.49641 4.29333 4.37908 4.432C4.27241 4.56 4.13374 4.704 3.96308 4.864C3.79241 5.024 3.62708 5.16267 3.46708 5.28C3.31774 5.38667 3.21108 5.44 3.14708 5.44C3.04041 5.44 2.98708 5.472 2.98708 5.536C2.98708 5.55733 2.90708 5.61067 2.74708 5.696C2.59774 5.78133 2.42174 5.86667 2.21908 5.952C2.02708 6.03733 1.85641 6.096 1.70708 6.128Z" fill="#1F170F"/>
</svg>
