<svg width="6" height="7" viewBox="0 0 6 7" fill="none" xmlns="http://www.w3.org/2000/svg">
<path d="M0.3712 6.02133C0.3392 5.97867 0.3072 5.94667 0.2752 5.92533C0.2432 5.89333 0.205867 5.86133 0.1632 5.82933C0.1312 5.78667 0.0778667 5.73333 0.00320001 5.66933C-0.00746668 5.54133 0.00853331 5.36533 0.0512 5.14133C0.104533 4.91733 0.1632 4.69333 0.2272 4.46933C0.2912 4.24533 0.344533 4.08 0.3872 3.97333C0.3872 3.97333 0.413867 3.88267 0.4672 3.70133C0.5312 3.52 0.605867 3.30133 0.6912 3.04533C0.776533 2.77867 0.861867 2.51733 0.9472 2.26133C1.0432 1.99467 1.11787 1.776 1.1712 1.60533C1.2352 1.424 1.2672 1.33333 1.2672 1.33333C1.28853 1.29067 1.2992 1.248 1.2992 1.20533C1.2992 1.152 1.2992 1.088 1.2992 1.01333C1.2672 0.821333 1.2832 0.677333 1.3472 0.581333C1.42187 0.485333 1.48053 0.384 1.5232 0.277333C1.64053 0.288 1.72053 0.288 1.7632 0.277333C1.81653 0.266667 1.8752 0.277333 1.9392 0.309333C2.01387 0.32 2.15787 0.309333 2.3712 0.277333C2.58453 0.245333 2.79787 0.202667 3.0112 0.149333C3.2352 0.096 3.38453 0.0533334 3.4592 0.0213335C3.60853 0.0213335 3.75253 0.0160001 3.8912 0.00533321C4.04053 -0.00533332 4.18453 1.06171e-07 4.3232 0.0213335C4.50453 0.0213335 4.66453 0.0853335 4.8032 0.213333C4.94187 0.341333 5.03787 0.442667 5.0912 0.517333C5.06987 0.56 5.0432 0.602667 5.0112 0.645333C4.98987 0.677333 4.96853 0.709333 4.9472 0.741333C4.92587 0.773333 4.8992 0.805333 4.8672 0.837333C4.8032 0.837333 4.66987 0.837333 4.4672 0.837333C4.26453 0.837333 4.04587 0.848 3.8112 0.869334C3.5872 0.890667 3.40053 0.928 3.2512 0.981333C3.11253 1.024 2.9632 1.05067 2.8032 1.06133C2.65387 1.06133 2.5152 1.088 2.3872 1.14133C2.33387 1.19467 2.28053 1.30133 2.2272 1.46133C2.17387 1.62133 2.12587 1.78667 2.0832 1.95733C2.04053 2.128 2.0032 2.256 1.9712 2.34133C1.9712 2.33067 1.9392 2.40533 1.8752 2.56533C1.82187 2.72533 1.75787 2.90667 1.6832 3.10933C1.6192 3.312 1.56587 3.47733 1.5232 3.60533C1.48053 3.66933 1.4272 3.792 1.3632 3.97333C1.2992 4.15467 1.24053 4.336 1.1872 4.51733C1.13387 4.69867 1.09653 4.832 1.0752 4.91733C1.03253 5.10933 0.9792 5.30133 0.9152 5.49333C0.8512 5.67467 0.7712 5.856 0.6752 6.03733C0.632533 6.03733 0.584533 6.03733 0.5312 6.03733C0.477867 6.02667 0.424533 6.02133 0.3712 6.02133Z" fill="#1F170F"/>
</svg>
