<svg width="5" height="7" viewBox="0 0 5 7" fill="none" xmlns="http://www.w3.org/2000/svg">
<path d="M1.232 6.64229C1.02933 6.62095 0.853333 6.56762 0.704 6.48229C0.565333 6.38629 0.437333 6.30095 0.32 6.22629C0.309333 6.21562 0.261333 6.10895 0.176 5.90629C0.0906667 5.70362 0.048 5.49562 0.048 5.28229C0.048 5.22895 0.0586666 5.17029 0.0799999 5.10629C0.101333 5.04229 0.112 4.97295 0.112 4.89829L0.288 4.16229C0.352 3.99162 0.448 3.78895 0.576 3.55429C0.714667 3.31962 0.837333 3.10629 0.944 2.91429C1.09333 2.69029 1.25333 2.43962 1.424 2.16229C1.60533 1.88495 1.76 1.62895 1.888 1.39429C2.02667 1.15962 2.096 1.00495 2.096 0.930286C1.95733 0.876952 1.86133 0.850286 1.808 0.850286C1.76533 0.839619 1.71733 0.839619 1.664 0.850286C1.62133 0.860952 1.536 0.882286 1.408 0.914285C1.23733 0.967619 1.07733 1.04229 0.928 1.13829C0.778667 1.22362 0.629333 1.31429 0.48 1.41029C0.341333 1.37829 0.234667 1.31429 0.16 1.21829C0.0853333 1.11162 0.032 0.967619 0 0.786286C0.0213333 0.690286 0.096 0.604952 0.224 0.530286C0.352 0.455619 0.48 0.386286 0.608 0.322285C0.693333 0.290286 0.821333 0.242286 0.992 0.178285C1.16267 0.103619 1.31733 0.0716189 1.456 0.0822857C1.63733 0.0182856 1.82933 -0.00838106 2.032 0.00228578C2.23467 0.00228578 2.42667 0.0396191 2.608 0.114286C2.78933 0.188952 2.93333 0.300952 3.04 0.450286C3.04 0.620952 3.04 0.759619 3.04 0.866286C3.04 0.962286 3.024 1.05829 2.992 1.15429C2.97067 1.25029 2.91733 1.37829 2.832 1.53829C2.74667 1.70895 2.65067 1.87429 2.544 2.03429C2.448 2.19429 2.352 2.35962 2.256 2.53029L2.672 2.49829C3.10933 2.44495 3.44533 2.54629 3.68 2.80229C3.91467 3.04762 4.032 3.37295 4.032 3.77829C4.04267 4.17295 3.90933 4.57295 3.632 4.97829C3.55733 5.09562 3.48267 5.20762 3.408 5.31429C3.344 5.42095 3.264 5.51695 3.168 5.60229C2.80533 5.90095 2.48533 6.15162 2.208 6.35429C1.93067 6.54629 1.60533 6.64229 1.232 6.64229ZM1.36 5.79429C1.616 5.70895 1.84533 5.59162 2.048 5.44229C2.25067 5.28229 2.46933 5.05295 2.704 4.75429C2.90667 4.55162 3.02933 4.31162 3.072 4.03429C3.11467 3.75695 3.09333 3.50629 3.008 3.28229C2.976 3.18629 2.928 3.12229 2.864 3.09029C2.8 3.05829 2.72533 3.05295 2.64 3.07429L1.76 3.29829C1.728 3.36229 1.66933 3.46895 1.584 3.61829C1.49867 3.75695 1.41867 3.90095 1.344 4.05029C1.26933 4.18895 1.216 4.29029 1.184 4.35429C1.10933 4.53562 1.04 4.77029 0.976 5.05829C0.922667 5.33562 0.906667 5.57562 0.928 5.77829C1.07733 5.78895 1.168 5.79962 1.2 5.81029C1.24267 5.81029 1.296 5.80495 1.36 5.79429Z" fill="#1F170F"/>
</svg>
