<svg width="5" height="6" viewBox="0 0 5 6" fill="none" xmlns="http://www.w3.org/2000/svg">
<path d="M3.632 5.84436C3.52533 5.7377 3.41867 5.5937 3.312 5.41236C3.20533 5.22036 3.12 5.0017 3.056 4.75636C3.03467 4.67103 3.024 4.5537 3.024 4.40436C3.03467 4.25503 3.03467 4.14836 3.024 4.08436C2.992 4.15903 2.93867 4.23903 2.864 4.32436C2.8 4.39903 2.736 4.46303 2.672 4.51636C2.62933 4.55903 2.53333 4.64436 2.384 4.77236C2.23467 4.8897 2.08533 4.9857 1.936 5.06036C1.584 5.28436 1.29067 5.40703 1.056 5.42836C0.832 5.4497 0.618667 5.33236 0.416 5.07636C0.245333 4.9377 0.122667 4.78303 0.048 4.61236C-0.016 4.4417 -0.016 4.20703 0.048 3.90836C0.0693334 3.53503 0.122667 3.17236 0.208 2.82036C0.293333 2.4577 0.469333 1.9777 0.736 1.38036C0.96 0.94303 1.13067 0.62303 1.248 0.420363C1.36533 0.20703 1.44 0.0790301 1.472 0.0363636C1.632 -0.0169696 1.76533 -0.0116364 1.872 0.0523634C1.97867 0.105697 2.04267 0.20703 2.064 0.356363C2.128 0.46303 2.11733 0.644364 2.032 0.900364C1.95733 1.15636 1.824 1.47103 1.632 1.84436C1.48267 2.20703 1.344 2.5697 1.216 2.93236C1.09867 3.29503 1.02933 3.60436 1.008 3.86036C0.986667 4.11636 1.05067 4.27103 1.2 4.32436C1.296 4.3777 1.46133 4.3617 1.696 4.27636C1.94133 4.19103 2.21333 3.9777 2.512 3.63636C2.82133 3.29503 3.12 2.7777 3.408 2.08436C3.49333 1.87103 3.55733 1.68436 3.6 1.52436C3.64267 1.3537 3.66933 1.16703 3.68 0.964364C3.65867 0.836364 3.664 0.724364 3.696 0.628364C3.73867 0.521697 3.824 0.43103 3.952 0.356363C3.99467 0.30303 4.05333 0.25503 4.128 0.212364C4.20267 0.15903 4.25067 0.15903 4.272 0.212364L4.528 0.196363C4.57067 0.185697 4.59733 0.212364 4.608 0.276363C4.62933 0.329697 4.66667 0.377697 4.72 0.420363C4.83733 0.516363 4.86933 0.724363 4.816 1.04436C4.76267 1.36436 4.61333 1.81236 4.368 2.38836C4.16533 2.8257 4.02667 3.15636 3.952 3.38036C3.888 3.60436 3.85067 3.82303 3.84 4.03636C3.84 4.22836 3.87733 4.4097 3.952 4.58036C4.02667 4.75103 4.144 4.9057 4.304 5.04436C4.42133 5.11903 4.48533 5.20436 4.496 5.30036C4.51733 5.39636 4.52267 5.50836 4.512 5.63636C4.49067 5.73236 4.42667 5.81236 4.32 5.87636C4.224 5.9297 4.112 5.95636 3.984 5.95636C3.856 5.95636 3.73867 5.91903 3.632 5.84436Z" fill="#1F170F"/>
</svg>
