<svg width="6" height="7" viewBox="0 0 6 7" fill="none" xmlns="http://www.w3.org/2000/svg">
<path d="M3.89029 6.01723C3.71962 5.9639 3.57029 5.8839 3.44229 5.77723C3.31429 5.6599 3.19162 5.5319 3.07429 5.39323C3.02095 5.32923 2.93029 5.20123 2.80229 5.00923C2.67429 4.81723 2.53562 4.6039 2.38629 4.36923C2.24762 4.13456 2.11429 3.9159 1.98629 3.71323C1.85829 3.4999 1.76229 3.3399 1.69829 3.23323C1.64495 3.39323 1.58629 3.52656 1.52229 3.63323C1.46895 3.72923 1.44229 3.8839 1.44229 4.09723C1.33562 4.24656 1.25562 4.41723 1.20229 4.60923C1.15962 4.79056 1.11162 4.9719 1.05829 5.15323C1.02629 5.27056 0.972952 5.37723 0.898286 5.47323C0.834286 5.56923 0.748952 5.65456 0.642286 5.72923C0.514286 5.71856 0.402286 5.6759 0.306286 5.60123C0.220952 5.52656 0.146286 5.4519 0.0822858 5.37723C0.0182857 5.24923 -0.00838097 5.12656 0.00228572 5.00923C0.0129524 4.8919 0.0396191 4.7799 0.0822858 4.67323C0.103619 4.57723 0.162286 4.39056 0.258286 4.11323C0.364952 3.8359 0.476952 3.53723 0.594286 3.21723C0.711619 2.88656 0.818286 2.59323 0.914286 2.33723C1.01029 2.07056 1.06362 1.90523 1.07429 1.84123C1.13829 1.6279 1.25029 1.39856 1.41029 1.15323C1.58095 0.897231 1.69829 0.619898 1.76229 0.321231C1.78362 0.246564 1.83695 0.177231 1.92229 0.113231C2.00762 0.0385641 2.10362 0.00123074 2.21029 0.00123074C2.32762 -0.00943579 2.42362 0.0492309 2.49829 0.177231C2.51962 0.187897 2.55162 0.203897 2.59429 0.225231C2.63695 0.235898 2.66895 0.257231 2.69029 0.289231C2.77562 0.385231 2.82362 0.486564 2.83429 0.593231C2.85562 0.699898 2.83429 0.811898 2.77029 0.929231C2.63162 1.17456 2.51429 1.37723 2.41829 1.53723C2.33295 1.68656 2.24762 1.8519 2.16229 2.03323C2.07695 2.21456 1.98095 2.46523 1.87429 2.78523C2.05562 2.74256 2.18895 2.71056 2.27429 2.68923C2.35962 2.65723 2.43962 2.60923 2.51429 2.54523C2.59962 2.47056 2.71162 2.35856 2.85029 2.20923C2.90362 2.1559 3.01029 2.05456 3.17029 1.90523C3.34095 1.74523 3.51695 1.57456 3.69829 1.39323C3.89029 1.2119 4.05562 1.0519 4.19429 0.913231C4.34362 0.774564 4.42362 0.694564 4.43429 0.673231C4.49829 0.577231 4.56229 0.491897 4.62629 0.417231C4.70095 0.331897 4.79695 0.267897 4.91429 0.225231C5.07429 0.246564 5.18629 0.278564 5.25029 0.321231C5.31429 0.353231 5.43695 0.443897 5.61829 0.593231C5.67162 0.635897 5.69295 0.737231 5.68229 0.897231C5.67162 1.04656 5.61295 1.1639 5.50629 1.24923C5.31429 1.39856 5.07429 1.59056 4.78629 1.82523C4.49829 2.0599 4.18895 2.30523 3.85829 2.56123C3.53829 2.81723 3.21829 3.05723 2.89829 3.28123C3.04762 3.52656 3.18095 3.76123 3.29829 3.98523C3.41562 4.19856 3.51162 4.3799 3.58629 4.52923C3.60762 4.7959 3.70362 4.97723 3.87429 5.07323C4.05562 5.15856 4.27429 5.20123 4.53029 5.20123C4.61562 5.2439 4.66895 5.29723 4.69029 5.36123C4.72229 5.41456 4.73829 5.47856 4.73829 5.55323C4.74895 5.61723 4.75962 5.68123 4.77029 5.74523C4.62095 5.84123 4.51429 5.92656 4.45029 6.00123C4.39695 6.06523 4.33295 6.10256 4.25829 6.11323C4.19429 6.11323 4.07162 6.08123 3.89029 6.01723Z" fill="#1F170F"/>
</svg>
