<svg width="6" height="6" viewBox="0 0 6 6" fill="none" xmlns="http://www.w3.org/2000/svg">
<path d="M5.36 5.62909C5.31733 5.62909 5.25867 5.62376 5.184 5.61309C5.12 5.60242 5.06667 5.57576 5.024 5.53309C4.98133 5.53309 4.90667 5.51709 4.8 5.48509C4.69333 5.45309 4.59733 5.41576 4.512 5.37309C4.40533 5.33042 4.26133 5.24509 4.08 5.11709C3.89867 4.97842 3.71733 4.82909 3.536 4.66909C3.35467 4.50909 3.2 4.35976 3.072 4.22109C2.95467 4.08242 2.896 3.98109 2.896 3.91709C2.896 3.86376 2.86933 3.83709 2.816 3.83709C2.816 3.83709 2.8 3.82109 2.768 3.78909C2.736 3.74642 2.72 3.70376 2.72 3.66109C2.72 3.55442 2.66667 3.50109 2.56 3.50109C2.56 3.50109 2.46933 3.57576 2.288 3.72509C2.10667 3.87442 1.90933 4.05576 1.696 4.26909C1.39733 4.56776 1.17333 4.78642 1.024 4.92509C0.885333 5.05309 0.773333 5.11709 0.688 5.11709C0.602667 5.11709 0.506667 5.08509 0.4 5.02109C0.293333 4.95709 0.197333 4.88242 0.112 4.79709C0.0373333 4.70109 0 4.61042 0 4.52509C0 4.52509 0.106667 4.40242 0.32 4.15709C0.544 3.91176 0.805333 3.66109 1.104 3.40509L2.128 2.39709L1.952 1.78909C1.87733 1.61842 1.79733 1.44242 1.712 1.26109C1.63733 1.06909 1.57867 0.909091 1.536 0.781091C1.408 0.599757 1.33867 0.487757 1.328 0.445091C1.328 0.391757 1.37067 0.301091 1.456 0.173091C1.54133 0.0877574 1.61067 0.0344241 1.664 0.013091C1.728 -0.0189092 1.824 0.00775747 1.952 0.093091C2.016 0.093091 2.10133 0.183758 2.208 0.365091C2.31467 0.535758 2.41067 0.727758 2.496 0.941091C2.592 1.14376 2.64 1.28776 2.64 1.37309C2.64 1.54376 2.704 1.61309 2.832 1.58109C2.96 1.54909 3.152 1.44776 3.408 1.27709C3.536 1.15976 3.63733 1.06376 3.712 0.989091C3.78667 0.903757 3.824 0.861091 3.824 0.861091C3.856 0.829091 3.952 0.759757 4.112 0.653091C4.272 0.535757 4.43733 0.418424 4.608 0.301091C4.77867 0.183758 4.89067 0.114424 4.944 0.093091C5.02933 0.0290908 5.12533 0.0290908 5.232 0.093091C5.33867 0.146424 5.42933 0.231758 5.504 0.349091C5.57867 0.455758 5.616 0.567758 5.616 0.685091C5.616 0.813091 5.584 0.914424 5.52 0.989091C5.456 1.06376 5.31733 1.15976 5.104 1.27709C4.912 1.41576 4.74133 1.53842 4.592 1.64509C4.45333 1.75176 4.304 1.86909 4.144 1.99709C3.99467 2.11442 3.80267 2.27442 3.568 2.47709L3.152 2.81309L3.408 3.24509C3.45067 3.31976 3.50933 3.42642 3.584 3.56509C3.66933 3.70376 3.74933 3.79442 3.824 3.83709C3.888 3.92242 4.01067 4.03976 4.192 4.18909C4.37333 4.33842 4.54933 4.47709 4.72 4.60509C4.90133 4.72242 5.00267 4.78109 5.024 4.78109C5.06667 4.78109 5.11467 4.79709 5.168 4.82909C5.22133 4.86109 5.28533 4.89842 5.36 4.94109C5.44533 5.02642 5.49867 5.12242 5.52 5.22909C5.552 5.33576 5.552 5.43176 5.52 5.51709C5.49867 5.59176 5.44533 5.62909 5.36 5.62909Z" fill="#1F170F"/>
</svg>
