<svg width="6" height="6" viewBox="0 0 6 6" fill="none" xmlns="http://www.w3.org/2000/svg">
<path d="M0.576 5.7152C0.448 5.69387 0.346667 5.6352 0.272 5.5392C0.208 5.43253 0.117333 5.33653 0 5.2512C0 5.13387 0.0266667 4.9472 0.08 4.6912C0.144 4.42453 0.218667 4.1632 0.304 3.9072C0.389333 3.64053 0.458667 3.44853 0.512 3.3312C0.554667 3.05387 0.624 2.7872 0.72 2.5312C0.826667 2.2752 0.912 2.02453 0.976 1.7792C1.02933 1.56587 1.07733 1.3632 1.12 1.1712C1.17333 0.9792 1.22667 0.792533 1.28 0.6112C1.33333 0.472533 1.36 0.376533 1.36 0.3232C1.36 0.2592 1.37067 0.2112 1.392 0.1792C1.424 0.136533 1.504 0.0832 1.632 0.0191999C1.74933 0.0618666 1.856 0.0885333 1.952 0.0991998C2.05867 0.0991998 2.15467 0.0725332 2.24 0.0191999C2.25067 0.00853336 2.33067 0.00853336 2.48 0.0191999C2.64 0.0191999 2.816 0.0191999 3.008 0.0191999C3.2 0.0191999 3.344 0.0138666 3.44 0.00320009C3.58933 -0.00746675 3.73333 0.0085332 3.872 0.0512C4.01067 0.0938667 4.16 0.1152 4.32 0.1152C4.52267 0.189867 4.70933 0.2752 4.88 0.3712C5.05067 0.4672 5.184 0.584533 5.28 0.7232C5.38667 0.8512 5.43467 1.01653 5.424 1.2192C5.40267 1.3792 5.392 1.54453 5.392 1.7152C5.392 1.88587 5.34933 2.04587 5.264 2.1952C5.25333 2.30187 5.2 2.47787 5.104 2.7232C5.008 2.95787 4.912 3.20853 4.816 3.4752C4.73067 3.7312 4.67733 3.94453 4.656 4.1152C4.64533 4.18987 4.61333 4.26453 4.56 4.3392C4.51733 4.4032 4.50133 4.47787 4.512 4.5632C4.52267 4.66987 4.50667 4.8032 4.464 4.9632C4.432 5.11253 4.37867 5.22987 4.304 5.3152C4.208 5.42187 4.09067 5.46453 3.952 5.4432C3.81333 5.4112 3.69067 5.3472 3.584 5.2512C3.488 5.14453 3.44533 5.0272 3.456 4.8992C3.456 4.7712 3.46133 4.61653 3.472 4.4352C3.49333 4.2432 3.50933 4.07787 3.52 3.9392C3.59467 3.86453 3.632 3.7952 3.632 3.7312C3.64267 3.65653 3.65333 3.58187 3.664 3.5072C3.76 3.2832 3.856 3.00053 3.952 2.6592C4.05867 2.3072 4.144 1.9712 4.208 1.6512C4.272 1.3312 4.28267 1.10187 4.24 0.9632C4.06933 0.9632 3.84533 0.973867 3.568 0.9952C3.29067 1.00587 3.03467 1.02187 2.8 1.0432C2.576 1.05387 2.45333 1.0592 2.432 1.0592C2.38933 1.06987 2.352 1.09653 2.32 1.1392C2.288 1.1712 2.272 1.2032 2.272 1.2352C2.22933 1.50187 2.15467 1.7632 2.048 2.0192C1.94133 2.26453 1.86133 2.52053 1.808 2.7872C1.79733 2.86187 1.76 2.98987 1.696 3.1712C1.632 3.34187 1.55733 3.53387 1.472 3.7472C1.39733 3.94987 1.328 4.15253 1.264 4.3552C1.2 4.5472 1.168 4.70187 1.168 4.8192C1.12533 4.89387 1.09333 4.9792 1.072 5.0752C1.05067 5.1712 1.04 5.29387 1.04 5.4432C1.02933 5.52853 0.986667 5.5872 0.912 5.6192C0.837333 5.6512 0.725333 5.6832 0.576 5.7152Z" fill="#1F170F"/>
</svg>
