<svg width="9" height="5" viewBox="0 0 9 5" fill="none" xmlns="http://www.w3.org/2000/svg">
<path d="M0.804 4.896C0.665333 4.768 0.537333 4.66133 0.42 4.576C0.313333 4.48 0.222667 4.368 0.148 4.24C0.084 4.10133 0.036 3.90933 0.00400002 3.664C-0.00666667 3.472 0.00399997 3.29067 0.036 3.12C0.0679999 2.94933 0.116 2.784 0.18 2.624C0.276 2.38933 0.377333 2.16 0.484 1.936C0.590667 1.712 0.697333 1.48267 0.804 1.248C0.942667 0.917334 1.092 0.629334 1.252 0.384C1.412 0.128 1.56667 0 1.716 0C1.89733 0.0106668 2.02533 0.0746668 2.1 0.192C2.18533 0.298667 2.29733 0.442667 2.436 0.624C2.41467 0.730667 2.37733 0.837333 2.324 0.944C2.27067 1.04 2.20667 1.13067 2.132 1.216C1.99333 1.35467 1.876 1.50933 1.78 1.68C1.684 1.85067 1.60933 2.02667 1.556 2.208C1.48133 2.368 1.40667 2.528 1.332 2.688C1.25733 2.83733 1.188 2.992 1.124 3.152C0.932 3.504 0.862667 3.71733 0.916 3.792C0.969333 3.86667 1.092 3.84 1.284 3.712C1.48667 3.584 1.7 3.39733 1.924 3.152C2.116 2.94933 2.26533 2.79467 2.372 2.688C2.47867 2.58133 2.58 2.464 2.676 2.336C2.708 2.304 2.78267 2.208 2.9 2.048C3.028 1.87733 3.156 1.70133 3.284 1.52C3.42267 1.328 3.524 1.19467 3.588 1.12C3.67333 1.01333 3.748 0.906667 3.812 0.8C3.876 0.682667 3.92933 0.565333 3.972 0.448C3.99333 0.341333 4.036 0.272 4.1 0.24C4.17467 0.197333 4.26533 0.186667 4.372 0.208C4.47867 0.272 4.58533 0.346667 4.692 0.432C4.79867 0.506667 4.88933 0.634667 4.964 0.816C5.01733 0.922667 4.996 1.088 4.9 1.312C4.81467 1.536 4.71333 1.76 4.596 1.984C4.5 2.176 4.42533 2.37333 4.372 2.576C4.32933 2.77867 4.28133 2.98667 4.228 3.2C4.196 3.34933 4.228 3.52 4.324 3.712C4.53733 3.62667 4.69733 3.53067 4.804 3.424C4.92133 3.30667 5.028 3.184 5.124 3.056C5.23067 2.928 5.36933 2.81067 5.54 2.704C5.59333 2.576 5.67333 2.47467 5.78 2.4C5.89733 2.31467 5.97733 2.20267 6.02 2.064L6.644 1.328C6.72933 1.232 6.804 1.11467 6.868 0.976C6.94267 0.826667 7.01733 0.704 7.092 0.608C7.17733 0.501333 7.268 0.464 7.364 0.496C7.69467 0.613333 7.91333 0.837333 8.02 1.168C8.02 1.30667 7.96133 1.536 7.844 1.856C7.73733 2.16533 7.65733 2.47467 7.604 2.784C7.572 2.96533 7.55067 3.152 7.54 3.344C7.54 3.52533 7.56667 3.712 7.62 3.904C7.70533 3.968 7.812 3.984 7.94 3.952C8.07867 3.90933 8.20133 3.888 8.308 3.888C8.39333 3.99467 8.43067 4.128 8.42 4.288C8.40933 4.448 8.39333 4.56533 8.372 4.64C8.276 4.69333 8.18 4.74133 8.084 4.784C7.988 4.816 7.88133 4.82667 7.764 4.816C7.604 4.784 7.492 4.74667 7.428 4.704C7.364 4.66133 7.30533 4.608 7.252 4.544C7.20933 4.46933 7.13467 4.38933 7.028 4.304C6.85733 4.15467 6.74 3.96267 6.676 3.728C6.62267 3.49333 6.58533 3.25333 6.564 3.008C6.52133 2.99733 6.452 3.04 6.356 3.136C6.26 3.232 6.148 3.36 6.02 3.52C5.892 3.66933 5.748 3.83467 5.588 4.016C5.43867 4.18667 5.27333 4.352 5.092 4.512C4.97467 4.61867 4.84667 4.704 4.708 4.768C4.56933 4.82133 4.39867 4.82667 4.196 4.784C4.068 4.70933 3.956 4.608 3.86 4.48C3.77467 4.34133 3.668 4.22933 3.54 4.144C3.49733 4.02667 3.45467 3.92 3.412 3.824C3.38 3.71733 3.35333 3.61067 3.332 3.504C3.31067 3.408 3.29467 3.312 3.284 3.216C3.27333 3.10933 3.29467 3.01333 3.348 2.928C3.284 2.90667 3.21467 2.94933 3.14 3.056C3.06533 3.152 2.98 3.26933 2.884 3.408C2.788 3.536 2.67067 3.65333 2.532 3.76C2.36133 3.89867 2.21733 4.02667 2.1 4.144C1.98267 4.26133 1.86533 4.37867 1.748 4.496C1.63067 4.61333 1.48667 4.74667 1.316 4.896H0.804Z" fill="#1F170F"/>
</svg>
