<svg width="8" height="8" viewBox="0 0 8 8" fill="none" xmlns="http://www.w3.org/2000/svg">
<path d="M5.38 7.38C5.29467 7.32667 5.22533 7.26267 5.172 7.188C5.12933 7.124 5.11867 7.028 5.14 6.9C5.268 6.772 5.396 6.58 5.524 6.324C5.652 6.068 5.748 5.812 5.812 5.556C5.876 5.3 5.876 5.11333 5.812 4.996C5.716 5.03867 5.56667 5.08667 5.364 5.14C5.16133 5.19333 4.94267 5.24667 4.708 5.3C4.47333 5.35333 4.26533 5.396 4.084 5.428C3.90267 5.46 3.78 5.47067 3.716 5.46C3.72667 5.46 3.63067 5.492 3.428 5.556C3.236 5.60933 3.07067 5.64667 2.932 5.668C2.804 5.7 2.58 5.72667 2.26 5.748C1.94 5.75867 1.556 5.748 1.108 5.716C0.969333 5.716 0.830667 5.65733 0.692 5.54C0.564 5.42267 0.446667 5.28933 0.34 5.14C0.233333 4.98 0.142667 4.84667 0.068 4.74C0.0573333 4.65467 0.0466666 4.56933 0.036 4.484C0.036 4.388 0.0253333 4.29733 0.00400002 4.212C-0.00666667 4.16933 0.00399997 4.036 0.036 3.812C0.0786666 3.588 0.137333 3.332 0.212 3.044C0.286667 2.756 0.361333 2.48933 0.436 2.244C0.510667 1.988 0.569333 1.80667 0.612 1.7C0.686667 1.56133 0.745333 1.41733 0.788 1.268C0.841333 1.11867 0.905333 0.974667 0.98 0.836C1.044 0.718667 1.09733 0.601333 1.14 0.484C1.19333 0.356 1.24133 0.233333 1.284 0.116C1.33733 0.0946665 1.39067 0.0679999 1.444 0.036C1.49733 0.00400008 1.54533 -0.00666661 1.588 0.00399992C1.88667 0.0466667 2.07333 0.132 2.148 0.26C2.23333 0.388 2.276 0.574667 2.276 0.82C2.06267 1.14 1.86 1.508 1.668 1.924C1.476 2.32933 1.33733 2.788 1.252 3.3C1.19867 3.41733 1.14 3.60933 1.076 3.876C1.02267 4.132 0.990667 4.32933 0.98 4.468C1.27867 4.724 1.524 4.85733 1.716 4.868C1.91867 4.87867 2.148 4.82 2.404 4.692C2.45733 4.41467 2.53733 4.15333 2.644 3.908C2.75067 3.66267 2.85733 3.40667 2.964 3.14C2.996 3.05467 3.028 2.93733 3.06 2.788C3.092 2.63867 3.12933 2.52667 3.172 2.452C3.236 2.324 3.3 2.15867 3.364 1.956C3.428 1.74267 3.44933 1.572 3.428 1.444C3.396 1.26267 3.43333 1.14533 3.54 1.092C3.64667 1.028 3.78 1.01733 3.94 1.06C4.11067 1.10267 4.25467 1.188 4.372 1.316C4.404 1.46533 4.41467 1.62 4.404 1.78C4.404 1.94 4.36133 2.1 4.276 2.26C4.26533 2.30267 4.21733 2.436 4.132 2.66C4.05733 2.87333 3.972 3.11867 3.876 3.396C3.78 3.66267 3.68933 3.90267 3.604 4.116C3.52933 4.31867 3.48667 4.436 3.476 4.468C3.508 4.5 3.59867 4.51067 3.748 4.5C3.908 4.47867 4.084 4.452 4.276 4.42C4.47867 4.388 4.66 4.356 4.82 4.324C4.86267 4.31333 4.92133 4.20667 4.996 4.004C5.07067 3.80133 5.15067 3.56133 5.236 3.284C5.32133 3.00667 5.396 2.74533 5.46 2.5C5.524 2.244 5.56667 2.068 5.588 1.972C5.60933 1.876 5.65733 1.7 5.732 1.444C5.81733 1.17733 5.892 0.969333 5.956 0.82C6.04133 0.628 6.15333 0.526667 6.292 0.516C6.34533 0.516 6.39333 0.521333 6.436 0.532C6.48933 0.542667 6.58 0.574667 6.708 0.628C6.836 0.692 6.932 0.793333 6.996 0.932C7.06 1.06 7.06533 1.18267 7.012 1.3C6.98 1.35333 6.932 1.444 6.868 1.572C6.804 1.7 6.74533 1.82267 6.692 1.94C6.64933 2.05733 6.62267 2.13733 6.612 2.18C6.58 2.29733 6.52667 2.47333 6.452 2.708C6.37733 2.932 6.30267 3.172 6.228 3.428C6.15333 3.67333 6.09467 3.908 6.052 4.132C6.10533 4.12133 6.18533 4.10533 6.292 4.084C6.39867 4.06267 6.5 4.06267 6.596 4.084C6.70267 4.09467 6.76667 4.15867 6.788 4.276C6.788 4.35067 6.80933 4.40933 6.852 4.452C6.89467 4.49467 6.92667 4.54267 6.948 4.596C6.99067 4.93733 6.97467 5.21467 6.9 5.428C6.82533 5.63067 6.788 5.80133 6.788 5.94C6.79867 6.04667 6.77733 6.148 6.724 6.244C6.68133 6.34 6.63867 6.436 6.596 6.532C6.44667 6.86267 6.28133 7.08667 6.1 7.204C5.91867 7.32133 5.67867 7.38 5.38 7.38Z" fill="#1F170F"/>
</svg>
