<svg width="6" height="9" viewBox="0 0 6 9" fill="none" xmlns="http://www.w3.org/2000/svg">
<path d="M3.6416 8.724C3.56693 8.76667 3.4656 8.75067 3.3376 8.676C3.22027 8.60133 3.10293 8.48933 2.9856 8.34C2.91093 8.212 2.8576 8.07333 2.8256 7.924C2.80427 7.77467 2.7936 7.56667 2.7936 7.3C2.80427 7.08667 2.7936 6.948 2.7616 6.884C2.74027 6.82 2.6816 6.83067 2.5856 6.916C2.4896 6.99067 2.32427 7.14533 2.0896 7.38C1.82293 7.64667 1.56693 7.85467 1.3216 8.004C1.08693 8.15333 0.894933 8.22267 0.7456 8.212C0.670933 8.212 0.5856 8.17467 0.4896 8.1C0.404267 8.01467 0.324267 7.91333 0.2496 7.796C0.174933 7.668 0.110933 7.54 0.0576 7.412C-0.00640002 7.17733 -0.0170667 6.87867 0.0256 6.516C0.0789334 6.14267 0.164267 5.75333 0.2816 5.348C0.398933 4.94267 0.532267 4.55867 0.6816 4.196C0.8416 3.83333 1.0016 3.54 1.1616 3.316C1.33227 3.092 1.4816 2.98 1.6096 2.98C1.69493 2.98 1.7696 3.02267 1.8336 3.108C1.90827 3.19333 1.98293 3.32667 2.0576 3.508C2.10027 3.58267 2.11627 3.64667 2.1056 3.7C2.1056 3.75333 2.06293 3.81733 1.9776 3.892C1.8816 4.02 1.7696 4.212 1.6416 4.468C1.52427 4.724 1.40693 5.00133 1.2896 5.3C1.18293 5.59867 1.08693 5.88667 1.0016 6.164C0.916267 6.44133 0.8576 6.67067 0.8256 6.852C0.7936 7.02267 0.798933 7.108 0.8416 7.108C0.990933 7.108 1.16693 7.04933 1.3696 6.932C1.58293 6.804 1.7856 6.64933 1.9776 6.468C2.2016 6.244 2.39893 5.99867 2.5696 5.732C2.75093 5.46533 2.93227 5.18267 3.1136 4.884C3.25227 4.67067 3.39627 4.436 3.5456 4.18C3.7056 3.924 3.80693 3.74267 3.8496 3.636C3.99893 3.35867 4.11093 3.172 4.1856 3.076C4.26027 2.96933 4.35093 2.9 4.4576 2.868C4.51093 2.868 4.55893 2.868 4.6016 2.868C4.65493 2.868 4.6816 2.868 4.6816 2.868C4.7456 2.87867 4.82027 2.92667 4.9056 3.012C4.99093 3.05467 5.03893 3.09733 5.0496 3.14C5.06027 3.172 5.0656 3.21467 5.0656 3.268C5.02293 3.37467 4.9536 3.53467 4.8576 3.748C4.77227 3.95067 4.70827 4.1 4.6656 4.196C4.46293 4.65467 4.26027 5.108 4.0576 5.556C3.8656 5.99333 3.72693 6.44133 3.6416 6.9C3.62027 7.04933 3.61493 7.22533 3.6256 7.428C3.64693 7.62 3.67893 7.75867 3.7216 7.844C3.7536 7.908 3.79093 7.98267 3.8336 8.068C3.88693 8.14267 3.9456 8.20667 4.0096 8.26C4.1056 8.324 4.1216 8.39333 4.0576 8.468C4.00427 8.54267 3.9296 8.60667 3.8336 8.66C3.7376 8.70267 3.6736 8.724 3.6416 8.724ZM3.4336 2.084C3.10293 2.12667 2.8256 2.03067 2.6016 1.796C2.3776 1.56133 2.20693 1.21467 2.0896 0.756001C2.06827 0.670667 2.0576 0.596001 2.0576 0.532001C2.06827 0.457334 2.0896 0.393334 2.1216 0.34C2.14293 0.297334 2.1856 0.265334 2.2496 0.244001C2.3136 0.212 2.36693 0.206667 2.4096 0.228C2.55893 0.281334 2.6656 0.350667 2.7296 0.436C2.80427 0.510667 2.85227 0.606667 2.8736 0.724C2.89493 0.777334 2.9056 0.830667 2.9056 0.884C2.91627 0.937334 2.9216 0.958667 2.9216 0.948C2.97493 1.11867 3.04427 1.236 3.1296 1.3C3.21493 1.364 3.34293 1.35867 3.5136 1.284C3.69493 1.20933 3.87093 1.124 4.0416 1.028C4.22293 0.932001 4.38293 0.814667 4.5216 0.676001C4.63893 0.558667 4.75093 0.452 4.8576 0.356C4.97493 0.26 5.08693 0.158667 5.1936 0.0520002L5.2096 0.0360004C5.25227 0.00400021 5.3056 -0.00666664 5.3696 0.00399989C5.4336 0.0146671 5.47093 0.0306672 5.4816 0.0520002C5.55627 0.126667 5.5936 0.201334 5.5936 0.276C5.5936 0.350667 5.5936 0.430667 5.5936 0.516L5.5776 0.548001C5.59893 0.612 5.5456 0.734667 5.4176 0.916001C5.30027 1.09733 5.15627 1.252 4.9856 1.38C4.83627 1.49733 4.67627 1.604 4.5056 1.7C4.33493 1.796 4.15893 1.88667 3.9776 1.972C3.90293 2.01467 3.82293 2.04133 3.7376 2.052C3.66293 2.052 3.5616 2.06267 3.4336 2.084Z" fill="#1F170F"/>
</svg>
