<svg width="5" height="7" viewBox="0 0 5 7" fill="none" xmlns="http://www.w3.org/2000/svg">
<path d="M0.00228572 5.152C-0.00838097 4.93867 0.0182857 4.688 0.0822858 4.4C0.156952 4.112 0.247619 3.82933 0.354286 3.552C0.460952 3.27467 0.556952 3.05067 0.642286 2.88C0.652953 2.752 0.690286 2.64 0.754286 2.544C0.828952 2.448 0.887619 2.34133 0.930286 2.224C0.962286 2.128 1.03695 1.97333 1.15429 1.76C1.27162 1.536 1.39962 1.312 1.53829 1.088C1.67695 0.864 1.78895 0.704 1.87429 0.608C1.89562 0.48 1.94362 0.373333 2.01829 0.288C2.09295 0.192 2.16229 0.0959997 2.22629 0C2.31162 0.0426664 2.38095 0.0746663 2.43429 0.0959997C2.48762 0.117333 2.55162 0.170666 2.62629 0.256C2.67962 0.330667 2.73829 0.4 2.80229 0.464C2.87695 0.517333 2.93029 0.602666 2.96229 0.72C2.96229 0.816 2.92495 0.912 2.85029 1.008C2.78629 1.09333 2.72229 1.17867 2.65829 1.264C2.55162 1.392 2.47162 1.49333 2.41829 1.568C2.37562 1.632 2.32229 1.712 2.25829 1.808C2.20495 1.89333 2.11429 2.032 1.98629 2.224C2.03962 2.24533 2.09829 2.272 2.16229 2.304C2.22629 2.32533 2.28495 2.336 2.33829 2.336C2.43429 2.32533 2.52495 2.336 2.61029 2.368C2.69562 2.4 2.78095 2.43733 2.86629 2.48C2.95162 2.512 3.03695 2.53867 3.12229 2.56C3.25029 2.60267 3.38362 2.688 3.52229 2.816C3.67162 2.944 3.80495 3.08267 3.92229 3.232C4.03962 3.38133 4.11429 3.504 4.14629 3.6C4.17829 3.65333 4.22095 3.75467 4.27429 3.904C4.33829 4.04267 4.34895 4.17067 4.30629 4.288C4.29562 4.33067 4.28495 4.37867 4.27429 4.432C4.26362 4.48533 4.25829 4.53867 4.25829 4.592C4.09829 4.816 3.97029 4.992 3.87429 5.12C3.77829 5.248 3.61295 5.38667 3.37829 5.536C3.02629 5.73867 2.67429 5.89333 2.32229 6C1.98095 6.10667 1.63429 6.15467 1.28229 6.144C1.22895 6.144 1.17562 6.16 1.12229 6.192C1.07962 6.21333 1.03162 6.20267 0.978286 6.16C0.764952 6.16 0.604952 6.10133 0.498286 5.984C0.391619 5.86667 0.279619 5.73333 0.162286 5.584C0.0769525 5.46667 0.0236191 5.32267 0.00228572 5.152ZM0.898286 5.2C1.09029 5.22133 1.26629 5.21067 1.42629 5.168C1.59695 5.12533 1.76229 5.088 1.92229 5.056C2.10362 5.024 2.29562 4.95467 2.49829 4.848C2.70095 4.73067 2.88229 4.592 3.04229 4.432C3.21295 4.26133 3.32495 4.09067 3.37829 3.92C3.41029 3.83467 3.41562 3.73867 3.39429 3.632C3.37295 3.52533 3.32495 3.45067 3.25029 3.408C3.14362 3.33333 3.03695 3.25867 2.93029 3.184C2.82362 3.10933 2.69562 3.07733 2.54629 3.088C2.51429 3.09867 2.47695 3.09867 2.43429 3.088C2.40229 3.06667 2.37029 3.05067 2.33829 3.04C2.25295 3.01867 2.16762 3.008 2.08229 3.008C2.00762 3.008 1.92762 3.01867 1.84229 3.04C1.74629 3.072 1.65562 3.104 1.57029 3.136C1.48495 3.168 1.44762 3.25333 1.45829 3.392C1.45829 3.41333 1.43162 3.45067 1.37829 3.504C1.35695 3.52533 1.30895 3.632 1.23429 3.824C1.17029 4.016 1.10629 4.21867 1.04229 4.432C0.978286 4.64533 0.930286 4.8 0.898286 4.896C0.887619 4.93867 0.882286 4.98667 0.882286 5.04C0.892953 5.08267 0.898286 5.136 0.898286 5.2Z" fill="#1F170F"/>
</svg>
