<svg width="8" height="6" viewBox="0 0 8 6" fill="none" xmlns="http://www.w3.org/2000/svg">
<path d="M0.464 5.25867C0.346667 5.184 0.24 5.088 0.144 4.97067C0.048 4.84267 0 4.68267 0 4.49067C0 4.384 0.0213333 4.20267 0.064 3.94667C0.106667 3.69067 0.165333 3.40267 0.24 3.08267C0.314667 2.76267 0.389333 2.464 0.464 2.18667C0.570667 1.99467 0.661333 1.80267 0.736 1.61067C0.810667 1.41867 0.848 1.30133 0.848 1.25867C0.869333 1.13067 0.896 0.981333 0.928 0.810666C0.970667 0.64 1.01333 0.485333 1.056 0.346667C1.09867 0.208 1.13067 0.128 1.152 0.106666C1.20533 0.0533332 1.26933 0.0213333 1.344 0.0106667C1.41867 -0.0106666 1.49333 -1.04308e-07 1.568 0.0426663C1.65333 0.0746666 1.71733 0.144 1.76 0.250666C1.87733 0.378666 1.936 0.533333 1.936 0.714667C1.936 0.885333 1.87733 1.14133 1.76 1.48267C1.664 1.696 1.568 1.94667 1.472 2.23467C1.376 2.52267 1.29067 2.78933 1.216 3.03467C1.152 3.26933 1.11467 3.42933 1.104 3.51467L0.784 3.61067C0.965333 3.44 1.136 3.264 1.296 3.08267C1.456 2.89067 1.57333 2.74133 1.648 2.63467C1.82933 2.38933 1.984 2.18667 2.112 2.02667C2.25067 1.856 2.42667 1.65333 2.64 1.41867C2.85333 1.17333 3.06133 1.024 3.264 0.970667C3.47733 0.906667 3.64267 0.874667 3.76 0.874667C3.99467 0.917333 4.18133 1.04 4.32 1.24267C4.46933 1.43467 4.56533 1.72267 4.608 2.10667C4.608 2.256 4.592 2.432 4.56 2.63467C4.53867 2.83733 4.528 2.93867 4.528 2.93867C4.528 2.93867 4.61333 2.82667 4.784 2.60267C4.96533 2.37867 5.20533 2.13333 5.504 1.86667C5.70667 1.71733 5.904 1.632 6.096 1.61067C6.288 1.57867 6.45867 1.64267 6.608 1.80267C6.88533 1.952 7.06667 2.18133 7.152 2.49067C7.23733 2.78933 7.25867 3.17333 7.216 3.64267C7.184 3.92 7.17867 4.128 7.2 4.26667C7.22133 4.39467 7.25333 4.52267 7.296 4.65067C7.38133 4.69333 7.39733 4.784 7.344 4.92267C7.29067 5.05067 7.22667 5.11467 7.152 5.11467C7.04533 5.11467 6.92267 5.09333 6.784 5.05067C6.656 5.008 6.53867 4.93867 6.432 4.84267C6.336 4.736 6.288 4.592 6.288 4.41067V3.41867C6.288 3.184 6.27733 2.992 6.256 2.84267C6.24533 2.69333 6.21867 2.60267 6.176 2.57067C6.05867 2.50667 5.888 2.576 5.664 2.77867C5.44 2.98133 5.2 3.25333 4.944 3.59467C4.688 3.936 4.448 4.288 4.224 4.65067C4.02133 4.98133 3.89333 5.17333 3.84 5.22667C3.79733 5.26933 3.71733 5.25333 3.6 5.17867C3.36533 5.104 3.216 5.00267 3.152 4.87467C3.09867 4.736 3.09333 4.58133 3.136 4.41067C3.18933 4.22933 3.25333 3.984 3.328 3.67467C3.41333 3.36533 3.49333 3.06667 3.568 2.77867C3.64267 2.48 3.69067 2.26667 3.712 2.13867C3.66933 2.05333 3.59467 2.02667 3.488 2.05867C3.392 2.08 3.29067 2.128 3.184 2.20267C3.056 2.288 2.90133 2.448 2.72 2.68267C2.53867 2.91733 2.352 3.18933 2.16 3.49867C2.032 3.70133 1.89867 3.904 1.76 4.10667C1.62133 4.29867 1.49333 4.46933 1.376 4.61867C1.25867 4.768 1.15733 4.88 1.072 4.95467C0.922667 5.18933 0.821333 5.31733 0.768 5.33867C0.714667 5.36 0.613333 5.33333 0.464 5.25867Z" fill="#1F170F"/>
</svg>
