<svg width="6" height="8" viewBox="0 0 6 8" fill="none" xmlns="http://www.w3.org/2000/svg">
<path d="M0 4.448C0.0106666 4.352 0.0426666 4.22933 0.096 4.08C0.149333 3.93067 0.202667 3.78667 0.256 3.648C0.309333 3.50933 0.346667 3.41867 0.368 3.376C0.496 3.13067 0.613333 2.88 0.72 2.624C0.837333 2.35733 0.933333 2.09067 1.008 1.824C1.02933 1.76 1.06667 1.648 1.12 1.488C1.184 1.328 1.24267 1.168 1.296 1.008C1.36 0.837333 1.392 0.714667 1.392 0.64C1.41333 0.490667 1.46667 0.357333 1.552 0.24C1.648 0.122666 1.76533 0.0426664 1.904 0C2.02133 0.0213331 2.12267 0.0586664 2.208 0.112C2.29333 0.165333 2.37333 0.218667 2.448 0.272C2.512 0.336 2.53333 0.437333 2.512 0.576C2.49067 0.714667 2.448 0.890666 2.384 1.104C2.34133 1.25333 2.26667 1.44533 2.16 1.68C2.064 1.91467 1.96267 2.14933 1.856 2.384C1.76 2.608 1.68533 2.78933 1.632 2.928C1.52533 3.20533 1.408 3.52533 1.28 3.888C1.16267 4.25067 1.06667 4.528 0.992 4.72C0.949333 4.848 1.00267 4.95467 1.152 5.04C1.33333 5.104 1.536 5.12533 1.76 5.104C1.984 5.072 2.19733 5.024 2.4 4.96C2.61333 4.88533 2.78933 4.81067 2.928 4.736C3.06667 4.66133 3.136 4.61333 3.136 4.592C3.14667 4.51733 3.16267 4.42667 3.184 4.32C3.216 4.21333 3.27467 4.03733 3.36 3.792C3.456 3.54667 3.58933 3.17867 3.76 2.688C3.76 2.688 3.78133 2.624 3.824 2.496C3.86667 2.368 3.92 2.224 3.984 2.064C4.048 1.89333 4.10133 1.744 4.144 1.616C4.18667 1.47733 4.208 1.408 4.208 1.408C4.208 1.13067 4.26667 0.885333 4.384 0.672C4.50133 0.448 4.63467 0.304 4.784 0.24C4.86933 0.229333 4.94933 0.229333 5.024 0.24C5.09867 0.250667 5.16267 0.282667 5.216 0.336C5.30133 0.410667 5.38133 0.485333 5.456 0.56C5.53067 0.634667 5.57333 0.741333 5.584 0.88C5.54133 0.954666 5.50933 1.04533 5.488 1.152C5.46667 1.248 5.424 1.33867 5.36 1.424C5.30667 1.50933 5.25333 1.60533 5.2 1.712C5.15733 1.808 5.14133 1.89867 5.152 1.984L4.736 3.024C4.66133 3.22667 4.57067 3.46133 4.464 3.728C4.368 3.99467 4.304 4.17067 4.272 4.256L4.8 4.192C4.93867 4.192 5.072 4.19733 5.2 4.208C5.328 4.208 5.472 4.26133 5.632 4.368C5.664 4.368 5.69067 4.40533 5.712 4.48C5.744 4.544 5.77067 4.624 5.792 4.72C5.824 4.816 5.85067 4.90133 5.872 4.976C5.84 5.12533 5.76533 5.328 5.648 5.584C5.53067 5.84 5.408 6.096 5.28 6.352C5.152 6.608 5.04533 6.81067 4.96 6.96C4.91733 7.03467 4.86933 7.104 4.816 7.168C4.76267 7.24267 4.70933 7.31733 4.656 7.392C4.53867 7.584 4.40533 7.67467 4.256 7.664C4.10667 7.65333 3.97333 7.552 3.856 7.36C3.856 7.24267 3.88267 7.07733 3.936 6.864C4 6.66133 4.04267 6.52267 4.064 6.448C4.07467 6.416 4.12267 6.30933 4.208 6.128C4.29333 5.95733 4.37867 5.78133 4.464 5.6C4.54933 5.41867 4.592 5.296 4.592 5.232C4.60267 5.17867 4.592 5.136 4.56 5.104C4.528 5.072 4.49067 5.06667 4.448 5.088C4.416 5.088 4.32533 5.12 4.176 5.184C4.03733 5.248 3.89867 5.312 3.76 5.376C3.62133 5.42933 3.52533 5.456 3.472 5.456C3.216 5.584 3.008 5.67467 2.848 5.728C2.69867 5.77067 2.48533 5.83467 2.208 5.92C1.65333 5.93067 1.264 5.92 1.04 5.888C0.816 5.84533 0.629333 5.77067 0.48 5.664C0.298667 5.52533 0.170667 5.37067 0.096 5.2C0.032 5.02933 0 4.87467 0 4.736C0 4.58667 0 4.49067 0 4.448Z" fill="#1F170F"/>
</svg>
