<svg width="8" height="10" viewBox="0 0 8 10" fill="none" xmlns="http://www.w3.org/2000/svg">
<path d="M2.03467 9.41908C1.77867 9.49374 1.496 9.50441 1.18667 9.45108C0.888 9.40841 0.626667 9.31774 0.402667 9.17908C0.168 9.04041 0.0346667 8.88574 0.00266668 8.71508C-0.00800001 8.65108 0.0133333 8.58174 0.0666666 8.50708C0.109333 8.43241 0.168 8.37908 0.242667 8.34708C0.306667 8.32574 0.365333 8.34708 0.418667 8.41108C0.504 8.46441 0.658667 8.52841 0.882667 8.60308C1.10667 8.68841 1.35733 8.70441 1.63467 8.65108C1.88 8.59774 2.12 8.45374 2.35467 8.21908C2.6 7.98441 2.79733 7.76574 2.94667 7.56308C3.032 7.43508 3.176 7.20574 3.37867 6.87508C3.58133 6.54441 3.78933 6.18174 4.00267 5.78708C4.22667 5.38174 4.41333 5.00841 4.56267 4.66708C4.59467 4.58174 4.632 4.48041 4.67467 4.36308C4.71733 4.24574 4.77067 4.14974 4.83467 4.07508C4.89867 3.94708 4.952 3.82974 4.99467 3.72308C5.048 3.60574 5.08 3.52574 5.09067 3.48308C5.10133 3.42974 5.14933 3.32308 5.23467 3.16308C5.32 3.00308 5.4 2.84308 5.47467 2.68308C5.528 2.52308 5.608 2.28841 5.71467 1.97908C5.82133 1.66974 5.928 1.41908 6.03467 1.22708C6.16267 0.981744 6.264 0.78441 6.33867 0.635077C6.424 0.475077 6.51467 0.379077 6.61067 0.347077C6.70667 0.27241 6.77067 0.235077 6.80267 0.235077C6.84533 0.235077 6.92533 0.267077 7.04267 0.331077C7.17067 0.459077 7.25067 0.587077 7.28267 0.715077C7.31467 0.83241 7.29867 0.981744 7.23467 1.16308C7.18133 1.33374 7.07467 1.56841 6.91467 1.86708C6.82933 2.12308 6.73333 2.35774 6.62667 2.57108C6.53067 2.77374 6.456 2.90708 6.40267 2.97108C6.34933 3.09908 6.28533 3.24308 6.21067 3.40308C6.14667 3.55241 6.088 3.69108 6.03467 3.81908C5.84267 4.24574 5.67733 4.59241 5.53867 4.85908C5.4 5.12574 5.27733 5.37108 5.17067 5.59508C5.064 5.81908 4.952 6.08041 4.83467 6.37908C4.58933 6.77374 4.34933 7.14708 4.11467 7.49908C3.89067 7.86174 3.65067 8.19774 3.39467 8.50708C3.288 8.60308 3.15467 8.71508 2.99467 8.84308C2.83467 8.97108 2.66933 9.08841 2.49867 9.19508C2.33867 9.30174 2.184 9.37641 2.03467 9.41908ZM4.19467 5.57908C4.03467 5.55774 3.87467 5.46174 3.71467 5.29108C3.56533 5.12041 3.448 4.93908 3.36267 4.74708C3.27733 4.55508 3.24533 4.41641 3.26667 4.33108C3.26667 4.27774 3.26667 4.23508 3.26667 4.20308C3.26667 4.17108 3.26667 4.15508 3.26667 4.15508C3.20267 4.15508 3.144 4.07508 3.09067 3.91508C3.048 3.75508 3.016 3.54708 2.99467 3.29108C2.97333 3.03508 2.95733 2.76308 2.94667 2.47508C2.94667 2.18708 2.95733 1.91508 2.97867 1.65908C3.02133 1.47774 3.04267 1.28041 3.04267 1.06708C3.04267 0.843077 3.048 0.667077 3.05867 0.539077C3.048 0.36841 3.064 0.25641 3.10667 0.203077C3.14933 0.139077 3.192 0.091077 3.23467 0.0590771C3.53333 -0.0689231 3.73067 0.0110768 3.82667 0.299077C3.93333 0.57641 3.96 1.09908 3.90667 1.86708C3.88533 2.29374 3.88533 2.72041 3.90667 3.14708C3.928 3.57374 3.98667 3.94708 4.08267 4.26708C4.18933 4.58708 4.33333 4.80574 4.51467 4.92308C4.58933 4.96574 4.62667 5.02441 4.62667 5.09908C4.62667 5.17374 4.60533 5.25374 4.56267 5.33908C4.52 5.41374 4.46133 5.47774 4.38667 5.53108C4.32267 5.57374 4.25867 5.58974 4.19467 5.57908Z" fill="#1F170F"/>
</svg>
