<svg width="7" height="11" viewBox="0 0 7 11" fill="none" xmlns="http://www.w3.org/2000/svg">
<path d="M1.488 10.5891C1.328 10.5891 1.12533 10.5784 0.88 10.5571C0.645333 10.5358 0.442667 10.3864 0.272 10.1091C0.165333 9.92776 0.0853333 9.71976 0.0319999 9.48509C-0.0106666 9.25042 -0.0106666 9.08509 0.0319999 8.98909C0.181333 8.16776 0.298667 7.60242 0.384 7.29309C0.469333 6.98376 0.517333 6.80776 0.528 6.76509C0.549333 6.72242 0.592 6.62109 0.656 6.46109C0.730667 6.29042 0.773333 6.18376 0.784 6.14109C0.837333 5.97042 0.853333 5.77842 0.832 5.56509C0.821333 5.47976 0.826667 5.40509 0.848 5.34109C0.88 5.26642 0.928 5.20242 0.992 5.14909C1.17333 5.01042 1.31733 4.82909 1.424 4.60509C1.456 4.53042 1.51467 4.40242 1.6 4.22109C1.696 4.02909 1.792 3.84242 1.888 3.66109C1.99467 3.46909 2.07467 3.33576 2.128 3.26109C2.29867 3.04776 2.45333 2.82376 2.592 2.58909C2.74133 2.34376 2.92267 2.13042 3.136 1.94909C3.27467 1.71442 3.45067 1.50109 3.664 1.30909C3.87733 1.10642 4.09067 0.919757 4.304 0.749091C4.51733 0.578425 4.688 0.429091 4.816 0.301091C4.86933 0.247758 5.01333 0.199758 5.248 0.157091C5.49333 0.103758 5.69067 0.0557578 5.84 0.013091C5.904 -0.0189092 6.02667 0.00775747 6.208 0.093091C6.38933 0.167758 6.51733 0.253091 6.592 0.349092C6.73067 0.583758 6.81067 0.775757 6.832 0.925091C6.864 1.07442 6.84267 1.25042 6.768 1.45309C6.704 1.64509 6.576 1.94376 6.384 2.34909C6.17067 2.77576 5.86667 3.18109 5.472 3.56509C5.088 3.93842 4.69333 4.26376 4.288 4.54109C4.08533 4.72242 3.872 4.88776 3.648 5.03709C3.43467 5.18642 3.216 5.31976 2.992 5.43709C2.85333 5.51176 2.70933 5.58109 2.56 5.64509C2.42133 5.70909 2.27733 5.76776 2.128 5.82109C2.05333 5.84242 1.984 5.88509 1.92 5.94909C1.856 6.00242 1.80267 6.08242 1.76 6.18909C1.696 6.33842 1.65867 6.46642 1.648 6.57309C1.648 6.66909 1.616 6.74909 1.552 6.81309C1.52 6.84509 1.472 6.97309 1.408 7.19709C1.35467 7.41042 1.29067 7.66642 1.216 7.96509C1.152 8.25309 1.09867 8.52509 1.056 8.78109C1.01333 9.02643 0.997333 9.19176 1.008 9.27709C1.01867 9.33043 1.02933 9.38909 1.04 9.45309C1.06133 9.50642 1.10933 9.54909 1.184 9.58109C1.344 9.54909 1.472 9.49576 1.568 9.42109C1.664 9.33576 1.77067 9.22376 1.888 9.08509C2.016 8.92509 2.13333 8.75442 2.24 8.57309C2.35733 8.39176 2.45333 8.20509 2.528 8.01309C2.57067 7.89576 2.60267 7.77309 2.624 7.64509C2.64533 7.50642 2.68267 7.38376 2.736 7.27709C2.736 7.03176 2.73067 6.85042 2.72 6.73309C2.72 6.60509 2.70933 6.50376 2.688 6.42909C2.67733 6.34376 2.65067 6.24776 2.608 6.14109C2.69333 6.08776 2.74133 6.04509 2.752 6.01309C2.77333 5.98109 2.82133 5.97576 2.896 5.99709C3.03467 6.02909 3.16267 6.08242 3.28 6.15709C3.408 6.23176 3.53067 6.32776 3.648 6.44509C3.69067 6.48776 3.71733 6.53042 3.728 6.57309C3.73867 6.61576 3.73333 6.66376 3.712 6.71709C3.70133 6.84509 3.68533 6.97309 3.664 7.10109C3.65333 7.21842 3.648 7.33576 3.648 7.45309C3.57333 7.59176 3.52533 7.74109 3.504 7.90109C3.48267 8.05042 3.44533 8.19976 3.392 8.34909C3.328 8.48776 3.264 8.62643 3.2 8.76509C3.136 8.90376 3.06133 9.03176 2.976 9.14909C2.848 9.38376 2.69867 9.59176 2.528 9.77309C2.368 9.95442 2.19733 10.1198 2.016 10.2691L1.488 10.5891ZM2.224 4.68509C2.352 4.70642 2.44267 4.71176 2.496 4.70109C2.56 4.67976 2.624 4.62642 2.688 4.54109C3.18933 4.21042 3.648 3.88509 4.064 3.56509C4.48 3.23442 4.82667 2.91976 5.104 2.62109C5.392 2.31176 5.57867 2.03976 5.664 1.80509C5.71733 1.68776 5.776 1.57576 5.84 1.46909C5.91467 1.36242 5.96267 1.23976 5.984 1.10109L5.92 0.653091C5.62133 0.791758 5.38133 0.919758 5.2 1.03709C5.02933 1.15442 4.80533 1.35176 4.528 1.62909C4.42133 1.73576 4.26133 1.91709 4.048 2.17309C3.84533 2.41842 3.62133 2.69576 3.376 3.00509C3.13067 3.31442 2.90133 3.61842 2.688 3.91709C2.48533 4.21576 2.33067 4.47176 2.224 4.68509Z" fill="#1F170F"/>
</svg>
