<svg width="6" height="7" viewBox="0 0 6 7" fill="none" xmlns="http://www.w3.org/2000/svg">
<path d="M0.784 6.62044C0.656 6.62044 0.544 6.60444 0.448 6.57244C0.362667 6.52978 0.293333 6.47645 0.24 6.41245C0.197333 6.33778 0.154667 6.26311 0.112 6.18844C0.0693333 6.10311 0.032 6.01244 0 5.91644C0.0213334 5.83111 0.0693334 5.74578 0.144 5.66044C0.218667 5.57511 0.32 5.56978 0.448 5.64444C0.469333 5.64444 0.490667 5.65511 0.512 5.67645C0.533333 5.69778 0.56 5.71911 0.592 5.74044C0.986667 5.55911 1.30667 5.32444 1.552 5.03644C1.808 4.73778 2.05333 4.40711 2.288 4.04444C2.10667 3.99111 1.92533 3.90578 1.744 3.78844C1.57333 3.67111 1.45067 3.54844 1.376 3.42044C1.26933 3.24978 1.2 3.04711 1.168 2.81244C1.136 2.57778 1.10933 2.44978 1.088 2.42844C1.184 2.21511 1.24267 2.03378 1.264 1.88444C1.296 1.73511 1.33867 1.59111 1.392 1.45244C1.44533 1.30311 1.54667 1.13244 1.696 0.940445C1.81333 0.791111 1.95733 0.652445 2.128 0.524445C2.29867 0.385778 2.464 0.273778 2.624 0.188445C2.784 0.103111 2.90133 0.0604445 2.976 0.0604445C3.09333 0.103111 3.20533 0.097778 3.312 0.0444447C3.41867 -0.00888887 3.52533 -0.0142223 3.632 0.0284445C3.67467 0.0391113 3.712 0.0444447 3.744 0.0444447C3.78667 0.0337779 3.81867 0.0337779 3.84 0.0444447C4.10667 0.097778 4.34133 0.172445 4.544 0.268445C4.74667 0.364445 4.88 0.540445 4.944 0.796445C4.89067 1.02044 4.832 1.24444 4.768 1.46844C4.71467 1.68178 4.62933 1.89511 4.512 2.10844C4.40533 2.31111 4.29867 2.52444 4.192 2.74844C4.096 2.96178 3.97333 3.16444 3.824 3.35644L3.856 3.45244C3.97333 3.47378 4.11733 3.50044 4.288 3.53244C4.46933 3.55378 4.56533 3.56444 4.576 3.56444C4.69333 3.59644 4.79467 3.64978 4.88 3.72444C4.976 3.78844 5.07733 3.86311 5.184 3.94844C5.19467 3.99111 5.19467 4.03378 5.184 4.07644C5.17333 4.11911 5.152 4.16711 5.12 4.22044C5.00267 4.45511 4.88 4.69511 4.752 4.94044C4.624 5.17511 4.50133 5.41511 4.384 5.66044C4.34133 5.76711 4.304 5.90044 4.272 6.06044C4.24 6.22044 4.19733 6.34844 4.144 6.44444C4.048 6.54044 3.984 6.59911 3.952 6.62044C3.93067 6.63111 3.90933 6.62578 3.888 6.60444C3.86667 6.58311 3.808 6.57244 3.712 6.57244C3.56267 6.54044 3.46133 6.46044 3.408 6.33244C3.38667 6.25778 3.35467 6.18844 3.312 6.12444C3.28 6.06044 3.27467 5.98578 3.296 5.90044C3.31733 5.83644 3.33867 5.77778 3.36 5.72444C3.38133 5.66044 3.408 5.60178 3.44 5.54844C3.52533 5.37778 3.6 5.20711 3.664 5.03644C3.728 4.86578 3.79733 4.70044 3.872 4.54044C3.91467 4.49778 3.936 4.43911 3.936 4.36444H3.824C3.76 4.35378 3.68533 4.34311 3.6 4.33244C3.52533 4.31111 3.44 4.29511 3.344 4.28444C3.29067 4.32711 3.22667 4.37511 3.152 4.42844C3.07733 4.47111 3.01867 4.55111 2.976 4.66844C2.85867 4.79644 2.74667 4.94044 2.64 5.10044C2.544 5.24978 2.42667 5.39378 2.288 5.53244C2.14933 5.67111 2.01067 5.80978 1.872 5.94844C1.744 6.08711 1.6 6.22578 1.44 6.36444C1.20533 6.53511 0.986667 6.62044 0.784 6.62044ZM2.704 3.29244C2.75733 3.28178 2.832 3.21778 2.928 3.10044C3.03467 2.97244 3.14133 2.83378 3.248 2.68444C3.36533 2.52444 3.46667 2.38044 3.552 2.25244C3.63733 2.11378 3.68533 2.02844 3.696 1.99644C3.696 2.01778 3.71733 1.96978 3.76 1.85244C3.80267 1.73511 3.85067 1.59644 3.904 1.43644C3.968 1.27644 4.02667 1.12711 4.08 0.988445C4.13333 0.849778 4.16 0.775111 4.16 0.764445C4.02133 0.668444 3.90933 0.620444 3.824 0.620444C3.73867 0.620444 3.63733 0.641778 3.52 0.684445C3.12533 0.791111 2.8 0.972445 2.544 1.22844C2.288 1.47378 2.10133 1.79378 1.984 2.18844C1.89867 2.55111 1.92 2.85511 2.048 3.10044C2.18667 3.33511 2.40533 3.39911 2.704 3.29244Z" fill="#1F170F"/>
</svg>
