<svg width="5" height="6" viewBox="0 0 5 6" fill="none" xmlns="http://www.w3.org/2000/svg">
<path d="M2.71644 5.58545C2.49244 5.77745 2.23111 5.88945 1.93244 5.92145C1.64444 5.95345 1.36178 5.91079 1.08444 5.79345C0.807111 5.66545 0.577778 5.47345 0.396445 5.21745C0.215111 4.98279 0.0977778 4.71612 0.0444445 4.41745C-0.00888889 4.10812 -0.0142222 3.70812 0.0284444 3.21745C0.0604445 2.80145 0.193778 2.38545 0.428444 1.96945C0.663111 1.54279 0.945778 1.16412 1.27644 0.833454C1.61778 0.502788 1.95378 0.273454 2.28444 0.145454C2.44444 0.0387876 2.57778 -0.00921225 2.68444 0.00145459C2.80178 0.00145459 2.97778 0.0121211 3.21244 0.0334542C3.45778 0.0654544 3.63911 0.113454 3.75644 0.177454C3.88444 0.241454 3.98578 0.326788 4.06044 0.433454C4.22044 0.593454 4.32711 0.753454 4.38045 0.913454C4.43378 1.06279 4.46044 1.21212 4.46044 1.36145C4.41778 1.59612 4.25778 1.88412 3.98044 2.22545C3.71378 2.55612 3.36178 2.82812 2.92444 3.04145C2.68978 3.11612 2.43378 3.14812 2.15644 3.13745C1.87911 3.12679 1.64978 3.05745 1.46844 2.92945C1.26578 2.84412 1.13244 2.86012 1.06844 2.97745C1.00444 3.08412 0.945778 3.35079 0.892444 3.77745C0.849778 4.18279 0.881778 4.48145 0.988445 4.67345C1.09511 4.85479 1.23911 4.96145 1.42044 4.99345C1.63378 5.03612 1.79911 5.06812 1.91644 5.08945C2.04444 5.10012 2.19911 5.05212 2.38044 4.94545C2.55111 4.83879 2.65778 4.78012 2.70044 4.76945C2.74311 4.74812 2.77511 4.72679 2.79644 4.70545C2.82844 4.67345 2.89778 4.60412 3.00444 4.49745C3.07911 4.42279 3.13778 4.36945 3.18044 4.33745C3.22311 4.29479 3.27111 4.27345 3.32444 4.27345C3.37778 4.27345 3.42578 4.30012 3.46844 4.35345C3.51111 4.39612 3.55378 4.42812 3.59644 4.44945C3.70311 4.44945 3.72444 4.51345 3.66044 4.64145C3.60711 4.76945 3.49511 4.92412 3.32444 5.10545C3.15378 5.27612 2.95111 5.43612 2.71644 5.58545ZM2.70044 2.19345C2.81778 2.14012 2.94044 2.06545 3.06844 1.96945C3.19644 1.86279 3.30311 1.75079 3.38844 1.63345C3.48444 1.50545 3.53244 1.39879 3.53244 1.31345C3.53244 1.16412 3.46311 1.04145 3.32444 0.945454C3.18578 0.838788 2.97778 0.822788 2.70044 0.897455C2.58311 0.929454 2.44978 1.00945 2.30044 1.13745C2.15111 1.25479 2.00711 1.38812 1.86844 1.53745C1.74044 1.68679 1.63378 1.82012 1.54844 1.93745C1.47378 2.05479 1.44711 2.12412 1.46844 2.14545C1.50044 2.19879 1.59111 2.24145 1.74044 2.27345C1.88978 2.29479 2.05511 2.30012 2.23644 2.28945C2.42844 2.27879 2.58311 2.24679 2.70044 2.19345Z" fill="#1F170F"/>
</svg>
