<svg width="8" height="7" viewBox="0 0 8 7" fill="none" xmlns="http://www.w3.org/2000/svg">
<path d="M2.65829 5.824C2.29562 5.92 2.03962 5.968 1.89029 5.968C1.74095 5.968 1.58095 5.89333 1.41029 5.744C1.35695 5.69067 1.32495 5.63733 1.31429 5.584C1.30362 5.52 1.27695 5.48267 1.23429 5.472C1.22362 5.39733 1.22895 5.33867 1.25029 5.296C1.28229 5.24267 1.35162 5.19467 1.45829 5.152C1.61829 5.248 1.82095 5.27467 2.06629 5.232C2.31162 5.18933 2.55162 5.09867 2.78629 4.96C3.03162 4.81067 3.22362 4.63467 3.36229 4.432C3.57562 4.176 3.74095 3.936 3.85829 3.712C3.97562 3.47733 4.03962 3.26933 4.05029 3.088C4.05029 2.98133 4.03429 2.90667 4.00229 2.864C3.98095 2.81067 3.92762 2.73067 3.84229 2.624C3.65029 2.688 3.47429 2.76267 3.31429 2.848C3.16495 2.93333 3.04229 3.024 2.94629 3.12C2.62629 3.38667 2.37562 3.60533 2.19429 3.776C2.02362 3.94667 1.87429 4.11733 1.74629 4.288C1.62895 4.45867 1.47962 4.688 1.29829 4.976C1.21295 5.08267 1.13295 5.16267 1.05829 5.216C0.994286 5.26933 0.924952 5.296 0.850286 5.296C0.882286 5.50933 0.807619 5.63733 0.626286 5.68C0.391619 5.62667 0.220952 5.55733 0.114286 5.472C0.00761903 5.376 -0.024381 5.19467 0.0182857 4.928C0.0609523 4.77867 0.103619 4.60267 0.146286 4.4C0.188952 4.18667 0.236952 4.01067 0.290286 3.872C0.546286 3.18933 0.770286 2.58133 0.962286 2.048C1.16495 1.51467 1.34095 1.136 1.49029 0.912L1.84229 0C2.02362 0.0106665 2.16229 0.0479999 2.25829 0.112C2.35429 0.165333 2.46629 0.298666 2.59429 0.512C2.59429 0.565333 2.54095 0.72 2.43429 0.976C2.33829 1.22133 2.22095 1.504 2.08229 1.824C1.95429 2.144 1.83162 2.44267 1.71429 2.72C1.60762 2.98667 1.53295 3.17333 1.49029 3.28C1.44762 3.39733 1.47962 3.376 1.58629 3.216C1.70362 3.056 1.90629 2.85333 2.19429 2.608C2.33295 2.46933 2.50362 2.34133 2.70629 2.224C2.90895 2.096 3.07962 2 3.21829 1.936C3.36762 1.872 3.49029 1.83467 3.58629 1.824C3.68229 1.81333 3.75162 1.80267 3.79429 1.792C4.06095 1.792 4.27429 1.86133 4.43429 2C4.59429 2.128 4.70629 2.27733 4.77029 2.448C4.84495 2.61867 4.88229 2.75733 4.88229 2.864C4.91429 3.03467 4.93562 3.2 4.94629 3.36C4.96762 3.50933 4.95695 3.66933 4.91429 3.84C4.88229 3.92533 4.82362 4.04267 4.73829 4.192C4.65295 4.34133 4.55162 4.496 4.43429 4.656C4.32762 4.80533 4.19962 4.928 4.05029 5.024C3.95429 5.12 3.82629 5.22133 3.66629 5.328C3.50629 5.43467 3.33562 5.536 3.15429 5.632C2.98362 5.71733 2.81829 5.78133 2.65829 5.824ZM5.98629 6.08C5.79429 6.05867 5.63429 6 5.50629 5.904C5.38895 5.79733 5.30362 5.64267 5.25029 5.44C5.25029 5.25867 5.27162 5.09333 5.31429 4.944C5.36762 4.784 5.41029 4.62933 5.44229 4.48C5.49562 4.23467 5.57029 3.98933 5.66629 3.744C5.76229 3.49867 5.84762 3.25333 5.92229 3.008C5.98629 2.85867 6.03962 2.71467 6.08229 2.576C6.12495 2.43733 6.16762 2.29867 6.21029 2.16C6.26362 1.98933 6.31695 1.824 6.37029 1.664C6.42362 1.504 6.47695 1.344 6.53029 1.184C6.57295 1.04533 6.60495 0.901333 6.62629 0.752C6.65829 0.602667 6.68495 0.453333 6.70629 0.304C6.82362 0.176 6.95162 0.122667 7.09029 0.144C7.23962 0.165333 7.42095 0.288 7.63429 0.512C7.68762 0.64 7.71429 0.757333 7.71429 0.864C7.71429 0.96 7.68762 1.06133 7.63429 1.168C7.59162 1.264 7.53295 1.408 7.45829 1.6C7.39429 1.792 7.32495 1.984 7.25029 2.176C7.18629 2.35733 7.13829 2.496 7.10629 2.592C7.08495 2.70933 7.02629 2.90133 6.93029 3.168C6.84495 3.43467 6.75429 3.712 6.65829 4C6.56229 4.27733 6.49295 4.50133 6.45029 4.672C6.38629 4.832 6.33829 4.98667 6.30629 5.136C6.27429 5.28533 6.24229 5.472 6.21029 5.696C6.23162 5.792 6.21562 5.872 6.16229 5.936C6.11962 5.98933 6.06095 6.03733 5.98629 6.08Z" fill="#1F170F"/>
</svg>
