<svg width="6" height="9" viewBox="0 0 6 9" fill="none" xmlns="http://www.w3.org/2000/svg">
<path d="M2.71644 8.05714C2.49244 8.24914 2.23111 8.36114 1.93244 8.39314C1.64444 8.42514 1.36178 8.38248 1.08444 8.26514C0.807111 8.13714 0.577778 7.94514 0.396445 7.68914C0.215111 7.45448 0.0977778 7.18781 0.0444445 6.88914C-0.00888889 6.57981 -0.0142222 6.17981 0.0284444 5.68914C0.0604445 5.27314 0.193778 4.85714 0.428444 4.44114C0.663111 4.01448 0.945778 3.63581 1.27644 3.30514C1.61778 2.97448 1.95378 2.74514 2.28444 2.61714C2.44444 2.51048 2.57778 2.46248 2.68444 2.47314C2.80178 2.47314 2.97778 2.48381 3.21244 2.50514C3.45778 2.53714 3.63911 2.58514 3.75644 2.64914C3.88444 2.71314 3.98578 2.79848 4.06044 2.90514C4.22044 3.06514 4.32711 3.22514 4.38045 3.38514C4.43378 3.53448 4.46044 3.68381 4.46044 3.83314C4.41778 4.06781 4.25778 4.35581 3.98044 4.69714C3.71378 5.02781 3.36178 5.29981 2.92444 5.51314C2.68978 5.58781 2.43378 5.61981 2.15644 5.60914C1.87911 5.59848 1.64978 5.52914 1.46844 5.40114C1.26578 5.31581 1.13244 5.33181 1.06844 5.44914C1.00444 5.55581 0.945778 5.82248 0.892444 6.24914C0.849778 6.65448 0.881778 6.95314 0.988445 7.14514C1.09511 7.32648 1.23911 7.43314 1.42044 7.46514C1.63378 7.50781 1.79911 7.53981 1.91644 7.56114C2.04444 7.57181 2.19911 7.52381 2.38044 7.41714C2.55111 7.31048 2.65778 7.25181 2.70044 7.24114C2.74311 7.21981 2.77511 7.19848 2.79644 7.17714C2.82844 7.14514 2.89778 7.07581 3.00444 6.96914C3.07911 6.89448 3.13778 6.84114 3.18044 6.80914C3.22311 6.76648 3.27111 6.74514 3.32444 6.74514C3.37778 6.74514 3.42578 6.77181 3.46844 6.82514C3.51111 6.86781 3.55378 6.89981 3.59644 6.92114C3.70311 6.92114 3.72444 6.98514 3.66044 7.11314C3.60711 7.24114 3.49511 7.39581 3.32444 7.57714C3.15378 7.74781 2.95111 7.90781 2.71644 8.05714ZM2.70044 4.66514C2.81778 4.61181 2.94044 4.53714 3.06844 4.44114C3.19644 4.33448 3.30311 4.22248 3.38844 4.10514C3.48444 3.97714 3.53244 3.87048 3.53244 3.78514C3.53244 3.63581 3.46311 3.51314 3.32444 3.41714C3.18578 3.31048 2.97778 3.29448 2.70044 3.36914C2.58311 3.40114 2.44978 3.48114 2.30044 3.60914C2.15111 3.72648 2.00711 3.85981 1.86844 4.00914C1.74044 4.15848 1.63378 4.29181 1.54844 4.40914C1.47378 4.52648 1.44711 4.59581 1.46844 4.61714C1.50044 4.67048 1.59111 4.71314 1.74044 4.74514C1.88978 4.76648 2.05511 4.77181 2.23644 4.76114C2.42844 4.75048 2.58311 4.71848 2.70044 4.66514ZM2.49244 1.41714C2.41778 1.34248 2.35378 1.25181 2.30044 1.14514C2.25778 1.02781 2.24178 0.94781 2.25244 0.905143C2.27378 0.85181 2.31111 0.750476 2.36444 0.601143C2.42844 0.441143 2.49778 0.329143 2.57244 0.265143C2.60444 0.24381 2.63644 0.21181 2.66844 0.169144C2.71111 0.11581 2.75378 0.0838094 2.79644 0.0731428C2.92444 -0.0121907 3.04178 -0.0228572 3.14844 0.0411433C3.26578 0.0944765 3.35111 0.206476 3.40444 0.377143C3.50044 0.526476 3.53244 0.65981 3.50044 0.777143C3.46844 0.88381 3.38311 1.02781 3.24444 1.20914C3.08444 1.42248 2.94044 1.53981 2.81244 1.56114C2.68444 1.58248 2.57778 1.53448 2.49244 1.41714ZM4.54044 1.41714C4.46578 1.34248 4.40178 1.25181 4.34844 1.14514C4.30578 1.02781 4.28978 0.94781 4.30045 0.905143C4.32178 0.85181 4.35911 0.750476 4.41245 0.601143C4.47644 0.441143 4.54578 0.329143 4.62044 0.265143C4.65244 0.24381 4.68445 0.21181 4.71644 0.169144C4.75911 0.11581 4.80178 0.0838094 4.84444 0.0731428C4.97245 -0.0121907 5.08978 -0.0228572 5.19644 0.0411433C5.31378 0.0944765 5.39911 0.206476 5.45245 0.377143C5.54845 0.526476 5.58044 0.65981 5.54844 0.777143C5.51644 0.88381 5.43111 1.02781 5.29244 1.20914C5.13244 1.42248 4.98844 1.53981 4.86045 1.56114C4.73245 1.58248 4.62578 1.53448 4.54044 1.41714Z" fill="#1F170F"/>
</svg>
