<svg width="8" height="7" viewBox="0 0 8 7" fill="none" xmlns="http://www.w3.org/2000/svg">
<path d="M0.416 6.16C0.309333 6.064 0.218667 5.97333 0.144 5.888C0.08 5.80267 0.032 5.70667 0 5.6C0.0426667 5.536 0.064 5.47733 0.064 5.424C0.064 5.36 0.064 5.27467 0.064 5.168C0.064 4.99733 0.064 4.832 0.064 4.672C0.0746667 4.50133 0.0746667 4.33067 0.064 4.16C0.0533333 4 0.08 3.856 0.144 3.728C0.208 3.6 0.304 3.49867 0.432 3.424C0.56 3.34933 0.656 3.264 0.72 3.168C0.794667 3.072 0.853333 2.944 0.896 2.784C0.949333 2.592 0.992 2.42667 1.024 2.288C1.056 2.14933 1.09333 1.97867 1.136 1.776C1.18933 1.56267 1.25867 1.26933 1.344 0.896C1.33333 0.810667 1.33867 0.730667 1.36 0.656C1.392 0.581333 1.408 0.501334 1.408 0.416C1.408 0.192 1.52533 0.0533336 1.76 0C1.90933 0.0426668 2.01067 0.0800001 2.064 0.112C2.128 0.133333 2.18667 0.165333 2.24 0.208C2.29333 0.250667 2.37333 0.336 2.48 0.464C2.48 0.506667 2.46933 0.592 2.448 0.72C2.43733 0.848 2.41067 0.96 2.368 1.056C2.29333 1.29067 2.224 1.52533 2.16 1.76C2.10667 1.99467 2.048 2.224 1.984 2.448C1.97333 2.50133 1.95733 2.56 1.936 2.624C1.92533 2.67733 1.92533 2.736 1.936 2.8L3.168 2.608C3.22133 2.59733 3.28 2.608 3.344 2.64C3.408 2.66133 3.47733 2.68267 3.552 2.704C3.712 2.39467 3.872 2.08 4.032 1.76C4.20267 1.42933 4.368 1.15733 4.528 0.944C4.63467 0.794667 4.73067 0.677334 4.816 0.592C4.912 0.506667 5.01867 0.426667 5.136 0.352C5.25333 0.234667 5.38133 0.16 5.52 0.128C5.65867 0.0853335 5.792 0.0640001 5.92 0.0640001C5.96267 0.106667 6.00533 0.149334 6.048 0.192C6.10133 0.234667 6.14933 0.282667 6.192 0.336C6.24533 0.378667 6.29333 0.421333 6.336 0.464C6.38933 0.506667 6.44267 0.554667 6.496 0.608C6.77333 0.576 6.992 0.576 7.152 0.608C7.32267 0.629334 7.46667 0.72 7.584 0.88C7.60533 0.912 7.616 0.954667 7.616 1.008C7.62667 1.05067 7.62133 1.08267 7.6 1.104L7.184 1.472C7.22667 1.54667 7.264 1.62667 7.296 1.712C7.328 1.78667 7.36533 1.86667 7.408 1.952C7.408 2.00533 7.392 2.064 7.36 2.128C7.328 2.18133 7.328 2.24 7.36 2.304C7.43467 2.432 7.46133 2.56533 7.44 2.704C7.41867 2.832 7.41333 2.97067 7.424 3.12C7.44533 3.17333 7.43467 3.264 7.392 3.392C7.34933 3.50933 7.30133 3.632 7.248 3.76C7.20533 3.87733 7.17867 3.96267 7.168 4.016C7.136 4.176 7.072 4.32 6.976 4.448C6.88 4.56533 6.80533 4.704 6.752 4.864C6.74133 4.88533 6.72 4.90667 6.688 4.928C6.66667 4.93867 6.63467 4.95467 6.592 4.976C6.34667 5.25333 6.096 5.472 5.84 5.632C5.65867 5.76 5.49333 5.85067 5.344 5.904C5.20533 5.95733 5.06133 5.98933 4.912 6C4.76267 6 4.576 6 4.352 6C4.128 5.88267 3.984 5.79733 3.92 5.744C3.856 5.69067 3.81333 5.63733 3.792 5.584C3.77067 5.53067 3.696 5.44533 3.568 5.328C3.568 5.18933 3.51467 5.04533 3.408 4.896C3.42933 4.81067 3.42933 4.72533 3.408 4.64C3.38667 4.55467 3.376 4.47467 3.376 4.4V3.488C3.23733 3.43467 3.14667 3.43467 3.104 3.488C3.06133 3.53067 3.00267 3.54667 2.928 3.536C2.78933 3.61067 2.63467 3.66933 2.464 3.712C2.304 3.744 2.176 3.77067 2.08 3.792C1.97333 3.824 1.86667 3.86667 1.76 3.92C1.65333 3.97333 1.584 4.02133 1.552 4.064C1.44533 4.17067 1.38133 4.31467 1.36 4.496C1.36 4.53867 1.33333 4.63467 1.28 4.784C1.23733 4.93333 1.18933 5.088 1.136 5.248C1.09333 5.408 1.06667 5.52 1.056 5.584C1.056 5.63733 1.02933 5.728 0.976 5.856C0.933333 5.984 0.890667 6.05867 0.848 6.08C0.784 6.12267 0.72 6.15467 0.656 6.176C0.592 6.19733 0.512 6.192 0.416 6.16ZM4.944 4.992C5.12533 4.90667 5.312 4.77867 5.504 4.608C5.696 4.43733 5.92533 4.15467 6.192 3.76C6.30933 3.52533 6.38933 3.34933 6.432 3.232C6.48533 3.11467 6.512 2.992 6.512 2.864C6.52267 2.736 6.528 2.54933 6.528 2.304C6.51733 1.99467 6.43733 1.744 6.288 1.552C6.14933 1.34933 6.01067 1.14667 5.872 0.944C5.712 1.14667 5.54667 1.328 5.376 1.488C5.20533 1.648 5.02933 1.91467 4.848 2.288C4.70933 2.58667 4.576 2.86933 4.448 3.136C4.32 3.392 4.272 3.712 4.304 4.096C4.304 4.32 4.32 4.48 4.352 4.576C4.384 4.672 4.40533 4.77867 4.416 4.896C4.43733 4.98133 4.50667 5.02933 4.624 5.04C4.74133 5.05067 4.848 5.03467 4.944 4.992Z" fill="#1F170F"/>
</svg>
