<svg width="8" height="11" viewBox="0 0 8 11" fill="none" xmlns="http://www.w3.org/2000/svg">
<path d="M1.792 10.784C1.55733 10.784 1.33333 10.7413 1.12 10.656C0.896 10.5707 0.688 10.432 0.496 10.24C0.4 10.0053 0.330667 9.85067 0.288 9.776C0.234667 9.712 0.138667 9.616 0 9.488C0 9.43467 0.0213333 9.33333 0.064 9.184C0.106667 9.04533 0.170667 8.92267 0.256 8.816C0.48 8.54933 0.752 8.30933 1.072 8.096C1.392 7.89333 1.76533 7.71733 2.192 7.568C2.24533 7.54667 2.29867 7.52 2.352 7.488C2.416 7.46667 2.47467 7.456 2.528 7.456C2.58133 7.456 2.61333 7.424 2.624 7.36C2.64533 7.296 2.69333 7.29067 2.768 7.344C2.82133 7.32267 2.864 7.296 2.896 7.264C2.928 7.232 2.98133 7.22667 3.056 7.248C3.056 7.248 3.11467 7.232 3.232 7.2C3.36 7.168 3.504 7.12533 3.664 7.072C3.824 7.02933 3.96267 6.98667 4.08 6.944C4.208 6.912 4.272 6.896 4.272 6.896C4.29333 6.608 4.29867 6.30933 4.288 6C4.288 5.69067 4.20267 5.46133 4.032 5.312C3.92533 5.19467 3.84 5.06133 3.776 4.912C3.72267 4.76267 3.65333 4.60267 3.568 4.432C3.58933 4.336 3.62667 4.256 3.68 4.192C3.73333 4.128 3.808 4.07467 3.904 4.032C4.10667 3.936 4.352 3.78667 4.64 3.584C4.93867 3.37067 5.24267 3.12 5.552 2.832C5.86133 2.544 6.13333 2.23467 6.368 1.904C6.51733 1.69067 6.57067 1.488 6.528 1.296C6.496 1.104 6.30933 0.986667 5.968 0.944C5.75467 0.944 5.51467 1.01867 5.248 1.168C4.98133 1.30667 4.704 1.49867 4.416 1.744C4.24533 1.808 4.12267 1.792 4.048 1.696C3.97333 1.58933 3.91467 1.472 3.872 1.344C3.89333 1.22667 3.936 1.12533 4 1.04C4.064 0.944 4.13333 0.853334 4.208 0.768C4.29333 0.682667 4.368 0.592 4.432 0.496C4.51733 0.453334 4.592 0.410667 4.656 0.368C4.72 0.314667 4.78933 0.266667 4.864 0.224C4.928 0.181334 4.992 0.149334 5.056 0.128C5.13067 0.0960004 5.20533 0.0800004 5.28 0.0800004C5.344 0.0800004 5.408 0.0693337 5.472 0.0480003C5.536 0.0160001 5.60533 0 5.68 0C6.18133 0.0213334 6.576 0.213333 6.864 0.576C7.152 0.938667 7.28 1.296 7.248 1.648C7.22667 2 7.04533 2.45867 6.704 3.024C6.608 3.184 6.448 3.35467 6.224 3.536C6.01067 3.71733 5.78133 3.89333 5.536 4.064C5.30133 4.23467 5.09333 4.384 4.912 4.512C4.73067 4.62933 4.624 4.704 4.592 4.736C4.688 4.85333 4.78933 5.05067 4.896 5.328C5.00267 5.59467 5.088 5.86667 5.152 6.144C5.22667 6.432 5.23733 6.656 5.184 6.816C5.29067 6.83733 5.424 6.82667 5.584 6.784C5.75467 6.752 5.888 6.736 5.984 6.736C6.08 6.832 6.176 6.92267 6.272 7.008C6.368 7.09333 6.416 7.184 6.416 7.28C6.43733 7.344 6.42133 7.40267 6.368 7.456C6.32533 7.50933 6.27733 7.54133 6.224 7.552C6.08533 7.57333 5.90933 7.57867 5.696 7.568C5.48267 7.55733 5.27467 7.59467 5.072 7.68C4.92267 7.904 4.79467 8.14933 4.688 8.416C4.58133 8.69333 4.44267 8.976 4.272 9.264C4.10133 9.56267 3.83467 9.86667 3.472 10.176C3.344 10.2827 3.21067 10.3787 3.072 10.464C2.93333 10.56 2.82133 10.608 2.736 10.608C2.56533 10.6613 2.4 10.704 2.24 10.736C2.09067 10.768 1.94133 10.784 1.792 10.784ZM1.104 9.968C1.104 9.98933 1.184 9.99467 1.344 9.984C1.49333 9.984 1.67467 9.95733 1.888 9.904C2.112 9.86133 2.30933 9.792 2.48 9.696C2.69333 9.568 2.87467 9.41333 3.024 9.232C3.17333 9.06133 3.31733 8.87467 3.456 8.672C3.50933 8.58667 3.56267 8.49067 3.616 8.384C3.66933 8.288 3.712 8.18667 3.744 8.08C3.66933 7.99467 3.54667 8 3.376 8.096C3.20533 8.192 3.00267 8.28267 2.768 8.368C2.52267 8.45333 2.224 8.58133 1.872 8.752C1.53067 8.93333 1.26933 9.13067 1.088 9.344C1.03467 9.41867 0.976 9.488 0.912 9.552C0.848 9.616 0.778667 9.67467 0.704 9.728C0.757333 9.80267 0.816 9.86133 0.88 9.904C0.944 9.94667 1.01867 9.968 1.104 9.968Z" fill="#1F170F"/>
</svg>
