<svg width="10" height="7" viewBox="0 0 10 7" fill="none" xmlns="http://www.w3.org/2000/svg">
<path d="M9.168 1.46514C9.168 1.46514 9.10933 1.51848 8.992 1.62514C8.87467 1.72114 8.73067 1.84381 8.56 1.99314C8.38933 2.13181 8.21867 2.27581 8.048 2.42514C7.888 2.56381 7.74933 2.68648 7.632 2.79314C7.52533 2.88914 7.472 2.93714 7.472 2.93714L6.288 3.89714C6.288 4.03581 6.30933 4.14781 6.352 4.23314C6.39467 4.30781 6.46933 4.43581 6.576 4.61714C6.69333 4.80914 6.83733 5.00114 7.008 5.19314C7.18933 5.38514 7.35467 5.55048 7.504 5.68914C7.664 5.82781 7.76533 5.92381 7.808 5.97714C7.872 6.07314 7.86133 6.14248 7.776 6.18514C7.69067 6.22781 7.584 6.25981 7.456 6.28114C7.328 6.29181 7.232 6.30781 7.168 6.32914C6.98667 6.29714 6.8 6.18514 6.608 5.99314C6.416 5.80114 6.24 5.58781 6.08 5.35314C5.93067 5.11848 5.82933 4.93181 5.776 4.79314C5.62667 4.60114 5.51467 4.44114 5.44 4.31314C5.36533 4.18514 5.28533 3.98781 5.2 3.72114C5.136 3.79581 5.08267 3.86514 5.04 3.92914C4.99733 3.99314 4.944 4.09981 4.88 4.24914C4.83733 4.37714 4.784 4.52648 4.72 4.69714C4.656 4.85714 4.59733 5.00114 4.544 5.12914C4.50133 5.24648 4.49067 5.30514 4.512 5.30514C4.53333 5.46514 4.528 5.57714 4.496 5.64114C4.464 5.70514 4.4 5.78514 4.304 5.88114L3.872 5.89714C3.66933 5.75848 3.54667 5.62514 3.504 5.49714C3.46133 5.35848 3.44 5.22514 3.44 5.09714C3.54667 4.88381 3.65333 4.66514 3.76 4.44114C3.87733 4.20648 3.96267 3.96114 4.016 3.70514C3.952 3.70514 3.888 3.71581 3.824 3.73714C3.76 3.74781 3.66933 3.76381 3.552 3.78514C3.392 3.94514 3.24267 4.08381 3.104 4.20114C2.976 4.30781 2.82667 4.43581 2.656 4.58514C2.496 4.73448 2.27733 4.94781 2 5.22514C1.82933 5.38514 1.65867 5.55048 1.488 5.72114C1.31733 5.89181 1.16267 6.07848 1.024 6.28114C0.917333 6.41981 0.693333 6.43581 0.352 6.32914L0 5.78514C0 5.69981 0.0213333 5.62514 0.064 5.56114C0.106667 5.49714 0.165333 5.44381 0.24 5.40114C0.282667 5.36914 0.384 5.28381 0.544 5.14514C0.704 4.99581 0.88 4.83048 1.072 4.64914C1.27467 4.46781 1.44 4.31848 1.568 4.20114C1.6 4.16914 1.67467 4.10514 1.792 4.00914C1.92 3.90248 2.04267 3.80114 2.16 3.70514C2.288 3.60914 2.35733 3.56114 2.368 3.56114C2.45333 3.47581 2.59733 3.35314 2.8 3.19314C3.00267 3.03314 3.15733 2.89981 3.264 2.79314C3.15733 2.62248 3.04533 2.43581 2.928 2.23314C2.82133 2.01981 2.69333 1.82248 2.544 1.64114C2.43733 1.47048 2.33067 1.29448 2.224 1.11314C2.128 0.93181 2.02133 0.745143 1.904 0.553143C1.95733 0.40381 2.05867 0.32381 2.208 0.313143C2.35733 0.302476 2.50667 0.334476 2.656 0.409143C2.912 0.64381 3.10933 0.94781 3.248 1.32114C3.408 1.57714 3.54133 1.78514 3.648 1.94514C3.75467 2.09448 3.856 2.23848 3.952 2.37714C4.048 2.51581 4.16 2.69181 4.288 2.90514C4.36267 2.55314 4.44267 2.19581 4.528 1.83314C4.61333 1.47048 4.67733 1.17714 4.72 0.953143C4.74133 0.86781 4.75733 0.782476 4.768 0.697143C4.78933 0.61181 4.78933 0.521143 4.768 0.425143C4.75733 0.37181 4.75733 0.32381 4.768 0.281143C4.78933 0.22781 4.80533 0.185143 4.816 0.153143C4.83733 0.0784763 4.88 0.0304763 4.944 0.0091429C5.008 -0.0121905 5.07733 0.00380947 5.152 0.0571428C5.312 0.16381 5.46133 0.297143 5.6 0.457143C5.74933 0.617143 5.79733 0.793143 5.744 0.985143C5.744 0.99581 5.71733 1.11314 5.664 1.33714C5.61067 1.55048 5.552 1.80114 5.488 2.08914C5.424 2.36648 5.36533 2.61181 5.312 2.82514C5.25867 3.03848 5.232 3.15048 5.232 3.16114L5.392 3.19314C5.60533 3.05448 5.824 2.91048 6.048 2.76114C6.272 2.60114 6.44267 2.47314 6.56 2.37714C6.70933 2.27048 6.896 2.11581 7.12 1.91314C7.344 1.71048 7.56267 1.50248 7.776 1.28914C7.98933 1.07581 8.15467 0.910476 8.272 0.793143C8.368 0.70781 8.432 0.654476 8.464 0.633143C8.50667 0.601143 8.58667 0.574476 8.704 0.553143C8.82133 0.62781 8.93333 0.729143 9.04 0.857143C9.15733 0.974476 9.22667 1.09181 9.248 1.20914C9.25867 1.31581 9.232 1.40114 9.168 1.46514Z" fill="#1F170F"/>
</svg>
