<svg width="5" height="6" viewBox="0 0 5 6" fill="none" xmlns="http://www.w3.org/2000/svg">
<path d="M1.16114 5.792C1.02248 5.792 0.910476 5.76533 0.825143 5.712C0.750476 5.65867 0.654476 5.584 0.537143 5.488C0.334476 5.27467 0.190476 5.072 0.105143 4.88C0.0198096 4.67733 -0.00685712 4.48533 0.0251429 4.304C0.0571429 4.21867 0.0678095 4.13867 0.0571428 4.064C0.0571428 3.97867 0.0571428 3.936 0.0571428 3.936C0.00380953 3.88267 -0.0121905 3.85067 0.00914284 3.84C0.0304762 3.81867 0.0518096 3.78667 0.0731428 3.744C0.137143 3.744 0.158476 3.68533 0.137143 3.568C0.11581 3.48267 0.158476 3.296 0.265143 3.008C0.37181 2.72 0.505143 2.448 0.665143 2.192C0.729143 2.08533 0.825143 1.94667 0.953143 1.776C1.08114 1.59467 1.21981 1.41867 1.36914 1.248C1.52914 1.06667 1.67314 0.922667 1.80114 0.816C2.06781 0.592 2.30248 0.426667 2.50514 0.32C2.70781 0.213333 2.92648 0.133333 3.16114 0.0799999C3.39581 0.0266666 3.55581 0 3.64114 0C3.73714 0 3.86514 0.0853332 4.02514 0.256C4.27048 0.362666 4.44648 0.490667 4.55314 0.64C4.67048 0.789333 4.74514 1.008 4.77714 1.296C4.80914 1.616 4.78248 1.984 4.69714 2.4C4.62248 2.80533 4.37181 3.312 3.94514 3.92C3.67848 4.304 3.43314 4.592 3.20914 4.784C2.98514 4.96533 2.71848 5.14667 2.40914 5.328C2.18514 5.47733 1.98248 5.58933 1.80114 5.664C1.61981 5.728 1.40648 5.77067 1.16114 5.792ZM2.69714 4.096C2.95314 3.808 3.15581 3.536 3.30514 3.28C3.46514 3.024 3.61448 2.69867 3.75314 2.304C3.79581 2.18667 3.82248 2.04267 3.83314 1.872C3.84381 1.69067 3.83848 1.52533 3.81714 1.376C3.80648 1.216 3.76914 1.12533 3.70514 1.104C3.57714 1.02933 3.42248 1.008 3.24114 1.04C3.05981 1.06133 2.86248 1.16267 2.64914 1.344C2.31848 1.62133 2.03048 1.968 1.78514 2.384C1.53981 2.78933 1.29981 3.25333 1.06514 3.776C0.905143 4.16 0.867809 4.46933 0.953143 4.704C1.04914 4.928 1.24648 5.008 1.54514 4.944C1.85448 4.86933 2.23848 4.58667 2.69714 4.096Z" fill="#1F170F"/>
</svg>
