<svg width="17" height="26" viewBox="0 0 17 26" fill="none" xmlns="http://www.w3.org/2000/svg">
<path d="M6.304 25.792C4.78933 25.792 3.56267 25.408 2.624 24.64C1.70667 23.8933 1.03467 22.9227 0.608 21.728C0.202667 20.5333 0 19.2853 0 17.984C0 16.2987 0.256 14.6027 0.768 12.896C1.28 11.1893 1.97333 9.568 2.848 8.032C3.744 6.47467 4.75733 5.09867 5.888 3.904C7.01867 2.688 8.20267 1.73867 9.44 1.056C10.6987 0.352 11.936 0 13.152 0C14.0267 0 14.7307 0.213333 15.264 0.639999C15.8187 1.04533 16.096 1.74933 16.096 2.752C16.096 3.37067 15.9893 4.07467 15.776 4.864C15.5627 5.632 15.2747 6.37867 14.912 7.104C14.5493 7.808 14.144 8.39467 13.696 8.864C13.2693 9.33333 12.832 9.568 12.384 9.568C12.2133 9.568 12.032 9.51467 11.84 9.408C11.6693 9.30133 11.52 9.10933 11.392 8.832C11.712 8.46933 12.064 8.02133 12.448 7.488C12.8533 6.93333 13.2373 6.35733 13.6 5.76C13.9627 5.14133 14.2507 4.544 14.464 3.968C14.6987 3.37067 14.816 2.848 14.816 2.4C14.816 1.97333 14.688 1.632 14.432 1.376C14.1973 1.09867 13.8027 0.960001 13.248 0.960001C12.3307 0.960001 11.3707 1.33333 10.368 2.08C9.38667 2.82667 8.42667 3.82933 7.488 5.088C6.57067 6.32533 5.73867 7.712 4.992 9.248C4.24533 10.784 3.648 12.352 3.2 13.952C2.77333 15.552 2.56 17.0773 2.56 18.528C2.56 19.5733 2.70933 20.576 3.008 21.536C3.30667 22.4747 3.78667 23.232 4.448 23.808C5.13067 24.4053 6.00533 24.704 7.072 24.704C8.20267 24.704 9.32267 24.384 10.432 23.744C11.5627 23.104 12.5973 22.2613 13.536 21.216C14.4747 20.1707 15.2213 19.04 15.776 17.824L16.224 18.144C15.52 19.5307 14.6667 20.8107 13.664 21.984C12.6613 23.136 11.5413 24.0533 10.304 24.736C9.06667 25.44 7.73333 25.792 6.304 25.792Z" fill="#1A1A1A"/>
</svg>
