<svg width="17" height="26" viewBox="0 0 17 26" fill="none" xmlns="http://www.w3.org/2000/svg">
<path d="M6.24 25.792C4.96 25.792 3.85067 25.5253 2.912 24.992C1.97333 24.4587 1.248 23.7547 0.736 22.88C0.245333 21.984 0 21.0133 0 19.968C0 18.9867 0.213333 18.0267 0.64 17.088C1.06667 16.1493 1.65333 15.296 2.4 14.528C3.168 13.7387 4.05333 13.0987 5.056 12.608C6.05867 12.096 7.136 11.7867 8.288 11.68C7.456 10.9973 6.83733 10.208 6.432 9.312C6.048 8.416 5.856 7.52 5.856 6.624C5.856 5.49333 6.13333 4.42667 6.688 3.424C7.264 2.4 8.05333 1.57867 9.056 0.960001C10.0587 0.32 11.1893 0 12.448 0C13.6427 0 14.5493 0.298667 15.168 0.896C15.7867 1.49333 16.096 2.34667 16.096 3.456C16.096 4.24533 15.9573 5.01333 15.68 5.76C15.4027 6.50667 15.0613 7.11467 14.656 7.584C14.272 8.05333 13.8987 8.288 13.536 8.288C13.3013 8.288 13.0773 8.192 12.864 8C12.6507 7.78667 12.48 7.54133 12.352 7.264C13.0987 6.60267 13.728 5.90933 14.24 5.184C14.7733 4.43733 15.04 3.648 15.04 2.816C15.04 2.15467 14.848 1.64267 14.464 1.28C14.08 0.917334 13.5147 0.736 12.768 0.736C11.7867 0.736 10.9547 1.03467 10.272 1.632C9.58933 2.208 9.06667 2.98667 8.704 3.968C8.36267 4.928 8.192 5.99467 8.192 7.168C8.192 7.936 8.30933 8.768 8.544 9.664C8.77867 10.56 9.28 11.3387 10.048 12C8.61867 12.2347 7.37067 12.7787 6.304 13.632C5.25867 14.4853 4.43733 15.488 3.84 16.64C3.264 17.792 2.976 18.9333 2.976 20.064C2.976 20.768 3.104 21.4827 3.36 22.208C3.63733 22.912 4.07467 23.4987 4.672 23.968C5.26933 24.4587 6.06933 24.704 7.072 24.704C8.20267 24.704 9.32267 24.384 10.432 23.744C11.5627 23.104 12.5973 22.2613 13.536 21.216C14.4747 20.1707 15.2213 19.04 15.776 17.824L16.224 18.144C15.4773 19.5947 14.6027 20.896 13.6 22.048C12.5973 23.2 11.4773 24.1067 10.24 24.768C9.00267 25.4507 7.66933 25.792 6.24 25.792Z" fill="#1A1A1A"/>
</svg>
