<svg width="18" height="26" viewBox="0 0 18 26" fill="none" xmlns="http://www.w3.org/2000/svg">
<path d="M2.752 25.664C1.77067 25.5787 1.16267 25.312 0.928 24.864C0.693334 24.416 0.576 23.84 0.576 23.136C0.576 22.368 0.736 21.4293 1.056 20.32C1.376 19.1893 1.77067 17.9627 2.24 16.64C2.73067 15.3173 3.22133 13.9947 3.712 12.672C3.456 12.6933 3.17867 12.7253 2.88 12.768C2.60267 12.7893 2.25067 12.832 1.824 12.896C1.39733 12.9387 0.842667 13.0133 0.16 13.12C0.202667 12.5653 0.405334 12.1387 0.768 11.84C1.152 11.52 1.65333 11.2853 2.272 11.136C2.89067 10.9867 3.584 10.9013 4.352 10.88C4.94933 9.23733 5.55733 7.63733 6.176 6.08C6.816 4.50133 7.44533 3.06133 8.064 1.76C7.85067 1.73867 7.63733 1.728 7.424 1.728C7.232 1.70667 7.02933 1.696 6.816 1.696C5.45067 1.696 4.39467 1.83467 3.648 2.112C2.90133 2.38933 2.38933 2.816 2.112 3.392C1.83467 3.968 1.696 4.704 1.696 5.6C1.696 6.06933 1.728 6.50667 1.792 6.912C1.856 7.296 1.96267 7.70133 2.112 8.128C1.38667 8 0.853333 7.72267 0.512 7.296C0.170667 6.848 0 6.29333 0 5.632C0 4.52267 0.394667 3.552 1.184 2.72C1.97333 1.86667 3.02933 1.20533 4.352 0.736C5.696 0.245333 7.17867 0 8.8 0C9.93067 0 11.0187 0.0853335 12.064 0.256001C13.1307 0.405333 14.1653 0.48 15.168 0.48C15.616 0.48 16.0213 0.458666 16.384 0.416C16.768 0.352 17.152 0.266666 17.536 0.16C16.7467 1.056 16.0853 1.65333 15.552 1.952C15.0187 2.25067 14.4747 2.4 13.92 2.4C13.4293 2.4 12.7893 2.336 12 2.208C11.232 2.05867 10.3573 1.94133 9.376 1.856C9.09867 2.56 8.78933 3.41333 8.448 4.416C8.10667 5.39733 7.75467 6.45333 7.392 7.584C7.02933 8.69333 6.66667 9.80267 6.304 10.912C7.37067 10.976 8.37333 11.072 9.312 11.2C10.272 11.328 11.136 11.4027 11.904 11.424C11.7333 11.68 11.5307 11.8827 11.296 12.032C11.0827 12.16 10.7733 12.256 10.368 12.32C9.96267 12.384 9.39733 12.4373 8.672 12.48C7.968 12.5013 7.01867 12.5227 5.824 12.544C5.696 12.992 5.536 13.5253 5.344 14.144C5.152 14.7627 4.98133 15.3493 4.832 15.904C4.68267 16.4587 4.56533 16.864 4.48 17.12C4.01067 18.7627 3.60533 20.2987 3.264 21.728C2.944 23.1573 2.77333 24.4693 2.752 25.664Z" fill="#1A1A1A"/>
</svg>
