<svg width="17" height="26" viewBox="0 0 17 26" fill="none" xmlns="http://www.w3.org/2000/svg">
<path d="M5.984 25.792C4.87467 25.792 3.86133 25.472 2.944 24.832C2.048 24.2133 1.33333 23.3173 0.8 22.144C0.266667 20.9493 0 19.52 0 17.856C0 16.2133 0.256 14.5493 0.768 12.864C1.28 11.1787 1.97333 9.568 2.848 8.032C3.744 6.496 4.75733 5.13067 5.888 3.936C7.01867 2.72 8.20267 1.76 9.44 1.056C10.6987 0.352 11.936 0 13.152 0C13.9627 0 14.6133 0.170667 15.104 0.512001C15.5947 0.853334 15.9467 1.30133 16.16 1.856C16.3733 2.38933 16.48 2.976 16.48 3.616C16.48 4.36267 16.352 5.09867 16.096 5.824C15.84 6.528 15.4987 7.11467 15.072 7.584C14.6453 8.05333 14.176 8.288 13.664 8.288C13.4933 8.288 13.312 8.23467 13.12 8.128C12.9493 8.02133 12.8 7.82933 12.672 7.552C12.9707 7.33867 13.312 6.95467 13.696 6.4C14.1013 5.84533 14.4427 5.22667 14.72 4.544C15.0187 3.86133 15.168 3.232 15.168 2.656C15.168 2.16533 15.0187 1.76 14.72 1.44C14.4427 1.12 13.952 0.960001 13.248 0.960001C12.3307 0.960001 11.3707 1.33333 10.368 2.08C9.38667 2.82667 8.42667 3.82933 7.488 5.088C6.57067 6.32533 5.73867 7.712 4.992 9.248C4.24533 10.784 3.648 12.352 3.2 13.952C2.77333 15.552 2.56 17.0667 2.56 18.496C2.56 20.4373 2.96533 21.952 3.776 23.04C4.58667 24.1493 5.61067 24.704 6.848 24.704C7.68 24.704 8.46933 24.3947 9.216 23.776C9.96267 23.1787 10.624 22.4 11.2 21.44C11.776 20.4587 12.2347 19.4027 12.576 18.272C12.9387 17.1413 13.1627 16.0533 13.248 15.008C12.4587 14.8373 11.8187 14.7307 11.328 14.688C10.8373 14.624 10.3787 14.592 9.952 14.592C9.67467 14.592 9.376 14.6027 9.056 14.624C8.75733 14.624 8.40533 14.624 8 14.624C8.14933 14.0053 8.40533 13.5787 8.768 13.344C9.152 13.088 9.62133 12.96 10.176 12.96C10.7733 12.96 11.392 13.0667 12.032 13.28C12.6933 13.472 13.3333 13.6853 13.952 13.92C14.5707 14.1547 15.1147 14.336 15.584 14.464L15.36 15.488C14.9547 16.5547 14.624 17.4933 14.368 18.304C14.112 19.0933 13.9093 19.7973 13.76 20.416C13.632 21.0133 13.536 21.5467 13.472 22.016C13.4293 22.4853 13.408 22.912 13.408 23.296C13.408 23.7227 13.4187 24.1387 13.44 24.544C13.4827 24.9493 13.5147 25.3653 13.536 25.792C13.1947 25.6427 12.8853 25.4613 12.608 25.248C12.352 25.056 12.1493 24.8107 12 24.512C11.872 24.2133 11.808 23.872 11.808 23.488C11.808 23.2533 11.8187 23.0187 11.84 22.784C11.8827 22.5493 11.9467 22.2933 12.032 22.016C11.264 23.0827 10.3787 23.9787 9.376 24.704C8.37333 25.4293 7.24267 25.792 5.984 25.792Z" fill="#1A1A1A"/>
</svg>
