<svg width="19" height="26" viewBox="0 0 19 26" fill="none" xmlns="http://www.w3.org/2000/svg">
<path d="M0 25.824C0.128 25.0773 0.277333 24.3093 0.448 23.52C0.618667 22.752 0.832 21.888 1.088 20.928C1.36533 19.9467 1.696 18.816 2.08 17.536C2.464 16.256 2.944 14.7413 3.52 12.992C3.17867 13.0133 2.82667 13.0453 2.464 13.088C2.12267 13.1307 1.77067 13.1733 1.408 13.216C1.42933 12.6827 1.67467 12.2667 2.144 11.968C2.63467 11.648 3.27467 11.4133 4.064 11.264C4.21333 10.816 4.36267 10.3573 4.512 9.888C4.68267 9.39733 4.85333 8.896 5.024 8.384C5.19467 7.85067 5.376 7.31733 5.568 6.784C5.76 6.22933 5.952 5.65333 6.144 5.056C6.35733 4.45867 6.57067 3.85067 6.784 3.232C6.86933 2.99733 6.96533 2.70933 7.072 2.368C7.17867 2.00533 7.232 1.664 7.232 1.344C7.232 1.17333 7.2 1.056 7.136 0.992001C7.09333 0.928 6.976 0.896 6.784 0.896C6.272 0.896 5.77067 1.10933 5.28 1.536C4.81067 1.94133 4.384 2.464 4 3.104C3.63733 3.744 3.34933 4.40533 3.136 5.088C2.92267 5.77067 2.816 6.37867 2.816 6.912C2.816 7.104 2.82667 7.296 2.848 7.488C2.89067 7.68 2.93333 7.85067 2.976 8C2.272 8 1.77067 7.82933 1.472 7.488C1.19467 7.12533 1.056 6.688 1.056 6.176C1.056 5.45067 1.26933 4.72533 1.696 4C2.12267 3.27467 2.66667 2.61333 3.328 2.016C4.01067 1.39733 4.71467 0.906666 5.44 0.544001C6.18667 0.181334 6.85867 0 7.456 0C8.032 0 8.416 0.16 8.608 0.48C8.82133 0.799999 8.928 1.152 8.928 1.536C8.928 1.77067 8.896 2.00533 8.832 2.24C8.78933 2.47467 8.736 2.69867 8.672 2.912L6.176 11.04C6.47467 11.0187 6.77333 11.008 7.072 11.008C7.392 10.9867 7.712 10.976 8.032 10.976C9.03467 10.976 9.984 11.008 10.88 11.072C11.7973 11.1147 12.6613 11.1787 13.472 11.264C13.8987 9.89867 14.3147 8.55467 14.72 7.232C15.1467 5.90933 15.5307 4.75733 15.872 3.776C16.2347 2.77333 16.512 2.06933 16.704 1.664C16.7893 1.49333 16.9067 1.28 17.056 1.024C17.2053 0.768 17.3973 0.533333 17.632 0.32C17.888 0.106667 18.1653 0 18.464 0C18.1653 0.789333 17.824 1.80267 17.44 3.04C17.056 4.256 16.6613 5.58933 16.256 7.04C15.872 8.49067 15.488 9.94133 15.104 11.392C15.5307 11.4133 15.936 11.4453 16.32 11.488C16.7253 11.5093 17.12 11.52 17.504 11.52C17.0347 12.0107 16.576 12.3093 16.128 12.416C15.68 12.5013 15.2427 12.544 14.816 12.544C14.624 13.3333 14.4427 14.1013 14.272 14.848C14.1013 15.5733 13.952 16.2667 13.824 16.928C13.44 18.7413 13.1627 20.288 12.992 21.568C12.8427 22.848 12.768 23.8827 12.768 24.672C12.768 24.928 12.768 25.1413 12.768 25.312C12.7893 25.504 12.8107 25.6747 12.832 25.824C12 25.7387 11.424 25.504 11.104 25.12C10.784 24.736 10.624 24.1387 10.624 23.328C10.624 22.7733 10.688 22.08 10.816 21.248C10.944 20.3947 11.136 19.4773 11.392 18.496C11.5627 17.856 11.7973 17.0133 12.096 15.968C12.3947 14.9013 12.7253 13.7707 13.088 12.576C11.7867 12.576 10.6987 12.5867 9.824 12.608C8.94933 12.6293 8.192 12.6507 7.552 12.672C6.912 12.6933 6.272 12.736 5.632 12.8C5.248 14.0373 4.864 15.264 4.48 16.48C4.096 17.696 3.744 18.816 3.424 19.84C3.104 20.8427 2.83733 21.696 2.624 22.4C2.41067 23.104 2.272 23.5627 2.208 23.776C1.99467 24.5013 1.65333 25.024 1.184 25.344C0.736 25.664 0.341333 25.824 0 25.824Z" fill="#1A1A1A"/>
</svg>
