<svg width="19" height="32" viewBox="0 0 19 32" fill="none" xmlns="http://www.w3.org/2000/svg">
<path d="M0 31.456C0.0853333 30.6667 0.373333 30.0907 0.864 29.728C1.33333 29.3867 1.952 29.1627 2.72 29.056C3.488 28.9493 4.32 28.896 5.216 28.896C5.6 28.064 5.984 27.0507 6.368 25.856C6.752 24.64 7.11467 23.3387 7.456 21.952C7.81867 20.5653 8.17067 19.1573 8.512 17.728C8.85333 16.2773 9.17333 14.8907 9.472 13.568C9.77067 12.2453 10.048 11.0613 10.304 10.016C10.5813 8.94933 10.8267 8.10667 11.04 7.488C9.93067 7.50933 8.98133 7.54133 8.192 7.584C7.424 7.62667 6.69867 7.69067 6.016 7.776C5.35467 7.86133 4.62933 7.97867 3.84 8.128C3.98933 7.31733 4.576 6.70933 5.6 6.304C6.624 5.87733 8.21333 5.664 10.368 5.664C11.4347 5.664 12.512 5.70667 13.6 5.792C14.7093 5.87733 15.7227 5.97333 16.64 6.08C17.5573 6.16533 18.2613 6.25067 18.752 6.336C18.24 6.848 17.696 7.168 17.12 7.296C16.5653 7.40267 16.0747 7.456 15.648 7.456C14.9867 7.456 14.3573 7.456 13.76 7.456C13.184 7.456 12.6507 7.46667 12.16 7.488C12.0747 7.936 11.9467 8.64 11.776 9.6C11.6053 10.5387 11.4027 11.6267 11.168 12.864C10.9333 14.08 10.688 15.3493 10.432 16.672C10.176 17.9733 9.92 19.2213 9.664 20.416C9.42933 21.5893 9.20533 22.6027 8.992 23.456C8.65067 24.8213 8.26667 25.9733 7.84 26.912C7.41333 27.8507 6.90133 28.5227 6.304 28.928C7.41333 28.992 8.59733 29.0987 9.856 29.248C11.1147 29.4187 12.2453 29.5147 13.248 29.536C12.6293 30.1547 11.9787 30.5387 11.296 30.688C10.6347 30.8373 10.08 30.912 9.632 30.912C8.77867 30.912 7.936 30.912 7.104 30.912C6.29333 30.9333 5.48267 30.9547 4.672 30.976C3.88267 30.9973 3.09333 31.04 2.304 31.104C1.536 31.1893 0.768 31.3067 0 31.456ZM12.288 4.704C11.8187 4.08533 11.296 3.47733 10.72 2.88C10.144 2.28267 9.472 1.65333 8.704 0.992001C8.74667 0.608 8.832 0.352 8.96 0.223999C9.088 0.0746663 9.23733 0 9.408 0C9.728 0 10.08 0.16 10.464 0.48C10.848 0.799999 11.2107 1.19467 11.552 1.664C11.8933 2.112 12.1707 2.54933 12.384 2.976C12.6187 3.38133 12.736 3.68 12.736 3.872C12.736 3.95733 12.704 4.096 12.64 4.288C12.576 4.48 12.4587 4.61867 12.288 4.704Z" fill="#1A1A1A"/>
</svg>
