<svg width="19" height="26" viewBox="0 0 19 26" fill="none" xmlns="http://www.w3.org/2000/svg">
<path d="M0 25.792C0.0853333 25.0027 0.373333 24.4267 0.864 24.064C1.33333 23.7227 1.952 23.4987 2.72 23.392C3.488 23.2853 4.32 23.232 5.216 23.232C5.6 22.4 5.984 21.3867 6.368 20.192C6.752 18.976 7.11467 17.6747 7.456 16.288C7.81867 14.9013 8.17067 13.4933 8.512 12.064C8.85333 10.6133 9.17333 9.22667 9.472 7.904C9.77067 6.58133 10.048 5.39733 10.304 4.352C10.5813 3.28533 10.8267 2.44267 11.04 1.824C9.93067 1.84533 8.98133 1.87733 8.192 1.92C7.424 1.96267 6.69867 2.02667 6.016 2.112C5.35467 2.19733 4.62933 2.31467 3.84 2.464C3.98933 1.65333 4.576 1.04533 5.6 0.640001C6.624 0.213334 8.21333 0 10.368 0C11.4347 0 12.512 0.0426668 13.6 0.128C14.7093 0.213334 15.7227 0.309334 16.64 0.416C17.5573 0.501334 18.2613 0.586667 18.752 0.672001C18.24 1.184 17.696 1.504 17.12 1.632C16.5653 1.73867 16.0747 1.792 15.648 1.792C14.9867 1.792 14.3573 1.792 13.76 1.792C13.184 1.792 12.6507 1.80267 12.16 1.824C12.0747 2.272 11.9467 2.976 11.776 3.936C11.6053 4.87467 11.4027 5.96267 11.168 7.2C10.9333 8.416 10.688 9.68533 10.432 11.008C10.176 12.3093 9.92 13.5573 9.664 14.752C9.42933 15.9253 9.20533 16.9387 8.992 17.792C8.65067 19.1573 8.26667 20.3093 7.84 21.248C7.41333 22.1867 6.90133 22.8587 6.304 23.264C7.41333 23.328 8.59733 23.4347 9.856 23.584C11.1147 23.7547 12.2453 23.8507 13.248 23.872C12.6293 24.4907 11.9787 24.8747 11.296 25.024C10.6347 25.1733 10.08 25.248 9.632 25.248C8.77867 25.248 7.936 25.248 7.104 25.248C6.29333 25.2693 5.48267 25.2907 4.672 25.312C3.88267 25.3333 3.09333 25.376 2.304 25.44C1.536 25.5253 0.768 25.6427 0 25.792Z" fill="#1A1A1A"/>
</svg>
