<svg width="21" height="26" viewBox="0 0 21 26" fill="none" xmlns="http://www.w3.org/2000/svg">
<path d="M15.072 25.824C14.304 25.824 13.4507 25.664 12.512 25.344C11.5947 25.024 10.6453 24.6293 9.664 24.16C8.68267 23.712 7.712 23.2747 6.752 22.848C6.21867 23.4453 5.664 23.904 5.088 24.224C4.512 24.5653 3.88267 24.736 3.2 24.736C2.51733 24.736 1.94133 24.576 1.472 24.256C0.981333 23.936 0.618667 23.552 0.384 23.104C0.128 22.6773 0 22.2933 0 21.952C0 21.568 0.181333 21.2373 0.544 20.96C0.885333 20.6827 1.48267 20.544 2.336 20.544C2.89067 20.544 3.49867 20.608 4.16 20.736C4.84267 20.864 5.54667 21.024 6.272 21.216C6.784 20.32 7.25333 19.2747 7.68 18.08C8.128 16.8853 8.56533 15.616 8.992 14.272C9.41867 12.928 9.84533 11.584 10.272 10.24C9.29067 9.92 8.512 9.45067 7.936 8.832C7.38133 8.21333 7.104 7.54133 7.104 6.816C7.104 6.432 7.17867 6.048 7.328 5.664C7.49867 5.28 7.73333 4.96 8.032 4.704C8.33067 4.42667 8.68267 4.288 9.088 4.288C8.93867 4.50133 8.832 4.81067 8.768 5.216C8.704 5.62133 8.672 5.97333 8.672 6.272C8.672 7.08267 8.84267 7.76533 9.184 8.32C9.52533 8.85333 9.96267 9.26933 10.496 9.568C10.9227 8.288 11.36 7.08267 11.808 5.952C12.2773 4.8 12.7893 3.776 13.344 2.88C13.8987 1.984 14.5067 1.28 15.168 0.768C15.8293 0.256 16.5653 0 17.376 0C17.8027 0 18.2507 0.096 18.72 0.288C19.2107 0.48 19.6267 0.810667 19.968 1.28C20.3093 1.74933 20.48 2.41067 20.48 3.264C20.48 3.98933 20.3307 4.77867 20.032 5.632C19.7333 6.464 19.2747 7.264 18.656 8.032C18.0373 8.77867 17.248 9.39733 16.288 9.888C15.328 10.3573 14.1973 10.6027 12.896 10.624C12.8747 10.624 12.8213 10.624 12.736 10.624C12.672 10.624 12.5227 10.624 12.288 10.624C11.8613 11.9253 11.4027 13.248 10.912 14.592C10.4427 15.936 9.94133 17.216 9.408 18.432C8.87467 19.6267 8.29867 20.6933 7.68 21.632C8.66133 21.9307 9.65333 22.24 10.656 22.56C11.6587 22.8587 12.6293 23.104 13.568 23.296C14.5067 23.5093 15.3707 23.616 16.16 23.616C16.608 23.616 17.0133 23.5733 17.376 23.488C17.7387 23.4027 18.0907 23.2747 18.432 23.104C18.0907 24.0853 17.632 24.7787 17.056 25.184C16.5013 25.6107 15.84 25.824 15.072 25.824ZM3.072 23.808C3.54133 23.808 3.97867 23.68 4.384 23.424C4.81067 23.168 5.19467 22.8053 5.536 22.336C4.87467 22.0587 4.224 21.8347 3.584 21.664C2.96533 21.472 2.4 21.376 1.888 21.376C1.48267 21.376 1.20533 21.4293 1.056 21.536C0.906667 21.6427 0.832 21.792 0.832 21.984C0.832 22.3467 1.04533 22.7413 1.472 23.168C1.87733 23.5947 2.41067 23.808 3.072 23.808ZM12.48 10.016C13.44 10.016 14.304 9.74933 15.072 9.216C15.8613 8.66133 16.5227 7.97867 17.056 7.168C17.6107 6.336 18.0267 5.49333 18.304 4.64C18.6027 3.78667 18.752 3.04 18.752 2.4C18.752 1.78133 18.6347 1.36533 18.4 1.152C18.1653 0.917333 17.8987 0.799999 17.6 0.799999C16.9387 0.799999 16.32 1.22667 15.744 2.08C15.168 2.93333 14.6133 4.064 14.08 5.472C13.568 6.85867 13.0347 8.37333 12.48 10.016Z" fill="#1A1A1A"/>
</svg>
