<svg width="25" height="26" viewBox="0 0 25 26" fill="none" xmlns="http://www.w3.org/2000/svg">
<path d="M0 25.824C0.128 25.5253 0.48 24.736 1.056 23.456C1.632 22.1973 2.37867 20.5547 3.296 18.528C4.23467 16.48 5.28 14.1653 6.432 11.584C7.60533 8.98133 8.84267 6.22933 10.144 3.328C10.208 3.17867 10.272 2.98667 10.336 2.752C10.4213 2.496 10.464 2.25067 10.464 2.016C10.464 1.78133 10.3893 1.58933 10.24 1.44C10.112 1.26933 9.824 1.184 9.376 1.184C8.48 1.184 7.73333 1.49333 7.136 2.112C6.56 2.70933 6.12267 3.456 5.824 4.352C5.54667 5.248 5.408 6.13333 5.408 7.008C5.408 7.22133 5.408 7.40267 5.408 7.552C5.42933 7.70133 5.45067 7.85067 5.472 8C5.06667 8 4.736 7.86133 4.48 7.584C4.24533 7.28533 4.064 6.93333 3.936 6.528C3.82933 6.10133 3.776 5.71733 3.776 5.376C3.776 4.672 3.968 4 4.352 3.36C4.736 2.72 5.22667 2.144 5.824 1.632C6.44267 1.12 7.11467 0.725334 7.84 0.448C8.58667 0.149333 9.312 0 10.016 0C10.72 0 11.3067 0.202667 11.776 0.608C12.2667 0.992 12.6293 1.696 12.864 2.72C13.12 3.744 13.248 5.22667 13.248 7.168C13.248 8.49067 13.1947 9.89867 13.088 11.392C13.0027 12.8853 12.9067 14.3573 12.8 15.808C12.6933 17.2587 12.6187 18.5813 12.576 19.776C12.9173 18.4747 13.3973 17.088 14.016 15.616C14.656 14.144 15.3493 12.6827 16.096 11.232C16.864 9.76 17.6213 8.384 18.368 7.104C19.1147 5.824 19.7867 4.71467 20.384 3.776C20.9813 2.83733 21.4187 2.15467 21.696 1.728C21.9947 1.30133 22.2507 0.981333 22.464 0.768C22.6773 0.533333 22.9547 0.416 23.296 0.416C23.5947 0.416 23.936 0.490667 24.32 0.639999C24.1707 1.024 23.9573 1.6 23.68 2.368C23.424 3.11467 23.1573 4.032 22.88 5.12C22.5387 6.42133 22.1973 7.904 21.856 9.568C21.5147 11.2107 21.1947 12.8853 20.896 14.592C20.6187 16.2987 20.3947 17.9093 20.224 19.424C20.0533 20.9173 19.968 22.176 19.968 23.2C19.968 23.6693 19.9893 24.032 20.032 24.288C20.0747 24.544 20.128 24.768 20.192 24.96C20.2773 25.1733 20.3627 25.4613 20.448 25.824C19.7227 25.824 19.168 25.7067 18.784 25.472C18.4 25.2373 18.144 24.8533 18.016 24.32C17.888 23.808 17.824 23.1147 17.824 22.24C17.824 19.7013 18.144 16.9813 18.784 14.08C19.4453 11.1573 20.192 8.128 21.024 4.992C20.4053 5.78133 19.7547 6.784 19.072 8C18.4107 9.19467 17.7387 10.496 17.056 11.904C16.3947 13.2907 15.7547 14.688 15.136 16.096C14.5387 17.4827 14.0053 18.7733 13.536 19.968C13.0667 21.1627 12.704 22.1547 12.448 22.944C12.32 22.9867 12.2347 23.0187 12.192 23.04C12.1493 23.0613 12.0747 23.072 11.968 23.072C11.392 23.072 11.008 22.7307 10.816 22.048C10.6453 21.3653 10.56 20.4053 10.56 19.168C10.56 18.2933 10.5813 17.2587 10.624 16.064C10.688 14.848 10.752 13.6 10.816 12.32C10.88 11.04 10.9333 9.81333 10.976 8.64C11.04 7.44533 11.072 6.42133 11.072 5.568C11.072 5.14133 11.0613 4.78933 11.04 4.512C11.04 4.23467 11.0293 3.98933 11.008 3.776C9.30133 7.744 7.872 11.136 6.72 13.952C5.568 16.7467 4.59733 19.0187 3.808 20.768C3.04 22.5173 2.35733 23.7973 1.76 24.608C1.16267 25.4187 0.576 25.824 0 25.824Z" fill="#1A1A1A"/>
</svg>
