<svg width="20" height="32" viewBox="0 0 20 32" fill="none" xmlns="http://www.w3.org/2000/svg">
<path d="M6.144 31.424C4.928 31.424 3.86133 31.0933 2.944 30.432C2.02667 29.792 1.30133 28.8747 0.768 27.68C0.256 26.4853 0 25.088 0 23.488C0 21.8453 0.256 20.1813 0.768 18.496C1.30133 16.8107 2.016 15.2 2.912 13.664C3.808 12.128 4.82133 10.7627 5.952 9.568C7.08267 8.352 8.27733 7.392 9.536 6.688C10.7947 5.984 12.032 5.632 13.248 5.632C13.6533 5.632 14.016 5.664 14.336 5.728C14.656 5.792 14.9333 5.888 15.168 6.016C14.9973 6.016 14.8907 6.016 14.848 6.016C14.8267 6.016 14.8053 6.016 14.784 6.016C13.6747 6.016 12.5547 6.38933 11.424 7.136C10.2933 7.86133 9.216 8.85333 8.192 10.112C7.168 11.3493 6.25067 12.7467 5.44 14.304C4.62933 15.84 3.98933 17.44 3.52 19.104C3.05067 20.768 2.816 22.3787 2.816 23.936C2.816 25.0667 2.95467 26.1227 3.232 27.104C3.53067 28.0853 4 28.864 4.64 29.44C5.28 30.0373 6.10133 30.336 7.104 30.336C8.29867 30.336 9.41867 29.9627 10.464 29.216C11.5093 28.4907 12.448 27.4987 13.28 26.24C14.1333 24.9813 14.8587 23.584 15.456 22.048C16.0747 20.4907 16.544 18.8907 16.864 17.248C17.2053 15.584 17.376 13.9947 17.376 12.48C17.376 11.8827 17.3333 11.2427 17.248 10.56C17.1627 9.87733 17.0133 9.29067 16.8 8.8C16.5867 8.30933 16.2987 8.064 15.936 8.064C15.552 8.064 15.136 8.30933 14.688 8.8C14.24 9.26933 13.8027 9.86667 13.376 10.592C12.9707 11.3173 12.608 12.0747 12.288 12.864C11.968 13.632 11.744 14.3147 11.616 14.912C11.0827 14.784 10.688 14.5813 10.432 14.304C10.1973 14.0053 10.08 13.6853 10.08 13.344C10.08 12.768 10.272 12.1387 10.656 11.456C11.0613 10.752 11.5627 10.08 12.16 9.44C12.7787 8.77867 13.4187 8.24533 14.08 7.84C14.7413 7.41333 15.3387 7.2 15.872 7.2C16.4267 7.2 16.8747 7.40267 17.216 7.808C17.5787 8.21333 17.856 8.736 18.048 9.376C18.2613 9.99467 18.4 10.6667 18.464 11.392C18.5493 12.096 18.592 12.7573 18.592 13.376C18.592 15.7013 18.3253 17.824 17.792 19.744C17.28 21.6427 16.576 23.3173 15.68 24.768C14.8053 26.2187 13.824 27.4453 12.736 28.448C11.648 29.4293 10.528 30.1653 9.376 30.656C8.24533 31.168 7.168 31.424 6.144 31.424ZM15.776 4.704C15.6267 4.61867 15.5093 4.48 15.424 4.288C15.36 4.096 15.328 3.95733 15.328 3.872C15.328 3.68 15.4347 3.38133 15.648 2.976C15.8827 2.54933 16.1707 2.112 16.512 1.664C16.8533 1.19467 17.216 0.799999 17.6 0.48C17.984 0.16 18.336 0 18.656 0C18.8267 0 18.976 0.0746663 19.104 0.223999C19.2533 0.352 19.3387 0.608 19.36 0.992001C18.592 1.65333 17.92 2.28267 17.344 2.88C16.768 3.47733 16.2453 4.08533 15.776 4.704Z" fill="#1A1A1A"/>
</svg>
