<svg width="19" height="26" viewBox="0 0 19 26" fill="none" xmlns="http://www.w3.org/2000/svg">
<path d="M6.144 25.792C4.928 25.792 3.86133 25.4613 2.944 24.8C2.02667 24.16 1.30133 23.2427 0.768 22.048C0.256 20.8533 0 19.456 0 17.856C0 16.2133 0.256 14.5493 0.768 12.864C1.30133 11.1787 2.016 9.568 2.912 8.032C3.808 6.496 4.82133 5.13067 5.952 3.936C7.08267 2.72 8.27733 1.76 9.536 1.056C10.7947 0.352 12.032 0 13.248 0C13.6533 0 14.016 0.0320002 14.336 0.0960007C14.656 0.16 14.9333 0.256 15.168 0.384001C14.9973 0.384001 14.8907 0.384001 14.848 0.384001C14.8267 0.384001 14.8053 0.384001 14.784 0.384001C13.6747 0.384001 12.5547 0.757334 11.424 1.504C10.2933 2.22933 9.216 3.22133 8.192 4.48C7.168 5.71733 6.25067 7.11467 5.44 8.672C4.62933 10.208 3.98933 11.808 3.52 13.472C3.05067 15.136 2.816 16.7467 2.816 18.304C2.816 19.4347 2.95467 20.4907 3.232 21.472C3.53067 22.4533 4 23.232 4.64 23.808C5.28 24.4053 6.10133 24.704 7.104 24.704C8.29867 24.704 9.41867 24.3307 10.464 23.584C11.5093 22.8587 12.448 21.8667 13.28 20.608C14.1333 19.3493 14.8587 17.952 15.456 16.416C16.0747 14.8587 16.544 13.2587 16.864 11.616C17.2053 9.952 17.376 8.36267 17.376 6.848C17.376 6.25067 17.3333 5.61067 17.248 4.928C17.1627 4.24533 17.0133 3.65867 16.8 3.168C16.5867 2.67733 16.2987 2.432 15.936 2.432C15.552 2.432 15.136 2.67733 14.688 3.168C14.24 3.63733 13.8027 4.23467 13.376 4.96C12.9707 5.68533 12.608 6.44267 12.288 7.232C11.968 8 11.744 8.68267 11.616 9.28C11.0827 9.152 10.688 8.94933 10.432 8.672C10.1973 8.37333 10.08 8.05333 10.08 7.712C10.08 7.136 10.272 6.50667 10.656 5.824C11.0613 5.12 11.5627 4.448 12.16 3.808C12.7787 3.14667 13.4187 2.61333 14.08 2.208C14.7413 1.78133 15.3387 1.568 15.872 1.568C16.4267 1.568 16.8747 1.77067 17.216 2.176C17.5787 2.58133 17.856 3.104 18.048 3.744C18.2613 4.36267 18.4 5.03467 18.464 5.76C18.5493 6.464 18.592 7.12533 18.592 7.744C18.592 10.0693 18.3253 12.192 17.792 14.112C17.28 16.0107 16.576 17.6853 15.68 19.136C14.8053 20.5867 13.824 21.8133 12.736 22.816C11.648 23.7973 10.528 24.5333 9.376 25.024C8.24533 25.536 7.168 25.792 6.144 25.792Z" fill="#1A1A1A"/>
</svg>
