<svg width="19" height="27" viewBox="0 0 19 27" fill="none" xmlns="http://www.w3.org/2000/svg">
<path d="M14.336 26.912C13.8667 26.912 13.312 26.6133 12.672 26.016C12.0533 25.44 11.4027 24.672 10.72 23.712C10.0373 22.7733 9.35467 21.7387 8.672 20.608C8.01067 19.4773 7.392 18.3467 6.816 17.216C6.26133 16.0853 5.792 15.072 5.408 14.176C4.81067 16.2667 4.23467 18.3253 3.68 20.352C3.12533 22.3573 2.60267 24.1813 2.112 25.824C1.57867 25.824 1.088 25.6747 0.64 25.376C0.213333 25.0773 0 24.6933 0 24.224C0 23.9893 0.0533333 23.7013 0.16 23.36C0.266667 23.04 0.362667 22.7413 0.448 22.464C0.981333 20.7787 1.504 19.1893 2.016 17.696C2.528 16.2027 3.02933 14.7627 3.52 13.376C4.01067 11.9893 4.512 10.6133 5.024 9.248C5.55733 7.88267 6.112 6.50667 6.688 5.12C7.264 3.73333 7.88267 2.29333 8.544 0.799999C7.648 0.949333 6.86933 1.17333 6.208 1.472C5.54667 1.74933 5.01333 2.016 4.608 2.272C4.20267 2.50667 3.92533 2.624 3.776 2.624C3.69067 2.624 3.56267 2.58133 3.392 2.496C3.24267 2.38933 3.104 2.272 2.976 2.144C2.848 1.99467 2.784 1.86667 2.784 1.76C3.33867 1.52533 3.98933 1.26933 4.736 0.992001C5.48267 0.714667 6.304 0.48 7.2 0.288C8.096 0.096 9.024 0 9.984 0C10.9013 0 11.8293 0.117333 12.768 0.351999C13.728 0.565332 14.6027 0.917332 15.392 1.408C16.2027 1.87733 16.8533 2.496 17.344 3.264C17.8347 4.01067 18.08 4.91733 18.08 5.984C18.08 7.02933 17.8347 7.936 17.344 8.704C16.8747 9.45067 16.2453 10.08 15.456 10.592C14.688 11.104 13.8453 11.52 12.928 11.84C12.0107 12.1387 11.104 12.3733 10.208 12.544C9.312 12.6933 8.50133 12.8 7.776 12.864C7.05067 12.9067 6.50667 12.928 6.144 12.928C6.80533 14.0587 7.43467 15.1573 8.032 16.224C8.62933 17.2907 9.28 18.3573 9.984 19.424C10.688 20.4693 11.52 21.5253 12.48 22.592C13.44 23.6587 14.6027 24.7467 15.968 25.856C15.84 26.1333 15.6053 26.3787 15.264 26.592C14.944 26.8053 14.6347 26.912 14.336 26.912ZM5.92 12.416C7.072 12.352 8.23467 12.1707 9.408 11.872C10.6027 11.552 11.6907 11.1147 12.672 10.56C13.6533 9.984 14.4427 9.26933 15.04 8.416C15.6373 7.54133 15.936 6.50667 15.936 5.312C15.936 4.13867 15.6587 3.22133 15.104 2.56C14.5493 1.87733 13.8347 1.39733 12.96 1.12C12.0853 0.821332 11.168 0.671999 10.208 0.671999C9.48267 2.144 8.75733 3.91467 8.032 5.984C7.30667 8.032 6.60267 10.176 5.92 12.416Z" fill="#1A1A1A"/>
</svg>
