<svg width="16" height="26" viewBox="0 0 16 26" fill="none" xmlns="http://www.w3.org/2000/svg">
<path d="M6.688 25.824C5.536 25.824 4.448 25.6107 3.424 25.184C2.4 24.7787 1.568 24.1493 0.928 23.296C0.309333 22.4427 0 21.376 0 20.096C0 18.9867 0.213333 18.1227 0.64 17.504C1.088 16.8853 1.632 16.448 2.272 16.192C2.912 15.936 3.52 15.808 4.096 15.808C3.52 16.4267 3.08267 17.1093 2.784 17.856C2.48533 18.6027 2.336 19.3493 2.336 20.096C2.336 20.8853 2.50667 21.6213 2.848 22.304C3.21067 22.9867 3.75467 23.5307 4.48 23.936C5.20533 24.3627 6.12267 24.576 7.232 24.576C8.192 24.576 9.13067 24.3947 10.048 24.032C10.9653 23.6907 11.712 23.1787 12.288 22.496C12.8853 21.792 13.184 20.928 13.184 19.904C13.184 18.9867 12.9493 18.1973 12.48 17.536C12.0107 16.8747 11.4027 16.288 10.656 15.776C9.93067 15.264 9.152 14.7733 8.32 14.304C7.488 13.8347 6.69867 13.344 5.952 12.832C5.22667 12.2987 4.62933 11.6907 4.16 11.008C3.69067 10.3253 3.456 9.504 3.456 8.544C3.456 7.648 3.66933 6.70933 4.096 5.728C4.52267 4.74667 5.13067 3.81867 5.92 2.944C6.73067 2.06933 7.69067 1.36533 8.8 0.832001C9.93067 0.277334 11.1893 0 12.576 0C13.8347 0 14.7093 0.309333 15.2 0.927999C15.6907 1.52533 15.936 2.28267 15.936 3.2C15.936 3.968 15.7973 4.8 15.52 5.696C15.264 6.57067 14.944 7.41333 14.56 8.224C14.176 9.01333 13.8133 9.68533 13.472 10.24C13.088 10.1547 12.8107 9.99467 12.64 9.76C12.4907 9.504 12.416 9.20533 12.416 8.864C12.416 8.416 12.512 7.904 12.704 7.328C12.896 6.752 13.1093 6.15467 13.344 5.536C13.6 4.91733 13.824 4.32 14.016 3.744C14.208 3.14667 14.304 2.61333 14.304 2.144C14.304 1.71733 14.176 1.38667 13.92 1.152C13.664 0.896 13.1947 0.768 12.512 0.768C11.5093 0.768 10.5813 1.00267 9.728 1.472C8.87467 1.94133 8.128 2.54933 7.488 3.296C6.848 4.02133 6.34667 4.78933 5.984 5.6C5.64267 6.41067 5.472 7.14667 5.472 7.808C5.472 8.59733 5.696 9.28 6.144 9.856C6.61333 10.4107 7.21067 10.9227 7.936 11.392C8.66133 11.84 9.42933 12.2987 10.24 12.768C11.072 13.216 11.8507 13.7173 12.576 14.272C13.3013 14.8267 13.888 15.488 14.336 16.256C14.8053 17.0027 15.04 17.92 15.04 19.008C15.04 20.1173 14.7947 21.0987 14.304 21.952C13.8133 22.784 13.152 23.488 12.32 24.064C11.5093 24.64 10.6133 25.0773 9.632 25.376C8.65067 25.6747 7.66933 25.824 6.688 25.824Z" fill="#1A1A1A"/>
</svg>
