<svg width="22" height="32" viewBox="0 0 22 32" fill="none" xmlns="http://www.w3.org/2000/svg">
<path d="M16.512 31.808C15.7227 31.808 15.0933 31.4667 14.624 30.784C14.1547 30.1227 13.92 29.3333 13.92 28.416C13.92 28.1173 13.9413 27.7227 13.984 27.232C14.048 26.72 14.1227 26.144 14.208 25.504C13.4187 27.2533 12.4587 28.672 11.328 29.76C10.1973 30.8693 8.85333 31.424 7.296 31.424C5.93067 31.424 4.896 31.008 4.192 30.176C3.488 29.344 3.136 28.3093 3.136 27.072C3.136 26.24 3.264 25.2587 3.52 24.128C3.79733 22.976 4.13867 21.7493 4.544 20.448C4.94933 19.1253 5.344 17.792 5.728 16.448C6.13333 15.104 6.464 13.824 6.72 12.608C6.99733 11.3707 7.136 10.272 7.136 9.312C7.136 7.43467 6.53867 6.496 5.344 6.496C4.768 6.496 4.26667 6.688 3.84 7.072C3.41333 7.43467 3.06133 7.904 2.784 8.48C2.50667 9.056 2.29333 9.664 2.144 10.304C2.016 10.944 1.952 11.52 1.952 12.032C1.952 12.3307 1.97333 12.6187 2.016 12.896C2.05867 13.1733 2.12267 13.408 2.208 13.6C1.39733 13.6 0.821333 13.3867 0.48 12.96C0.16 12.512 0 11.9893 0 11.392C0 10.7307 0.16 10.0587 0.48 9.376C0.8 8.69333 1.23733 8.07467 1.792 7.52C2.368 6.944 3.01867 6.48533 3.744 6.144C4.49067 5.78133 5.28 5.6 6.112 5.6C7.28533 5.6 8.128 5.952 8.64 6.656C9.152 7.36 9.408 8.29867 9.408 9.472C9.408 10.2613 9.312 11.136 9.12 12.096C8.928 13.0347 8.68267 14.0267 8.384 15.072C8.08533 16.096 7.76533 17.1307 7.424 18.176C6.93333 19.7333 6.48533 21.248 6.08 22.72C5.67467 24.1707 5.472 25.4507 5.472 26.56C5.472 27.5413 5.67467 28.384 6.08 29.088C6.50667 29.792 7.2 30.144 8.16 30.144C9.03467 30.144 9.83467 29.856 10.56 29.28C11.2853 28.7253 11.9253 28 12.48 27.104C13.0347 26.208 13.504 25.2587 13.888 24.256C14.272 23.2533 14.5707 22.3253 14.784 21.472C15.0827 20.192 15.4133 18.8373 15.776 17.408C16.1387 15.9573 16.512 14.5387 16.896 13.152C17.3013 11.744 17.696 10.4747 18.08 9.344C18.4853 8.21333 18.88 7.30667 19.264 6.624C19.648 5.94133 20.0107 5.6 20.352 5.6C20.5227 5.6 20.7573 5.696 21.056 5.888C21.3547 6.05867 21.6533 6.304 21.952 6.624C21.7813 6.752 21.5147 7.21067 21.152 8C20.7893 8.768 20.384 9.76 19.936 10.976C19.488 12.192 19.04 13.536 18.592 15.008C18.144 16.4587 17.728 17.9413 17.344 19.456C16.96 20.9493 16.6507 22.3787 16.416 23.744C16.1813 25.1093 16.064 26.2933 16.064 27.296C16.064 28.768 16.256 29.76 16.64 30.272C17.0453 30.784 17.7067 31.04 18.624 31.04C18.2187 31.3173 17.8347 31.5093 17.472 31.616C17.1307 31.744 16.8107 31.808 16.512 31.808ZM14.464 4.704C13.9947 4.08533 13.472 3.47733 12.896 2.88C12.32 2.28267 11.648 1.65333 10.88 0.992001C10.9227 0.608 11.008 0.352 11.136 0.223999C11.264 0.0746663 11.4133 0 11.584 0C11.904 0 12.256 0.16 12.64 0.48C13.024 0.799999 13.3867 1.19467 13.728 1.664C14.0693 2.112 14.3467 2.54933 14.56 2.976C14.7947 3.38133 14.912 3.68 14.912 3.872C14.912 3.95733 14.88 4.096 14.816 4.288C14.752 4.48 14.6347 4.61867 14.464 4.704Z" fill="#1A1A1A"/>
</svg>
