<svg width="22" height="27" viewBox="0 0 22 27" fill="none" xmlns="http://www.w3.org/2000/svg">
<path d="M16.512 26.208C15.7227 26.208 15.0933 25.8667 14.624 25.184C14.1547 24.5227 13.92 23.7333 13.92 22.816C13.92 22.5173 13.9413 22.1227 13.984 21.632C14.048 21.12 14.1227 20.544 14.208 19.904C13.4187 21.6533 12.4587 23.072 11.328 24.16C10.1973 25.2693 8.85333 25.824 7.296 25.824C5.93067 25.824 4.896 25.408 4.192 24.576C3.488 23.744 3.136 22.7093 3.136 21.472C3.136 20.64 3.264 19.6587 3.52 18.528C3.79733 17.376 4.13867 16.1493 4.544 14.848C4.94933 13.5253 5.344 12.192 5.728 10.848C6.13333 9.504 6.464 8.224 6.72 7.008C6.99733 5.77067 7.136 4.672 7.136 3.712C7.136 1.83467 6.53867 0.896 5.344 0.896C4.768 0.896 4.26667 1.088 3.84 1.472C3.41333 1.83467 3.06133 2.304 2.784 2.88C2.50667 3.456 2.29333 4.064 2.144 4.704C2.016 5.344 1.952 5.92 1.952 6.432C1.952 6.73067 1.97333 7.01867 2.016 7.296C2.05867 7.57333 2.12267 7.808 2.208 8C1.39733 8 0.821333 7.78667 0.48 7.36C0.16 6.912 0 6.38933 0 5.792C0 5.13067 0.16 4.45867 0.48 3.776C0.8 3.09333 1.23733 2.47467 1.792 1.92C2.368 1.344 3.01867 0.885333 3.744 0.544001C4.49067 0.181334 5.28 0 6.112 0C7.28533 0 8.128 0.352 8.64 1.056C9.152 1.76 9.408 2.69867 9.408 3.872C9.408 4.66133 9.312 5.536 9.12 6.496C8.928 7.43467 8.68267 8.42667 8.384 9.472C8.08533 10.496 7.76533 11.5307 7.424 12.576C6.93333 14.1333 6.48533 15.648 6.08 17.12C5.67467 18.5707 5.472 19.8507 5.472 20.96C5.472 21.9413 5.67467 22.784 6.08 23.488C6.50667 24.192 7.2 24.544 8.16 24.544C9.03467 24.544 9.83467 24.256 10.56 23.68C11.2853 23.1253 11.9253 22.4 12.48 21.504C13.0347 20.608 13.504 19.6587 13.888 18.656C14.272 17.6533 14.5707 16.7253 14.784 15.872C15.0827 14.592 15.4133 13.2373 15.776 11.808C16.1387 10.3573 16.512 8.93867 16.896 7.552C17.3013 6.144 17.696 4.87467 18.08 3.744C18.4853 2.61333 18.88 1.70667 19.264 1.024C19.648 0.341333 20.0107 0 20.352 0C20.5227 0 20.7573 0.096 21.056 0.288C21.3547 0.458667 21.6533 0.704 21.952 1.024C21.7813 1.152 21.5147 1.61067 21.152 2.4C20.7893 3.168 20.384 4.16 19.936 5.376C19.488 6.592 19.04 7.936 18.592 9.408C18.144 10.8587 17.728 12.3413 17.344 13.856C16.96 15.3493 16.6507 16.7787 16.416 18.144C16.1813 19.5093 16.064 20.6933 16.064 21.696C16.064 23.168 16.256 24.16 16.64 24.672C17.0453 25.184 17.7067 25.44 18.624 25.44C18.2187 25.7173 17.8347 25.9093 17.472 26.016C17.1307 26.144 16.8107 26.208 16.512 26.208Z" fill="#1A1A1A"/>
</svg>
