<svg width="22" height="26" viewBox="0 0 22 26" fill="none" xmlns="http://www.w3.org/2000/svg">
<path d="M15.104 25.824C14.3573 25.824 13.536 25.6747 12.64 25.376C11.744 25.0773 10.816 24.704 9.856 24.256C8.91733 23.8293 7.97867 23.4027 7.04 22.976C6.31467 23.5307 5.61067 23.968 4.928 24.288C4.24533 24.608 3.584 24.768 2.944 24.768C2.32533 24.768 1.792 24.6293 1.344 24.352C0.917333 24.096 0.586667 23.7653 0.352 23.36C0.117333 22.976 0 22.592 0 22.208C0 21.76 0.192 21.376 0.576 21.056C0.938667 20.7147 1.568 20.544 2.464 20.544C3.08267 20.544 3.75467 20.6293 4.48 20.8C5.22667 20.9493 6.00533 21.1413 6.816 21.376C7.84 20.3093 8.88533 19.0187 9.952 17.504C11.04 15.968 12.0747 14.3893 13.056 12.768C12.2667 12.7893 11.5733 12.832 10.976 12.896C10.4 12.9387 9.70667 13.0133 8.896 13.12L7.808 13.28C7.85067 12.6827 8.08533 12.224 8.512 11.904C8.93867 11.584 9.504 11.36 10.208 11.232C10.9333 11.104 11.7227 11.04 12.576 11.04C12.8107 11.04 13.0453 11.0507 13.28 11.072C13.536 11.072 13.7813 11.0827 14.016 11.104C14.848 9.632 15.5947 8.23467 16.256 6.912C16.9173 5.568 17.4187 4.43733 17.76 3.52C17.4187 3.43467 17.0347 3.31733 16.608 3.168C16.1813 2.99733 15.7333 2.82667 15.264 2.656C14.24 2.25067 13.152 1.856 12 1.472C10.8693 1.088 9.824 0.896 8.864 0.896C8.18133 0.896 7.56267 1.03467 7.008 1.312C6.47467 1.58933 6.048 2.06933 5.728 2.752C5.408 3.41333 5.248 4.33067 5.248 5.504C5.248 5.67467 5.248 5.824 5.248 5.952C5.26933 6.08 5.29067 6.19733 5.312 6.304C5.33333 6.41067 5.35467 6.51733 5.376 6.624C4.75733 6.51733 4.30933 6.272 4.032 5.888C3.776 5.48267 3.648 4.96 3.648 4.32C3.648 2.89067 4.20267 1.81333 5.312 1.088C6.42133 0.362666 7.92533 0 9.824 0C10.9547 0 12 0.106667 12.96 0.32C13.9413 0.512 14.88 0.746667 15.776 1.024C16.672 1.30133 17.536 1.54667 18.368 1.76C19.2213 1.952 20.064 2.048 20.896 2.048C21.1093 2.048 21.2907 2.048 21.44 2.048C21.6107 2.02667 21.7707 2.00533 21.92 1.984C21.6213 2.24 21.3333 2.464 21.056 2.656C20.8 2.82667 20.5547 2.976 20.32 3.104C19.8507 4.21333 19.2533 5.48267 18.528 6.912C17.824 8.32 17.0347 9.78133 16.16 11.296C16.8 11.36 17.3973 11.424 17.952 11.488C18.528 11.552 19.0613 11.584 19.552 11.584C19.3173 11.9253 19.0507 12.1707 18.752 12.32C18.4747 12.4693 18.0693 12.5653 17.536 12.608C17.024 12.6507 16.288 12.6827 15.328 12.704C14.2827 14.432 13.152 16.096 11.936 17.696C10.7413 19.296 9.54667 20.672 8.352 21.824C9.73867 22.2507 11.1147 22.656 12.48 23.04C13.8667 23.424 15.104 23.616 16.192 23.616C16.64 23.616 17.0453 23.5733 17.408 23.488C17.7707 23.4027 18.1227 23.2747 18.464 23.104C18.1227 24.0853 17.664 24.7787 17.088 25.184C16.5333 25.6107 15.872 25.824 15.104 25.824ZM2.784 23.904C3.21067 23.904 3.66933 23.7653 4.16 23.488C4.672 23.232 5.19467 22.8693 5.728 22.4C5.024 22.1013 4.352 21.856 3.712 21.664C3.072 21.472 2.50667 21.376 2.016 21.376C1.54667 21.376 1.22667 21.4507 1.056 21.6C0.906667 21.7493 0.832 21.9307 0.832 22.144C0.832 22.4853 1.00267 22.8587 1.344 23.264C1.70667 23.6907 2.18667 23.904 2.784 23.904Z" fill="#1A1A1A"/>
</svg>
