<svg width="16" height="24" viewBox="0 0 16 24" fill="none" xmlns="http://www.w3.org/2000/svg">
<path d="M0.642 22.7552C0.258 22.5419 0.0446667 22.3072 0.00200001 22.0512C-0.0193334 21.7952 0.13 21.3472 0.45 20.7072C0.77 20.0672 1.27133 19.0752 1.954 17.7312C2.466 16.7712 2.85 16.0245 3.106 15.4912C3.38333 14.9365 3.56467 14.5419 3.65 14.3072C3.75667 14.0725 3.81 13.9232 3.81 13.8592C3.76733 13.6672 3.78867 13.5179 3.874 13.4112C3.95933 13.2832 4.098 13.1765 4.29 13.0912C4.39667 12.9845 4.56733 12.7925 4.802 12.5152C5.058 12.2379 5.29267 11.9072 5.506 11.5232C5.698 11.0752 5.922 10.6165 6.178 10.1472C6.434 9.67787 6.77533 9.0912 7.202 8.3872C7.62867 7.66187 8.18333 6.7232 8.866 5.5712C9.29267 4.82453 9.762 4.0672 10.274 3.2992C10.786 2.50987 11.33 1.7312 11.906 0.963201C12.1407 0.664533 12.354 0.429866 12.546 0.2592C12.738 0.0672004 12.93 -0.0181331 13.122 0.00319992C13.378 0.00319992 13.666 0.0885334 13.986 0.2592C14.3273 0.429866 14.6367 0.653866 14.914 0.931199C15.1913 1.20853 15.394 1.5072 15.522 1.8272C15.6287 1.99787 15.6713 2.36053 15.65 2.9152C15.6287 3.46987 15.586 4.14187 15.522 4.9312C15.458 5.72053 15.3833 6.5632 15.298 7.4592C15.234 8.33387 15.138 9.36853 15.01 10.5632C14.882 11.7579 14.754 13.0059 14.626 14.3072C14.5193 15.6085 14.434 16.8672 14.37 18.0832C14.306 19.2779 14.306 20.3232 14.37 21.2192C14.3913 21.4112 14.3913 21.5925 14.37 21.7632C14.3487 21.9339 14.338 22.0725 14.338 22.1792C14.21 22.3072 13.9967 22.3605 13.698 22.3392C13.4207 22.3392 13.1433 22.2752 12.866 22.1472C12.61 22.0192 12.4607 21.8592 12.418 21.6672C12.354 21.6032 12.3113 21.5179 12.29 21.4112C12.29 21.2832 12.3007 21.0272 12.322 20.6432C12.3433 20.2592 12.3647 19.6512 12.386 18.8192L12.546 13.6352L12.13 13.6672C11.938 13.6672 11.5753 13.6885 11.042 13.7312C10.5087 13.7739 9.93267 13.8379 9.314 13.9232C8.69533 13.9872 8.11933 14.0619 7.586 14.1472C7.074 14.2112 6.722 14.2752 6.53 14.3392C6.338 14.3392 6.10333 14.4672 5.826 14.7232C5.57 14.9792 5.32467 15.3099 5.09 15.7152C5.00467 16.0139 4.84467 16.3339 4.61 16.6752C4.39667 16.9952 4.29 17.2085 4.29 17.3152C4.14067 17.4219 4.01267 17.5499 3.906 17.6992C3.82067 17.8485 3.778 17.9232 3.778 17.9232C3.778 18.0512 3.67133 18.3712 3.458 18.8832C3.266 19.3739 3.02067 19.9285 2.722 20.5472C2.42333 21.1445 2.12467 21.6672 1.826 22.1152L1.154 23.1392L0.642 22.7552ZM7.266 12.4512C7.266 12.4512 7.37267 12.4299 7.586 12.3872C7.82067 12.3445 8.08733 12.3019 8.386 12.2592C8.706 12.1952 8.994 12.1632 9.25 12.1632C10.146 11.9499 10.7967 11.8112 11.202 11.7472C11.6073 11.6619 11.8847 11.6192 12.034 11.6192C12.2047 11.6192 12.354 11.6512 12.482 11.7152C12.5673 11.8219 12.642 11.8859 12.706 11.9072C12.7913 11.9285 12.834 11.9392 12.834 11.9392C12.8553 11.8965 12.8873 11.6512 12.93 11.2032C12.9727 10.7552 13.026 10.2005 13.09 9.5392C13.1753 8.87787 13.25 8.1952 13.314 7.4912C13.3993 6.76587 13.4633 6.10453 13.506 5.5072C13.5487 4.88853 13.5807 4.4192 13.602 4.0992C13.6233 3.69387 13.6447 3.3312 13.666 3.0112C13.6873 2.66987 13.698 2.4992 13.698 2.4992C13.57 2.4992 13.2927 2.73387 12.866 3.2032C12.4607 3.67253 12.002 4.2912 11.49 5.0592C10.978 5.8272 10.498 6.64853 10.05 7.5232C9.83667 7.92853 9.634 8.2912 9.442 8.6112C9.25 8.9312 9.10067 9.0912 8.994 9.0912C8.95133 9.13387 8.82333 9.32587 8.61 9.6672C8.418 9.9872 8.20467 10.3605 7.97 10.7872C7.73533 11.1925 7.54333 11.5659 7.394 11.9072C7.24467 12.2272 7.202 12.4085 7.266 12.4512Z" fill="#1A1A1A"/>
</svg>
