<svg width="16" height="24" viewBox="0 0 16 24" fill="none" xmlns="http://www.w3.org/2000/svg">
<path d="M3.91467 23.232C2.99733 22.6347 2.37867 22.112 2.05867 21.664C1.73867 21.2373 1.86667 20.8427 2.44267 20.48C2.57067 20.3947 2.77333 20.4693 3.05067 20.704C3.34933 20.9173 3.59467 21.12 3.78667 21.312C4.21333 21.696 4.736 21.9307 5.35467 22.016C5.99467 22.1227 6.70933 22.0693 7.49867 21.856C8.39467 21.5787 9.17333 21.1947 9.83467 20.704C10.5173 20.192 11.1573 19.5733 11.7547 18.848C12.2027 18.272 12.512 17.6533 12.6827 16.992C12.8533 16.3093 12.9173 15.68 12.8747 15.104C12.8533 14.528 12.736 14.1227 12.5227 13.888C11.9893 13.1413 11.2427 12.6293 10.2827 12.352C9.344 12.0533 8.23467 12.0747 6.95467 12.416C6.80533 12.4373 6.58133 12.48 6.28267 12.544C5.984 12.608 5.71733 12.672 5.48267 12.736C5.248 12.7787 5.12 12.8 5.09867 12.8C4.94933 12.8427 4.832 12.896 4.74667 12.96C4.66133 13.0027 4.55467 13.1627 4.42667 13.44C4.32 13.696 4.14933 14.1653 3.91467 14.848C3.68 15.5093 3.328 16.4907 2.85867 17.792C2.41067 19.0933 2.048 20.0213 1.77067 20.576C1.51467 21.1093 1.28 21.3547 1.06667 21.312C0.874667 21.248 0.629333 21.0133 0.330667 20.608C0.16 20.3093 0.0533333 20.0213 0.0106667 19.744C-0.032 19.4453 0.0533333 19.104 0.266667 18.72C0.373333 18.528 0.458667 18.3573 0.522667 18.208C0.586667 18.0373 0.672 17.7493 0.778667 17.344C0.885333 17.024 1.088 16.4693 1.38667 15.68C1.70667 14.8693 2.08 13.9307 2.50667 12.864C2.93333 11.776 3.38133 10.656 3.85067 9.504C4.32 8.352 4.768 7.264 5.19467 6.24C5.64267 5.216 6.016 4.352 6.31467 3.648C6.61333 2.98667 6.79467 2.50667 6.85867 2.208C6.92267 1.90933 6.90133 1.74933 6.79467 1.728C6.79467 1.62133 6.76267 1.52533 6.69867 1.44C6.63467 1.33333 6.61333 1.23733 6.63467 1.152C6.63467 1.06667 6.77333 0.949333 7.05067 0.799999C7.34933 0.650667 7.66933 0.512 8.01067 0.384001C8.37333 0.256 8.65067 0.213333 8.84267 0.256001C8.94933 0.256001 9.07733 0.256001 9.22667 0.256001C9.376 0.234666 9.45067 0.181333 9.45067 0.0960007C9.51467 0.0960007 9.71733 0.074667 10.0587 0.0319996C10.4 -0.0106665 10.7733 -0.0106665 11.1787 0.0319996C12.608 0.159999 13.7173 0.576 14.5067 1.28C15.296 1.96267 15.68 2.90133 15.6587 4.096C15.6373 4.45867 15.4453 4.94933 15.0827 5.568C14.7413 6.18667 14.3147 6.80533 13.8027 7.424C13.312 8.04267 12.832 8.56533 12.3627 8.992C12.0853 9.22667 11.7867 9.472 11.4667 9.728C11.168 9.96267 10.9013 10.1653 10.6667 10.336C10.4533 10.4853 10.3467 10.56 10.3467 10.56C10.3467 10.56 10.432 10.592 10.6027 10.656C10.7733 10.72 10.9547 10.784 11.1467 10.848C12.128 11.2107 12.9387 11.6693 13.5787 12.224C14.2187 12.7787 14.656 13.5467 14.8907 14.528C14.976 14.848 14.976 15.2427 14.8907 15.712C14.8267 16.1813 14.7307 16.6507 14.6027 17.12C14.4747 17.568 14.336 17.952 14.1867 18.272C14.0373 18.4213 13.92 18.5813 13.8347 18.752C13.7493 18.9013 13.7067 18.976 13.7067 18.976C13.7067 19.0187 13.6213 19.1893 13.4507 19.488C13.28 19.7653 13.0773 20.0747 12.8427 20.416C12.608 20.7573 12.384 21.056 12.1707 21.312C11.9573 21.4827 11.7013 21.6853 11.4027 21.92C11.1253 22.1547 10.8053 22.3787 10.4427 22.592C10.1013 22.8053 9.728 22.9867 9.32267 23.136C8.72533 23.392 8.07467 23.5627 7.37067 23.648C6.688 23.7547 6.03733 23.7653 5.41867 23.68C4.8 23.616 4.29867 23.4667 3.91467 23.232ZM5.48267 10.912C5.48267 10.912 5.67467 10.88 6.05867 10.816C6.464 10.7307 6.90133 10.6453 7.37067 10.56C7.84 10.4533 8.18133 10.3573 8.39467 10.272C8.50133 10.208 8.65067 10.1227 8.84267 10.016C9.056 9.90933 9.26933 9.74933 9.48267 9.536C9.78133 9.25867 10.1547 8.864 10.6027 8.352C11.072 7.81867 11.5307 7.264 11.9787 6.688C12.4267 6.09067 12.768 5.55733 13.0027 5.088C13.4933 4.32 13.76 3.75467 13.8027 3.392C13.8453 3.008 13.728 2.67733 13.4507 2.4C13.2587 2.16533 12.928 2.016 12.4587 1.952C12.0107 1.86667 11.5307 1.84533 11.0187 1.888C10.5067 1.90933 10.0693 1.97333 9.70667 2.08C9.42933 2.16533 9.216 2.272 9.06667 2.4C8.91733 2.50667 8.84267 2.67733 8.84267 2.912C8.84267 3.104 8.77867 3.296 8.65067 3.488C8.544 3.65867 8.43733 3.79733 8.33067 3.904C8.30933 4.05333 8.256 4.192 8.17067 4.32C8.08533 4.42667 8.04267 4.48 8.04267 4.48C8.04267 4.56533 7.89333 4.91733 7.59467 5.536C7.296 6.15467 6.99733 6.86933 6.69867 7.68C6.31467 8.59733 6.016 9.344 5.80267 9.92C5.58933 10.4747 5.48267 10.8053 5.48267 10.912Z" fill="#1A1A1A"/>
</svg>
