<svg width="19" height="22" viewBox="0 0 19 22" fill="none" xmlns="http://www.w3.org/2000/svg">
<path d="M13.732 10.4C13.668 10.5493 13.4227 10.6667 12.996 10.752C12.5693 10.8373 11.8867 10.9333 10.948 11.04C10.6707 11.0613 10.2547 11.0827 9.7 11.104C9.16667 11.1253 8.58 11.1467 7.94 11.168C7.32133 11.1893 6.756 11.2 6.244 11.2C5.732 11.1787 5.38 11.1467 5.188 11.104C5.188 11.104 5.13467 11.1573 5.028 11.264C4.94267 11.3707 4.9 11.5093 4.9 11.68C4.75067 11.936 4.55867 12.3307 4.324 12.864C4.11067 13.3973 3.86533 13.984 3.588 14.624C3.332 15.264 3.08667 15.904 2.852 16.544C2.63867 17.184 2.45733 17.7387 2.308 18.208C2.15867 18.6773 2.084 18.9973 2.084 19.168C1.892 19.68 1.77467 20.1173 1.732 20.48C1.68933 20.8427 1.61467 21.056 1.508 21.12C1.48667 21.2053 1.348 21.2267 1.092 21.184C0.836 21.1413 0.622667 21.024 0.452 20.832C0.196 20.64 0.0466668 20.4693 0.00400001 20.32C-0.0173334 20.1493 0.0466667 19.8293 0.196 19.36C0.26 19.0827 0.366667 18.6773 0.516 18.144C0.686667 17.5893 0.868 16.9813 1.06 16.32C1.27333 15.6587 1.48667 15.0187 1.7 14.4C1.93467 13.76 2.15867 13.2373 2.372 12.832C2.60667 12.4267 2.756 12.064 2.82 11.744C2.884 11.4027 2.96933 11.0933 3.076 10.816C3.05467 10.5813 3.05467 10.4213 3.076 10.336C3.09733 10.2507 3.18267 10.1227 3.332 9.952C3.43867 9.86667 3.56667 9.71733 3.716 9.504C3.88667 9.26933 4.07867 8.91733 4.292 8.448C4.356 8.23467 4.452 7.94667 4.58 7.584C4.72933 7.2 4.868 6.816 4.996 6.432C5.124 6.02667 5.24133 5.68533 5.348 5.408C5.45467 5.13067 5.508 4.98133 5.508 4.96C5.55067 4.87467 5.61467 4.71467 5.7 4.48C5.78533 4.224 5.84933 4.02133 5.892 3.872C5.97733 3.57333 6.04133 3.328 6.084 3.136C6.148 2.944 6.13733 2.848 6.052 2.848C5.88133 2.89067 5.54 2.92267 5.028 2.944C4.772 2.98667 4.58 3.01867 4.452 3.04C4.34533 3.04 4.24933 3.05067 4.164 3.072C3.95067 3.09333 3.75867 3.072 3.588 3.008C3.41733 2.944 3.332 2.816 3.332 2.624C3.37467 2.28267 3.492 2.00533 3.684 1.792C3.89733 1.55733 4.164 1.42933 4.484 1.408C4.63333 1.36533 4.79333 1.33333 4.964 1.312C5.156 1.26933 5.412 1.20533 5.732 1.12C6.13733 1.03467 6.44667 0.970667 6.66 0.927999C6.89467 0.864 7.076 0.853334 7.204 0.896C7.31067 0.831999 7.40667 0.768 7.492 0.704C7.57733 0.618667 7.62 0.533333 7.62 0.448C7.62 0.341333 7.66267 0.266667 7.748 0.224001C7.85467 0.16 7.972 0.128 8.1 0.128C8.228 0.106667 8.356 0.117334 8.484 0.16C8.63333 0.202667 8.74 0.277334 8.804 0.384001C8.84667 0.448 8.94267 0.501333 9.092 0.544001C9.24133 0.586667 9.508 0.586667 9.892 0.544001C10.2973 0.48 10.8627 0.373334 11.588 0.224001C11.972 0.181334 12.452 0.138667 13.028 0.0960007C13.6253 0.0533333 14.0947 0.0853329 14.436 0.191999C14.7987 0.128 15.1187 0.106667 15.396 0.128C15.6947 0.128 15.8973 0.0853335 16.004 0C16.452 0.0853335 16.772 0.149333 16.964 0.191999C17.1773 0.213334 17.348 0.277334 17.476 0.384001C17.5613 0.469334 17.5827 0.554667 17.54 0.639999C17.5187 0.704 17.508 0.736 17.508 0.736C17.4227 0.693334 17.4333 0.704 17.54 0.768C17.6467 0.810667 17.7213 0.853334 17.764 0.896C17.9133 0.96 18.0093 1.04533 18.052 1.152C18.0947 1.23733 18.116 1.32267 18.116 1.408C18.116 1.49333 18.1053 1.568 18.084 1.632C18.0627 1.824 17.956 1.94133 17.764 1.984C17.572 2.00533 17.092 2.00533 16.324 1.984C15.4067 1.856 14.5 1.81333 13.604 1.856C12.7293 1.87733 11.7053 1.97333 10.532 2.144C10.1053 2.16533 9.72133 2.22933 9.38 2.336C9.06 2.42133 8.87867 2.464 8.836 2.464C8.75067 2.464 8.60133 2.61333 8.388 2.912C8.17467 3.18933 7.972 3.60533 7.78 4.16C7.69467 4.30933 7.54533 4.65067 7.332 5.184C7.11867 5.71733 6.884 6.29333 6.628 6.912C6.39333 7.53067 6.18 8.07467 5.988 8.544C5.81733 9.01333 5.71067 9.26933 5.668 9.312C5.96667 9.39733 6.44667 9.44 7.108 9.44C7.79067 9.44 8.53733 9.41867 9.348 9.376C10.18 9.312 10.9373 9.248 11.62 9.184C11.94 9.12 12.2707 9.06667 12.612 9.024C12.9747 8.96 13.2093 8.94933 13.316 8.992C13.4227 9.056 13.5187 9.184 13.604 9.376C13.6893 9.54667 13.7427 9.728 13.764 9.92C13.8067 10.112 13.796 10.272 13.732 10.4Z" fill="#1A1A1A"/>
</svg>
