<svg width="16" height="22" viewBox="0 0 16 22" fill="none" xmlns="http://www.w3.org/2000/svg">
<path d="M1.40612 21.696C1.23545 21.696 1.04345 21.5573 0.830118 21.28C0.616784 21.0027 0.520784 20.736 0.542118 20.48C0.563451 20.1387 0.659451 19.648 0.830118 19.008C1.00078 18.368 1.19278 17.7173 1.40612 17.056C1.61945 16.3947 1.81145 15.872 1.98212 15.488C2.06745 15.1467 2.14212 14.848 2.20612 14.592C2.29145 14.3147 2.34478 14.1333 2.36612 14.048C2.43012 13.9627 2.52612 13.7387 2.65412 13.376C2.80345 13.0133 2.92078 12.6613 3.00612 12.32C3.04878 12.1493 3.13412 11.8293 3.26212 11.36C3.41145 10.8693 3.58212 10.304 3.77412 9.664C3.98745 9.024 4.19012 8.39467 4.38212 7.776C4.59545 7.15733 4.77678 6.61333 4.92612 6.144C5.07545 5.67467 5.17145 5.36533 5.21412 5.216C5.38478 4.96 5.51278 4.71467 5.59812 4.48C5.68345 4.24533 5.73678 4.08533 5.75812 4C5.88612 3.91467 5.96078 3.808 5.98212 3.68C6.00345 3.53067 6.01412 3.41333 6.01412 3.328C6.01412 3.22133 6.04612 3.136 6.11012 3.072C6.19545 3.008 6.23812 2.93333 6.23812 2.848C6.32345 2.784 6.37678 2.688 6.39812 2.56C6.41945 2.41067 6.48345 2.28267 6.59012 2.176L6.75012 1.632L8.63812 1.6C8.59545 1.856 8.53145 2.176 8.44612 2.56C8.36078 2.92267 8.15812 3.41333 7.83812 4.032C7.73145 4.45867 7.60345 4.84267 7.45412 5.184C7.32612 5.52533 7.27278 5.74933 7.29412 5.856C7.25145 5.89867 7.15545 6.112 7.00612 6.496C6.87812 6.88 6.71812 7.34933 6.52612 7.904C6.35545 8.45867 6.17412 9.01333 5.98212 9.568C5.81145 10.1227 5.65145 10.6133 5.50212 11.04C5.37412 11.4453 5.28878 11.7013 5.24612 11.808C5.07545 12.1493 4.88345 12.6507 4.67012 13.312C4.45678 13.9733 4.13678 14.8693 3.71012 16C3.53945 16.3413 3.32612 16.8533 3.07012 17.536C2.83545 18.2187 2.64345 18.8373 2.49412 19.392C2.25945 20.224 2.08878 20.8 1.98212 21.12C1.89678 21.4613 1.82212 21.6427 1.75812 21.664C1.69412 21.7067 1.57678 21.7173 1.40612 21.696ZM1.66212 2.624C1.06478 2.64533 0.616784 2.61333 0.318118 2.528C0.0407844 2.44267 -0.0552156 2.22933 0.0301176 1.888C0.0941177 1.632 0.232784 1.44 0.446117 1.312C0.659451 1.184 0.968784 1.088 1.37412 1.024C1.60878 0.981332 1.90745 0.927999 2.27012 0.863998C2.65412 0.799999 3.01678 0.735999 3.35812 0.671999C4.06212 0.586665 4.63812 0.511999 5.08612 0.448C5.55545 0.384 6.03545 0.330666 6.52612 0.288C7.01678 0.245333 7.63545 0.202666 8.38212 0.16C9.00078 0.117332 9.52345 0.0853322 9.95012 0.0639992C10.3981 0.0213331 10.6221 0 10.6221 0C10.6861 0 10.9101 0.0213331 11.2941 0.0639992C11.6781 0.106665 12.0941 0.159999 12.5421 0.223999C12.9901 0.287999 13.3208 0.362666 13.5341 0.448C14.0248 0.554667 14.3768 0.704 14.5901 0.896C14.8248 1.088 14.9848 1.36533 15.0701 1.728C15.1341 1.984 15.1341 2.144 15.0701 2.208C15.0061 2.25067 14.8888 2.31467 14.7181 2.4C14.2275 2.54933 13.8648 2.624 13.6301 2.624C13.3955 2.624 13.1288 2.57067 12.8301 2.464C12.7235 2.35733 12.5955 2.26133 12.4461 2.176C12.3181 2.09067 12.0835 2.02667 11.7421 1.984C11.4221 1.92 10.9101 1.86667 10.2061 1.824C9.60878 1.888 9.08612 1.92 8.63812 1.92C8.19012 1.92 7.96612 1.97333 7.96612 2.08L6.07812 2.176L4.51012 2.336C4.29678 2.35733 3.99812 2.38933 3.61412 2.432C3.23012 2.45333 2.85678 2.48533 2.49412 2.528C2.13145 2.54933 1.85412 2.58133 1.66212 2.624Z" fill="#1A1A1A"/>
</svg>
