<svg width="17" height="24" viewBox="0 0 17 24" fill="none" xmlns="http://www.w3.org/2000/svg">
<path d="M3.10539 23.3698C2.12406 23.0072 1.36672 22.4418 0.833391 21.6738C0.321391 20.8845 0.0440579 19.7858 0.00139129 18.3778C-0.0199419 16.9485 0.204058 15.1245 0.673391 12.9058C0.822725 12.1592 1.03606 11.3058 1.31339 10.3458C1.59072 9.38585 1.91072 8.40451 2.27339 7.40185C2.65739 6.37785 3.05206 5.39651 3.45739 4.45785C3.88406 3.49785 4.30006 2.65518 4.70539 1.92985C5.19606 1.05518 5.56939 0.511179 5.82539 0.297846C6.10272 0.0631799 6.34806 -0.0328202 6.56139 0.00984594C6.96672 0.116513 7.25472 0.319179 7.42539 0.617846C7.61739 0.895179 7.68139 1.20451 7.61739 1.54585C7.57473 1.86585 7.37206 2.14318 7.00939 2.37785C6.77473 2.65518 6.46539 3.16718 6.08139 3.91385C5.71872 4.63918 5.34539 5.34318 4.96139 6.02585C4.53473 7.26318 4.16139 8.36185 3.84139 9.32185C3.52139 10.2605 3.25472 11.1458 3.04139 11.9778C2.82806 12.8098 2.63606 13.6845 2.46539 14.6018C2.27339 15.4978 2.12406 16.2338 2.01739 16.8098C1.93206 17.3858 1.86806 17.8658 1.82539 18.2498C1.80406 18.6125 1.79339 18.9325 1.79339 19.2098C1.79339 19.4872 1.79339 19.7752 1.79339 20.0738C1.96406 20.3512 2.10272 20.5965 2.20939 20.8098C2.31606 21.0232 2.45472 21.1512 2.62539 21.1938C2.98806 21.3645 3.39339 21.4072 3.84139 21.3218C4.31072 21.2365 4.76939 21.0658 5.21739 20.8098C5.32406 20.5965 5.46272 20.4472 5.63339 20.3618C5.80406 20.2765 5.88939 20.2338 5.88939 20.2338C5.93206 20.3405 5.97472 20.3725 6.01739 20.3298C6.08139 20.2658 6.12406 20.1912 6.14539 20.1058C6.12406 20.0205 6.14539 19.9458 6.20939 19.8818C6.27339 19.7965 6.34806 19.7112 6.43339 19.6258C6.60406 19.5618 6.84939 19.3485 7.16939 18.9858C7.51072 18.6018 7.85206 18.1752 8.19339 17.7058C8.55606 17.2365 8.85473 16.8098 9.08939 16.4258C9.34539 16.0418 9.47339 15.8072 9.47339 15.7218C9.47339 15.6152 9.51606 15.5192 9.60139 15.4338C9.68673 15.3485 9.78273 15.2418 9.88939 15.1138C9.99606 15.0072 10.2094 14.6658 10.5294 14.0898C10.8707 13.4925 11.2334 12.7992 11.6174 12.0098C12.0227 11.2205 12.3854 10.4952 12.7054 9.83385C12.7694 9.59918 12.8867 9.22585 13.0574 8.71385C13.2281 8.18051 13.4094 7.57251 13.6014 6.88985C13.8147 6.20718 14.0174 5.52451 14.2094 4.84185C14.4014 4.13785 14.5721 3.51918 14.7214 2.98585C14.8921 2.43118 14.9987 2.02585 15.0414 1.76985C15.0841 1.49251 15.1481 1.26851 15.2334 1.09785C15.3187 0.905845 15.3721 0.767179 15.3934 0.681847C15.5001 0.639179 15.6281 0.649846 15.7774 0.713846C15.9267 0.777846 16.0761 0.852512 16.2254 0.937845C16.3961 1.02318 16.5454 1.09785 16.6734 1.16185C16.8014 1.33251 16.8547 1.54585 16.8334 1.80185C16.8121 2.05785 16.7374 2.45251 16.6094 2.98585C16.5027 3.49785 16.3427 4.24451 16.1294 5.22585C15.6814 6.97518 15.1374 8.58585 14.4974 10.0578C13.8787 11.5298 13.2067 13.0872 12.4814 14.7298C12.4814 14.7298 12.4814 14.7405 12.4814 14.7618C12.4814 14.7618 12.4814 14.8152 12.4814 14.9218C12.2254 15.0712 12.0227 15.2952 11.8734 15.5938C11.7667 15.7858 11.6707 15.9565 11.5854 16.1058C11.5214 16.2338 11.4361 16.3298 11.3294 16.3938C11.2654 16.5858 11.2014 16.7565 11.1374 16.9058C11.0734 17.0552 11.0414 17.1298 11.0414 17.1298C11.0201 17.2365 10.9454 17.3325 10.8174 17.4178C10.6894 17.5032 10.5614 17.5885 10.4334 17.6738C10.3267 17.7165 10.2627 17.8018 10.2414 17.9298C10.2201 18.0578 10.1774 18.1645 10.1134 18.2498C9.64406 18.9538 9.11073 19.6472 8.51339 20.3298C7.91606 21.0125 7.29739 21.5992 6.65739 22.0898C6.03873 22.6018 5.44139 22.9645 4.86539 23.1778C4.48139 23.3272 4.16139 23.4125 3.90539 23.4338C3.67072 23.4552 3.40406 23.4338 3.10539 23.3698Z" fill="#1A1A1A"/>
</svg>
