<svg width="24" height="23" viewBox="0 0 24 23" fill="none" xmlns="http://www.w3.org/2000/svg">
<path d="M11.3856 22.048C11.1083 22.0693 10.8523 22.0053 10.6176 21.856C10.4043 21.728 10.2549 21.5573 10.1696 21.344C10.0843 21.2373 9.95627 21.056 9.7856 20.8C9.61493 20.544 9.50827 20.288 9.4656 20.032C9.4016 19.3493 9.35893 18.688 9.3376 18.048C9.3376 17.408 9.3696 16.512 9.4336 15.36C9.4976 14.4213 9.61493 13.5147 9.7856 12.64C9.9776 11.744 10.1589 10.944 10.3296 10.24C10.5216 9.536 10.6709 8.98133 10.7776 8.576C10.8843 8.14933 10.9056 7.936 10.8416 7.936C10.7563 7.936 10.6283 8.096 10.4576 8.416C10.2869 8.71467 10.0949 9.088 9.8816 9.536C9.66827 9.984 9.45493 10.432 9.2416 10.88C9.02827 11.3067 8.84693 11.6587 8.6976 11.936C8.39893 12.5973 8.04693 13.3013 7.6416 14.048C7.2576 14.7733 6.86293 15.4773 6.4576 16.16C6.05227 16.8427 5.70027 17.44 5.4016 17.952C5.2096 18.1653 4.9856 18.4747 4.7296 18.88C4.4736 19.264 4.19627 19.6693 3.8976 20.096C3.59893 20.5227 3.2896 20.8747 2.9696 21.152C2.50027 21.6 2.03093 21.8453 1.5616 21.888C1.1136 21.9307 0.7296 21.8133 0.4096 21.536C0.3456 21.4507 0.270933 21.344 0.1856 21.216C0.1216 21.1093 0.0682668 20.96 0.0256001 20.768C-0.0170667 20.576 -0.00640001 20.352 0.0576001 20.096C0.0362667 19.7973 0.0362667 19.3387 0.0576001 18.72C0.100267 18.08 0.164267 17.3867 0.2496 16.64C0.334934 15.872 0.420267 15.136 0.5056 14.432C0.612267 13.728 0.708267 13.1413 0.7936 12.672C0.9856 11.3067 1.2416 9.90933 1.5616 8.48C1.90293 7.05067 2.21227 5.61067 2.4896 4.16C2.66027 3.73333 2.8096 3.25333 2.9376 2.72C3.08693 2.16533 3.23627 1.65333 3.3856 1.184C3.40693 0.714666 3.5136 0.405333 3.7056 0.256001C3.8976 0.0853335 4.11093 0.0320002 4.3456 0.0960007C4.6016 0.138667 4.80427 0.266666 4.9536 0.48C5.16693 0.693334 5.32693 1.024 5.4336 1.472C5.5616 1.92 5.47627 2.48533 5.1776 3.168C4.75093 4.21333 4.33493 5.49333 3.9296 7.008C3.5456 8.50133 3.1936 10.3147 2.8736 12.448C2.78827 12.96 2.69227 13.568 2.5856 14.272C2.47893 14.976 2.38293 15.6587 2.2976 16.32C2.21227 16.9813 2.14827 17.536 2.1056 17.984C2.08427 18.432 2.09493 18.6667 2.1376 18.688C2.30827 18.7307 2.54293 18.6027 2.8416 18.304C3.14027 17.984 3.40693 17.568 3.6416 17.056C4.51627 15.6053 5.38027 14.0907 6.2336 12.512C7.10827 10.912 7.94027 9.33333 8.7296 7.776C9.09227 7.15733 9.45493 6.48533 9.8176 5.76C10.2016 5.01333 10.5643 4.33067 10.9056 3.712C11.2683 3.072 11.5989 2.496 11.8976 1.984C12.1963 1.45067 12.4523 1.01333 12.6656 0.672001C12.8789 0.330667 13.0496 0.138667 13.1776 0.0960007C13.5189 0.117334 13.8069 0.202667 14.0416 0.352001C14.2976 0.480001 14.5109 0.757334 14.6816 1.184C14.7243 1.29067 14.7136 1.472 14.6496 1.728C14.5856 1.984 14.5109 2.208 14.4256 2.4C14.4043 2.54933 14.3083 2.85867 14.1376 3.328C13.9883 3.79733 13.8496 4.32 13.7216 4.896C13.5083 5.472 13.3163 6.048 13.1456 6.624C12.9963 7.17867 12.8896 7.63733 12.8256 8C12.6549 8.91733 12.4416 9.93067 12.1856 11.04C11.9296 12.128 11.7056 13.216 11.5136 14.304C11.3429 15.3707 11.2469 16.3307 11.2256 17.184C11.2043 17.7813 11.2043 18.2507 11.2256 18.592C11.2683 18.9333 11.3323 19.2 11.4176 19.392C11.4603 19.5627 11.5883 19.6693 11.8016 19.712C12.0363 19.7547 12.2283 19.68 12.3776 19.488C12.8043 18.9547 13.1669 18.4747 13.4656 18.048C13.7856 17.6 14.0843 17.152 14.3616 16.704C14.6389 16.2347 14.9269 15.712 15.2256 15.136C15.7589 14.1547 16.3029 13.0667 16.8576 11.872C17.4336 10.656 17.9776 9.45067 18.4896 8.256C19.0229 7.06133 19.4816 6.016 19.8656 5.12C20.2709 3.968 20.5909 3.05067 20.8256 2.368C21.0816 1.68533 21.3056 1.17333 21.4976 0.832001C21.6896 0.490667 21.8923 0.256 22.1056 0.128C22.2123 0.0426668 22.3616 0 22.5536 0C22.7456 0 22.9376 0.0853335 23.1296 0.256001C23.2149 0.341334 23.2896 0.480001 23.3536 0.672001C23.4389 0.842667 23.4709 1.056 23.4496 1.312C23.3429 1.65333 23.1509 2.19733 22.8736 2.944C22.6176 3.69067 22.3189 4.512 21.9776 5.408C21.6363 6.304 21.3056 7.15733 20.9856 7.968C20.6656 8.77867 20.3883 9.42933 20.1536 9.92C19.9189 10.368 19.6949 10.752 19.4816 11.072C19.2683 11.392 19.1616 11.6373 19.1616 11.808C19.1616 11.8933 19.0549 12.16 18.8416 12.608C18.6283 13.0347 18.3509 13.5573 18.0096 14.176C17.6896 14.7947 17.3376 15.4347 16.9536 16.096C16.5696 16.7573 16.2069 17.3653 15.8656 17.92C15.5243 18.4747 15.2363 18.9013 15.0016 19.2C14.4683 19.8613 13.9456 20.4053 13.4336 20.832C12.9429 21.2587 12.5163 21.568 12.1536 21.76C11.7909 21.952 11.5349 22.048 11.3856 22.048Z" fill="#1A1A1A"/>
</svg>
