<svg width="22" height="32" viewBox="0 0 22 32" fill="none" xmlns="http://www.w3.org/2000/svg">
<path d="M1.088 31.136C0.618667 30.8587 0.32 30.56 0.192 30.24C0.064 29.9413 0 29.6853 0 29.472C0 28.8747 0.213333 28.064 0.64 27.04C1.088 26.016 1.67467 24.8533 2.4 23.552C3.14667 22.2293 3.968 20.864 4.864 19.456C4.07467 19.392 3.40267 19.3493 2.848 19.328C2.29333 19.3067 1.81333 19.296 1.408 19.296H0.288C0.522667 18.6773 0.928 18.2507 1.504 18.016C2.10133 17.76 2.80533 17.632 3.616 17.632C3.97867 17.632 4.352 17.6533 4.736 17.696C5.12 17.7387 5.51467 17.792 5.92 17.856C7.008 16.2133 8.11733 14.624 9.248 13.088C10.4 11.5307 11.4667 10.1547 12.448 8.96C13.4507 7.744 14.2827 6.82667 14.944 6.208C15.5627 5.61067 16.0747 5.312 16.48 5.312C16.7147 5.312 16.9707 5.408 17.248 5.6C17.5467 5.77067 17.856 6.016 18.176 6.336C17.9627 6.50667 17.6853 6.96533 17.344 7.712C17.024 8.43733 16.672 9.35467 16.288 10.464C15.9253 11.5733 15.5627 12.7893 15.2 14.112C14.8373 15.4347 14.496 16.7893 14.176 18.176C13.8773 19.5413 13.632 20.8427 13.44 22.08C13.2693 23.3173 13.184 24.4053 13.184 25.344C13.184 26.1547 13.2693 26.784 13.44 27.232C13.632 27.68 13.9413 27.904 14.368 27.904C14.9227 27.904 15.552 27.52 16.256 26.752C16.96 25.984 17.728 24.7893 18.56 23.168L18.88 23.488C18.24 25.1947 17.4187 26.592 16.416 27.68C15.4347 28.768 14.4107 29.312 13.344 29.312C12.4693 29.312 11.8293 28.928 11.424 28.16C11.04 27.3707 10.848 26.3253 10.848 25.024C10.848 24.3413 10.8907 23.5947 10.976 22.784C11.0827 21.9733 11.2213 21.1307 11.392 20.256C10.4533 20.1067 9.58933 19.9893 8.8 19.904C8.032 19.7973 7.31733 19.7013 6.656 19.616C5.65333 21.472 4.672 23.3813 3.712 25.344C2.77333 27.3067 1.89867 29.2373 1.088 31.136ZM11.616 19.136C11.936 17.728 12.3093 16.3093 12.736 14.88C13.1627 13.4293 13.6107 12.0533 14.08 10.752C14.5707 9.45067 15.0293 8.30933 15.456 7.328C14.7947 7.73333 14.0267 8.45867 13.152 9.504C12.2987 10.528 11.392 11.7867 10.432 13.28C9.472 14.752 8.49067 16.3733 7.488 18.144C8.21333 18.2933 8.928 18.464 9.632 18.656C10.3573 18.8267 11.0187 18.9867 11.616 19.136ZM20.608 4.544C20.3093 3.92533 19.968 3.40267 19.584 2.976C19.2 2.528 18.752 2.06933 18.24 1.6C17.5787 1.83467 16.9813 2.09067 16.448 2.368C15.936 2.64533 15.4347 2.99733 14.944 3.424C14.816 3.33867 14.7307 3.24267 14.688 3.136C14.6453 3.008 14.624 2.90133 14.624 2.816C14.624 2.496 14.7627 2.176 15.04 1.856C15.3387 1.536 15.6907 1.23733 16.096 0.959999C16.5227 0.661332 16.9387 0.426666 17.344 0.256001C17.7493 0.0853335 18.0587 0 18.272 0C18.528 0 18.816 0.117333 19.136 0.351999C19.4773 0.586667 19.7973 0.896001 20.096 1.28C20.3947 1.64267 20.64 2.02667 20.832 2.432C21.0453 2.83733 21.152 3.21067 21.152 3.552C21.152 3.76533 21.1093 3.95733 21.024 4.128C20.9387 4.29867 20.8 4.43733 20.608 4.544Z" fill="#1A1A1A"/>
</svg>
