<svg width="19" height="32" viewBox="0 0 19 32" fill="none" xmlns="http://www.w3.org/2000/svg">
<path d="M1.088 31.424C0.618667 31.1467 0.32 30.848 0.192 30.528C0.064 30.2293 0 29.9733 0 29.76C0 29.1627 0.213333 28.352 0.64 27.328C1.088 26.304 1.67467 25.1413 2.4 23.84C3.14667 22.5173 3.968 21.152 4.864 19.744C4.07467 19.68 3.40267 19.6373 2.848 19.616C2.29333 19.5947 1.81333 19.584 1.408 19.584H0.288C0.522667 18.9653 0.928 18.5387 1.504 18.304C2.10133 18.048 2.80533 17.92 3.616 17.92C3.97867 17.92 4.352 17.9413 4.736 17.984C5.12 18.0267 5.51467 18.08 5.92 18.144C7.008 16.5013 8.11733 14.912 9.248 13.376C10.4 11.8187 11.4667 10.4427 12.448 9.248C13.4507 8.032 14.2827 7.11467 14.944 6.496C15.5627 5.89867 16.0747 5.6 16.48 5.6C16.7147 5.6 16.9707 5.696 17.248 5.888C17.5467 6.05867 17.856 6.304 18.176 6.624C17.9627 6.79467 17.6853 7.25333 17.344 8C17.024 8.72533 16.672 9.64267 16.288 10.752C15.9253 11.8613 15.5627 13.0773 15.2 14.4C14.8373 15.7227 14.496 17.0773 14.176 18.464C13.8773 19.8293 13.632 21.1307 13.44 22.368C13.2693 23.6053 13.184 24.6933 13.184 25.632C13.184 26.4427 13.2693 27.072 13.44 27.52C13.632 27.968 13.9413 28.192 14.368 28.192C14.9227 28.192 15.552 27.808 16.256 27.04C16.96 26.272 17.728 25.0773 18.56 23.456L18.88 23.776C18.24 25.4827 17.4187 26.88 16.416 27.968C15.4347 29.056 14.4107 29.6 13.344 29.6C12.4693 29.6 11.8293 29.216 11.424 28.448C11.04 27.6587 10.848 26.6133 10.848 25.312C10.848 24.6293 10.8907 23.8827 10.976 23.072C11.0827 22.2613 11.2213 21.4187 11.392 20.544C10.4533 20.3947 9.58933 20.2773 8.8 20.192C8.032 20.0853 7.31733 19.9893 6.656 19.904C5.65333 21.76 4.672 23.6693 3.712 25.632C2.77333 27.5947 1.89867 29.5253 1.088 31.424ZM11.616 19.424C11.936 18.016 12.3093 16.5973 12.736 15.168C13.1627 13.7173 13.6107 12.3413 14.08 11.04C14.5707 9.73867 15.0293 8.59733 15.456 7.616C14.7947 8.02133 14.0267 8.74667 13.152 9.792C12.2987 10.816 11.392 12.0747 10.432 13.568C9.472 15.04 8.49067 16.6613 7.488 18.432C8.21333 18.5813 8.928 18.752 9.632 18.944C10.3573 19.1147 11.0187 19.2747 11.616 19.424ZM17.6 4.704C17.1307 4.08533 16.608 3.47733 16.032 2.88C15.456 2.28267 14.784 1.65333 14.016 0.992001C14.0587 0.608 14.144 0.352 14.272 0.223999C14.4 0.0746663 14.5493 0 14.72 0C15.04 0 15.392 0.16 15.776 0.48C16.16 0.799999 16.5227 1.19467 16.864 1.664C17.2053 2.112 17.4827 2.54933 17.696 2.976C17.9307 3.38133 18.048 3.68 18.048 3.872C18.048 3.95733 18.016 4.096 17.952 4.288C17.888 4.48 17.7707 4.61867 17.6 4.704Z" fill="#1A1A1A"/>
</svg>
