<svg width="19" height="26" viewBox="0 0 19 26" fill="none" xmlns="http://www.w3.org/2000/svg">
<path d="M1.088 25.824C0.618667 25.5467 0.32 25.248 0.192 24.928C0.064 24.6293 0 24.3733 0 24.16C0 23.5627 0.213333 22.752 0.64 21.728C1.088 20.704 1.67467 19.5413 2.4 18.24C3.14667 16.9173 3.968 15.552 4.864 14.144C4.07467 14.08 3.40267 14.0373 2.848 14.016C2.29333 13.9947 1.81333 13.984 1.408 13.984H0.288C0.522667 13.3653 0.928 12.9387 1.504 12.704C2.10133 12.448 2.80533 12.32 3.616 12.32C3.97867 12.32 4.352 12.3413 4.736 12.384C5.12 12.4267 5.51467 12.48 5.92 12.544C7.008 10.9013 8.11733 9.312 9.248 7.776C10.4 6.21867 11.4667 4.84267 12.448 3.648C13.4507 2.432 14.2827 1.51467 14.944 0.896C15.5627 0.298667 16.0747 0 16.48 0C16.7147 0 16.9707 0.096 17.248 0.288C17.5467 0.458667 17.856 0.704 18.176 1.024C17.9627 1.19467 17.6853 1.65333 17.344 2.4C17.024 3.12533 16.672 4.04267 16.288 5.152C15.9253 6.26133 15.5627 7.47733 15.2 8.8C14.8373 10.1227 14.496 11.4773 14.176 12.864C13.8773 14.2293 13.632 15.5307 13.44 16.768C13.2693 18.0053 13.184 19.0933 13.184 20.032C13.184 20.8427 13.2693 21.472 13.44 21.92C13.632 22.368 13.9413 22.592 14.368 22.592C14.9227 22.592 15.552 22.208 16.256 21.44C16.96 20.672 17.728 19.4773 18.56 17.856L18.88 18.176C18.24 19.8827 17.4187 21.28 16.416 22.368C15.4347 23.456 14.4107 24 13.344 24C12.4693 24 11.8293 23.616 11.424 22.848C11.04 22.0587 10.848 21.0133 10.848 19.712C10.848 19.0293 10.8907 18.2827 10.976 17.472C11.0827 16.6613 11.2213 15.8187 11.392 14.944C10.4533 14.7947 9.58933 14.6773 8.8 14.592C8.032 14.4853 7.31733 14.3893 6.656 14.304C5.65333 16.16 4.672 18.0693 3.712 20.032C2.77333 21.9947 1.89867 23.9253 1.088 25.824ZM11.616 13.824C11.936 12.416 12.3093 10.9973 12.736 9.568C13.1627 8.11733 13.6107 6.74133 14.08 5.44C14.5707 4.13867 15.0293 2.99733 15.456 2.016C14.7947 2.42133 14.0267 3.14667 13.152 4.192C12.2987 5.216 11.392 6.47467 10.432 7.968C9.472 9.44 8.49067 11.0613 7.488 12.832C8.21333 12.9813 8.928 13.152 9.632 13.344C10.3573 13.5147 11.0187 13.6747 11.616 13.824Z" fill="#1A1A1A"/>
</svg>
