<svg width="18" height="26" viewBox="0 0 18 26" fill="none" xmlns="http://www.w3.org/2000/svg">
<path d="M3.552 25.824C2.37867 25.824 1.49333 25.6213 0.896 25.216C0.298667 24.832 0 24.1813 0 23.264C0 23.2 0.0533333 23.168 0.16 23.168C0.309333 23.168 0.576 23.2213 0.96 23.328C1.344 23.4347 2.08 23.488 3.168 23.488C5.00267 23.488 6.69867 23.2853 8.256 22.88C9.81333 22.4533 11.1573 21.8773 12.288 21.152C13.44 20.4267 14.3253 19.616 14.944 18.72C15.584 17.8027 15.904 16.864 15.904 15.904C15.904 15.0293 15.6587 14.3253 15.168 13.792C14.6773 13.2587 14.0267 12.8533 13.216 12.576C12.4267 12.2987 11.5627 12.1173 10.624 12.032C9.68533 11.9253 8.75733 11.872 7.84 11.872C7.43467 11.872 7.01867 11.8827 6.592 11.904C6.18667 11.904 5.80267 11.904 5.44 11.904C4.94933 13.632 4.46933 15.3707 4 17.12C3.53067 18.8693 3.05067 20.5653 2.56 22.208C2.02667 22.208 1.57867 22.0587 1.216 21.76C0.853333 21.4613 0.672 21.0987 0.672 20.672C0.672 20.416 0.725333 20.1173 0.832 19.776C0.938667 19.4347 1.03467 19.1253 1.12 18.848C1.248 18.4213 1.472 17.7067 1.792 16.704C2.112 15.7013 2.496 14.528 2.944 13.184C3.41333 11.84 3.92533 10.432 4.48 8.96C5.03467 7.488 5.6 6.048 6.176 4.64C6.77333 3.232 7.34933 1.984 7.904 0.896C7.008 1.04533 6.25067 1.25867 5.632 1.536C5.03467 1.81333 4.56533 2.06933 4.224 2.304C3.88267 2.51733 3.63733 2.624 3.488 2.624C3.38133 2.624 3.24267 2.58133 3.072 2.496C2.92267 2.38933 2.784 2.272 2.656 2.144C2.528 1.99467 2.464 1.86667 2.464 1.76C3.53067 1.312 4.64 0.906666 5.792 0.544001C6.96533 0.181334 8.384 0 10.048 0C10.752 0 11.5307 0.0639998 12.384 0.191999C13.2373 0.298666 14.048 0.533333 14.816 0.896C15.584 1.23733 16.2133 1.74933 16.704 2.432C17.1947 3.09333 17.44 3.97867 17.44 5.088C17.44 6.13333 17.216 7.02933 16.768 7.776C16.32 8.50133 15.7333 9.10933 15.008 9.6C14.2827 10.0693 13.4933 10.4427 12.64 10.72C11.7867 10.9973 10.944 11.2 10.112 11.328C11.6907 11.4133 12.96 11.6373 13.92 12C14.9013 12.3627 15.6373 12.8 16.128 13.312C16.64 13.8027 16.9813 14.3253 17.152 14.88C17.3227 15.4347 17.408 15.968 17.408 16.48C17.408 17.7173 17.088 18.8373 16.448 19.84C15.808 20.8427 14.9653 21.7173 13.92 22.464C12.8747 23.2107 11.7333 23.8293 10.496 24.32C9.25867 24.832 8.032 25.2053 6.816 25.44C5.6 25.696 4.512 25.824 3.552 25.824ZM5.632 11.168C6.80533 11.1253 7.968 10.9973 9.12 10.784C10.2933 10.5493 11.36 10.1867 12.32 9.696C13.28 9.20533 14.048 8.56533 14.624 7.776C15.2213 6.98667 15.52 6.00533 15.52 4.832C15.52 3.72267 15.2533 2.86933 14.72 2.272C14.208 1.67467 13.536 1.25867 12.704 1.024C11.8933 0.789333 11.0293 0.671999 10.112 0.671999C10.0053 0.671999 9.89867 0.671999 9.792 0.671999C9.70667 0.671999 9.61067 0.682666 9.504 0.704C8.736 2.19733 8.032 3.84 7.392 5.632C6.77333 7.424 6.18667 9.26933 5.632 11.168Z" fill="#1A1A1A"/>
</svg>
