<svg width="17" height="30" viewBox="0 0 17 30" fill="none" xmlns="http://www.w3.org/2000/svg">
<path d="M6.304 25.792C4.78933 25.792 3.56267 25.408 2.624 24.64C1.70667 23.8933 1.03467 22.9227 0.608 21.728C0.202667 20.5333 0 19.2853 0 17.984C0 16.2987 0.256 14.6027 0.768 12.896C1.28 11.1893 1.97333 9.568 2.848 8.032C3.744 6.47467 4.75733 5.09867 5.888 3.904C7.01867 2.688 8.20267 1.73867 9.44 1.056C10.6987 0.352 11.936 0 13.152 0C14.0267 0 14.7307 0.213333 15.264 0.639999C15.8187 1.04533 16.096 1.74933 16.096 2.752C16.096 3.37067 15.9893 4.07467 15.776 4.864C15.5627 5.632 15.2747 6.37867 14.912 7.104C14.5493 7.808 14.144 8.39467 13.696 8.864C13.2693 9.33333 12.832 9.568 12.384 9.568C12.2133 9.568 12.032 9.51467 11.84 9.408C11.6693 9.30133 11.52 9.10933 11.392 8.832C11.712 8.46933 12.064 8.02133 12.448 7.488C12.8533 6.93333 13.2373 6.35733 13.6 5.76C13.9627 5.14133 14.2507 4.544 14.464 3.968C14.6987 3.37067 14.816 2.848 14.816 2.4C14.816 1.97333 14.688 1.632 14.432 1.376C14.1973 1.09867 13.8027 0.960001 13.248 0.960001C12.3307 0.960001 11.3707 1.33333 10.368 2.08C9.38667 2.82667 8.42667 3.82933 7.488 5.088C6.57067 6.32533 5.73867 7.712 4.992 9.248C4.24533 10.784 3.648 12.352 3.2 13.952C2.77333 15.552 2.56 17.0773 2.56 18.528C2.56 19.5733 2.70933 20.576 3.008 21.536C3.30667 22.4747 3.78667 23.232 4.448 23.808C5.13067 24.4053 6.00533 24.704 7.072 24.704C8.20267 24.704 9.32267 24.384 10.432 23.744C11.5627 23.104 12.5973 22.2613 13.536 21.216C14.4747 20.1707 15.2213 19.04 15.776 17.824L16.224 18.144C15.52 19.5307 14.6667 20.8107 13.664 21.984C12.6613 23.136 11.5413 24.0533 10.304 24.736C9.06667 25.44 7.73333 25.792 6.304 25.792ZM10.816 29.76C10.1973 29.76 9.71733 29.6427 9.376 29.408C9.03467 29.1733 8.864 28.9067 8.864 28.608C8.864 28.4373 8.91733 28.256 9.024 28.064C9.152 27.8933 9.33333 27.7227 9.568 27.552C9.67467 28.064 9.856 28.4267 10.112 28.64C10.368 28.8747 10.6347 28.992 10.912 28.992C11.3173 28.992 11.7227 28.832 12.128 28.512C12.5333 28.2133 12.8747 27.84 13.152 27.392C13.4293 26.9653 13.568 26.5707 13.568 26.208C13.568 26.0373 13.5253 25.856 13.44 25.664C13.376 25.4933 13.2373 25.408 13.024 25.408C12.7467 25.408 12.416 25.5147 12.032 25.728C11.648 25.9413 11.296 26.1547 10.976 26.368C10.656 26.6027 10.432 26.72 10.304 26.72C10.1547 26.72 10.0373 26.6453 9.952 26.496C9.888 26.368 9.856 26.2507 9.856 26.144C9.856 26.1013 9.94133 25.952 10.112 25.696C10.304 25.44 10.528 25.1307 10.784 24.768C11.04 24.4267 11.296 24.0853 11.552 23.744C11.8293 23.424 12.064 23.1787 12.256 23.008H12.672L10.976 25.6C11.2107 25.4293 11.4987 25.2587 11.84 25.088C12.1813 24.9173 12.608 24.832 13.12 24.832C13.6107 24.832 13.9733 24.9387 14.208 25.152C14.4427 25.3867 14.56 25.728 14.56 26.176C14.56 26.7733 14.3787 27.3493 14.016 27.904C13.6747 28.4587 13.216 28.9067 12.64 29.248C12.0853 29.5893 11.4773 29.76 10.816 29.76Z" fill="#1A1A1A"/>
</svg>
