<svg width="19" height="26" viewBox="0 0 19 26" fill="none" xmlns="http://www.w3.org/2000/svg">
<path d="M3.424 25.824C2.76267 25.824 2.13333 25.728 1.536 25.536C0.938667 25.3653 0.426667 24.9813 0 24.384C0.213333 23.36 0.469333 22.2613 0.768 21.088C1.088 19.8933 1.42933 18.6773 1.792 17.44C2.15467 16.1813 2.51733 14.9547 2.88 13.76C3.264 12.544 3.62667 11.4133 3.968 10.368C4.30933 9.32267 4.61867 8.40533 4.896 7.616C5.17333 6.82667 5.38667 6.22933 5.536 5.824C5.6 5.65333 5.70667 5.408 5.856 5.088C6.00533 4.74667 6.18667 4.40533 6.4 4.064C6.61333 3.72267 6.85867 3.43467 7.136 3.2C7.41333 2.944 7.712 2.816 8.032 2.816C8.33067 2.816 8.62933 2.92267 8.928 3.136C8.26667 4.672 7.59467 6.368 6.912 8.224C6.25067 10.08 5.61067 12 4.992 13.984C4.37333 15.9467 3.808 17.8667 3.296 19.744C2.784 21.6213 2.35733 23.328 2.016 24.864C2.31467 24.9067 2.56 24.9387 2.752 24.96C2.96533 24.9813 3.17867 24.992 3.392 24.992C4.75733 24.992 6.06933 24.672 7.328 24.032C8.608 23.4133 9.792 22.56 10.88 21.472C11.9893 20.3627 12.96 19.104 13.792 17.696C14.624 16.2667 15.264 14.7627 15.712 13.184C16.1813 11.584 16.416 9.99467 16.416 8.416C16.416 6.688 16.1387 5.26933 15.584 4.16C15.0293 3.02933 14.2613 2.19733 13.28 1.664C12.2987 1.13067 11.1573 0.864 9.856 0.864C8.46933 0.864 7.22133 1.14133 6.112 1.696C5.00267 2.25067 4.128 2.99733 3.488 3.936C2.848 4.87467 2.528 5.93067 2.528 7.104C2.528 7.36 2.53867 7.584 2.56 7.776C2.60267 7.968 2.64533 8.13867 2.688 8.288C1.984 8.288 1.48267 8.11733 1.184 7.776C0.906667 7.41333 0.768 6.98667 0.768 6.496C0.768 5.74933 1.024 5.00267 1.536 4.256C2.06933 3.488 2.79467 2.784 3.712 2.144C4.65067 1.504 5.728 0.992 6.944 0.608C8.16 0.202667 9.45067 0 10.816 0C12.736 0 14.272 0.394667 15.424 1.184C16.5973 1.952 17.4507 2.99733 17.984 4.32C18.5173 5.64267 18.784 7.12533 18.784 8.768C18.784 10.624 18.496 12.4053 17.92 14.112C17.344 15.7973 16.544 17.3547 15.52 18.784C14.5173 20.192 13.3653 21.4293 12.064 22.496C10.7627 23.5413 9.36533 24.352 7.872 24.928C6.4 25.5253 4.91733 25.824 3.424 25.824Z" fill="#1A1A1A"/>
</svg>
