<svg width="18" height="32" viewBox="0 0 18 32" fill="none" xmlns="http://www.w3.org/2000/svg">
<path d="M6.24 31.136C4.96 31.136 3.85067 30.8693 2.912 30.336C1.97333 29.8027 1.248 29.0987 0.736 28.224C0.245333 27.328 0 26.3573 0 25.312C0 24.3307 0.213333 23.3707 0.64 22.432C1.06667 21.4933 1.65333 20.64 2.4 19.872C3.168 19.0827 4.05333 18.4427 5.056 17.952C6.05867 17.44 7.136 17.1307 8.288 17.024C7.456 16.3413 6.83733 15.552 6.432 14.656C6.048 13.76 5.856 12.864 5.856 11.968C5.856 10.8373 6.13333 9.77067 6.688 8.768C7.264 7.744 8.05333 6.92267 9.056 6.304C10.0587 5.664 11.1893 5.344 12.448 5.344C13.6427 5.344 14.5493 5.64267 15.168 6.24C15.7867 6.83733 16.096 7.69067 16.096 8.8C16.096 9.58933 15.9573 10.3573 15.68 11.104C15.4027 11.8507 15.0613 12.4587 14.656 12.928C14.272 13.3973 13.8987 13.632 13.536 13.632C13.3013 13.632 13.0773 13.536 12.864 13.344C12.6507 13.1307 12.48 12.8853 12.352 12.608C13.0987 11.9467 13.728 11.2533 14.24 10.528C14.7733 9.78133 15.04 8.992 15.04 8.16C15.04 7.49867 14.848 6.98667 14.464 6.624C14.08 6.26133 13.5147 6.08 12.768 6.08C11.7867 6.08 10.9547 6.37867 10.272 6.976C9.58933 7.552 9.06667 8.33067 8.704 9.312C8.36267 10.272 8.192 11.3387 8.192 12.512C8.192 13.28 8.30933 14.112 8.544 15.008C8.77867 15.904 9.28 16.6827 10.048 17.344C8.61867 17.5787 7.37067 18.1227 6.304 18.976C5.25867 19.8293 4.43733 20.832 3.84 21.984C3.264 23.136 2.976 24.2773 2.976 25.408C2.976 26.112 3.104 26.8267 3.36 27.552C3.63733 28.256 4.07467 28.8427 4.672 29.312C5.26933 29.8027 6.06933 30.048 7.072 30.048C8.20267 30.048 9.32267 29.728 10.432 29.088C11.5627 28.448 12.5973 27.6053 13.536 26.56C14.4747 25.5147 15.2213 24.384 15.776 23.168L16.224 23.488C15.4773 24.9387 14.6027 26.24 13.6 27.392C12.5973 28.544 11.4773 29.4507 10.24 30.112C9.00267 30.7947 7.66933 31.136 6.24 31.136ZM16.928 4.544C16.6293 3.92533 16.288 3.40267 15.904 2.976C15.52 2.528 15.072 2.06933 14.56 1.6C13.8987 1.83467 13.3013 2.09067 12.768 2.368C12.256 2.64533 11.7547 2.99733 11.264 3.424C11.136 3.33867 11.0507 3.24267 11.008 3.136C10.9653 3.008 10.944 2.90133 10.944 2.816C10.944 2.496 11.0827 2.176 11.36 1.856C11.6587 1.536 12.0107 1.23733 12.416 0.959999C12.8427 0.661332 13.2587 0.426666 13.664 0.256001C14.0693 0.0853335 14.3787 0 14.592 0C14.848 0 15.136 0.117333 15.456 0.351999C15.7973 0.586667 16.1173 0.896001 16.416 1.28C16.7147 1.64267 16.96 2.02667 17.152 2.432C17.3653 2.83733 17.472 3.21067 17.472 3.552C17.472 3.76533 17.4293 3.95733 17.344 4.128C17.2587 4.29867 17.12 4.43733 16.928 4.544Z" fill="#1A1A1A"/>
</svg>
