<svg width="19" height="31" viewBox="0 0 19 31" fill="none" xmlns="http://www.w3.org/2000/svg">
<path d="M6.24 30.016C4.96 30.016 3.85067 29.7493 2.912 29.216C1.97333 28.6827 1.248 27.9787 0.736 27.104C0.245333 26.208 0 25.2373 0 24.192C0 23.2107 0.213333 22.2507 0.64 21.312C1.06667 20.3733 1.65333 19.52 2.4 18.752C3.168 17.9627 4.05333 17.3227 5.056 16.832C6.05867 16.32 7.136 16.0107 8.288 15.904C7.456 15.2213 6.83733 14.432 6.432 13.536C6.048 12.64 5.856 11.744 5.856 10.848C5.856 9.71733 6.13333 8.65067 6.688 7.648C7.264 6.624 8.05333 5.80267 9.056 5.184C10.0587 4.544 11.1893 4.224 12.448 4.224C13.6427 4.224 14.5493 4.52267 15.168 5.12C15.7867 5.71733 16.096 6.57067 16.096 7.68C16.096 8.46933 15.9573 9.23733 15.68 9.984C15.4027 10.7307 15.0613 11.3387 14.656 11.808C14.272 12.2773 13.8987 12.512 13.536 12.512C13.3013 12.512 13.0773 12.416 12.864 12.224C12.6507 12.0107 12.48 11.7653 12.352 11.488C13.0987 10.8267 13.728 10.1333 14.24 9.408C14.7733 8.66133 15.04 7.872 15.04 7.04C15.04 6.37867 14.848 5.86667 14.464 5.504C14.08 5.14133 13.5147 4.96 12.768 4.96C11.7867 4.96 10.9547 5.25867 10.272 5.856C9.58933 6.432 9.06667 7.21067 8.704 8.192C8.36267 9.152 8.192 10.2187 8.192 11.392C8.192 12.16 8.30933 12.992 8.544 13.888C8.77867 14.784 9.28 15.5627 10.048 16.224C8.61867 16.4587 7.37067 17.0027 6.304 17.856C5.25867 18.7093 4.43733 19.712 3.84 20.864C3.264 22.016 2.976 23.1573 2.976 24.288C2.976 24.992 3.104 25.7067 3.36 26.432C3.63733 27.136 4.07467 27.7227 4.672 28.192C5.26933 28.6827 6.06933 28.928 7.072 28.928C8.20267 28.928 9.32267 28.608 10.432 27.968C11.5627 27.328 12.5973 26.4853 13.536 25.44C14.4747 24.3947 15.2213 23.264 15.776 22.048L16.224 22.368C15.4773 23.8187 14.6027 25.12 13.6 26.272C12.5973 27.424 11.4773 28.3307 10.24 28.992C9.00267 29.6747 7.66933 30.016 6.24 30.016ZM16.352 3.136C16.032 3.136 15.7547 3.06133 15.52 2.912C15.2853 2.76267 15.168 2.51733 15.168 2.176C15.168 1.77067 15.4027 1.41867 15.872 1.12C16.3413 0.821332 16.8107 0.671999 17.28 0.671999C17.5787 0.671999 17.8133 0.735999 17.984 0.863998C18.1547 0.991999 18.24 1.22667 18.24 1.568C18.24 1.93067 18.0373 2.28267 17.632 2.624C17.248 2.96533 16.8213 3.136 16.352 3.136ZM11.744 2.464C11.424 2.464 11.1467 2.38933 10.912 2.24C10.6773 2.09067 10.56 1.84533 10.56 1.504C10.56 1.09867 10.7947 0.746667 11.264 0.448C11.7333 0.149333 12.2027 0 12.672 0C12.9707 0 13.2053 0.0639998 13.376 0.191999C13.5467 0.319999 13.632 0.554666 13.632 0.896C13.632 1.25867 13.4293 1.61067 13.024 1.952C12.64 2.29333 12.2133 2.464 11.744 2.464Z" fill="#1A1A1A"/>
</svg>
