<svg width="17" height="32" viewBox="0 0 17 32" fill="none" xmlns="http://www.w3.org/2000/svg">
<path d="M6.24 31.424C4.96 31.424 3.85067 31.1573 2.912 30.624C1.97333 30.0907 1.248 29.3867 0.736 28.512C0.245333 27.616 0 26.6453 0 25.6C0 24.6187 0.213333 23.6587 0.64 22.72C1.06667 21.7813 1.65333 20.928 2.4 20.16C3.168 19.3707 4.05333 18.7307 5.056 18.24C6.05867 17.728 7.136 17.4187 8.288 17.312C7.456 16.6293 6.83733 15.84 6.432 14.944C6.048 14.048 5.856 13.152 5.856 12.256C5.856 11.1253 6.13333 10.0587 6.688 9.056C7.264 8.032 8.05333 7.21067 9.056 6.592C10.0587 5.952 11.1893 5.632 12.448 5.632C13.6427 5.632 14.5493 5.93067 15.168 6.528C15.7867 7.12533 16.096 7.97867 16.096 9.088C16.096 9.87733 15.9573 10.6453 15.68 11.392C15.4027 12.1387 15.0613 12.7467 14.656 13.216C14.272 13.6853 13.8987 13.92 13.536 13.92C13.3013 13.92 13.0773 13.824 12.864 13.632C12.6507 13.4187 12.48 13.1733 12.352 12.896C13.0987 12.2347 13.728 11.5413 14.24 10.816C14.7733 10.0693 15.04 9.28 15.04 8.448C15.04 7.78667 14.848 7.27467 14.464 6.912C14.08 6.54933 13.5147 6.368 12.768 6.368C11.7867 6.368 10.9547 6.66667 10.272 7.264C9.58933 7.84 9.06667 8.61867 8.704 9.6C8.36267 10.56 8.192 11.6267 8.192 12.8C8.192 13.568 8.30933 14.4 8.544 15.296C8.77867 16.192 9.28 16.9707 10.048 17.632C8.61867 17.8667 7.37067 18.4107 6.304 19.264C5.25867 20.1173 4.43733 21.12 3.84 22.272C3.264 23.424 2.976 24.5653 2.976 25.696C2.976 26.4 3.104 27.1147 3.36 27.84C3.63733 28.544 4.07467 29.1307 4.672 29.6C5.26933 30.0907 6.06933 30.336 7.072 30.336C8.20267 30.336 9.32267 30.016 10.432 29.376C11.5627 28.736 12.5973 27.8933 13.536 26.848C14.4747 25.8027 15.2213 24.672 15.776 23.456L16.224 23.776C15.4773 25.2267 14.6027 26.528 13.6 27.68C12.5973 28.832 11.4773 29.7387 10.24 30.4C9.00267 31.0827 7.66933 31.424 6.24 31.424ZM13.92 4.704C13.4507 4.08533 12.928 3.47733 12.352 2.88C11.776 2.28267 11.104 1.65333 10.336 0.992001C10.3787 0.608 10.464 0.352 10.592 0.223999C10.72 0.0746663 10.8693 0 11.04 0C11.36 0 11.712 0.16 12.096 0.48C12.48 0.799999 12.8427 1.19467 13.184 1.664C13.5253 2.112 13.8027 2.54933 14.016 2.976C14.2507 3.38133 14.368 3.68 14.368 3.872C14.368 3.95733 14.336 4.096 14.272 4.288C14.208 4.48 14.0907 4.61867 13.92 4.704Z" fill="#1A1A1A"/>
</svg>
