<svg width="19" height="32" viewBox="0 0 19 32" fill="none" xmlns="http://www.w3.org/2000/svg">
<path d="M0 31.168C0.0853333 30.3787 0.373333 29.8027 0.864 29.44C1.33333 29.0987 1.952 28.8747 2.72 28.768C3.488 28.6613 4.32 28.608 5.216 28.608C5.6 27.776 5.984 26.7627 6.368 25.568C6.752 24.352 7.11467 23.0507 7.456 21.664C7.81867 20.2773 8.17067 18.8693 8.512 17.44C8.85333 15.9893 9.17333 14.6027 9.472 13.28C9.77067 11.9573 10.048 10.7733 10.304 9.728C10.5813 8.66133 10.8267 7.81867 11.04 7.2C9.93067 7.22133 8.98133 7.25333 8.192 7.296C7.424 7.33867 6.69867 7.40267 6.016 7.488C5.35467 7.57333 4.62933 7.69067 3.84 7.84C3.98933 7.02933 4.576 6.42133 5.6 6.016C6.624 5.58933 8.21333 5.376 10.368 5.376C11.4347 5.376 12.512 5.41867 13.6 5.504C14.7093 5.58933 15.7227 5.68533 16.64 5.792C17.5573 5.87733 18.2613 5.96267 18.752 6.048C18.24 6.56 17.696 6.88 17.12 7.008C16.5653 7.11467 16.0747 7.168 15.648 7.168C14.9867 7.168 14.3573 7.168 13.76 7.168C13.184 7.168 12.6507 7.17867 12.16 7.2C12.0747 7.648 11.9467 8.352 11.776 9.312C11.6053 10.2507 11.4027 11.3387 11.168 12.576C10.9333 13.792 10.688 15.0613 10.432 16.384C10.176 17.6853 9.92 18.9333 9.664 20.128C9.42933 21.3013 9.20533 22.3147 8.992 23.168C8.65067 24.5333 8.26667 25.6853 7.84 26.624C7.41333 27.5627 6.90133 28.2347 6.304 28.64C7.41333 28.704 8.59733 28.8107 9.856 28.96C11.1147 29.1307 12.2453 29.2267 13.248 29.248C12.6293 29.8667 11.9787 30.2507 11.296 30.4C10.6347 30.5493 10.08 30.624 9.632 30.624C8.77867 30.624 7.936 30.624 7.104 30.624C6.29333 30.6453 5.48267 30.6667 4.672 30.688C3.88267 30.7093 3.09333 30.752 2.304 30.816C1.536 30.9013 0.768 31.0187 0 31.168ZM15.296 4.544C14.9973 3.92533 14.656 3.40267 14.272 2.976C13.888 2.528 13.44 2.06933 12.928 1.6C12.2667 1.83467 11.6693 2.09067 11.136 2.368C10.624 2.64533 10.1227 2.99733 9.632 3.424C9.504 3.33867 9.41867 3.24267 9.376 3.136C9.33333 3.008 9.312 2.90133 9.312 2.816C9.312 2.496 9.45067 2.176 9.728 1.856C10.0267 1.536 10.3787 1.23733 10.784 0.959999C11.2107 0.661332 11.6267 0.426666 12.032 0.256001C12.4373 0.0853335 12.7467 0 12.96 0C13.216 0 13.504 0.117333 13.824 0.351999C14.1653 0.586667 14.4853 0.896001 14.784 1.28C15.0827 1.64267 15.328 2.02667 15.52 2.432C15.7333 2.83733 15.84 3.21067 15.84 3.552C15.84 3.76533 15.7973 3.95733 15.712 4.128C15.6267 4.29867 15.488 4.43733 15.296 4.544Z" fill="#1A1A1A"/>
</svg>
