<svg width="19" height="31" viewBox="0 0 19 31" fill="none" xmlns="http://www.w3.org/2000/svg">
<path d="M0 30.048C0.0853333 29.2587 0.373333 28.6827 0.864 28.32C1.33333 27.9787 1.952 27.7547 2.72 27.648C3.488 27.5413 4.32 27.488 5.216 27.488C5.6 26.656 5.984 25.6427 6.368 24.448C6.752 23.232 7.11467 21.9307 7.456 20.544C7.81867 19.1573 8.17067 17.7493 8.512 16.32C8.85333 14.8693 9.17333 13.4827 9.472 12.16C9.77067 10.8373 10.048 9.65333 10.304 8.608C10.5813 7.54133 10.8267 6.69867 11.04 6.08C9.93067 6.10133 8.98133 6.13333 8.192 6.176C7.424 6.21867 6.69867 6.28267 6.016 6.368C5.35467 6.45333 4.62933 6.57067 3.84 6.72C3.98933 5.90933 4.576 5.30133 5.6 4.896C6.624 4.46933 8.21333 4.256 10.368 4.256C11.4347 4.256 12.512 4.29867 13.6 4.384C14.7093 4.46933 15.7227 4.56533 16.64 4.672C17.5573 4.75733 18.2613 4.84267 18.752 4.928C18.24 5.44 17.696 5.76 17.12 5.888C16.5653 5.99467 16.0747 6.048 15.648 6.048C14.9867 6.048 14.3573 6.048 13.76 6.048C13.184 6.048 12.6507 6.05867 12.16 6.08C12.0747 6.528 11.9467 7.232 11.776 8.192C11.6053 9.13067 11.4027 10.2187 11.168 11.456C10.9333 12.672 10.688 13.9413 10.432 15.264C10.176 16.5653 9.92 17.8133 9.664 19.008C9.42933 20.1813 9.20533 21.1947 8.992 22.048C8.65067 23.4133 8.26667 24.5653 7.84 25.504C7.41333 26.4427 6.90133 27.1147 6.304 27.52C7.41333 27.584 8.59733 27.6907 9.856 27.84C11.1147 28.0107 12.2453 28.1067 13.248 28.128C12.6293 28.7467 11.9787 29.1307 11.296 29.28C10.6347 29.4293 10.08 29.504 9.632 29.504C8.77867 29.504 7.936 29.504 7.104 29.504C6.29333 29.5253 5.48267 29.5467 4.672 29.568C3.88267 29.5893 3.09333 29.632 2.304 29.696C1.536 29.7813 0.768 29.8987 0 30.048ZM14.72 3.136C14.4 3.136 14.1227 3.06133 13.888 2.912C13.6533 2.76267 13.536 2.51733 13.536 2.176C13.536 1.77067 13.7707 1.41867 14.24 1.12C14.7093 0.821332 15.1787 0.671999 15.648 0.671999C15.9467 0.671999 16.1813 0.735999 16.352 0.863998C16.5227 0.991999 16.608 1.22667 16.608 1.568C16.608 1.93067 16.4053 2.28267 16 2.624C15.616 2.96533 15.1893 3.136 14.72 3.136ZM10.112 2.464C9.792 2.464 9.51467 2.38933 9.28 2.24C9.04533 2.09067 8.928 1.84533 8.928 1.504C8.928 1.09867 9.16267 0.746667 9.632 0.448C10.1013 0.149333 10.5707 0 11.04 0C11.3387 0 11.5733 0.0639998 11.744 0.191999C11.9147 0.319999 12 0.554666 12 0.896C12 1.25867 11.7973 1.61067 11.392 1.952C11.008 2.29333 10.5813 2.464 10.112 2.464Z" fill="#1A1A1A"/>
</svg>
