<svg width="18" height="26" viewBox="0 0 18 26" fill="none" xmlns="http://www.w3.org/2000/svg">
<path d="M3.456 25.728C2.96533 25.728 2.44267 25.632 1.888 25.44C1.35467 25.248 0.906667 24.8533 0.544 24.256C0.181333 23.6587 0 22.7627 0 21.568C0 20.736 0.096 19.9147 0.288 19.104C0.48 18.272 0.757333 17.5787 1.12 17.024C1.504 16.4693 1.94133 16.192 2.432 16.192C2.688 16.192 2.98667 16.2773 3.328 16.448C2.944 17.4293 2.656 18.3467 2.464 19.2C2.272 20.0533 2.176 20.8427 2.176 21.568C2.176 22.528 2.34667 23.2747 2.688 23.808C3.02933 24.3413 3.53067 24.608 4.192 24.608C4.74667 24.608 5.23733 24.3733 5.664 23.904C6.112 23.4347 6.57067 22.5493 7.04 21.248C7.38133 20.3093 7.73333 19.1787 8.096 17.856C8.48 16.512 8.85333 15.0827 9.216 13.568C9.6 12.032 9.96267 10.5173 10.304 9.024C10.6453 7.50933 10.9547 6.112 11.232 4.832C11.5093 3.552 11.7227 2.48533 11.872 1.632C10.8267 1.632 9.94133 1.65333 9.216 1.696C8.512 1.73867 7.872 1.80267 7.296 1.888C6.72 1.97333 6.09067 2.10133 5.408 2.272C5.51467 1.54667 5.97333 0.992 6.784 0.608C7.616 0.202667 8.896 0 10.624 0C11.4773 0 12.3413 0.0426668 13.216 0.128C14.0907 0.213334 14.8907 0.309334 15.616 0.416C16.3627 0.501334 16.928 0.586667 17.312 0.672001C17.0773 1.07733 16.6933 1.33333 16.16 1.44C15.6267 1.54667 15.1893 1.6 14.848 1.6C14.4213 1.6 14.016 1.61067 13.632 1.632C13.2693 1.632 12.9173 1.632 12.576 1.632C12.8107 1.80267 12.9813 2.03733 13.088 2.336C13.1947 2.63467 13.248 2.90133 13.248 3.136C13.248 3.41333 13.1733 4.032 13.024 4.992C12.8747 5.93067 12.6613 7.072 12.384 8.416C12.1067 9.76 11.776 11.1893 11.392 12.704C11.008 14.2187 10.592 15.7013 10.144 17.152C9.696 18.6027 9.216 19.8933 8.704 21.024C8.14933 22.304 7.584 23.2747 7.008 23.936C6.45333 24.6187 5.87733 25.088 5.28 25.344C4.704 25.6 4.096 25.728 3.456 25.728Z" fill="#1A1A1A"/>
</svg>
