<svg width="19" height="26" viewBox="0 0 19 26" fill="none" xmlns="http://www.w3.org/2000/svg">
<path d="M14.88 25.824C14.4107 25.824 13.8667 25.5467 13.248 24.992C12.6293 24.4373 11.968 23.7013 11.264 22.784C10.5813 21.8667 9.89867 20.8747 9.216 19.808C8.55467 18.72 7.936 17.6427 7.36 16.576C6.80533 15.5093 6.336 14.56 5.952 13.728L2.848 23.776C2.69867 24.2667 2.464 24.608 2.144 24.8C1.824 25.0133 1.472 25.1413 1.088 25.184C0.725333 25.2267 0.362667 25.248 0 25.248C0.277333 24.6507 0.554667 23.968 0.832 23.2C1.13067 22.432 1.472 21.504 1.856 20.416C2.26133 19.328 2.73067 18.0053 3.264 16.448C3.79733 14.8907 4.42667 13.0347 5.152 10.88C5.89867 8.704 6.77333 6.15467 7.776 3.232C7.84 3.06133 7.92533 2.82667 8.032 2.528C8.13867 2.208 8.192 1.92 8.192 1.664C8.192 1.42933 8.13867 1.248 8.032 1.12C7.92533 0.970666 7.72267 0.896 7.424 0.896C6.912 0.896 6.41067 1.10933 5.92 1.536C5.45067 1.94133 5.024 2.464 4.64 3.104C4.27733 3.744 3.98933 4.40533 3.776 5.088C3.56267 5.77067 3.456 6.37867 3.456 6.912C3.456 7.31733 3.50933 7.68 3.616 8C2.912 8 2.41067 7.82933 2.112 7.488C1.83467 7.12533 1.696 6.688 1.696 6.176C1.696 5.45067 1.90933 4.72533 2.336 4C2.76267 3.27467 3.30667 2.61333 3.968 2.016C4.65067 1.39733 5.35467 0.906666 6.08 0.544001C6.82667 0.181334 7.49867 0 8.096 0C8.672 0 9.056 0.16 9.248 0.48C9.46133 0.799999 9.568 1.152 9.568 1.536C9.568 1.77067 9.536 2.00533 9.472 2.24C9.42933 2.47467 9.376 2.69867 9.312 2.912L6.624 11.616C6.92267 11.1893 7.30667 10.7947 7.776 10.432C8.26667 10.0693 8.8 9.65333 9.376 9.184C10.336 8.416 11.36 7.52 12.448 6.496C13.5573 5.472 14.6133 4.39467 15.616 3.264C16.6187 2.13333 17.4507 1.04533 18.112 0C18.2187 0.128 18.2933 0.351999 18.336 0.671999C18.3787 0.992 18.4 1.23733 18.4 1.408C18.4 2.06933 18.1227 2.79467 17.568 3.584C17.0347 4.37333 16.3307 5.19467 15.456 6.048C14.5813 6.88 13.6213 7.712 12.576 8.544C11.5307 9.35467 10.496 10.1227 9.472 10.848C8.46933 11.5733 7.56267 12.2027 6.752 12.736C7.392 13.824 8.01067 14.8587 8.608 15.84C9.22667 16.8213 9.888 17.7813 10.592 18.72C11.3173 19.6587 12.16 20.6187 13.12 21.6C14.08 22.5813 15.2427 23.6373 16.608 24.768C16.4587 25.0453 16.224 25.2907 15.904 25.504C15.584 25.7173 15.2427 25.824 14.88 25.824Z" fill="#1A1A1A"/>
</svg>
