<svg width="20" height="26" viewBox="0 0 20 26" fill="none" xmlns="http://www.w3.org/2000/svg">
<path d="M0 25.824C0.256 24.8 0.576 23.6587 0.96 22.4C1.344 21.1413 1.80267 19.648 2.336 17.92C2.89067 16.1707 3.53067 14.1013 4.256 11.712C4.98133 9.32267 5.824 6.496 6.784 3.232C6.82667 3.12533 6.86933 2.944 6.912 2.688C6.976 2.41067 7.008 2.15467 7.008 1.92C7.008 1.70667 6.96533 1.536 6.88 1.408C6.816 1.25867 6.69867 1.184 6.528 1.184C6.016 1.184 5.52533 1.38667 5.056 1.792C4.608 2.176 4.21333 2.66667 3.872 3.264C3.552 3.86133 3.296 4.49067 3.104 5.152C2.912 5.792 2.816 6.368 2.816 6.88C2.816 7.30667 2.86933 7.68 2.976 8C2.272 8 1.77067 7.82933 1.472 7.488C1.19467 7.12533 1.056 6.688 1.056 6.176C1.056 5.45067 1.26933 4.72533 1.696 4C2.12267 3.27467 2.66667 2.61333 3.328 2.016C3.98933 1.39733 4.68267 0.906666 5.408 0.544001C6.15467 0.181334 6.83733 0 7.456 0C8.096 0 8.61867 0.277334 9.024 0.832001C9.45067 1.36533 9.792 2.112 10.048 3.072C10.304 4.01067 10.5173 5.07733 10.688 6.272C10.8587 7.46667 11.0187 8.704 11.168 9.984C11.296 11.0507 11.424 12.1173 11.552 13.184C11.68 14.2293 11.808 15.232 11.936 16.192C12.064 17.1307 12.1813 17.9947 12.288 18.784C12.3947 19.5733 12.4907 20.224 12.576 20.736C12.7253 19.7333 12.9387 18.6027 13.216 17.344C13.5147 16.064 13.8347 14.7413 14.176 13.376C14.5387 11.9893 14.912 10.6453 15.296 9.344C15.68 8.02133 16.032 6.816 16.352 5.728C16.6933 4.61867 16.9813 3.70133 17.216 2.976C17.472 2.22933 17.6427 1.76 17.728 1.568C17.8347 1.29067 18.08 0.96 18.464 0.576C18.848 0.192 19.2747 0 19.744 0C19.3813 0.981333 18.9653 2.18667 18.496 3.616C18.048 5.024 17.5893 6.56 17.12 8.224C16.6507 9.86667 16.192 11.552 15.744 13.28C15.296 14.9867 14.8907 16.64 14.528 18.24C14.1867 19.84 13.9093 21.3013 13.696 22.624C13.504 23.9253 13.3973 24.992 13.376 25.824C12.7147 25.824 12.1707 25.632 11.744 25.248C11.3387 24.864 11.0507 24.192 10.88 23.232C10.7733 22.6773 10.6347 21.92 10.464 20.96C10.3147 19.9787 10.144 18.8907 9.952 17.696C9.78133 16.5013 9.6 15.264 9.408 13.984C9.216 12.6827 9.024 11.4133 8.832 10.176C8.66133 8.93867 8.50133 7.808 8.352 6.784C8.20267 5.73867 8.07467 4.87467 7.968 4.192C6.944 7.88267 6.06933 11.008 5.344 13.568C4.61867 16.1067 4 18.1867 3.488 19.808C2.99733 21.408 2.56 22.6453 2.176 23.52C1.792 24.3947 1.42933 24.992 1.088 25.312C0.746667 25.6533 0.384 25.824 0 25.824Z" fill="#1A1A1A"/>
</svg>
