<svg width="20" height="32" viewBox="0 0 20 32" fill="none" xmlns="http://www.w3.org/2000/svg">
<path d="M6.144 31.136C4.928 31.136 3.86133 30.8053 2.944 30.144C2.02667 29.504 1.30133 28.5867 0.768 27.392C0.256 26.1973 0 24.8 0 23.2C0 21.5573 0.256 19.8933 0.768 18.208C1.30133 16.5227 2.016 14.912 2.912 13.376C3.808 11.84 4.82133 10.4747 5.952 9.28C7.08267 8.064 8.27733 7.104 9.536 6.4C10.7947 5.696 12.032 5.344 13.248 5.344C13.6533 5.344 14.016 5.376 14.336 5.44C14.656 5.504 14.9333 5.6 15.168 5.728C14.9973 5.728 14.8907 5.728 14.848 5.728C14.8267 5.728 14.8053 5.728 14.784 5.728C13.6747 5.728 12.5547 6.10133 11.424 6.848C10.2933 7.57333 9.216 8.56533 8.192 9.824C7.168 11.0613 6.25067 12.4587 5.44 14.016C4.62933 15.552 3.98933 17.152 3.52 18.816C3.05067 20.48 2.816 22.0907 2.816 23.648C2.816 24.7787 2.95467 25.8347 3.232 26.816C3.53067 27.7973 4 28.576 4.64 29.152C5.28 29.7493 6.10133 30.048 7.104 30.048C8.29867 30.048 9.41867 29.6747 10.464 28.928C11.5093 28.2027 12.448 27.2107 13.28 25.952C14.1333 24.6933 14.8587 23.296 15.456 21.76C16.0747 20.2027 16.544 18.6027 16.864 16.96C17.2053 15.296 17.376 13.7067 17.376 12.192C17.376 11.5947 17.3333 10.9547 17.248 10.272C17.1627 9.58933 17.0133 9.00267 16.8 8.512C16.5867 8.02133 16.2987 7.776 15.936 7.776C15.552 7.776 15.136 8.02133 14.688 8.512C14.24 8.98133 13.8027 9.57867 13.376 10.304C12.9707 11.0293 12.608 11.7867 12.288 12.576C11.968 13.344 11.744 14.0267 11.616 14.624C11.0827 14.496 10.688 14.2933 10.432 14.016C10.1973 13.7173 10.08 13.3973 10.08 13.056C10.08 12.48 10.272 11.8507 10.656 11.168C11.0613 10.464 11.5627 9.792 12.16 9.152C12.7787 8.49067 13.4187 7.95733 14.08 7.552C14.7413 7.12533 15.3387 6.912 15.872 6.912C16.4267 6.912 16.8747 7.11467 17.216 7.52C17.5787 7.92533 17.856 8.448 18.048 9.088C18.2613 9.70667 18.4 10.3787 18.464 11.104C18.5493 11.808 18.592 12.4693 18.592 13.088C18.592 15.4133 18.3253 17.536 17.792 19.456C17.28 21.3547 16.576 23.0293 15.68 24.48C14.8053 25.9307 13.824 27.1573 12.736 28.16C11.648 29.1413 10.528 29.8773 9.376 30.368C8.24533 30.88 7.168 31.136 6.144 31.136ZM18.72 4.544C18.4213 3.92533 18.08 3.40267 17.696 2.976C17.312 2.528 16.864 2.06933 16.352 1.6C15.6907 1.83467 15.0933 2.09067 14.56 2.368C14.048 2.64533 13.5467 2.99733 13.056 3.424C12.928 3.33867 12.8427 3.24267 12.8 3.136C12.7573 3.008 12.736 2.90133 12.736 2.816C12.736 2.496 12.8747 2.176 13.152 1.856C13.4507 1.536 13.8027 1.23733 14.208 0.959999C14.6347 0.661332 15.0507 0.426666 15.456 0.256001C15.8613 0.0853335 16.1707 0 16.384 0C16.64 0 16.928 0.117333 17.248 0.351999C17.5893 0.586667 17.9093 0.896001 18.208 1.28C18.5067 1.64267 18.752 2.02667 18.944 2.432C19.1573 2.83733 19.264 3.21067 19.264 3.552C19.264 3.76533 19.2213 3.95733 19.136 4.128C19.0507 4.29867 18.912 4.43733 18.72 4.544Z" fill="#1A1A1A"/>
</svg>
