<svg width="26" height="26" viewBox="0 0 26 26" fill="none" xmlns="http://www.w3.org/2000/svg">
<path d="M12.416 25.824C11.5413 25.824 10.6347 25.8133 9.696 25.792C8.75733 25.792 7.81867 25.792 6.88 25.792C5.536 25.792 4.34133 25.504 3.296 24.928C2.272 24.3733 1.46133 23.5093 0.864 22.336C0.288 21.1627 0 19.6693 0 17.856C0 16.2133 0.256 14.5493 0.768 12.864C1.30133 11.1787 2.016 9.568 2.912 8.032C3.808 6.496 4.82133 5.13067 5.952 3.936C7.08267 2.72 8.27733 1.76 9.536 1.056C10.7947 0.352 12.032 0 13.248 0C13.6533 0 14.016 0.0320002 14.336 0.0960007C14.656 0.16 14.9333 0.256 15.168 0.384001C13.9733 0.384001 12.7787 0.757334 11.584 1.504C10.3893 2.22933 9.26933 3.21067 8.224 4.448C7.17867 5.68533 6.25067 7.08267 5.44 8.64C4.62933 10.1973 3.98933 11.808 3.52 13.472C3.05067 15.136 2.816 16.7467 2.816 18.304C2.816 19.4347 2.95467 20.4907 3.232 21.472C3.53067 22.4533 4 23.232 4.64 23.808C5.28 24.4053 6.10133 24.704 7.104 24.704C8.128 24.704 9.09867 24.3307 10.016 23.584C10.9547 22.8587 11.808 21.8667 12.576 20.608C13.3653 19.3493 14.0373 17.952 14.592 16.416C15.168 14.8587 15.6053 13.2587 15.904 11.616C16.224 9.952 16.384 8.36267 16.384 6.848C16.384 5.376 16.2987 4.33067 16.128 3.712C15.9573 3.09333 15.7227 2.784 15.424 2.784C15.104 2.784 14.72 3.11467 14.272 3.776C13.8453 4.416 13.3973 5.23733 12.928 6.24C12.48 7.22133 12.0427 8.23467 11.616 9.28C11.0827 9.152 10.688 8.94933 10.432 8.672C10.1973 8.37333 10.08 8.05333 10.08 7.712C10.08 7.136 10.272 6.50667 10.656 5.824C11.0613 5.12 11.5733 4.448 12.192 3.808C12.8107 3.168 13.4507 2.63467 14.112 2.208C14.7947 1.78133 15.4027 1.568 15.936 1.568C16.4693 1.54667 17.0453 1.52533 17.664 1.504C18.304 1.46133 18.944 1.44 19.584 1.44C20.8427 1.44 22.048 1.48267 23.2 1.568C24.352 1.65333 25.216 1.792 25.792 1.984C25.6853 2.304 25.3547 2.54933 24.8 2.72C24.2667 2.86933 23.6053 2.976 22.816 3.04C22.048 3.104 21.2267 3.136 20.352 3.136C19.84 3.136 19.392 3.12533 19.008 3.104C18.624 3.06133 18.2187 3.04 17.792 3.04C17.856 3.232 17.9307 3.584 18.016 4.096C18.1013 4.608 18.144 5.088 18.144 5.536C18.144 6.19733 18.1227 6.912 18.08 7.68C18.0373 8.448 17.984 9.16267 17.92 9.824C17.856 10.4853 17.792 10.9867 17.728 11.328C19.0293 11.328 20.2453 11.36 21.376 11.424C22.528 11.4667 23.4773 11.5413 24.224 11.648C24.0533 12.1173 23.5947 12.5013 22.848 12.8C22.1013 13.0773 21.0773 13.216 19.776 13.216C19.2 13.216 18.7307 13.216 18.368 13.216C18.0267 13.1947 17.7067 13.1733 17.408 13.152C17.0027 14.9653 16.5973 16.5973 16.192 18.048C15.7867 19.4987 15.2747 20.7573 14.656 21.824C14.0373 22.8693 13.2053 23.712 12.16 24.352C12.992 24.3733 13.8347 24.384 14.688 24.384C15.5413 24.4053 16.48 24.416 17.504 24.416C17.7813 24.416 18.1547 24.4053 18.624 24.384C19.0933 24.3627 19.5733 24.3413 20.064 24.32C20.5547 24.2987 20.9707 24.288 21.312 24.288C21.4613 24.288 21.5893 24.288 21.696 24.288C21.8027 24.288 21.888 24.2987 21.952 24.32C21.8453 24.5973 21.4827 24.832 20.864 25.024C20.2453 25.216 19.4667 25.3653 18.528 25.472C17.5893 25.6 16.5867 25.6853 15.52 25.728C14.4533 25.792 13.4187 25.824 12.416 25.824Z" fill="#1A1A1A"/>
</svg>
