<svg width="19" height="26" viewBox="0 0 19 26" fill="none" xmlns="http://www.w3.org/2000/svg">
<path d="M2.208 25.824C1.67467 25.824 1.17333 25.6747 0.704 25.376C0.234667 25.0773 0 24.6933 0 24.224C0 23.9893 0.0533333 23.7013 0.16 23.36C0.266667 23.04 0.362667 22.7413 0.448 22.464C1.13067 20.3733 1.77067 18.4213 2.368 16.608C2.96533 14.7947 3.56267 13.0347 4.16 11.328C4.75733 9.62133 5.38667 7.91467 6.048 6.208C6.73067 4.50133 7.488 2.72 8.32 0.864C7.50933 1.01333 6.784 1.23733 6.144 1.536C5.52533 1.81333 5.024 2.06933 4.64 2.304C4.256 2.51733 4 2.624 3.872 2.624C3.78667 2.624 3.65867 2.58133 3.488 2.496C3.33867 2.38933 3.2 2.272 3.072 2.144C2.944 1.99467 2.88 1.86667 2.88 1.76C3.43467 1.52533 4.08533 1.26933 4.832 0.992001C5.6 0.714667 6.42133 0.48 7.296 0.288C8.17067 0.096 9.056 0 9.952 0C10.8907 0 11.84 0.128 12.8 0.384001C13.7813 0.64 14.6773 1.03467 15.488 1.568C16.2987 2.08 16.9493 2.72 17.44 3.488C17.9307 4.256 18.176 5.152 18.176 6.176C18.176 7.28533 17.9307 8.24533 17.44 9.056C16.9493 9.84533 16.2987 10.5173 15.488 11.072C14.6773 11.6053 13.8027 12.0427 12.864 12.384C11.9253 12.704 10.9867 12.96 10.048 13.152C9.13067 13.3227 8.30933 13.44 7.584 13.504C6.85867 13.5467 6.32533 13.568 5.984 13.568H5.664C5.024 15.7653 4.40533 17.9307 3.808 20.064C3.232 22.1973 2.69867 24.1173 2.208 25.824ZM5.792 13.056C6.96533 12.992 8.14933 12.8 9.344 12.48C10.56 12.16 11.6693 11.7013 12.672 11.104C13.6747 10.4853 14.4853 9.728 15.104 8.832C15.7227 7.91467 16.032 6.848 16.032 5.632C16.032 4.48 15.7547 3.54133 15.2 2.816C14.6667 2.09067 13.952 1.55733 13.056 1.216C12.1813 0.853333 11.2427 0.671999 10.24 0.671999C9.45067 2.22933 8.68267 4.096 7.936 6.272C7.18933 8.448 6.47467 10.7093 5.792 13.056Z" fill="#1A1A1A"/>
</svg>
