<svg width="20" height="27" viewBox="0 0 20 27" fill="none" xmlns="http://www.w3.org/2000/svg">
<path d="M15.392 26.848C14.4107 26.848 13.504 26.5707 12.672 26.016C11.84 25.4827 11.04 24.8853 10.272 24.224C9.76 24.48 9.23733 24.6827 8.704 24.832C8.17067 24.9813 7.62667 25.056 7.072 25.056C6.34667 25.056 5.74933 24.9387 5.28 24.704C4.81067 24.4907 4.448 24.224 4.192 23.904C3.95733 23.584 3.78667 23.2747 3.68 22.976C3.59467 22.656 3.552 22.4107 3.552 22.24C3.552 21.8773 3.72267 21.5147 4.064 21.152C4.42667 20.768 5.03467 20.576 5.888 20.576C6.76267 20.576 7.616 20.7893 8.448 21.216C9.28 21.6213 10.1227 22.0907 10.976 22.624C11.936 21.7707 12.7787 20.6827 13.504 19.36C14.2507 18.0373 14.8693 16.6187 15.36 15.104C15.872 13.5893 16.256 12.1067 16.512 10.656C16.7893 9.184 16.928 7.88267 16.928 6.752C16.928 5.00267 16.5973 3.584 15.936 2.496C15.2747 1.408 14.1973 0.864 12.704 0.864C11.4667 0.864 10.3147 1.23733 9.248 1.984C8.18133 2.70933 7.21067 3.69067 6.336 4.928C5.48267 6.16533 4.74667 7.552 4.128 9.088C3.50933 10.6027 3.02933 12.1707 2.688 13.792C2.368 15.4133 2.208 16.96 2.208 18.432C2.208 18.88 2.22933 19.328 2.272 19.776C2.31467 20.224 2.37867 20.672 2.464 21.12C1.80267 21.12 1.29067 20.9067 0.928 20.48C0.586667 20.0533 0.341333 19.5093 0.192 18.848C0.064 18.1653 0 17.44 0 16.672C0 15.072 0.213333 13.4827 0.64 11.904C1.06667 10.304 1.664 8.78933 2.432 7.36C3.22133 5.93067 4.13867 4.672 5.184 3.584C6.25067 2.47467 7.41333 1.6 8.672 0.959999C9.952 0.32 11.2853 0 12.672 0C14.72 0 16.3093 0.704 17.44 2.112C18.592 3.49867 19.168 5.38667 19.168 7.776C19.168 9.12 18.9867 10.528 18.624 12C18.2613 13.4507 17.7493 14.88 17.088 16.288C16.448 17.6747 15.6907 18.9653 14.816 20.16C13.9413 21.3547 12.9813 22.3573 11.936 23.168C12.6613 23.5733 13.408 23.9147 14.176 24.192C14.9653 24.4907 15.7973 24.64 16.672 24.64C17.1413 24.64 17.4827 24.5973 17.696 24.512C17.9307 24.4267 18.208 24.3413 18.528 24.256C18.3147 25.0027 18.016 25.5573 17.632 25.92C17.2693 26.304 16.8853 26.5493 16.48 26.656C16.096 26.784 15.7333 26.848 15.392 26.848ZM7.072 24.256C7.52 24.256 7.94667 24.192 8.352 24.064C8.77867 23.9573 9.184 23.7973 9.568 23.584C8.90667 23.008 8.24533 22.5067 7.584 22.08C6.944 21.632 6.272 21.408 5.568 21.408C5.07733 21.408 4.75733 21.5147 4.608 21.728C4.45867 21.92 4.384 22.1013 4.384 22.272C4.384 22.464 4.45867 22.72 4.608 23.04C4.75733 23.3387 5.024 23.616 5.408 23.872C5.792 24.128 6.34667 24.256 7.072 24.256Z" fill="#1A1A1A"/>
</svg>
