<svg width="19" height="26" viewBox="0 0 19 26" fill="none" xmlns="http://www.w3.org/2000/svg">
<path d="M3.776 25.824C2.816 25.824 2.15467 25.6107 1.792 25.184C1.42933 24.7573 1.248 24.2133 1.248 23.552C1.248 22.9333 1.376 22.1973 1.632 21.344C1.888 20.4907 2.15467 19.6693 2.432 18.88C2.79467 17.8347 3.232 16.608 3.744 15.2C4.256 13.792 4.8 12.32 5.376 10.784C5.97333 9.248 6.57067 7.73333 7.168 6.24C7.78667 4.74667 8.384 3.392 8.96 2.176C7.488 2.19733 6.25067 2.22933 5.248 2.272C4.26667 2.31467 3.38133 2.37867 2.592 2.464C1.80267 2.528 0.938667 2.64533 0 2.816C0.064 2.09067 0.437333 1.52533 1.12 1.12C1.80267 0.714666 2.72 0.426666 3.872 0.256001C5.024 0.0853335 6.336 0 7.808 0C9.28 0 10.592 0.0639998 11.744 0.191999C12.9173 0.298666 14.016 0.405333 15.04 0.511999C16.064 0.618666 17.088 0.682666 18.112 0.704C17.3867 1.36533 16.5547 1.78133 15.616 1.952C14.6773 2.12267 13.6853 2.208 12.64 2.208C12.4053 2.208 12.16 2.208 11.904 2.208C11.648 2.18667 11.392 2.176 11.136 2.176C10.88 2.176 10.624 2.176 10.368 2.176C9.68533 3.88267 8.896 6.03733 8 8.64C7.12533 11.2427 6.24 14.176 5.344 17.44C5.04533 18.5707 4.768 19.584 4.512 20.48C4.27733 21.376 4.08533 22.1973 3.936 22.944C3.808 23.6907 3.744 24.416 3.744 25.12C3.744 25.2267 3.744 25.344 3.744 25.472C3.744 25.6 3.75467 25.7173 3.776 25.824Z" fill="#1A1A1A"/>
</svg>
