<svg width="22" height="32" viewBox="0 0 22 32" fill="none" xmlns="http://www.w3.org/2000/svg">
<path d="M16.512 31.52C15.7227 31.52 15.0933 31.1787 14.624 30.496C14.1547 29.8347 13.92 29.0453 13.92 28.128C13.92 27.8293 13.9413 27.4347 13.984 26.944C14.048 26.432 14.1227 25.856 14.208 25.216C13.4187 26.9653 12.4587 28.384 11.328 29.472C10.1973 30.5813 8.85333 31.136 7.296 31.136C5.93067 31.136 4.896 30.72 4.192 29.888C3.488 29.056 3.136 28.0213 3.136 26.784C3.136 25.952 3.264 24.9707 3.52 23.84C3.79733 22.688 4.13867 21.4613 4.544 20.16C4.94933 18.8373 5.344 17.504 5.728 16.16C6.13333 14.816 6.464 13.536 6.72 12.32C6.99733 11.0827 7.136 9.984 7.136 9.024C7.136 7.14667 6.53867 6.208 5.344 6.208C4.768 6.208 4.26667 6.4 3.84 6.784C3.41333 7.14667 3.06133 7.616 2.784 8.192C2.50667 8.768 2.29333 9.376 2.144 10.016C2.016 10.656 1.952 11.232 1.952 11.744C1.952 12.0427 1.97333 12.3307 2.016 12.608C2.05867 12.8853 2.12267 13.12 2.208 13.312C1.39733 13.312 0.821333 13.0987 0.48 12.672C0.16 12.224 0 11.7013 0 11.104C0 10.4427 0.16 9.77067 0.48 9.088C0.8 8.40533 1.23733 7.78667 1.792 7.232C2.368 6.656 3.01867 6.19733 3.744 5.856C4.49067 5.49333 5.28 5.312 6.112 5.312C7.28533 5.312 8.128 5.664 8.64 6.368C9.152 7.072 9.408 8.01067 9.408 9.184C9.408 9.97333 9.312 10.848 9.12 11.808C8.928 12.7467 8.68267 13.7387 8.384 14.784C8.08533 15.808 7.76533 16.8427 7.424 17.888C6.93333 19.4453 6.48533 20.96 6.08 22.432C5.67467 23.8827 5.472 25.1627 5.472 26.272C5.472 27.2533 5.67467 28.096 6.08 28.8C6.50667 29.504 7.2 29.856 8.16 29.856C9.03467 29.856 9.83467 29.568 10.56 28.992C11.2853 28.4373 11.9253 27.712 12.48 26.816C13.0347 25.92 13.504 24.9707 13.888 23.968C14.272 22.9653 14.5707 22.0373 14.784 21.184C15.0827 19.904 15.4133 18.5493 15.776 17.12C16.1387 15.6693 16.512 14.2507 16.896 12.864C17.3013 11.456 17.696 10.1867 18.08 9.056C18.4853 7.92533 18.88 7.01867 19.264 6.336C19.648 5.65333 20.0107 5.312 20.352 5.312C20.5227 5.312 20.7573 5.408 21.056 5.6C21.3547 5.77067 21.6533 6.016 21.952 6.336C21.7813 6.464 21.5147 6.92267 21.152 7.712C20.7893 8.48 20.384 9.472 19.936 10.688C19.488 11.904 19.04 13.248 18.592 14.72C18.144 16.1707 17.728 17.6533 17.344 19.168C16.96 20.6613 16.6507 22.0907 16.416 23.456C16.1813 24.8213 16.064 26.0053 16.064 27.008C16.064 28.48 16.256 29.472 16.64 29.984C17.0453 30.496 17.7067 30.752 18.624 30.752C18.2187 31.0293 17.8347 31.2213 17.472 31.328C17.1307 31.456 16.8107 31.52 16.512 31.52ZM17.472 4.544C17.1733 3.92533 16.832 3.40267 16.448 2.976C16.064 2.528 15.616 2.06933 15.104 1.6C14.4427 1.83467 13.8453 2.09067 13.312 2.368C12.8 2.64533 12.2987 2.99733 11.808 3.424C11.68 3.33867 11.5947 3.24267 11.552 3.136C11.5093 3.008 11.488 2.90133 11.488 2.816C11.488 2.496 11.6267 2.176 11.904 1.856C12.2027 1.536 12.5547 1.23733 12.96 0.959999C13.3867 0.661332 13.8027 0.426666 14.208 0.256001C14.6133 0.0853335 14.9227 0 15.136 0C15.392 0 15.68 0.117333 16 0.351999C16.3413 0.586667 16.6613 0.896001 16.96 1.28C17.2587 1.64267 17.504 2.02667 17.696 2.432C17.9093 2.83733 18.016 3.21067 18.016 3.552C18.016 3.76533 17.9733 3.95733 17.888 4.128C17.8027 4.29867 17.664 4.43733 17.472 4.544Z" fill="#1A1A1A"/>
</svg>
