<svg width="22" height="31" viewBox="0 0 22 31" fill="none" xmlns="http://www.w3.org/2000/svg">
<path d="M16.512 30.4C15.7227 30.4 15.0933 30.0587 14.624 29.376C14.1547 28.7147 13.92 27.9253 13.92 27.008C13.92 26.7093 13.9413 26.3147 13.984 25.824C14.048 25.312 14.1227 24.736 14.208 24.096C13.4187 25.8453 12.4587 27.264 11.328 28.352C10.1973 29.4613 8.85333 30.016 7.296 30.016C5.93067 30.016 4.896 29.6 4.192 28.768C3.488 27.936 3.136 26.9013 3.136 25.664C3.136 24.832 3.264 23.8507 3.52 22.72C3.79733 21.568 4.13867 20.3413 4.544 19.04C4.94933 17.7173 5.344 16.384 5.728 15.04C6.13333 13.696 6.464 12.416 6.72 11.2C6.99733 9.96267 7.136 8.864 7.136 7.904C7.136 6.02667 6.53867 5.088 5.344 5.088C4.768 5.088 4.26667 5.28 3.84 5.664C3.41333 6.02667 3.06133 6.496 2.784 7.072C2.50667 7.648 2.29333 8.256 2.144 8.896C2.016 9.536 1.952 10.112 1.952 10.624C1.952 10.9227 1.97333 11.2107 2.016 11.488C2.05867 11.7653 2.12267 12 2.208 12.192C1.39733 12.192 0.821333 11.9787 0.48 11.552C0.16 11.104 0 10.5813 0 9.984C0 9.32267 0.16 8.65067 0.48 7.968C0.8 7.28533 1.23733 6.66667 1.792 6.112C2.368 5.536 3.01867 5.07733 3.744 4.736C4.49067 4.37333 5.28 4.192 6.112 4.192C7.28533 4.192 8.128 4.544 8.64 5.248C9.152 5.952 9.408 6.89067 9.408 8.064C9.408 8.85333 9.312 9.728 9.12 10.688C8.928 11.6267 8.68267 12.6187 8.384 13.664C8.08533 14.688 7.76533 15.7227 7.424 16.768C6.93333 18.3253 6.48533 19.84 6.08 21.312C5.67467 22.7627 5.472 24.0427 5.472 25.152C5.472 26.1333 5.67467 26.976 6.08 27.68C6.50667 28.384 7.2 28.736 8.16 28.736C9.03467 28.736 9.83467 28.448 10.56 27.872C11.2853 27.3173 11.9253 26.592 12.48 25.696C13.0347 24.8 13.504 23.8507 13.888 22.848C14.272 21.8453 14.5707 20.9173 14.784 20.064C15.0827 18.784 15.4133 17.4293 15.776 16C16.1387 14.5493 16.512 13.1307 16.896 11.744C17.3013 10.336 17.696 9.06667 18.08 7.936C18.4853 6.80533 18.88 5.89867 19.264 5.216C19.648 4.53333 20.0107 4.192 20.352 4.192C20.5227 4.192 20.7573 4.288 21.056 4.48C21.3547 4.65067 21.6533 4.896 21.952 5.216C21.7813 5.344 21.5147 5.80267 21.152 6.592C20.7893 7.36 20.384 8.352 19.936 9.568C19.488 10.784 19.04 12.128 18.592 13.6C18.144 15.0507 17.728 16.5333 17.344 18.048C16.96 19.5413 16.6507 20.9707 16.416 22.336C16.1813 23.7013 16.064 24.8853 16.064 25.888C16.064 27.36 16.256 28.352 16.64 28.864C17.0453 29.376 17.7067 29.632 18.624 29.632C18.2187 29.9093 17.8347 30.1013 17.472 30.208C17.1307 30.336 16.8107 30.4 16.512 30.4ZM16.896 3.136C16.576 3.136 16.2987 3.06133 16.064 2.912C15.8293 2.76267 15.712 2.51733 15.712 2.176C15.712 1.77067 15.9467 1.41867 16.416 1.12C16.8853 0.821332 17.3547 0.671999 17.824 0.671999C18.1227 0.671999 18.3573 0.735999 18.528 0.863998C18.6987 0.991999 18.784 1.22667 18.784 1.568C18.784 1.93067 18.5813 2.28267 18.176 2.624C17.792 2.96533 17.3653 3.136 16.896 3.136ZM12.288 2.464C11.968 2.464 11.6907 2.38933 11.456 2.24C11.2213 2.09067 11.104 1.84533 11.104 1.504C11.104 1.09867 11.3387 0.746667 11.808 0.448C12.2773 0.149333 12.7467 0 13.216 0C13.5147 0 13.7493 0.0639998 13.92 0.191999C14.0907 0.319999 14.176 0.554666 14.176 0.896C14.176 1.25867 13.9733 1.61067 13.568 1.952C13.184 2.29333 12.7573 2.464 12.288 2.464Z" fill="#1A1A1A"/>
</svg>
