<svg width="20" height="26" viewBox="0 0 20 26" fill="none" xmlns="http://www.w3.org/2000/svg">
<path d="M5.92 25.824C5.62133 25.824 5.248 25.7493 4.8 25.6C4.37333 25.472 3.98933 25.2267 3.648 24.864C3.328 24.5013 3.168 23.968 3.168 23.264C3.168 22.6453 3.296 21.8347 3.552 20.832C3.82933 19.8293 4.17067 18.7093 4.576 17.472C4.98133 16.2133 5.38667 14.9013 5.792 13.536C6.19733 12.1493 6.528 10.7627 6.784 9.376C7.06133 7.98933 7.2 6.656 7.2 5.376C7.2 4.58667 7.168 3.85067 7.104 3.168C7.06133 2.48533 6.90133 1.94133 6.624 1.536C6.368 1.10933 5.92 0.896 5.28 0.896C4.68267 0.896 4.17067 1.07733 3.744 1.44C3.33867 1.78133 2.99733 2.22933 2.72 2.784C2.464 3.33867 2.272 3.92533 2.144 4.544C2.03733 5.16267 1.984 5.73867 1.984 6.272C1.984 6.61333 2.00533 6.93333 2.048 7.232C2.112 7.50933 2.18667 7.76533 2.272 8C1.44 8 0.853333 7.776 0.512 7.328C0.170667 6.85867 0 6.31467 0 5.696C0 5.03467 0.149333 4.37333 0.448 3.712C0.768 3.05067 1.19467 2.44267 1.728 1.888C2.28267 1.312 2.912 0.853333 3.616 0.511999C4.32 0.170666 5.06667 0 5.856 0C7.17867 0 8.16 0.522667 8.8 1.568C9.46133 2.592 9.792 3.968 9.792 5.696C9.792 6.93333 9.65333 8.23467 9.376 9.6C9.09867 10.944 8.75733 12.288 8.352 13.632C7.94667 14.976 7.53067 16.2667 7.104 17.504C6.69867 18.7413 6.35733 19.8827 6.08 20.928C5.80267 21.9733 5.664 22.8587 5.664 23.584C5.664 23.9467 5.71733 24.2453 5.824 24.48C5.952 24.7147 6.19733 24.832 6.56 24.832C7.15733 24.832 7.85067 24.5227 8.64 23.904C9.42933 23.3067 10.24 22.4853 11.072 21.44C11.9253 20.3733 12.7467 19.1787 13.536 17.856C14.3467 16.5333 15.072 15.1573 15.712 13.728C16.352 12.2773 16.864 10.8587 17.248 9.472C17.632 8.08533 17.824 6.80533 17.824 5.632C17.824 4.56533 17.664 3.78667 17.344 3.296C17.024 2.784 16.5973 2.45333 16.064 2.304C16.3627 1.792 16.672 1.41867 16.992 1.184C17.3333 0.949334 17.6427 0.832001 17.92 0.832001C18.368 0.832001 18.8053 1.12 19.232 1.696C19.6587 2.272 19.872 3.168 19.872 4.384C19.872 5.55733 19.648 6.89067 19.2 8.384C18.7733 9.87733 18.1867 11.4347 17.44 13.056C16.6933 14.656 15.84 16.2133 14.88 17.728C13.92 19.2427 12.9173 20.608 11.872 21.824C10.8267 23.04 9.792 24.0107 8.768 24.736C7.744 25.4613 6.79467 25.824 5.92 25.824Z" fill="#1A1A1A"/>
</svg>
