<svg width="29" height="26" viewBox="0 0 29 26" fill="none" xmlns="http://www.w3.org/2000/svg">
<path d="M5.92 25.824C5.68533 25.824 5.408 25.7813 5.088 25.696C4.78933 25.632 4.49067 25.504 4.192 25.312C3.89333 25.1413 3.648 24.8853 3.456 24.544C3.264 24.224 3.168 23.7973 3.168 23.264C3.168 22.5173 3.34933 21.536 3.712 20.32C4.07467 19.0827 4.49067 17.7173 4.96 16.224C5.32267 15.072 5.67467 13.8773 6.016 12.64C6.35733 11.4027 6.63467 10.1653 6.848 8.928C7.08267 7.69067 7.2 6.50667 7.2 5.376C7.2 4.58667 7.168 3.85067 7.104 3.168C7.06133 2.48533 6.90133 1.94133 6.624 1.536C6.368 1.10933 5.92 0.896 5.28 0.896C4.68267 0.896 4.17067 1.07733 3.744 1.44C3.33867 1.78133 2.99733 2.22933 2.72 2.784C2.464 3.33867 2.272 3.92533 2.144 4.544C2.03733 5.16267 1.984 5.73867 1.984 6.272C1.984 6.976 2.08 7.552 2.272 8C1.44 8 0.853333 7.776 0.512 7.328C0.170667 6.85867 0 6.31467 0 5.696C0 5.03467 0.149333 4.37333 0.448 3.712C0.768 3.05067 1.19467 2.44267 1.728 1.888C2.28267 1.312 2.912 0.853333 3.616 0.511999C4.32 0.170666 5.06667 0 5.856 0C7.17867 0 8.16 0.522667 8.8 1.568C9.46133 2.592 9.792 3.968 9.792 5.696C9.792 7.25333 9.568 8.90667 9.12 10.656C8.69333 12.384 8.21333 14.0693 7.68 15.712C7.33867 16.7787 7.008 17.8027 6.688 18.784C6.38933 19.744 6.144 20.6293 5.952 21.44C5.76 22.2507 5.664 22.9653 5.664 23.584C5.664 23.9893 5.728 24.2987 5.856 24.512C5.984 24.7253 6.24 24.832 6.624 24.832C7.15733 24.832 7.744 24.576 8.384 24.064C9.04533 23.5733 9.70667 22.9013 10.368 22.048C11.0507 21.1947 11.7013 20.256 12.32 19.232C12.96 18.1867 13.536 17.12 14.048 16.032C14.5813 14.944 15.0187 13.9093 15.36 12.928C15.7227 11.9467 15.9467 11.104 16.032 10.4C16.736 10.4 17.2267 10.5813 17.504 10.944C17.8027 11.3067 17.952 11.648 17.952 11.968C17.952 12.3093 17.8133 12.832 17.536 13.536C17.2587 14.24 16.928 15.0293 16.544 15.904C16.224 16.672 15.8933 17.4933 15.552 18.368C15.232 19.2427 14.9547 20.1173 14.72 20.992C14.5067 21.8667 14.4 22.6987 14.4 23.488C14.4 23.8933 14.4533 24.2133 14.56 24.448C14.6667 24.704 14.912 24.832 15.296 24.832C15.8933 24.832 16.5867 24.5227 17.376 23.904C18.1653 23.3067 18.976 22.4853 19.808 21.44C20.6613 20.3733 21.4827 19.1787 22.272 17.856C23.0827 16.5333 23.808 15.1573 24.448 13.728C25.088 12.2773 25.6 10.8587 25.984 9.472C26.368 8.08533 26.56 6.80533 26.56 5.632C26.56 4.56533 26.4 3.78667 26.08 3.296C25.76 2.784 25.3333 2.45333 24.8 2.304C25.0987 1.792 25.408 1.41867 25.728 1.184C26.0693 0.949334 26.3787 0.832001 26.656 0.832001C27.104 0.832001 27.5413 1.12 27.968 1.696C28.3947 2.272 28.608 3.168 28.608 4.384C28.608 5.55733 28.384 6.89067 27.936 8.384C27.5093 9.87733 26.9227 11.4347 26.176 13.056C25.4293 14.656 24.576 16.2133 23.616 17.728C22.656 19.2427 21.6533 20.608 20.608 21.824C19.5627 23.04 18.528 24.0107 17.504 24.736C16.48 25.4613 15.5307 25.824 14.656 25.824C14.2507 25.824 13.8347 25.7387 13.408 25.568C12.9813 25.3973 12.6187 25.1307 12.32 24.768C12.0427 24.4267 11.904 23.9787 11.904 23.424C11.904 23.104 11.9573 22.6987 12.064 22.208C12.192 21.696 12.352 21.1413 12.544 20.544C11.456 22.08 10.336 23.3387 9.184 24.32C8.05333 25.3227 6.96533 25.824 5.92 25.824Z" fill="#1A1A1A"/>
</svg>
