<svg width="21" height="27" viewBox="0 0 21 27" fill="none" xmlns="http://www.w3.org/2000/svg">
<path d="M0 26.688C0.064 26.2187 0.149333 25.8347 0.256 25.536C0.384 25.2373 0.554667 24.9493 0.768 24.672C0.981333 24.416 1.248 24.1173 1.568 23.776C2.25067 23.0293 2.912 22.2933 3.552 21.568C4.192 20.8427 4.81067 20.128 5.408 19.424C6.02667 18.6987 6.61333 17.9947 7.168 17.312C7.744 16.608 8.29867 15.9147 8.832 15.232C8.78933 14.528 8.74667 13.9307 8.704 13.44C8.68267 12.928 8.65067 12.4373 8.608 11.968C8.58667 11.4987 8.56533 10.9653 8.544 10.368C8.544 9.77067 8.53333 9.024 8.512 8.128C8.49067 6.48533 8.448 5.14133 8.384 4.096C8.32 3.02933 8.16 2.24 7.904 1.728C7.648 1.216 7.22133 0.960001 6.624 0.960001C6.09067 0.960001 5.61067 1.14133 5.184 1.504C4.77867 1.86667 4.43733 2.336 4.16 2.912C3.88267 3.46667 3.66933 4.064 3.52 4.704C3.37067 5.344 3.296 5.94133 3.296 6.496C3.296 7.136 3.38133 7.65867 3.552 8.064C2.74133 8.064 2.16533 7.85067 1.824 7.424C1.504 6.976 1.344 6.45333 1.344 5.856C1.344 5.19467 1.504 4.52267 1.824 3.84C2.144 3.15733 2.58133 2.53867 3.136 1.984C3.712 1.408 4.36267 0.949334 5.088 0.608002C5.81333 0.245335 6.57067 0.0640011 7.36 0.0640011C8.192 0.0640011 8.85333 0.277334 9.344 0.704C9.856 1.10933 10.24 1.68533 10.496 2.432C10.752 3.17867 10.9227 4.05334 11.008 5.056C11.0933 6.05867 11.136 7.15733 11.136 8.352C11.1573 9.54667 11.1787 10.7947 11.2 12.096C12.9067 9.728 14.3573 7.52 15.552 5.472C16.7467 3.424 17.664 1.6 18.304 0C18.4747 0.106668 18.6347 0.320002 18.784 0.640001C18.9547 0.938668 19.04 1.23733 19.04 1.536C19.04 1.96267 18.8267 2.592 18.4 3.424C17.9947 4.256 17.4293 5.23733 16.704 6.368C15.9787 7.47733 15.1467 8.672 14.208 9.952C13.2693 11.232 12.2773 12.5333 11.232 13.856C11.2747 15.2213 11.3493 16.5547 11.456 17.856C11.584 19.136 11.7547 20.2987 11.968 21.344C12.2027 22.368 12.5013 23.1787 12.864 23.776C13.248 24.3947 13.7067 24.704 14.24 24.704C14.88 24.704 15.6587 24.0853 16.576 22.848C17.4933 21.6107 18.528 19.968 19.68 17.92L20.064 18.24C19.2533 19.8827 18.496 21.28 17.792 22.432C17.1093 23.5627 16.416 24.416 15.712 24.992C15.008 25.5893 14.2293 25.888 13.376 25.888C12.48 25.888 11.7547 25.6 11.2 25.024C10.6453 24.448 10.208 23.7013 9.888 22.784C9.58933 21.8667 9.36533 20.8747 9.216 19.808C9.088 18.7413 8.992 17.728 8.928 16.768C7.66933 18.3253 6.44267 19.7867 5.248 21.152C4.07467 22.496 3.01867 23.6587 2.08 24.64C1.16267 25.6213 0.469333 26.304 0 26.688Z" fill="#1A1A1A"/>
</svg>
