<svg width="22" height="30" viewBox="0 0 22 30" fill="none" xmlns="http://www.w3.org/2000/svg">
<path d="M7.424 29.024C6.208 29.024 5.16267 28.768 4.288 28.256C3.43467 27.744 3.008 26.9973 3.008 26.016C3.008 25.4613 3.15733 24.9707 3.456 24.544C3.776 24.1387 4.26667 23.8293 4.928 23.616C4.84267 23.936 4.77867 24.2453 4.736 24.544C4.69333 24.8427 4.672 25.1093 4.672 25.344C4.672 26.2187 4.90667 26.912 5.376 27.424C5.84533 27.9573 6.53867 28.224 7.456 28.224C8.30933 28.224 9.06667 28.0107 9.728 27.584C10.4107 27.1573 10.9973 26.592 11.488 25.888C11.9787 25.2053 12.3947 24.4587 12.736 23.648C13.0773 22.8373 13.3653 22.0373 13.6 21.248C13.8347 20.4587 14.016 19.7653 14.144 19.168C14.3147 18.4427 14.5067 17.504 14.72 16.352C14.9547 15.1787 15.2107 13.9307 15.488 12.608C14.6347 14.2293 13.6427 15.5733 12.512 16.64C11.4027 17.6853 10.08 18.208 8.544 18.208C7.28533 18.208 6.38933 17.856 5.856 17.152C5.32267 16.4267 5.056 15.5093 5.056 14.4C5.056 13.568 5.16267 12.6613 5.376 11.68C5.61067 10.6987 5.86667 9.71733 6.144 8.736C6.42133 7.73333 6.66667 6.77333 6.88 5.856C7.11467 4.93867 7.232 4.11733 7.232 3.392C7.232 2.70933 7.09333 2.12267 6.816 1.632C6.56 1.14133 6.09067 0.896 5.408 0.896C4.81067 0.896 4.29867 1.088 3.872 1.472C3.44533 1.83467 3.08267 2.304 2.784 2.88C2.50667 3.456 2.29333 4.064 2.144 4.704C2.016 5.32267 1.952 5.89867 1.952 6.432C1.952 6.73067 1.97333 7.01867 2.016 7.296C2.05867 7.57333 2.12267 7.808 2.208 8C1.39733 8 0.821333 7.78667 0.48 7.36C0.16 6.912 0 6.38933 0 5.792C0 5.13067 0.16 4.45867 0.48 3.776C0.8 3.09333 1.23733 2.47467 1.792 1.92C2.368 1.344 3.01867 0.885333 3.744 0.544001C4.49067 0.181334 5.28 0 6.112 0C6.92267 0 7.57333 0.170666 8.064 0.511999C8.55467 0.832 8.90667 1.23733 9.12 1.728C9.33333 2.21867 9.44 2.72 9.44 3.232C9.44 3.82933 9.32267 4.576 9.088 5.472C8.87467 6.34667 8.62933 7.27467 8.352 8.256C8.07467 9.216 7.82933 10.176 7.616 11.136C7.40267 12.096 7.296 13.0027 7.296 13.856C7.296 14.7733 7.46667 15.52 7.808 16.096C8.17067 16.6507 8.74667 16.928 9.536 16.928C10.2827 16.928 10.9867 16.6933 11.648 16.224C12.3093 15.7547 12.928 15.1253 13.504 14.336C14.08 13.5467 14.6027 12.6827 15.072 11.744C15.5413 10.8053 15.9573 9.87733 16.32 8.96C16.5973 7.808 16.8853 6.69867 17.184 5.632C17.504 4.544 17.824 3.584 18.144 2.752C18.464 1.89867 18.7947 1.22667 19.136 0.736C19.4773 0.245333 19.8187 0 20.16 0C20.3733 0 20.6507 0.096 20.992 0.288C21.3333 0.458667 21.6533 0.704 21.952 1.024C21.504 1.728 21.12 2.4 20.8 3.04C20.48 3.65867 20.1707 4.34133 19.872 5.088C19.5947 5.83467 19.3067 6.72 19.008 7.744C18.7093 8.74667 18.368 9.984 17.984 11.456C17.6213 12.928 17.184 14.72 16.672 16.832C16.3947 17.92 16.096 19.04 15.776 20.192C15.456 21.344 15.0613 22.4427 14.592 23.488C14.144 24.5333 13.6 25.472 12.96 26.304C12.32 27.136 11.5413 27.7973 10.624 28.288C9.728 28.7787 8.66133 29.024 7.424 29.024Z" fill="#1A1A1A"/>
</svg>
