<svg width="14" height="12" viewBox="0 0 14 12" fill="none" xmlns="http://www.w3.org/2000/svg">
<path d="M0.744727 11.154C0.659394 10.9833 0.552727 10.8553 0.424727 10.77C0.296727 10.6633 0.232727 10.5673 0.232727 10.482C0.232727 10.3967 0.222061 10.3113 0.200727 10.226C0.200727 10.1193 0.158061 10.0233 0.0727273 9.938C-0.0339394 9.81 -0.0232727 9.522 0.104727 9.074C0.232727 8.60467 0.446061 8.03933 0.744727 7.378C1.04339 6.69533 1.39539 5.98067 1.80073 5.234C1.97139 5.06333 2.14206 4.83933 2.31273 4.562C2.48339 4.28467 2.61139 4.10333 2.69673 4.018C2.69673 3.93267 2.72873 3.858 2.79273 3.794C2.85673 3.70867 2.93139 3.666 3.01673 3.666V3.474C3.01673 3.36733 3.11273 3.186 3.30473 2.93C3.51806 2.674 3.77406 2.39667 4.07273 2.098C4.37139 1.778 4.68073 1.47933 5.00073 1.202C5.32073 0.903333 5.58739 0.69 5.80073 0.562C6.24873 0.263333 6.70739 0.082 7.17673 0.0180002C7.66739 -0.0460002 8.08339 0.0606663 8.42473 0.338C8.48873 0.402 8.59539 0.508666 8.74473 0.658C8.89406 0.807333 9.06473 0.978 9.25673 1.17C9.47006 1.34067 9.68339 1.522 9.89673 1.714L11.0807 2.77L10.5047 4.37C10.2274 5.22333 10.1527 5.97 10.2807 6.61C10.4301 7.25 10.6434 7.80467 10.9207 8.274C11.0274 8.50867 11.2407 8.73267 11.5607 8.946C11.9021 9.15933 12.2221 9.28733 12.5207 9.33C12.6914 9.35133 12.8514 9.41533 13.0007 9.522C13.1501 9.62867 13.2247 9.79933 13.2247 10.034C13.2247 10.2473 13.1821 10.418 13.0967 10.546C13.0114 10.674 12.8621 10.7593 12.6487 10.802C11.9447 10.8873 11.2834 10.7167 10.6647 10.29C10.0674 9.86333 9.51273 9.15933 9.00073 8.178C8.91539 8.05 8.79806 7.81533 8.64873 7.474C8.52073 7.11133 8.44606 6.87667 8.42473 6.77C8.33939 6.87667 8.17939 7.07933 7.94473 7.378C7.71006 7.65533 7.52873 7.858 7.40073 7.986C5.88606 9.522 4.57406 10.5567 3.46473 11.09C2.37673 11.602 1.47006 11.6233 0.744727 11.154ZM1.89673 9.362C1.89673 9.51133 2.12073 9.51133 2.56873 9.362C3.03806 9.19133 3.53939 8.89267 4.07273 8.466C4.79806 7.84733 5.52339 7.16467 6.24873 6.418C6.99539 5.67133 7.59273 4.978 8.04073 4.338L8.74473 3.186C8.53139 2.69533 8.29673 2.36467 8.04073 2.194C7.80606 2.002 7.60339 1.906 7.43273 1.906C7.15539 1.906 6.73939 2.162 6.18473 2.674C5.65139 3.186 5.07539 3.86867 4.45673 4.722C3.83806 5.57533 3.25139 6.514 2.69673 7.538C2.48339 7.96467 2.29139 8.38067 2.12073 8.786C1.97139 9.17 1.89673 9.362 1.89673 9.362Z" fill="#1A1A1A"/>
</svg>
