<svg width="12" height="21" viewBox="0 0 12 21" fill="none" xmlns="http://www.w3.org/2000/svg">
<path d="M2.8864 20.3307C2.45973 20.288 2.19307 20.2347 2.0864 20.1707C2.00107 20.1067 1.8944 19.936 1.7664 19.6587C1.59573 19.4667 1.48907 19.3173 1.4464 19.2107C1.42507 19.104 1.42507 19.008 1.4464 18.9227C1.55307 18.9227 1.64907 18.9227 1.7344 18.9227C1.81973 18.9013 1.87307 18.8587 1.8944 18.7947C1.8944 18.7307 1.9264 18.688 1.9904 18.6667C2.07573 18.6453 2.16107 18.6453 2.2464 18.6667C2.65173 18.688 3.16373 18.56 3.7824 18.2827C4.4224 17.984 5.10507 17.5787 5.8304 17.0667C6.57707 16.5333 7.3024 15.9467 8.0064 15.3067C8.56107 14.5813 8.9664 14.016 9.2224 13.6107C9.4784 13.184 9.62773 12.8427 9.6704 12.5867C9.71307 12.3093 9.68107 12.0747 9.5744 11.8827C9.48907 11.712 9.17973 11.648 8.6464 11.6907C8.11307 11.712 7.51573 11.936 6.8544 12.3627C5.93707 12.9387 5.20107 13.472 4.6464 13.9627C4.09173 14.4533 3.57973 15.008 3.1104 15.6267C2.93973 15.84 2.76907 16.096 2.5984 16.3947C2.44907 16.6933 2.32107 16.9493 2.2144 17.1627C2.10773 17.376 2.0544 17.4827 2.0544 17.4827C2.0544 17.568 1.9264 17.6747 1.6704 17.8027C1.43573 17.9307 1.23307 17.9947 1.0624 17.9947C0.977067 17.952 0.859733 17.8773 0.7104 17.7707C0.5824 17.6427 0.497067 17.4827 0.4544 17.2907C0.305067 17.184 0.1984 17.0987 0.1344 17.0347C0.0704 16.9707 0.0277334 16.896 0.00640002 16.8107C-0.0149334 16.6827 0.0170666 16.48 0.1024 16.2027C0.187733 15.9253 0.305067 15.488 0.4544 14.8907C0.5824 14.336 0.721067 13.76 0.8704 13.1627C1.04107 12.5653 1.20107 12.0533 1.3504 11.6267C1.49973 11.2 1.6064 10.9653 1.6704 10.9227C1.6704 10.9227 1.71307 10.8267 1.7984 10.6347C1.88373 10.4427 1.9264 10.2187 1.9264 9.96267C1.96907 9.70667 2.03307 9.48267 2.1184 9.29067C2.22507 9.09867 2.2784 8.96 2.2784 8.87467C2.36373 8.81067 2.49173 8.55467 2.6624 8.10667C2.83307 7.65867 3.0464 7.072 3.3024 6.34667C3.3024 6.28267 3.37707 6.08 3.5264 5.73867C3.67573 5.376 3.85707 4.96 4.0704 4.49067C4.28373 4 4.49707 3.49867 4.7104 2.98667C4.94507 2.45333 5.13707 1.984 5.2864 1.57867C5.5424 1.216 5.7344 0.885334 5.8624 0.586668C6.01173 0.266667 6.16107 0.0746666 6.3104 0.0106674C6.41707 -0.010667 6.54507 -4.24683e-07 6.6944 0.042667C6.86507 0.064 7.02507 0.117333 7.1744 0.202667C7.34507 0.288 7.48373 0.416001 7.5904 0.586668C7.6544 0.693334 7.69707 0.789334 7.7184 0.874668C7.73973 0.96 7.70773 1.12 7.6224 1.35467C7.53707 1.568 7.3664 1.94133 7.1104 2.47467C6.87573 2.98667 6.52373 3.73333 6.0544 4.71467C5.45707 5.99467 4.9664 7.136 4.5824 8.13867C4.1984 9.14133 3.8784 10.0267 3.6224 10.7947C3.3664 11.5627 3.13173 12.224 2.9184 12.7787L2.7584 13.4827L3.5584 12.7147C3.8784 12.48 4.2304 12.192 4.6144 11.8507C4.9984 11.5093 5.33973 11.2107 5.6384 10.9547C5.80907 10.8267 6.03307 10.6987 6.3104 10.5707C6.60907 10.4213 6.89707 10.2933 7.1744 10.1867C7.45173 10.08 7.6544 10.016 7.7824 9.99467C7.8464 9.97333 8.0064 9.94133 8.2624 9.89867C8.5184 9.856 8.82773 9.83467 9.1904 9.83467C9.65973 9.83467 10.0331 9.94133 10.3104 10.1547C10.6091 10.368 10.8971 10.7093 11.1744 11.1787C11.4091 11.6267 11.5051 12.1387 11.4624 12.7147C11.4197 13.2693 11.2491 13.792 10.9504 14.2827C10.8437 14.368 10.7371 14.4853 10.6304 14.6347C10.5237 14.7627 10.4704 14.8693 10.4704 14.9547C10.4491 15.104 10.2571 15.4133 9.8944 15.8827C9.53173 16.3307 9.16907 16.7573 8.8064 17.1627C8.4224 17.568 7.95307 17.9733 7.3984 18.3787C6.84373 18.7627 6.28907 19.1147 5.7344 19.4347C5.20107 19.7333 4.7424 19.9467 4.3584 20.0747C4.18773 20.096 3.9424 20.1387 3.6224 20.2027C3.3024 20.2453 3.05707 20.288 2.8864 20.3307Z" fill="#1A1A1A"/>
</svg>
