<svg width="10" height="13" viewBox="0 0 10 13" fill="none" xmlns="http://www.w3.org/2000/svg">
<path d="M3.41415 12.256C2.79549 12.3627 2.23015 12.3307 1.71815 12.16C1.20615 11.968 0.790154 11.6587 0.470154 11.232C0.171487 10.784 0.0221539 10.2187 0.0221539 9.536C-0.0418462 8.896 0.0328204 8.16 0.246154 7.328C0.459487 6.47467 0.768821 5.62133 1.17415 4.768C1.60082 3.91467 2.05949 3.17867 2.55015 2.56C2.97682 2.048 3.40349 1.57867 3.83015 1.152C4.25682 0.725334 4.64082 0.437333 4.98215 0.288C5.28082 0.16 5.55815 0.0853332 5.81415 0.0640001C6.09149 0.0213334 6.31549 0 6.48615 0C6.82749 0.0853335 7.19015 0.245334 7.57415 0.48C7.97949 0.693334 8.18215 0.928 8.18215 1.184C8.18215 1.184 8.20349 1.216 8.24615 1.28C8.31015 1.32267 8.34215 1.344 8.34215 1.344C8.47015 1.344 8.57682 1.48267 8.66215 1.76C8.76882 2.03733 8.83282 2.35733 8.85415 2.72C8.87549 3.06133 8.82215 3.34933 8.69415 3.584C8.60882 3.98933 8.45949 4.34133 8.24615 4.64C8.03282 4.93867 7.84082 5.088 7.67015 5.088C7.58482 5.088 7.49949 5.09867 7.41415 5.12C7.35015 5.12 7.31815 5.17333 7.31815 5.28C7.31815 5.38667 7.25415 5.42933 7.12615 5.408C7.01949 5.38667 6.90215 5.32267 6.77415 5.216C6.64615 5.088 6.55015 4.93867 6.48615 4.768C6.48615 4.66133 6.52882 4.48 6.61415 4.224C6.69949 3.968 6.78482 3.63733 6.87015 3.232C6.99815 2.63467 6.98749 2.25067 6.83815 2.08C6.68882 1.888 6.40082 1.87733 5.97415 2.048C5.44082 2.34667 4.92882 2.76267 4.43815 3.296C3.96882 3.82933 3.53149 4.52267 3.12615 5.376C2.72082 6.208 2.35815 7.25333 2.03815 8.512C1.91015 9.00267 1.85682 9.42933 1.87815 9.792C1.92082 10.1547 1.97415 10.3467 2.03815 10.368C2.33682 10.4533 2.74215 10.4747 3.25415 10.432C3.76615 10.368 4.13949 10.272 4.37415 10.144C4.71549 9.97333 5.09949 9.74933 5.52615 9.472C5.95282 9.17333 6.32615 8.90667 6.64615 8.672C6.75282 8.608 6.88082 8.50133 7.03015 8.352C7.17949 8.20267 7.33949 8.08533 7.51015 8C7.68082 7.744 7.83015 7.59467 7.95815 7.552C8.08615 7.50933 8.27815 7.488 8.53415 7.488C8.70482 7.53067 8.86482 7.59467 9.01415 7.68C9.16349 7.76533 9.25949 7.85067 9.30215 7.936C9.36615 8.02133 9.33415 8.096 9.20615 8.16C9.12082 8.16 9.06749 8.192 9.04615 8.256C9.04615 8.29867 9.04615 8.32 9.04615 8.32C9.08882 8.40533 8.99282 8.58667 8.75815 8.864C8.54482 9.12 8.26749 9.408 7.92615 9.728C7.58482 10.048 7.25415 10.3253 6.93415 10.56C6.63549 10.7733 6.42215 10.88 6.29415 10.88C6.08082 10.88 5.97415 10.944 5.97415 11.072C5.97415 11.1147 5.81415 11.2213 5.49415 11.392C5.19549 11.5627 4.84349 11.7333 4.43815 11.904C4.05415 12.0747 3.71282 12.192 3.41415 12.256Z" fill="#1A1A1A"/>
</svg>
