<svg width="14" height="22" viewBox="0 0 14 22" fill="none" xmlns="http://www.w3.org/2000/svg">
<path d="M8.464 21.0926C8.18667 21.1566 7.952 21.1139 7.76 20.9646C7.58933 20.8366 7.46133 20.6446 7.376 20.3886C7.20533 19.8979 7.07733 19.3646 6.992 18.7886C6.928 18.1912 6.91733 17.6686 6.96 17.2206L7.024 16.5486L5.776 17.5406C5.05067 18.1806 4.34667 18.6392 3.664 18.9166C3.00267 19.1939 2.416 19.3326 1.904 19.3326C1.66933 19.2899 1.43467 19.2046 1.2 19.0766C0.965333 18.9486 0.752 18.7886 0.56 18.5966C0.389333 18.4046 0.250667 18.2019 0.144 17.9886C0.016 17.6899 -0.0266667 17.2846 0.016 16.7726C0.08 16.2606 0.208 15.7059 0.4 15.1086C0.613333 14.4899 0.869333 13.8926 1.168 13.3166C1.488 12.7192 1.85067 12.1966 2.256 11.7486C2.96 10.6819 3.71733 10.0312 4.528 9.79657C5.33867 9.5619 6.13867 9.67924 6.928 10.1486C7.48267 10.3832 7.824 10.4899 7.952 10.4686C8.10133 10.4472 8.22933 10.2019 8.336 9.73257C8.42133 9.39124 8.50667 9.0499 8.592 8.70857C8.67733 8.3459 8.816 7.86591 9.008 7.26857C9.54133 5.64724 10 4.37791 10.384 3.46057C10.7893 2.54324 11.152 1.74324 11.472 1.06057C11.7067 0.569904 11.8987 0.271238 12.048 0.164571C12.2187 0.0365716 12.3893 -0.0167617 12.56 0.00457133C12.7947 0.00457133 13.008 0.0899048 13.2 0.260572C13.392 0.431239 13.5413 0.665906 13.648 0.964572C13.7333 1.15657 13.7653 1.32724 13.744 1.47657C13.744 1.60457 13.68 1.78591 13.552 2.02057C13.2747 2.53257 12.944 3.21524 12.56 4.06857C12.1973 4.90057 11.824 5.81791 11.44 6.82057C11.0773 7.82324 10.736 8.81524 10.416 9.79657C10.096 10.7779 9.82933 11.6419 9.616 12.3886C9.488 12.8579 9.37067 13.4552 9.264 14.1806C9.17867 14.9059 9.104 15.6526 9.04 16.4206C8.976 17.1672 8.93333 17.8392 8.912 18.4366C8.912 19.0126 8.93333 19.3859 8.976 19.5566C9.104 19.9832 9.15733 20.3032 9.136 20.5166C9.136 20.7299 9.08267 20.8686 8.976 20.9326C8.86933 21.0179 8.69867 21.0712 8.464 21.0926ZM3.056 17.5406C3.35467 17.4766 3.64267 17.3592 3.92 17.1886C4.21867 17.0179 4.528 16.8152 4.848 16.5806C5.488 16.0899 6.04267 15.6419 6.512 15.2366C6.98133 14.8312 7.29067 14.2126 7.44 13.3806C7.48267 12.9752 7.44 12.6552 7.312 12.4206C7.20533 12.1646 7.024 11.9299 6.768 11.7166C6.512 11.5459 6.16 11.4819 5.712 11.5246C5.28533 11.5459 4.83733 11.7699 4.368 12.1966C3.856 12.6659 3.35467 13.2952 2.864 14.0846C2.39467 14.8739 2.04267 15.8446 1.808 16.9966C1.76533 17.2099 1.82933 17.3806 2 17.5086C2.17067 17.6366 2.52267 17.6472 3.056 17.5406Z" fill="#1A1A1A"/>
</svg>
