<svg width="9" height="12" viewBox="0 0 9 12" fill="none" xmlns="http://www.w3.org/2000/svg">
<path d="M5.43289 11.1709C4.98489 11.5549 4.46222 11.7789 3.86489 11.8429C3.28889 11.9069 2.72356 11.8216 2.16889 11.5869C1.61422 11.3309 1.15556 10.9469 0.792889 10.4349C0.430222 9.96558 0.195556 9.43224 0.088889 8.83491C-0.0177778 8.21624 -0.0284445 7.41624 0.0568889 6.43491C0.120889 5.60291 0.387556 4.77091 0.856889 3.93891C1.32622 3.08558 1.89156 2.32824 2.55289 1.66691C3.23556 1.00558 3.90756 0.546909 4.56889 0.290908C4.88889 0.0775752 5.15556 -0.0184245 5.36889 0.00290919C5.60356 0.00290919 5.95556 0.0242422 6.42489 0.0669084C6.91556 0.130909 7.27822 0.226909 7.51289 0.354908C7.76889 0.482909 7.97156 0.653575 8.12089 0.866909C8.44089 1.18691 8.65422 1.50691 8.76089 1.82691C8.86756 2.12558 8.92089 2.42424 8.92089 2.72291C8.83556 3.19224 8.51556 3.76824 7.96089 4.45091C7.42756 5.11224 6.72356 5.65624 5.84889 6.08291C5.37956 6.23224 4.86756 6.29624 4.31289 6.27491C3.75822 6.25358 3.29956 6.11491 2.93689 5.85891C2.53156 5.68824 2.26489 5.72024 2.13689 5.95491C2.00889 6.16824 1.89156 6.70158 1.78489 7.55491C1.69956 8.36558 1.76356 8.96291 1.97689 9.34691C2.19022 9.70958 2.47822 9.92291 2.84089 9.98691C3.26756 10.0722 3.59822 10.1362 3.83289 10.1789C4.08889 10.2002 4.39822 10.1042 4.76089 9.89091C5.10222 9.67758 5.31556 9.56024 5.40089 9.53891C5.48622 9.49624 5.55022 9.45358 5.59289 9.41091C5.65689 9.34691 5.79556 9.20824 6.00889 8.99491C6.15822 8.84558 6.27556 8.73891 6.36089 8.67491C6.44622 8.58958 6.54222 8.54691 6.64889 8.54691C6.75556 8.54691 6.85156 8.60024 6.93689 8.70691C7.02222 8.79224 7.10756 8.85624 7.19289 8.89891C7.40622 8.89891 7.44889 9.02691 7.32089 9.28291C7.21422 9.53891 6.99022 9.84824 6.64889 10.2109C6.30756 10.5522 5.90222 10.8722 5.43289 11.1709ZM5.40089 4.38691C5.63556 4.28024 5.88089 4.13091 6.13689 3.93891C6.39289 3.72558 6.60622 3.50158 6.77689 3.26691C6.96889 3.01091 7.06489 2.79758 7.06489 2.62691C7.06489 2.32824 6.92622 2.08291 6.64889 1.89091C6.37156 1.67758 5.95556 1.64558 5.40089 1.79491C5.16622 1.85891 4.89956 2.01891 4.60089 2.27491C4.30222 2.50958 4.01422 2.77624 3.73689 3.07491C3.48089 3.37358 3.26756 3.64024 3.09689 3.87491C2.94756 4.10958 2.89422 4.24824 2.93689 4.29091C3.00089 4.39758 3.18222 4.48291 3.48089 4.54691C3.77956 4.58958 4.11022 4.60024 4.47289 4.57891C4.85689 4.55758 5.16622 4.49358 5.40089 4.38691Z" fill="#1A1A1A"/>
</svg>
