<svg width="13" height="25" viewBox="0 0 13 25" fill="none" xmlns="http://www.w3.org/2000/svg">
<path d="M1.4336 24.672C1.3056 24.7573 1.15627 24.736 0.9856 24.608C0.836267 24.48 0.612267 24.2453 0.3136 23.904C0.164267 23.7333 0.0682665 23.552 0.0255999 23.36C-0.0170667 23.168 -0.00639997 22.8053 0.0576 22.272C0.142933 22.0373 0.1856 21.8133 0.1856 21.6C0.206933 21.3867 0.2176 21.2373 0.2176 21.152C0.2176 21.024 0.2496 20.7253 0.3136 20.256C0.398933 19.7867 0.484267 19.296 0.5696 18.784C0.654933 18.2507 0.7296 17.8453 0.7936 17.568C0.7936 17.5467 0.804267 17.4933 0.8256 17.408C0.846933 17.3227 0.868267 17.248 0.8896 17.184C0.932267 16.992 0.9856 16.736 1.0496 16.416C1.13493 16.096 1.2096 15.7013 1.2736 15.232C1.44427 14.6987 1.58293 14.176 1.6896 13.664C1.8176 13.1307 1.8816 12.768 1.8816 12.576C1.8816 12.192 2.03093 11.9147 2.3296 11.744C2.35093 11.6373 2.41493 11.4773 2.5216 11.264C2.62827 11.0293 2.72427 10.8373 2.8096 10.688C3.23627 9.472 3.58827 8.512 3.8656 7.808C4.14293 7.08267 4.43093 6.45333 4.7296 5.92C4.8576 5.55733 4.99627 5.184 5.1456 4.8C5.31627 4.416 5.48693 4.11733 5.6576 3.904C5.76427 3.62667 6.0096 3.27467 6.3936 2.848C6.7776 2.4 7.18293 1.97333 7.6096 1.568C8.03627 1.14133 8.3776 0.821333 8.6336 0.608C9.10293 0.373334 9.47627 0.213334 9.7536 0.128C10.0309 0.0426668 10.3936 0 10.8416 0C11.2469 0 11.5136 0.0533333 11.6416 0.16C11.7909 0.245333 12.0043 0.416 12.2816 0.671999C12.5803 0.992 12.7509 1.20533 12.7936 1.312C12.8363 1.41867 12.8576 1.62133 12.8576 1.92C12.8149 2.19733 12.6976 2.56 12.5056 3.008C12.3349 3.43467 12.1429 3.82933 11.9296 4.192C11.7376 4.53333 11.5776 4.71467 11.4496 4.736C11.1936 4.82133 11.0016 4.8 10.8736 4.672C10.7669 4.52267 10.7136 4.288 10.7136 3.968C10.7136 3.81867 10.6709 3.68 10.5856 3.552C10.5216 3.40267 10.4896 3.328 10.4896 3.328C10.4896 3.264 10.5003 3.15733 10.5216 3.008C10.5643 2.83733 10.6283 2.67733 10.7136 2.528C10.8203 2.31467 10.8416 2.15467 10.7776 2.048C10.7349 1.94133 10.5963 1.92 10.3616 1.984C10.2976 2.02667 10.1269 2.15467 9.8496 2.368C9.57227 2.58133 9.2736 2.82667 8.9536 3.104C8.65493 3.36 8.38827 3.60533 8.1536 3.84C7.91893 4.07467 7.8016 4.224 7.8016 4.288C7.8016 4.288 7.75893 4.384 7.6736 4.576C7.58827 4.74667 7.42827 4.97067 7.1936 5.248C7.04427 5.46133 6.9056 5.67467 6.7776 5.888C6.67093 6.08 6.6176 6.19733 6.6176 6.24C6.6176 6.32533 6.60693 6.42133 6.5856 6.528C6.5856 6.61333 6.53227 6.656 6.4256 6.656C6.4256 6.656 6.3936 6.752 6.3296 6.944C6.2656 7.136 6.14827 7.38133 5.9776 7.68C5.89227 7.89333 5.7856 8.11733 5.6576 8.352C5.5296 8.56533 5.42293 8.71467 5.3376 8.8H5.3696C5.3696 8.8 5.31627 8.93867 5.2096 9.216C5.12427 9.472 5.02827 9.74933 4.9216 10.048C4.81493 10.3253 4.7616 10.4853 4.7616 10.528C4.7616 10.6133 4.91093 10.656 5.2096 10.656C5.5296 10.656 5.90293 10.624 6.3296 10.56C6.75627 10.4747 7.14027 10.3893 7.4816 10.304C7.78027 10.2187 7.98293 10.176 8.0896 10.176C8.19627 10.176 8.4096 10.2187 8.7296 10.304C8.90027 10.4107 9.03893 10.5707 9.1456 10.784C9.2736 10.976 9.35893 11.168 9.4016 11.36C9.4656 11.5307 9.4656 11.6587 9.4016 11.744C9.38027 11.8293 9.1456 11.9467 8.6976 12.096C8.2496 12.2453 7.8016 12.3627 7.3536 12.448C6.9696 12.5333 6.50027 12.6293 5.9456 12.736C5.39093 12.8427 4.90027 12.9387 4.4736 13.024C4.06827 13.1093 3.8656 13.184 3.8656 13.248C3.78027 13.248 3.7056 13.3013 3.6416 13.408C3.5776 13.4933 3.5456 13.568 3.5456 13.632C3.5456 13.9307 3.50293 14.1547 3.4176 14.304C3.37493 14.432 3.30027 14.688 3.1936 15.072C3.08693 15.456 2.9696 15.8827 2.8416 16.352C2.73493 16.8213 2.63893 17.248 2.5536 17.632C2.4896 18.016 2.4576 18.272 2.4576 18.4C2.3296 18.5493 2.25493 18.7413 2.2336 18.976C2.21227 19.1893 2.2016 19.3813 2.2016 19.552C2.11627 19.7227 2.06293 19.8827 2.0416 20.032C2.02027 20.16 2.0096 20.2667 2.0096 20.352C2.0096 20.3733 2.0096 20.416 2.0096 20.48C2.0096 20.544 1.99893 20.608 1.9776 20.672C1.95627 20.8853 1.92427 21.1627 1.8816 21.504C1.86027 21.8667 1.8496 22.2187 1.8496 22.56L1.7536 23.488C1.73227 23.7653 1.70027 24 1.6576 24.192C1.61493 24.4053 1.54027 24.5653 1.4336 24.672Z" fill="#1A1A1A"/>
</svg>
