<svg width="8" height="21" viewBox="0 0 8 21" fill="none" xmlns="http://www.w3.org/2000/svg">
<path d="M1.4208 20.928C1.01547 21.0347 0.6848 20.9493 0.4288 20.672C0.194133 20.3947 0.0554667 19.968 0.0128 19.392C-0.0298666 18.816 0.0341334 18.1333 0.2048 17.344C0.311467 17.088 0.3968 16.8427 0.4608 16.608C0.5248 16.352 0.5568 16.1493 0.5568 16C0.599467 15.7867 0.6848 15.4773 0.8128 15.072C0.9408 14.6453 1.07947 14.208 1.2288 13.76C1.37813 13.312 1.5168 12.9173 1.6448 12.576C1.79413 12.2133 1.89013 11.9893 1.9328 11.904C2.01813 11.904 2.0928 11.8293 2.1568 11.68C2.2208 11.5307 2.2528 11.3813 2.2528 11.232C2.2528 11.0613 2.2848 10.8693 2.3488 10.656C2.43413 10.4427 2.51947 10.2933 2.6048 10.208C2.6048 10.1013 2.62613 9.984 2.6688 9.856C2.7328 9.70667 2.7648 9.58933 2.7648 9.504C2.7648 9.41867 2.78613 9.33333 2.8288 9.248C2.8928 9.16267 2.9248 9.07733 2.9248 8.992C3.07413 8.71467 3.26613 8.27733 3.5008 7.68C3.7568 7.06133 4.02347 6.37867 4.3008 5.632C4.59947 4.88533 4.8768 4.14933 5.1328 3.424C5.3888 2.69867 5.59147 2.09067 5.7408 1.6C5.91147 1.088 5.9968 0.778667 5.9968 0.672001C5.9968 0.501334 6.03947 0.373334 6.1248 0.288C6.21013 0.202667 6.33813 0.16 6.5088 0.16C6.5728 0.0960007 6.64747 0.0533339 6.7328 0.0319996C6.83947 0.0106665 6.93547 0 7.0208 0C7.0208 0 7.06347 0.0426668 7.1488 0.128C7.23413 0.213334 7.36213 0.341334 7.5328 0.512001C7.70347 0.661334 7.79947 0.832 7.8208 1.024C7.86347 1.216 7.8848 1.44 7.8848 1.696C7.8848 1.97333 7.8528 2.21867 7.7888 2.432C7.7248 2.64533 7.5968 2.95467 7.4048 3.36C7.2128 3.76533 6.91413 4.39467 6.5088 5.248C6.33813 5.67467 6.1568 6.08 5.9648 6.464C5.7728 6.82667 5.6768 7.05067 5.6768 7.136C5.6768 7.22133 5.63413 7.34933 5.5488 7.52C5.4848 7.69067 5.41013 7.904 5.3248 8.16C5.23947 8.33067 5.12213 8.58667 4.9728 8.928C4.82347 9.248 4.66347 9.6 4.4928 9.984C4.34347 10.3467 4.21547 10.6667 4.1088 10.944C4.00213 11.2 3.9488 11.3493 3.9488 11.392C3.9488 11.4773 3.93813 11.5627 3.9168 11.648C3.9168 11.7333 3.87413 11.8187 3.7888 11.904C3.70347 11.904 3.65013 11.968 3.6288 12.096C3.6288 12.2027 3.6288 12.256 3.6288 12.256C3.6288 12.4693 3.45813 13.0347 3.1168 13.952C2.77547 15.1253 2.45547 16.2027 2.1568 17.184C1.87947 18.1653 1.7408 18.9547 1.7408 19.552C1.7408 20.064 1.73013 20.4053 1.7088 20.576C1.68747 20.7253 1.59147 20.8427 1.4208 20.928Z" fill="#1A1A1A"/>
</svg>
