<svg width="12" height="12" viewBox="0 0 12 12" fill="none" xmlns="http://www.w3.org/2000/svg">
<path d="M0.464 11.4926C0.272 11.3432 0.133333 11.1939 0.048 11.0446C-0.016 10.8952 -0.016 10.6072 0.048 10.1806C0.112 9.58324 0.197333 9.06057 0.304 8.61257C0.410667 8.14324 0.538667 7.60991 0.688 7.01257C0.730667 6.75657 0.848 6.31924 1.04 5.70057C1.25333 5.08191 1.50933 4.40991 1.808 3.68457C2.10667 2.95924 2.40533 2.27657 2.704 1.63657C3.00267 0.975238 3.25867 0.484572 3.472 0.164571C3.64267 0.0365716 3.84533 -0.0167617 4.08 0.00457133C4.336 0.025905 4.54933 0.121905 4.72 0.292571C4.95467 0.484572 4.98667 0.825905 4.816 1.31657C4.66667 1.7859 4.34667 2.53257 3.856 3.55657C3.6 4.13257 3.408 4.56991 3.28 4.86857C3.152 5.14591 3.09867 5.31657 3.12 5.38057C3.14133 5.42324 3.23733 5.39124 3.408 5.28457C3.536 5.04991 3.77067 4.78324 4.112 4.48457C4.45333 4.16457 4.816 3.85524 5.2 3.55657C5.584 3.2579 5.94667 2.99124 6.288 2.75657C6.62933 2.52191 6.864 2.37257 6.992 2.30857C7.16267 2.2019 7.35467 2.11657 7.568 2.05257C7.80267 1.96724 7.96267 1.90324 8.048 1.86057C8.53867 1.62591 9.04 1.54057 9.552 1.60457C10.064 1.66857 10.384 1.86057 10.512 2.18057C10.5333 2.35124 10.5973 2.47924 10.704 2.56457C10.832 2.64991 10.896 2.69257 10.896 2.69257C10.9813 2.69257 11.024 2.72457 11.024 2.78857C11.0453 2.85257 11.056 2.88457 11.056 2.88457C11.056 3.0339 10.9387 3.1299 10.704 3.17257C10.4907 3.19391 10.2133 3.21524 9.872 3.23657C9.59467 3.2579 9.34933 3.31124 9.136 3.39657C8.92267 3.48191 8.66667 3.58857 8.368 3.71657C7.55733 4.1859 6.77867 4.64457 6.032 5.09257C5.30667 5.54057 4.60267 6.13791 3.92 6.88457C3.77067 7.05524 3.62133 7.25791 3.472 7.49257C3.32267 7.72724 3.16267 7.98324 2.992 8.26057C2.88533 8.36724 2.77867 8.60191 2.672 8.96457C2.56533 9.32724 2.46933 9.67924 2.384 10.0206C2.32 10.3406 2.288 10.5326 2.288 10.5966C2.288 10.5966 2.256 10.7032 2.192 10.9166C2.128 11.1086 2.02133 11.3006 1.872 11.4926C1.616 11.8339 1.40267 12.0046 1.232 12.0046C1.06133 12.0046 0.805333 11.8339 0.464 11.4926Z" fill="#1A1A1A"/>
</svg>
