<svg width="11" height="14" viewBox="0 0 11 14" fill="none" xmlns="http://www.w3.org/2000/svg">
<path d="M1.856 13.664C1.45067 13.4933 1.06667 13.2693 0.704 12.992C0.341333 12.6933 0.106667 12.448 0 12.256C0 12.064 0.032 11.936 0.096 11.872C0.16 11.7867 0.341333 11.7547 0.64 11.776C0.96 11.776 1.472 11.8187 2.176 11.904C2.432 11.904 2.752 11.8827 3.136 11.84C3.52 11.7973 3.872 11.7333 4.192 11.648C4.53333 11.5627 4.72533 11.456 4.768 11.328C4.87467 11.328 4.896 11.296 4.832 11.232C4.768 11.1467 4.69333 11.0613 4.608 10.976C4.52267 10.976 4.42667 10.944 4.32 10.88C4.21333 10.7947 4.11733 10.752 4.032 10.752C4.032 10.6453 3.92533 10.528 3.712 10.4C3.52 10.2507 3.31733 10.1333 3.104 10.048C2.63467 9.664 2.22933 9.32267 1.888 9.024C1.54667 8.704 1.41867 8.49067 1.504 8.384C1.504 8.29867 1.504 8.256 1.504 8.256C1.504 8.23467 1.504 8.224 1.504 8.224C1.35467 8.224 1.184 8.01067 0.992 7.584C0.821333 7.15733 0.736 6.77333 0.736 6.432C0.736 6.176 0.810666 5.856 0.96 5.472C1.10933 5.06667 1.312 4.65067 1.568 4.224C1.824 3.79733 2.09067 3.44533 2.368 3.168C2.752 2.80533 3.232 2.42133 3.808 2.016C4.384 1.58933 4.94933 1.216 5.504 0.896C6.08 0.554667 6.56 0.330667 6.944 0.224C7.328 0.0746667 7.68 0 8 0C8.34133 0 8.64 0.0746667 8.896 0.224C9.10933 0.330667 9.30133 0.490666 9.472 0.704C9.664 0.896 9.824 1.09867 9.952 1.312C10.1013 1.504 10.1973 1.67467 10.24 1.824C10.24 2.08 10.2187 2.368 10.176 2.688C10.1333 2.98667 10.0693 3.25333 9.984 3.488C9.92 3.72267 9.81333 3.84 9.664 3.84C9.664 3.84 9.632 3.85067 9.568 3.872C9.52533 3.872 9.504 3.92533 9.504 4.032C9.504 4.24533 9.344 4.49067 9.024 4.768C8.61867 5.04533 8.26667 5.216 7.968 5.28C7.66933 5.32267 7.488 5.20533 7.424 4.928C7.36 4.84267 7.31733 4.768 7.296 4.704C7.27467 4.64 7.22133 4.608 7.136 4.608C7.136 4.608 7.104 4.576 7.04 4.512C6.976 4.448 6.944 4.34133 6.944 4.192C6.944 4.10667 6.976 4.032 7.04 3.968C7.104 3.88267 7.136 3.84 7.136 3.84C7.24267 3.84 7.38133 3.72267 7.552 3.488C7.72267 3.232 7.872 2.96533 8 2.688C8.14933 2.38933 8.224 2.18667 8.224 2.08C8.224 1.952 8.20267 1.87733 8.16 1.856C8.13867 1.83467 8.04267 1.824 7.872 1.824C7.57333 1.952 7.21067 2.12267 6.784 2.336C6.35733 2.54933 5.952 2.76267 5.568 2.976C5.20533 3.168 4.93867 3.34933 4.768 3.52C4.68267 3.66933 4.62933 3.76533 4.608 3.808C4.58667 3.82933 4.53333 3.84 4.448 3.84C4.448 3.75467 4.37333 3.79733 4.224 3.968C4.096 4.11733 3.92533 4.33067 3.712 4.608C3.52 4.88533 3.328 5.16267 3.136 5.44C2.96533 5.696 2.83733 5.888 2.752 6.016C2.70933 6.05867 2.656 6.18667 2.592 6.4C2.54933 6.592 2.528 6.77333 2.528 6.944C2.44267 7.2 2.45333 7.38133 2.56 7.488C2.66667 7.57333 2.90133 7.76533 3.264 8.064C4.01067 8.61867 4.59733 9.07733 5.024 9.44C5.45067 9.80267 5.77067 10.1013 5.984 10.336C6.19733 10.5707 6.32533 10.784 6.368 10.976C6.752 11.616 6.86933 12.1067 6.72 12.448C6.57067 12.7893 6.208 13.088 5.632 13.344C5.41867 13.4507 5.06667 13.536 4.576 13.6C4.08533 13.664 3.584 13.696 3.072 13.696C2.56 13.7173 2.15467 13.7067 1.856 13.664Z" fill="#1A1A1A"/>
</svg>
