<svg width="15" height="11" viewBox="0 0 15 11" fill="none" xmlns="http://www.w3.org/2000/svg">
<path d="M1.58629 10.2976C1.26629 10.2976 0.967619 10.1056 0.690286 9.7216C0.434286 9.31627 0.242286 8.80427 0.114286 8.1856C0.00761906 7.5456 -0.024381 6.88427 0.0182858 6.2016C0.0182858 5.51893 0.0502858 4.97493 0.114286 4.5696C0.199619 4.14293 0.284952 3.72693 0.370286 3.3216C0.434286 3.1936 0.466286 3.08693 0.466286 3.0016C0.487619 2.91627 0.508952 2.7776 0.530286 2.5856C0.572953 2.3936 0.647619 2.0736 0.754286 1.6256C0.839619 1.26293 0.924952 0.964267 1.01029 0.7296C1.09562 0.494934 1.18095 0.334933 1.26629 0.2496C1.37295 0.1216 1.51162 0.0469337 1.68229 0.0256C1.85295 -0.0170668 2.02362 -0.00639993 2.19429 0.0576005C2.36495 0.1216 2.50362 0.238934 2.61029 0.409601C2.73829 0.516267 2.80229 0.7616 2.80229 1.1456C2.82362 1.50827 2.80229 1.89227 2.73829 2.2976C2.67429 2.6816 2.57829 2.95893 2.45029 3.1296C2.40762 3.23627 2.35429 3.5136 2.29029 3.9616C2.24762 4.4096 2.19429 4.87893 2.13029 5.3696C2.08762 5.86027 2.03429 6.25493 1.97029 6.5536C1.90629 6.9376 1.93829 7.24693 2.06629 7.4816C2.21562 7.71627 2.48229 7.72693 2.86629 7.5136C3.27162 7.27893 3.80495 6.6816 4.46629 5.7216C4.91429 5.0816 5.25562 4.55893 5.49029 4.1536C5.72495 3.74827 5.90629 3.37493 6.03429 3.0336C6.18362 2.67093 6.33295 2.28693 6.48229 1.8816C6.58895 1.54027 6.68495 1.26293 6.77029 1.0496C6.87695 0.814933 6.97295 0.6656 7.05829 0.6016C7.20762 0.494934 7.37829 0.452267 7.57029 0.4736C7.78362 0.494934 8.01829 0.590934 8.27429 0.7616C8.53029 1.0176 8.65829 1.32693 8.65829 1.6896C8.65829 2.03093 8.53029 2.4576 8.27429 2.9696C8.10362 3.31093 7.93295 3.74827 7.76229 4.2816C7.61295 4.81493 7.48495 5.35893 7.37829 5.9136C7.29295 6.44693 7.25029 6.88427 7.25029 7.2256C7.25029 7.65227 7.30362 7.90827 7.41029 7.9936C7.53829 8.0576 7.68762 8.0896 7.85829 8.0896C8.11429 8.0896 8.42362 7.9936 8.78629 7.8016C9.14895 7.6096 9.55429 7.27893 10.0023 6.8096C10.1943 6.6176 10.429 6.34027 10.7063 5.9776C10.9836 5.5936 11.2503 5.19893 11.5063 4.7936C11.7836 4.36693 12.0076 3.9936 12.1783 3.6736C12.3703 3.3536 12.4663 3.15093 12.4663 3.0656C12.4663 2.9376 12.5623 2.75627 12.7543 2.5216C12.8823 2.35093 12.9783 2.22293 13.0423 2.1376C13.1276 2.03093 13.277 1.92427 13.4903 1.8176C13.661 1.73227 13.8103 1.7216 13.9383 1.7856C14.0663 1.82827 14.205 1.93493 14.3543 2.1056C14.461 2.19093 14.5143 2.31893 14.5143 2.4896C14.5356 2.66027 14.5463 2.8736 14.5463 3.1296C14.4823 3.36427 14.3756 3.6736 14.2263 4.0576C14.0983 4.42027 13.949 4.77227 13.7783 5.1136C13.629 5.4336 13.501 5.6576 13.3943 5.7856C13.309 5.87093 13.1596 6.03093 12.9463 6.2656C12.733 6.47893 12.541 6.7136 12.3703 6.9696C11.837 7.6096 11.453 8.0256 11.2183 8.2176C10.9836 8.4096 10.781 8.59093 10.6103 8.7616C10.1623 9.2096 9.69295 9.55093 9.20229 9.7856C8.71162 9.99893 8.24229 10.1056 7.79429 10.1056C7.36762 10.1056 7.00495 9.99893 6.70629 9.7856C6.04495 9.44427 5.71429 8.86827 5.71429 8.0576C5.71429 7.88693 5.68229 7.7376 5.61829 7.6096C5.57562 7.46027 5.55429 7.3856 5.55429 7.3856C5.46895 7.3856 5.35162 7.40693 5.20229 7.4496C5.07429 7.49227 4.93562 7.6416 4.78629 7.8976C4.59429 8.26027 4.28495 8.6336 3.85829 9.0176C3.45295 9.38027 3.03695 9.6896 2.61029 9.9456C2.18362 10.1803 1.84229 10.2976 1.58629 10.2976Z" fill="#1A1A1A"/>
</svg>
