<svg width="13" height="11" viewBox="0 0 13 11" fill="none" xmlns="http://www.w3.org/2000/svg">
<path d="M3.62764 10.4411C2.81697 10.5478 2.20897 10.6225 1.80364 10.6651C1.3983 10.6865 1.08897 10.6545 0.875636 10.5691C0.683636 10.4838 0.470303 10.3345 0.235636 10.1211C0.0436364 9.95048 -0.0310303 9.74781 0.0116364 9.51314C0.0756364 9.27848 0.438303 8.81981 1.09964 8.13714C1.50497 7.64648 1.92097 7.18781 2.34764 6.76114C2.7743 6.31314 3.1583 5.95048 3.49964 5.67314C3.64897 5.54514 3.81964 5.41714 4.01164 5.28914C4.20364 5.13981 4.51297 4.91581 4.93964 4.61714C5.3663 4.31848 5.99564 3.89181 6.82764 3.33714C7.23297 3.01714 7.55297 2.77181 7.78764 2.60114C8.0223 2.43048 8.2143 2.29181 8.36364 2.18514C8.5343 2.05714 8.70497 1.92914 8.87564 1.80114C8.7263 1.77981 8.39564 1.74781 7.88364 1.70514C7.39297 1.66248 6.9343 1.66248 6.50764 1.70514C5.9103 1.70514 5.5263 1.70514 5.35564 1.70514C5.18497 1.68381 5.0143 1.65181 4.84364 1.60914H4.36364C4.25697 1.60914 4.06497 1.56648 3.78764 1.48114C3.5103 1.37448 3.2543 1.24648 3.01964 1.09714C2.78497 0.947809 2.65697 0.798476 2.63564 0.649143C2.63564 0.649143 2.69964 0.617143 2.82764 0.553143C2.95564 0.467809 3.0623 0.382476 3.14764 0.297142C3.3183 0.190476 3.4463 0.105143 3.53164 0.0411428C3.6383 -0.022857 3.7343 -0.0121905 3.81964 0.0731424C3.81964 0.0731424 4.0223 0.0731424 4.42764 0.0731424C4.83297 0.0518093 5.29164 0.0304763 5.80364 0.00914321C7.04097 0.0304763 7.94764 0.0731427 8.52364 0.137143C9.12097 0.179809 9.5583 0.265143 9.83564 0.393143C10.1343 0.521143 10.4223 0.713143 10.6996 0.969143C11.041 1.31048 11.1796 1.64114 11.1156 1.96114C11.0516 2.28114 10.9023 2.56914 10.6676 2.82514C10.5823 2.91048 10.497 3.00648 10.4116 3.11314C10.3476 3.19848 10.2836 3.24114 10.2196 3.24114C10.2196 3.24114 10.0703 3.33714 9.77164 3.52914C9.47297 3.72114 9.1103 3.95581 8.68364 4.23314C8.2783 4.51048 7.87297 4.76648 7.46764 5.00114C7.08364 5.23581 6.84897 5.40648 6.76364 5.51314C6.6143 5.59848 6.43297 5.71581 6.21964 5.86514C6.0063 5.99314 5.85697 6.09981 5.77164 6.18514C5.70764 6.27048 5.5583 6.41981 5.32364 6.63314C5.1103 6.84648 4.87564 7.03848 4.61964 7.20914C4.42764 7.37981 4.19297 7.59314 3.91564 7.84914C3.65964 8.10514 3.43564 8.32914 3.24364 8.52114C3.05164 8.71314 2.95564 8.80914 2.95564 8.80914C2.95564 8.80914 3.16897 8.78781 3.59564 8.74514C4.0223 8.68114 4.55564 8.62781 5.19564 8.58514C5.83564 8.52114 6.46497 8.51048 7.08364 8.55314C8.0863 8.53181 8.87564 8.51048 9.45164 8.48914C10.049 8.44648 10.497 8.43581 10.7956 8.45714C11.1156 8.45714 11.361 8.49981 11.5316 8.58514C11.681 8.62781 11.809 8.71314 11.9156 8.84114C12.0436 8.96914 12.129 9.10781 12.1716 9.25714C12.2356 9.38514 12.2463 9.48114 12.2036 9.54514C12.1183 9.54514 11.7876 9.57714 11.2116 9.64114C10.6356 9.68381 9.9743 9.72648 9.22764 9.76914C8.2463 9.85448 7.29697 9.96114 6.37964 10.0891C5.4623 10.2171 4.54497 10.3345 3.62764 10.4411Z" fill="#1A1A1A"/>
</svg>
