<svg width="28" height="28" viewBox="0 0 28 28" fill="none" xmlns="http://www.w3.org/2000/svg">
<path d="M7.808 27.296C6.336 27.296 5.00267 26.9333 3.808 26.208C2.63467 25.4827 1.70667 24.4373 1.024 23.072C0.341333 21.6853 0 20.0533 0 18.176C0 14.9333 0.693333 11.936 2.08 9.184C3.46667 6.41067 5.51467 4.192 8.224 2.528C10.9333 0.842667 14.1867 0 17.984 0C18.9653 0 20.0107 0.074667 21.12 0.224001C22.2507 0.373334 23.2747 0.597333 24.192 0.896C24.7893 1.06667 25.088 1.49333 25.088 2.176C25.088 2.73067 24.8747 3.25333 24.448 3.744C24.0427 4.23467 23.5627 4.48 23.008 4.48C22.8373 4.48 22.7093 4.46933 22.624 4.448C21.5147 4.192 20.5653 4.01067 19.776 3.904C18.9867 3.776 18.1547 3.712 17.28 3.712C14.5707 3.712 12.2667 4.37333 10.368 5.696C8.46933 6.99733 7.05067 8.72533 6.112 10.88C5.17333 13.0347 4.704 15.36 4.704 17.856C4.704 19.6693 5.056 21.0773 5.76 22.08C6.48533 23.0613 7.424 23.552 8.576 23.552C9.87733 23.552 11.0187 23.0187 12 21.952C12.9813 20.8853 13.8773 19.1573 14.688 16.768C15.4987 14.3787 16.2987 11.136 17.088 7.04C17.216 6.44267 17.472 6.03733 17.856 5.824C18.24 5.61067 18.752 5.504 19.392 5.504C20.9067 5.504 21.664 5.99467 21.664 6.976C21.664 7.14667 21.632 7.36 21.568 7.616C21.0133 9.68533 20.5013 11.9787 20.032 14.496C19.584 16.992 19.36 18.8907 19.36 20.192C19.36 21.344 19.5307 22.1867 19.872 22.72C20.2133 23.232 20.736 23.488 21.44 23.488C22.1227 23.488 22.7733 23.264 23.392 22.816C24.0107 22.3467 24.7893 21.5573 25.728 20.448C25.984 20.1493 26.272 20 26.592 20C26.8693 20 27.0827 20.128 27.232 20.384C27.4027 20.64 27.488 20.992 27.488 21.44C27.488 22.272 27.2853 22.9333 26.88 23.424C25.8347 24.6827 24.8107 25.6427 23.808 26.304C22.8053 26.9653 21.5787 27.296 20.128 27.296C18.6347 27.296 17.4293 26.8693 16.512 26.016C15.5947 25.1413 15.0187 23.9147 14.784 22.336C13.2053 25.6427 10.88 27.296 7.808 27.296Z" fill="#1A1A1A"/>
</svg>
