<svg width="28" height="30" viewBox="0 0 28 30" fill="none" xmlns="http://www.w3.org/2000/svg">
<path d="M27.136 7.104C27.136 8.91733 26.496 10.4853 25.216 11.808C23.936 13.1093 22.0693 14.048 19.616 14.624C20.9387 14.9867 21.9413 15.584 22.624 16.416C23.3067 17.2267 23.648 18.1653 23.648 19.232C23.648 20.9173 23.1147 22.3787 22.048 23.616C21.0027 24.8533 19.4667 25.8133 17.44 26.496C15.4133 27.1573 12.9707 27.488 10.112 27.488C9.04533 27.488 8.192 27.456 7.552 27.392C7.53067 27.9893 7.27467 28.4373 6.784 28.736C6.29333 29.0347 5.664 29.184 4.896 29.184C4.128 29.184 3.59467 29.0133 3.296 28.672C3.01867 28.3307 2.90133 27.8293 2.944 27.168C3.136 24.1813 3.50933 21.056 4.064 17.792C4.61867 14.5067 5.32267 11.3387 6.176 8.288C6.32533 7.75467 6.624 7.38133 7.072 7.168C7.52 6.95467 8.10667 6.848 8.832 6.848C10.1333 6.848 10.784 7.21067 10.784 7.936C10.784 8.23467 10.72 8.576 10.592 8.96C10.0373 10.624 9.48267 12.8853 8.928 15.744C8.37333 18.5813 7.97867 21.2907 7.744 23.872C8.768 23.9573 9.6 24 10.24 24C13.2267 24 15.4133 23.5733 16.8 22.72C18.208 21.8453 18.912 20.736 18.912 19.392C18.912 18.4533 18.5067 17.664 17.696 17.024C16.9067 16.384 15.5733 16.032 13.696 15.968C13.2693 15.9467 12.9707 15.84 12.8 15.648C12.6293 15.456 12.544 15.1467 12.544 14.72C12.544 14.1013 12.672 13.6 12.928 13.216C13.184 12.832 13.6533 12.6293 14.336 12.608C15.8507 12.5653 17.216 12.3413 18.432 11.936C19.6693 11.5307 20.64 10.9653 21.344 10.24C22.048 9.49333 22.4 8.62933 22.4 7.648C22.4 6.41067 21.792 5.44 20.576 4.736C19.36 4.01067 17.4933 3.648 14.976 3.648C12.6933 3.648 10.4853 3.94667 8.352 4.544C6.21867 5.12 4.40533 5.856 2.912 6.752C2.22933 7.15733 1.65333 7.36 1.184 7.36C0.8 7.36 0.501333 7.232 0.288 6.976C0.096 6.69867 0 6.35733 0 5.952C0 5.41867 0.106667 4.96 0.32 4.576C0.554667 4.192 1.09867 3.75467 1.952 3.264C3.744 2.24 5.84533 1.44 8.256 0.864C10.6667 0.288 13.1307 0 15.648 0C19.5093 0 22.3893 0.650667 24.288 1.952C26.1867 3.25333 27.136 4.97067 27.136 7.104Z" fill="#1A1A1A"/>
</svg>
