<svg width="24" height="28" viewBox="0 0 24 28" fill="none" xmlns="http://www.w3.org/2000/svg">
<path d="M12.448 27.296C9.90933 27.296 7.70133 26.8373 5.824 25.92C3.94667 24.9813 2.50667 23.6587 1.504 21.952C0.501333 20.2453 0 18.2613 0 16C0 12.864 0.586667 10.08 1.76 7.648C2.95467 5.216 4.56533 3.33867 6.592 2.016C8.61867 0.672 10.8693 0 13.344 0C15.648 0 17.3973 0.597333 18.592 1.792C19.7867 2.96533 20.384 4.52267 20.384 6.464C20.384 7.76533 20.1493 8.81067 19.68 9.6C19.232 10.3893 18.5813 10.784 17.728 10.784C17.1307 10.784 16.6613 10.6453 16.32 10.368C15.9787 10.0907 15.808 9.68533 15.808 9.152C15.808 8.96 15.8507 8.608 15.936 8.096C16.064 7.456 16.128 6.944 16.128 6.56C16.128 4.61867 15.0933 3.648 13.024 3.648C11.616 3.648 10.272 4.10667 8.992 5.024C7.712 5.94133 6.67733 7.296 5.888 9.088C5.09867 10.8587 4.704 12.9707 4.704 15.424C4.704 17.984 5.41867 19.968 6.848 21.376C8.27733 22.7627 10.3893 23.456 13.184 23.456C14.5707 23.456 15.968 23.2853 17.376 22.944C18.8053 22.5813 20.384 22.0373 22.112 21.312C22.432 21.184 22.6987 21.12 22.912 21.12C23.2533 21.12 23.5093 21.248 23.68 21.504C23.8507 21.76 23.936 22.0907 23.936 22.496C23.936 23.7973 23.232 24.7573 21.824 25.376C20.3093 26.0373 18.7307 26.528 17.088 26.848C15.4667 27.1467 13.92 27.296 12.448 27.296Z" fill="#1A1A1A"/>
</svg>
