<svg width="25" height="28" viewBox="0 0 25 28" fill="none" xmlns="http://www.w3.org/2000/svg">
<path d="M8.416 27.68C7.17867 27.68 5.78133 27.5733 4.224 27.36C3.37067 27.2533 2.784 27.0293 2.464 26.688C2.144 26.3467 2.00533 25.792 2.048 25.024C2.19733 22.912 2.54933 20.3093 3.104 17.216C3.65867 14.1013 4.33067 11.104 5.12 8.224C5.26933 7.69067 5.568 7.31733 6.016 7.104C6.464 6.89067 7.05067 6.784 7.776 6.784C9.07733 6.784 9.728 7.14667 9.728 7.872C9.728 8.17067 9.664 8.512 9.536 8.896C8.98133 10.6027 8.42667 12.896 7.872 15.776C7.31733 18.6347 6.92267 21.3653 6.688 23.968C7.328 24.032 8.05333 24.064 8.864 24.064C12.5973 24.064 15.3813 22.9333 17.216 20.672C19.072 18.4107 20 15.392 20 11.616C20 9.07733 19.2747 7.11467 17.824 5.728C16.3733 4.34133 14.3253 3.648 11.68 3.648C9.97333 3.648 8.27733 3.91467 6.592 4.448C4.928 4.98133 3.424 5.68533 2.08 6.56C1.80267 6.752 1.504 6.848 1.184 6.848C0.821333 6.848 0.533333 6.69867 0.32 6.4C0.106667 6.08 0 5.696 0 5.248C0 4.736 0.0853333 4.32 0.256 4C0.426667 3.65867 0.714667 3.34933 1.12 3.072C2.592 2.06933 4.32 1.312 6.304 0.799999C8.288 0.266666 10.1973 0 12.032 0C14.6347 0 16.8853 0.458667 18.784 1.376C20.6827 2.272 22.144 3.59467 23.168 5.344C24.192 7.09333 24.704 9.20533 24.704 11.68C24.704 14.9013 24.064 17.7173 22.784 20.128C21.504 22.5173 19.6373 24.3733 17.184 25.696C14.7307 27.0187 11.808 27.68 8.416 27.68Z" fill="#1A1A1A"/>
</svg>
