<svg width="25" height="28" viewBox="0 0 25 28" fill="none" xmlns="http://www.w3.org/2000/svg">
<path d="M23.168 21.312C23.488 21.184 23.7547 21.12 23.968 21.12C24.3093 21.12 24.5653 21.248 24.736 21.504C24.9067 21.76 24.992 22.0907 24.992 22.496C24.992 23.136 24.832 23.68 24.512 24.128C24.2133 24.576 23.6907 24.9813 22.944 25.344C21.6853 25.9413 20.0533 26.4213 18.048 26.784C16.0427 27.1253 14.0693 27.296 12.128 27.296C9.44 27.296 7.18933 26.9973 5.376 26.4C3.56267 25.7813 2.208 24.9387 1.312 23.872C0.437333 22.8053 0 21.6 0 20.256C0 18.4213 0.586667 16.864 1.76 15.584C2.95467 14.2827 4.704 13.344 7.008 12.768C5.74933 12.4053 4.77867 11.7653 4.096 10.848C3.43467 9.93067 3.104 8.90667 3.104 7.776C3.104 6.24 3.584 4.88533 4.544 3.712C5.52533 2.51733 6.83733 1.6 8.48 0.960001C10.1227 0.32 11.9253 0 13.888 0C16.5333 0 18.5173 0.576 19.84 1.728C21.1627 2.85867 21.824 4.33067 21.824 6.144C21.824 7.40267 21.5893 8.42667 21.12 9.216C20.672 9.984 20.0213 10.368 19.168 10.368C18.5707 10.368 18.1013 10.24 17.76 9.984C17.4187 9.70667 17.248 9.30133 17.248 8.768C17.248 8.40533 17.3013 8.01067 17.408 7.584C17.5147 6.88 17.568 6.4 17.568 6.144C17.568 5.376 17.28 4.75733 16.704 4.288C16.128 3.79733 15.168 3.552 13.824 3.552C12.0107 3.552 10.56 3.936 9.472 4.704C8.384 5.472 7.84 6.50667 7.84 7.808C7.84 8.81067 8.24533 9.64267 9.056 10.304C9.888 10.944 11.232 11.296 13.088 11.36C13.5573 11.3813 13.888 11.488 14.08 11.68C14.272 11.872 14.368 12.192 14.368 12.64C14.368 14.048 13.728 14.7627 12.448 14.784C10.6773 14.8267 9.20533 15.072 8.032 15.52C6.88 15.968 6.03733 16.544 5.504 17.248C4.992 17.9307 4.736 18.6667 4.736 19.456C4.736 20.7787 5.35467 21.7813 6.592 22.464C7.82933 23.1253 9.792 23.456 12.48 23.456C14.2507 23.456 16.1173 23.2533 18.08 22.848C20.064 22.4213 21.76 21.9093 23.168 21.312Z" fill="#1A1A1A"/>
</svg>
