<svg width="33" height="36" viewBox="0 0 33 36" fill="none" xmlns="http://www.w3.org/2000/svg">
<path d="M7.456 35.712C6.66667 35.712 6.10133 35.5413 5.76 35.2C5.41867 34.8373 5.248 34.1653 5.248 33.184C5.248 32.5227 5.312 31.7227 5.44 30.784C5.568 29.8453 5.792 28.4267 6.112 26.528C6.15467 26.272 6.32533 25.2373 6.624 23.424C6.92267 21.5893 7.18933 19.6693 7.424 17.664C7.63733 15.9573 7.744 14.6773 7.744 13.824C7.744 12.864 7.392 12.384 6.688 12.384C6.15467 12.384 5.48267 12.672 4.672 13.248C3.88267 13.8027 3.02933 14.6987 2.112 15.936C1.81333 16.3413 1.48267 16.544 1.12 16.544C0.821333 16.544 0.554667 16.4053 0.32 16.128C0.106667 15.8293 0 15.4987 0 15.136C0 14.7733 0.064 14.432 0.192 14.112C0.32 13.7707 0.554667 13.3653 0.896 12.896C1.94133 11.4667 3.104 10.368 4.384 9.6C5.664 8.81067 7.008 8.416 8.416 8.416C9.58933 8.416 10.464 8.77867 11.04 9.504C11.6373 10.2293 11.936 11.2853 11.936 12.672C11.936 13.9093 11.7653 15.7013 11.424 18.048C12.4907 14.8907 13.8453 12.5013 15.488 10.88C17.1307 9.23733 19.0613 8.416 21.28 8.416C23.0293 8.416 24.3413 8.91733 25.216 9.92C26.112 10.9013 26.56 12.224 26.56 13.888C26.56 14.8267 26.4213 15.968 26.144 17.312L24.192 26.464C23.9787 27.5307 23.872 28.448 23.872 29.216C23.872 30.112 24.0747 30.784 24.48 31.232C24.9067 31.68 25.4933 31.904 26.24 31.904C26.944 31.904 27.6267 31.6693 28.288 31.2C28.9707 30.7307 29.7707 29.952 30.688 28.864C30.944 28.5653 31.232 28.416 31.552 28.416C31.8293 28.416 32.0427 28.544 32.192 28.8C32.3627 29.056 32.448 29.408 32.448 29.856C32.448 30.688 32.2453 31.3493 31.84 31.84C30.7307 33.184 29.632 34.1653 28.544 34.784C27.456 35.4027 26.3147 35.712 25.12 35.712C23.3067 35.712 21.888 35.1787 20.864 34.112C19.84 33.024 19.328 31.5733 19.328 29.76C19.328 29.056 19.3813 28.288 19.488 27.456C19.616 26.624 19.8187 25.568 20.096 24.288L21.376 18.432C21.4187 18.24 21.4933 17.8987 21.6 17.408C21.7067 16.9173 21.792 16.4587 21.856 16.032C21.92 15.584 21.952 15.1467 21.952 14.72C21.952 14.0373 21.76 13.4933 21.376 13.088C20.992 12.6827 20.448 12.48 19.744 12.48C18.464 12.48 17.184 13.1627 15.904 14.528C14.624 15.8933 13.44 18.1013 12.352 21.152C11.264 24.1813 10.4107 28.064 9.792 32.8C9.64267 33.888 9.41867 34.6453 9.12 35.072C8.84267 35.4987 8.288 35.712 7.456 35.712ZM21.152 6.368C20.8107 6.368 20.4907 6.31467 20.192 6.208C19.8933 6.08 19.5093 5.856 19.04 5.536L15.616 3.168L14.208 5.184C14.0373 5.41867 13.8133 5.6 13.536 5.728C13.28 5.83467 13.0133 5.888 12.736 5.888C12.3307 5.888 11.9787 5.78133 11.68 5.568C11.4027 5.35467 11.264 5.04533 11.264 4.64C11.264 4.064 11.6587 3.2 12.448 2.048C13.3867 0.682667 14.4213 0 15.552 0C15.9147 0 16.2347 0.0533333 16.512 0.16C16.8107 0.266666 17.1947 0.490667 17.664 0.832001L21.088 3.2L22.496 1.184C22.6667 0.949334 22.88 0.778667 23.136 0.672001C23.4133 0.544 23.6907 0.48 23.968 0.48C24.3733 0.48 24.7147 0.586666 24.992 0.799999C25.2907 1.01333 25.44 1.32267 25.44 1.728C25.44 2.00533 25.3547 2.32533 25.184 2.688C25.0133 3.02933 24.704 3.57333 24.256 4.32C23.8293 5.024 23.3493 5.54667 22.816 5.888C22.2827 6.208 21.728 6.368 21.152 6.368Z" fill="#1A1A1A"/>
</svg>
