<svg width="30" height="28" viewBox="0 0 30 28" fill="none" xmlns="http://www.w3.org/2000/svg">
<path d="M28.416 0.576C29.0133 0.661334 29.4187 0.842667 29.632 1.12C29.8667 1.39733 29.984 1.76 29.984 2.208C29.984 3.68 29.1947 4.36267 27.616 4.256L26.496 4.16C25.2373 4.05333 23.9787 3.968 22.72 3.904C21.4827 3.84 20.1813 3.808 18.816 3.808H17.376C17.12 6.96533 16.8533 9.84533 16.576 12.448L22.08 12.352C22.8693 12.352 23.392 12.4907 23.648 12.768C23.9253 13.0453 24.064 13.4187 24.064 13.888C24.064 14.6133 23.8507 15.1893 23.424 15.616C22.9973 16.0213 22.3893 16.224 21.6 16.224H16.128L15.936 17.6C15.488 21.12 14.528 23.6267 13.056 25.12C11.6053 26.6133 9.6 27.36 7.04 27.36C5.58933 27.36 4.256 27.0507 3.04 26.432C1.824 25.792 0.928 25.024 0.352 24.128C0.117333 23.7653 0 23.328 0 22.816C0 22.304 0.117333 21.856 0.352 21.472C0.608 21.088 0.917333 20.896 1.28 20.896C1.536 20.896 1.78133 20.9813 2.016 21.152C2.272 21.3227 2.592 21.6533 2.976 22.144C4 23.488 5.26933 24.16 6.784 24.16C8 24.16 9.01333 23.6693 9.824 22.688C10.656 21.6853 11.1893 20.1173 11.424 17.984L11.616 16.224H10.08C9.58933 16.224 9.16267 16.0853 8.8 15.808C8.45867 15.5307 8.288 15.136 8.288 14.624C8.288 13.9627 8.45867 13.4613 8.8 13.12C9.14133 12.7573 9.64267 12.576 10.304 12.576C10.9013 12.576 11.488 12.5653 12.064 12.544C12.32 10.1973 12.5973 7.34933 12.896 4C10.592 4.21333 8.97067 4.58667 8.032 5.12C7.09333 5.65333 6.624 6.44267 6.624 7.488C6.624 8.21333 6.83733 8.90667 7.264 9.568C7.392 9.76 7.456 9.952 7.456 10.144C7.456 10.528 7.24267 10.8693 6.816 11.168C6.38933 11.4453 5.90933 11.584 5.376 11.584C4.8 11.584 4.30933 11.4133 3.904 11.072C3.648 10.8587 3.40267 10.4213 3.168 9.76C2.93333 9.09867 2.816 8.36267 2.816 7.552C2.816 4.90667 4.17067 2.98667 6.88 1.792C9.61067 0.597334 13.5893 0 18.816 0C22.4427 0 25.6427 0.192 28.416 0.576Z" fill="#1A1A1A"/>
</svg>
