<svg width="28" height="42" viewBox="0 0 28 42" fill="none" xmlns="http://www.w3.org/2000/svg">
<path d="M26.496 20.064C26.7733 20.064 26.9867 20.2027 27.136 20.48C27.3067 20.736 27.392 21.0667 27.392 21.472C27.392 21.9627 27.3173 22.3467 27.168 22.624C27.0187 22.9013 26.784 23.1467 26.464 23.36C25.2053 24.192 23.2 25.5573 20.448 27.456C19.616 31.872 18.5387 35.3493 17.216 37.888C15.8933 40.4267 14.2187 41.696 12.192 41.696C11.104 41.696 10.2187 41.3547 9.536 40.672C8.85333 40.0107 8.512 39.136 8.512 38.048C8.512 37.0453 8.736 36.032 9.184 35.008C9.632 33.984 10.464 32.8 11.68 31.456C12.9173 30.112 14.656 28.576 16.896 26.848L16.992 26.24C15.3067 26.944 13.6533 27.296 12.032 27.296C9.64267 27.296 7.54133 26.8373 5.728 25.92C3.91467 24.9813 2.50667 23.6587 1.504 21.952C0.501333 20.2453 0 18.2613 0 16C0 12.8427 0.597333 10.0587 1.792 7.648C2.98667 5.216 4.62933 3.33867 6.72 2.016C8.832 0.672 11.1893 0 13.792 0C16.288 0 18.1547 0.586667 19.392 1.76C20.6507 2.912 21.28 4.448 21.28 6.368C21.28 7.62667 21.0453 8.64 20.576 9.408C20.128 10.1547 19.4773 10.528 18.624 10.528C18.048 10.528 17.5787 10.3893 17.216 10.112C16.8747 9.83467 16.704 9.45067 16.704 8.96C16.704 8.74667 16.7467 8.384 16.832 7.872C16.96 7.27467 17.024 6.80533 17.024 6.464C17.024 5.568 16.7467 4.87467 16.192 4.384C15.6587 3.89333 14.752 3.648 13.472 3.648C11.9147 3.648 10.464 4.096 9.12 4.992C7.79733 5.888 6.73067 7.232 5.92 9.024C5.10933 10.7947 4.704 12.928 4.704 15.424C4.704 17.984 5.39733 19.968 6.784 21.376C8.192 22.7627 10.2187 23.456 12.864 23.456C14.336 23.456 15.872 23.1253 17.472 22.464L17.92 18.56H14.656C14.0587 18.56 13.6 18.4213 13.28 18.144C12.96 17.8453 12.8 17.3653 12.8 16.704C12.8 16.1067 12.96 15.6373 13.28 15.296C13.6 14.9547 14.0267 14.784 14.56 14.784H20.544C21.0133 14.784 21.3973 14.944 21.696 15.264C22.016 15.5627 22.144 16 22.08 16.576C22.016 17.2587 21.8027 18.8053 21.44 21.216L21.088 23.648C22.7947 22.368 24.352 21.2587 25.76 20.32C26.0373 20.1493 26.2827 20.064 26.496 20.064ZM12.544 38.592C13.0987 38.592 13.7067 37.9627 14.368 36.704C15.0293 35.4453 15.648 33.4187 16.224 30.624C14.6027 32.0107 13.4293 33.2587 12.704 34.368C12 35.4987 11.648 36.4907 11.648 37.344C11.648 38.176 11.9467 38.592 12.544 38.592Z" fill="#1A1A1A"/>
</svg>
