<svg width="33" height="29" viewBox="0 0 33 29" fill="none" xmlns="http://www.w3.org/2000/svg">
<path d="M31.68 20.928C31.9573 20.928 32.1707 21.056 32.32 21.312C32.4907 21.568 32.576 21.92 32.576 22.368C32.576 23.2 32.3733 23.8613 31.968 24.352C29.856 26.9333 27.6053 28.224 25.216 28.224C23.1467 28.224 21.4933 27.424 20.256 25.824C19.0187 24.224 18.4 21.9307 18.4 18.944C18.4 18.2187 18.432 17.4933 18.496 16.768C17.088 17.024 15.552 17.216 13.888 17.344C12.7787 17.4293 12.0213 17.4827 11.616 17.504C11.1893 19.68 10.592 22.3467 9.824 25.504C9.376 27.36 8.52267 28.288 7.264 28.288C5.89867 28.288 5.216 27.6693 5.216 26.432C5.216 26.1547 5.26933 25.7707 5.376 25.28C6.10133 22.3573 6.67733 19.8827 7.104 17.856L5.568 17.92C4.864 17.92 4.352 17.8027 4.032 17.568C3.712 17.312 3.552 16.9067 3.552 16.352C3.552 15.648 3.75467 15.136 4.16 14.816C4.56533 14.4747 5.23733 14.2827 6.176 14.24L7.872 14.176C8.42667 11.168 8.704 8.87467 8.704 7.296C8.704 6.29333 8.55467 5.61067 8.256 5.248C7.95733 4.88533 7.56267 4.704 7.072 4.704C5.57867 4.704 3.89333 5.952 2.016 8.448C1.73867 8.81067 1.42933 8.992 1.088 8.992C0.789333 8.992 0.533333 8.85333 0.32 8.576C0.106667 8.29867 0 7.94667 0 7.52C0 6.85867 0.266667 6.15467 0.8 5.408C1.73867 4.10667 2.92267 3.04 4.352 2.208C5.78133 1.35467 7.232 0.927999 8.704 0.927999C10.0907 0.927999 11.1573 1.408 11.904 2.368C12.672 3.30667 13.056 4.77867 13.056 6.784C13.056 8.55467 12.8 10.9547 12.288 13.984L15.424 13.824C16.768 13.76 17.92 13.6533 18.88 13.504C19.264 11.1573 19.8507 8.96 20.64 6.912C21.4293 4.864 22.4107 3.2 23.584 1.92C24.7573 0.64 26.0693 0 27.52 0C28.5867 0 29.4293 0.426667 30.048 1.28C30.6667 2.112 30.976 3.21067 30.976 4.576C30.976 9.86667 28.2773 13.536 22.88 15.584C22.816 16.4373 22.784 17.3227 22.784 18.24C22.784 20.48 23.0613 22.0693 23.616 23.008C24.1707 23.9467 24.9493 24.416 25.952 24.416C26.8267 24.416 27.6267 24.192 28.352 23.744C29.0773 23.2747 29.8987 22.4853 30.816 21.376C31.072 21.0773 31.36 20.928 31.68 20.928ZM27.36 2.784C26.8907 2.784 26.3893 3.21067 25.856 4.064C25.344 4.91733 24.8533 6.08 24.384 7.552C23.9147 9.024 23.5413 10.6347 23.264 12.384C24.9707 11.68 26.2293 10.6773 27.04 9.376C27.8507 8.07467 28.256 6.4 28.256 4.352C28.256 3.86133 28.1707 3.47733 28 3.2C27.8293 2.92267 27.616 2.784 27.36 2.784Z" fill="#1A1A1A"/>
</svg>
