<svg width="19" height="28" viewBox="0 0 19 28" fill="none" xmlns="http://www.w3.org/2000/svg">
<path d="M16.352 0.0319996C16.9067 0.0319996 17.376 0.170666 17.76 0.448C18.144 0.704 18.336 1.024 18.336 1.408C18.336 2.09067 18.1227 2.64533 17.696 3.072C17.2693 3.47733 16.6613 3.68 15.872 3.68C14.6347 3.68 13.696 3.69067 13.056 3.712C13.0133 3.968 12.8213 5.12 12.48 7.168C12.096 9.45067 11.8613 10.848 11.776 11.36L11.104 15.552C10.6347 18.688 10.2613 21.312 9.984 23.424C10.432 23.4027 11.04 23.392 11.808 23.392C12.9387 23.392 13.7067 23.5413 14.112 23.84C14.5173 24.1387 14.72 24.5867 14.72 25.184C14.72 25.7387 14.496 26.208 14.048 26.592C13.6213 26.976 13.0133 27.168 12.224 27.168C11.6907 27.168 10.848 27.1467 9.696 27.104C8.62933 27.0613 7.92533 27.04 7.584 27.04C6.24 27.04 4.768 27.1573 3.168 27.392C2.464 27.4987 1.96267 27.552 1.664 27.552C1.19467 27.552 0.8 27.424 0.48 27.168C0.16 26.912 0 26.5387 0 26.048C0 25.28 0.341333 24.6827 1.024 24.256C1.70667 23.8293 2.66667 23.6053 3.904 23.584L5.408 23.552L5.504 22.848C6.016 19.4347 6.38933 17.024 6.624 15.616L7.328 11.424C7.75467 8.94933 8.13867 6.4 8.48 3.776L5.792 3.808C5.024 3.808 4.49067 3.69067 4.192 3.456C3.91467 3.2 3.776 2.848 3.776 2.4C3.776 0.949335 4.82133 0.170668 6.912 0.0640011C7.89333 0.0213337 9.088 0 10.496 0L16.352 0.0319996Z" fill="#1A1A1A"/>
</svg>
