<svg width="23" height="31" viewBox="0 0 23 31" fill="none" xmlns="http://www.w3.org/2000/svg">
<path d="M22.24 2.56C22.24 3.2 22.1013 3.68 21.824 4C21.568 4.32 21.1413 4.48 20.544 4.48C20.5013 4.928 20.4053 5.70667 20.256 6.816C20.0427 8.30934 19.9253 9.14133 19.904 9.312C18.0053 23.456 14.048 30.528 8.032 30.528C6.26133 30.528 4.87467 30.0267 3.872 29.024C2.89067 28.0213 2.4 26.7627 2.4 25.248C2.4 22.5387 3.552 20.1493 5.856 18.08C8.16 15.9893 11.1893 14.2613 14.944 12.896C15.1787 11.3813 15.36 10.0267 15.488 8.832L16.064 4C14.784 3.872 13.5893 3.808 12.48 3.808C9.51467 3.808 7.328 4.096 5.92 4.672C4.512 5.248 3.808 6.18667 3.808 7.488C3.808 8.128 4.02133 8.82133 4.448 9.568C4.576 9.78133 4.64 10.0053 4.64 10.24C4.64 10.688 4.40533 11.0933 3.936 11.456C3.488 11.7973 2.99733 11.968 2.464 11.968C1.78133 11.968 1.25867 11.68 0.896 11.104C0.298667 10.1227 0 8.98133 0 7.68C0 2.56 4.48 0 13.44 0C16.0427 0 18.368 0.256001 20.416 0.768002C21.632 1.06667 22.24 1.664 22.24 2.56ZM8.448 27.104C9.49333 27.104 10.5387 26.3147 11.584 24.736C12.6293 23.1573 13.5467 20.3947 14.336 16.448C9.13067 18.7307 6.528 21.5253 6.528 24.832C6.528 25.5573 6.69867 26.1227 7.04 26.528C7.38133 26.912 7.85067 27.104 8.448 27.104Z" fill="#1A1A1A"/>
</svg>
