<svg width="34" height="28" viewBox="0 0 34 28" fill="none" xmlns="http://www.w3.org/2000/svg">
<path d="M32.384 19.968C32.6613 19.968 32.8747 20.096 33.024 20.352C33.1947 20.608 33.28 20.96 33.28 21.408C33.28 22.24 33.0773 22.9013 32.672 23.392C31.648 24.6293 30.6133 25.5893 29.568 26.272C28.5227 26.9333 27.2853 27.264 25.856 27.264C24.2773 27.264 22.9867 26.8053 21.984 25.888C20.9813 24.9493 20.0427 23.4987 19.168 21.536C18.528 20.128 17.9947 19.0827 17.568 18.4C17.1627 17.696 16.7573 17.2053 16.352 16.928C15.9467 16.6293 15.4347 16.448 14.816 16.384L14.464 18.752C14.016 21.8027 13.1413 24 11.84 25.344C10.56 26.688 8.78933 27.36 6.528 27.36C5.056 27.36 3.744 27.008 2.592 26.304C1.46133 25.5787 0.672 24.6613 0.224 23.552C0.0746667 23.168 0 22.752 0 22.304C0 21.664 0.149333 21.1093 0.448 20.64C0.746667 20.1707 1.13067 19.936 1.6 19.936C1.87733 19.936 2.112 20.0107 2.304 20.16C2.496 20.288 2.67733 20.5227 2.848 20.864C3.50933 22.1013 4.08533 22.9653 4.576 23.456C5.088 23.9467 5.71733 24.192 6.464 24.192C7.31733 24.192 8.04267 23.808 8.64 23.04C9.25867 22.2507 9.696 21.0453 9.952 19.424L10.4 16.384H9.888C9.39733 16.384 9.01333 16.2453 8.736 15.968C8.45867 15.6907 8.32 15.3067 8.32 14.816C8.32 14.2613 8.45867 13.824 8.736 13.504C9.03467 13.1627 9.39733 12.992 9.824 12.992H10.88C11.0293 11.9467 11.136 11.2213 11.2 10.816L12.192 3.616C11.6373 3.552 11.1147 3.52 10.624 3.52C8.81067 3.52 7.43467 3.84 6.496 4.48C5.55733 5.09867 5.088 5.99467 5.088 7.168C5.088 7.70133 5.14133 8.13867 5.248 8.48C5.376 8.8 5.536 9.16267 5.728 9.568C5.81333 9.73867 5.856 9.93067 5.856 10.144C5.856 10.6133 5.632 11.0293 5.184 11.392C4.75733 11.7333 4.27733 11.904 3.744 11.904C3.06133 11.904 2.56 11.6053 2.24 11.008C1.6 9.87733 1.28 8.66133 1.28 7.36C1.28 6.016 1.64267 4.78933 2.368 3.68C3.11467 2.57067 4.23467 1.68533 5.728 1.024C7.22133 0.341333 9.06667 0 11.264 0C12.224 0 13.0987 0.0533333 13.888 0.16C14.6987 0.266668 15.584 0.469335 16.544 0.768002C17.5893 1.088 18.112 1.68533 18.112 2.56C18.112 3.73333 17.6107 4.32 16.608 4.32L15.36 12.928C17.856 12.672 19.8827 11.6053 21.44 9.728C23.0187 7.82933 24.3307 5.25867 25.376 2.016C25.568 1.41867 25.888 0.960001 26.336 0.640001C26.8053 0.32 27.392 0.16 28.096 0.16C28.6933 0.16 29.152 0.298667 29.472 0.576C29.8133 0.832001 29.984 1.20533 29.984 1.696C29.984 1.84533 29.9413 2.09067 29.856 2.432C28.7893 5.952 27.264 8.74667 25.28 10.816C23.296 12.8853 21.1307 14.2613 18.784 14.944C19.5947 15.136 20.256 15.424 20.768 15.808C21.3013 16.192 21.7493 16.672 22.112 17.248C22.4747 17.8027 22.8907 18.5813 23.36 19.584C24.0213 20.992 24.64 21.9947 25.216 22.592C25.792 23.168 26.464 23.456 27.232 23.456C27.9147 23.456 28.5653 23.232 29.184 22.784C29.8027 22.3147 30.5813 21.5253 31.52 20.416C31.776 20.1173 32.064 19.968 32.384 19.968Z" fill="#1A1A1A"/>
</svg>
