<svg width="27" height="28" viewBox="0 0 27 28" fill="none" xmlns="http://www.w3.org/2000/svg">
<path d="M26.08 20C26.3573 20 26.5707 20.128 26.72 20.384C26.8907 20.64 26.976 20.992 26.976 21.44C26.976 22.272 26.7733 22.9333 26.368 23.424C25.1733 24.8533 24.0107 25.856 22.88 26.432C21.7707 27.008 20.4267 27.296 18.848 27.296C17.7387 27.296 16.7147 27.1573 15.776 26.88C14.8373 26.6027 13.696 26.1867 12.352 25.632C11.136 25.0987 9.96267 24.6613 8.832 24.32C7.744 26.304 6.112 27.296 3.936 27.296C2.74133 27.296 1.792 27.0293 1.088 26.496C0.362667 25.9413 0 25.2373 0 24.384C0 23.3387 0.501333 22.4747 1.504 21.792C2.50667 21.088 3.84 20.736 5.504 20.736H5.92L6.496 11.424C6.624 9.29067 7.008 7.53067 7.648 6.144C8.288 4.75733 9.17333 3.57333 10.304 2.592C11.2853 1.73867 12.4053 1.09867 13.664 0.672001C14.9227 0.224 16.256 0 17.664 0C19.968 0 21.7387 0.597333 22.976 1.792C24.2133 2.98667 24.832 4.544 24.832 6.464C24.832 7.76533 24.5973 8.82133 24.128 9.632C23.6587 10.4213 23.008 10.816 22.176 10.816C21.5787 10.816 21.1093 10.6773 20.768 10.4C20.4267 10.1013 20.256 9.68533 20.256 9.152C20.256 8.96 20.2987 8.608 20.384 8.096C20.512 7.49867 20.576 6.96533 20.576 6.496C20.576 5.6 20.3093 4.896 19.776 4.384C19.264 3.85067 18.4747 3.584 17.408 3.584C15.5307 3.584 14.08 4.20267 13.056 5.44C12.032 6.656 11.3813 8.576 11.104 11.2L10.368 18.464C10.2613 19.488 10.1227 20.3733 9.952 21.12C11.3173 21.3547 13.024 21.728 15.072 22.24C16.2667 22.5387 17.184 22.752 17.824 22.88C18.464 23.008 19.0293 23.072 19.52 23.072C20.7573 23.072 21.8133 22.8693 22.688 22.464C23.584 22.0373 24.4267 21.3653 25.216 20.448C25.472 20.1493 25.76 20 26.08 20Z" fill="#1A1A1A"/>
</svg>
