<svg width="44" height="28" viewBox="0 0 44 28" fill="none" xmlns="http://www.w3.org/2000/svg">
<path d="M7.456 27.296C6.66667 27.296 6.10133 27.1253 5.76 26.784C5.41867 26.4213 5.248 25.7493 5.248 24.768C5.248 24.1067 5.312 23.264 5.44 22.24C5.58933 21.1947 5.824 19.7653 6.144 17.952C6.69867 14.6027 7.136 11.7013 7.456 9.248C7.648 7.712 7.744 6.432 7.744 5.408C7.744 4.448 7.392 3.968 6.688 3.968C6.13333 3.968 5.46133 4.256 4.672 4.832C3.904 5.38667 3.05067 6.28267 2.112 7.52C1.81333 7.92533 1.48267 8.128 1.12 8.128C0.821333 8.128 0.554667 7.98933 0.32 7.712C0.106667 7.41333 0 7.08267 0 6.72C0 6.37867 0.064 6.03733 0.192 5.696C0.341333 5.33333 0.576 4.928 0.896 4.48C1.92 3.05067 3.06133 1.952 4.32 1.184C5.57867 0.394667 6.83733 0 8.096 0C9.26933 0 10.1653 0.373334 10.784 1.12C11.424 1.86667 11.744 2.95467 11.744 4.384C11.744 4.96 11.6907 5.64267 11.584 6.432C11.4773 7.2 11.3813 7.82933 11.296 8.32C11.2107 8.81067 11.1467 9.152 11.104 9.344C12.32 5.86667 13.6853 3.44533 15.2 2.08C16.7147 0.693333 18.3787 0 20.192 0C21.5787 0 22.6667 0.490667 23.456 1.472C24.2667 2.45333 24.672 3.84 24.672 5.632C24.672 6.336 24.576 7.21067 24.384 8.256C25.4507 5.312 26.6987 3.2 28.128 1.92C29.5573 0.64 31.2 0 33.056 0C34.5493 0 35.6907 0.48 36.48 1.44C37.2907 2.4 37.696 3.744 37.696 5.472C37.696 6.41067 37.5573 7.552 37.28 8.896L35.328 18.048C35.1147 19.1147 35.008 20.032 35.008 20.8C35.008 21.696 35.2107 22.368 35.616 22.816C36.0427 23.264 36.6293 23.488 37.376 23.488C38.08 23.488 38.7627 23.2533 39.424 22.784C40.1067 22.3147 40.9067 21.536 41.824 20.448C42.08 20.1493 42.368 20 42.688 20C42.9653 20 43.1787 20.128 43.328 20.384C43.4987 20.64 43.584 20.992 43.584 21.44C43.584 22.272 43.3813 22.9333 42.976 23.424C41.8667 24.768 40.768 25.7493 39.68 26.368C38.592 26.9867 37.4507 27.296 36.256 27.296C34.4427 27.296 33.024 26.7627 32 25.696C30.976 24.608 30.464 23.1573 30.464 21.344C30.464 20.0853 30.72 18.2613 31.232 15.872L32.512 10.016C32.5547 9.824 32.6293 9.48267 32.736 8.992C32.8427 8.50133 32.928 8.04267 32.992 7.616C33.056 7.168 33.088 6.73067 33.088 6.304C33.088 5.55733 32.9387 5.00267 32.64 4.64C32.3627 4.256 31.9573 4.064 31.424 4.064C30.4213 4.064 29.3653 4.71467 28.256 6.016C27.168 7.296 26.1227 9.42933 25.12 12.416C24.1387 15.4027 23.3387 19.2853 22.72 24.064C22.5707 25.344 22.304 26.208 21.92 26.656C21.5573 27.0827 20.96 27.296 20.128 27.296C19.4027 27.296 18.8693 27.1253 18.528 26.784C18.208 26.4427 18.048 25.8027 18.048 24.864C18.048 23.9893 18.1653 22.848 18.4 21.44C18.6347 20.0107 18.9333 18.336 19.296 16.416C20.2773 11.2533 20.768 7.92533 20.768 6.432C20.768 5.62133 20.608 5.024 20.288 4.64C19.9893 4.256 19.5307 4.064 18.912 4.064C17.8667 4.064 16.7893 4.66133 15.68 5.856C14.5707 7.02933 13.4827 9.13067 12.416 12.16C11.3707 15.168 10.496 19.2427 9.792 24.384C9.64267 25.472 9.41867 26.2293 9.12 26.656C8.84267 27.0827 8.288 27.296 7.456 27.296Z" fill="#1A1A1A"/>
</svg>
