<svg width="33" height="28" viewBox="0 0 33 28" fill="none" xmlns="http://www.w3.org/2000/svg">
<path d="M7.456 27.296C6.66667 27.296 6.10133 27.1253 5.76 26.784C5.41867 26.4213 5.248 25.7493 5.248 24.768C5.248 24.1067 5.312 23.3067 5.44 22.368C5.568 21.4293 5.792 20.0107 6.112 18.112C6.15467 17.856 6.32533 16.8213 6.624 15.008C6.92267 13.1733 7.18933 11.2533 7.424 9.248C7.63733 7.54133 7.744 6.26133 7.744 5.408C7.744 4.448 7.392 3.968 6.688 3.968C6.15467 3.968 5.48267 4.256 4.672 4.832C3.88267 5.38667 3.02933 6.28267 2.112 7.52C1.81333 7.92533 1.48267 8.128 1.12 8.128C0.821333 8.128 0.554667 7.98933 0.32 7.712C0.106667 7.41333 0 7.08267 0 6.72C0 6.35733 0.064 6.016 0.192 5.696C0.32 5.35467 0.554667 4.94933 0.896 4.48C1.94133 3.05067 3.104 1.952 4.384 1.184C5.664 0.394667 7.008 0 8.416 0C9.58933 0 10.464 0.362667 11.04 1.088C11.6373 1.81333 11.936 2.86933 11.936 4.256C11.936 5.49333 11.7653 7.28533 11.424 9.632C12.4907 6.47467 13.8453 4.08533 15.488 2.464C17.1307 0.821334 19.0613 0 21.28 0C23.0293 0 24.3413 0.501333 25.216 1.504C26.112 2.48533 26.56 3.808 26.56 5.472C26.56 6.41067 26.4213 7.552 26.144 8.896L24.192 18.048C23.9787 19.1147 23.872 20.032 23.872 20.8C23.872 21.696 24.0747 22.368 24.48 22.816C24.9067 23.264 25.4933 23.488 26.24 23.488C26.944 23.488 27.6267 23.2533 28.288 22.784C28.9707 22.3147 29.7707 21.536 30.688 20.448C30.944 20.1493 31.232 20 31.552 20C31.8293 20 32.0427 20.128 32.192 20.384C32.3627 20.64 32.448 20.992 32.448 21.44C32.448 22.272 32.2453 22.9333 31.84 23.424C30.7307 24.768 29.632 25.7493 28.544 26.368C27.456 26.9867 26.3147 27.296 25.12 27.296C23.3067 27.296 21.888 26.7627 20.864 25.696C19.84 24.608 19.328 23.1573 19.328 21.344C19.328 20.64 19.3813 19.872 19.488 19.04C19.616 18.208 19.8187 17.152 20.096 15.872L21.376 10.016C21.4187 9.824 21.4933 9.48267 21.6 8.992C21.7067 8.50133 21.792 8.04267 21.856 7.616C21.92 7.168 21.952 6.73067 21.952 6.304C21.952 5.62133 21.76 5.07733 21.376 4.672C20.992 4.26667 20.448 4.064 19.744 4.064C18.464 4.064 17.184 4.74667 15.904 6.112C14.624 7.47733 13.44 9.68533 12.352 12.736C11.264 15.7653 10.4107 19.648 9.792 24.384C9.64267 25.472 9.41867 26.2293 9.12 26.656C8.84267 27.0827 8.288 27.296 7.456 27.296Z" fill="#1A1A1A"/>
</svg>
