<svg width="24" height="28" viewBox="0 0 24 28" fill="none" xmlns="http://www.w3.org/2000/svg">
<path d="M10.112 27.296C8.21333 27.296 6.496 26.8693 4.96 26.016C3.44533 25.1627 2.24 23.9147 1.344 22.272C0.448 20.608 0 18.624 0 16.32C0 13.0773 0.586667 10.2187 1.76 7.744C2.95467 5.26933 4.56533 3.36 6.592 2.016C8.64 0.672 10.9013 0 13.376 0C15.2747 0 16.9813 0.426667 18.496 1.28C20.032 2.13333 21.248 3.392 22.144 5.056C23.04 6.69867 23.488 8.672 23.488 10.976C23.488 14.2187 22.8907 17.0773 21.696 19.552C20.5227 22.0267 18.912 23.936 16.864 25.28C14.8373 26.624 12.5867 27.296 10.112 27.296ZM10.432 23.52C12.096 23.52 13.5573 23.008 14.816 21.984C16.096 20.96 17.0773 19.5413 17.76 17.728C18.4427 15.8933 18.784 13.824 18.784 11.52C18.784 8.98133 18.2507 7.06133 17.184 5.76C16.1173 4.43733 14.7413 3.776 13.056 3.776C11.4133 3.776 9.96267 4.288 8.704 5.312C7.44533 6.31467 6.464 7.73333 5.76 9.568C5.056 11.3813 4.704 13.4507 4.704 15.776C4.704 18.3147 5.23733 20.2453 6.304 21.568C7.37067 22.8693 8.74667 23.52 10.432 23.52Z" fill="#1A1A1A"/>
</svg>
