<svg width="25" height="31" viewBox="0 0 25 31" fill="none" xmlns="http://www.w3.org/2000/svg">
<path d="M24.864 8C24.864 9.81333 24.3947 11.4773 23.456 12.992C22.5173 14.5067 21.152 15.744 19.36 16.704C17.568 17.664 15.4347 18.2293 12.96 18.4L11.584 26.112C11.0507 29.0773 9.6 30.56 7.232 30.56C5.93067 30.56 4.72533 30.176 3.616 29.408C2.528 28.64 1.65333 27.4667 0.992 25.888C0.330667 24.3093 0 22.368 0 20.064C0 15.7333 0.693333 12.064 2.08 9.056C3.488 6.02667 5.36533 3.76533 7.712 2.272C10.08 0.757333 12.6827 0 15.52 0C17.5253 0 19.2213 0.352 20.608 1.056C22.016 1.76 23.072 2.72 23.776 3.936C24.5013 5.13067 24.864 6.48533 24.864 8ZM13.536 15.104C17.9093 14.5493 20.096 12.2773 20.096 8.288C20.096 6.88 19.6267 5.73867 18.688 4.864C17.7707 3.968 16.3413 3.52 14.4 3.52C12.2027 3.52 10.2827 4.21333 8.64 5.6C7.01867 6.98667 5.76 8.91733 4.864 11.392C3.98933 13.8453 3.552 16.6507 3.552 19.808C3.552 21.1307 3.68 22.304 3.936 23.328C4.21333 24.352 4.55467 25.152 4.96 25.728C5.38667 26.2827 5.792 26.56 6.176 26.56C6.70933 26.56 7.11467 25.824 7.392 24.352L8.448 18.304C7.616 18.176 7.25333 18.1227 7.36 18.144C6.72 18.0373 6.304 17.8453 6.112 17.568C5.92 17.2693 5.824 16.896 5.824 16.448C5.824 15.9787 5.952 15.6053 6.208 15.328C6.48533 15.0507 6.85867 14.912 7.328 14.912C7.54133 14.912 7.70133 14.9227 7.808 14.944C8.32 15.0293 8.71467 15.0827 8.992 15.104C9.26933 13.44 9.664 11.2107 10.176 8.416C10.304 7.69067 10.592 7.17867 11.04 6.88C11.5093 6.56 12.0533 6.4 12.672 6.4C13.376 6.4 13.8773 6.53867 14.176 6.816C14.496 7.072 14.656 7.488 14.656 8.064C14.656 8.40533 14.6347 8.68267 14.592 8.896L13.536 15.104Z" fill="#1A1A1A"/>
</svg>
