<svg width="27" height="38" viewBox="0 0 27 38" fill="none" xmlns="http://www.w3.org/2000/svg">
<path d="M25.472 30.208C25.6853 30.208 25.8453 30.3147 25.952 30.528C26.08 30.7627 26.144 31.0613 26.144 31.424C26.144 32.1067 25.9627 32.7787 25.6 33.44C24.8747 34.7627 23.9147 35.776 22.72 36.48C21.5467 37.2053 20.3413 37.568 19.104 37.568C17.8453 37.568 16.7893 37.3653 15.936 36.96C15.0827 36.576 14.3573 35.9893 13.76 35.2C13.1627 34.432 12.5867 33.408 12.032 32.128C11.456 30.8053 10.976 29.8133 10.592 29.152C10.2293 28.512 9.84533 28.0427 9.44 27.744C9.03467 27.4453 8.512 27.232 7.872 27.104C5.504 26.6347 3.59467 25.4613 2.144 23.584C0.714667 21.7067 0 19.2853 0 16.32C0 13.0773 0.586667 10.2187 1.76 7.744C2.95467 5.26933 4.56533 3.36 6.592 2.016C8.64 0.672 10.9013 0 13.376 0C15.2747 0 16.9813 0.426667 18.496 1.28C20.032 2.13333 21.248 3.392 22.144 5.056C23.04 6.69867 23.488 8.672 23.488 10.976C23.488 13.664 23.0827 16.0853 22.272 18.24C21.4613 20.3947 20.3413 22.1867 18.912 23.616C17.4827 25.0453 15.84 26.0587 13.984 26.656C14.5173 26.9547 14.976 27.392 15.36 27.968C15.7653 28.544 16.192 29.376 16.64 30.464C17.1307 31.6587 17.6533 32.512 18.208 33.024C18.784 33.536 19.488 33.792 20.32 33.792C21.024 33.792 21.7067 33.5467 22.368 33.056C23.0293 32.5867 23.776 31.808 24.608 30.72C24.864 30.3787 25.152 30.208 25.472 30.208ZM10.432 23.52C12.096 23.52 13.5573 23.008 14.816 21.984C16.096 20.96 17.0773 19.5413 17.76 17.728C18.4427 15.8933 18.784 13.824 18.784 11.52C18.784 8.98133 18.2507 7.06133 17.184 5.76C16.1173 4.43733 14.7413 3.776 13.056 3.776C11.4347 3.776 9.984 4.29867 8.704 5.344C7.44533 6.368 6.464 7.78667 5.76 9.6C5.056 11.4133 4.704 13.472 4.704 15.776C4.704 18.3147 5.23733 20.2453 6.304 21.568C7.37067 22.8693 8.74667 23.52 10.432 23.52Z" fill="#1A1A1A"/>
</svg>
