<svg width="31" height="28" viewBox="0 0 31 28" fill="none" xmlns="http://www.w3.org/2000/svg">
<path d="M29.632 19.936C29.9093 19.936 30.1227 20.064 30.272 20.32C30.4427 20.576 30.528 20.928 30.528 21.376C30.528 22.208 30.3253 22.8693 29.92 23.36C28.896 24.5973 27.8613 25.5573 26.816 26.24C25.7707 26.9013 24.5333 27.232 23.104 27.232C21.7173 27.232 20.5333 26.8587 19.552 26.112C18.592 25.3653 17.6747 24.0853 16.8 22.272C16.096 20.8213 15.5413 19.7547 15.136 19.072C14.7307 18.368 14.3253 17.8667 13.92 17.568C13.536 17.2693 13.056 17.088 12.48 17.024C12.3947 17.472 12.1493 18.88 11.744 21.248C11.5733 22.3147 11.4667 22.9653 11.424 23.2C11.2107 24.5013 10.784 25.504 10.144 26.208C9.504 26.8907 8.53333 27.232 7.232 27.232C5.80267 27.232 4.53333 26.816 3.424 25.984C2.336 25.1307 1.49333 23.9573 0.896 22.464C0.298667 20.9493 0 19.232 0 17.312C0 13.728 0.618667 10.6347 1.856 8.032C3.11467 5.42933 4.864 3.44533 7.104 2.08C9.36533 0.693333 11.968 0 14.912 0C16.96 0 18.6773 0.309333 20.064 0.927999C21.4507 1.54667 22.4747 2.4 23.136 3.488C23.8187 4.576 24.16 5.80267 24.16 7.168C24.16 8.36267 23.872 9.536 23.296 10.688C22.7413 11.8187 21.8987 12.8213 20.768 13.696C19.6373 14.5707 18.2613 15.2213 16.64 15.648C17.664 15.9253 18.4533 16.3733 19.008 16.992C19.5627 17.6107 20.1173 18.5173 20.672 19.712C21.2693 20.992 21.856 21.9307 22.432 22.528C23.0293 23.1253 23.712 23.424 24.48 23.424C25.1627 23.424 25.8133 23.2 26.432 22.752C27.0507 22.2827 27.8293 21.4933 28.768 20.384C29.024 20.0853 29.312 19.936 29.632 19.936ZM8.064 16.992C7.33867 16.992 6.83733 16.8213 6.56 16.48C6.304 16.1387 6.176 15.7547 6.176 15.328C6.176 14.816 6.336 14.4107 6.656 14.112C6.99733 13.8133 7.38133 13.664 7.808 13.664H8.608C8.94933 11.5733 9.26933 9.77067 9.568 8.256C9.84533 6.86933 10.7413 6.176 12.256 6.176C13.472 6.176 14.08 6.72 14.08 7.808C14.08 8.04267 14.0693 8.224 14.048 8.352L13.088 13.664C14.24 13.6 15.2853 13.3227 16.224 12.832C17.184 12.3413 17.9413 11.6587 18.496 10.784C19.072 9.90933 19.36 8.91733 19.36 7.808C19.36 6.464 18.9013 5.408 17.984 4.64C17.0667 3.872 15.7227 3.488 13.952 3.488C11.8613 3.488 10.0267 4.01067 8.448 5.056C6.89067 6.08 5.67467 7.616 4.8 9.664C3.92533 11.6907 3.488 14.1653 3.488 17.088C3.488 18.4533 3.62667 19.6267 3.904 20.608C4.18133 21.5893 4.52267 22.3253 4.928 22.816C5.33333 23.3067 5.71733 23.552 6.08 23.552C6.35733 23.552 6.58133 23.4133 6.752 23.136C6.944 22.8587 7.09333 22.4107 7.2 21.792L8.064 16.992Z" fill="#1A1A1A"/>
</svg>
