<svg width="22" height="28" viewBox="0 0 22 28" fill="none" xmlns="http://www.w3.org/2000/svg">
<path d="M9.376 27.424C6.53867 27.424 4.26667 26.8907 2.56 25.824C0.853333 24.736 0 23.0827 0 20.864C0 19.6907 0.202667 18.7947 0.608 18.176C1.01333 17.5573 1.61067 17.248 2.4 17.248C2.976 17.248 3.44533 17.3973 3.808 17.696C4.17067 17.9947 4.352 18.3787 4.352 18.848C4.352 19.2747 4.32 19.648 4.256 19.968C4.256 20.0533 4.23467 20.2027 4.192 20.416C4.17067 20.6293 4.16 20.8533 4.16 21.088C4.16 22.048 4.64 22.7627 5.6 23.232C6.58133 23.7013 7.94667 23.936 9.696 23.936C11.5093 23.936 12.928 23.616 13.952 22.976C14.976 22.3147 15.488 21.3973 15.488 20.224C15.488 19.4987 15.2533 18.88 14.784 18.368C14.3147 17.8347 13.728 17.3973 13.024 17.056C12.32 16.6933 11.328 16.256 10.048 15.744C8.40533 15.104 7.06133 14.496 6.016 13.92C4.992 13.344 4.10667 12.5653 3.36 11.584C2.63467 10.5813 2.272 9.344 2.272 7.872C2.272 6.336 2.67733 4.97067 3.488 3.776C4.32 2.58133 5.504 1.65333 7.04 0.992001C8.59733 0.330667 10.4213 0 12.512 0C14.0693 0 15.4987 0.234667 16.8 0.704C18.1013 1.152 19.136 1.84533 19.904 2.784C20.6933 3.72267 21.088 4.87467 21.088 6.24C21.088 7.584 20.8853 8.59733 20.48 9.28C20.0747 9.96267 19.4773 10.304 18.688 10.304C18.1333 10.304 17.664 10.1333 17.28 9.792C16.9173 9.45067 16.736 9.04533 16.736 8.576C16.736 8.17067 16.768 7.79733 16.832 7.456C16.896 6.816 16.928 6.41067 16.928 6.24C16.928 5.344 16.4907 4.66133 15.616 4.192C14.7413 3.72267 13.6533 3.488 12.352 3.488C10.5173 3.488 9.10933 3.82933 8.128 4.512C7.168 5.17333 6.688 6.112 6.688 7.328C6.688 8.13867 6.93333 8.832 7.424 9.408C7.936 9.984 8.56533 10.464 9.312 10.848C10.0587 11.232 11.104 11.6907 12.448 12.224C14.0693 12.8853 15.3707 13.4827 16.352 14.016C17.3333 14.5493 18.1653 15.2747 18.848 16.192C19.552 17.1093 19.904 18.24 19.904 19.584C19.904 22.1013 18.944 24.0427 17.024 25.408C15.1253 26.752 12.576 27.424 9.376 27.424Z" fill="#1A1A1A"/>
</svg>
