<svg width="28" height="28" viewBox="0 0 28 28" fill="none" xmlns="http://www.w3.org/2000/svg">
<path d="M25.792 0.544001C26.4533 0.672 26.944 0.896001 27.264 1.216C27.6053 1.536 27.776 1.90933 27.776 2.336C27.776 3.04 27.5733 3.552 27.168 3.872C26.784 4.192 26.1653 4.32 25.312 4.256C23.392 4.10667 21.888 4.01067 20.8 3.968C19.7333 3.904 18.3253 3.86133 16.576 3.84C15.7867 7.76533 15.0613 11.712 14.4 15.68C14.1653 17.1307 13.92 18.816 13.664 20.736C13.408 22.6347 13.2373 24.1707 13.152 25.344C13.1093 25.9627 12.8533 26.4427 12.384 26.784C11.9147 27.104 11.3493 27.264 10.688 27.264C9.984 27.264 9.44 27.0933 9.056 26.752C8.672 26.4107 8.48 25.9627 8.48 25.408C8.48 24.896 8.55467 24.0533 8.704 22.88C8.87467 21.6853 9.06667 20.4373 9.28 19.136C9.51467 17.8347 9.696 16.704 9.824 15.744C10.0587 14.1227 10.3253 12.512 10.624 10.912C10.9227 9.312 11.2213 7.79733 11.52 6.368C11.584 6.048 11.6587 5.68533 11.744 5.28C11.8293 4.85333 11.9253 4.384 12.032 3.872C9.94133 3.936 8.29867 4.10667 7.104 4.384C5.90933 4.66133 5.056 5.056 4.544 5.568C4.05333 6.05867 3.808 6.69867 3.808 7.488C3.808 8.21333 4.02133 8.90667 4.448 9.568C4.53333 9.71733 4.576 9.87733 4.576 10.048C4.576 10.4533 4.33067 10.8373 3.84 11.2C3.37067 11.5413 2.88 11.712 2.368 11.712C2.00533 11.712 1.70667 11.6053 1.472 11.392C1.04533 11.0293 0.693333 10.5173 0.416 9.856C0.138667 9.17333 0 8.40533 0 7.552C0 5.73867 0.586667 4.288 1.76 3.2C2.95467 2.09067 4.75733 1.28 7.168 0.768002C9.6 0.256001 12.7147 0 16.512 0C18.8587 0 20.7253 0.0426668 22.112 0.128C23.52 0.213334 24.7467 0.352001 25.792 0.544001Z" fill="#1A1A1A"/>
</svg>
