<svg width="33" height="28" viewBox="0 0 33 28" fill="none" xmlns="http://www.w3.org/2000/svg">
<path d="M10.656 27.296C8.864 27.296 7.50933 26.8053 6.592 25.824C5.67467 24.8213 5.216 23.488 5.216 21.824C5.216 20.8853 5.35467 19.744 5.632 18.4L7.616 9.248C7.65867 9.07733 7.75467 8.608 7.904 7.84C8.07467 7.072 8.16 6.24 8.16 5.344C8.16 4.832 8.05333 4.448 7.84 4.192C7.648 3.936 7.38133 3.808 7.04 3.808C6.4 3.808 5.65333 4.11733 4.8 4.736C3.94667 5.33333 3.05067 6.26133 2.112 7.52C1.81333 7.92533 1.48267 8.128 1.12 8.128C0.821333 8.128 0.554667 7.98933 0.32 7.712C0.106667 7.41333 0 7.08267 0 6.72C0 6.05867 0.298667 5.312 0.896 4.48C3.072 1.49333 5.62133 0 8.544 0C9.84533 0 10.8587 0.394667 11.584 1.184C12.3307 1.97333 12.704 3.136 12.704 4.672C12.704 5.76 12.6293 6.76267 12.48 7.68C12.3307 8.59733 12.0747 9.84533 11.712 11.424L10.4 17.28C10.3573 17.472 10.2827 17.8133 10.176 18.304C10.0693 18.7947 9.984 19.264 9.92 19.712C9.856 20.1387 9.824 20.5653 9.824 20.992C9.824 21.6747 10.016 22.2187 10.4 22.624C10.784 23.0293 11.328 23.232 12.032 23.232C13.312 23.232 14.6027 22.5493 15.904 21.184C17.2267 19.8187 18.4427 17.6213 19.552 14.592C20.6827 11.5413 21.5573 7.648 22.176 2.912C22.3253 1.824 22.5387 1.06667 22.816 0.639999C23.1147 0.213333 23.68 0 24.512 0C25.2587 0 25.8133 0.224 26.176 0.672001C26.5387 1.12 26.72 1.84533 26.72 2.848C26.72 3.424 26.6453 4.18133 26.496 5.12C26.368 6.05867 26.1653 7.37067 25.888 9.056C25.312 12.32 24.8533 15.3173 24.512 18.048C24.3413 19.2853 24.256 20.2027 24.256 20.8C24.256 21.6747 24.448 22.3467 24.832 22.816C25.2373 23.264 25.7707 23.488 26.432 23.488C27.136 23.488 27.8187 23.2533 28.48 22.784C29.1627 22.3147 29.9627 21.536 30.88 20.448C31.136 20.1493 31.424 20 31.744 20C32.0213 20 32.2347 20.128 32.384 20.384C32.5547 20.64 32.64 20.992 32.64 21.44C32.64 22.272 32.4373 22.9333 32.032 23.424C30.9227 24.768 29.824 25.7493 28.736 26.368C27.648 26.9867 26.5067 27.296 25.312 27.296C23.5413 27.296 22.1867 26.848 21.248 25.952C20.3093 25.0347 19.84 23.8507 19.84 22.4C19.84 21.5893 20.0107 20.0107 20.352 17.664C19.2853 20.8 17.9307 23.1893 16.288 24.832C14.6667 26.4747 12.7893 27.296 10.656 27.296Z" fill="#1A1A1A"/>
</svg>
