<svg width="26" height="28" viewBox="0 0 26 28" fill="none" xmlns="http://www.w3.org/2000/svg">
<path d="M23.712 13.824C24.2027 13.824 24.5547 13.9307 24.768 14.144C25.0027 14.3573 25.12 14.6347 25.12 14.976C25.12 15.5307 24.9493 16.0213 24.608 16.448C24.288 16.8747 23.776 17.0987 23.072 17.12C21.3653 17.1627 19.8507 17.0347 18.528 16.736C17.0133 19.9147 15.1787 22.56 13.024 24.672C10.8907 26.7627 8.74667 27.808 6.592 27.808C4.37333 27.808 2.72 26.5173 1.632 23.936C0.544 21.3547 0 17.8667 0 13.472C0 9.71733 0.266667 6.34667 0.8 3.36C0.992 2.25067 1.25867 1.504 1.6 1.12C1.96267 0.714666 2.57067 0.511999 3.424 0.511999C4.832 0.511999 5.536 1.12 5.536 2.336C5.536 2.464 5.51467 2.69867 5.472 3.04C4.832 6.88 4.512 10.3573 4.512 13.472C4.512 16.736 4.77867 19.2213 5.312 20.928C5.86667 22.6133 6.688 23.456 7.776 23.456C8.88533 23.456 10.0907 22.688 11.392 21.152C12.6933 19.616 13.888 17.6853 14.976 15.36C13.6747 14.5493 12.6933 13.504 12.032 12.224C11.3707 10.9227 11.04 9.42933 11.04 7.744C11.04 6.05867 11.296 4.64 11.808 3.488C12.3413 2.31467 13.056 1.44 13.952 0.864C14.8693 0.288 15.8827 0 16.992 0C18.3573 0 19.4347 0.490667 20.224 1.472C21.0347 2.45333 21.44 3.79733 21.44 5.504C21.44 7.95733 20.9067 10.6347 19.84 13.536C20.9707 13.728 22.2613 13.824 23.712 13.824ZM14.272 7.52C14.272 9.61067 14.944 11.1573 16.288 12.16C17.12 9.77067 17.536 7.79733 17.536 6.24C17.536 5.344 17.4187 4.69333 17.184 4.288C16.9493 3.86133 16.6293 3.648 16.224 3.648C15.648 3.648 15.1787 3.98933 14.816 4.672C14.4533 5.33333 14.272 6.28267 14.272 7.52Z" fill="#1A1A1A"/>
</svg>
