<svg width="40" height="28" viewBox="0 0 40 28" fill="none" xmlns="http://www.w3.org/2000/svg">
<path d="M38.304 13.824C38.7947 13.824 39.1467 13.9307 39.36 14.144C39.5947 14.3573 39.712 14.6347 39.712 14.976C39.712 15.5307 39.5413 16.0213 39.2 16.448C38.88 16.8747 38.368 17.0987 37.664 17.12C35.9787 17.1413 34.464 17.0133 33.12 16.736C31.6267 19.9147 29.824 22.56 27.712 24.672C25.6213 26.7627 23.552 27.808 21.504 27.808C19.6267 27.808 18.2187 26.816 17.28 24.832C16.3413 22.8267 15.808 20.1493 15.68 16.8C14.4 20.512 12.9493 23.2747 11.328 25.088C9.728 26.9013 8.02133 27.808 6.208 27.808C4.16 27.808 2.61333 26.5387 1.568 24C0.522667 21.44 0 18.0053 0 13.696C0 10.56 0.277333 7.11467 0.832 3.36C0.981333 2.29333 1.248 1.55733 1.632 1.152C2.03733 0.725332 2.66667 0.511999 3.52 0.511999C4.16 0.511999 4.65067 0.650666 4.992 0.927999C5.35467 1.20533 5.536 1.71733 5.536 2.464C5.536 2.61333 5.51467 2.90133 5.472 3.328C4.832 7.70133 4.512 11.424 4.512 14.496C4.512 17.3547 4.75733 19.5627 5.248 21.12C5.73867 22.6773 6.4 23.456 7.232 23.456C7.97867 23.456 8.87467 22.6773 9.92 21.12C10.9867 19.5413 12.0427 17.216 13.088 14.144C14.1333 11.0507 15.0187 7.37067 15.744 3.104C15.9147 2.12267 16.224 1.45067 16.672 1.088C17.1413 0.703999 17.7707 0.511999 18.56 0.511999C19.2213 0.511999 19.7013 0.661332 20 0.959999C20.32 1.23733 20.48 1.664 20.48 2.24C20.48 2.58133 20.4587 2.848 20.416 3.04C19.8187 6.51733 19.52 9.99467 19.52 13.472C19.52 15.84 19.5947 17.728 19.744 19.136C19.9147 20.544 20.224 21.6213 20.672 22.368C21.1413 23.0933 21.8133 23.456 22.688 23.456C23.712 23.456 24.8533 22.688 26.112 21.152C27.3707 19.5947 28.5227 17.664 29.568 15.36C28.2667 14.5493 27.2853 13.504 26.624 12.224C25.9627 10.9227 25.632 9.42933 25.632 7.744C25.632 6.05867 25.888 4.64 26.4 3.488C26.9333 2.31467 27.648 1.44 28.544 0.864C29.4613 0.288 30.4747 0 31.584 0C32.9493 0 34.0267 0.490667 34.816 1.472C35.6267 2.45333 36.032 3.79733 36.032 5.504C36.032 7.91467 35.5093 10.592 34.464 13.536C35.552 13.728 36.832 13.824 38.304 13.824ZM28.864 7.52C28.864 9.61067 29.536 11.1573 30.88 12.16C31.712 9.77067 32.128 7.79733 32.128 6.24C32.128 5.344 32.0107 4.69333 31.776 4.288C31.5413 3.86133 31.2213 3.648 30.816 3.648C30.24 3.648 29.7707 3.98933 29.408 4.672C29.0453 5.33333 28.864 6.28267 28.864 7.52Z" fill="#1A1A1A"/>
</svg>
