<svg width="28" height="28" viewBox="0 0 28 28" fill="none" xmlns="http://www.w3.org/2000/svg">
<path d="M26.496 20C26.7733 20 26.9867 20.128 27.136 20.384C27.3067 20.64 27.392 20.992 27.392 21.44C27.392 22.272 27.1893 22.9333 26.784 23.424C25.7387 24.6613 24.704 25.6213 23.68 26.304C22.656 26.9653 21.5147 27.296 20.256 27.296C18.3573 27.296 16.9173 26.7307 15.936 25.6C14.976 24.4693 14.1973 22.816 13.6 20.64L12.512 16.672L4.96 26.016C4.53333 26.5493 4.096 26.9013 3.648 27.072C3.2 27.2213 2.67733 27.296 2.08 27.296C1.48267 27.296 0.981333 27.1893 0.576 26.976C0.192 26.7413 0 26.4213 0 26.016C0 25.4827 0.309333 24.8747 0.928 24.192L11.296 12.384L10.272 8.64C9.78133 6.89067 9.23733 5.664 8.64 4.96C8.04267 4.256 7.36 3.904 6.592 3.904C5.46133 3.904 4.13867 4.72533 2.624 6.368C2.368 6.64533 2.08 6.784 1.76 6.784C1.44 6.784 1.16267 6.66667 0.928 6.432C0.714667 6.176 0.608 5.856 0.608 5.472C0.608 4.832 0.917333 4.13867 1.536 3.392C2.41067 2.368 3.36 1.54667 4.384 0.927999C5.408 0.309333 6.624 0 8.032 0C9.54667 0 10.7947 0.48 11.776 1.44C12.7573 2.37867 13.536 3.904 14.112 6.016L14.752 8.256L20.352 1.44C20.7787 0.928001 21.216 0.565334 21.664 0.352001C22.112 0.138667 22.656 0.0319996 23.296 0.0319996C23.872 0.0319996 24.32 0.138667 24.64 0.352001C24.9813 0.565334 25.152 0.864001 25.152 1.248C25.152 1.76 24.864 2.34667 24.288 3.008L15.968 12.608L17.792 19.136C18.112 20.2667 18.4 21.1307 18.656 21.728C18.912 22.3253 19.2213 22.7733 19.584 23.072C19.968 23.3493 20.4693 23.488 21.088 23.488C21.7493 23.488 22.432 23.2533 23.136 22.784C23.8613 22.3147 24.6933 21.536 25.632 20.448C25.888 20.1493 26.176 20 26.496 20Z" fill="#1A1A1A"/>
</svg>
