<svg width="31" height="38" viewBox="0 0 31 38" fill="none" xmlns="http://www.w3.org/2000/svg">
<path d="M29.088 19.968C29.216 19.9253 29.408 19.904 29.664 19.904C30.3893 19.904 30.752 20.3733 30.752 21.312C30.752 21.824 30.6347 22.2613 30.4 22.624C30.1867 22.9653 29.8453 23.1787 29.376 23.264C27.4347 23.6267 25.5253 24.032 23.648 24.48L23.552 25.248C22.9547 29.4507 21.76 32.5547 19.968 34.56C18.1973 36.5867 15.9787 37.6 13.312 37.6C11.5413 37.6 10.1653 37.1627 9.184 36.288C8.224 35.4347 7.744 34.336 7.744 32.992C7.744 30.752 8.74667 28.7573 10.752 27.008C12.7573 25.2587 15.7973 23.712 19.872 22.368L20.512 17.856C20.5973 17.344 20.704 16.6613 20.832 15.808C19.8293 18.4533 18.5493 20.4267 16.992 21.728C15.4347 23.0293 13.696 23.68 11.776 23.68C9.94133 23.68 8.544 23.1253 7.584 22.016C6.624 20.8853 6.144 19.4347 6.144 17.664C6.144 16.8747 6.22933 16.0107 6.4 15.072C6.57067 14.112 6.83733 12.8213 7.2 11.2C7.52 9.728 7.75467 8.55467 7.904 7.68C8.07467 6.80533 8.16 6.02667 8.16 5.344C8.16 4.32 7.76533 3.808 6.976 3.808C6.35733 3.808 5.62133 4.11733 4.768 4.736C3.936 5.33333 3.05067 6.26133 2.112 7.52C1.81333 7.92533 1.48267 8.128 1.12 8.128C0.821333 8.128 0.554667 7.98933 0.32 7.712C0.106667 7.41333 0 7.08267 0 6.72C0 6.05867 0.298667 5.312 0.896 4.48C3.072 1.49333 5.62133 0 8.544 0C9.84533 0 10.8587 0.394667 11.584 1.184C12.3307 1.97333 12.704 3.136 12.704 4.672C12.704 5.78133 12.5973 6.92267 12.384 8.096C12.192 9.248 11.8933 10.72 11.488 12.512C11.232 13.5787 11.04 14.4427 10.912 15.104C10.784 15.744 10.72 16.2773 10.72 16.704C10.72 17.792 10.912 18.5707 11.296 19.04C11.68 19.5093 12.352 19.744 13.312 19.744C14.464 19.744 15.6373 19.1147 16.832 17.856C18.048 16.576 19.136 14.6453 20.096 12.064C21.0773 9.48267 21.7813 6.32533 22.208 2.592C22.3147 1.65333 22.56 0.992 22.944 0.608C23.328 0.202667 23.8827 0 24.608 0C26.1013 0 26.848 0.746667 26.848 2.24C26.848 2.496 26.8373 2.69867 26.816 2.848C26.368 6.02667 25.952 8.896 25.568 11.456C25.3547 12.992 25.12 14.5707 24.864 16.192C24.6293 17.8133 24.3947 19.456 24.16 21.12C25.7173 20.6933 27.36 20.3093 29.088 19.968ZM19.392 25.728C14.2293 27.52 11.648 29.696 11.648 32.256C11.648 32.8533 11.8293 33.344 12.192 33.728C12.576 34.1333 13.1093 34.336 13.792 34.336C16.7573 34.336 18.6133 31.5413 19.36 25.952L19.392 25.728Z" fill="#1A1A1A"/>
</svg>
