<svg width="27" height="28" viewBox="0 0 27 28" fill="none" xmlns="http://www.w3.org/2000/svg">
<path d="M25.824 19.936C26.1013 19.936 26.3147 20.064 26.464 20.32C26.6347 20.576 26.72 20.928 26.72 21.376C26.72 22.208 26.5173 22.8693 26.112 23.36C24.9173 24.7893 23.7547 25.792 22.624 26.368C21.5147 26.944 20.1707 27.232 18.592 27.232C17.4827 27.232 16.4587 27.0933 15.52 26.816C14.5813 26.5387 13.44 26.1227 12.096 25.568C10.944 25.0773 9.92 24.6827 9.024 24.384C8.04267 25.4507 7.15733 26.1973 6.368 26.624C5.57867 27.0293 4.74667 27.232 3.872 27.232C2.69867 27.232 1.76 26.9653 1.056 26.432C0.352 25.8773 0 25.1627 0 24.288C0 23.6267 0.213333 23.0187 0.64 22.464C1.088 21.9093 1.70667 21.472 2.496 21.152C3.28533 20.832 4.20267 20.672 5.248 20.672C5.84533 20.672 6.29333 20.6827 6.592 20.704C10.7733 15.4987 14.5493 10.0053 17.92 4.224C16.0853 3.904 14.2187 3.744 12.32 3.744C9.86667 3.744 8.064 4.032 6.912 4.608C5.78133 5.16267 5.216 6.048 5.216 7.264C5.216 7.62667 5.25867 7.936 5.344 8.192C5.42933 8.448 5.55733 8.74667 5.728 9.088C5.92 9.472 6.016 9.74933 6.016 9.92C6.016 10.3467 5.81333 10.7093 5.408 11.008C5.024 11.2853 4.576 11.424 4.064 11.424C3.53067 11.424 3.09333 11.264 2.752 10.944C2.34667 10.5813 2.016 10.0907 1.76 9.472C1.52533 8.832 1.408 8.11733 1.408 7.328C1.408 4.832 2.44267 2.98667 4.512 1.792C6.58133 0.597333 9.312 0 12.704 0C14.3893 0 16.1067 0.096 17.856 0.288C19.6267 0.479999 21.28 0.789332 22.816 1.216C23.456 1.38667 23.8827 1.632 24.096 1.952C24.3093 2.25067 24.416 2.64533 24.416 3.136C24.416 3.712 24.2667 4.16 23.968 4.48C23.6693 4.8 23.2533 4.96 22.72 4.96H22.496C20.192 8.71467 17.856 12.32 15.488 15.776C13.5893 18.528 12.256 20.3947 11.488 21.376C12.7253 21.6533 13.8027 21.9093 14.72 22.144C15.8507 22.4427 16.7573 22.6667 17.44 22.816C18.144 22.944 18.752 23.008 19.264 23.008C20.5013 23.008 21.5573 22.8053 22.432 22.4C23.328 21.9733 24.1707 21.3013 24.96 20.384C25.216 20.0853 25.504 19.936 25.824 19.936Z" fill="#1A1A1A"/>
</svg>
