<svg width="16" height="19" viewBox="0 0 16 19" fill="none" xmlns="http://www.w3.org/2000/svg">
<path d="M2.368 18.912C1.70667 18.912 1.152 18.688 0.704 18.24C0.234667 17.8133 0 17.152 0 16.256C0 15.488 0.170667 14.6667 0.512 13.792C0.853333 12.896 1.32267 12.0213 1.92 11.168C2.51733 10.2933 3.18933 9.504 3.936 8.8C4.704 8.07467 5.504 7.49867 6.336 7.072C7.18933 6.64533 8.032 6.432 8.864 6.432C9.696 6.432 10.3893 6.656 10.944 7.104C11.4987 7.53067 11.776 8.10667 11.776 8.832C11.776 9.36533 11.6267 9.728 11.328 9.92C11.0507 10.112 10.6773 10.208 10.208 10.208C10.2507 10.0373 10.2827 9.856 10.304 9.664C10.3467 9.45067 10.368 9.25867 10.368 9.088C10.368 8.59733 10.2507 8.18133 10.016 7.84C9.78133 7.47733 9.376 7.296 8.8 7.296C8.20267 7.296 7.59467 7.50933 6.976 7.936C6.35733 8.34133 5.76 8.896 5.184 9.6C4.608 10.2827 4.096 11.0293 3.648 11.84C3.2 12.6507 2.848 13.4507 2.592 14.24C2.336 15.0293 2.208 15.7333 2.208 16.352C2.208 17.184 2.496 17.6 3.072 17.6C3.56267 17.6 4.096 17.376 4.672 16.928C5.248 16.4587 5.83467 15.872 6.432 15.168C7.05067 14.4427 7.63733 13.696 8.192 12.928C8.74667 12.16 9.23733 11.456 9.664 10.816C9.74933 10.688 9.80267 10.624 9.824 10.624C9.952 10.6453 10.112 10.688 10.304 10.752C10.5173 10.816 10.6987 10.9013 10.848 11.008C10.9973 11.1147 11.072 11.2533 11.072 11.424C11.072 11.616 10.976 11.8827 10.784 12.224C10.592 12.544 10.3787 12.9173 10.144 13.344C9.90933 13.7707 9.696 14.208 9.504 14.656C9.312 15.0827 9.216 15.488 9.216 15.872C9.216 16.192 9.30133 16.512 9.472 16.832C9.64267 17.1307 9.92 17.28 10.304 17.28C10.88 17.28 11.6373 16.864 12.576 16.032C13.5147 15.1787 14.464 13.9093 15.424 12.224L15.744 12.544C15.296 13.696 14.72 14.7093 14.016 15.584C13.312 16.4587 12.5547 17.1413 11.744 17.632C10.9547 18.1227 10.176 18.368 9.408 18.368C8.61867 18.368 8.032 18.1333 7.648 17.664C7.28533 17.1947 7.104 16.6827 7.104 16.128C7.104 16 7.11467 15.8613 7.136 15.712C7.15733 15.5413 7.17867 15.3707 7.2 15.2C6.28267 16.4373 5.44 17.3653 4.672 17.984C3.92533 18.6027 3.15733 18.912 2.368 18.912ZM13.344 4.544C13.0453 3.92533 12.704 3.40267 12.32 2.976C11.936 2.528 11.488 2.06933 10.976 1.6C10.3147 1.83467 9.71733 2.09067 9.184 2.368C8.672 2.64533 8.17067 2.99733 7.68 3.424C7.552 3.33867 7.46667 3.24267 7.424 3.136C7.38133 3.008 7.36 2.90133 7.36 2.816C7.36 2.496 7.49867 2.176 7.776 1.856C8.07467 1.536 8.42667 1.23733 8.832 0.960001C9.25867 0.661334 9.67467 0.426668 10.08 0.256001C10.4853 0.0853335 10.7947 0 11.008 0C11.264 0 11.552 0.117333 11.872 0.351999C12.2133 0.586667 12.5333 0.896001 12.832 1.28C13.1307 1.64267 13.376 2.02667 13.568 2.432C13.7813 2.83733 13.888 3.21067 13.888 3.552C13.888 3.76533 13.8453 3.95733 13.76 4.128C13.6747 4.29867 13.536 4.43733 13.344 4.544Z" fill="#1A1A1A"/>
</svg>
