<svg width="16" height="13" viewBox="0 0 16 13" fill="none" xmlns="http://www.w3.org/2000/svg">
<path d="M2.368 12.48C1.70667 12.48 1.152 12.256 0.704 11.808C0.234667 11.3813 0 10.72 0 9.824C0 9.056 0.170667 8.23467 0.512 7.36C0.853333 6.464 1.32267 5.58933 1.92 4.736C2.51733 3.86133 3.18933 3.072 3.936 2.368C4.704 1.64267 5.504 1.06667 6.336 0.64C7.18933 0.213333 8.032 0 8.864 0C9.696 0 10.3893 0.224 10.944 0.672C11.4987 1.09867 11.776 1.67467 11.776 2.4C11.776 2.93333 11.6267 3.296 11.328 3.488C11.0507 3.68 10.6773 3.776 10.208 3.776C10.2507 3.60533 10.2827 3.424 10.304 3.232C10.3467 3.01867 10.368 2.82667 10.368 2.656C10.368 2.16533 10.2507 1.74933 10.016 1.408C9.78133 1.04533 9.376 0.864 8.8 0.864C8.20267 0.864 7.59467 1.07733 6.976 1.504C6.35733 1.90933 5.76 2.464 5.184 3.168C4.608 3.85067 4.096 4.59733 3.648 5.408C3.2 6.21867 2.848 7.01867 2.592 7.808C2.336 8.59733 2.208 9.30133 2.208 9.92C2.208 10.752 2.496 11.168 3.072 11.168C3.56267 11.168 4.096 10.944 4.672 10.496C5.248 10.0267 5.83467 9.44 6.432 8.736C7.05067 8.01067 7.63733 7.264 8.192 6.496C8.74667 5.728 9.23733 5.024 9.664 4.384C9.74933 4.256 9.80267 4.192 9.824 4.192C9.952 4.21333 10.112 4.256 10.304 4.32C10.5173 4.384 10.6987 4.46933 10.848 4.576C10.9973 4.68267 11.072 4.82133 11.072 4.992C11.072 5.184 10.976 5.45067 10.784 5.792C10.592 6.112 10.3787 6.48533 10.144 6.912C9.90933 7.33867 9.696 7.776 9.504 8.224C9.312 8.65067 9.216 9.056 9.216 9.44C9.216 9.76 9.30133 10.08 9.472 10.4C9.64267 10.6987 9.92 10.848 10.304 10.848C10.88 10.848 11.6373 10.432 12.576 9.6C13.5147 8.74667 14.464 7.47733 15.424 5.792L15.744 6.112C15.296 7.264 14.72 8.27733 14.016 9.152C13.312 10.0267 12.5547 10.7093 11.744 11.2C10.9547 11.6907 10.176 11.936 9.408 11.936C8.61867 11.936 8.032 11.7013 7.648 11.232C7.28533 10.7627 7.104 10.2507 7.104 9.696C7.104 9.568 7.11467 9.42933 7.136 9.28C7.15733 9.10933 7.17867 8.93867 7.2 8.768C6.28267 10.0053 5.44 10.9333 4.672 11.552C3.92533 12.1707 3.15733 12.48 2.368 12.48Z" fill="#1A1A1A"/>
</svg>
