<svg width="14" height="26" viewBox="0 0 14 26" fill="none" xmlns="http://www.w3.org/2000/svg">
<path d="M3.296 25.184C2.18667 25.184 1.35467 24.8213 0.8 24.096C0.266667 23.3707 0 22.3893 0 21.152C0 20.0853 0.181333 18.8267 0.544 17.376C0.906667 15.9253 1.38667 14.4107 1.984 12.832C2.58133 11.232 3.24267 9.67467 3.968 8.16C4.71467 6.64533 5.46133 5.28 6.208 4.064C6.95467 2.82667 7.65867 1.84533 8.32 1.12C8.98133 0.373334 9.52533 0 9.952 0C10.3147 0 10.5707 0.224 10.72 0.672001C10.8907 1.12 10.976 1.568 10.976 2.016C10.976 2.61333 10.848 3.33867 10.592 4.192C10.336 5.04533 9.97333 5.96267 9.504 6.944C9.03467 7.904 8.49067 8.85333 7.872 9.792C7.25333 10.7307 6.58133 11.5947 5.856 12.384C5.152 13.152 4.42667 13.76 3.68 14.208C3.552 14.4427 3.36 14.9333 3.104 15.68C2.86933 16.4053 2.64533 17.248 2.432 18.208C2.24 19.1467 2.144 20.064 2.144 20.96C2.144 21.8347 2.272 22.5493 2.528 23.104C2.80533 23.68 3.264 23.968 3.904 23.968C4.52267 23.968 5.16267 23.712 5.824 23.2C6.48533 22.7093 7.01867 22.0693 7.424 21.28C6.63467 20.8747 6.048 20.288 5.664 19.52C5.28 18.7307 5.088 17.9413 5.088 17.152C5.088 16.128 5.35467 15.3067 5.888 14.688C6.42133 14.0693 7.05067 13.76 7.776 13.76C8.39467 13.76 8.88533 14.016 9.248 14.528C9.61067 15.0187 9.792 15.744 9.792 16.704C9.792 17.408 9.696 18.1333 9.504 18.88C9.312 19.6267 9.03467 20.352 8.672 21.056C8.8 21.0773 8.928 21.0987 9.056 21.12C9.20533 21.1413 9.35467 21.152 9.504 21.152C10.272 21.152 10.912 20.9707 11.424 20.608C11.936 20.224 12.3627 19.7653 12.704 19.232C13.0667 18.6773 13.3653 18.1547 13.6 17.664L13.984 18.08C13.3867 19.552 12.672 20.5333 11.84 21.024C11.0293 21.4933 10.2187 21.728 9.408 21.728C9.23733 21.728 9.06667 21.7173 8.896 21.696C8.72533 21.6747 8.55467 21.6533 8.384 21.632C7.808 22.6133 7.09333 23.4453 6.24 24.128C5.408 24.832 4.42667 25.184 3.296 25.184ZM7.744 20.64C7.97867 20.1493 8.16 19.6373 8.288 19.104C8.416 18.5493 8.48 17.984 8.48 17.408C8.48 16.6613 8.37333 16.0747 8.16 15.648C7.968 15.2213 7.72267 15.008 7.424 15.008C7.104 15.008 6.816 15.232 6.56 15.68C6.32533 16.1067 6.208 16.6507 6.208 17.312C6.208 17.888 6.32533 18.496 6.56 19.136C6.79467 19.776 7.18933 20.2773 7.744 20.64ZM4.032 12.96C4.62933 12.4907 5.20533 11.8933 5.76 11.168C6.336 10.4427 6.86933 9.67467 7.36 8.864C7.85067 8.032 8.288 7.22133 8.672 6.432C9.056 5.64267 9.35467 4.928 9.568 4.288C9.78133 3.648 9.888 3.168 9.888 2.848C9.888 2.74133 9.87733 2.67733 9.856 2.656C9.83467 2.61333 9.80267 2.592 9.76 2.592C9.58933 2.592 9.25867 2.90133 8.768 3.52C8.29867 4.11733 7.76533 4.928 7.168 5.952C6.592 6.95467 6.016 8.07467 5.44 9.312C4.864 10.528 4.39467 11.744 4.032 12.96Z" fill="#1A1A1A"/>
</svg>
