<svg width="12" height="18" viewBox="0 0 12 18" fill="none" xmlns="http://www.w3.org/2000/svg">
<path d="M3.584 12.608C2.56 12.608 1.70667 12.2667 1.024 11.584C0.341333 10.9013 0 9.87733 0 8.512C0 7.44533 0.202667 6.41067 0.608 5.408C1.03467 4.384 1.58933 3.46667 2.272 2.656C2.95467 1.84533 3.712 1.20533 4.544 0.736C5.376 0.245333 6.19733 0 7.008 0C7.88267 0 8.48 0.256 8.8 0.768001C9.12 1.28 9.28 1.81333 9.28 2.368C9.28 2.98667 9.13067 3.53067 8.832 4C8.55467 4.46933 8.17067 4.704 7.68 4.704C7.31733 4.704 7.008 4.544 6.752 4.224C7.072 4.05333 7.34933 3.712 7.584 3.2C7.81867 2.66667 7.936 2.16533 7.936 1.696C7.936 1.44 7.88267 1.248 7.776 1.12C7.69067 0.970668 7.50933 0.896001 7.232 0.896001C6.656 0.896001 6.05867 1.152 5.44 1.664C4.84267 2.176 4.27733 2.83733 3.744 3.648C3.232 4.45867 2.80533 5.312 2.464 6.208C2.144 7.104 1.984 7.94667 1.984 8.736C1.984 9.39733 2.144 10.0053 2.464 10.56C2.784 11.1147 3.40267 11.392 4.32 11.392C5.17333 11.392 6.02667 11.1573 6.88 10.688C7.75467 10.2187 8.56533 9.54667 9.312 8.672C10.0587 7.79733 10.656 6.77333 11.104 5.6L11.52 5.92C11.0293 7.2 10.3573 8.352 9.504 9.376C8.65067 10.3787 7.712 11.168 6.688 11.744C5.664 12.32 4.62933 12.608 3.584 12.608ZM6.176 17.568C5.55733 17.568 5.07733 17.4507 4.736 17.216C4.39467 16.9813 4.224 16.7147 4.224 16.416C4.224 16.2453 4.27733 16.064 4.384 15.872C4.512 15.7013 4.69333 15.5307 4.928 15.36C5.03467 15.872 5.216 16.2347 5.472 16.448C5.728 16.6827 5.99467 16.8 6.272 16.8C6.67733 16.8 7.08267 16.64 7.488 16.32C7.89333 16.0213 8.23467 15.648 8.512 15.2C8.78933 14.7733 8.928 14.3787 8.928 14.016C8.928 13.8453 8.88533 13.664 8.8 13.472C8.736 13.3013 8.59733 13.216 8.384 13.216C8.10667 13.216 7.776 13.3227 7.392 13.536C7.008 13.7493 6.656 13.9627 6.336 14.176C6.016 14.4107 5.792 14.528 5.664 14.528C5.51467 14.528 5.39733 14.4533 5.312 14.304C5.248 14.176 5.216 14.0587 5.216 13.952C5.216 13.9093 5.30133 13.76 5.472 13.504C5.664 13.248 5.888 12.9387 6.144 12.576C6.4 12.2347 6.656 11.8933 6.912 11.552C7.18933 11.232 7.424 10.9867 7.616 10.816H8.032L6.336 13.408C6.57067 13.2373 6.85867 13.0667 7.2 12.896C7.54133 12.7253 7.968 12.64 8.48 12.64C8.97067 12.64 9.33333 12.7467 9.568 12.96C9.80267 13.1947 9.92 13.536 9.92 13.984C9.92 14.5813 9.73867 15.1573 9.376 15.712C9.03467 16.2667 8.576 16.7147 8 17.056C7.44533 17.3973 6.83733 17.568 6.176 17.568Z" fill="#1A1A1A"/>
</svg>
