<svg width="12" height="13" viewBox="0 0 12 13" fill="none" xmlns="http://www.w3.org/2000/svg">
<path d="M3.584 12.608C2.56 12.608 1.70667 12.2667 1.024 11.584C0.341333 10.9013 0 9.87733 0 8.512C0 7.44533 0.202667 6.41067 0.608 5.408C1.03467 4.384 1.58933 3.46667 2.272 2.656C2.95467 1.84533 3.712 1.20533 4.544 0.736C5.376 0.245333 6.19733 0 7.008 0C7.88267 0 8.48 0.256 8.8 0.768001C9.12 1.28 9.28 1.81333 9.28 2.368C9.28 2.98667 9.13067 3.53067 8.832 4C8.55467 4.46933 8.17067 4.704 7.68 4.704C7.31733 4.704 7.008 4.544 6.752 4.224C7.072 4.05333 7.34933 3.712 7.584 3.2C7.81867 2.66667 7.936 2.16533 7.936 1.696C7.936 1.44 7.88267 1.248 7.776 1.12C7.69067 0.970668 7.50933 0.896001 7.232 0.896001C6.656 0.896001 6.05867 1.152 5.44 1.664C4.84267 2.176 4.27733 2.83733 3.744 3.648C3.232 4.45867 2.80533 5.312 2.464 6.208C2.144 7.104 1.984 7.94667 1.984 8.736C1.984 9.39733 2.144 10.0053 2.464 10.56C2.784 11.1147 3.40267 11.392 4.32 11.392C5.17333 11.392 6.02667 11.1573 6.88 10.688C7.75467 10.2187 8.56533 9.54667 9.312 8.672C10.0587 7.79733 10.656 6.77333 11.104 5.6L11.52 5.92C11.0293 7.2 10.3573 8.352 9.504 9.376C8.65067 10.3787 7.712 11.168 6.688 11.744C5.664 12.32 4.62933 12.608 3.584 12.608Z" fill="#1A1A1A"/>
</svg>
