<svg width="13" height="20" viewBox="0 0 13 20" fill="none" xmlns="http://www.w3.org/2000/svg">
<path d="M3.904 19.072C2.60267 19.072 1.62133 18.7093 0.96 17.984C0.32 17.28 0 16.4053 0 15.36C0 14.4 0.234667 13.3867 0.704 12.32C1.19467 11.2533 1.83467 10.2507 2.624 9.312C3.43467 8.37333 4.32 7.616 5.28 7.04C6.24 6.44267 7.18933 6.144 8.128 6.144C8.61867 6.144 9.06667 6.272 9.472 6.528C9.89867 6.784 10.112 7.30667 10.112 8.096C10.112 8.90667 9.86667 9.67467 9.376 10.4C8.90667 11.104 8.27733 11.7333 7.488 12.288C6.72 12.8427 5.86667 13.3013 4.928 13.664C4.01067 14.0053 3.09333 14.2187 2.176 14.304C2.13333 14.5173 2.10133 14.72 2.08 14.912C2.05867 15.104 2.048 15.2853 2.048 15.456C2.048 15.776 2.08 16.096 2.144 16.416C2.22933 16.736 2.368 17.0347 2.56 17.312C2.752 17.568 3.008 17.7707 3.328 17.92C3.66933 18.0693 4.08533 18.144 4.576 18.144C5.49333 18.144 6.4 17.888 7.296 17.376C8.192 16.8427 9.024 16.1493 9.792 15.296C10.56 14.4427 11.2107 13.504 11.744 12.48L12.128 12.768C11.552 14.048 10.816 15.1573 9.92 16.096C9.04533 17.0347 8.08533 17.76 7.04 18.272C6.016 18.8053 4.97067 19.072 3.904 19.072ZM2.336 13.696C2.912 13.504 3.56267 13.2267 4.288 12.864C5.01333 12.48 5.70667 12.032 6.368 11.52C7.05067 11.008 7.60533 10.4427 8.032 9.824C8.48 9.20533 8.704 8.55467 8.704 7.872C8.704 7.63733 8.66133 7.456 8.576 7.328C8.49067 7.2 8.30933 7.136 8.032 7.136C7.52 7.136 6.976 7.33867 6.4 7.744C5.824 8.128 5.26933 8.64 4.736 9.28C4.20267 9.92 3.72267 10.624 3.296 11.392C2.86933 12.16 2.54933 12.928 2.336 13.696ZM11.968 4.544C11.6693 3.92533 11.328 3.40267 10.944 2.976C10.56 2.528 10.112 2.06933 9.6 1.6C8.93867 1.83467 8.34133 2.09067 7.808 2.368C7.296 2.64533 6.79467 2.99733 6.304 3.424C6.176 3.33867 6.09067 3.24267 6.048 3.136C6.00533 3.008 5.984 2.90133 5.984 2.816C5.984 2.496 6.12267 2.176 6.4 1.856C6.69867 1.536 7.05067 1.23733 7.456 0.960001C7.88267 0.661334 8.29867 0.426668 8.704 0.256001C9.10933 0.0853335 9.41867 0 9.632 0C9.888 0 10.176 0.117334 10.496 0.352001C10.8373 0.586667 11.1573 0.896001 11.456 1.28C11.7547 1.64267 12 2.02667 12.192 2.432C12.4053 2.83733 12.512 3.21067 12.512 3.552C12.512 3.76533 12.4693 3.95733 12.384 4.128C12.2987 4.29867 12.16 4.43733 11.968 4.544Z" fill="#1A1A1A"/>
</svg>
