<svg width="14" height="19" viewBox="0 0 14 19" fill="none" xmlns="http://www.w3.org/2000/svg">
<path d="M3.904 18.08C2.60267 18.08 1.62133 17.7173 0.96 16.992C0.32 16.288 0 15.4133 0 14.368C0 13.408 0.234667 12.3947 0.704 11.328C1.19467 10.2613 1.83467 9.25867 2.624 8.32C3.43467 7.38133 4.32 6.624 5.28 6.048C6.24 5.45067 7.18933 5.152 8.128 5.152C8.61867 5.152 9.06667 5.28 9.472 5.536C9.89867 5.792 10.112 6.31467 10.112 7.104C10.112 7.91467 9.86667 8.68267 9.376 9.408C8.90667 10.112 8.27733 10.7413 7.488 11.296C6.72 11.8507 5.86667 12.3093 4.928 12.672C4.01067 13.0133 3.09333 13.2267 2.176 13.312C2.13333 13.5253 2.10133 13.728 2.08 13.92C2.05867 14.112 2.048 14.2933 2.048 14.464C2.048 14.784 2.08 15.104 2.144 15.424C2.22933 15.744 2.368 16.0427 2.56 16.32C2.752 16.576 3.008 16.7787 3.328 16.928C3.66933 17.0773 4.08533 17.152 4.576 17.152C5.49333 17.152 6.4 16.896 7.296 16.384C8.192 15.8507 9.024 15.1573 9.792 14.304C10.56 13.4507 11.2107 12.512 11.744 11.488L12.128 11.776C11.552 13.056 10.816 14.1653 9.92 15.104C9.04533 16.0427 8.08533 16.768 7.04 17.28C6.016 17.8133 4.97067 18.08 3.904 18.08ZM2.336 12.704C2.912 12.512 3.56267 12.2347 4.288 11.872C5.01333 11.488 5.70667 11.04 6.368 10.528C7.05067 10.016 7.60533 9.45067 8.032 8.832C8.48 8.21333 8.704 7.56267 8.704 6.88C8.704 6.64533 8.66133 6.464 8.576 6.336C8.49067 6.208 8.30933 6.144 8.032 6.144C7.52 6.144 6.976 6.34667 6.4 6.752C5.824 7.136 5.26933 7.648 4.736 8.288C4.20267 8.928 3.72267 9.632 3.296 10.4C2.86933 11.168 2.54933 11.936 2.336 12.704ZM11.136 3.136C10.816 3.136 10.5387 3.06133 10.304 2.912C10.0693 2.76267 9.952 2.51733 9.952 2.176C9.952 1.77067 10.1867 1.41867 10.656 1.12C11.1253 0.821334 11.5947 0.672001 12.064 0.672001C12.3627 0.672001 12.5973 0.736001 12.768 0.864C12.9387 0.992 13.024 1.22667 13.024 1.568C13.024 1.93067 12.8213 2.28267 12.416 2.624C12.032 2.96533 11.6053 3.136 11.136 3.136ZM6.528 2.464C6.208 2.464 5.93067 2.38933 5.696 2.24C5.46133 2.09067 5.344 1.84533 5.344 1.504C5.344 1.09867 5.57867 0.746667 6.048 0.448C6.51733 0.149333 6.98667 0 7.456 0C7.75467 0 7.98933 0.0639998 8.16 0.191999C8.33067 0.32 8.416 0.554667 8.416 0.896C8.416 1.25867 8.21333 1.61067 7.808 1.952C7.424 2.29333 6.99733 2.464 6.528 2.464Z" fill="#1A1A1A"/>
</svg>
