<svg width="13" height="20" viewBox="0 0 13 20" fill="none" xmlns="http://www.w3.org/2000/svg">
<path d="M3.904 19.488C2.60267 19.488 1.62133 19.1253 0.96 18.4C0.32 17.696 0 16.8213 0 15.776C0 14.816 0.234667 13.8027 0.704 12.736C1.19467 11.6693 1.83467 10.6667 2.624 9.728C3.43467 8.78933 4.32 8.032 5.28 7.456C6.24 6.85867 7.18933 6.56 8.128 6.56C8.61867 6.56 9.06667 6.688 9.472 6.944C9.89867 7.2 10.112 7.72267 10.112 8.512C10.112 9.32267 9.86667 10.0907 9.376 10.816C8.90667 11.52 8.27733 12.1493 7.488 12.704C6.72 13.2587 5.86667 13.7173 4.928 14.08C4.01067 14.4213 3.09333 14.6347 2.176 14.72C2.13333 14.9333 2.10133 15.136 2.08 15.328C2.05867 15.52 2.048 15.7013 2.048 15.872C2.048 16.192 2.08 16.512 2.144 16.832C2.22933 17.152 2.368 17.4507 2.56 17.728C2.752 17.984 3.008 18.1867 3.328 18.336C3.66933 18.4853 4.08533 18.56 4.576 18.56C5.49333 18.56 6.4 18.304 7.296 17.792C8.192 17.2587 9.024 16.5653 9.792 15.712C10.56 14.8587 11.2107 13.92 11.744 12.896L12.128 13.184C11.552 14.464 10.816 15.5733 9.92 16.512C9.04533 17.4507 8.08533 18.176 7.04 18.688C6.016 19.2213 4.97067 19.488 3.904 19.488ZM2.336 14.112C2.912 13.92 3.56267 13.6427 4.288 13.28C5.01333 12.896 5.70667 12.448 6.368 11.936C7.05067 11.424 7.60533 10.8587 8.032 10.24C8.48 9.62133 8.704 8.97067 8.704 8.288C8.704 8.05333 8.66133 7.872 8.576 7.744C8.49067 7.616 8.30933 7.552 8.032 7.552C7.52 7.552 6.976 7.75467 6.4 8.16C5.824 8.544 5.26933 9.056 4.736 9.696C4.20267 10.336 3.72267 11.04 3.296 11.808C2.86933 12.576 2.54933 13.344 2.336 14.112ZM9.856 4.704C9.38667 4.08533 8.864 3.47733 8.288 2.88C7.712 2.28267 7.04 1.65333 6.272 0.991999C6.31467 0.607999 6.4 0.351999 6.528 0.223999C6.656 0.0746663 6.80533 0 6.976 0C7.296 0 7.648 0.16 8.032 0.48C8.416 0.799999 8.77867 1.19467 9.12 1.664C9.46133 2.112 9.73867 2.54933 9.952 2.976C10.1867 3.38133 10.304 3.68 10.304 3.872C10.304 3.95733 10.272 4.096 10.208 4.288C10.144 4.48 10.0267 4.61867 9.856 4.704Z" fill="#1A1A1A"/>
</svg>
