<svg width="13" height="13" viewBox="0 0 13 13" fill="none" xmlns="http://www.w3.org/2000/svg">
<path d="M3.904 12.928C2.60267 12.928 1.62133 12.5653 0.96 11.84C0.32 11.136 0 10.2613 0 9.216C0 8.256 0.234667 7.24267 0.704 6.176C1.19467 5.10933 1.83467 4.10667 2.624 3.168C3.43467 2.22933 4.32 1.472 5.28 0.896C6.24 0.298667 7.18933 0 8.128 0C8.61867 0 9.06667 0.128 9.472 0.384C9.89867 0.64 10.112 1.16267 10.112 1.952C10.112 2.76267 9.86667 3.53067 9.376 4.256C8.90667 4.96 8.27733 5.58933 7.488 6.144C6.72 6.69867 5.86667 7.15733 4.928 7.52C4.01067 7.86133 3.09333 8.07467 2.176 8.16C2.13333 8.37333 2.10133 8.576 2.08 8.768C2.05867 8.96 2.048 9.14133 2.048 9.312C2.048 9.632 2.08 9.952 2.144 10.272C2.22933 10.592 2.368 10.8907 2.56 11.168C2.752 11.424 3.008 11.6267 3.328 11.776C3.66933 11.9253 4.08533 12 4.576 12C5.49333 12 6.4 11.744 7.296 11.232C8.192 10.6987 9.024 10.0053 9.792 9.152C10.56 8.29867 11.2107 7.36 11.744 6.336L12.128 6.624C11.552 7.904 10.816 9.01333 9.92 9.952C9.04533 10.8907 8.08533 11.616 7.04 12.128C6.016 12.6613 4.97067 12.928 3.904 12.928ZM2.336 7.552C2.912 7.36 3.56267 7.08267 4.288 6.72C5.01333 6.336 5.70667 5.888 6.368 5.376C7.05067 4.864 7.60533 4.29867 8.032 3.68C8.48 3.06133 8.704 2.41067 8.704 1.728C8.704 1.49333 8.66133 1.312 8.576 1.184C8.49067 1.056 8.30933 0.992 8.032 0.992C7.52 0.992 6.976 1.19467 6.4 1.6C5.824 1.984 5.26933 2.496 4.736 3.136C4.20267 3.776 3.72267 4.48 3.296 5.248C2.86933 6.016 2.54933 6.784 2.336 7.552Z" fill="#1A1A1A"/>
</svg>
