<svg width="15" height="21" viewBox="0 0 15 21" fill="none" xmlns="http://www.w3.org/2000/svg">
<path d="M1.856 20.064C1.38667 20.064 0.96 19.9147 0.576 19.616C0.192 19.3387 0 18.8693 0 18.208C0 17.568 0.202667 16.9707 0.608 16.416C0.992 15.8827 1.49333 15.3813 2.112 14.912C2.73067 14.464 3.40267 14.048 4.128 13.664C4.87467 13.28 5.57867 12.9173 6.24 12.576C6.53867 11.8293 6.816 11.0293 7.072 10.176C7.34933 9.30133 7.616 8.34133 7.872 7.296C7.06133 8.46933 6.208 9.45067 5.312 10.24C4.43733 11.008 3.552 11.392 2.656 11.392C1.888 11.392 1.29067 11.104 0.864 10.528C0.458667 9.952 0.256 9.20533 0.256 8.288C0.256 7.17867 0.522667 6.12267 1.056 5.12C1.61067 4.11733 2.32533 3.232 3.2 2.464C4.07467 1.696 5.00267 1.09867 5.984 0.672C6.96533 0.224 7.88267 0 8.736 0C9.35467 0 9.792 0.106667 10.048 0.32C10.3253 0.512 10.464 0.746666 10.464 1.024C10.464 1.216 10.4107 1.36533 10.304 1.472C10.1973 1.57867 10.1227 1.64267 10.08 1.664C9.97333 1.49333 9.81333 1.376 9.6 1.312C9.38667 1.22667 9.12 1.184 8.8 1.184C7.968 1.184 7.15733 1.42933 6.368 1.92C5.6 2.41067 4.91733 3.04 4.32 3.808C3.72267 4.576 3.24267 5.376 2.88 6.208C2.53867 7.01867 2.368 7.76533 2.368 8.448C2.368 8.96 2.464 9.35467 2.656 9.632C2.86933 9.888 3.14667 10.016 3.488 10.016C4.10667 10.016 4.84267 9.61067 5.696 8.8C6.57067 7.968 7.41333 6.96533 8.224 5.792C8.288 5.49333 8.34133 5.22667 8.384 4.992C8.448 4.75733 8.52267 4.45867 8.608 4.096C8.672 3.79733 8.82133 3.456 9.056 3.072C9.312 2.66667 9.70667 2.464 10.24 2.464C10.3467 2.464 10.4533 2.47467 10.56 2.496C10.6667 2.496 10.784 2.51733 10.912 2.56C10.912 2.90133 10.8053 3.53067 10.592 4.448C10.4 5.344 10.112 6.4 9.728 7.616C9.36533 8.81067 8.93867 10.048 8.448 11.328C9.152 10.9867 9.83467 10.5493 10.496 10.016C11.1787 9.48267 11.7973 8.87467 12.352 8.192C12.9067 7.488 13.344 6.73067 13.664 5.92L14.08 6.24C13.76 7.2 13.248 8.07467 12.544 8.864C11.84 9.65333 11.0827 10.336 10.272 10.912C9.48267 11.488 8.75733 11.936 8.096 12.256C7.49867 13.6853 6.86933 14.9867 6.208 16.16C5.54667 17.3547 4.85333 18.304 4.128 19.008C3.424 19.712 2.66667 20.064 1.856 20.064ZM1.76 19.04C2.18667 19.04 2.76267 18.6133 3.488 17.76C4.23467 16.928 5.03467 15.488 5.888 13.44C5.03467 13.8667 4.23467 14.304 3.488 14.752C2.76267 15.2213 2.16533 15.712 1.696 16.224C1.22667 16.736 0.992 17.3013 0.992 17.92C0.992 18.2613 1.06667 18.528 1.216 18.72C1.36533 18.9333 1.54667 19.04 1.76 19.04Z" fill="#1A1A1A"/>
</svg>
