<svg width="10" height="19" viewBox="0 0 10 19" fill="none" xmlns="http://www.w3.org/2000/svg">
<path d="M2.464 18.272C1.632 18.272 1.01333 18.0053 0.608 17.472C0.202667 16.96 0 16.3307 0 15.584C0 15.0933 0.0853333 14.4747 0.256 13.728C0.448 12.9813 0.693333 12.2027 0.992 11.392C1.29067 10.56 1.632 9.78133 2.016 9.056C2.42133 8.33067 2.848 7.744 3.296 7.296C3.744 6.82667 4.18133 6.592 4.608 6.592C4.8 6.592 4.96 6.656 5.088 6.784C5.23733 6.89067 5.312 7.06133 5.312 7.296C5.312 7.552 5.14133 7.968 4.8 8.544C4.48 9.12 4.096 9.78133 3.648 10.528C3.2 11.2747 2.80533 12.064 2.464 12.896C2.144 13.7067 1.984 14.4853 1.984 15.232C1.984 16 2.112 16.512 2.368 16.768C2.624 17.024 3.01867 17.152 3.552 17.152C4.27733 17.152 5.04533 16.7893 5.856 16.064C6.688 15.3387 7.56267 14.0693 8.48 12.256L8.768 12.576C8.14933 14.4107 7.25333 15.8187 6.08 16.8C4.928 17.7813 3.72267 18.272 2.464 18.272ZM9.312 4.544C9.01333 3.92533 8.672 3.40267 8.288 2.976C7.904 2.528 7.456 2.06933 6.944 1.6C6.28267 1.83467 5.68533 2.09067 5.152 2.368C4.64 2.64533 4.13867 2.99733 3.648 3.424C3.52 3.33867 3.43467 3.24267 3.392 3.136C3.34933 3.008 3.328 2.90133 3.328 2.816C3.328 2.496 3.46667 2.176 3.744 1.856C4.04267 1.536 4.39467 1.23733 4.8 0.959999C5.22667 0.661332 5.64267 0.426666 6.048 0.256001C6.45333 0.0853335 6.76267 0 6.976 0C7.232 0 7.52 0.117333 7.84 0.351999C8.18133 0.586667 8.50133 0.896001 8.8 1.28C9.09867 1.64267 9.344 2.02667 9.536 2.432C9.74933 2.83733 9.856 3.21067 9.856 3.552C9.856 3.76533 9.81333 3.95733 9.728 4.128C9.64267 4.29867 9.504 4.43733 9.312 4.544Z" fill="#1A1A1A"/>
</svg>
