<svg width="15" height="26" viewBox="0 0 15 26" fill="none" xmlns="http://www.w3.org/2000/svg">
<path d="M1.664 25.664C1.13067 25.664 0.725333 25.504 0.448 25.184C0.149333 24.8853 0 24.5013 0 24.032C0 23.2427 0.384 22.3787 1.152 21.44C1.89867 20.5013 2.85867 19.7013 4.032 19.04C4.33067 18.8693 4.65067 18.7093 4.992 18.56C5.312 18.4107 5.67467 18.2293 6.08 18.016C6.50667 16.992 6.90133 15.8293 7.264 14.528C7.62667 13.2053 7.94667 11.744 8.224 10.144C7.904 10.72 7.60533 11.2213 7.328 11.648C7.072 12.0747 6.86933 12.416 6.72 12.672L6.432 12.192C6.79467 11.5307 7.11467 10.8267 7.392 10.08C7.69067 9.312 7.968 8.58667 8.224 7.904C8.50133 7.22133 8.77867 6.66667 9.056 6.24C9.33333 5.81333 9.632 5.6 9.952 5.6C10.1867 5.6 10.368 5.696 10.496 5.888C10.6453 6.05867 10.72 6.28267 10.72 6.56C10.72 6.79467 10.656 7.25333 10.528 7.936C10.4213 8.59733 10.2507 9.41867 10.016 10.4C9.80267 11.36 9.536 12.4053 9.216 13.536C8.896 14.6667 8.544 15.808 8.16 16.96C8.77867 16.5973 9.39733 16.224 10.016 15.84C10.6347 15.456 11.2533 14.944 11.872 14.304C12.512 13.664 13.1307 12.7893 13.728 11.68L14.144 11.904C13.6107 13.1627 12.9707 14.1653 12.224 14.912C11.4987 15.6373 10.752 16.2133 9.984 16.64C9.216 17.0667 8.50133 17.472 7.84 17.856C7.37067 19.1787 6.816 20.4373 6.176 21.632C5.55733 22.8267 4.87467 23.7973 4.128 24.544C3.36 25.2907 2.53867 25.664 1.664 25.664ZM1.376 24.576C1.80267 24.576 2.42133 24.1067 3.232 23.168C4.02133 22.2507 4.832 20.8747 5.664 19.04C4.04267 19.8293 2.83733 20.6507 2.048 21.504C1.23733 22.3573 0.832 23.1253 0.832 23.808C0.832 24.0853 0.885333 24.2773 0.992 24.384C1.09867 24.512 1.22667 24.576 1.376 24.576ZM10.464 2.72C10.1227 2.72 9.824 2.63467 9.568 2.464C9.312 2.29333 9.184 2.03733 9.184 1.696C9.184 1.376 9.30133 1.088 9.536 0.832C9.792 0.576 10.1013 0.373333 10.464 0.223999C10.8267 0.0746663 11.1787 0 11.52 0C11.8187 0 12.064 0.0746663 12.256 0.223999C12.4693 0.373333 12.576 0.597333 12.576 0.896C12.576 1.36533 12.352 1.792 11.904 2.176C11.4773 2.53867 10.9973 2.72 10.464 2.72Z" fill="#1A1A1A"/>
</svg>
