<svg width="16" height="25" viewBox="0 0 16 25" fill="none" xmlns="http://www.w3.org/2000/svg">
<path d="M9.376 24.064C8.77867 24.064 8.26667 23.8613 7.84 23.456C7.41333 23.0507 7.072 22.5387 6.816 21.92C6.58133 21.3013 6.4 20.672 6.272 20.032C6.16533 19.3707 6.112 18.7947 6.112 18.304C6.34667 18.304 6.688 18.2507 7.136 18.144C7.584 18.016 8.04267 17.8347 8.512 17.6C8.98133 17.344 9.376 17.024 9.696 16.64C10.0373 16.2347 10.208 15.7653 10.208 15.232C10.208 14.784 10.048 14.432 9.728 14.176C9.408 13.92 9.03467 13.792 8.608 13.792C7.94667 13.792 7.328 14.0267 6.752 14.496C6.176 14.944 5.65333 15.5413 5.184 16.288C4.736 17.0133 4.33067 17.792 3.968 18.624C3.60533 19.456 3.296 20.2453 3.04 20.992C2.784 21.7387 2.57067 22.3573 2.4 22.848C2.272 23.232 2.09067 23.488 1.856 23.616C1.62133 23.7653 1.376 23.84 1.12 23.84C0.757333 23.84 0.490667 23.6907 0.32 23.392C0.170667 23.0933 0.0746667 22.72 0.032 22.272C0.0106667 21.8027 0 21.3227 0 20.832C0 19.7227 0.181333 18.4427 0.544 16.992C0.906667 15.5413 1.38667 14.0373 1.984 12.48C2.60267 10.9013 3.27467 9.376 4 7.904C4.72533 6.432 5.45067 5.09867 6.176 3.904C6.90133 2.70933 7.57333 1.76 8.192 1.056C8.81067 0.352 9.312 0 9.696 0C9.99467 0 10.2293 0.202667 10.4 0.608C10.592 1.01333 10.688 1.504 10.688 2.08C10.688 2.80533 10.528 3.62667 10.208 4.544C9.888 5.44 9.42933 6.34667 8.832 7.264C8.256 8.18133 7.56267 9.04533 6.752 9.856C5.96267 10.6667 5.09867 11.36 4.16 11.936C3.456 13.664 2.92267 15.3493 2.56 16.992C2.21867 18.6133 2.048 19.9787 2.048 21.088C2.38933 20.2347 2.79467 19.296 3.264 18.272C3.75467 17.248 4.30933 16.2667 4.928 15.328C5.54667 14.3893 6.21867 13.6213 6.944 13.024C7.66933 12.4267 8.42667 12.128 9.216 12.128C10.0053 12.128 10.6773 12.4053 11.232 12.96C11.7867 13.5147 12.064 14.1867 12.064 14.976C12.064 15.6587 11.8827 16.2453 11.52 16.736C11.1787 17.2053 10.752 17.5893 10.24 17.888C9.74933 18.1653 9.248 18.3787 8.736 18.528C8.24533 18.656 7.84 18.72 7.52 18.72C7.54133 18.8907 7.60533 19.2 7.712 19.648C7.81867 20.096 7.968 20.5653 8.16 21.056C8.37333 21.5467 8.62933 21.9733 8.928 22.336C9.22667 22.6773 9.58933 22.848 10.016 22.848C10.6347 22.848 11.2213 22.6133 11.776 22.144C12.3307 21.6747 12.8533 21.056 13.344 20.288C13.856 19.4987 14.3253 18.6133 14.752 17.632L15.072 17.952C14.7733 18.9973 14.3147 19.9893 13.696 20.928C13.0773 21.8453 12.384 22.592 11.616 23.168C10.8693 23.7653 10.1227 24.064 9.376 24.064ZM4.704 10.656C5.68533 9.86667 6.53867 8.97067 7.264 7.968C8.01067 6.96533 8.58667 6.00533 8.992 5.088C9.39733 4.14933 9.6 3.41333 9.6 2.88C9.6 2.77333 9.58933 2.69867 9.568 2.656C9.568 2.61333 9.54667 2.592 9.504 2.592C9.29067 2.592 8.91733 2.96533 8.384 3.712C7.872 4.45867 7.28533 5.45067 6.624 6.688C5.96267 7.904 5.32267 9.22667 4.704 10.656Z" fill="#1A1A1A"/>
</svg>
