<svg width="18" height="10" viewBox="0 0 18 10" fill="none" xmlns="http://www.w3.org/2000/svg">
<path d="M11.552 9.984C10.8053 9.984 10.24 9.792 9.856 9.408C9.49333 9.024 9.312 8.53333 9.312 7.936C9.312 7.488 9.38667 7.01867 9.536 6.528C9.70667 6.03733 9.86667 5.536 10.016 5.024C10.1653 4.49067 10.24 3.97867 10.24 3.488C10.24 2.89067 10.112 2.48533 9.856 2.272C9.62133 2.03733 9.32267 1.92 8.96 1.92C8.29867 1.92 7.62667 2.19733 6.944 2.752C6.26133 3.28533 5.6 3.97867 4.96 4.832C4.32 5.664 3.72267 6.528 3.168 7.424C2.61333 8.32 2.12267 9.12 1.696 9.824C1.35467 9.824 1.03467 9.76 0.736 9.632C0.416 9.52533 0.170667 9.35467 0 9.12C0 9.01333 0.117333 8.68267 0.352 8.128C0.565333 7.57333 0.821333 6.89067 1.12 6.08C1.41867 5.26933 1.68533 4.43733 1.92 3.584C2.15467 2.73067 2.272 1.952 2.272 1.248C2.4 1.09867 2.60267 0.949334 2.88 0.8C3.15733 0.650667 3.44533 0.576 3.744 0.576C4.32 0.576 4.608 0.853334 4.608 1.408C4.608 1.74933 4.512 2.32533 4.32 3.136C4.128 3.92533 3.88267 4.75733 3.584 5.632C4.16 4.75733 4.8 3.89333 5.504 3.04C6.22933 2.16533 6.99733 1.44 7.808 0.864C8.61867 0.288 9.42933 0 10.24 0C11.072 0 11.6693 0.298667 12.032 0.896001C12.416 1.49333 12.608 2.15467 12.608 2.88C12.608 3.54133 12.5013 4.16 12.288 4.736C12.0747 5.29067 11.8507 5.83467 11.616 6.368C11.4027 6.88 11.296 7.40267 11.296 7.936C11.296 8.384 11.3813 8.704 11.552 8.896C11.744 9.06667 11.9787 9.152 12.256 9.152C12.7893 9.152 13.3227 8.90667 13.856 8.416C14.3893 7.904 14.9013 7.264 15.392 6.496C15.904 5.728 16.352 4.94933 16.736 4.16L17.088 4.576C16.64 5.62133 16.1387 6.54933 15.584 7.36C15.0293 8.17067 14.4213 8.81067 13.76 9.28C13.0987 9.74933 12.3627 9.984 11.552 9.984Z" fill="#1A1A1A"/>
</svg>
