<svg width="13" height="19" viewBox="0 0 13 19" fill="none" xmlns="http://www.w3.org/2000/svg">
<path d="M2.528 18.88C1.61067 18.88 0.96 18.592 0.576 18.016C0.192 17.4613 0 16.7787 0 15.968C0 15.3067 0.106667 14.624 0.32 13.92C0.533333 13.216 0.810667 12.5547 1.152 11.936C1.51467 11.3173 1.90933 10.816 2.336 10.432C2.784 10.048 3.232 9.856 3.68 9.856C3.78667 9.856 3.89333 9.87733 4 9.92C4.128 9.94133 4.24533 9.97333 4.352 10.016C4.16 10.1867 3.92533 10.5067 3.648 10.976C3.392 11.424 3.14667 11.9467 2.912 12.544C2.67733 13.12 2.47467 13.696 2.304 14.272C2.15467 14.848 2.08 15.3387 2.08 15.744C2.08 16.384 2.18667 16.8533 2.4 17.152C2.61333 17.4293 2.89067 17.568 3.232 17.568C3.68 17.568 4.21333 17.3333 4.832 16.864C5.45067 16.3733 6.05867 15.7547 6.656 15.008C6.05867 14.5173 5.58933 13.8773 5.248 13.088C4.928 12.2773 4.768 11.456 4.768 10.624C4.768 9.92 4.88533 9.25867 5.12 8.64C5.376 8.02133 5.73867 7.53067 6.208 7.168C6.67733 6.784 7.24267 6.592 7.904 6.592C8.77867 6.592 9.36533 6.82667 9.664 7.296C9.96267 7.76533 10.112 8.352 10.112 9.056C10.112 9.888 9.90933 10.816 9.504 11.84C9.09867 12.8427 8.58667 13.8133 7.968 14.752C8.352 14.9653 8.75733 15.072 9.184 15.072C9.52533 15.072 9.90933 15.008 10.336 14.88C10.7627 14.7307 11.1787 14.4853 11.584 14.144C12.0107 13.8027 12.352 13.344 12.608 12.768L12.992 13.088C12.5653 14.0907 11.9573 14.8053 11.168 15.232C10.4 15.6373 9.664 15.84 8.96 15.84C8.68267 15.84 8.416 15.8187 8.16 15.776C7.904 15.712 7.65867 15.6267 7.424 15.52C6.69867 16.48 5.89867 17.28 5.024 17.92C4.17067 18.56 3.33867 18.88 2.528 18.88ZM7.232 14.176C7.76533 13.3867 8.20267 12.5653 8.544 11.712C8.90667 10.8373 9.088 10.016 9.088 9.248C9.088 8.62933 8.992 8.18133 8.8 7.904C8.62933 7.60533 8.40533 7.456 8.128 7.456C7.70133 7.456 7.264 7.76533 6.816 8.384C6.368 9.00267 6.144 9.78133 6.144 10.72C6.144 11.3387 6.22933 11.968 6.4 12.608C6.592 13.2267 6.86933 13.7493 7.232 14.176ZM12.096 4.544C11.7973 3.92533 11.456 3.40267 11.072 2.976C10.688 2.528 10.24 2.06933 9.728 1.6C9.06667 1.83467 8.46933 2.09067 7.936 2.368C7.424 2.64533 6.92267 2.99733 6.432 3.424C6.304 3.33867 6.21867 3.24267 6.176 3.136C6.13333 3.008 6.112 2.90133 6.112 2.816C6.112 2.496 6.25067 2.176 6.528 1.856C6.82667 1.536 7.17867 1.23733 7.584 0.960001C8.01067 0.661333 8.42667 0.426666 8.832 0.256001C9.23733 0.0853335 9.54667 0 9.76 0C10.016 0 10.304 0.117333 10.624 0.351999C10.9653 0.586667 11.2853 0.896001 11.584 1.28C11.8827 1.64267 12.128 2.02667 12.32 2.432C12.5333 2.83733 12.64 3.21067 12.64 3.552C12.64 3.76533 12.5973 3.95733 12.512 4.128C12.4267 4.29867 12.288 4.43733 12.096 4.544Z" fill="#1A1A1A"/>
</svg>
