<svg width="20" height="14" viewBox="0 0 20 14" fill="none" xmlns="http://www.w3.org/2000/svg">
<path d="M2.368 13.024C1.70667 13.024 1.152 12.8 0.704 12.352C0.234667 11.9253 0 11.264 0 10.368C0 9.6 0.170667 8.77867 0.512 7.904C0.853333 7.008 1.32267 6.13333 1.92 5.28C2.51733 4.40533 3.18933 3.616 3.936 2.912C4.704 2.18667 5.504 1.61067 6.336 1.184C7.18933 0.757333 8.032 0.544 8.864 0.544C9.46133 0.544 9.94133 0.661333 10.304 0.896C10.6667 1.13067 10.9227 1.46133 11.072 1.888C11.7333 1.312 12.416 0.853333 13.12 0.512C13.8453 0.170667 14.56 0 15.264 0C15.7547 0 16.2027 0.128 16.608 0.384C17.0347 0.64 17.248 1.16267 17.248 1.952C17.248 2.76267 17.0027 3.53067 16.512 4.256C16.0427 4.96 15.4133 5.58933 14.624 6.144C13.856 6.69867 13.0027 7.15733 12.064 7.52C11.1467 7.86133 10.2293 8.07467 9.312 8.16C9.26933 8.37333 9.23733 8.576 9.216 8.768C9.19467 8.96 9.184 9.14133 9.184 9.312C9.184 9.73867 9.25867 10.1653 9.408 10.592C9.55733 10.9973 9.81333 11.328 10.176 11.584C10.5387 11.8613 11.0507 12 11.712 12C12.6293 12 13.536 11.744 14.432 11.232C15.328 10.6987 16.16 10.0053 16.928 9.152C17.696 8.29867 18.3467 7.36 18.88 6.336L19.264 6.624C18.688 7.904 17.952 9.01333 17.056 9.952C16.1813 10.8907 15.2213 11.616 14.176 12.128C13.152 12.6613 12.1067 12.928 11.04 12.928C9.78133 12.928 8.82133 12.5867 8.16 11.904C7.52 11.2213 7.17867 10.3893 7.136 9.408C6.21867 10.6027 5.38667 11.4987 4.64 12.096C3.89333 12.7147 3.136 13.024 2.368 13.024ZM3.072 11.712C3.37067 11.712 3.68 11.6267 4 11.456C4.34133 11.264 4.68267 11.0187 5.024 10.72C5.38667 10.4 5.74933 10.0373 6.112 9.632C6.496 9.22667 6.85867 8.8 7.2 8.352L7.296 7.872C6.592 7.63733 6.05867 7.2 5.696 6.56C5.33333 5.92 5.152 5.23733 5.152 4.512C5.152 4.36267 5.16267 4.21333 5.184 4.064C5.20533 3.91467 5.22667 3.76533 5.248 3.616C4.672 4.27733 4.14933 5.024 3.68 5.856C3.232 6.688 2.86933 7.50933 2.592 8.32C2.336 9.10933 2.208 9.824 2.208 10.464C2.208 10.8907 2.28267 11.2107 2.432 11.424C2.58133 11.616 2.79467 11.712 3.072 11.712ZM7.52 7.04C7.79733 6.25067 8.17067 5.48267 8.64 4.736C9.13067 3.968 9.68533 3.264 10.304 2.624C10.2187 2.26133 10.0587 1.97333 9.824 1.76C9.58933 1.52533 9.248 1.408 8.8 1.408C8.416 1.408 8.032 1.57867 7.648 1.92C7.28533 2.24 6.98667 2.67733 6.752 3.232C6.51733 3.76533 6.4 4.352 6.4 4.992C6.4 5.44 6.50667 5.83467 6.72 6.176C6.93333 6.51733 7.2 6.80533 7.52 7.04ZM9.472 7.552C10.048 7.36 10.6987 7.08267 11.424 6.72C12.1493 6.336 12.8427 5.888 13.504 5.376C14.1867 4.864 14.7413 4.29867 15.168 3.68C15.616 3.06133 15.84 2.41067 15.84 1.728C15.84 1.49333 15.7973 1.312 15.712 1.184C15.6267 1.056 15.4453 0.992 15.168 0.992C14.656 0.992 14.112 1.19467 13.536 1.6C12.96 1.984 12.4053 2.496 11.872 3.136C11.3387 3.776 10.8587 4.48 10.432 5.248C10.0053 6.016 9.68533 6.784 9.472 7.552Z" fill="#1A1A1A"/>
</svg>
