<svg width="13" height="14" viewBox="0 0 13 14" fill="none" xmlns="http://www.w3.org/2000/svg">
<path d="M5.504 13.92C4.77867 13.92 4.20267 13.728 3.776 13.344C3.37067 12.96 3.168 12.4587 3.168 11.84C3.168 11.2 3.31733 10.528 3.616 9.824C3.91467 9.12 4.20267 8.42667 4.48 7.744C4.77867 7.04 4.928 6.41067 4.928 5.856C4.928 5.17333 4.72533 4.672 4.32 4.352C3.936 4.01067 3.54133 3.70133 3.136 3.424C2.64533 4.68267 2.13333 5.87733 1.6 7.008C1.06667 8.13867 0.629333 8.992 0.288 9.568L0 9.024C0.298667 8.46933 0.682667 7.65867 1.152 6.592C1.64267 5.52533 2.12267 4.30933 2.592 2.944C2.37867 2.73067 2.272 2.47467 2.272 2.176C2.272 1.536 2.45333 1.01333 2.816 0.608C3.17867 0.202667 3.44533 0 3.616 0C3.85067 0 3.97867 0.106667 4 0.32C4.04267 0.512 4.064 0.661333 4.064 0.768C4.064 0.874666 4 1.088 3.872 1.408C3.76533 1.70667 3.712 1.888 3.712 1.952C3.712 2.25067 3.872 2.528 4.192 2.784C4.53333 3.01867 4.91733 3.296 5.344 3.616C5.77067 3.91467 6.144 4.288 6.464 4.736C6.80533 5.16267 6.976 5.71733 6.976 6.4C6.976 7.04 6.83733 7.69067 6.56 8.352C6.304 9.01333 6.03733 9.64267 5.76 10.24C5.504 10.8373 5.376 11.36 5.376 11.808C5.376 12.192 5.472 12.448 5.664 12.576C5.856 12.704 6.08 12.768 6.336 12.768C6.848 12.768 7.37067 12.608 7.904 12.288C8.45867 11.968 8.992 11.5627 9.504 11.072C10.016 10.5813 10.4747 10.0693 10.88 9.536C11.2853 8.98133 11.584 8.46933 11.776 8L12.192 8.32C11.7867 9.216 11.232 10.1013 10.528 10.976C9.824 11.8293 9.03467 12.5333 8.16 13.088C7.30667 13.6427 6.42133 13.92 5.504 13.92Z" fill="#1A1A1A"/>
</svg>
