<svg width="13" height="15" viewBox="0 0 13 15" fill="none" xmlns="http://www.w3.org/2000/svg">
<path d="M4 14.272C2.99733 14.272 2.19733 14.048 1.6 13.6C1.024 13.1733 0.618667 12.64 0.384 12C0.128 11.36 0 10.72 0 10.08C0 9.44 0.0853333 8.94933 0.256 8.608C0.426667 8.26667 0.629333 8.01067 0.864 7.84C1.12 7.66933 1.35467 7.54133 1.568 7.456C1.80267 7.37067 1.96267 7.28533 2.048 7.2C2.688 6.496 3.27467 5.76 3.808 4.992C4.34133 4.224 4.81067 3.41333 5.216 2.56V2.176C5.216 1.38667 5.344 0.832 5.6 0.512C5.87733 0.170667 6.16533 0 6.464 0C6.63467 0 6.76267 0.0426664 6.848 0.127999C6.93333 0.213333 6.976 0.309333 6.976 0.415999C6.976 0.522667 6.944 0.693333 6.88 0.927999C6.816 1.16267 6.784 1.46133 6.784 1.824C6.784 2.528 6.92267 3.296 7.2 4.128C7.47733 4.93867 7.75467 5.80267 8.032 6.72C8.30933 7.616 8.448 8.55467 8.448 9.536C8.448 9.81333 8.42667 10.0907 8.384 10.368C8.36267 10.624 8.32 10.8693 8.256 11.104C9.00267 10.976 9.70667 10.6453 10.368 10.112C11.0293 9.55733 11.6693 8.68267 12.288 7.488L12.576 7.808C12.1707 8.98133 11.5627 9.87733 10.752 10.496C9.94133 11.0933 9.056 11.4667 8.096 11.616C7.75467 12.5333 7.21067 13.2053 6.464 13.632C5.73867 14.0587 4.91733 14.272 4 14.272ZM4.064 13.152C4.32 13.152 4.66133 13.0667 5.088 12.896C5.51467 12.7253 5.84533 12.288 6.08 11.584C5.184 11.4133 4.384 11.0613 3.68 10.528C2.99733 9.99467 2.48533 9.46133 2.144 8.928C1.67467 8.94933 1.44 9.32267 1.44 10.048C1.44 10.816 1.664 11.5307 2.112 12.192C2.58133 12.832 3.232 13.152 4.064 13.152ZM6.24 11.072C6.28267 10.8587 6.31467 10.6347 6.336 10.4C6.35733 10.1653 6.368 9.888 6.368 9.568C6.368 8.56533 6.24 7.57333 5.984 6.592C5.74933 5.58933 5.54667 4.65067 5.376 3.776C4.88533 4.58667 4.36267 5.36533 3.808 6.112C3.27467 6.83733 2.76267 7.44533 2.272 7.936C2.592 8.61867 3.08267 9.25867 3.744 9.856C4.42667 10.4533 5.25867 10.8587 6.24 11.072Z" fill="#1A1A1A"/>
</svg>
