<svg width="11" height="21" viewBox="0 0 11 21" fill="none" xmlns="http://www.w3.org/2000/svg">
<path d="M2.848 20.576C1.93067 20.576 1.22667 20.3093 0.736 19.776C0.245333 19.2427 0 18.4533 0 17.408C0 16.4693 0.170667 15.3173 0.512 13.952C0.874667 12.5653 1.32267 11.1467 1.856 9.696C1.64267 9.65333 1.44 9.62133 1.248 9.6C1.056 9.55733 0.874667 9.504 0.704 9.44V8.864C0.874667 8.88533 1.07733 8.90667 1.312 8.928C1.54667 8.94933 1.81333 8.97067 2.112 8.992C2.56 7.84 3.04 6.73067 3.552 5.664C4.064 4.576 4.56533 3.616 5.056 2.784C5.568 1.93067 6.048 1.25867 6.496 0.768C6.96533 0.256 7.36 0 7.68 0C7.85067 0 8 0.0639998 8.128 0.191999C8.27733 0.298666 8.352 0.469332 8.352 0.703999C8.352 1.06667 8.128 1.664 7.68 2.496C7.232 3.30667 6.67733 4.27733 6.016 5.408C5.35467 6.53867 4.71467 7.76533 4.096 9.088C4.288 9.088 4.48 9.088 4.672 9.088C4.88533 9.088 5.088 9.088 5.28 9.088C5.984 9.088 6.72 9.07733 7.488 9.056C8.27733 9.03467 9.06667 8.98133 9.856 8.896V9.472C8.68267 9.6 7.62667 9.696 6.688 9.76C5.77067 9.824 4.94933 9.856 4.224 9.856C4.13867 9.856 4.05333 9.856 3.968 9.856C3.904 9.856 3.82933 9.856 3.744 9.856C3.25333 10.9867 2.83733 12.1493 2.496 13.344C2.15467 14.5387 1.984 15.7013 1.984 16.832C1.984 17.7493 2.12267 18.4107 2.4 18.816C2.67733 19.2 3.136 19.392 3.776 19.392C4.88533 19.392 5.97333 18.9013 7.04 17.92C8.10667 16.9387 9.04533 15.6053 9.856 13.92L10.272 14.24C9.76 15.4347 9.10933 16.512 8.32 17.472C7.552 18.432 6.69867 19.1893 5.76 19.744C4.82133 20.2987 3.85067 20.576 2.848 20.576Z" fill="#1A1A1A"/>
</svg>
