<svg width="16" height="18" viewBox="0 0 16 18" fill="none" xmlns="http://www.w3.org/2000/svg">
<path d="M2.4 17.088C1.67467 17.088 1.088 16.768 0.64 16.128C0.213333 15.4667 0 14.7093 0 13.856C0 13.2373 0.096 12.5227 0.288 11.712C0.501333 10.9013 0.757333 10.1013 1.056 9.312C1.35467 8.52267 1.664 7.872 1.984 7.36C2.304 6.848 2.58133 6.592 2.816 6.592C2.92267 6.592 3.104 6.656 3.36 6.784C3.616 6.89067 3.82933 7.04 4 7.232C3.76533 7.59467 3.47733 8.14933 3.136 8.896C2.79467 9.64267 2.496 10.4427 2.24 11.296C1.984 12.1493 1.856 12.9387 1.856 13.664C1.856 13.8347 1.87733 14.1013 1.92 14.464C1.96267 14.8053 2.06933 15.1147 2.24 15.392C2.41067 15.6693 2.66667 15.808 3.008 15.808C3.41333 15.808 3.82933 15.6053 4.256 15.2C4.68267 14.7733 5.10933 14.2293 5.536 13.568C5.984 12.9067 6.41067 12.192 6.816 11.424C7.22133 10.656 7.59467 9.92 7.936 9.216C8.29867 8.512 8.59733 7.92533 8.832 7.456C8.96 7.47733 9.14133 7.52 9.376 7.584C9.632 7.648 9.856 7.73333 10.048 7.84C10.2613 7.94667 10.368 8.096 10.368 8.288C10.368 8.37333 10.2613 8.66133 10.048 9.152C9.83467 9.62133 9.57867 10.208 9.28 10.912C9.00267 11.5947 8.75733 12.288 8.544 12.992C8.33067 13.696 8.224 14.3147 8.224 14.848C8.224 15.232 8.29867 15.5413 8.448 15.776C8.61867 16.0107 8.896 16.128 9.28 16.128C9.728 16.128 10.272 15.9253 10.912 15.52C11.552 15.1147 12.2027 14.528 12.864 13.76C13.5253 12.9707 14.112 12.032 14.624 10.944L15.04 11.232C14.592 12.384 14.0053 13.408 13.28 14.304C12.5547 15.1787 11.7867 15.8613 10.976 16.352C10.1653 16.8427 9.376 17.088 8.608 17.088C8.05333 17.088 7.60533 16.9813 7.264 16.768C6.944 16.5547 6.70933 16.2667 6.56 15.904C6.432 15.5413 6.368 15.1467 6.368 14.72C6.368 14.464 6.38933 14.208 6.432 13.952C6.47467 13.6747 6.528 13.3973 6.592 13.12C6.208 13.824 5.792 14.4853 5.344 15.104C4.896 15.7013 4.42667 16.1813 3.936 16.544C3.44533 16.9067 2.93333 17.088 2.4 17.088ZM10.272 4.544C9.97333 3.92533 9.632 3.40267 9.248 2.976C8.864 2.528 8.416 2.06933 7.904 1.6C7.24267 1.83467 6.64533 2.09067 6.112 2.368C5.6 2.64533 5.09867 2.99733 4.608 3.424C4.48 3.33867 4.39467 3.24267 4.352 3.136C4.30933 3.008 4.288 2.90133 4.288 2.816C4.288 2.496 4.42667 2.176 4.704 1.856C5.00267 1.536 5.35467 1.23733 5.76 0.959999C6.18667 0.661332 6.60267 0.426666 7.008 0.256C7.41333 0.0853332 7.72267 0 7.936 0C8.192 0 8.48 0.117333 8.8 0.351999C9.14133 0.586666 9.46133 0.896 9.76 1.28C10.0587 1.64267 10.304 2.02667 10.496 2.432C10.7093 2.83733 10.816 3.21067 10.816 3.552C10.816 3.76533 10.7733 3.95733 10.688 4.128C10.6027 4.29867 10.464 4.43733 10.272 4.544Z" fill="#1A1A1A"/>
</svg>
