<svg width="16" height="17" viewBox="0 0 16 17" fill="none" xmlns="http://www.w3.org/2000/svg">
<path d="M2.4 16.096C1.67467 16.096 1.088 15.776 0.64 15.136C0.213333 14.4747 0 13.7173 0 12.864C0 12.2453 0.096 11.5307 0.288 10.72C0.501333 9.90933 0.757333 9.10933 1.056 8.32C1.35467 7.53067 1.664 6.88 1.984 6.368C2.304 5.856 2.58133 5.6 2.816 5.6C2.92267 5.6 3.104 5.664 3.36 5.792C3.616 5.89867 3.82933 6.048 4 6.24C3.76533 6.60267 3.47733 7.15733 3.136 7.904C2.79467 8.65067 2.496 9.45067 2.24 10.304C1.984 11.1573 1.856 11.9467 1.856 12.672C1.856 12.8427 1.87733 13.1093 1.92 13.472C1.96267 13.8133 2.06933 14.1227 2.24 14.4C2.41067 14.6773 2.66667 14.816 3.008 14.816C3.41333 14.816 3.82933 14.6133 4.256 14.208C4.68267 13.7813 5.10933 13.2373 5.536 12.576C5.984 11.9147 6.41067 11.2 6.816 10.432C7.22133 9.664 7.59467 8.928 7.936 8.224C8.29867 7.52 8.59733 6.93333 8.832 6.464C8.96 6.48533 9.14133 6.528 9.376 6.592C9.632 6.656 9.856 6.74133 10.048 6.848C10.2613 6.95467 10.368 7.104 10.368 7.296C10.368 7.38133 10.2613 7.66933 10.048 8.16C9.83467 8.62933 9.57867 9.216 9.28 9.92C9.00267 10.6027 8.75733 11.296 8.544 12C8.33067 12.704 8.224 13.3227 8.224 13.856C8.224 14.24 8.29867 14.5493 8.448 14.784C8.61867 15.0187 8.896 15.136 9.28 15.136C9.728 15.136 10.272 14.9333 10.912 14.528C11.552 14.1227 12.2027 13.536 12.864 12.768C13.5253 11.9787 14.112 11.04 14.624 9.952L15.04 10.24C14.592 11.392 14.0053 12.416 13.28 13.312C12.5547 14.1867 11.7867 14.8693 10.976 15.36C10.1653 15.8507 9.376 16.096 8.608 16.096C8.05333 16.096 7.60533 15.9893 7.264 15.776C6.944 15.5627 6.70933 15.2747 6.56 14.912C6.432 14.5493 6.368 14.1547 6.368 13.728C6.368 13.472 6.38933 13.216 6.432 12.96C6.47467 12.6827 6.528 12.4053 6.592 12.128C6.208 12.832 5.792 13.4933 5.344 14.112C4.896 14.7093 4.42667 15.1893 3.936 15.552C3.44533 15.9147 2.93333 16.096 2.4 16.096ZM9.44 3.136C9.12 3.136 8.84267 3.06133 8.608 2.912C8.37333 2.76267 8.256 2.51733 8.256 2.176C8.256 1.77067 8.49067 1.41867 8.96 1.12C9.42933 0.821333 9.89867 0.672 10.368 0.672C10.6667 0.672 10.9013 0.736 11.072 0.864C11.2427 0.992 11.328 1.22667 11.328 1.568C11.328 1.93067 11.1253 2.28267 10.72 2.624C10.336 2.96533 9.90933 3.136 9.44 3.136ZM4.832 2.464C4.512 2.464 4.23467 2.38933 4 2.24C3.76533 2.09067 3.648 1.84533 3.648 1.504C3.648 1.09867 3.88267 0.746667 4.352 0.448C4.82133 0.149333 5.29067 0 5.76 0C6.05867 0 6.29333 0.0640001 6.464 0.192C6.63467 0.32 6.72 0.554667 6.72 0.896C6.72 1.25867 6.51733 1.61067 6.112 1.952C5.728 2.29333 5.30133 2.464 4.832 2.464Z" fill="#1A1A1A"/>
</svg>
