<svg width="21" height="12" viewBox="0 0 21 12" fill="none" xmlns="http://www.w3.org/2000/svg">
<path d="M9.024 11.872C8.36267 11.872 7.904 11.5627 7.648 10.944C7.41333 10.3467 7.296 9.62133 7.296 8.768C7.296 8.34133 7.31733 7.88267 7.36 7.392C7.40267 6.88 7.456 6.37867 7.52 5.888C7.05067 6.82667 6.53867 7.73333 5.984 8.608C5.45067 9.48267 4.88533 10.1973 4.288 10.752C3.69067 11.3067 3.06133 11.584 2.4 11.584C1.696 11.584 1.12 11.264 0.672 10.624C0.224 9.984 0 9.22667 0 8.352C0 7.73333 0.096 7.01867 0.288 6.208C0.501333 5.39733 0.757333 4.59733 1.056 3.808C1.35467 3.01867 1.664 2.368 1.984 1.856C2.304 1.344 2.58133 1.088 2.816 1.088C2.92267 1.088 3.14667 1.152 3.488 1.28C3.82933 1.38667 4 1.536 4 1.728C3.76533 2.09067 3.47733 2.64533 3.136 3.392C2.79467 4.13867 2.496 4.94933 2.24 5.824C1.984 6.67733 1.856 7.456 1.856 8.16C1.856 8.33067 1.87733 8.59733 1.92 8.96C1.96267 9.30133 2.05867 9.61067 2.208 9.888C2.37867 10.1653 2.63467 10.304 2.976 10.304C3.46667 10.304 3.98933 9.99467 4.544 9.376C5.09867 8.75733 5.65333 7.97867 6.208 7.04C6.76267 6.10133 7.28533 5.152 7.776 4.192C7.94667 3.31733 8.08533 2.67733 8.192 2.272C8.32 1.86667 8.448 1.61067 8.576 1.504C8.704 1.376 8.864 1.312 9.056 1.312C9.33333 1.312 9.55733 1.376 9.728 1.504C9.89867 1.61067 9.984 1.78133 9.984 2.016C9.984 2.05867 9.97333 2.112 9.952 2.176C9.952 2.24 9.94133 2.304 9.92 2.368C9.77067 2.88 9.62133 3.53067 9.472 4.32C9.344 5.088 9.23733 5.888 9.152 6.72C9.06667 7.552 9.024 8.33067 9.024 9.056C9.024 9.54667 9.07733 9.93067 9.184 10.208C9.29067 10.4853 9.472 10.624 9.728 10.624C10.048 10.624 10.4213 10.432 10.848 10.048C11.2747 9.64267 11.712 9.12 12.16 8.48C12.6293 7.81867 13.0773 7.104 13.504 6.336C13.952 5.568 14.3467 4.81067 14.688 4.064C14.688 2.95467 14.7627 2.112 14.912 1.536C15.0827 0.938667 15.2853 0.533333 15.52 0.32C15.776 0.106667 16.032 0 16.288 0C16.6933 0 16.9813 0.149333 17.152 0.448C17.344 0.725334 17.44 0.981334 17.44 1.216C17.44 1.36533 17.408 1.52533 17.344 1.696C17.28 1.84533 17.1947 2.016 17.088 2.208C16.9173 2.528 16.7467 2.944 16.576 3.456C16.4053 3.94667 16.32 4.62933 16.32 5.504C16.32 5.84533 16.352 6.208 16.416 6.592C16.48 6.976 16.6187 7.296 16.832 7.552C17.0453 7.808 17.376 7.936 17.824 7.936C18.272 7.936 18.6987 7.76533 19.104 7.424C19.5307 7.06133 19.9467 6.44267 20.352 5.568L20.768 5.888C20.2987 6.95467 19.776 7.66933 19.2 8.032C18.6453 8.39467 18.112 8.576 17.6 8.576C16.9387 8.576 16.3733 8.352 15.904 7.904C15.456 7.456 15.1253 6.784 14.912 5.888C14.3787 6.86933 13.7813 7.81867 13.12 8.736C12.4587 9.65333 11.776 10.4 11.072 10.976C10.368 11.5733 9.68533 11.872 9.024 11.872Z" fill="#1A1A1A"/>
</svg>
