<svg width="15" height="13" viewBox="0 0 15 13" fill="none" xmlns="http://www.w3.org/2000/svg">
<path d="M1.088 12.512C1.00267 12.512 0.928 12.4693 0.864 12.384C0.8 12.2987 0.768 12.1813 0.768 12.032C0.768 11.776 0.992 11.3173 1.44 10.656C1.888 10.016 2.464 9.248 3.168 8.352C3.89333 7.456 4.672 6.54933 5.504 5.632C5.39733 4.62933 5.25867 3.76533 5.088 3.04C4.91733 2.29333 4.58667 1.92 4.096 1.92C3.584 1.92 3.12533 2.144 2.72 2.592C2.31467 3.01867 1.92 3.584 1.536 4.288C1.152 4.97067 0.736 5.70667 0.288 6.496L0 5.984C0.298667 5.408 0.576 4.81067 0.832 4.192C1.10933 3.57333 1.408 2.99733 1.728 2.464C2.048 1.93067 2.432 1.504 2.88 1.184C3.34933 0.842667 3.92533 0.672 4.608 0.672C5.44 0.672 6.048 0.970667 6.432 1.568C6.83733 2.144 7.11467 2.85867 7.264 3.712C8.26667 2.66667 9.17333 1.792 9.984 1.088C10.7947 0.362667 11.3387 0 11.616 0C11.7227 0 11.8827 0.0319999 12.096 0.0959997C12.3093 0.16 12.416 0.245334 12.416 0.352C12.1813 0.352 11.808 0.565333 11.296 0.992C10.784 1.39733 10.1973 1.952 9.536 2.656C8.87467 3.36 8.18133 4.128 7.456 4.96C7.52 5.6 7.57333 6.24 7.616 6.88C7.65867 7.52 7.72267 8.096 7.808 8.608C7.91467 9.12 8.07467 9.536 8.288 9.856C8.50133 10.1547 8.8 10.304 9.184 10.304C9.568 10.304 9.97333 10.144 10.4 9.824C10.848 9.504 11.2747 9.09867 11.68 8.608C12.1067 8.096 12.4907 7.56267 12.832 7.008C13.1947 6.45333 13.4827 5.94133 13.696 5.472L14.016 5.792C13.7173 6.70933 13.2587 7.60533 12.64 8.48C12.0427 9.33333 11.3707 10.048 10.624 10.624C9.87733 11.1787 9.13067 11.456 8.384 11.456C7.76533 11.456 7.27467 11.2427 6.912 10.816C6.54933 10.4107 6.272 9.87733 6.08 9.216C5.90933 8.53333 5.77067 7.81867 5.664 7.072C4.768 8.13867 3.936 9.152 3.168 10.112C2.42133 11.072 1.856 11.7973 1.472 12.288C1.344 12.4373 1.216 12.512 1.088 12.512Z" fill="#1A1A1A"/>
</svg>
