<svg width="14" height="21" viewBox="0 0 14 21" fill="none" xmlns="http://www.w3.org/2000/svg">
<path d="M2.112 20.256C1.45067 20.256 0.938667 20.128 0.576 19.872C0.192 19.6373 0 19.2213 0 18.624C0 17.9413 0.234667 17.3013 0.704 16.704C1.152 16.128 1.76 15.5733 2.528 15.04C3.296 14.5067 4.13867 13.9627 5.056 13.408C5.99467 12.8747 6.92267 12.2987 7.84 11.68C7.84 10.912 7.68 10.208 7.36 9.568C7.04 8.928 6.464 8.27733 5.632 7.616C6.37867 7.40267 7.008 7.02933 7.52 6.496C8.05333 5.96267 8.448 5.376 8.704 4.736C8.98133 4.07467 9.12 3.46667 9.12 2.912C9.12 2.42133 9.01333 2.016 8.8 1.696C8.608 1.376 8.29867 1.216 7.872 1.216C7.168 1.216 6.53867 1.48267 5.984 2.016C5.42933 2.54933 4.91733 3.25333 4.448 4.128C3.97867 5.00267 3.49867 5.96267 3.008 7.008L2.624 6.688C3.09333 5.408 3.57333 4.26667 4.064 3.264C4.576 2.26133 5.17333 1.472 5.856 0.896C6.53867 0.298667 7.36 0 8.32 0C9.04533 0 9.664 0.234666 10.176 0.704C10.7093 1.17333 10.976 1.81333 10.976 2.624C10.976 3.392 10.7947 4.10667 10.432 4.768C10.0693 5.42933 9.6 6.016 9.024 6.528C8.448 7.01867 7.84 7.424 7.2 7.744C7.75467 8.17067 8.21333 8.62933 8.576 9.12C8.96 9.58933 9.248 10.0907 9.44 10.624C10.2507 10.0053 10.9653 9.33333 11.584 8.608C12.224 7.86133 12.6933 7.02933 12.992 6.112L13.344 6.496C13.0453 7.456 12.5653 8.33067 11.904 9.12C11.2427 9.888 10.4853 10.592 9.632 11.232C9.67467 11.3813 9.70667 11.552 9.728 11.744C9.74933 11.936 9.76 12.1173 9.76 12.288C9.76 13.248 9.54667 14.1973 9.12 15.136C8.69333 16.096 8.11733 16.96 7.392 17.728C6.66667 18.496 5.84533 19.104 4.928 19.552C4.032 20.0213 3.09333 20.256 2.112 20.256ZM1.888 19.328C2.272 19.328 2.77333 19.168 3.392 18.848C4.01067 18.5493 4.64 18.1013 5.28 17.504C5.92 16.928 6.47467 16.2133 6.944 15.36C7.41333 14.5067 7.70133 13.5253 7.808 12.416C6.95467 12.9493 6.112 13.4507 5.28 13.92C4.46933 14.4107 3.73333 14.88 3.072 15.328C2.41067 15.7973 1.888 16.2667 1.504 16.736C1.09867 17.2267 0.896 17.7387 0.896 18.272C0.896 18.6347 0.992 18.9013 1.184 19.072C1.376 19.2427 1.61067 19.328 1.888 19.328Z" fill="#1A1A1A"/>
</svg>
