<svg width="14" height="17" viewBox="0 0 14 17" fill="none" xmlns="http://www.w3.org/2000/svg">
<path d="M0.744727 16.0823C0.659394 15.9116 0.552727 15.7836 0.424727 15.6983C0.296727 15.5916 0.232727 15.4956 0.232727 15.4103C0.232727 15.325 0.222061 15.2396 0.200727 15.1543C0.200727 15.0476 0.158061 14.9516 0.0727273 14.8663C-0.0339394 14.7383 -0.0232727 14.4503 0.104727 14.0023C0.232727 13.533 0.446061 12.9676 0.744727 12.3063C1.04339 11.6236 1.39539 10.909 1.80073 10.1623C1.97139 9.99162 2.14206 9.76762 2.31273 9.49029C2.48339 9.21295 2.61139 9.03162 2.69673 8.94629C2.69673 8.86095 2.72873 8.78629 2.79273 8.72229C2.85673 8.63695 2.93139 8.59429 3.01673 8.59429V8.40229C3.01673 8.29562 3.11273 8.11429 3.30473 7.85829C3.51806 7.60229 3.77406 7.32495 4.07273 7.02629C4.37139 6.70629 4.68073 6.40762 5.00073 6.13029C5.32073 5.83162 5.58739 5.61829 5.80073 5.49029C6.24873 5.19162 6.70739 5.01029 7.17673 4.94629C7.66739 4.88229 8.08339 4.98895 8.42473 5.26629C8.48873 5.33029 8.59539 5.43695 8.74473 5.58629C8.89406 5.73562 9.06473 5.90629 9.25673 6.09829C9.47006 6.26895 9.68339 6.45029 9.89673 6.64229L11.0807 7.69829L10.5047 9.29829C10.2274 10.1516 10.1527 10.8983 10.2807 11.5383C10.4301 12.1783 10.6434 12.733 10.9207 13.2023C11.0274 13.437 11.2407 13.661 11.5607 13.8743C11.9021 14.0876 12.2221 14.2156 12.5207 14.2583C12.6914 14.2796 12.8514 14.3436 13.0007 14.4503C13.1501 14.557 13.2247 14.7276 13.2247 14.9623C13.2247 15.1756 13.1821 15.3463 13.0967 15.4743C13.0114 15.6023 12.8621 15.6876 12.6487 15.7303C11.9447 15.8156 11.2834 15.645 10.6647 15.2183C10.0674 14.7916 9.51273 14.0876 9.00073 13.1063C8.91539 12.9783 8.79806 12.7436 8.64873 12.4023C8.52073 12.0396 8.44606 11.805 8.42473 11.6983C8.33939 11.805 8.17939 12.0076 7.94473 12.3063C7.71006 12.5836 7.52873 12.7863 7.40073 12.9143C5.88606 14.4503 4.57406 15.485 3.46473 16.0183C2.37673 16.5303 1.47006 16.5516 0.744727 16.0823ZM1.89673 14.2903C1.89673 14.4396 2.12073 14.4396 2.56873 14.2903C3.03806 14.1196 3.53939 13.821 4.07273 13.3943C4.79806 12.7756 5.52339 12.093 6.24873 11.3463C6.99539 10.5996 7.59273 9.90629 8.04073 9.26629L8.74473 8.11429C8.53139 7.62362 8.29673 7.29295 8.04073 7.12229C7.80606 6.93029 7.60339 6.83429 7.43273 6.83429C7.15539 6.83429 6.73939 7.09029 6.18473 7.60229C5.65139 8.11429 5.07539 8.79695 4.45673 9.65029C3.83806 10.5036 3.25139 11.4423 2.69673 12.4663C2.48339 12.893 2.29139 13.309 2.12073 13.7143C1.97139 14.0983 1.89673 14.2903 1.89673 14.2903ZM7.11273 2.83429C6.96339 2.68495 6.83539 2.50362 6.72873 2.29029C6.64339 2.05562 6.61139 1.89562 6.63273 1.81029C6.67539 1.70362 6.75006 1.50095 6.85673 1.20229C6.98473 0.882286 7.12339 0.658286 7.27273 0.530286C7.33673 0.487619 7.40073 0.423619 7.46473 0.338287C7.55006 0.231619 7.63539 0.167619 7.72073 0.146286C7.97673 -0.0243813 8.21139 -0.0457144 8.42473 0.0822865C8.65939 0.188953 8.83006 0.412953 8.93673 0.754286C9.12873 1.05295 9.19273 1.31962 9.12873 1.55429C9.06473 1.76762 8.89406 2.05562 8.61673 2.41829C8.29673 2.84495 8.00873 3.07962 7.75273 3.12229C7.49673 3.16495 7.28339 3.06895 7.11273 2.83429ZM11.2087 2.83429C11.0594 2.68495 10.9314 2.50362 10.8247 2.29029C10.7394 2.05562 10.7074 1.89562 10.7287 1.81029C10.7714 1.70362 10.8461 1.50095 10.9527 1.20229C11.0807 0.882286 11.2194 0.658286 11.3687 0.530286C11.4327 0.487619 11.4967 0.423619 11.5607 0.338287C11.6461 0.231619 11.7314 0.167619 11.8167 0.146286C12.0727 -0.0243813 12.3074 -0.0457144 12.5207 0.0822865C12.7554 0.188953 12.9261 0.412953 13.0327 0.754286C13.2247 1.05295 13.2887 1.31962 13.2247 1.55429C13.1607 1.76762 12.9901 2.05562 12.7127 2.41829C12.3927 2.84495 12.1047 3.07962 11.8487 3.12229C11.5927 3.16495 11.3794 3.06895 11.2087 2.83429Z" fill="#1A1A1A"/>
</svg>
