<svg width="15" height="28" viewBox="0 0 15 28" fill="none" xmlns="http://www.w3.org/2000/svg">
<path d="M1.12 27.5236C0.778667 27.4382 0.522667 27.2676 0.352 27.0116C0.181333 26.7556 0.064 26.4462 0 26.0836C0.0426667 26.0409 0.0533333 25.8916 0.0319999 25.6356C0.0106666 25.4009 0 25.2409 0 25.1556C0.106667 24.9636 0.192 24.6969 0.256 24.3556C0.32 24.0142 0.341333 23.6089 0.32 23.1396C0.448 22.8196 0.522667 22.5316 0.544 22.2756C0.586667 22.0196 0.608 21.8382 0.608 21.7316C0.608 21.7316 0.650667 21.5502 0.736 21.1876C0.821333 20.8249 0.928 20.3876 1.056 19.8756C1.184 19.3636 1.312 18.8622 1.44 18.3716C1.58933 17.8809 1.70667 17.4969 1.792 17.2196C1.856 16.9209 1.93067 16.6009 2.016 16.2596C2.10133 15.8969 2.18667 15.6516 2.272 15.5236C2.37867 15.2249 2.48533 14.9049 2.592 14.5636C2.69867 14.2222 2.86933 13.7422 3.104 13.1236C3.08267 12.9529 3.12533 12.6756 3.232 12.2916C3.33867 11.9076 3.488 11.4916 3.68 11.0436C3.872 10.5956 4.07467 10.2116 4.288 9.89155C4.39467 9.23022 4.55467 8.66489 4.768 8.19555C5.00267 7.70489 5.12 7.45955 5.12 7.45955C5.056 7.37422 5.024 7.25689 5.024 7.10756C5.04533 6.95822 5.06667 6.80889 5.088 6.65956C5.344 6.51022 5.49333 6.36089 5.536 6.21156C5.6 6.04089 5.632 5.95555 5.632 5.95555C5.632 5.91289 5.74933 5.73155 5.984 5.41156C6.21867 5.09155 6.496 4.70756 6.816 4.25956C7.15733 3.81156 7.49867 3.37422 7.84 2.94756C8.18133 2.52089 8.448 2.19022 8.64 1.95556C9.06667 1.55022 9.54667 1.18756 10.08 0.867556C10.6133 0.547555 11.0933 0.334221 11.52 0.227555C11.7973 0.163555 12.032 0.120889 12.224 0.0995542C12.4373 0.0568881 12.5973 0.0355551 12.704 0.0355551C12.832 0.014222 12.9067 0.00355549 12.928 0.00355549C13.0347 -0.0177776 13.2053 0.0568888 13.44 0.227555C13.6747 0.376888 13.92 0.568889 14.176 0.803555C14.432 1.03822 14.6133 1.28356 14.72 1.53955C15.0187 2.30756 15.072 3.15022 14.88 4.06755C14.688 4.96356 14.2507 5.85956 13.568 6.75556C13.312 7.16089 13.056 7.47022 12.8 7.68356C12.544 7.89689 12.4053 8.00356 12.384 8.00356C12.384 8.00356 12.288 8.08889 12.096 8.25955C11.9253 8.43022 11.7867 8.66489 11.68 8.96356C11.4667 9.15556 11.296 9.34756 11.168 9.53956C11.04 9.71022 10.944 9.79556 10.88 9.79556C10.816 9.79556 10.72 9.88089 10.592 10.0516C10.4853 10.2222 10.3893 10.4142 10.304 10.6276C10.24 10.8196 10.24 10.9796 10.304 11.1076C10.304 11.1076 10.272 11.1396 10.208 11.2036C10.1653 11.2676 10.144 11.2996 10.144 11.2996C9.99467 11.2996 9.952 11.4276 10.016 11.6836C10.1013 11.9396 10.2187 12.2276 10.368 12.5476C10.5387 12.8462 10.6667 13.0916 10.752 13.2836C10.9013 13.3049 11.0507 13.4542 11.2 13.7316C11.3493 14.0089 11.5093 14.3822 11.68 14.8516C11.7227 15.4276 11.7653 15.8436 11.808 16.0996C11.8507 16.3556 11.8827 16.6756 11.904 17.0596C11.84 17.6782 11.68 18.2009 11.424 18.6276C11.1893 19.0329 10.8693 19.3422 10.464 19.5556C10.0587 19.7689 9.57867 19.8969 9.024 19.9396C8.46933 20.0249 8.05333 20.0356 7.776 19.9716C7.49867 19.8862 7.11467 19.7689 6.624 19.6196C6.02667 19.3849 5.61067 19.1502 5.376 18.9156C5.16267 18.6809 5.16267 18.3609 5.376 17.9556C5.41867 17.8702 5.472 17.8169 5.536 17.7956C5.62133 17.7742 5.664 17.7742 5.664 17.7956C5.83467 17.7956 5.93067 17.7956 5.952 17.7956C5.99467 17.7742 6.016 17.7636 6.016 17.7636C6.016 17.7636 6.10133 17.7636 6.272 17.7636C6.464 17.7636 6.69867 17.7742 6.976 17.7956C7.296 17.8169 7.56267 17.8596 7.776 17.9236C8.01067 17.9876 8.20267 18.0196 8.352 18.0196C8.52267 18.0196 8.672 17.9236 8.8 17.7316C9.03467 17.6889 9.22667 17.6676 9.376 17.6676C9.54667 17.6462 9.632 17.6356 9.632 17.6356C9.65333 17.6356 9.664 17.5396 9.664 17.3476C9.64267 17.3262 9.64267 17.3156 9.664 17.3156C9.664 17.3156 9.728 17.2089 9.856 16.9956C10.0053 16.7609 10.048 16.5369 9.984 16.3236C9.96267 16.0249 9.93067 15.7582 9.888 15.5236C9.84533 15.2889 9.67467 14.9902 9.376 14.6276C9.20533 14.1369 8.992 13.6889 8.736 13.2836C8.50133 12.8569 8.288 12.5156 8.096 12.2596C7.904 11.9822 7.78667 11.8329 7.744 11.8116C7.63733 11.6836 7.616 11.5129 7.68 11.2996C7.744 11.0862 7.79733 10.9156 7.84 10.7876C7.88267 10.6596 7.92533 10.5742 7.968 10.5316C8.01067 10.4676 8.032 10.4356 8.032 10.4356C8.032 10.4142 8.14933 10.2436 8.384 9.92356C8.61867 9.60356 8.896 9.24089 9.216 8.83556C9.536 8.40889 9.824 8.01422 10.08 7.65156C10.3573 7.28889 10.528 7.05422 10.592 6.94756C10.9547 6.71289 11.3067 6.43556 11.648 6.11555C11.9893 5.79556 12.16 5.59289 12.16 5.50756C12.0533 5.20889 12.2027 4.80356 12.608 4.29156C12.9067 3.80089 13.088 3.35289 13.152 2.94756C13.2373 2.54222 13.216 2.20089 13.088 1.92356C12.7467 1.71022 12.2453 1.76356 11.584 2.08356C10.944 2.38222 10.3573 2.84089 9.824 3.45955C9.67467 3.63022 9.472 3.86489 9.216 4.16356C8.96 4.46222 8.81067 4.62222 8.768 4.64355C8.46933 5.02755 8.10667 5.58222 7.68 6.30756C7.27467 7.01156 6.86933 7.77956 6.464 8.61156C6.08 9.44356 5.76 10.2436 5.504 11.0116C5.58933 11.1609 5.568 11.3956 5.44 11.7156C5.312 12.0356 5.14133 12.2809 4.928 12.4516C4.97067 12.7502 4.98133 13.0276 4.96 13.2836C4.93867 13.5182 4.928 13.6356 4.928 13.6356C4.928 13.7849 4.896 13.9129 4.832 14.0196C4.768 14.1262 4.736 14.1796 4.736 14.1796C4.62933 14.1796 4.56533 14.1796 4.544 14.1796C4.52267 14.1796 4.512 14.1902 4.512 14.2116C4.512 14.2116 4.48 14.3609 4.416 14.6596C4.352 14.9582 4.23467 15.3209 4.064 15.7476C3.85067 16.3449 3.69067 16.8036 3.584 17.1236C3.47733 17.4222 3.392 17.7316 3.328 18.0516C3.28533 18.3716 3.22133 18.8516 3.136 19.4916C2.85867 20.3449 2.64533 21.0596 2.496 21.6356C2.368 22.2116 2.26133 22.7449 2.176 23.2356C2.15467 23.3209 2.144 23.4596 2.144 23.6516C2.144 23.8649 2.16533 24.0356 2.208 24.1636C2.16533 24.3129 2.112 24.5262 2.048 24.8036C2.00533 25.1022 1.96267 25.4116 1.92 25.7316C1.87733 26.0516 1.856 26.3396 1.856 26.5956C1.856 27.0009 1.824 27.2569 1.76 27.3636C1.696 27.4916 1.48267 27.5449 1.12 27.5236Z" fill="#1A1A1A"/>
</svg>
