<svg width="13" height="26" viewBox="0 0 13 26" fill="none" xmlns="http://www.w3.org/2000/svg">
<path d="M4.452 24.7138C3.98267 25.1832 3.37467 25.4072 2.628 25.3858C1.90267 25.3858 1.284 25.1192 0.772 24.5858C0.516 24.1805 0.324 23.7432 0.196 23.2738C0.0466666 22.8045 -0.0173334 22.3885 0.00400002 22.0258C0.00400002 21.6845 0.110667 21.5138 0.324 21.5138C0.430667 21.5138 0.526667 21.5458 0.612 21.6098C0.697333 21.6738 0.772 21.7592 0.836 21.8658C0.9 21.9938 0.932 22.1432 0.932 22.3138C0.932 22.6338 1.00667 22.9218 1.156 23.1778C1.30533 23.4338 1.51867 23.5618 1.796 23.5618C2.03067 23.6472 2.34 23.5832 2.724 23.3698C3.12933 23.1565 3.44933 22.8578 3.684 22.4738C3.89733 22.1965 4.15333 21.7592 4.452 21.1618C4.772 20.5645 5.08133 19.9352 5.38 19.2738C5.7 18.6338 5.93467 18.1112 6.084 17.7058C6.34 16.8312 6.564 15.9352 6.756 15.0178C6.96933 14.1005 7.18267 13.1192 7.396 12.0738C7.48133 11.4978 7.57733 11.0072 7.684 10.6018C7.812 10.1752 7.876 9.91918 7.876 9.83385C7.876 9.74851 7.88667 9.57785 7.908 9.32185C7.92933 9.04451 7.99333 8.79918 8.1 8.58585C8.1 8.26585 8.12133 7.98851 8.164 7.75385C8.228 7.49785 8.26 7.32718 8.26 7.24185C8.324 7.17785 8.40933 7.15651 8.516 7.17785C8.644 7.19918 8.772 7.24185 8.9 7.30585C9.04933 7.36985 9.17733 7.45518 9.284 7.56185C9.45467 7.73251 9.56133 7.90318 9.604 8.07385C9.668 8.24451 9.67867 8.51118 9.636 8.87385C9.61467 9.23651 9.55067 9.81251 9.444 10.6018C9.444 10.7298 9.412 10.9965 9.348 11.4018C9.284 11.7858 9.19867 12.2232 9.092 12.7138C8.98533 13.2045 8.87867 13.6845 8.772 14.1538C8.66533 14.6018 8.58 14.9752 8.516 15.2738C8.43067 15.5938 8.33467 15.9458 8.228 16.3298C8.12133 16.7138 8.05733 16.9805 8.036 17.1298C8.01467 17.2578 7.94 17.5138 7.812 17.8978C7.684 18.2605 7.54533 18.6232 7.396 18.9858C7.268 19.3485 7.19333 19.6045 7.172 19.7538C7.15067 19.8392 7.08667 20.0418 6.98 20.3618C6.89467 20.6818 6.70267 21.1725 6.404 21.8338C6.29733 22.0898 6.116 22.4205 5.86 22.8258C5.62533 23.2312 5.38 23.6045 5.124 23.9458C4.868 24.3085 4.644 24.5645 4.452 24.7138ZM9.508 2.98585C9.27333 2.70851 9.188 2.34585 9.252 1.89785C9.33733 1.44985 9.55067 1.00185 9.892 0.553845C10.1693 0.233845 10.468 0.0525126 10.788 0.00984643C11.108 -0.032821 11.4067 0.0631791 11.684 0.297847C11.9187 0.660512 12.036 0.959179 12.036 1.19385C12.036 1.40718 11.9187 1.68451 11.684 2.02585C11.1507 2.62318 10.724 2.99651 10.404 3.14585C10.084 3.27385 9.78533 3.22051 9.508 2.98585Z" fill="#1A1A1A"/>
</svg>
