<svg width="12" height="22" viewBox="0 0 12 22" fill="none" xmlns="http://www.w3.org/2000/svg">
<path d="M1.216 21.152C1.04533 21.088 0.864 20.96 0.672 20.768C0.48 20.5547 0.32 20.3093 0.192 20.032C0.0640001 19.7547 0 19.4987 0 19.264C0.106667 19.0293 0.245333 18.624 0.416 18.048C0.586667 17.4507 0.8 16.768 1.056 16C1.22667 15.7653 1.35467 15.488 1.44 15.168C1.54667 14.848 1.64267 14.56 1.728 14.304C1.89867 13.9627 2.10133 13.5253 2.336 12.992C2.57067 12.4373 2.79467 11.8827 3.008 11.328C3.24267 10.752 3.44533 10.272 3.616 9.888C3.89333 9.312 4.128 8.78933 4.32 8.32C4.53333 7.82933 4.736 7.33867 4.928 6.848C5.14133 6.35733 5.36533 5.824 5.6 5.248C5.856 4.65067 6.112 4.04267 6.368 3.424C6.64533 2.80533 6.88 2.25067 7.072 1.76C7.28533 1.248 7.41333 0.885332 7.456 0.671999C7.456 0.501332 7.488 0.373332 7.552 0.288C7.63733 0.202667 7.72267 0.16 7.808 0.16C7.89333 0.0746663 7.97867 0.0319996 8.064 0.0319996C8.14933 0.0106665 8.23467 0 8.32 0C8.40533 0 8.56533 0.16 8.8 0.48C9.056 0.799999 9.184 1.088 9.184 1.344C9.184 1.68533 9.01333 2.32533 8.672 3.264C8.352 4.20267 7.89333 5.26933 7.296 6.464C6.57067 8.04267 5.984 9.344 5.536 10.368C5.088 11.3707 4.77867 12.128 4.608 12.64C4.43733 13.1307 4.37333 13.408 4.416 13.472C4.416 13.472 4.56533 13.408 4.864 13.28C5.16267 13.1307 5.48267 12.928 5.824 12.672C6.05867 12.544 6.31467 12.384 6.592 12.192C6.86933 12 7.136 11.8187 7.392 11.648C7.648 11.456 7.86133 11.3387 8.032 11.296C8.288 11.1253 8.55467 10.9653 8.832 10.816C9.10933 10.6453 9.29067 10.5173 9.376 10.432C9.73867 10.2613 10.0053 10.208 10.176 10.272C10.368 10.336 10.56 10.496 10.752 10.752C10.9867 11.0293 11.0293 11.2747 10.88 11.488C10.7307 11.68 10.3787 11.9467 9.824 12.288C9.376 12.5653 8.832 12.896 8.192 13.28C7.57333 13.664 7.01867 14.0053 6.528 14.304C6.05867 14.6027 5.792 14.784 5.728 14.848C5.728 14.848 5.81333 15.008 5.984 15.328C6.15467 15.648 6.32533 15.936 6.496 16.192C6.66667 16.5333 6.848 16.8533 7.04 17.152C7.25333 17.4293 7.36 17.6213 7.36 17.728C7.59467 18.3893 7.94667 18.8693 8.416 19.168C8.88533 19.4667 9.376 19.4987 9.888 19.264C10.3147 19.0933 10.624 19.04 10.816 19.104C11.0293 19.168 11.1787 19.328 11.264 19.584C11.3493 19.7547 11.3707 19.8827 11.328 19.968C11.3067 20.032 11.168 20.192 10.912 20.448C10.5067 20.8533 10.0907 21.1093 9.664 21.216C9.25867 21.3227 8.88533 21.2907 8.544 21.12C8.224 21.1413 7.82933 20.9387 7.36 20.512C6.89067 20.064 6.21867 19.2747 5.344 18.144C5.344 18.0587 5.30133 17.9413 5.216 17.792C5.152 17.6213 5.07733 17.4613 4.992 17.312C4.90667 17.1413 4.8 16.96 4.672 16.768C4.544 16.5547 4.48 16.448 4.48 16.448C4.48 16.3627 4.448 16.2667 4.384 16.16C4.32 16.0533 4.23467 15.9253 4.128 15.776C3.78667 15.6693 3.54133 15.7333 3.392 15.968C3.24267 16.2027 3.08267 16.448 2.912 16.704C2.80533 16.9813 2.66667 17.376 2.496 17.888C2.34667 18.3787 2.21867 18.8587 2.112 19.328C2.02667 19.7973 2.00533 20.1173 2.048 20.288C2.048 20.6293 1.99467 20.864 1.888 20.992C1.78133 21.0987 1.55733 21.152 1.216 21.152Z" fill="#1A1A1A"/>
</svg>
