<svg width="18" height="11" viewBox="0 0 18 11" fill="none" xmlns="http://www.w3.org/2000/svg">
<path d="M14.688 10.7776C14.5813 10.7349 14.4213 10.6283 14.208 10.4576C13.9947 10.2869 13.8133 9.99893 13.664 9.5936C13.5147 9.16693 13.44 8.58027 13.44 7.8336C13.4613 7.1936 13.472 6.69227 13.472 6.3296C13.4933 5.96693 13.4187 5.7856 13.248 5.7856C13.0773 5.7856 12.7467 5.95627 12.256 6.2976C11.7867 6.6176 11.2427 7.05493 10.624 7.6096C10.0053 8.16427 9.376 8.78293 8.736 9.4656C8.52267 9.70027 8.30933 9.92427 8.096 10.1376C7.904 10.3296 7.712 10.4576 7.52 10.5216C7.328 10.5643 7.104 10.4896 6.848 10.2976L6.496 10.0096C6.38933 9.90293 6.32533 9.79627 6.304 9.6896C6.28267 9.5616 6.29333 9.42293 6.336 9.2736L7.072 7.1616C7.41333 6.3936 7.648 5.83893 7.776 5.4976C7.904 5.13493 7.968 4.91093 7.968 4.8256C7.968 4.71893 7.936 4.67627 7.872 4.6976C7.70133 4.71893 7.44533 4.8256 7.104 5.0176C6.76267 5.18827 6.53867 5.35893 6.432 5.5296C6.34667 5.5296 6.21867 5.6256 6.048 5.8176C5.87733 6.0096 5.664 6.19093 5.408 6.3616C5.25867 6.6176 4.96 6.94827 4.512 7.3536C4.08533 7.75893 3.65867 8.17493 3.232 8.6016C2.95467 8.83627 2.67733 9.12427 2.4 9.4656C2.144 9.80693 1.92 10.1056 1.728 10.3616C1.55733 10.6176 1.44 10.7456 1.376 10.7456C1.09867 10.7456 0.842667 10.6709 0.608 10.5216C0.394667 10.3723 0.234667 10.1269 0.128 9.7856C-0.0426666 9.42293 -0.0426666 8.9216 0.128 8.2816C0.298667 7.62027 0.490667 6.76693 0.704 5.7216C0.789333 5.4016 0.842667 5.16693 0.864 5.0176C0.885333 4.86827 0.917333 4.71893 0.96 4.5696C1.024 4.39893 1.12 4.14293 1.248 3.8016C1.39733 3.46027 1.62133 2.94827 1.92 2.2656C2.06933 1.86027 2.15467 1.5616 2.176 1.3696C2.21867 1.15627 2.24 1.00693 2.24 0.9216C2.24 0.708267 2.29333 0.526934 2.4 0.3776C2.528 0.228267 2.67733 0.1216 2.848 0.0576005C3.01867 -0.00639993 3.17867 -0.0170668 3.328 0.0256C3.56267 0.0682667 3.76533 0.1856 3.936 0.3776C4.128 0.5696 4.23467 0.836267 4.256 1.1776C4.27733 1.4336 4.256 1.66827 4.192 1.8816C4.128 2.0736 4.064 2.25493 4 2.4256L3.648 3.2896C3.54133 3.52427 3.40267 3.8656 3.232 4.3136C3.06133 4.7616 2.912 5.1776 2.784 5.5616C2.656 5.92427 2.592 6.1376 2.592 6.2016C2.61333 6.2656 2.688 6.25493 2.816 6.1696C2.944 6.06293 3.104 5.92427 3.296 5.7536C3.50933 5.5616 3.72267 5.38027 3.936 5.2096C4.384 4.78293 4.88533 4.3776 5.44 3.9936C6.016 3.58827 6.56 3.24693 7.072 2.9696C7.584 2.69227 7.97867 2.51093 8.256 2.4256C8.61867 2.4256 8.864 2.4896 8.992 2.6176C9.14133 2.7456 9.38667 2.98027 9.728 3.3216C9.87733 3.47093 9.96267 3.66293 9.984 3.8976C10.0053 4.13227 9.99467 4.35627 9.952 4.5696C9.93067 4.65493 9.86667 4.86827 9.76 5.2096C9.65333 5.5296 9.54667 5.83893 9.44 6.1376C9.35467 6.43627 9.312 6.5856 9.312 6.5856C9.312 6.5856 9.42933 6.47893 9.664 6.2656C9.92 6.05227 10.1973 5.82827 10.496 5.5936C10.7947 5.3376 11.0187 5.1456 11.168 5.0176C12 4.3776 12.7253 3.97227 13.344 3.8016C13.9627 3.63093 14.464 3.85493 14.848 4.4736C15.104 4.70827 15.232 4.96427 15.232 5.2416C15.2533 5.51893 15.264 5.99893 15.264 6.6816C15.2853 6.95893 15.3067 7.2896 15.328 7.6736C15.3493 8.0576 15.3707 8.4096 15.392 8.7296C15.4347 9.02827 15.4773 9.2096 15.52 9.2736C15.584 9.35893 15.7013 9.4336 15.872 9.4976C16.064 9.54027 16.3093 9.58293 16.608 9.6256C16.928 9.66827 17.12 9.80693 17.184 10.0416C17.248 10.2763 17.1093 10.5003 16.768 10.7136C16.448 10.9056 16.096 10.9909 15.712 10.9696C15.328 10.9483 14.9867 10.8843 14.688 10.7776Z" fill="#1A1A1A"/>
</svg>
