<svg width="12" height="17" viewBox="0 0 12 17" fill="none" xmlns="http://www.w3.org/2000/svg">
<path d="M2.32229 16.7543C2.04495 16.7543 1.82095 16.701 1.65029 16.5943C1.50095 16.4876 1.30895 16.3383 1.07429 16.1463C0.668952 15.7196 0.380953 15.3143 0.210286 14.9303C0.0396191 14.525 -0.0137142 14.141 0.0502857 13.7783C0.114286 13.6076 0.135619 13.4476 0.114286 13.2983C0.114286 13.1276 0.114286 13.0423 0.114286 13.0423C0.00761907 12.9356 -0.0243809 12.8716 0.0182857 12.8503C0.0609524 12.8076 0.103619 12.7436 0.146286 12.6583C0.274286 12.6583 0.316952 12.541 0.274286 12.3063C0.231619 12.1356 0.316952 11.7623 0.530286 11.1863C0.743619 10.6103 1.01029 10.0663 1.33029 9.55429C1.45829 9.34095 1.65029 9.06362 1.90629 8.72229C2.16229 8.35962 2.43962 8.00762 2.73829 7.66629C3.05829 7.30362 3.34629 7.01562 3.60229 6.80229C4.13562 6.35429 4.60495 6.02362 5.01029 5.81029C5.41562 5.59695 5.85295 5.43695 6.32229 5.33029C6.79162 5.22362 7.11162 5.17029 7.28229 5.17029C7.47429 5.17029 7.73029 5.34095 8.05029 5.68229C8.54095 5.89562 8.89295 6.15162 9.10629 6.45029C9.34095 6.74895 9.49029 7.18629 9.55429 7.76229C9.61829 8.40229 9.56495 9.13829 9.39429 9.97029C9.24495 10.781 8.74362 11.7943 7.89029 13.0103C7.35695 13.7783 6.86629 14.3543 6.41829 14.7383C5.97029 15.101 5.43695 15.4636 4.81829 15.8263C4.37029 16.125 3.96495 16.349 3.60229 16.4983C3.23962 16.6263 2.81295 16.7116 2.32229 16.7543ZM5.39429 13.3623C5.90629 12.7863 6.31162 12.2423 6.61029 11.7303C6.93029 11.2183 7.22895 10.5676 7.50629 9.77829C7.59162 9.54362 7.64495 9.25562 7.66629 8.91429C7.68762 8.55162 7.67695 8.22095 7.63429 7.92229C7.61295 7.60229 7.53829 7.42095 7.41029 7.37829C7.15429 7.22895 6.84495 7.18629 6.48229 7.25029C6.11962 7.29295 5.72495 7.49562 5.29829 7.85829C4.63695 8.41295 4.06095 9.10629 3.57029 9.93829C3.07962 10.749 2.59962 11.677 2.13029 12.7223C1.81029 13.4903 1.73562 14.109 1.90629 14.5783C2.09829 15.0263 2.49295 15.1863 3.09029 15.0583C3.70895 14.909 4.47695 14.3436 5.39429 13.3623ZM5.33029 2.83429C5.18095 2.68495 5.05295 2.50362 4.94629 2.29029C4.86095 2.05562 4.82895 1.89562 4.85029 1.81029C4.89295 1.70362 4.96762 1.50095 5.07429 1.20229C5.20229 0.882286 5.34095 0.658286 5.49029 0.530286C5.55429 0.487619 5.61829 0.423619 5.68229 0.338287C5.76762 0.231619 5.85295 0.167619 5.93829 0.146286C6.19429 -0.0243813 6.42895 -0.0457144 6.64229 0.0822865C6.87695 0.188953 7.04762 0.412953 7.15429 0.754286C7.34629 1.05295 7.41029 1.31962 7.34629 1.55429C7.28229 1.76762 7.11162 2.05562 6.83429 2.41829C6.51429 2.84495 6.22629 3.07962 5.97029 3.12229C5.71429 3.16495 5.50095 3.06895 5.33029 2.83429ZM9.42629 2.83429C9.27695 2.68495 9.14895 2.50362 9.04229 2.29029C8.95695 2.05562 8.92495 1.89562 8.94629 1.81029C8.98895 1.70362 9.06362 1.50095 9.17029 1.20229C9.29829 0.882286 9.43695 0.658286 9.58629 0.530286C9.65029 0.487619 9.71429 0.423619 9.77829 0.338287C9.86362 0.231619 9.94895 0.167619 10.0343 0.146286C10.2903 -0.0243813 10.525 -0.0457144 10.7383 0.0822865C10.973 0.188953 11.1436 0.412953 11.2503 0.754286C11.4423 1.05295 11.5063 1.31962 11.4423 1.55429C11.3783 1.76762 11.2076 2.05562 10.9303 2.41829C10.6103 2.84495 10.3223 3.07962 10.0663 3.12229C9.81029 3.16495 9.59695 3.06895 9.42629 2.83429Z" fill="#1A1A1A"/>
</svg>
