<svg width="11" height="20" viewBox="0 0 11 20" fill="none" xmlns="http://www.w3.org/2000/svg">
<path d="M4.608 19.36C4.352 19.1893 4.17067 19.0187 4.064 18.848C3.95733 18.6987 3.85067 18.4107 3.744 17.984C3.63733 17.408 3.62667 16.64 3.712 15.68C3.81867 14.7413 4.01067 13.696 4.288 12.544C4.56533 11.4133 4.896 10.2827 5.28 9.152C5.38667 8.98133 5.45067 8.81067 5.472 8.64C5.49333 8.448 5.49333 8.30933 5.472 8.224C4.46933 8.69333 3.712 9.03467 3.2 9.248C2.688 9.44 2.25067 9.536 1.888 9.536C1.61067 9.536 1.32267 9.41867 1.024 9.184C0.725333 8.94933 0.48 8.66133 0.288 8.32C0.096 7.95733 0 7.60533 0 7.264C0 6.92267 0.181333 6.42133 0.544 5.76C0.906667 5.09867 1.30133 4.46933 1.728 3.872C1.89867 3.57333 2.18667 3.232 2.592 2.848C2.99733 2.464 3.424 2.10133 3.872 1.76C4.32 1.41867 4.68267 1.16267 4.96 0.992001C5.13067 0.885333 5.30133 0.8 5.472 0.736C5.64267 0.650667 5.81333 0.565333 5.984 0.48C6.15467 0.373333 6.31467 0.288 6.464 0.224C6.61333 0.16 6.73067 0.128 6.816 0.128C7.15733 0.0426668 7.54133 0 7.968 0C8.416 0 8.768 0.0426668 9.024 0.128C9.28 0.298667 9.52533 0.576 9.76 0.96C9.99467 1.344 10.1547 1.74933 10.24 2.176C10.24 2.38933 10.2293 2.592 10.208 2.784C10.1867 2.95467 10.112 3.18933 9.984 3.488C9.87733 3.78667 9.67467 4.256 9.376 4.896C9.03467 5.408 8.74667 5.90933 8.512 6.4C8.29867 6.89067 8.192 7.17867 8.192 7.264C8.08533 7.54133 7.92533 7.904 7.712 8.352C7.52 8.8 7.33867 9.216 7.168 9.6C6.99733 9.96267 6.88 10.208 6.816 10.336C6.77333 10.5493 6.67733 10.9333 6.528 11.488C6.37867 12.0213 6.21867 12.608 6.048 13.248C5.89867 13.9093 5.76 14.528 5.632 15.104C5.46133 16.0427 5.376 16.864 5.376 17.568C5.376 18.272 5.46133 18.752 5.632 19.008C5.71733 19.264 5.65333 19.424 5.44 19.488C5.22667 19.5733 4.94933 19.5307 4.608 19.36ZM1.952 7.552C2.656 7.76533 3.36 7.65867 4.064 7.232C4.78933 6.80533 5.48267 6.272 6.144 5.632C6.50667 5.29067 6.848 4.864 7.168 4.352C7.50933 3.84 7.76533 3.36 7.936 2.912C8.128 2.44267 8.192 2.12267 8.128 1.952C8.04267 1.78133 7.73333 1.80267 7.2 2.016C6.66667 2.208 6.05867 2.56 5.376 3.072C4.608 3.66933 3.968 4.26667 3.456 4.864C2.944 5.44 2.56 6.02667 2.304 6.624L1.952 7.552Z" fill="#1A1A1A"/>
</svg>
