<svg width="10" height="18" viewBox="0 0 10 18" fill="none" xmlns="http://www.w3.org/2000/svg">
<path d="M2.048 17.5396C1.81333 17.4969 1.568 17.3796 1.312 17.1876C1.07733 16.9742 0.864 16.7396 0.672 16.4836C0.501333 16.2062 0.384 15.9609 0.32 15.7476C0.32 15.7049 0.288 15.6516 0.224 15.5876C0.181333 15.5236 0.16 15.4916 0.16 15.4916C0.0746667 15.4276 0.0213334 15.1502 0 14.6596C0 14.1476 0.0320001 13.5822 0.0960002 12.9636C0.16 12.3449 0.234667 11.8542 0.32 11.4916C0.426667 11.1502 0.586667 10.6916 0.8 10.1156C1.01333 9.51822 1.19467 8.98489 1.344 8.51556L2.208 6.65956L0.928 6.30756C0.778667 6.26489 0.650667 6.17956 0.544 6.05156C0.458667 5.92356 0.416 5.81689 0.416 5.73156C0.416 5.56089 0.512 5.35822 0.704 5.12356C0.896 4.86756 1.03467 4.73956 1.12 4.73956C1.22667 4.76089 1.41867 4.77156 1.696 4.77156C1.99467 4.77156 2.28267 4.76089 2.56 4.73956C2.83733 4.71822 3.008 4.69689 3.072 4.67556C3.15733 4.63289 3.24267 4.57956 3.328 4.51555C3.41333 4.43022 3.47733 4.31289 3.52 4.16356C3.62667 3.92889 3.72267 3.71556 3.808 3.52356C3.89333 3.31022 4.01067 3.07556 4.16 2.81956C4.30933 2.54222 4.42667 2.30756 4.512 2.11556C4.61867 1.92356 4.77867 1.65689 4.992 1.31556C5.09867 1.16622 5.216 0.984889 5.344 0.771555C5.472 0.558222 5.632 0.376889 5.824 0.227555C6.016 0.0568879 6.208 -0.0177785 6.4 0.00355586C6.61333 0.00355586 6.88 0.142222 7.2 0.419554C7.37067 0.632889 7.46667 0.792889 7.488 0.899556C7.50933 1.00622 7.424 1.20889 7.232 1.50756C7.06133 1.87022 6.85867 2.23289 6.624 2.59555C6.41067 2.95822 6.208 3.32089 6.016 3.68356C5.67467 4.15289 5.61067 4.41956 5.824 4.48356C6.03733 4.54756 6.63467 4.50489 7.616 4.35556C8.23467 4.24889 8.68267 4.28089 8.96 4.45156C9.23733 4.60089 9.39733 4.85689 9.44 5.21956C9.504 5.73156 9.45067 6.04089 9.28 6.14756C9.10933 6.25422 8.61867 6.30756 7.808 6.30756C7.296 6.39289 6.85867 6.44622 6.496 6.46756C6.13333 6.46756 5.86667 6.46756 5.696 6.46756C5.41867 6.48889 5.23733 6.49956 5.152 6.49956C5.06667 6.49956 4.93867 6.52089 4.768 6.56356C4.59733 6.60622 4.46933 6.68089 4.384 6.78756C4.32 6.87289 4.24533 7.00089 4.16 7.17156C4.07467 7.25689 3.94667 7.48089 3.776 7.84356C3.60533 8.20622 3.392 8.60089 3.136 9.02756C2.83733 9.92356 2.58133 10.8196 2.368 11.7156C2.15467 12.5902 1.984 13.4436 1.856 14.2756C1.77067 14.8089 1.78133 15.1822 1.888 15.3956C1.99467 15.5876 2.272 15.7049 2.72 15.7476C2.95467 15.7689 3.328 15.7689 3.84 15.7476C4.37333 15.7049 4.78933 15.6409 5.088 15.5556C5.32267 15.4489 5.568 15.3422 5.824 15.2356C6.08 15.1076 6.31467 14.9796 6.528 14.8516C6.72 14.7449 6.912 14.6382 7.104 14.5316C7.296 14.4036 7.392 14.3396 7.392 14.3396C7.49867 14.1689 7.616 14.1156 7.744 14.1796C7.872 14.2436 7.97867 14.4036 8.064 14.6596C8.064 14.9156 8.01067 15.1822 7.904 15.4596C7.79733 15.7369 7.40267 16.0676 6.72 16.4516C5.76 17.0489 4.87467 17.4116 4.064 17.5396C3.27467 17.6462 2.60267 17.6462 2.048 17.5396Z" fill="#1A1A1A"/>
</svg>
