<svg width="12" height="18" viewBox="0 0 12 18" fill="none" xmlns="http://www.w3.org/2000/svg">
<path d="M7.264 17.1703C7.05067 16.957 6.83733 16.669 6.624 16.3063C6.41067 15.9223 6.24 15.485 6.112 14.9943C6.06933 14.8236 6.048 14.589 6.048 14.2903C6.06933 13.9916 6.06933 13.7783 6.048 13.6503C5.984 13.7996 5.87733 13.9596 5.728 14.1303C5.6 14.2796 5.472 14.4076 5.344 14.5143C5.25867 14.5996 5.06667 14.7703 4.768 15.0263C4.46933 15.261 4.17067 15.453 3.872 15.6023C3.168 16.0503 2.58133 16.2956 2.112 16.3383C1.664 16.381 1.23733 16.1463 0.832 15.6343C0.490667 15.357 0.245333 15.0476 0.096 14.7063C-0.032 14.365 -0.032 13.8956 0.096 13.2983C0.138667 12.5516 0.245333 11.8263 0.416 11.1223C0.586667 10.397 0.938667 9.43695 1.472 8.24229C1.92 7.36762 2.26133 6.72762 2.496 6.32229C2.73067 5.89562 2.88 5.63962 2.944 5.55429C3.264 5.44762 3.53067 5.45829 3.744 5.58629C3.95733 5.69295 4.08533 5.89562 4.128 6.19429C4.256 6.40762 4.23467 6.77029 4.064 7.28229C3.91467 7.79429 3.648 8.42362 3.264 9.17029C2.96533 9.89562 2.688 10.621 2.432 11.3463C2.19733 12.0716 2.05867 12.6903 2.016 13.2023C1.97333 13.7143 2.10133 14.0236 2.4 14.1303C2.592 14.237 2.92267 14.205 3.392 14.0343C3.88267 13.8636 4.42667 13.437 5.024 12.7543C5.64267 12.0716 6.24 11.037 6.816 9.65029C6.98667 9.22362 7.11467 8.85029 7.2 8.53029C7.28533 8.18895 7.33867 7.81562 7.36 7.41029C7.31733 7.15429 7.328 6.93029 7.392 6.73829C7.47733 6.52495 7.648 6.34362 7.904 6.19429C7.98933 6.08762 8.10667 5.99162 8.256 5.90629C8.40533 5.79962 8.50133 5.79962 8.544 5.90629L9.056 5.87429C9.14133 5.85295 9.19467 5.90629 9.216 6.03429C9.25867 6.14095 9.33333 6.23695 9.44 6.32229C9.67467 6.51429 9.73867 6.93029 9.632 7.57029C9.52533 8.21029 9.22667 9.10629 8.736 10.2583C8.33067 11.133 8.05333 11.7943 7.904 12.2423C7.776 12.6903 7.70133 13.1276 7.68 13.5543C7.68 13.9383 7.75467 14.301 7.904 14.6423C8.05333 14.9836 8.288 15.293 8.608 15.5703C8.84267 15.7196 8.97067 15.8903 8.992 16.0823C9.03467 16.2743 9.04533 16.4983 9.024 16.7543C8.98133 16.9463 8.85333 17.1063 8.64 17.2343C8.448 17.341 8.224 17.3943 7.968 17.3943C7.712 17.3943 7.47733 17.3196 7.264 17.1703ZM5.152 2.83429C5.00267 2.68495 4.87467 2.50362 4.768 2.29029C4.68267 2.05562 4.65067 1.89562 4.672 1.81029C4.71467 1.70362 4.78933 1.50095 4.896 1.20229C5.024 0.882286 5.16267 0.658286 5.312 0.530286C5.376 0.487619 5.44 0.423619 5.504 0.338287C5.58933 0.231619 5.67467 0.167619 5.76 0.146286C6.016 -0.0243813 6.25067 -0.0457144 6.464 0.0822865C6.69867 0.188953 6.86933 0.412953 6.976 0.754286C7.168 1.05295 7.232 1.31962 7.168 1.55429C7.104 1.76762 6.93333 2.05562 6.656 2.41829C6.336 2.84495 6.048 3.07962 5.792 3.12229C5.536 3.16495 5.32267 3.06895 5.152 2.83429ZM9.248 2.83429C9.09867 2.68495 8.97067 2.50362 8.864 2.29029C8.77867 2.05562 8.74667 1.89562 8.768 1.81029C8.81067 1.70362 8.88533 1.50095 8.992 1.20229C9.12 0.882286 9.25867 0.658286 9.408 0.530286C9.472 0.487619 9.536 0.423619 9.6 0.338287C9.68533 0.231619 9.77067 0.167619 9.856 0.146286C10.112 -0.0243813 10.3467 -0.0457144 10.56 0.0822865C10.7947 0.188953 10.9653 0.412953 11.072 0.754286C11.264 1.05295 11.328 1.31962 11.264 1.55429C11.2 1.76762 11.0293 2.05562 10.752 2.41829C10.432 2.84495 10.144 3.07962 9.888 3.12229C9.632 3.16495 9.41867 3.06895 9.248 2.83429Z" fill="#1A1A1A"/>
</svg>
