<svg width="10" height="10" viewBox="0 0 10 10" fill="none" xmlns="http://www.w3.org/2000/svg">
<path d="M2.32229 9.35467C2.17295 9.22667 1.98095 8.84267 1.74629 8.20267C1.53295 7.56267 1.31962 6.816 1.10629 5.96267C0.914286 5.088 0.754286 4.288 0.626286 3.56267C0.540952 3.136 0.444952 2.77333 0.338286 2.47467C0.252952 2.176 0.178286 1.93067 0.114286 1.73867C0.00761901 1.35467 -0.024381 1.03467 0.0182858 0.778666C0.0609524 0.522666 0.210286 0.32 0.466285 0.170666C0.572952 0.106667 0.700952 0.0639998 0.850286 0.0426661C1.02095 0 1.14895 -0.0106665 1.23429 0.0106665C1.49029 0.096 1.72495 0.490667 1.93829 1.19467C2.15162 1.87733 2.34362 2.784 2.51429 3.91467C2.59962 4.576 2.70629 5.14133 2.83429 5.61067C2.96229 6.08 3.02629 6.35733 3.02629 6.44267C3.11162 6.61333 3.20762 6.784 3.31429 6.95467C3.44229 7.104 3.59162 7.09333 3.76229 6.92267C3.84762 6.83733 4.01829 6.64533 4.27429 6.34667C4.55162 6.048 4.81829 5.728 5.07429 5.38667C5.52229 4.78933 5.87429 4.29867 6.13029 3.91467C6.40762 3.53067 6.71695 3.12533 7.05829 2.69867C7.20762 2.48533 7.37829 2.25067 7.57029 1.99467C7.76229 1.73867 7.95429 1.504 8.14629 1.29067C8.35962 1.056 8.55162 0.917334 8.72229 0.874667C9.23429 0.789333 9.51162 0.896 9.55429 1.19467C9.59695 1.49333 9.40495 1.94133 8.97829 2.53867C8.80762 2.79467 8.66895 3.04 8.56229 3.27467C8.47695 3.488 8.39162 3.63733 8.30629 3.72267C8.13562 4.064 7.86895 4.50133 7.50629 5.03467C7.14362 5.54667 6.79162 6.02667 6.45029 6.47467C6.10895 6.90133 5.87429 7.17867 5.74629 7.30667C5.66095 7.392 5.46895 7.552 5.17029 7.78667C4.89295 8.02133 4.62629 8.32 4.37029 8.68267C3.85829 9.17333 3.45295 9.472 3.15429 9.57867C2.85562 9.68533 2.57829 9.61067 2.32229 9.35467Z" fill="#1A1A1A"/>
</svg>
