<svg width="15" height="19" viewBox="0 0 15 19" fill="none" xmlns="http://www.w3.org/2000/svg">
<path d="M4.06933 18.8382C3.55733 18.9875 2.992 19.0088 2.37333 18.9022C1.776 18.8168 1.25333 18.6355 0.805333 18.3582C0.336 18.0808 0.0693333 17.7715 0.00533335 17.4302C-0.016 17.3022 0.0266666 17.1635 0.133333 17.0142C0.218667 16.8648 0.336 16.7582 0.485333 16.6942C0.613333 16.6515 0.730667 16.6942 0.837333 16.8222C1.008 16.9288 1.31733 17.0568 1.76533 17.2062C2.21333 17.3768 2.71467 17.4088 3.26933 17.3022C3.76 17.1955 4.24 16.9075 4.70933 16.4382C5.2 15.9688 5.59467 15.5315 5.89333 15.1262C6.064 14.8702 6.352 14.4115 6.75733 13.7502C7.16267 13.0888 7.57867 12.3635 8.00533 11.5742C8.45333 10.7635 8.82667 10.0168 9.12533 9.33415C9.18933 9.16349 9.264 8.96082 9.34933 8.72615C9.43467 8.49149 9.54133 8.29949 9.66933 8.15015C9.79733 7.89415 9.904 7.65949 9.98933 7.44615C10.096 7.21149 10.16 7.05149 10.1813 6.96615C10.2027 6.85949 10.2987 6.64615 10.4693 6.32615C10.64 6.00615 10.8 5.68615 10.9493 5.36615C11.056 5.04615 11.216 4.57682 11.4293 3.95815C11.6427 3.33949 11.856 2.83815 12.0693 2.45415C12.3253 1.96349 12.528 1.56882 12.6773 1.27015C12.848 0.950154 13.0293 0.758154 13.2213 0.694153C13.4133 0.54482 13.5413 0.470154 13.6053 0.470154C13.6907 0.470154 13.8507 0.534154 14.0853 0.662154C14.3413 0.918154 14.5013 1.17415 14.5653 1.43015C14.6293 1.66482 14.5973 1.96349 14.4693 2.32615C14.3627 2.66749 14.1493 3.13682 13.8293 3.73415C13.6587 4.24615 13.4667 4.71549 13.2533 5.14215C13.0613 5.54749 12.912 5.81415 12.8053 5.94215C12.6987 6.19815 12.5707 6.48615 12.4213 6.80615C12.2933 7.10482 12.176 7.38215 12.0693 7.63815C11.6853 8.49149 11.3547 9.18482 11.0773 9.71815C10.8 10.2515 10.5547 10.7422 10.3413 11.1902C10.128 11.6382 9.904 12.1608 9.66933 12.7582C9.17867 13.5475 8.69867 14.2942 8.22933 14.9982C7.78133 15.7235 7.30133 16.3955 6.78933 17.0142C6.576 17.2062 6.30933 17.4302 5.98933 17.6862C5.66933 17.9422 5.33867 18.1768 4.99733 18.3902C4.67733 18.6035 4.368 18.7528 4.06933 18.8382ZM8.38933 11.1582C8.06933 11.1155 7.74933 10.9235 7.42933 10.5822C7.13067 10.2408 6.896 9.87815 6.72533 9.49415C6.55467 9.11015 6.49067 8.83282 6.53333 8.66215C6.53333 8.55549 6.53333 8.47015 6.53333 8.40615C6.53333 8.34215 6.53333 8.31015 6.53333 8.31015C6.40533 8.31015 6.288 8.15015 6.18133 7.83015C6.096 7.51015 6.032 7.09415 5.98933 6.58215C5.94667 6.07015 5.91467 5.52615 5.89333 4.95015C5.89333 4.37415 5.91467 3.83015 5.95733 3.31815C6.04267 2.95549 6.08533 2.56082 6.08533 2.13415C6.08533 1.68615 6.096 1.33415 6.11733 1.07815C6.096 0.736821 6.128 0.512821 6.21333 0.406154C6.29867 0.278154 6.384 0.182154 6.46933 0.118154C7.06667 -0.137846 7.46133 0.0221536 7.65333 0.598154C7.86667 1.15282 7.92 2.19815 7.81333 3.73415C7.77067 4.58749 7.77067 5.44082 7.81333 6.29415C7.856 7.14749 7.97333 7.89415 8.16533 8.53415C8.37867 9.17415 8.66667 9.61149 9.02933 9.84615C9.17867 9.93149 9.25333 10.0488 9.25333 10.1982C9.25333 10.3475 9.21067 10.5075 9.12533 10.6782C9.04 10.8275 8.92267 10.9555 8.77333 11.0622C8.64533 11.1475 8.51733 11.1795 8.38933 11.1582Z" fill="#1A1A1A"/>
</svg>
