<svg width="12" height="21" viewBox="0 0 12 21" fill="none" xmlns="http://www.w3.org/2000/svg">
<path d="M9.66 4.004C9.548 4.43333 9.38 5.02133 9.156 5.768C7.38267 6.216 5.89867 6.804 4.704 7.532C3.62133 8.22267 2.84667 8.97867 2.38 9.8C1.91333 10.6027 1.68 11.4053 1.68 12.208C1.68 13.048 1.78267 13.7293 1.988 14.252C2.19333 14.7747 2.45467 15.2227 2.772 15.596C3.668 16.6413 5.03067 17.304 6.86 17.584C7.68133 17.7147 8.50267 17.808 9.324 17.864L9.94 17.92C10.444 17.9387 11.004 17.9947 11.62 18.088L11.48 18.508C10.92 18.5267 10.444 18.6013 10.052 18.732C9.66 18.8627 9.24933 19.0493 8.82 19.292C8.39067 19.5347 7.98 19.712 7.588 19.824C7.21467 19.9547 6.73867 20.02 6.16 20.02C5.22667 20.02 4.368 19.852 3.584 19.516C2.81867 19.18 2.14667 18.6947 1.568 18.06C0.522667 16.9213 0 15.5773 0 14.028C0 13.86 0.0186666 13.608 0.0559999 13.272C0.205333 11.9653 0.588 10.7427 1.204 9.604C1.83867 8.44667 2.52933 7.504 3.276 6.776C2.828 6.53333 2.408 6.216 2.016 5.824C1.624 5.41333 1.38133 4.984 1.288 4.536C1.25067 4.312 1.232 4.13467 1.232 4.004C1.232 3.276 1.49333 2.53867 2.016 1.792C2.352 1.30667 2.78133 0.886666 3.304 0.532C3.82667 0.177333 4.34 0 4.844 0C5.31067 0 5.84267 0.102667 6.44 0.308C7.03733 0.494667 7.57867 0.784 8.064 1.176L7.644 1.792C7.27067 1.69867 6.86 1.652 6.412 1.652C5.908 1.652 5.38533 1.71733 4.844 1.848C4.26533 1.99733 3.79867 2.184 3.444 2.408C3.08933 2.632 2.73467 2.93067 2.38 3.304C2.80933 4.368 3.74267 5.11467 5.18 5.544C6.43067 5.07733 7.924 4.564 9.66 4.004Z" fill="#1A1A1A"/>
</svg>
