<svg width="3" height="16" viewBox="0 0 3 16" fill="none" xmlns="http://www.w3.org/2000/svg">
<path d="M0 2.352C0.466667 1.41867 0.952 0.634666 1.456 0H1.764C1.74533 0.672 1.77333 1.33467 1.848 1.988C1.92267 2.64133 1.96 3.04267 1.96 3.192L2.016 4.032L2.072 4.62C2.25867 6.86 2.352 8.652 2.352 9.996C2.352 10.892 2.31467 11.648 2.24 12.264C2.184 12.8613 2.09067 13.5707 1.96 14.392C1.88533 14.8773 1.74533 15.3813 1.54 15.904H1.12C1.13867 15.7173 1.148 15.3813 1.148 14.896C1.148 14.112 1.12 13.3747 1.064 12.684C1.008 12.1613 0.914667 11.4707 0.784 10.612C0.597333 9.268 0.438667 7.97067 0.308 6.72C0.102667 4.592 0 3.136 0 2.352Z" fill="#1A1A1A"/>
</svg>
