<svg width="20" height="14" viewBox="0 0 20 14" fill="none" xmlns="http://www.w3.org/2000/svg">
<path d="M18.2 0C18.648 0.504 19.0027 1.07333 19.264 1.708C19.5253 2.324 19.656 2.94 19.656 3.556C19.656 5.31067 18.5267 6.664 16.268 7.616C14.2333 8.456 11.6667 8.876 8.568 8.876C7.14933 8.876 5.81467 8.764 4.564 8.54C3.668 8.372 2.95867 8.18533 2.436 7.98C1.91333 7.756 1.46533 7.448 1.092 7.056C0.364 6.29067 0 5.13333 0 3.584C0 3.17333 0.0280001 2.73467 0.0840002 2.268L0.616 2.464C0.784 3.45333 1.176 4.19067 1.792 4.676C2.42667 5.16133 3.35067 5.50667 4.564 5.712C5.72133 5.91733 7.24267 6.02 9.128 6.02C11.1067 6.02 12.8613 5.88933 14.392 5.628C15.288 5.47867 16.044 5.292 16.66 5.068C17.276 4.844 17.7427 4.63867 18.06 4.452C18.396 4.26533 18.564 4.16267 18.564 4.144C18.1533 3.34133 17.6307 2.604 16.996 1.932C17.3507 1.148 17.752 0.504 18.2 0ZM9.464 10.528C9.76267 10.752 10.052 11.004 10.332 11.284C10.6307 11.564 10.864 11.8253 11.032 12.068C10.6587 12.4787 10.1733 12.964 9.576 13.524C9.072 12.9267 8.55867 12.4227 8.036 12.012C8.52133 11.564 8.99733 11.0693 9.464 10.528Z" fill="#1A1A1A"/>
</svg>
