<svg width="25" height="22" viewBox="0 0 25 22" fill="none" xmlns="http://www.w3.org/2000/svg">
<path d="M24.276 6.916C24.276 7.756 24.0427 8.55867 23.576 9.324C23.128 10.052 22.5027 10.7333 21.7 11.368C20.916 11.9653 20.0573 12.432 19.124 12.768C18.1907 13.104 17.2947 13.272 16.436 13.272C15.708 13.272 15.148 13.2627 14.756 13.244C14.364 13.2253 14.0187 13.1693 13.72 13.076C13.5707 13.0387 13.384 12.9733 13.16 12.88C12.9547 12.7867 12.7773 12.6747 12.628 12.544C12.8147 13.5707 12.908 14.3827 12.908 14.98C12.908 15.764 12.7587 16.5667 12.46 17.388C12.18 18.228 11.7133 18.9653 11.06 19.6C9.84667 20.7573 8.15733 21.336 5.992 21.336C4.57333 21.336 3.37867 21.0747 2.408 20.552C1.456 20.0293 0.784 19.3013 0.392 18.368C0.130667 17.7333 0 17.0613 0 16.352C0 15.9227 0.0653334 15.3813 0.196 14.728C0.345333 14.0747 0.56 13.412 0.84 12.74L1.372 12.936C1.24133 13.72 1.176 14.3267 1.176 14.756C1.176 15.5213 1.36267 16.1373 1.736 16.604C2.128 17.0893 2.70667 17.472 3.472 17.752C4.23733 18.032 5.152 18.172 6.216 18.172C7.76533 18.172 9.06267 17.8733 10.108 17.276C10.612 16.996 11.004 16.6693 11.284 16.296C11.564 15.9413 11.704 15.568 11.704 15.176C11.704 14.2427 10.9947 12.8053 9.576 10.864C9.98667 10.136 10.4347 9.492 10.92 8.932C11.424 9.548 11.8813 9.968 12.292 10.192C12.7027 10.3973 13.2813 10.5467 14.028 10.64C14.5507 9.81867 14.9707 9.19333 15.288 8.764C15.624 8.33467 16.0533 7.84 16.576 7.28C18.4053 5.35733 20.0107 4.396 21.392 4.396C21.6533 4.396 21.952 4.47067 22.288 4.62C22.624 4.75067 22.9413 4.928 23.24 5.152C23.632 5.46933 23.9027 5.78667 24.052 6.104C24.2013 6.40267 24.276 6.67333 24.276 6.916ZM22.848 8.764C22.8107 8.652 22.7547 8.50267 22.68 8.316C22.624 8.12933 22.568 7.98933 22.512 7.896C22.456 7.784 22.3813 7.672 22.288 7.56C22.0827 7.29867 21.784 7.056 21.392 6.832C21.0187 6.608 20.636 6.496 20.244 6.496C19.74 6.496 19.292 6.58 18.9 6.748C18.5267 6.916 18.2187 7.10267 17.976 7.308C17.752 7.51333 17.4253 7.83067 16.996 8.26C16.4547 8.764 15.792 9.55733 15.008 10.64H18.256C19.32 10.64 20.3 10.4347 21.196 10.024C21.588 9.83733 21.8773 9.66933 22.064 9.52C22.2693 9.352 22.5307 9.1 22.848 8.764ZM20.748 0C21.0467 0.224 21.336 0.476 21.616 0.755999C21.9147 1.036 22.148 1.29733 22.316 1.54C21.9427 1.95067 21.4573 2.436 20.86 2.996C20.356 2.39867 19.8427 1.89467 19.32 1.484C19.8053 1.036 20.2813 0.541333 20.748 0Z" fill="#1A1A1A"/>
</svg>
