<svg width="9" height="11" viewBox="0 0 9 11" fill="none" xmlns="http://www.w3.org/2000/svg">
<path d="M8.764 5.796C8.764 6.44933 8.64267 7.09333 8.4 7.728C8.15733 8.36267 7.82133 8.904 7.392 9.352C6.496 10.2853 5.25467 10.752 3.668 10.752C2.28667 10.752 1.29733 10.3693 0.7 9.604C0.233333 8.988 0 8.18533 0 7.196C0 6.72933 0.0373333 6.328 0.112 5.992L0.588 5.88C0.644 6.47733 0.849333 6.95333 1.204 7.308C1.428 7.56933 1.68933 7.76533 1.988 7.896C2.28667 8.008 2.66 8.064 3.108 8.064H4.256C5.07733 8.064 5.73067 7.91467 6.216 7.616C6.72 7.29867 7.07467 6.972 7.28 6.636C7.504 6.28133 7.616 6.06667 7.616 5.992C7.616 5.936 7.42933 5.66533 7.056 5.18C6.70133 4.69467 6.216 4.18133 5.6 3.64C5.00267 3.09867 4.30267 2.66933 3.5 2.352C3.612 1.71733 3.836 0.933334 4.172 0C4.48933 0.130667 4.872 0.345333 5.32 0.644C5.78667 0.942667 6.23467 1.27867 6.664 1.652C7.28 2.212 7.784 2.81867 8.176 3.472C8.568 4.12533 8.764 4.9 8.764 5.796Z" fill="#1A1A1A"/>
</svg>
