<svg width="15" height="16" viewBox="0 0 15 16" fill="none" xmlns="http://www.w3.org/2000/svg">
<path d="M14.392 9.828C14.392 10.5933 14.1773 11.34 13.748 12.068C13.3373 12.7773 12.7307 13.4213 11.928 14C11.2 14.5413 10.388 14.98 9.492 15.316C8.596 15.652 7.71867 15.8293 6.86 15.848C5.92667 15.8853 5.18933 15.904 4.648 15.904L2.548 15.988C1.67067 15.316 0.821333 14.28 0 12.88C0.485333 12.936 1.204 12.992 2.156 13.048C3.12667 13.104 3.77067 13.1413 4.088 13.16L5.292 11.676C5.21733 9.36133 4.90933 6.944 4.368 4.424C4.16267 3.45333 3.948 2.688 3.724 2.128L5.096 0C5.58133 0.933334 6.14133 1.736 6.776 2.408C6.496 2.65067 6.29067 2.912 6.16 3.192C6.048 3.472 5.992 3.836 5.992 4.284L6.02 4.816C6.188 6.048 6.29067 7.168 6.328 8.176C6.34667 8.66133 6.34667 9.1 6.328 9.492C6.30933 9.884 6.28133 10.1827 6.244 10.388C6.20667 10.5933 6.17867 10.724 6.16 10.78L6.692 10.192C7.644 9.14667 8.484 8.4 9.212 7.952C9.95867 7.504 10.7147 7.28 11.48 7.28C11.76 7.28 12.068 7.35467 12.404 7.504C12.74 7.63467 13.0573 7.82133 13.356 8.064C14.0467 8.60533 14.392 9.19333 14.392 9.828ZM12.964 11.284C12.6653 10.6493 12.3107 10.192 11.9 9.912C11.508 9.632 10.9573 9.492 10.248 9.492C9.688 9.492 9.072 9.716 8.4 10.164C7.74667 10.5933 7.12133 11.116 6.524 11.732C6.56133 11.6947 6.272 12.012 5.656 12.684L5.236 13.16H8.344C9.25867 13.16 10.1267 13.0107 10.948 12.712C11.3773 12.544 11.732 12.3573 12.012 12.152C12.292 11.928 12.6093 11.6387 12.964 11.284ZM10.836 2.884C11.1347 3.108 11.424 3.36 11.704 3.64C12.0027 3.92 12.236 4.18133 12.404 4.424C12.0307 4.83467 11.5453 5.32 10.948 5.88C10.444 5.28267 9.93067 4.77867 9.408 4.368C9.89333 3.92 10.3693 3.42533 10.836 2.884Z" fill="#1A1A1A"/>
</svg>
