<svg width="9" height="16" viewBox="0 0 9 16" fill="none" xmlns="http://www.w3.org/2000/svg">
<path d="M8.764 10.192C8.764 10.8453 8.64267 11.4893 8.4 12.124C8.15733 12.7587 7.82133 13.3 7.392 13.748C6.496 14.6813 5.25467 15.148 3.668 15.148C2.28667 15.148 1.29733 14.7653 0.7 14C0.233333 13.384 0 12.5813 0 11.592C0 11.1253 0.0373333 10.724 0.112 10.388L0.588 10.276C0.644 10.8733 0.849333 11.3493 1.204 11.704C1.428 11.9653 1.68933 12.1613 1.988 12.292C2.28667 12.404 2.66 12.46 3.108 12.46H4.256C5.07733 12.46 5.73067 12.3107 6.216 12.012C6.72 11.6947 7.07467 11.368 7.28 11.032C7.504 10.6773 7.616 10.4627 7.616 10.388C7.616 10.332 7.42933 10.0613 7.056 9.576C6.70133 9.09067 6.216 8.57733 5.6 8.036C5.00267 7.49467 4.30267 7.06533 3.5 6.748C3.612 6.11333 3.836 5.32933 4.172 4.396C4.48933 4.52667 4.872 4.74133 5.32 5.04C5.78667 5.33867 6.23467 5.67467 6.664 6.048C7.28 6.608 7.784 7.21467 8.176 7.868C8.568 8.52133 8.764 9.296 8.764 10.192ZM4.088 0C4.38667 0.224 4.676 0.476001 4.956 0.756C5.25467 1.036 5.488 1.29733 5.656 1.54C5.28267 1.95067 4.79733 2.436 4.2 2.996C3.696 2.39867 3.18267 1.89467 2.66 1.484C3.14533 1.036 3.62133 0.541333 4.088 0Z" fill="#1A1A1A"/>
</svg>
