<svg width="20" height="17" viewBox="0 0 20 17" fill="none" xmlns="http://www.w3.org/2000/svg">
<path d="M16.436 4.396C17.2387 4.396 17.892 4.82533 18.396 5.684C18.9 6.54267 19.208 7.56 19.32 8.736C19.3573 9.14667 19.376 9.45467 19.376 9.66C19.376 10.612 19.2453 11.536 18.984 12.432C18.6293 13.664 18.06 14.5787 17.276 15.176C16.548 15.736 15.624 16.0907 14.504 16.24C13.4027 16.3707 11.62 16.436 9.156 16.436C7.868 16.436 6.916 16.4173 6.3 16.38C5.684 16.3427 5.096 16.2773 4.536 16.184C3.28533 15.9787 2.30533 15.6147 1.596 15.092C0.905333 14.5693 0.438667 13.8787 0.196 13.02C0.0653334 12.516 0 11.9373 0 11.284C0 10.836 0.0280001 10.3787 0.0840002 9.912L0.616 10.108C0.728 10.78 0.924 11.34 1.204 11.788C1.82 12.7213 2.90267 13.3093 4.452 13.552C5.068 13.6453 5.74 13.7013 6.468 13.72C7.196 13.7387 8.18533 13.748 9.436 13.748L13.972 13.72C14.98 13.72 15.7733 13.608 16.352 13.384C16.9493 13.16 17.416 12.8333 17.752 12.404C17.9573 12.1427 18.116 11.8533 18.228 11.536C18.34 11.2187 18.3773 10.9013 18.34 10.584C17.836 11.0693 17.1173 11.312 16.184 11.312C15.4 11.312 14.7933 11.116 14.364 10.724C13.86 10.276 13.608 9.61333 13.608 8.736C13.608 8.26933 13.6733 7.784 13.804 7.28C13.9533 6.75733 14.14 6.29067 14.364 5.88C14.5693 5.488 14.84 5.14267 15.176 4.844C15.5307 4.54533 15.9507 4.396 16.436 4.396ZM17.948 8.54C17.6307 7.028 16.9867 6.272 16.016 6.272C15.4933 6.272 15.1107 6.44933 14.868 6.804C14.6253 7.15867 14.504 7.504 14.504 7.84C14.504 8.13867 14.616 8.44667 14.84 8.764C15.0827 9.08133 15.5307 9.24 16.184 9.24C16.632 9.24 16.996 9.16533 17.276 9.016C17.5747 8.86667 17.7987 8.708 17.948 8.54ZM16.352 0C16.6507 0.224 16.94 0.476001 17.22 0.756C17.5187 1.036 17.752 1.29733 17.92 1.54C17.5467 1.95067 17.0613 2.436 16.464 2.996C15.96 2.39867 15.4467 1.89467 14.924 1.484C15.4093 1.036 15.8853 0.541333 16.352 0Z" fill="#1A1A1A"/>
</svg>
