<svg width="12" height="25" viewBox="0 0 12 25" fill="none" xmlns="http://www.w3.org/2000/svg">
<path d="M9.66 8.4C9.548 8.82933 9.38 9.41733 9.156 10.164C7.38267 10.612 5.89867 11.2 4.704 11.928C3.62133 12.6187 2.84667 13.3747 2.38 14.196C1.91333 14.9987 1.68 15.8013 1.68 16.604C1.68 17.444 1.78267 18.1253 1.988 18.648C2.19333 19.1707 2.45467 19.6187 2.772 19.992C3.668 21.0373 5.03067 21.7 6.86 21.98C7.68133 22.1107 8.50267 22.204 9.324 22.26L9.94 22.316C10.444 22.3347 11.004 22.3907 11.62 22.484L11.48 22.904C10.92 22.9227 10.444 22.9973 10.052 23.128C9.66 23.2587 9.24933 23.4453 8.82 23.688C8.39067 23.9307 7.98 24.108 7.588 24.22C7.21467 24.3507 6.73867 24.416 6.16 24.416C5.22667 24.416 4.368 24.248 3.584 23.912C2.81867 23.576 2.14667 23.0907 1.568 22.456C0.522667 21.3173 0 19.9733 0 18.424C0 18.256 0.0186667 18.004 0.0560001 17.668C0.205333 16.3613 0.588 15.1387 1.204 14C1.83867 12.8427 2.52933 11.9 3.276 11.172C2.828 10.9293 2.408 10.612 2.016 10.22C1.624 9.80933 1.38133 9.38 1.288 8.932C1.25067 8.708 1.232 8.53067 1.232 8.4C1.232 7.672 1.49333 6.93467 2.016 6.188C2.352 5.70267 2.78133 5.28267 3.304 4.928C3.82667 4.57333 4.34 4.396 4.844 4.396C5.31067 4.396 5.84267 4.49867 6.44 4.704C7.03733 4.89067 7.57867 5.18 8.064 5.572L7.644 6.188C7.27067 6.09467 6.86 6.048 6.412 6.048C5.908 6.048 5.38533 6.11333 4.844 6.244C4.26533 6.39333 3.79867 6.58 3.444 6.804C3.08933 7.028 2.73467 7.32667 2.38 7.7C2.80933 8.764 3.74267 9.51067 5.18 9.94C6.43067 9.47333 7.924 8.96 9.66 8.4ZM4.76 0C5.05867 0.224 5.348 0.476001 5.628 0.756C5.92667 1.036 6.16 1.29733 6.328 1.54C5.95467 1.95067 5.46933 2.436 4.872 2.996C4.368 2.39867 3.85467 1.89467 3.332 1.484C3.81733 1.036 4.29333 0.541334 4.76 0Z" fill="#1A1A1A"/>
</svg>
