<svg width="7" height="10" viewBox="0 0 7 10" fill="none" xmlns="http://www.w3.org/2000/svg">
<path d="M6.468 5.46C6.468 6.412 6.29067 7.20533 5.936 7.84C5.656 8.344 5.27333 8.71733 4.788 8.96C4.32133 9.184 3.71467 9.296 2.968 9.296C1.904 9.296 1.13867 8.97867 0.672 8.344C0.224 7.728 0 6.944 0 5.992C0 5.22667 0.130667 4.49867 0.392 3.808C0.653333 3.11733 0.970667 2.576 1.344 2.184L0.308 1.736C0.662667 1.288 0.942667 0.952 1.148 0.728C1.35333 0.485333 1.60533 0.242667 1.904 0C2.94933 0.261333 3.84533 0.709333 4.592 1.344C5.208 1.848 5.684 2.48267 6.02 3.248C6.31867 3.93867 6.468 4.676 6.468 5.46ZM4.228 3.5C3.98533 3.35067 3.65867 3.18267 3.248 2.996C2.83733 2.80933 2.47333 2.66 2.156 2.548C2.1 2.58533 1.99733 2.69733 1.848 2.884C1.71733 3.052 1.57733 3.29467 1.428 3.612C1.29733 3.91067 1.232 4.23733 1.232 4.592C1.232 5.264 1.47467 5.74 1.96 6.02C2.33333 6.244 2.94 6.356 3.78 6.356C4.26533 6.356 4.676 6.20667 5.012 5.908C5.36667 5.59067 5.544 5.264 5.544 4.928C5.544 4.704 5.44133 4.48933 5.236 4.284C5.04933 4.07867 4.71333 3.81733 4.228 3.5Z" fill="#1A1A1A"/>
</svg>
