<svg width="13" height="18" viewBox="0 0 13 18" fill="none" xmlns="http://www.w3.org/2000/svg">
<path d="M12.348 1.96C12.1987 2.61333 12.0307 3.192 11.844 3.696C11.396 3.64 10.948 3.612 10.5 3.612C9.47333 3.612 8.456 3.74267 7.448 4.004C6.45867 4.26533 5.56267 4.62933 4.76 5.096C3.77067 5.67467 2.98667 6.412 2.408 7.308C1.848 8.18533 1.568 9.184 1.568 10.304C1.568 11.4987 1.932 12.5067 2.66 13.328C3.5 14.2427 4.88133 14.8587 6.804 15.176C7.62533 15.3067 8.44667 15.4 9.268 15.456L9.884 15.512C10.388 15.5307 10.948 15.5867 11.564 15.68L11.424 16.1C10.864 16.1187 10.388 16.1933 9.996 16.324C9.604 16.4547 9.19333 16.6413 8.764 16.884C8.33467 17.1267 7.924 17.304 7.532 17.416C7.15867 17.5467 6.68267 17.612 6.104 17.612C5.13333 17.612 4.24667 17.4253 3.444 17.052C2.64133 16.6973 1.96 16.1933 1.4 15.54C0.466667 14.4013 0 12.9733 0 11.256C0 9.44533 0.494667 7.812 1.484 6.356C2.23067 5.292 3.21067 4.41467 4.424 3.724C5.152 3.29467 5.97333 2.97733 6.888 2.772C6.272 2.548 5.684 2.36133 5.124 2.212C4.58267 2.044 4.02267 1.96 3.444 1.96C2.324 1.96 1.53067 2.36133 1.064 3.164L0.616 2.856C0.896 2.22133 1.13867 1.74533 1.344 1.428C1.568 1.092 1.80133 0.812 2.044 0.588C2.45467 0.196 2.98667 0 3.64 0C3.95733 0 4.24667 0.0373334 4.508 0.112C4.76933 0.168 5.14267 0.270667 5.628 0.42C6.244 0.625333 7.10267 0.849333 8.204 1.092C9.30533 1.316 10.5187 1.40933 11.844 1.372H12.516L12.348 1.96ZM6.944 8.12C7.24267 8.344 7.532 8.596 7.812 8.876C8.11067 9.156 8.344 9.41733 8.512 9.66C8.13867 10.0707 7.65333 10.556 7.056 11.116C6.552 10.5187 6.03867 10.0147 5.516 9.604C6.00133 9.156 6.47733 8.66133 6.944 8.12Z" fill="#1A1A1A"/>
</svg>
