<svg width="18" height="17" viewBox="0 0 18 17" fill="none" xmlns="http://www.w3.org/2000/svg">
<path d="M17.612 2.38C17.3507 2.62267 17.1547 2.884 17.024 3.164C16.912 3.444 16.856 3.79867 16.856 4.228L16.884 4.732C16.996 5.64667 17.0893 6.34667 17.164 6.832C17.3507 8.04533 17.4813 8.95067 17.556 9.548C17.6307 10.1453 17.6773 10.78 17.696 11.452C17.6027 12.6653 17.3133 13.6267 16.828 14.336C16.324 15.0827 15.6333 15.5493 14.756 15.736C13.86 15.9227 12.124 16.016 9.548 16.016C7.28933 16.016 5.60933 15.9413 4.508 15.792C3.85467 15.6987 3.25733 15.5307 2.716 15.288C2.19333 15.0453 1.74533 14.7747 1.372 14.476C0.793334 13.9907 0.401334 13.3747 0.196 12.628C0.0653334 12.1613 0 11.5827 0 10.892C0 10.444 0.0280001 9.98667 0.0840002 9.52L0.616 9.716C0.728 10.388 0.924 10.948 1.204 11.396C1.50267 11.8627 1.91333 12.2173 2.436 12.46C2.95867 12.684 3.63067 12.8613 4.452 12.992C5.70267 13.1787 7.31733 13.272 9.296 13.272C10.8827 13.272 12.3013 13.2253 13.552 13.132C14.1307 13.076 14.56 13.0107 14.84 12.936C15.1387 12.8427 15.372 12.712 15.54 12.544C15.7267 12.3573 15.9787 12.04 16.296 11.592C16.1093 9.93067 15.8667 8.36267 15.568 6.888C15.12 4.704 14.7 3.11733 14.308 2.128L15.932 0C16.0813 0.373334 16.2867 0.746668 16.548 1.12C16.828 1.47467 17.1827 1.89467 17.612 2.38ZM10.836 9.716C10.836 10.0333 10.7053 10.3413 10.444 10.64C10.1827 10.92 9.744 11.2373 9.128 11.592C8.54933 11.6667 7.94267 11.704 7.308 11.704C6.916 11.704 6.62667 11.6947 6.44 11.676C6.608 11.62 7.01867 11.4987 7.672 11.312C8.344 11.1067 8.876 10.9107 9.268 10.724C9.67867 10.5187 9.884 10.332 9.884 10.164C9.884 10.0707 9.8 10.0053 9.632 9.968C9.48267 9.93067 9.20267 9.89333 8.792 9.856C7.896 9.8 7.448 9.52933 7.448 9.044C7.448 8.372 7.896 7.80267 8.792 7.336C9.352 7.03733 9.90267 6.82267 10.444 6.692C10.3133 6.95333 10.136 7.23333 9.912 7.532C9.14667 7.77467 8.54933 8.07333 8.12 8.428C8.12 8.876 8.58667 9.1 9.52 9.1C10.024 9.1 10.3693 9.13733 10.556 9.212C10.7427 9.268 10.836 9.436 10.836 9.716Z" fill="#1A1A1A"/>
</svg>
