<svg width="13" height="23" viewBox="0 0 13 23" fill="none" xmlns="http://www.w3.org/2000/svg">
<path d="M12.348 6.496C12.1987 7.14933 12.0307 7.728 11.844 8.232C11.396 8.176 10.948 8.148 10.5 8.148C9.47333 8.148 8.456 8.27867 7.448 8.54C6.45867 8.80133 5.56267 9.16533 4.76 9.632C3.77067 10.2107 2.98667 10.948 2.408 11.844C1.848 12.7213 1.568 13.72 1.568 14.84C1.568 16.0347 1.932 17.0427 2.66 17.864C3.5 18.7787 4.88133 19.3947 6.804 19.712C7.62533 19.8427 8.44667 19.936 9.268 19.992L9.884 20.048C10.388 20.0667 10.948 20.1227 11.564 20.216L11.424 20.636C10.864 20.6547 10.388 20.7293 9.996 20.86C9.604 20.9907 9.19333 21.1773 8.764 21.42C8.33467 21.6627 7.924 21.84 7.532 21.952C7.15867 22.0827 6.68267 22.148 6.104 22.148C5.13333 22.148 4.24667 21.9613 3.444 21.588C2.64133 21.2333 1.96 20.7293 1.4 20.076C0.466667 18.9373 0 17.5093 0 15.792C0 13.9813 0.494667 12.348 1.484 10.892C2.23067 9.828 3.21067 8.95067 4.424 8.26C5.152 7.83067 5.97333 7.51333 6.888 7.308C6.272 7.084 5.684 6.89733 5.124 6.748C4.58267 6.58 4.02267 6.496 3.444 6.496C2.324 6.496 1.53067 6.89733 1.064 7.7L0.616 7.392C0.896 6.75733 1.13867 6.28133 1.344 5.964C1.568 5.628 1.80133 5.348 2.044 5.124C2.45467 4.732 2.98667 4.536 3.64 4.536C3.95733 4.536 4.24667 4.57333 4.508 4.648C4.76933 4.704 5.14267 4.80667 5.628 4.956C6.244 5.16133 7.10267 5.38533 8.204 5.628C9.30533 5.852 10.5187 5.94533 11.844 5.908H12.516L12.348 6.496ZM5.544 0C5.84267 0.224 6.132 0.476 6.412 0.755999C6.71067 1.036 6.944 1.29733 7.112 1.54C6.73867 1.95067 6.25333 2.436 5.656 2.996C5.152 2.39867 4.63867 1.89467 4.116 1.484C4.60133 1.036 5.07733 0.541333 5.544 0Z" fill="#1A1A1A"/>
</svg>
