<svg width="13" height="22" viewBox="0 0 13 22" fill="none" xmlns="http://www.w3.org/2000/svg">
<path d="M11.648 2.296C11.4053 2.50133 11.228 2.72533 11.116 2.968C11.0227 3.192 10.976 3.49067 10.976 3.864C10.976 4.18133 10.9853 4.43333 11.004 4.62C11.116 5.64667 11.1907 6.30933 11.228 6.608C11.284 7.24267 11.368 8.11067 11.48 9.212C11.6107 10.3133 11.76 11.7973 11.928 13.664C11.984 14.112 12.012 14.5507 12.012 14.98C12.012 15.7453 11.928 16.4453 11.76 17.08C11.4987 18.1627 11.0693 19.04 10.472 19.712C9.464 20.8507 7.98 21.42 6.02 21.42C4.60133 21.42 3.39733 21.168 2.408 20.664C1.456 20.16 0.784 19.432 0.392 18.48C0.130667 17.8453 0 17.1827 0 16.492C0 15.4653 0.289333 14.252 0.868 12.852L1.4 13.02C1.25067 13.7293 1.176 14.3267 1.176 14.812C1.176 15.428 1.288 15.9507 1.512 16.38C1.86667 17.0707 2.53867 17.5747 3.528 17.892C4.312 18.1347 5.18 18.256 6.132 18.256C7.73733 18.256 8.95067 17.9573 9.772 17.36C10.444 16.8747 10.78 16.1373 10.78 15.148C10.78 14.364 10.6307 13.02 10.332 11.116C9.95867 8.74533 9.59467 6.81333 9.24 5.32C8.88533 3.82667 8.58667 2.76267 8.344 2.128L9.996 0C10.5 0.914667 11.0507 1.68 11.648 2.296Z" fill="#1A1A1A"/>
</svg>
