<svg width="8" height="18" viewBox="0 0 8 18" fill="none" xmlns="http://www.w3.org/2000/svg">
<path d="M7.784 2.212C7.74667 2.79067 7.62533 3.78933 7.42 5.208C6.48667 5.208 5.66533 5.28267 4.956 5.432C3.70533 5.712 2.78133 6.188 2.184 6.86C1.68 7.38267 1.428 8.02667 1.428 8.792C1.428 8.99733 1.43733 9.14667 1.456 9.24C2.016 13.5147 2.268 16.352 2.212 17.752L1.428 18.004C1.29733 16.7533 1.01733 14.8587 0.588 12.32L0.476 11.564C0.326667 10.6493 0.186667 9.69733 0.0560001 8.708C0.0186667 8.26 0 7.952 0 7.784C0 6.98133 0.121333 6.29067 0.364 5.712C0.625333 5.13333 0.924 4.68533 1.26 4.368C1.78267 3.90133 2.36133 3.57467 2.996 3.388C3.63067 3.20133 4.41467 3.09867 5.348 3.08C4.60133 2.53867 3.91067 2.268 3.276 2.268C2.884 2.268 2.45467 2.37067 1.988 2.576C2.02533 2.20267 2.11867 1.83867 2.268 1.484C2.66 0.494667 3.31333 0 4.228 0C4.844 0 5.46 0.205333 6.076 0.616C6.59867 0.970667 7.00933 1.32533 7.308 1.68C7.60667 2.016 7.76533 2.19333 7.784 2.212Z" fill="#1A1A1A"/>
</svg>
