<svg width="13" height="13" viewBox="0 0 13 13" fill="none" xmlns="http://www.w3.org/2000/svg">
<path d="M10.948 0C11.3773 0.541333 11.732 1.13867 12.012 1.792C12.5533 3.08 12.824 4.396 12.824 5.74C12.824 6.82267 12.6653 7.79333 12.348 8.652C12.0307 9.51067 11.5547 10.2293 10.92 10.808C10.36 11.3307 9.65067 11.732 8.792 12.012C7.952 12.292 7.01867 12.432 5.992 12.432C4.57333 12.432 3.37867 12.1707 2.408 11.648C1.456 11.1253 0.784 10.3973 0.392 9.464C0.130667 8.82933 0 8.15733 0 7.448C0 7.01867 0.0653334 6.47733 0.196 5.824C0.345333 5.17067 0.56 4.508 0.84 3.836L1.372 4.032C1.24133 4.816 1.176 5.42267 1.176 5.852C1.176 6.61733 1.36267 7.23333 1.736 7.7C2.128 8.18533 2.70667 8.568 3.472 8.848C4.23733 9.128 5.152 9.268 6.216 9.268C7.76533 9.268 9.06267 8.96933 10.108 8.372C10.612 8.092 11.004 7.76533 11.284 7.392C11.564 7.03733 11.704 6.664 11.704 6.272C11.704 5.69333 11.4333 4.94667 10.892 4.032C10.3507 3.09867 9.912 2.408 9.576 1.96C9.856 1.43733 10.3133 0.784 10.948 0ZM5.74 2.856C6.03867 3.08 6.328 3.332 6.608 3.612C6.90667 3.892 7.14 4.15333 7.308 4.396C6.93467 4.80667 6.44933 5.292 5.852 5.852C5.348 5.25467 4.83467 4.75067 4.312 4.34C4.79733 3.892 5.27333 3.39733 5.74 2.856Z" fill="#1A1A1A"/>
</svg>
