<svg width="13" height="20" viewBox="0 0 13 20" fill="none" xmlns="http://www.w3.org/2000/svg">
<path d="M9.212 4.396C9.69733 4.396 10.1547 4.62933 10.584 5.096C10.8267 5.35733 11.0227 5.61867 11.172 5.88C11.3213 6.14133 11.4893 6.48667 11.676 6.916C11.9747 7.68133 12.1893 8.46533 12.32 9.268C12.4693 10.052 12.544 10.7893 12.544 11.48C12.544 12.4693 12.4133 13.44 12.152 14.392C11.8907 15.3627 11.48 16.212 10.92 16.94C10.3787 17.6493 9.69733 18.2093 8.876 18.62C7.98 19.0493 6.95333 19.264 5.796 19.264C4.452 19.264 3.31333 19.012 2.38 18.508C1.428 18.004 0.756 17.2667 0.364 16.296C0.121333 15.7173 0 15.092 0 14.42C0 13.2813 0.28 12.0307 0.84 10.668L1.372 10.864C1.22267 11.6107 1.148 12.2173 1.148 12.684C1.148 13.412 1.344 14.028 1.736 14.532C2.14667 15.036 2.72533 15.4187 3.472 15.68C4.21867 15.96 5.02133 16.1 5.88 16.1C6.79467 16.1 7.60667 15.9507 8.316 15.652C9.02533 15.372 9.62267 14.98 10.108 14.476C10.4253 14.1587 10.6773 13.8227 10.864 13.468C11.0693 13.1133 11.2093 12.8147 11.284 12.572C11.3773 12.3293 11.4333 12.1707 11.452 12.096L11.172 10.808C11.172 10.808 11.0693 10.864 10.864 10.976C10.696 11.0507 10.4533 11.1253 10.136 11.2C9.83733 11.2747 9.492 11.312 9.1 11.312C8.26 11.312 7.62533 11.116 7.196 10.724C6.71067 10.2947 6.468 9.632 6.468 8.736C6.468 8.25067 6.53333 7.756 6.664 7.252C6.81333 6.72933 7 6.272 7.224 5.88C7.54133 5.32 7.87733 4.93733 8.232 4.732C8.58667 4.508 8.91333 4.396 9.212 4.396ZM8.904 6.272C8.47467 6.272 8.11067 6.42133 7.812 6.72C7.51333 7.01867 7.364 7.392 7.364 7.84C7.364 8.344 7.54133 8.708 7.896 8.932C8.25067 9.13733 8.66133 9.24 9.128 9.24C9.48267 9.24 9.78133 9.184 10.024 9.072C10.2853 8.96 10.472 8.848 10.584 8.736C10.7147 8.624 10.7893 8.54933 10.808 8.512C10.808 8.41867 10.7427 8.19467 10.612 7.84C10.5 7.46667 10.304 7.112 10.024 6.776C9.744 6.44 9.37067 6.272 8.904 6.272ZM10.388 0C10.6867 0.186666 10.976 0.429333 11.256 0.728C11.5547 1.008 11.788 1.27867 11.956 1.54C11.6013 1.95067 11.116 2.436 10.5 2.996C10.1453 2.548 9.744 2.13733 9.296 1.764C8.99733 2.11867 8.58667 2.52933 8.064 2.996C7.57867 2.436 7.056 1.932 6.496 1.484C7.20533 0.774666 7.69067 0.28 7.952 0C8.30667 0.224 8.736 0.625333 9.24 1.204C9.8 0.644 10.1827 0.242666 10.388 0Z" fill="#1A1A1A"/>
</svg>
