<svg width="9" height="13" viewBox="0 0 9 13" fill="none" xmlns="http://www.w3.org/2000/svg">
<path d="M6.804 0C7.06533 0.261333 7.336 0.644 7.616 1.148C7.896 1.652 8.12 2.20267 8.288 2.8C8.456 3.37867 8.54 4.07867 8.54 4.9C8.54 5.684 8.44667 6.53333 8.26 7.448C8.092 8.38133 7.79333 9.23067 7.364 9.996C6.972 10.6867 6.47733 11.2373 5.88 11.648C5.544 11.8907 5.21733 12.0587 4.9 12.152C4.60133 12.2453 4.256 12.292 3.864 12.292L2.968 12.264C2.48267 12.2267 2.11867 12.208 1.876 12.208C1.372 12.208 0.830667 12.2733 0.252 12.404L0 12.04L3.64 10.052C4.816 9.38 5.67467 8.77333 6.216 8.232C6.96267 7.48533 7.336 6.61733 7.336 5.628C7.336 5.236 7.28 4.88133 7.168 4.564C7.056 4.24667 6.89733 3.92 6.692 3.584C6.3 2.94933 5.88 2.42667 5.432 2.016C5.88 1.21333 6.33733 0.541333 6.804 0Z" fill="#1A1A1A"/>
</svg>
