<svg width="25" height="17" viewBox="0 0 25 17" fill="none" xmlns="http://www.w3.org/2000/svg">
<path d="M24.276 2.52C24.276 3.36 24.0427 4.16267 23.576 4.928C23.128 5.656 22.5027 6.33733 21.7 6.972C20.916 7.56933 20.0573 8.036 19.124 8.372C18.1907 8.708 17.2947 8.876 16.436 8.876C15.708 8.876 15.148 8.86667 14.756 8.848C14.364 8.82933 14.0187 8.77333 13.72 8.68C13.5707 8.64267 13.384 8.57733 13.16 8.484C12.9547 8.39067 12.7773 8.27867 12.628 8.148C12.8147 9.17467 12.908 9.98667 12.908 10.584C12.908 11.368 12.7587 12.1707 12.46 12.992C12.18 13.832 11.7133 14.5693 11.06 15.204C9.84667 16.3613 8.15733 16.94 5.992 16.94C4.57333 16.94 3.37867 16.6787 2.408 16.156C1.456 15.6333 0.784 14.9053 0.392 13.972C0.130667 13.3373 0 12.6653 0 11.956C0 11.5267 0.0653334 10.9853 0.196 10.332C0.345333 9.67867 0.56 9.016 0.84 8.344L1.372 8.54C1.24133 9.324 1.176 9.93067 1.176 10.36C1.176 11.1253 1.36267 11.7413 1.736 12.208C2.128 12.6933 2.70667 13.076 3.472 13.356C4.23733 13.636 5.152 13.776 6.216 13.776C7.76533 13.776 9.06267 13.4773 10.108 12.88C10.612 12.6 11.004 12.2733 11.284 11.9C11.564 11.5453 11.704 11.172 11.704 10.78C11.704 9.84667 10.9947 8.40933 9.576 6.468C9.98667 5.74 10.4347 5.096 10.92 4.536C11.424 5.152 11.8813 5.572 12.292 5.796C12.7027 6.00133 13.2813 6.15067 14.028 6.244C14.5507 5.42267 14.9707 4.79733 15.288 4.368C15.624 3.93867 16.0533 3.444 16.576 2.884C18.4053 0.961333 20.0107 0 21.392 0C21.6533 0 21.952 0.0746665 22.288 0.224C22.624 0.354666 22.9413 0.532 23.24 0.756C23.632 1.07333 23.9027 1.39067 24.052 1.708C24.2013 2.00667 24.276 2.27733 24.276 2.52ZM22.848 4.368C22.8107 4.256 22.7547 4.10667 22.68 3.92C22.624 3.73333 22.568 3.59333 22.512 3.5C22.456 3.388 22.3813 3.276 22.288 3.164C22.0827 2.90267 21.784 2.66 21.392 2.436C21.0187 2.212 20.636 2.1 20.244 2.1C19.74 2.1 19.292 2.184 18.9 2.352C18.5267 2.52 18.2187 2.70667 17.976 2.912C17.752 3.11733 17.4253 3.43467 16.996 3.864C16.4547 4.368 15.792 5.16133 15.008 6.244H18.256C19.32 6.244 20.3 6.03867 21.196 5.628C21.588 5.44133 21.8773 5.27333 22.064 5.124C22.2693 4.956 22.5307 4.704 22.848 4.368Z" fill="#1A1A1A"/>
</svg>
