<svg width="22" height="21" viewBox="0 0 22 21" fill="none" xmlns="http://www.w3.org/2000/svg">
<path d="M20.3 5.656C20.5613 5.95467 20.804 6.39333 21.028 6.972C21.252 7.55067 21.364 8.26 21.364 9.1C21.364 9.324 21.2987 9.70667 21.168 10.248C21.0373 10.7707 20.8227 11.2467 20.524 11.676C20.0013 12.404 19.3013 12.768 18.424 12.768C17.752 12.768 17.192 12.5627 16.744 12.152C16.5013 11.928 16.3147 11.676 16.184 11.396C16.072 11.116 16.016 10.948 16.016 10.892C15.904 11.6947 15.568 12.2733 15.008 12.628C14.672 12.852 14.2707 12.964 13.804 12.964C13.468 12.964 13.104 12.908 12.712 12.796C12.7867 13.4307 12.824 13.916 12.824 14.252C12.824 15.3347 12.6653 16.3053 12.348 17.164C12.0307 18.0227 11.5547 18.7413 10.92 19.32C10.36 19.8427 9.65067 20.244 8.792 20.524C7.952 20.804 7.01867 20.944 5.992 20.944C4.57333 20.944 3.37867 20.6827 2.408 20.16C1.456 19.6373 0.784 18.9093 0.392 17.976C0.130667 17.3413 0 16.6693 0 15.96C0 15.5307 0.0653334 14.9893 0.196 14.336C0.345333 13.6827 0.56 13.02 0.84 12.348L1.372 12.544C1.24133 13.328 1.176 13.9347 1.176 14.364C1.176 15.1293 1.36267 15.7453 1.736 16.212C2.128 16.6973 2.70667 17.08 3.472 17.36C4.23733 17.64 5.152 17.78 6.216 17.78C7.76533 17.78 9.06267 17.4813 10.108 16.884C10.612 16.604 11.004 16.2773 11.284 15.904C11.564 15.5493 11.704 15.176 11.704 14.784C11.704 13.8507 10.9947 12.4133 9.576 10.472C9.856 9.912 10.2947 9.27733 10.892 8.568C11.06 8.94133 11.396 9.33333 11.9 9.744C12.404 10.136 13.0013 10.332 13.692 10.332C14.476 10.332 15.0173 10.0987 15.316 9.632C15.6333 9.16533 15.8107 8.624 15.848 8.008L16.464 7.672C16.4453 7.82133 16.436 8.02667 16.436 8.288C16.436 9.66933 17.1173 10.36 18.48 10.36C18.9653 10.36 19.3853 10.2013 19.74 9.884C20.1133 9.56667 20.328 9.23067 20.384 8.876L19.18 7.168C19.4973 6.62667 19.8707 6.12267 20.3 5.656ZM16.072 2.996C15.568 2.39867 15.0547 1.89467 14.532 1.484C15.1107 0.942667 15.596 0.448 15.988 0C16.268 0.186667 16.548 0.429334 16.828 0.728001C17.1267 1.008 17.36 1.27867 17.528 1.54C17.08 2.06267 16.5947 2.548 16.072 2.996ZM17.192 2.996C17.4907 3.18267 17.78 3.42533 18.06 3.724C18.3587 4.004 18.592 4.27467 18.76 4.536C18.4053 4.94667 17.92 5.432 17.304 5.992C16.9493 5.544 16.548 5.13333 16.1 4.76C15.8013 5.11467 15.3907 5.52533 14.868 5.992C14.3827 5.432 13.86 4.928 13.3 4.48C14.0093 3.77067 14.4947 3.276 14.756 2.996C15.1667 3.276 15.596 3.67733 16.044 4.2C16.604 3.64 16.9867 3.23867 17.192 2.996Z" fill="#1A1A1A"/>
</svg>
