<svg width="22" height="16" viewBox="0 0 22 16" fill="none" xmlns="http://www.w3.org/2000/svg">
<path d="M20.3 0C20.5613 0.298667 20.804 0.737333 21.028 1.316C21.252 1.89467 21.364 2.604 21.364 3.444C21.364 3.668 21.2987 4.05067 21.168 4.592C21.0373 5.11467 20.8227 5.59067 20.524 6.02C20.0013 6.748 19.3013 7.112 18.424 7.112C17.752 7.112 17.192 6.90667 16.744 6.496C16.5013 6.272 16.3147 6.02 16.184 5.74C16.072 5.46 16.016 5.292 16.016 5.236C15.904 6.03867 15.568 6.61733 15.008 6.972C14.672 7.196 14.2707 7.308 13.804 7.308C13.468 7.308 13.104 7.252 12.712 7.14C12.7867 7.77467 12.824 8.26 12.824 8.596C12.824 9.67867 12.6653 10.6493 12.348 11.508C12.0307 12.3667 11.5547 13.0853 10.92 13.664C10.36 14.1867 9.65067 14.588 8.792 14.868C7.952 15.148 7.01867 15.288 5.992 15.288C4.57333 15.288 3.37867 15.0267 2.408 14.504C1.456 13.9813 0.784 13.2533 0.392 12.32C0.130667 11.6853 0 11.0133 0 10.304C0 9.87467 0.0653334 9.33333 0.196 8.68C0.345333 8.02667 0.56 7.364 0.84 6.692L1.372 6.888C1.24133 7.672 1.176 8.27867 1.176 8.708C1.176 9.47333 1.36267 10.0893 1.736 10.556C2.128 11.0413 2.70667 11.424 3.472 11.704C4.23733 11.984 5.152 12.124 6.216 12.124C7.76533 12.124 9.06267 11.8253 10.108 11.228C10.612 10.948 11.004 10.6213 11.284 10.248C11.564 9.89333 11.704 9.52 11.704 9.128C11.704 8.19467 10.9947 6.75733 9.576 4.816C9.856 4.256 10.2947 3.62133 10.892 2.912C11.06 3.28533 11.396 3.67733 11.9 4.088C12.404 4.48 13.0013 4.676 13.692 4.676C14.476 4.676 15.0173 4.44267 15.316 3.976C15.6333 3.50933 15.8107 2.968 15.848 2.352L16.464 2.016C16.4453 2.16533 16.436 2.37067 16.436 2.632C16.436 4.01333 17.1173 4.704 18.48 4.704C18.9653 4.704 19.3853 4.54533 19.74 4.228C20.1133 3.91067 20.328 3.57467 20.384 3.22L19.18 1.512C19.4973 0.970667 19.8707 0.466667 20.3 0Z" fill="#1A1A1A"/>
</svg>
