<svg width="20" height="10" viewBox="0 0 20 10" fill="none" xmlns="http://www.w3.org/2000/svg">
<path d="M18.2 0.7C18.648 1.204 19.0027 1.77333 19.264 2.408C19.5253 3.024 19.656 3.64 19.656 4.256C19.656 6.01067 18.5267 7.364 16.268 8.316C14.2333 9.156 11.6667 9.576 8.568 9.576C7.14933 9.576 5.81467 9.464 4.564 9.24C3.668 9.072 2.95867 8.88533 2.436 8.68C1.91333 8.456 1.46533 8.148 1.092 7.756C0.364 6.99067 0 5.83333 0 4.284C0 3.87333 0.0280001 3.43467 0.0840002 2.968L0.616 3.164C0.784 4.15333 1.176 4.89067 1.792 5.376C2.42667 5.86133 3.35067 6.20667 4.564 6.412C5.72133 6.61733 7.24267 6.72 9.128 6.72C11.1067 6.72 12.8613 6.58933 14.392 6.328C15.288 6.17867 16.044 5.992 16.66 5.768C17.276 5.544 17.7427 5.33867 18.06 5.152C18.396 4.96533 18.564 4.86267 18.564 4.844C18.1533 4.04133 17.6307 3.304 16.996 2.632C17.3507 1.848 17.752 1.204 18.2 0.7ZM10.724 0C11.0227 0.186666 11.312 0.429333 11.592 0.728C11.8907 1.008 12.124 1.27867 12.292 1.54C11.9373 1.95067 11.452 2.436 10.836 2.996C10.4813 2.548 10.08 2.13733 9.632 1.764C9.33333 2.11867 8.92267 2.52933 8.4 2.996C7.91467 2.436 7.392 1.932 6.832 1.484C7.54133 0.774666 8.02667 0.28 8.288 0C8.64267 0.224 9.072 0.625333 9.576 1.204C10.136 0.644 10.5187 0.242666 10.724 0Z" fill="#1A1A1A"/>
</svg>
