<svg width="20" height="13" viewBox="0 0 20 13" fill="none" xmlns="http://www.w3.org/2000/svg">
<path d="M18.2 3.696C18.648 4.2 19.0027 4.76933 19.264 5.404C19.5253 6.02 19.656 6.636 19.656 7.252C19.656 9.00667 18.5267 10.36 16.268 11.312C14.2333 12.152 11.6667 12.572 8.568 12.572C7.14933 12.572 5.81467 12.46 4.564 12.236C3.668 12.068 2.95867 11.8813 2.436 11.676C1.91333 11.452 1.46533 11.144 1.092 10.752C0.364 9.98667 0 8.82933 0 7.28C0 6.86933 0.0280001 6.43067 0.0840002 5.964L0.616 6.16C0.784 7.14933 1.176 7.88667 1.792 8.372C2.42667 8.85733 3.35067 9.20267 4.564 9.408C5.72133 9.61333 7.24267 9.716 9.128 9.716C11.1067 9.716 12.8613 9.58533 14.392 9.324C15.288 9.17467 16.044 8.988 16.66 8.764C17.276 8.54 17.7427 8.33467 18.06 8.148C18.396 7.96133 18.564 7.85867 18.564 7.84C18.1533 7.03733 17.6307 6.3 16.996 5.628C17.3507 4.844 17.752 4.2 18.2 3.696ZM9.604 2.996C9.1 2.39867 8.58667 1.89467 8.064 1.484C8.64267 0.942667 9.128 0.448 9.52 0C9.8 0.186667 10.08 0.429334 10.36 0.728001C10.6587 1.008 10.892 1.27867 11.06 1.54C10.612 2.06267 10.1267 2.548 9.604 2.996ZM10.724 2.996C11.0227 3.18267 11.312 3.42533 11.592 3.724C11.8907 4.004 12.124 4.27467 12.292 4.536C11.9373 4.94667 11.452 5.432 10.836 5.992C10.4813 5.544 10.08 5.13333 9.632 4.76C9.33333 5.11467 8.92267 5.52533 8.4 5.992C7.91467 5.432 7.392 4.928 6.832 4.48C7.54133 3.77067 8.02667 3.276 8.288 2.996C8.69867 3.276 9.128 3.67733 9.576 4.2C10.136 3.64 10.5187 3.23867 10.724 2.996Z" fill="#1A1A1A"/>
</svg>
