<svg width="9" height="16" viewBox="0 0 9 16" fill="none" xmlns="http://www.w3.org/2000/svg">
<path d="M7.98 2.324C8.33467 3.22 8.54 4.34933 8.596 5.712C8.61467 5.936 8.624 6.328 8.624 6.888C8.624 7.84 8.54 8.764 8.372 9.66C8.148 10.724 7.812 11.7227 7.364 12.656C7.196 12.9733 6.98133 13.2813 6.72 13.58C6.45867 13.8787 6.17867 14.1213 5.88 14.308C5.28267 14.7187 4.61067 14.924 3.864 14.924C3.54667 14.924 3.164 14.9053 2.716 14.868C2.30533 14.8307 2.02533 14.812 1.876 14.812C1.44667 14.812 0.905333 14.8867 0.252 15.036L0 14.672C0.298667 14.5227 0.56 14.3827 0.784 14.252C2.27733 13.4493 3.22 12.936 3.612 12.712C4.58267 12.1707 5.41333 11.5173 6.104 10.752C6.81333 10.0053 7.28933 9.14667 7.532 8.176C7.66267 7.59733 7.70933 6.84133 7.672 5.908C7.56 6.22533 7.34533 6.51467 7.028 6.776C6.71067 7.03733 6.22533 7.168 5.572 7.168C4.71333 7.168 4.088 6.95333 3.696 6.524C3.21067 6.02 2.996 5.18 3.052 4.004C3.07067 3.612 3.14533 3.17333 3.276 2.688C3.42533 2.20267 3.62133 1.75467 3.864 1.344C4.38667 0.448 5.012 0 5.74 0C6.356 0 6.832 0.242667 7.168 0.728C7.504 1.19467 7.77467 1.72667 7.98 2.324ZM6.972 3.192C6.61733 2.50133 6.132 2.156 5.516 2.156C5.08667 2.156 4.71333 2.30533 4.396 2.604C4.09733 2.90267 3.948 3.304 3.948 3.808C3.948 4.256 4.12533 4.592 4.48 4.816C4.83467 5.02133 5.264 5.124 5.768 5.124C6.08533 5.124 6.36533 5.07733 6.608 4.984C6.85067 4.872 7.028 4.76 7.14 4.648C7.27067 4.536 7.35467 4.46133 7.392 4.424C7.392 4.34933 7.35467 4.19067 7.28 3.948C7.224 3.68667 7.12133 3.43467 6.972 3.192Z" fill="#1A1A1A"/>
</svg>
