<svg width="15" height="21" viewBox="0 0 15 21" fill="none" xmlns="http://www.w3.org/2000/svg">
<path d="M11.592 6.86C12.8987 7.028 13.7573 7.27067 14.168 7.588C14.5973 7.90533 14.812 8.26933 14.812 8.68C14.812 9.184 14.7187 9.76267 14.532 10.416C14.3453 11.088 14.028 11.732 13.58 12.348C12.908 13.3 12.012 14.0467 10.892 14.588C9.24933 15.4093 7.62533 15.82 6.02 15.82C5.14267 15.82 4.32133 15.6987 3.556 15.456C2.79067 15.2133 2.128 14.868 1.568 14.42C0.522667 13.5613 0 12.3013 0 10.64C0 9.42667 0.289333 8.19467 0.868 6.944L1.4 7.14C1.25067 7.88667 1.176 8.53067 1.176 9.072C1.176 9.94933 1.372 10.64 1.764 11.144C2.58533 12.152 4.10667 12.656 6.328 12.656C8.008 12.656 9.47333 12.3853 10.724 11.844C11.3213 11.5827 11.8347 11.2933 12.264 10.976C12.6933 10.6587 13.0107 10.388 13.216 10.164C13.44 9.94 13.5707 9.79067 13.608 9.716L10.332 9.156C9.62267 9.044 9.016 8.85733 8.512 8.596C7.84 8.26 7.504 7.812 7.504 7.252C7.504 6.89733 7.616 6.31867 7.84 5.516C8.064 4.69467 8.372 3.892 8.764 3.108C9.36133 1.95067 9.97733 1.148 10.612 0.7C11.2653 0.233333 11.8907 0 12.488 0C13.0853 0 13.552 0.196 13.888 0.588C14.2427 0.961333 14.476 1.456 14.588 2.072C14.7187 2.66933 14.7747 3.17333 14.756 3.584L14.252 3.808C14.0653 3.43467 13.888 3.15467 13.72 2.968C13.5707 2.76267 13.4493 2.62267 13.356 2.548C13.2627 2.47333 13.2067 2.436 13.188 2.436C11.9 2.436 10.7987 2.93067 9.884 3.92C9.58533 4.23733 9.36133 4.57333 9.212 4.928C9.06267 5.264 8.988 5.49733 8.988 5.628C8.988 5.94533 9.17467 6.20667 9.548 6.412C9.92133 6.59867 10.6027 6.748 11.592 6.86ZM7.196 17.22C7.49467 17.4067 7.784 17.64 8.064 17.92C8.36267 18.2187 8.596 18.4987 8.764 18.76C8.40933 19.1707 7.924 19.656 7.308 20.216C6.95333 19.768 6.552 19.3573 6.104 18.984C5.80533 19.3387 5.39467 19.7493 4.872 20.216C4.38667 19.656 3.864 19.152 3.304 18.704C4.01333 17.9947 4.49867 17.5 4.76 17.22C5.11467 17.444 5.544 17.8453 6.048 18.424C6.608 17.864 6.99067 17.4627 7.196 17.22Z" fill="#1A1A1A"/>
</svg>
