<svg width="9" height="17" viewBox="0 0 9 17" fill="none" xmlns="http://www.w3.org/2000/svg">
<path d="M6.804 4.228C7.06533 4.48933 7.336 4.872 7.616 5.376C7.896 5.88 8.12 6.43067 8.288 7.028C8.456 7.60667 8.54 8.30667 8.54 9.128C8.54 9.912 8.44667 10.7613 8.26 11.676C8.092 12.6093 7.79333 13.4587 7.364 14.224C6.972 14.9147 6.47733 15.4653 5.88 15.876C5.544 16.1187 5.21733 16.2867 4.9 16.38C4.60133 16.4733 4.256 16.52 3.864 16.52L2.968 16.492C2.48267 16.4547 2.11867 16.436 1.876 16.436C1.372 16.436 0.830667 16.5013 0.252 16.632L0 16.268L3.64 14.28C4.816 13.608 5.67467 13.0013 6.216 12.46C6.96267 11.7133 7.336 10.8453 7.336 9.856C7.336 9.464 7.28 9.10933 7.168 8.792C7.056 8.47467 6.89733 8.148 6.692 7.812C6.3 7.17733 5.88 6.65467 5.432 6.244C5.88 5.44133 6.33733 4.76933 6.804 4.228ZM5.32 0C5.61867 0.224 5.908 0.476 6.188 0.756C6.48667 1.036 6.72 1.29733 6.888 1.54C6.51467 1.95067 6.02933 2.436 5.432 2.996C4.928 2.39867 4.41467 1.89467 3.892 1.484C4.37733 1.036 4.85333 0.541333 5.32 0Z" fill="#1A1A1A"/>
</svg>
