<svg width="13" height="16" viewBox="0 0 13 16" fill="none" xmlns="http://www.w3.org/2000/svg">
<path d="M4.096 15.136C2.88 15.136 1.888 14.656 1.12 13.696C0.373333 12.736 0 11.4773 0 9.92C0 8.21333 0.394667 6.60267 1.184 5.088C1.97333 3.552 3.01867 2.32533 4.32 1.408C5.64267 0.469333 7.04 0 8.512 0C8.98133 0 9.29067 0.096 9.44 0.288C9.61067 0.458666 9.74933 0.778666 9.856 1.248C10.2613 1.16267 10.7093 1.12 11.2 1.12C11.712 1.12 12.1067 1.248 12.384 1.504C12.6613 1.76 12.8 2.12267 12.8 2.592C12.8 3.08267 12.6933 3.936 12.48 5.152C12.2453 6.45333 12.064 7.70133 11.936 8.896C11.808 10.0693 11.744 11.392 11.744 12.864C11.744 13.6747 11.5733 14.2613 11.232 14.624C10.912 14.9653 10.3787 15.136 9.632 15.136C8.90667 15.136 8.36267 14.9653 8 14.624C7.65867 14.2613 7.488 13.6853 7.488 12.896L7.52 12.384C6.85867 14.2187 5.71733 15.136 4.096 15.136ZM5.344 11.904C5.94133 11.904 6.48533 11.488 6.976 10.656C7.46667 9.824 7.904 8.34133 8.288 6.208L8.896 2.976C8.02133 2.99733 7.21067 3.33867 6.464 4C5.71733 4.64 5.12 5.49333 4.672 6.56C4.224 7.62667 4 8.75733 4 9.952C4 10.592 4.11733 11.0827 4.352 11.424C4.608 11.744 4.93867 11.904 5.344 11.904Z" fill="#1A1A1A"/>
</svg>
