<svg width="13" height="31" viewBox="0 0 13 31" fill="none" xmlns="http://www.w3.org/2000/svg">
<path d="M6.112 30.24C3.97867 30.24 2.42133 29.4187 1.44 27.776C0.48 26.1333 0 23.7547 0 20.64C0 17.888 0.341333 14.9013 1.024 11.68C1.70667 8.43733 2.69867 5.68533 4 3.424C5.32267 1.14133 6.89067 0 8.704 0C9.68533 0 10.4747 0.426667 11.072 1.28C11.6693 2.112 11.968 3.2 11.968 4.544C11.968 6.29333 11.6373 8.032 10.976 9.76C10.3147 11.488 9.216 13.3013 7.68 15.2C8.72533 15.2853 9.632 15.6373 10.4 16.256C11.1893 16.8747 11.7867 17.6747 12.192 18.656C12.6187 19.6373 12.832 20.704 12.832 21.856C12.832 23.456 12.512 24.896 11.872 26.176C11.2533 27.456 10.432 28.4587 9.408 29.184C8.384 29.888 7.28533 30.24 6.112 30.24ZM4.224 17.376C5.632 14.7947 6.752 12.5227 7.584 10.56C8.43733 8.576 8.864 6.816 8.864 5.28C8.864 4.59733 8.77867 4.07467 8.608 3.712C8.45867 3.34933 8.24533 3.168 7.968 3.168C7.54133 3.168 7.072 3.808 6.56 5.088C6.06933 6.34667 5.61067 8.064 5.184 10.24C4.75733 12.416 4.43733 14.7947 4.224 17.376ZM6.24 26.784C6.96533 26.784 7.57333 26.3893 8.064 25.6C8.576 24.8107 8.832 23.6587 8.832 22.144C8.832 20.9707 8.61867 20.0853 8.192 19.488C7.76533 18.8907 7.25333 18.592 6.656 18.592C5.90933 18.592 5.28 18.976 4.768 19.744C4.256 20.512 4 21.632 4 23.104C4 24.384 4.21333 25.3227 4.64 25.92C5.06667 26.496 5.6 26.784 6.24 26.784Z" fill="#1A1A1A"/>
</svg>
