<svg width="13" height="16" viewBox="0 0 13 16" fill="none" xmlns="http://www.w3.org/2000/svg">
<path d="M6.464 15.072C4.43733 15.072 2.848 14.4853 1.696 13.312C0.565333 12.1173 0 10.5493 0 8.608C0 6.88 0.341333 5.36533 1.024 4.064C1.70667 2.76267 2.592 1.76 3.68 1.056C4.768 0.352 5.90933 0 7.104 0C8.27733 0 9.184 0.352 9.824 1.056C10.4853 1.73867 10.816 2.624 10.816 3.712C10.816 4.608 10.6133 5.36533 10.208 5.984C9.824 6.60267 9.312 6.912 8.672 6.912C8.26667 6.912 7.936 6.816 7.68 6.624C7.44533 6.432 7.328 6.16533 7.328 5.824C7.328 5.67467 7.34933 5.504 7.392 5.312C7.43467 5.12 7.46667 4.98133 7.488 4.896C7.59467 4.576 7.648 4.27733 7.648 4C7.648 3.72267 7.57333 3.50933 7.424 3.36C7.296 3.21067 7.104 3.136 6.848 3.136C6.35733 3.136 5.89867 3.36 5.472 3.808C5.04533 4.23467 4.704 4.82133 4.448 5.568C4.192 6.31467 4.064 7.136 4.064 8.032C4.064 9.248 4.30933 10.176 4.8 10.816C5.312 11.4347 6.02667 11.744 6.944 11.744C7.66933 11.744 8.33067 11.5307 8.928 11.104C9.54667 10.6773 10.1547 10.048 10.752 9.216C11.008 8.896 11.296 8.736 11.616 8.736C11.8933 8.736 12.1067 8.864 12.256 9.12C12.4267 9.376 12.512 9.728 12.512 10.176C12.512 10.944 12.3307 11.6053 11.968 12.16C11.392 13.056 10.6347 13.7707 9.696 14.304C8.75733 14.816 7.68 15.072 6.464 15.072Z" fill="#1A1A1A"/>
</svg>
