<svg width="19" height="31" viewBox="0 0 19 31" fill="none" xmlns="http://www.w3.org/2000/svg">
<path d="M12.064 22.944C12.2987 24.6933 12.64 26.4213 13.088 28.128C13.1733 28.4053 13.216 28.6933 13.216 28.992C13.216 29.952 12.6293 30.432 11.456 30.432C10.7947 30.432 10.2827 30.2507 9.92 29.888C9.57867 29.5253 9.25867 28.8427 8.96 27.84L8.928 27.712C8.11733 28.7147 7.38133 29.3867 6.72 29.728C6.08 30.0693 5.33333 30.24 4.48 30.24C3.17867 30.24 2.10133 29.76 1.248 28.8C0.416 27.8187 0 26.5493 0 24.992C0 23.2853 0.362667 21.7067 1.088 20.256C1.81333 18.8053 2.80533 17.6213 4.064 16.704C5.32267 15.7653 6.73067 15.2 8.288 15.008C8.69333 10.976 9.46133 7.46667 10.592 4.48C11.744 1.49333 13.2693 0 15.168 0C16.0853 0 16.8427 0.416 17.44 1.248C18.0587 2.08 18.368 3.33867 18.368 5.024C18.368 7.37067 17.792 10.112 16.64 13.248C15.488 16.384 13.9627 19.616 12.064 22.944ZM14.816 3.136C14.1973 3.136 13.6107 4.71467 13.056 7.872C12.5227 11.0293 12.16 14.464 11.968 18.176C14.336 13.056 15.52 8.896 15.52 5.696C15.52 4.88533 15.4453 4.256 15.296 3.808C15.168 3.36 15.008 3.136 14.816 3.136ZM5.6 27.008C6.02667 27.008 6.432 26.848 6.816 26.528C7.22133 26.208 7.73333 25.5893 8.352 24.672C8.13867 23.1147 8.032 21.504 8.032 19.84C8.032 19.1787 8.04267 18.6667 8.064 18.304C6.89067 18.6453 5.92 19.424 5.152 20.64C4.384 21.856 4 23.2 4 24.672C4 26.2293 4.53333 27.008 5.6 27.008Z" fill="#1A1A1A"/>
</svg>
