<svg width="13" height="16" viewBox="0 0 13 16" fill="none" xmlns="http://www.w3.org/2000/svg">
<path d="M11.936 8.736C12.2133 8.736 12.4267 8.864 12.576 9.12C12.7467 9.376 12.832 9.728 12.832 10.176C12.832 10.944 12.6507 11.6053 12.288 12.16C11.6907 13.0773 10.9013 13.792 9.92 14.304C8.96 14.816 7.808 15.072 6.464 15.072C4.416 15.072 2.82667 14.464 1.696 13.248C0.565333 12.0107 0 10.3467 0 8.256C0 6.784 0.309333 5.41867 0.928 4.16C1.54667 2.88 2.4 1.86667 3.488 1.12C4.59733 0.373333 5.84533 0 7.232 0C8.46933 0 9.46133 0.373333 10.208 1.12C10.9547 1.84533 11.328 2.83733 11.328 4.096C11.328 5.568 10.7947 6.83733 9.728 7.904C8.68267 8.94933 6.89067 9.78133 4.352 10.4C4.864 11.3813 5.728 11.872 6.944 11.872C7.81867 11.872 8.53333 11.6693 9.088 11.264C9.664 10.8587 10.3253 10.176 11.072 9.216C11.328 8.896 11.616 8.736 11.936 8.736ZM6.688 3.136C5.89867 3.136 5.22667 3.59467 4.672 4.512C4.13867 5.42933 3.872 6.53867 3.872 7.84V7.904C5.13067 7.60533 6.12267 7.15733 6.848 6.56C7.57333 5.96267 7.936 5.26933 7.936 4.48C7.936 4.07467 7.81867 3.75467 7.584 3.52C7.37067 3.264 7.072 3.136 6.688 3.136Z" fill="#1A1A1A"/>
</svg>
