<svg width="16" height="24" viewBox="0 0 16 24" fill="none" xmlns="http://www.w3.org/2000/svg">
<path d="M2.208 23.424C1.39733 23.424 0.821333 22.9973 0.48 22.144C0.16 21.2907 0 19.9253 0 18.048C0 15.2747 0.394667 12.64 1.184 10.144C1.376 9.52533 1.68533 9.07733 2.112 8.8C2.56 8.50133 3.17867 8.352 3.968 8.352C4.39467 8.352 4.69333 8.40533 4.864 8.512C5.03467 8.61867 5.12 8.82133 5.12 9.12C5.12 9.46133 4.96 10.2293 4.64 11.424C4.42667 12.2773 4.256 13.024 4.128 13.664C4 14.304 3.89333 15.0933 3.808 16.032C4.512 14.1973 5.30133 12.704 6.176 11.552C7.05067 10.4 7.904 9.57867 8.736 9.088C9.58933 8.59733 10.368 8.352 11.072 8.352C11.7547 8.352 12.2667 8.53333 12.608 8.896C12.9707 9.23733 13.152 9.74933 13.152 10.432C13.152 10.9867 13.0347 12.032 12.8 13.568C12.5867 14.8693 12.416 16.1067 12.288 17.28C12.16 18.432 12.096 19.7227 12.096 21.152C12.096 21.9627 11.9253 22.5493 11.584 22.912C11.264 23.2533 10.7307 23.424 9.984 23.424C9.28 23.424 8.768 23.2427 8.448 22.88C8.128 22.5173 7.968 21.9733 7.968 21.248C7.968 20.3947 8.11733 18.9867 8.416 17.024C8.672 15.3173 8.8 14.2293 8.8 13.76C8.8 13.4187 8.68267 13.248 8.448 13.248C8.17067 13.248 7.776 13.6107 7.264 14.336C6.77333 15.04 6.26133 15.9787 5.728 17.152C5.216 18.3253 4.8 19.5627 4.48 20.864C4.24533 21.8667 3.968 22.5493 3.648 22.912C3.34933 23.2533 2.86933 23.424 2.208 23.424ZM11.712 6.24C11.3707 6.24 11.0507 6.18667 10.752 6.08C10.4533 5.952 10.0693 5.728 9.6 5.408L6.176 3.04L4.768 5.056C4.42667 5.52533 3.94667 5.76 3.328 5.76C2.944 5.76 2.61333 5.65333 2.336 5.44C2.08 5.20533 1.952 4.896 1.952 4.512C1.952 4.02133 2.34667 3.2 3.136 2.048C3.62667 1.344 4.10667 0.832001 4.576 0.512001C5.04533 0.170667 5.55733 0 6.112 0C6.47467 0 6.79467 0.0533333 7.072 0.16C7.37067 0.266668 7.75467 0.490668 8.224 0.832001L11.648 3.2L13.056 1.184C13.3973 0.714668 13.8773 0.480001 14.496 0.480001C14.88 0.480001 15.2 0.597335 15.456 0.832001C15.7333 1.04533 15.872 1.344 15.872 1.728C15.872 2.02667 15.7653 2.368 15.552 2.752C15.36 3.11467 15.072 3.59467 14.688 4.192C14.1973 4.896 13.7173 5.41867 13.248 5.76C12.7787 6.08 12.2667 6.24 11.712 6.24Z" fill="#1A1A1A"/>
</svg>
