<svg width="14" height="41" viewBox="0 0 14 41" fill="none" xmlns="http://www.w3.org/2000/svg">
<path d="M12.64 21.12C13.2373 21.12 13.536 21.568 13.536 22.464C13.536 24.1493 12.2133 24.992 9.568 24.992C9.056 24.992 8.32 24.896 7.36 24.704C7.63733 26.0267 7.86133 27.4987 8.032 29.12C8.224 30.72 8.32 32.0427 8.32 33.088C8.32 35.392 7.94667 37.152 7.2 38.368C6.45333 39.584 5.472 40.192 4.256 40.192C2.72 40.192 1.62133 39.104 0.96 36.928C0.32 34.752 0 31.4667 0 27.072C0 22.976 0.437333 18.8267 1.312 14.624C2.208 10.4 3.424 6.912 4.96 4.16C6.51733 1.38667 8.224 0 10.08 0C11.0827 0 11.8613 0.448 12.416 1.344C12.992 2.24 13.28 3.44533 13.28 4.96C13.28 9.97333 10.2827 15.4347 4.288 21.344C4.07467 23.4347 3.968 25.2693 3.968 26.848C3.968 29.0453 4.04267 31.296 4.192 33.6C4.34133 35.9253 4.58667 37.088 4.928 37.088C5.568 37.088 5.888 35.9787 5.888 33.76C5.888 32.096 5.77067 30.4853 5.536 28.928C5.32267 27.3707 5.024 25.728 4.64 24C4.61867 23.7227 4.704 23.3707 4.896 22.944C5.10933 22.5173 5.36533 22.144 5.664 21.824C5.96267 21.504 6.22933 21.344 6.464 21.344C6.89067 21.344 7.40267 21.3653 8 21.408C8.192 21.4293 8.416 21.44 8.672 21.44C9.52533 21.44 10.4747 21.3653 11.52 21.216C11.6907 21.1947 11.872 21.1733 12.064 21.152C12.256 21.1307 12.448 21.12 12.64 21.12ZM9.408 3.168C9.024 3.168 8.544 3.81867 7.968 5.12C7.41333 6.42133 6.85867 8.14933 6.304 10.304C5.74933 12.4373 5.26933 14.6987 4.864 17.088C6.57067 15.1467 7.88267 13.1307 8.8 11.04C9.71733 8.928 10.1867 6.95467 10.208 5.12C10.208 3.81867 9.94133 3.168 9.408 3.168Z" fill="#1A1A1A"/>
</svg>
