<svg width="14" height="30" viewBox="0 0 14 30" fill="none" xmlns="http://www.w3.org/2000/svg">
<path d="M12.448 1.12C12.9813 1.12 13.3547 1.20533 13.568 1.376C13.8027 1.52533 13.92 1.83467 13.92 2.304C13.92 2.56 13.9093 2.76267 13.888 2.912C13.8027 3.57333 13.536 5.28 13.088 8.032C12.768 9.888 12.5653 11.1147 12.48 11.712C11.6693 17.216 10.5707 21.5573 9.184 24.736C7.81867 27.936 5.984 29.536 3.68 29.536C2.592 29.536 1.70667 29.1947 1.024 28.512C0.341333 27.8507 0 26.976 0 25.888C0 24.3733 0.597333 22.7413 1.792 20.992C2.98667 19.264 5.22667 17.1307 8.512 14.592L8.704 13.344C8.34133 13.92 7.86133 14.368 7.264 14.688C6.688 14.9867 6.112 15.136 5.536 15.136C4.21333 15.136 3.15733 14.656 2.368 13.696C1.57867 12.736 1.184 11.4773 1.184 9.92C1.184 8.21333 1.57867 6.60267 2.368 5.088C3.15733 3.552 4.20267 2.32533 5.504 1.408C6.82667 0.469333 8.224 0 9.696 0C10.1653 0 10.4747 0.096 10.624 0.288C10.7947 0.458666 10.9333 0.778666 11.04 1.248C11.4453 1.16267 11.9147 1.12 12.448 1.12ZM6.688 11.904C7.17867 11.904 7.648 11.6053 8.096 11.008C8.544 10.4107 8.864 9.55733 9.056 8.448L10.08 2.976C9.20533 2.99733 8.39467 3.33867 7.648 4C6.90133 4.64 6.304 5.49333 5.856 6.56C5.408 7.62667 5.184 8.75733 5.184 9.952C5.184 10.6133 5.312 11.104 5.568 11.424C5.84533 11.744 6.21867 11.904 6.688 11.904ZM4.032 26.432C4.56533 26.432 5.16267 25.792 5.824 24.512C6.50667 23.232 7.15733 21.1947 7.776 18.4C6.13333 19.808 4.94933 21.0773 4.224 22.208C3.49867 23.3387 3.136 24.3307 3.136 25.184C3.136 25.5467 3.2 25.8453 3.328 26.08C3.47733 26.3147 3.712 26.432 4.032 26.432Z" fill="#1A1A1A"/>
</svg>
