<svg width="14" height="31" viewBox="0 0 14 31" fill="none" xmlns="http://www.w3.org/2000/svg">
<path d="M11.104 15.168C11.7867 15.168 12.2987 15.3493 12.64 15.712C13.0027 16.0533 13.184 16.5653 13.184 17.248C13.184 17.8027 13.0667 18.848 12.832 20.384C12.6187 21.6853 12.448 22.9227 12.32 24.096C12.192 25.248 12.128 26.5387 12.128 27.968C12.128 28.7787 11.9573 29.3653 11.616 29.728C11.296 30.0693 10.7627 30.24 10.016 30.24C9.312 30.24 8.8 30.0587 8.48 29.696C8.16 29.3333 8 28.7893 8 28.064C8 27.2107 8.14933 25.8027 8.448 23.84C8.704 22.1333 8.832 21.0453 8.832 20.576C8.832 20.2347 8.71467 20.064 8.48 20.064C8.20267 20.064 7.808 20.4267 7.296 21.152C6.784 21.856 6.272 22.7947 5.76 23.968C5.248 25.1413 4.832 26.3787 4.512 27.68C4.27733 28.6827 4 29.3653 3.68 29.728C3.38133 30.0693 2.90133 30.24 2.24 30.24C1.57867 30.24 1.088 30.0053 0.768 29.536C0.469333 29.0453 0.266667 28.2987 0.16 27.296C0.0533333 26.2933 0 24.8213 0 22.88C0 19.5947 0.330667 16.1707 0.992 12.608C1.67467 9.04533 2.66667 6.05867 3.968 3.648C5.29067 1.216 6.86933 0 8.704 0C9.68533 0 10.4747 0.426667 11.072 1.28C11.6907 2.112 12 3.2 12 4.544C12 6.69867 11.3707 8.93867 10.112 11.264C8.85333 13.568 6.80533 16.2667 3.968 19.36C3.904 20.4693 3.872 21.6107 3.872 22.784C4.576 20.9707 5.35467 19.4987 6.208 18.368C7.08267 17.216 7.936 16.3947 8.768 15.904C9.62133 15.4133 10.4 15.168 11.104 15.168ZM8.032 3.168C7.648 3.168 7.22133 3.72267 6.752 4.832C6.28267 5.92 5.824 7.40267 5.376 9.28C4.94933 11.136 4.59733 13.1627 4.32 15.36C5.64267 13.8027 6.73067 12.1067 7.584 10.272C8.45867 8.43733 8.896 6.77333 8.896 5.28C8.896 4.59733 8.82133 4.07467 8.672 3.712C8.52267 3.34933 8.30933 3.168 8.032 3.168Z" fill="#1A1A1A"/>
</svg>
