<svg width="8" height="23" viewBox="0 0 8 23" fill="none" xmlns="http://www.w3.org/2000/svg">
<path d="M4.864 4.992C3.968 4.992 3.296 4.78933 2.848 4.384C2.4 3.95733 2.176 3.37067 2.176 2.624C2.176 1.87733 2.464 1.25867 3.04 0.768C3.63733 0.256 4.37333 0 5.248 0C6.03733 0 6.67733 0.192 7.168 0.576C7.65867 0.96 7.904 1.504 7.904 2.208C7.904 3.06133 7.62667 3.744 7.072 4.256C6.51733 4.74667 5.78133 4.992 4.864 4.992ZM1.792 22.176C1.10933 22.176 0.64 22.0373 0.384 21.76C0.128 21.4827 0 21.0453 0 20.448C0 20.2773 0.0213333 19.9787 0.064 19.552C0.405333 15.648 0.970667 12.096 1.76 8.896C1.93067 8.23467 2.208 7.776 2.592 7.52C2.99733 7.24267 3.63733 7.104 4.512 7.104C5.42933 7.104 5.888 7.47733 5.888 8.224C5.888 8.33067 5.86667 8.53333 5.824 8.832C4.864 13.3973 4.288 17.2267 4.096 20.32C4.05333 21.0027 3.85067 21.4827 3.488 21.76C3.12533 22.0373 2.56 22.176 1.792 22.176Z" fill="#1A1A1A"/>
</svg>
