<svg width="16" height="37" viewBox="0 0 16 37" fill="none" xmlns="http://www.w3.org/2000/svg">
<path d="M12.768 0C13.5573 0 14.1973 0.192 14.688 0.576C15.1787 0.96 15.424 1.504 15.424 2.208C15.424 3.06133 15.1467 3.744 14.592 4.256C14.0373 4.74667 13.3013 4.992 12.384 4.992C11.488 4.992 10.816 4.78933 10.368 4.384C9.92 3.95733 9.696 3.37067 9.696 2.624C9.696 1.87733 9.984 1.25867 10.56 0.768C11.1573 0.256 11.8933 0 12.768 0ZM12.384 7.104C13.024 7.104 13.44 7.2 13.632 7.392C13.8453 7.584 13.952 7.85067 13.952 8.192C13.952 9.10933 13.6213 11.7227 12.96 16.032C12.8747 16.544 12.736 17.4507 12.544 18.752C11.7547 24.2133 10.656 28.544 9.248 31.744C7.84 34.9653 5.984 36.576 3.68 36.576C2.57067 36.576 1.68533 36.2347 1.024 35.552C0.341333 34.8907 0 34.016 0 32.928C0 31.4133 0.586667 29.792 1.76 28.064C2.93333 26.3573 5.14133 24.2453 8.384 21.728L8.608 20.096C8.90667 18.048 9.14133 16.032 9.312 14.048C9.44 12.896 9.64267 11.1787 9.92 8.896C10.0053 8.27733 10.24 7.82933 10.624 7.552C11.008 7.25333 11.5947 7.104 12.384 7.104ZM4.032 33.472C4.58667 33.472 5.19467 32.8427 5.856 31.584C6.51733 30.3253 7.136 28.2987 7.712 25.504C6.09067 26.8907 4.928 28.1387 4.224 29.248C3.49867 30.3787 3.136 31.3707 3.136 32.224C3.136 33.056 3.43467 33.472 4.032 33.472Z" fill="#1A1A1A"/>
</svg>
