<svg width="15" height="31" viewBox="0 0 15 31" fill="none" xmlns="http://www.w3.org/2000/svg">
<path d="M13.376 26.752C14.2507 26.9227 14.688 27.4027 14.688 28.192C14.688 28.7253 14.4427 29.2053 13.952 29.632C13.4827 30.0373 12.8 30.24 11.904 30.24C10.368 30.24 9.10933 29.7707 8.128 28.832C7.168 27.872 6.688 26.624 6.688 25.088C6.688 24.256 7.11467 23.6587 7.968 23.296C8.90667 22.8907 9.57867 22.464 9.984 22.016C10.3893 21.5467 10.592 20.9813 10.592 20.32C10.592 19.936 10.5067 19.648 10.336 19.456C10.1867 19.264 9.99467 19.168 9.76 19.168C9.184 19.168 8.544 19.584 7.84 20.416C7.15733 21.248 6.51733 22.3253 5.92 23.648C5.32267 24.9493 4.85333 26.2933 4.512 27.68C4.27733 28.6827 4 29.3653 3.68 29.728C3.38133 30.0693 2.90133 30.24 2.24 30.24C1.57867 30.24 1.088 30.0053 0.768 29.536C0.469333 29.0453 0.266667 28.2987 0.16 27.296C0.0533333 26.2933 0 24.8213 0 22.88C0 19.5947 0.330667 16.1707 0.992 12.608C1.67467 9.04533 2.66667 6.05867 3.968 3.648C5.29067 1.216 6.86933 0 8.704 0C9.68533 0 10.4747 0.426667 11.072 1.28C11.6907 2.112 12 3.2 12 4.544C12 6.69867 11.3707 8.93867 10.112 11.264C8.85333 13.568 6.80533 16.2667 3.968 19.36C3.904 20.4693 3.872 21.6107 3.872 22.784C4.896 20.1173 6.06933 18.1867 7.392 16.992C8.71467 15.776 9.952 15.168 11.104 15.168C12.1707 15.168 13.024 15.5307 13.664 16.256C14.3253 16.9813 14.656 17.8773 14.656 18.944C14.656 20.1173 14.3573 21.1947 13.76 22.176C13.1627 23.1573 12.1387 24.032 10.688 24.8C10.816 25.44 11.072 25.888 11.456 26.144C11.8613 26.3787 12.5013 26.5813 13.376 26.752ZM8.032 3.168C7.648 3.168 7.22133 3.72267 6.752 4.832C6.28267 5.92 5.824 7.40267 5.376 9.28C4.94933 11.136 4.59733 13.1627 4.32 15.36C5.64267 13.8027 6.73067 12.1067 7.584 10.272C8.45867 8.43733 8.896 6.77333 8.896 5.28C8.896 4.59733 8.82133 4.07467 8.672 3.712C8.52267 3.34933 8.30933 3.168 8.032 3.168Z" fill="#1A1A1A"/>
</svg>
