<svg width="12" height="31" viewBox="0 0 12 31" fill="none" xmlns="http://www.w3.org/2000/svg">
<path d="M9.024 25.568C9.25867 25.3547 9.49333 25.248 9.728 25.248C9.984 25.248 10.1867 25.3973 10.336 25.696C10.5067 25.9733 10.592 26.3147 10.592 26.72C10.592 27.616 10.272 28.3307 9.632 28.864C8.52267 29.7813 7.264 30.24 5.856 30.24C3.82933 30.24 2.34667 29.3973 1.408 27.712C0.469333 26.0053 0 23.7867 0 21.056C0 18.4533 0.330667 15.488 0.992 12.16C1.67467 8.832 2.66667 5.97333 3.968 3.584C5.29067 1.19467 6.85867 0 8.672 0C9.696 0 10.496 0.48 11.072 1.44C11.6693 2.37867 11.968 3.73333 11.968 5.504C11.968 8.04267 11.264 10.9867 9.856 14.336C8.46933 17.6853 6.57067 20.992 4.16 24.256C4.30933 25.1307 4.576 25.76 4.96 26.144C5.344 26.528 5.86667 26.72 6.528 26.72C6.89067 26.72 7.296 26.6133 7.744 26.4C8.21333 26.1867 8.64 25.9093 9.024 25.568ZM7.968 3.168C7.47733 3.168 6.92267 4.05333 6.304 5.824C5.68533 7.59467 5.14133 9.792 4.672 12.416C4.20267 15.04 3.94667 17.5573 3.904 19.968C5.41867 17.472 6.624 14.976 7.52 12.48C8.416 9.96267 8.864 7.66933 8.864 5.6C8.864 3.97867 8.56533 3.168 7.968 3.168Z" fill="#1A1A1A"/>
</svg>
