<svg width="22" height="16" viewBox="0 0 22 16" fill="none" xmlns="http://www.w3.org/2000/svg">
<path d="M2.208 15.072C1.39733 15.072 0.821333 14.6453 0.48 13.792C0.16 12.9387 0 11.5733 0 9.696C0 6.92267 0.394667 4.288 1.184 1.792C1.376 1.17333 1.68533 0.725334 2.112 0.448C2.56 0.149333 3.17867 0 3.968 0C4.39467 0 4.69333 0.0533333 4.864 0.16C5.03467 0.266666 5.12 0.469333 5.12 0.768C5.12 1.10933 4.96 1.87733 4.64 3.072C4.42667 3.92533 4.256 4.672 4.128 5.312C4 5.93067 3.89333 6.70933 3.808 7.648C4.384 5.984 5.06667 4.576 5.856 3.424C6.66667 2.272 7.488 1.41867 8.32 0.864C9.17333 0.288 9.97333 0 10.72 0C11.4667 0 11.9893 0.170667 12.288 0.512C12.608 0.853333 12.768 1.376 12.768 2.08C12.768 2.76267 12.5653 4 12.16 5.792C11.9893 6.56 11.872 7.136 11.808 7.52C12.512 5.728 13.2907 4.26667 14.144 3.136C15.0187 2.00533 15.872 1.20533 16.704 0.736C17.536 0.245333 18.304 0 19.008 0C19.6907 0 20.2027 0.181333 20.544 0.544C20.9067 0.885333 21.088 1.39733 21.088 2.08C21.088 2.63467 20.9707 3.68 20.736 5.216C20.5227 6.51733 20.352 7.75467 20.224 8.928C20.096 10.08 20.032 11.3707 20.032 12.8C20.032 13.6107 19.8613 14.1973 19.52 14.56C19.2 14.9013 18.6667 15.072 17.92 15.072C17.216 15.072 16.704 14.8907 16.384 14.528C16.064 14.1653 15.904 13.6213 15.904 12.896C15.904 12.0427 16.0533 10.6347 16.352 8.672C16.608 6.96533 16.736 5.87733 16.736 5.408C16.736 5.06667 16.6187 4.896 16.384 4.896C16.1067 4.896 15.712 5.25867 15.2 5.984C14.688 6.688 14.176 7.62667 13.664 8.8C13.152 9.97333 12.736 11.2107 12.416 12.512C12.1813 13.536 11.904 14.2187 11.584 14.56C11.2853 14.9013 10.7947 15.072 10.112 15.072C9.408 15.072 8.87467 14.7413 8.512 14.08C8.17067 13.3973 8 12.576 8 11.616C8 10.8053 8.10667 9.632 8.32 8.096C8.49067 6.73067 8.576 5.83467 8.576 5.408C8.576 5.06667 8.45867 4.896 8.224 4.896C7.904 4.896 7.49867 5.28 7.008 6.048C6.51733 6.816 6.03733 7.79733 5.568 8.992C5.12 10.1867 4.75733 11.36 4.48 12.512C4.24533 13.5147 3.968 14.1973 3.648 14.56C3.34933 14.9013 2.86933 15.072 2.208 15.072Z" fill="#1A1A1A"/>
</svg>
