<svg width="14" height="16" viewBox="0 0 14 16" fill="none" xmlns="http://www.w3.org/2000/svg">
<path d="M2.208 15.072C1.39733 15.072 0.821333 14.6453 0.48 13.792C0.16 12.9387 0 11.5733 0 9.696C0 6.92267 0.394667 4.288 1.184 1.792C1.376 1.17333 1.68533 0.725334 2.112 0.448C2.56 0.149333 3.17867 0 3.968 0C4.39467 0 4.69333 0.0533333 4.864 0.16C5.03467 0.266666 5.12 0.469333 5.12 0.768C5.12 1.10933 4.96 1.87733 4.64 3.072C4.42667 3.92533 4.256 4.672 4.128 5.312C4 5.952 3.89333 6.74133 3.808 7.68C4.512 5.84533 5.30133 4.352 6.176 3.2C7.05067 2.048 7.904 1.22667 8.736 0.736C9.58933 0.245333 10.368 0 11.072 0C11.7547 0 12.2667 0.181333 12.608 0.544C12.9707 0.885333 13.152 1.39733 13.152 2.08C13.152 2.63467 13.0347 3.68 12.8 5.216C12.5867 6.51733 12.416 7.75467 12.288 8.928C12.16 10.08 12.096 11.3707 12.096 12.8C12.096 13.6107 11.9253 14.1973 11.584 14.56C11.264 14.9013 10.7307 15.072 9.984 15.072C9.28 15.072 8.768 14.8907 8.448 14.528C8.128 14.1653 7.968 13.6213 7.968 12.896C7.968 12.0427 8.11733 10.6347 8.416 8.672C8.672 6.96533 8.8 5.87733 8.8 5.408C8.8 5.06667 8.68267 4.896 8.448 4.896C8.17067 4.896 7.776 5.25867 7.264 5.984C6.77333 6.688 6.26133 7.62667 5.728 8.8C5.216 9.97333 4.8 11.2107 4.48 12.512C4.24533 13.5147 3.968 14.1973 3.648 14.56C3.34933 14.9013 2.86933 15.072 2.208 15.072Z" fill="#1A1A1A"/>
</svg>
