<svg width="13" height="16" viewBox="0 0 13 16" fill="none" xmlns="http://www.w3.org/2000/svg">
<path d="M5.888 15.104C4.62933 15.104 3.552 14.7947 2.656 14.176C1.78133 13.536 1.12 12.704 0.672 11.68C0.224 10.656 0 9.55733 0 8.384C0 6.76267 0.298667 5.32267 0.896 4.064C1.51467 2.784 2.34667 1.792 3.392 1.088C4.43733 0.362666 5.61067 0 6.912 0C8.17067 0 9.248 0.32 10.144 0.96C11.04 1.57867 11.712 2.4 12.16 3.424C12.608 4.448 12.832 5.54667 12.832 6.72C12.832 8.34133 12.5227 9.792 11.904 11.072C11.2853 12.3307 10.4427 13.3227 9.376 14.048C8.33067 14.752 7.168 15.104 5.888 15.104ZM6.24 11.648C6.96533 11.648 7.57333 11.2533 8.064 10.464C8.576 9.67467 8.832 8.52267 8.832 7.008C8.832 5.83467 8.61867 4.94933 8.192 4.352C7.76533 3.75467 7.25333 3.456 6.656 3.456C5.888 3.456 5.248 3.85067 4.736 4.64C4.24533 5.408 4 6.56 4 8.096C4 9.312 4.21333 10.208 4.64 10.784C5.06667 11.36 5.6 11.648 6.24 11.648Z" fill="#1A1A1A"/>
</svg>
