<svg width="19" height="30" viewBox="0 0 19 30" fill="none" xmlns="http://www.w3.org/2000/svg">
<path d="M18.016 5.344C18.016 7.02933 17.6213 8.62933 16.832 10.144C16.064 11.6373 15.0293 12.8533 13.728 13.792C12.448 14.7307 11.072 15.2213 9.6 15.264C9.32267 19.3813 8.69333 22.816 7.712 25.568C6.73067 28.3413 5.29067 29.728 3.392 29.728C2.24 29.728 1.38667 29.312 0.832 28.48C0.277333 27.648 0 26.496 0 25.024C0 22.9333 0.48 20.4907 1.44 17.696C2.4 14.9227 3.88267 11.8613 5.888 8.512C5.888 5.39733 5.86667 3.232 5.824 2.016C5.80267 1.39733 6.048 0.906667 6.56 0.544001C7.072 0.181334 7.712 0 8.48 0C8.928 0 9.248 0.096 9.44 0.288C9.65333 0.458667 9.77067 0.810667 9.792 1.344C9.792 1.87733 9.80267 2.272 9.824 2.528C10.5067 1.67467 11.1787 1.06667 11.84 0.704C12.5013 0.32 13.2053 0.128 13.952 0.128C15.1467 0.128 16.1173 0.608 16.864 1.568C17.632 2.528 18.016 3.78667 18.016 5.344ZM9.76 12.192C10.528 12.0213 11.232 11.6053 11.872 10.944C12.5333 10.2613 13.056 9.42933 13.44 8.448C13.824 7.44533 14.016 6.4 14.016 5.312C14.016 4.672 13.888 4.192 13.632 3.872C13.376 3.53067 13.0347 3.36 12.608 3.36C11.84 3.36 10.912 4.17067 9.824 5.792C9.80267 6.73067 9.792 8.10667 9.792 9.92C9.792 10.9013 9.78133 11.6587 9.76 12.192ZM3.648 26.592C4.224 26.592 4.704 25.3333 5.088 22.816C5.472 20.32 5.71733 17.2053 5.824 13.472C4.90667 15.6053 4.18133 17.6427 3.648 19.584C3.11467 21.5253 2.848 23.1573 2.848 24.48C2.848 25.1627 2.93333 25.6853 3.104 26.048C3.25333 26.4107 3.43467 26.592 3.648 26.592Z" fill="#1A1A1A"/>
</svg>
