<svg width="14" height="27" viewBox="0 0 14 27" fill="none" xmlns="http://www.w3.org/2000/svg">
<path d="M7.296 26.912C6.72 26.912 6.272 26.7733 5.952 26.496C5.632 26.2187 5.48267 25.728 5.504 25.024C5.54667 23.7653 5.68533 22.208 5.92 20.352C6.176 18.496 6.50667 16.576 6.912 14.592C6.528 15.2107 6.09067 15.6587 5.6 15.936C5.13067 16.2133 4.58667 16.352 3.968 16.352C2.79467 16.352 1.83467 15.8933 1.088 14.976C0.362667 14.0373 0 12.7573 0 11.136C0 9.42933 0.394667 7.81867 1.184 6.304C1.97333 4.768 3.01867 3.54133 4.32 2.624C5.64267 1.68533 7.04 1.216 8.512 1.216C8.72533 1.216 8.94933 1.248 9.184 1.312C9.41867 1.376 9.6 1.472 9.728 1.6C9.89867 1.04533 10.176 0.640001 10.56 0.384001C10.944 0.128 11.456 0 12.096 0C12.736 0 13.1733 0.106667 13.408 0.320001C13.6427 0.533334 13.7387 0.842667 13.696 1.248C13.6533 1.54667 13.44 2.48533 13.056 4.064C12.352 6.85867 11.776 9.42933 11.328 11.776C10.432 16.512 9.78133 20.9173 9.376 24.992C9.312 25.7173 9.088 26.2187 8.704 26.496C8.34133 26.7733 7.872 26.912 7.296 26.912ZM5.504 13.12C6.016 13.12 6.464 12.8533 6.848 12.32C7.232 11.7867 7.54133 11.04 7.776 10.08L9.12 4.192C8.18133 4.21333 7.31733 4.55467 6.528 5.216C5.73867 5.856 5.12 6.70933 4.672 7.776C4.224 8.84267 4 9.97333 4 11.168C4 11.8293 4.128 12.32 4.384 12.64C4.66133 12.96 5.03467 13.12 5.504 13.12Z" fill="#1A1A1A"/>
</svg>
