<svg width="15" height="16" viewBox="0 0 15 16" fill="none" xmlns="http://www.w3.org/2000/svg">
<path d="M12.864 4.384C13.3333 4.384 13.728 4.55467 14.048 4.896C14.3893 5.216 14.56 5.62133 14.56 6.112C14.56 6.38933 14.496 6.688 14.368 7.008C14.0267 7.79733 13.5467 8.45867 12.928 8.992C12.3093 9.52533 11.6267 9.792 10.88 9.792C10.2827 9.792 9.77067 9.57867 9.344 9.152C8.93867 8.72533 8.736 8.14933 8.736 7.424C8.736 7.01867 8.75733 6.58133 8.8 6.112C8.84267 5.77067 8.864 5.536 8.864 5.408C8.864 5.23733 8.82133 5.10933 8.736 5.024C8.672 4.93867 8.58667 4.896 8.48 4.896C8.18133 4.896 7.776 5.25867 7.264 5.984C6.752 6.688 6.24 7.62667 5.728 8.8C5.216 9.97333 4.8 11.2107 4.48 12.512C4.24533 13.536 3.97867 14.2187 3.68 14.56C3.38133 14.9013 2.89067 15.072 2.208 15.072C1.39733 15.072 0.821333 14.6453 0.48 13.792C0.16 12.9387 0 11.5733 0 9.696C0 6.92267 0.394667 4.288 1.184 1.792C1.376 1.17333 1.68533 0.725334 2.112 0.448C2.56 0.149333 3.17867 0 3.968 0C4.39467 0 4.69333 0.0533333 4.864 0.16C5.03467 0.266666 5.12 0.469333 5.12 0.768C5.12 1.10933 4.96 1.87733 4.64 3.072C4.42667 3.92533 4.256 4.672 4.128 5.312C4 5.952 3.89333 6.74133 3.808 7.68C4.512 5.84533 5.30133 4.352 6.176 3.2C7.05067 2.048 7.904 1.22667 8.736 0.736C9.568 0.245333 10.3253 0 11.008 0C11.6267 0 12.096 0.181333 12.416 0.544C12.7573 0.885333 12.928 1.39733 12.928 2.08C12.928 2.48533 12.8107 3.25333 12.576 4.384H12.864Z" fill="#1A1A1A"/>
</svg>
