<svg width="13" height="17" viewBox="0 0 13 17" fill="none" xmlns="http://www.w3.org/2000/svg">
<path d="M7.84 16.128C6.73067 16.128 5.87733 15.872 5.28 15.36C4.704 14.848 4.416 14.272 4.416 13.632C4.416 13.0773 4.61867 12.5973 5.024 12.192C5.42933 11.7867 6.02667 11.584 6.816 11.584C7.09333 11.584 7.41333 11.616 7.776 11.68C8.16 11.7227 8.448 11.7547 8.64 11.776C8.61867 11.2213 8.49067 10.6987 8.256 10.208C8.04267 9.71733 7.76533 9.248 7.424 8.8C7.08267 8.33067 6.76267 7.92533 6.464 7.584C5.80267 8.84267 5.14133 9.888 4.48 10.72C3.84 11.552 3.136 12.3413 2.368 13.088C1.984 13.472 1.57867 13.664 1.152 13.664C0.810667 13.664 0.533333 13.5467 0.32 13.312C0.106667 13.056 0 12.7467 0 12.384C0 11.9573 0.149333 11.5627 0.448 11.2L0.864 10.688C2.03733 9.23733 2.92267 8.04267 3.52 7.104C3.904 6.48533 4.288 5.74933 4.672 4.896C5.07733 4.04267 5.6 2.88 6.24 1.408C6.64533 0.469333 7.488 0 8.768 0C9.36533 0 9.78133 0.0533333 10.016 0.16C10.2507 0.266667 10.368 0.437334 10.368 0.672C10.368 0.8 10.3253 1.00267 10.24 1.28C10.1547 1.55733 10.0373 1.83467 9.888 2.112C9.504 2.88 9.312 3.53067 9.312 4.064C9.312 4.384 9.41867 4.736 9.632 5.12C9.86667 5.504 10.2187 5.984 10.688 6.56C11.3707 7.456 11.8827 8.224 12.224 8.864C12.5867 9.48267 12.768 10.1653 12.768 10.912C12.768 11.808 12.5547 12.6613 12.128 13.472C11.7227 14.2613 11.1467 14.9013 10.4 15.392C9.65333 15.8827 8.8 16.128 7.84 16.128Z" fill="#1A1A1A"/>
</svg>
