<svg width="15" height="29" viewBox="0 0 15 29" fill="none" xmlns="http://www.w3.org/2000/svg">
<path d="M6.784 16.064C6.74133 17.1307 6.72 17.9627 6.72 18.56C6.72 20.096 6.79467 21.3013 6.944 22.176C7.11467 23.0293 7.38133 23.648 7.744 24.032C8.128 24.3947 8.65067 24.576 9.312 24.576C9.65333 24.576 10.0587 24.4693 10.528 24.256C10.9973 24.0427 11.424 23.7653 11.808 23.424C12.0427 23.2107 12.2773 23.104 12.512 23.104C12.768 23.104 12.9707 23.2533 13.12 23.552C13.2907 23.8293 13.376 24.1707 13.376 24.576C13.376 24.9813 13.2907 25.376 13.12 25.76C12.9707 26.144 12.736 26.464 12.416 26.72C11.3067 27.6373 10.048 28.096 8.64 28.096C6.61333 28.096 5.13067 27.2533 4.192 25.568C3.25333 23.8613 2.784 21.6427 2.784 18.912C2.784 17.9733 2.816 17.024 2.88 16.064H1.632C0.992 16.064 0.554667 15.9467 0.32 15.712C0.106667 15.4773 0 15.104 0 14.592C0 13.3973 0.48 12.8 1.44 12.8H3.264C3.62667 10.4533 4.18133 8.30933 4.928 6.368C5.67467 4.42667 6.57067 2.88 7.616 1.728C8.68267 0.576 9.824 0 11.04 0C11.936 0 12.64 0.394667 13.152 1.184C13.664 1.97333 13.92 2.96533 13.92 4.16C13.92 7.46667 12.5333 10.3467 9.76 12.8H13.344C13.6853 12.8 13.9307 12.8747 14.08 13.024C14.2293 13.1733 14.304 13.4507 14.304 13.856C14.304 15.328 13.0987 16.064 10.688 16.064H6.784ZM10.176 3.072C9.856 3.072 9.49333 3.47733 9.088 4.288C8.704 5.07733 8.33067 6.18667 7.968 7.616C7.62667 9.024 7.33867 10.592 7.104 12.32C8.36267 11.232 9.30133 10.016 9.92 8.672C10.56 7.30667 10.88 6.06933 10.88 4.96C10.88 3.70133 10.6453 3.072 10.176 3.072Z" fill="#1A1A1A"/>
</svg>
