<svg width="13" height="16" viewBox="0 0 13 16" fill="none" xmlns="http://www.w3.org/2000/svg">
<path d="M3.328 15.072C2.32533 15.072 1.51467 14.6667 0.896 13.856C0.298667 13.024 0 11.8827 0 10.432C0 8.832 0.106667 7.37067 0.32 6.048C0.533333 4.704 0.885333 3.28533 1.376 1.792C1.58933 1.152 1.888 0.693333 2.272 0.416C2.656 0.138667 3.264 0 4.096 0C4.56533 0 4.88533 0.0746667 5.056 0.224C5.248 0.373333 5.344 0.597333 5.344 0.896C5.344 1.06667 5.22667 1.64267 4.992 2.624C4.77867 3.41333 4.608 4.128 4.48 4.768C4.05333 7.008 3.84 8.50133 3.84 9.248C3.84 9.696 3.89333 10.016 4 10.208C4.10667 10.3787 4.27733 10.464 4.512 10.464C4.832 10.464 5.23733 10.144 5.728 9.504C6.21867 8.84267 6.73067 7.86133 7.264 6.56C7.81867 5.23733 8.34133 3.648 8.832 1.792C9.00267 1.152 9.25867 0.693333 9.6 0.416C9.96267 0.138667 10.496 0 11.2 0C11.6693 0 12 0.128 12.192 0.384C12.4053 0.618667 12.512 0.981333 12.512 1.472C12.512 2.00533 12.4693 2.60267 12.384 3.264C12.2987 3.904 12.2027 4.56533 12.096 5.248C11.8827 6.61333 11.712 7.86133 11.584 8.992C11.456 10.1013 11.392 11.3707 11.392 12.8C11.392 13.6107 11.2213 14.1973 10.88 14.56C10.56 14.9013 10.0267 15.072 9.28 15.072C8.49067 15.072 7.936 14.8693 7.616 14.464C7.31733 14.0373 7.168 13.2267 7.168 12.032C7.168 11.7973 7.18933 11.2747 7.232 10.464C6.86933 11.9573 6.32533 13.0987 5.6 13.888C4.896 14.6773 4.13867 15.072 3.328 15.072Z" fill="#1A1A1A"/>
</svg>
