<svg width="13" height="16" viewBox="0 0 13 16" fill="none" xmlns="http://www.w3.org/2000/svg">
<path d="M3.456 15.104C2.56 15.104 1.856 14.7733 1.344 14.112C0.832 13.4293 0.512 12.3413 0.384 10.848C0.128 7.86133 0 5.248 0 3.008V1.888C0.0213334 1.184 0.213333 0.693333 0.576 0.415999C0.938667 0.138666 1.48267 0 2.208 0C2.76267 0 3.168 0.128 3.424 0.384C3.70133 0.618666 3.84 1.024 3.84 1.6C3.84 4.05333 3.98933 7.24267 4.288 11.168C5.20533 9.58933 5.99467 8.14933 6.656 6.848C7.33867 5.52533 8.07467 3.78667 8.864 1.632C9.09867 0.992 9.408 0.565333 9.792 0.351999C10.176 0.117333 10.656 0 11.232 0C12.4053 0 12.992 0.373333 12.992 1.12C12.992 1.376 12.9067 1.728 12.736 2.176C11.008 6.208 9.376 9.46133 7.84 11.936C7.09333 13.152 6.37867 13.984 5.696 14.432C5.01333 14.88 4.26667 15.104 3.456 15.104Z" fill="#1A1A1A"/>
</svg>
