<svg width="21" height="16" viewBox="0 0 21 16" fill="none" xmlns="http://www.w3.org/2000/svg">
<path d="M19.072 0C20.2453 0 20.832 0.373333 20.832 1.12C20.832 1.376 20.7467 1.728 20.576 2.176C18.848 6.208 17.216 9.46133 15.68 11.936C14.912 13.152 14.2187 13.984 13.6 14.432C12.9813 14.88 12.2773 15.104 11.488 15.104C10.6347 15.104 9.99467 14.7733 9.568 14.112C9.16267 13.4507 8.90667 12.3627 8.8 10.848C8.75733 10.2933 8.71467 9.46133 8.672 8.352C8.01067 10.1867 7.40267 11.5947 6.848 12.576C6.31467 13.536 5.78133 14.1973 5.248 14.56C4.736 14.9227 4.11733 15.104 3.392 15.104C2.51733 15.104 1.824 14.7627 1.312 14.08C0.821333 13.3973 0.512 12.32 0.384 10.848C0.128 7.86133 0 5.248 0 3.008V1.888C0.0213333 1.16267 0.202667 0.671999 0.544 0.415999C0.885333 0.138666 1.44 0 2.208 0C2.76267 0 3.168 0.128 3.424 0.384C3.70133 0.618666 3.84 1.024 3.84 1.6C3.84 4.05333 3.98933 7.24267 4.288 11.168C4.992 9.67467 5.64267 8.24533 6.24 6.88C6.83733 5.51467 7.53067 3.76533 8.32 1.632C8.55467 0.992 8.832 0.565333 9.152 0.351999C9.49333 0.117333 9.888 0 10.336 0C10.9333 0 11.3813 0.128 11.68 0.384C11.9787 0.618666 12.128 1.024 12.128 1.6V6.56C12.128 8.69333 12.1387 10.2293 12.16 11.168C13.1413 9.46133 13.9413 7.97867 14.56 6.72C15.2 5.46133 15.9147 3.76533 16.704 1.632C16.9387 0.992 17.248 0.565333 17.632 0.351999C18.016 0.117333 18.496 0 19.072 0Z" fill="#1A1A1A"/>
</svg>
