<svg width="19" height="16" viewBox="0 0 19 16" fill="none" xmlns="http://www.w3.org/2000/svg">
<path d="M17.728 8.864C18.0053 8.864 18.2187 8.992 18.368 9.248C18.5387 9.504 18.624 9.856 18.624 10.304C18.624 11.072 18.4427 11.7333 18.08 12.288C16.8213 14.2293 15.0293 15.2 12.704 15.2C11.7013 15.2 10.8053 15.008 10.016 14.624C9.248 14.2187 8.61867 13.6427 8.128 12.896C6.89067 14.4107 5.45067 15.168 3.808 15.168C2.63467 15.168 1.70667 14.8267 1.024 14.144C0.341333 13.4613 0 12.5547 0 11.424C0 10.3573 0.245333 9.49333 0.736 8.832C1.22667 8.17067 1.92 7.84 2.816 7.84C3.584 7.84 3.968 8.128 3.968 8.704C3.968 8.87467 3.94667 9.17333 3.904 9.6L3.808 10.816C3.808 11.456 4.08533 11.776 4.64 11.776C5.04533 11.776 5.42933 11.5413 5.792 11.072C6.176 10.5813 6.48533 9.92 6.72 9.088C6.976 8.256 7.104 7.33867 7.104 6.336C7.104 5.568 7.008 4.928 6.816 4.416C6.624 3.88267 6.38933 3.616 6.112 3.616C5.87733 3.616 5.70667 3.68 5.6 3.808C5.49333 3.91467 5.38667 4.10667 5.28 4.384C5.152 4.72533 4.98133 5.00267 4.768 5.216C4.55467 5.408 4.18133 5.504 3.648 5.504C3.17867 5.504 2.80533 5.344 2.528 5.024C2.25067 4.68267 2.112 4.17067 2.112 3.488C2.112 2.4 2.44267 1.54667 3.104 0.928C3.76533 0.309334 4.61867 0 5.664 0C6.56 0 7.37067 0.224 8.096 0.672C8.82133 1.09867 9.376 1.728 9.76 2.56C10.4 1.70667 11.1147 1.06667 11.904 0.64C12.7147 0.213333 13.504 0 14.272 0C15.104 0 15.7333 0.192 16.16 0.576C16.608 0.96 16.832 1.57867 16.832 2.432C16.832 3.392 16.6507 4.14933 16.288 4.704C15.9253 5.23733 15.488 5.504 14.976 5.504C14.5067 5.504 14.1867 5.408 14.016 5.216C13.8453 5.024 13.7173 4.74667 13.632 4.384C13.5893 4.128 13.5253 3.936 13.44 3.808C13.3547 3.68 13.2053 3.616 12.992 3.616C12.736 3.616 12.4587 3.86133 12.16 4.352C11.8827 4.82133 11.6373 5.45067 11.424 6.24C11.232 7.02933 11.136 7.85067 11.136 8.704C11.136 9.664 11.3493 10.432 11.776 11.008C12.224 11.584 12.7573 11.872 13.376 11.872C14.5493 11.872 15.712 11.0293 16.864 9.344C17.0773 9.024 17.3653 8.864 17.728 8.864Z" fill="#1A1A1A"/>
</svg>
