<svg width="15" height="30" viewBox="0 0 15 30" fill="none" xmlns="http://www.w3.org/2000/svg">
<path d="M12.864 0C13.3547 0 13.696 0.0640001 13.888 0.192C14.08 0.32 14.176 0.533333 14.176 0.832C14.176 1.344 13.8987 3.168 13.344 6.304C12.8533 9.312 12.5653 11.0933 12.48 11.648C11.6907 17.1307 10.6027 21.472 9.216 24.672C7.82933 27.872 5.984 29.472 3.68 29.472C2.592 29.472 1.70667 29.1307 1.024 28.448C0.341333 27.7867 0 26.912 0 25.824C0 24.8213 0.224 23.7973 0.672 22.752C1.14133 21.7067 1.99467 20.5013 3.232 19.136C4.49067 17.792 6.26133 16.2453 8.544 14.496L8.64 13.76C8.78933 12.9707 8.96 11.84 9.152 10.368C8.72533 11.904 8.128 13.0773 7.36 13.888C6.592 14.6773 5.78133 15.072 4.928 15.072C3.968 15.072 3.17867 14.6347 2.56 13.76C1.96267 12.864 1.664 11.7547 1.664 10.432C1.664 8.832 1.77067 7.37067 1.984 6.048C2.19733 4.704 2.54933 3.28533 3.04 1.792C3.25333 1.152 3.552 0.693333 3.936 0.416C4.32 0.138667 4.928 0 5.76 0C6.22933 0 6.54933 0.0746667 6.72 0.224C6.912 0.373333 7.008 0.597333 7.008 0.896C7.008 1.06667 6.89067 1.64267 6.656 2.624C6.44267 3.41333 6.272 4.128 6.144 4.768C5.97333 5.64267 5.824 6.48533 5.696 7.296C5.568 8.08533 5.504 8.736 5.504 9.248C5.504 10.0587 5.728 10.464 6.176 10.464C6.496 10.464 6.89067 10.144 7.36 9.504C7.85067 8.864 8.36267 7.89333 8.896 6.592C9.45067 5.29067 9.984 3.69067 10.496 1.792C10.6667 1.152 10.9227 0.693333 11.264 0.416C11.6267 0.138667 12.16 0 12.864 0ZM4.032 26.368C4.56533 26.368 5.16267 25.7493 5.824 24.512C6.48533 23.2747 7.14667 21.216 7.808 18.336C6.16533 19.7227 4.97067 20.9813 4.224 22.112C3.49867 23.264 3.136 24.2667 3.136 25.12C3.136 25.4827 3.2 25.7813 3.328 26.016C3.47733 26.2507 3.712 26.368 4.032 26.368Z" fill="#1A1A1A"/>
</svg>
