<svg width="14" height="16" viewBox="0 0 14 16" fill="none" xmlns="http://www.w3.org/2000/svg">
<path d="M12.352 11.584C12.8213 11.5627 13.1733 11.7333 13.408 12.096C13.664 12.4373 13.792 12.864 13.792 13.376C13.792 13.9093 13.664 14.3787 13.408 14.784C13.1733 15.1893 12.8427 15.392 12.416 15.392C11.648 15.392 10.9227 15.3813 10.24 15.36C9.57867 15.3387 8.992 15.3173 8.48 15.296C6.51733 15.2107 5.13067 15.168 4.32 15.168C4.04267 15.168 3.63733 15.264 3.104 15.456C2.42133 15.6693 1.952 15.776 1.696 15.776C0.565333 15.776 0 15.0507 0 13.6C0 12.6187 0.352 11.5093 1.056 10.272C1.76 9.01333 2.67733 7.79733 3.808 6.624C4.93867 5.45067 6.112 4.46933 7.328 3.68L2.816 3.808C2.34667 3.82933 1.984 3.66933 1.728 3.328C1.49333 2.96533 1.376 2.53867 1.376 2.048C1.376 1.536 1.49333 1.088 1.728 0.704C1.984 0.298666 2.32533 0.0959997 2.752 0.0959997C3.69067 0.0959997 4.85333 0.170666 6.24 0.32C6.47467 0.341333 6.976 0.384 7.744 0.448C8.53333 0.512 9.25867 0.544 9.92 0.544C10.1333 0.544 10.5387 0.458666 11.136 0.288C11.2427 0.266666 11.4453 0.213333 11.744 0.128C12.064 0.0426668 12.3307 0 12.544 0C12.8853 0 13.1627 0.149333 13.376 0.448C13.6107 0.746667 13.728 1.20533 13.728 1.824C13.728 2.50667 13.5573 3.05067 13.216 3.456C12.896 3.86133 12.4053 4.224 11.744 4.544C10.9973 4.88533 10.1227 5.472 9.12 6.304C8.11733 7.136 7.168 8.064 6.272 9.088C5.376 10.0907 4.71467 11.04 4.288 11.936L12.352 11.584Z" fill="#1A1A1A"/>
</svg>
