<svg width="9" height="9" viewBox="0 0 9 9" fill="none" xmlns="http://www.w3.org/2000/svg">
<path d="M2.16 8.82C2.072 8.884 1.972 8.908 1.86 8.892C1.756 8.876 1.672 8.824 1.608 8.736C1.552 8.648 1.532 8.552 1.548 8.448C1.564 8.344 1.612 8.26 1.692 8.196C2.3 7.748 2.796 7.208 3.18 6.576C3.564 5.936 3.824 5.24 3.96 4.488C4.096 3.736 4.092 2.972 3.948 2.196C3.932 2.092 3.952 1.996 4.008 1.908C4.072 1.82 4.156 1.768 4.26 1.752C4.372 1.736 4.468 1.76 4.548 1.824C4.636 1.88 4.692 1.96 4.716 2.064C4.732 2.168 4.748 2.276 4.764 2.388C4.78 2.5 4.792 2.612 4.8 2.724C5.992 2.66 6.836 2.532 7.332 2.34C7.836 2.14 8.088 1.884 8.088 1.572C8.088 1.292 8.008 1.088 7.848 0.96C7.688 0.832 7.376 0.767999 6.912 0.767999H0.396C0.292 0.767999 0.2 0.732 0.12 0.66C0.04 0.58 0 0.488 0 0.384C0 0.272 0.04 0.18 0.12 0.108C0.2 0.036 0.292 0 0.396 0H6.912C7.616 0 8.12 0.132 8.424 0.396C8.728 0.66 8.88 1.044 8.88 1.548C8.88 2.188 8.548 2.648 7.884 2.928C7.22 3.208 6.196 3.38 4.812 3.444C4.804 4.148 4.688 4.836 4.464 5.508C4.248 6.18 3.944 6.8 3.552 7.368C3.168 7.936 2.704 8.42 2.16 8.82Z" fill="black"/>
</svg>
