<svg width="11" height="9" viewBox="0 0 11 9" fill="none" xmlns="http://www.w3.org/2000/svg">
<path d="M3.06 8.58327C2.98 8.64727 2.884 8.67127 2.772 8.65527C2.668 8.63927 2.584 8.59127 2.52 8.51127C2.456 8.42327 2.432 8.32727 2.448 8.22327C2.464 8.11127 2.512 8.02727 2.592 7.97127C3.208 7.51527 3.716 6.94327 4.116 6.25527C4.516 5.55927 4.792 4.80727 4.944 3.99927H0.372C0.268 3.99927 0.18 3.96327 0.108 3.89127C0.036 3.81927 0 3.73127 0 3.62727C0 3.52327 0.036 3.43527 0.108 3.36327C0.18 3.28327 0.268 3.24327 0.372 3.24327H5.052C5.084 2.93127 5.092 2.61527 5.076 2.29527C5.068 1.97527 5.04 1.65527 4.992 1.33527C4.464 1.43127 3.928 1.51127 3.384 1.57527C2.84 1.63927 2.336 1.68727 1.872 1.71927C1.768 1.72727 1.676 1.69127 1.596 1.61127C1.516 1.53127 1.476 1.43927 1.476 1.33527C1.468 1.23127 1.5 1.14327 1.572 1.07127C1.652 0.991272 1.744 0.947272 1.848 0.939272C2.264 0.923273 2.712 0.891273 3.192 0.843273C3.68 0.787273 4.172 0.719273 4.668 0.639273C5.164 0.559273 5.632 0.467273 6.072 0.363273C6.512 0.259273 6.9 0.147273 7.236 0.0272727C7.34 -0.0127272 7.44 -0.00872728 7.536 0.0392726C7.632 0.0792725 7.696 0.151273 7.728 0.255273C7.768 0.351272 7.764 0.447272 7.716 0.543272C7.676 0.639273 7.604 0.707273 7.5 0.747273C7.268 0.827273 7 0.907273 6.696 0.987273C6.392 1.06727 6.064 1.13927 5.712 1.20327C5.824 1.89127 5.848 2.57127 5.784 3.24327H9.696C9.8 3.24327 9.888 3.28327 9.96 3.36327C10.032 3.43527 10.068 3.52327 10.068 3.62727C10.068 3.73127 10.032 3.81927 9.96 3.89127C9.888 3.96327 9.8 3.99927 9.696 3.99927H5.688C5.536 4.92727 5.232 5.79527 4.776 6.60327C4.328 7.40327 3.756 8.06327 3.06 8.58327Z" fill="black"/>
</svg>
