<svg width="10" height="6" viewBox="0 0 10 6" fill="none" xmlns="http://www.w3.org/2000/svg">
<path d="M0.384 5.016C0.28 5.016 0.188 4.98 0.108 4.908C0.036 4.828 0 4.736 0 4.632C0 4.52 0.036 4.428 0.108 4.356C0.188 4.284 0.28 4.248 0.384 4.248H4.536V0.78H1.824C1.72 0.78 1.628 0.744 1.548 0.672C1.476 0.592 1.44 0.5 1.44 0.396C1.44 0.284 1.476 0.192 1.548 0.12C1.628 0.04 1.72 0 1.824 0H8.004C8.108 0 8.196 0.04 8.268 0.12C8.348 0.192 8.388 0.284 8.388 0.396C8.388 0.5 8.348 0.592 8.268 0.672C8.196 0.744 8.108 0.78 8.004 0.78H5.304V4.248H9.504C9.616 4.248 9.708 4.284 9.78 4.356C9.852 4.428 9.888 4.52 9.888 4.632C9.888 4.736 9.852 4.828 9.78 4.908C9.708 4.98 9.616 5.016 9.504 5.016H0.384Z" fill="black"/>
</svg>
