<svg width="8" height="8" viewBox="0 0 8 8" fill="none" xmlns="http://www.w3.org/2000/svg">
<path d="M1.032 7.944C0.936 7.992 0.836 7.996 0.732 7.956C0.636 7.916 0.568 7.848 0.528 7.752C0.48 7.656 0.476 7.556 0.516 7.452C0.556 7.348 0.624 7.276 0.72 7.236C2.032 6.668 3.152 5.968 4.08 5.136C5.008 4.296 5.668 3.384 6.06 2.4C6.268 1.88 6.296 1.48 6.144 1.2C6 0.911999 5.604 0.767999 4.956 0.767999H0.396C0.292 0.767999 0.2 0.732 0.12 0.66C0.04 0.58 0 0.488 0 0.384C0 0.272 0.04 0.18 0.12 0.108C0.2 0.036 0.292 0 0.396 0H4.956C5.908 0 6.528 0.248 6.816 0.744C7.112 1.232 7.096 1.88 6.768 2.688C6.328 3.776 5.612 4.772 4.62 5.676C3.628 6.572 2.432 7.328 1.032 7.944Z" fill="black"/>
</svg>
