<svg width="11" height="5" viewBox="0 0 11 5" fill="none" xmlns="http://www.w3.org/2000/svg">
<path d="M0.605333 4.66533C0.525333 4.72133 0.429333 4.74133 0.317333 4.72533C0.213333 4.70933 0.129333 4.65733 0.0653333 4.56933C0.00933331 4.48133 -0.0106667 4.38533 0.00533335 4.28133C0.0213333 4.16933 0.0733333 4.08533 0.161333 4.02933C0.625333 3.70133 1.07333 3.31333 1.50533 2.86533C1.93733 2.41733 2.32133 1.96133 2.65733 1.49733C3.00133 1.02533 3.26533 0.597334 3.44933 0.213334C3.49733 0.117334 3.56933 0.0533335 3.66533 0.0213334C3.76933 -0.0106667 3.86933 -0.00666671 3.96533 0.0333333C4.06133 0.0813336 4.12533 0.157334 4.15733 0.261334C4.19733 0.357334 4.19333 0.453334 4.14533 0.549334C4.00133 0.845334 3.80133 1.17733 3.54533 1.54533C3.29733 1.91333 3.01333 2.28933 2.69333 2.67333C2.37333 3.05733 2.03333 3.42533 1.67333 3.77733C1.31333 4.12133 0.957333 4.41733 0.605333 4.66533ZM10.0133 4.55733C9.92533 4.61333 9.82933 4.62933 9.72533 4.60533C9.62133 4.57333 9.54133 4.51333 9.48533 4.42533C9.33333 4.16133 9.13733 3.86933 8.89733 3.54933C8.66533 3.22133 8.40533 2.88933 8.11733 2.55333C7.83733 2.20933 7.54533 1.87733 7.24133 1.55733C6.93733 1.22933 6.64133 0.937334 6.35333 0.681333C6.27333 0.609333 6.23333 0.521333 6.23333 0.417333C6.23333 0.305333 6.26933 0.209333 6.34133 0.129333C6.41333 0.0493335 6.50133 0.00933357 6.60533 0.00933357C6.71733 0.00133367 6.81333 0.0373337 6.89333 0.117334C7.17333 0.381334 7.46533 0.677334 7.76933 1.00533C8.07333 1.32533 8.37333 1.66133 8.66933 2.01333C8.97333 2.36533 9.25333 2.71333 9.50933 3.05733C9.76533 3.40133 9.98133 3.72533 10.1573 4.02933C10.2133 4.11733 10.2253 4.21333 10.1933 4.31733C10.1693 4.42133 10.1093 4.50133 10.0133 4.55733Z" fill="black"/>
</svg>
