<svg width="11" height="6" viewBox="0 0 11 6" fill="none" xmlns="http://www.w3.org/2000/svg">
<path d="M9.6108 4.93855C9.3628 4.69855 9.0468 4.41455 8.6628 4.08655C8.2788 3.75055 7.8708 3.40255 7.4388 3.04255C7.0068 2.68255 6.5868 2.34655 6.1788 2.03455C5.7788 1.71455 5.4348 1.44655 5.1468 1.23055C4.8748 1.02255 4.6308 0.886545 4.4148 0.822545C4.1988 0.750545 3.9748 0.746545 3.7428 0.810545C3.5188 0.866545 3.2468 0.982545 2.9268 1.15855C2.6948 1.28655 2.4268 1.44255 2.1228 1.62655C1.8188 1.81055 1.5268 1.99055 1.2468 2.16655C0.9748 2.33455 0.7548 2.47055 0.5868 2.57455C0.4988 2.63055 0.4028 2.64655 0.2988 2.62255C0.1948 2.59055 0.1148 2.53055 0.0588 2.44255C0.00280001 2.34655 -0.0132 2.25055 0.0108 2.15455C0.0348 2.05055 0.0908 1.97055 0.1788 1.91455C0.3468 1.81055 0.5748 1.67455 0.8628 1.50655C1.1588 1.33055 1.4628 1.15055 1.7748 0.966546C2.0868 0.782546 2.3508 0.630545 2.5668 0.510545C2.9908 0.278545 3.3548 0.126545 3.6588 0.0545455C3.9708 -0.0254545 4.2748 -0.0174546 4.5708 0.0785452C4.8748 0.166545 5.2148 0.350545 5.5908 0.630545C5.8068 0.782545 6.0668 0.978545 6.3708 1.21855C6.6828 1.45855 7.0148 1.71855 7.3668 1.99855C7.7188 2.27855 8.0708 2.56655 8.4228 2.86255C8.7748 3.15055 9.0988 3.42655 9.3948 3.69055C9.6988 3.94655 9.9508 4.17055 10.1508 4.36255C10.2388 4.44255 10.2828 4.53855 10.2828 4.65055C10.2828 4.75455 10.2428 4.84655 10.1628 4.92655C10.0908 5.00655 9.9988 5.04655 9.8868 5.04655C9.7828 5.04655 9.6908 5.01055 9.6108 4.93855Z" fill="black"/>
</svg>
