<svg width="7" height="9" viewBox="0 0 7 9" fill="none" xmlns="http://www.w3.org/2000/svg">
<path d="M6.204 8.016C5.172 8.168 4.3 8.264 3.588 8.304C2.884 8.336 2.308 8.304 1.86 8.208C1.412 8.104 1.052 7.936 0.78 7.704C0.492 7.456 0.288 7.136 0.168 6.744C0.0560001 6.344 0 5.872 0 5.328V0.384C0 0.272 0.036 0.18 0.108 0.108C0.188 0.036 0.28 0 0.384 0C0.496 0 0.588 0.036 0.66 0.108C0.74 0.18 0.78 0.272 0.78 0.384V3.516C1.508 3.34 2.264 3.14 3.048 2.916C3.832 2.684 4.552 2.444 5.208 2.196C5.312 2.156 5.412 2.16 5.508 2.208C5.612 2.248 5.68 2.32 5.712 2.424C5.752 2.528 5.748 2.628 5.7 2.724C5.66 2.82 5.588 2.888 5.484 2.928C4.748 3.176 3.972 3.416 3.156 3.648C2.348 3.88 1.556 4.084 0.78 4.26V5.328C0.78 5.816 0.82 6.196 0.9 6.468C0.988 6.732 1.12 6.944 1.296 7.104C1.504 7.28 1.8 7.404 2.184 7.476C2.576 7.548 3.092 7.564 3.732 7.524C4.372 7.484 5.16 7.392 6.096 7.248C6.2 7.232 6.296 7.256 6.384 7.32C6.472 7.384 6.52 7.468 6.528 7.572C6.544 7.676 6.52 7.772 6.456 7.86C6.4 7.948 6.316 8 6.204 8.016Z" fill="black"/>
</svg>
