<svg width="10" height="9" viewBox="0 0 10 9" fill="none" xmlns="http://www.w3.org/2000/svg">
<path d="M3.26945 8.52C3.16545 8.52 3.07345 8.484 2.99345 8.412C2.92145 8.332 2.88545 8.24 2.88545 8.136C2.88545 8.024 2.92145 7.932 2.99345 7.86C3.07345 7.788 3.16545 7.752 3.26945 7.752C3.60545 7.752 3.86545 7.72 4.04945 7.656C4.23345 7.584 4.36145 7.456 4.43345 7.272C4.50546 7.088 4.54145 6.824 4.54145 6.48V2.808H0.977455C0.873455 2.808 0.781455 2.772 0.701455 2.7C0.629455 2.62 0.593455 2.528 0.593455 2.424C0.593455 2.32 0.629455 2.232 0.701455 2.16C0.781455 2.08 0.873455 2.04 0.977455 2.04H4.54145V0.384C4.54145 0.272 4.57746 0.18 4.64946 0.108C4.72945 0.036 4.82146 0 4.92545 0C5.03745 0 5.12946 0.036 5.20146 0.108C5.27346 0.18 5.30945 0.272 5.30945 0.384V2.04H8.65745C8.76945 2.04 8.86145 2.08 8.93345 2.16C9.00546 2.232 9.04146 2.32 9.04146 2.424C9.04146 2.528 9.00546 2.62 8.93345 2.7C8.86145 2.772 8.76945 2.808 8.65745 2.808H5.30945V6.48C5.30945 7 5.23745 7.412 5.09345 7.716C4.95745 8.012 4.73745 8.22 4.43345 8.34C4.13745 8.46 3.74945 8.52 3.26945 8.52ZM0.581455 7.056C0.493455 7.112 0.397455 7.128 0.293455 7.104C0.189455 7.072 0.109455 7.008 0.0534545 6.912C-0.00254546 6.824 -0.0145455 6.728 0.0174546 6.624C0.0494546 6.52 0.109455 6.44 0.197455 6.384C0.621455 6.144 1.02545 5.856 1.40945 5.52C1.80145 5.184 2.13745 4.832 2.41745 4.464C2.48145 4.376 2.56545 4.324 2.66945 4.308C2.77345 4.292 2.86945 4.316 2.95745 4.38C3.04545 4.436 3.09745 4.52 3.11345 4.632C3.12945 4.736 3.10545 4.832 3.04145 4.92C2.74545 5.312 2.37345 5.704 1.92545 6.096C1.47745 6.48 1.02945 6.8 0.581455 7.056ZM9.62946 6.828C9.54946 6.9 9.45345 6.932 9.34146 6.924C9.23746 6.916 9.14946 6.872 9.07746 6.792C8.90145 6.608 8.68546 6.4 8.42945 6.168C8.17345 5.936 7.90945 5.712 7.63745 5.496C7.36545 5.28 7.11345 5.104 6.88145 4.968C6.79346 4.904 6.73745 4.82 6.71345 4.716C6.69745 4.612 6.71745 4.516 6.77345 4.428C6.83745 4.34 6.92145 4.284 7.02545 4.26C7.12946 4.236 7.22546 4.256 7.31346 4.32C7.55345 4.48 7.82145 4.676 8.11745 4.908C8.41345 5.132 8.69745 5.364 8.96945 5.604C9.24945 5.844 9.48145 6.064 9.66545 6.264C9.73746 6.344 9.76945 6.44 9.76145 6.552C9.76145 6.664 9.71745 6.756 9.62946 6.828Z" fill="black"/>
</svg>
