<svg width="7" height="10" viewBox="0 0 7 10" fill="none" xmlns="http://www.w3.org/2000/svg">
<path d="M4.7868 9.32182C4.6828 9.32182 4.5908 9.28182 4.5108 9.20182C4.4388 9.12982 4.4028 9.04182 4.4028 8.93782V3.27382C3.8188 3.82582 3.1988 4.35782 2.5428 4.86982C1.8868 5.37382 1.2348 5.82182 0.5868 6.21382C0.4988 6.26982 0.4028 6.28582 0.2988 6.26182C0.1948 6.23782 0.1148 6.17782 0.0588 6.08182C0.00279996 5.99382 -0.0132 5.89782 0.0108 5.79382C0.0348 5.68982 0.0948 5.60982 0.1908 5.55382C0.9748 5.07382 1.7388 4.53782 2.4828 3.94582C3.2268 3.35382 3.9108 2.73382 4.5348 2.08582C5.1668 1.43782 5.6988 0.797818 6.1308 0.165818C6.1948 0.0778181 6.2788 0.0258181 6.3828 0.00981829C6.4868 -0.0141819 6.5828 0.0058181 6.6708 0.0698182C6.7588 0.125818 6.8108 0.209818 6.8268 0.321819C6.8508 0.425818 6.8308 0.521818 6.7668 0.609818C6.5588 0.913818 6.3188 1.22582 6.0468 1.54582C5.7748 1.86582 5.4828 2.18982 5.1708 2.51782V8.93782C5.1708 9.04182 5.1348 9.12982 5.0628 9.20182C4.9908 9.28182 4.8988 9.32182 4.7868 9.32182Z" fill="black"/>
</svg>
