<svg width="8" height="10" viewBox="0 0 8 10" fill="none" xmlns="http://www.w3.org/2000/svg">
<path d="M0.132 9.6252C0.0519999 9.5532 0.0079999 9.4652 0 9.3612C0 9.2572 0.036 9.1652 0.108 9.0852C0.772 8.3732 1.34 7.5332 1.812 6.5652C2.292 5.5892 2.664 4.5412 2.928 3.4212C2.584 3.4372 2.236 3.4532 1.884 3.4692C1.532 3.4852 1.224 3.5012 0.96 3.5172C0.696 3.5332 0.516 3.5452 0.42 3.5532C0.316 3.5612 0.224 3.5292 0.144 3.4572C0.0639999 3.3772 0.0199999 3.2852 0.0119998 3.1812C0.00399995 3.0692 0.036 2.9772 0.108 2.9052C0.188 2.8252 0.28 2.7812 0.384 2.7732C0.488 2.7652 0.684 2.7572 0.972 2.7492C1.26 2.7332 1.592 2.7172 1.968 2.7012C2.352 2.6852 2.724 2.6692 3.084 2.6532C3.148 2.2772 3.204 1.9012 3.252 1.5252C3.3 1.1412 3.332 0.753201 3.348 0.3612C3.356 0.2572 3.396 0.1692 3.468 0.0972002C3.548 0.0252001 3.64 -0.00679993 3.744 0.00119997C3.856 0.00119997 3.948 0.0412002 4.02 0.121201C4.092 0.193201 4.124 0.285201 4.116 0.397201C4.084 1.1412 4 1.8852 3.864 2.6292C4.04 2.6212 4.188 2.6172 4.308 2.6172C4.436 2.6092 4.524 2.6012 4.572 2.5932C5.372 2.5692 5.98 2.6732 6.396 2.9052C6.82 3.1292 7.088 3.4972 7.2 4.0092C7.312 4.5212 7.296 5.1972 7.152 6.0372C6.992 6.9812 6.756 7.7132 6.444 8.2332C6.14 8.7452 5.756 9.0852 5.292 9.2532C4.828 9.4132 4.276 9.4412 3.636 9.3372C3.532 9.3212 3.448 9.2692 3.384 9.1812C3.32 9.0932 3.296 8.9972 3.312 8.8932C3.328 8.7812 3.38 8.6972 3.468 8.6412C3.556 8.5772 3.652 8.5532 3.756 8.5692C4.068 8.6252 4.36 8.6412 4.632 8.6172C4.904 8.5852 5.152 8.4852 5.376 8.3172C5.6 8.1412 5.796 7.8612 5.964 7.4772C6.132 7.0932 6.272 6.5692 6.384 5.9052C6.504 5.1932 6.528 4.6532 6.456 4.2852C6.392 3.9092 6.208 3.6532 5.904 3.5172C5.608 3.3812 5.172 3.3212 4.596 3.3372C4.54 3.3452 4.432 3.3532 4.272 3.3612C4.112 3.3612 3.924 3.3692 3.708 3.3852C3.428 4.6172 3.024 5.7772 2.496 6.8652C1.976 7.9452 1.368 8.8612 0.672 9.6132C0.6 9.6932 0.512 9.7332 0.408 9.7332C0.304 9.7332 0.212 9.6972 0.132 9.6252Z" fill="black"/>
</svg>
