<svg width="9" height="10" viewBox="0 0 9 10" fill="none" xmlns="http://www.w3.org/2000/svg">
<path d="M2.34 9.0108C2.252 9.0668 2.156 9.0828 2.052 9.0588C1.948 9.0428 1.864 8.9908 1.8 8.9028C1.744 8.8148 1.728 8.7188 1.752 8.6148C1.776 8.5108 1.828 8.4308 1.908 8.3748C2.86 7.7428 3.624 6.9548 4.2 6.0108C4.776 5.0668 5.14 4.0108 5.292 2.8428H2.496C2.248 3.2988 1.968 3.7428 1.656 4.1748C1.344 4.6068 1.012 4.9988 0.66 5.3508C0.58 5.4308 0.488 5.4708 0.384 5.4708C0.28 5.4628 0.188 5.4228 0.108 5.3508C0.036 5.2708 0 5.1788 0 5.0748C0 4.9708 0.04 4.8788 0.12 4.7988C0.424 4.4948 0.716 4.1548 0.996 3.7788C1.276 3.3948 1.532 2.9988 1.764 2.5908C2.004 2.1748 2.208 1.7708 2.376 1.3788C2.552 0.9788 2.68 0.6188 2.76 0.2988C2.792 0.1868 2.852 0.1068 2.94 0.0588002C3.036 0.00279996 3.136 -0.0132001 3.24 0.0108001C3.344 0.0428002 3.424 0.1028 3.48 0.1908C3.536 0.2788 3.548 0.3748 3.516 0.478801C3.372 0.9668 3.164 1.5028 2.892 2.0868H8.508C8.62 2.0868 8.712 2.1228 8.784 2.1948C8.856 2.2668 8.892 2.3548 8.892 2.4588C8.892 2.5628 8.856 2.6548 8.784 2.7348C8.712 2.8068 8.62 2.8428 8.508 2.8428H6.048C5.888 4.1468 5.492 5.3308 4.86 6.3948C4.228 7.4508 3.388 8.3228 2.34 9.0108Z" fill="black"/>
</svg>
