<svg width="9" height="10" viewBox="0 0 9 10" fill="none" xmlns="http://www.w3.org/2000/svg">
<path d="M5.12533 9.3528C5.02133 9.3608 4.92533 9.3328 4.83733 9.2688C4.75733 9.2048 4.70933 9.1208 4.69333 9.0168C4.67733 8.8648 4.64533 8.6288 4.59733 8.3088C4.54933 7.9808 4.49333 7.5928 4.42933 7.1448C4.37333 6.6968 4.30933 6.2248 4.23733 5.7288C3.65333 5.7928 3.09333 5.8568 2.55733 5.9208C2.02133 5.9848 1.56133 6.0408 1.17733 6.0888C0.793333 6.1368 0.541333 6.1688 0.421333 6.1848C0.317333 6.1928 0.225333 6.1648 0.145333 6.1008C0.0653334 6.0368 0.0173334 5.9528 0.00133334 5.8488C-0.00666668 5.7368 0.0213333 5.6408 0.0853333 5.5608C0.149333 5.4808 0.233333 5.4368 0.337333 5.4288C0.489333 5.4128 0.753333 5.3848 1.12933 5.3448C1.51333 5.2968 1.96533 5.2408 2.48533 5.1768C3.01333 5.1128 3.56133 5.0488 4.12933 4.9848L3.85333 3.0408C3.46133 3.0888 3.08133 3.1328 2.71333 3.1728C2.35333 3.2128 2.03733 3.2488 1.76533 3.2808C1.49333 3.3048 1.29333 3.3248 1.16533 3.3408C1.06133 3.3488 0.973333 3.3248 0.901333 3.2688C0.829333 3.2048 0.785333 3.1208 0.769333 3.0168C0.761333 2.9048 0.789333 2.8088 0.853333 2.7288C0.917333 2.6488 1.00133 2.6048 1.10533 2.5968C1.22533 2.5808 1.41733 2.5608 1.68133 2.5368C1.95333 2.5048 2.26533 2.4688 2.61733 2.4288C2.97733 2.3888 3.35333 2.3488 3.74533 2.3088L3.48133 0.4368C3.47333 0.3248 3.50133 0.2288 3.56533 0.1488C3.62933 0.0607999 3.71333 0.0128 3.81733 0.00480014C3.92933 -0.0112001 4.02533 0.0127998 4.10533 0.0767999C4.19333 0.1408 4.24133 0.2288 4.24933 0.3408C4.26533 0.4768 4.29733 0.7128 4.34533 1.0488C4.39333 1.3848 4.44933 1.7768 4.51333 2.2248C5.05733 2.1608 5.56533 2.1048 6.03733 2.0568C6.50933 2.0008 6.85333 1.9568 7.06933 1.9248C7.18133 1.9088 7.27733 1.9368 7.35733 2.0088C7.43733 2.0728 7.48133 2.1608 7.48933 2.2728C7.49733 2.3768 7.46933 2.4688 7.40533 2.5488C7.34133 2.6208 7.25333 2.6648 7.14133 2.6808C6.94133 2.6968 6.60533 2.7328 6.13333 2.7888C5.66933 2.8368 5.16133 2.8928 4.60933 2.9568L4.88533 4.9008C5.42933 4.8288 5.94533 4.7648 6.43333 4.7088C6.92133 4.6528 7.34133 4.6008 7.69333 4.5528C8.05333 4.5048 8.30533 4.4728 8.44933 4.4568C8.55333 4.4408 8.64533 4.4688 8.72533 4.5408C8.81333 4.6048 8.86133 4.6888 8.86933 4.7928C8.88533 4.8968 8.85733 4.9888 8.78533 5.0688C8.72133 5.1488 8.63733 5.1968 8.53333 5.2128C8.46133 5.2208 8.25333 5.2448 7.90933 5.2848C7.56533 5.3248 7.13733 5.3768 6.62533 5.4408C6.11333 5.4968 5.56933 5.5608 4.99333 5.6328C5.06533 6.1448 5.13333 6.6248 5.19733 7.0728C5.26133 7.5208 5.31733 7.9088 5.36533 8.2368C5.41333 8.5568 5.44533 8.7808 5.46133 8.9088C5.47733 9.0128 5.45333 9.1088 5.38933 9.1968C5.32533 9.2848 5.23733 9.3368 5.12533 9.3528Z" fill="black"/>
</svg>
