<svg width="8" height="6" viewBox="0 0 8 6" fill="none" xmlns="http://www.w3.org/2000/svg">
<path d="M0.384 5.808C0.28 5.808 0.188 5.772 0.108 5.7C0.036 5.62 0 5.528 0 5.424C0 5.312 0.036 5.22 0.108 5.148C0.188 5.068 0.28 5.028 0.384 5.028H4.644C5.228 5.028 5.668 4.972 5.964 4.86C6.268 4.748 6.476 4.54 6.588 4.236C6.7 3.932 6.756 3.488 6.756 2.904C6.756 2.32 6.7 1.876 6.588 1.572C6.476 1.268 6.268 1.06 5.964 0.948C5.668 0.836 5.228 0.78 4.644 0.78H0.528C0.424 0.78 0.332 0.74 0.252 0.66C0.18 0.58 0.144 0.488 0.144 0.384C0.144 0.28 0.18 0.192 0.252 0.12C0.332 0.04 0.424 0 0.528 0H4.644C5.388 0 5.968 0.0839999 6.384 0.252C6.808 0.42 7.104 0.716 7.272 1.14C7.44 1.556 7.524 2.144 7.524 2.904C7.524 3.656 7.44 4.244 7.272 4.668C7.104 5.092 6.808 5.388 6.384 5.556C5.968 5.724 5.388 5.808 4.644 5.808H0.384Z" fill="black"/>
</svg>
