<svg width="8" height="10" viewBox="0 0 8 10" fill="none" xmlns="http://www.w3.org/2000/svg">
<path d="M0.546 9.402C0.442 9.442 0.338 9.442 0.234 9.402C0.138 9.37 0.0700001 9.302 0.03 9.198C-0.00999999 9.102 -0.00999999 9.006 0.03 8.91C0.0700001 8.806 0.138 8.734 0.234 8.694C1.626 8.086 2.826 7.326 3.834 6.414C4.842 5.502 5.646 4.454 6.246 3.27C6.446 2.878 6.478 2.574 6.342 2.358C6.214 2.142 5.914 2.034 5.442 2.034H3.606C3.214 2.562 2.77 3.082 2.274 3.594C1.778 4.098 1.278 4.526 0.774 4.878C0.686 4.934 0.59 4.954 0.486 4.938C0.382 4.922 0.298 4.87 0.234 4.782C0.178 4.694 0.158 4.598 0.174 4.494C0.19 4.382 0.242 4.298 0.33 4.242C0.818 3.906 1.286 3.514 1.734 3.066C2.182 2.618 2.582 2.15 2.934 1.662C3.294 1.166 3.578 0.69 3.786 0.234C3.826 0.13 3.894 0.062 3.99 0.03C4.094 -0.00999999 4.198 -0.00999999 4.302 0.03C4.398 0.0780003 4.462 0.154 4.494 0.258C4.534 0.354 4.534 0.45 4.494 0.546C4.382 0.778 4.254 1.022 4.11 1.278H5.442C6.258 1.278 6.798 1.49 7.062 1.914C7.334 2.338 7.29 2.906 6.93 3.618C6.306 4.85 5.45 5.962 4.362 6.954C3.282 7.946 2.01 8.762 0.546 9.402Z" fill="black"/>
</svg>
