<svg width="10" height="7" viewBox="0 0 10 7" fill="none" xmlns="http://www.w3.org/2000/svg">
<path d="M6.66 6.615C6.564 6.663 6.464 6.671 6.36 6.639C6.264 6.607 6.188 6.543 6.132 6.447C6.004 6.215 5.84 5.947 5.64 5.643C5.44 5.331 5.224 5.011 4.992 4.683C4.76 4.347 4.528 4.031 4.296 3.735C4.064 3.439 3.852 3.191 3.66 2.991C3.588 2.911 3.552 2.819 3.552 2.715C3.552 2.603 3.592 2.511 3.672 2.439C3.752 2.367 3.844 2.331 3.948 2.331C4.06 2.331 4.152 2.375 4.224 2.463C4.384 2.639 4.552 2.843 4.728 3.075C4.912 3.299 5.096 3.539 5.28 3.795C6.32 3.395 7.076 3.011 7.548 2.643C8.02 2.275 8.256 1.899 8.256 1.515C8.256 1.243 8.156 1.043 7.956 0.915C7.764 0.787 7.428 0.731 6.948 0.747L0.408 0.999C0.304 0.999 0.212 0.963 0.132 0.891C0.052 0.819 0.00800002 0.731 0 0.627C0 0.515 0.036 0.423 0.108 0.351C0.18 0.271 0.268 0.227 0.372 0.219L6.924 0.00300004C7.692 -0.0210001 8.236 0.0989998 8.556 0.363C8.876 0.619 9.036 0.999 9.036 1.503C9.036 2.135 8.74 2.671 8.148 3.111C7.556 3.551 6.744 3.971 5.712 4.371C6.192 5.035 6.56 5.607 6.816 6.087C6.872 6.183 6.884 6.283 6.852 6.387C6.82 6.483 6.756 6.559 6.66 6.615Z" fill="black"/>
</svg>
