<svg width="8" height="8" viewBox="0 0 8 8" fill="none" xmlns="http://www.w3.org/2000/svg">
<path d="M0.5988 7.878C0.5028 7.934 0.4028 7.95 0.2988 7.926C0.2028 7.894 0.1228 7.834 0.0588 7.746C0.00279996 7.658 -0.0132 7.562 0.0108 7.458C0.0348 7.354 0.0908 7.274 0.1788 7.218C1.0108 6.714 1.7868 6.146 2.5068 5.514C3.2348 4.874 3.8908 4.194 4.4748 3.474C4.1148 3.218 3.7548 2.982 3.3948 2.766C3.0428 2.542 2.7108 2.354 2.3988 2.202C2.3028 2.154 2.2348 2.082 2.1948 1.986C2.1628 1.882 2.1708 1.782 2.2188 1.686C2.2588 1.59 2.3308 1.526 2.4348 1.494C2.5388 1.462 2.6388 1.47 2.7348 1.518C3.0628 1.67 3.4188 1.866 3.8028 2.106C4.1868 2.338 4.5668 2.594 4.9428 2.874C5.5748 2.026 6.1028 1.142 6.5268 0.222C6.5748 0.125999 6.6468 0.0619996 6.7428 0.03C6.8468 -0.00999999 6.9468 -0.00999999 7.0428 0.03C7.1388 0.0699999 7.2028 0.142 7.2348 0.246C7.2748 0.35 7.2748 0.45 7.2348 0.546C6.8028 1.474 6.2388 2.394 5.5428 3.306C5.9428 3.602 6.3108 3.898 6.6468 4.194C6.9908 4.49 7.2788 4.762 7.5108 5.01C7.5908 5.09 7.6268 5.186 7.6188 5.298C7.6188 5.402 7.5788 5.49 7.4988 5.562C7.4188 5.642 7.3228 5.682 7.2108 5.682C7.1068 5.674 7.0148 5.63 6.9348 5.55C6.7028 5.302 6.4228 5.038 6.0948 4.758C5.7748 4.47 5.4348 4.19 5.0748 3.918C4.4428 4.678 3.7428 5.398 2.9748 6.078C2.2148 6.758 1.4228 7.358 0.5988 7.878Z" fill="black"/>
</svg>
