<svg width="6" height="10" viewBox="0 0 6 10" fill="none" xmlns="http://www.w3.org/2000/svg">
<path d="M4.7952 9.24327C4.4112 8.93127 3.9592 8.61527 3.4392 8.29527C2.9192 7.96727 2.3832 7.65527 1.8312 7.35927C1.2872 7.05527 0.7752 6.79927 0.2952 6.59127C0.1992 6.55127 0.1312 6.48327 0.0911998 6.38727C0.0592 6.28327 0.0632001 6.17927 0.1032 6.07527C0.1512 5.97927 0.2232 5.91527 0.3192 5.88327C0.4232 5.84327 0.5232 5.84327 0.6192 5.88327C1.1152 6.10727 1.6472 6.37927 2.2152 6.69927C2.7832 7.01127 3.3352 7.33527 3.8712 7.67127C4.4152 8.00727 4.8832 8.33127 5.2752 8.64327C5.3632 8.70727 5.4112 8.79527 5.4192 8.90727C5.4272 9.01127 5.3992 9.10327 5.3352 9.18327C5.2712 9.26327 5.1872 9.30727 5.0832 9.31527C4.9792 9.33127 4.8832 9.30727 4.7952 9.24327ZM3.7152 5.13927C3.5232 5.01127 3.2792 4.86727 2.9832 4.70727C2.6872 4.54727 2.3712 4.38727 2.0352 4.22727C1.6992 4.06727 1.3752 3.92327 1.0632 3.79527C0.7512 3.65927 0.4872 3.55527 0.2712 3.48327C0.1672 3.44327 0.0911999 3.37927 0.0432001 3.29127C-0.00480001 3.19527 -0.0128 3.09527 0.0192 2.99127C0.0592 2.88727 0.1232 2.81127 0.2112 2.76327C0.3072 2.70727 0.4072 2.69927 0.5112 2.73927C0.7512 2.81927 1.0352 2.93527 1.3632 3.08727C1.6912 3.23127 2.0312 3.38727 2.3832 3.55527C2.7352 3.72327 3.0632 3.89127 3.3672 4.05927C3.6792 4.21927 3.9352 4.36327 4.1352 4.49127C4.2232 4.54727 4.2792 4.62727 4.3032 4.73127C4.3272 4.83527 4.3072 4.93127 4.2432 5.01927C4.1872 5.10727 4.1072 5.16327 4.0032 5.18727C3.8992 5.21127 3.8032 5.19527 3.7152 5.13927ZM4.4832 2.49927C4.2992 2.36327 4.0592 2.21527 3.7632 2.05527C3.4752 1.88727 3.1672 1.71927 2.8392 1.55127C2.5112 1.37527 2.1912 1.21927 1.8792 1.08327C1.5752 0.939273 1.3152 0.827273 1.0992 0.747273C1.0032 0.707273 0.9312 0.643273 0.8832 0.555273C0.8432 0.459273 0.8392 0.359273 0.8712 0.255273C0.9112 0.151273 0.9792 0.0792731 1.0752 0.0392731C1.1712 -0.00872719 1.2712 -0.0127274 1.3752 0.0272726C1.5912 0.107273 1.8592 0.223273 2.1792 0.375273C2.5072 0.527273 2.8472 0.695273 3.1992 0.879273C3.5512 1.06327 3.8792 1.24327 4.1832 1.41927C4.4952 1.59527 4.7432 1.74727 4.9272 1.87527C5.0152 1.93127 5.0672 2.01527 5.0832 2.12727C5.1072 2.23127 5.0872 2.32727 5.0232 2.41527C4.9592 2.49527 4.8752 2.54727 4.7712 2.57127C4.6672 2.58727 4.5712 2.56327 4.4832 2.49927Z" fill="black"/>
</svg>
