<svg width="10" height="8" viewBox="0 0 10 8" fill="none" xmlns="http://www.w3.org/2000/svg">
<path d="M8.808 6.972C7.832 7.084 7.056 7.104 6.48 7.032C5.904 6.952 5.464 6.78 5.16 6.516C4.904 6.284 4.728 6.004 4.632 5.676C4.536 5.34 4.488 4.912 4.488 4.392V3.6H0.384C0.28 3.6 0.188 3.564 0.108 3.492C0.036 3.42 0 3.332 0 3.228C0 3.116 0.036 3.024 0.108 2.952C0.188 2.88 0.28 2.844 0.384 2.844H4.488V0.756H2.148C2.044 0.756 1.952 0.72 1.872 0.648C1.8 0.568 1.764 0.476 1.764 0.372C1.764 0.268 1.8 0.18 1.872 0.108C1.952 0.036 2.044 0 2.148 0H7.332C7.444 0 7.536 0.036 7.608 0.108C7.68 0.18 7.716 0.268 7.716 0.372C7.716 0.476 7.68 0.568 7.608 0.648C7.536 0.72 7.444 0.756 7.332 0.756H5.268V2.844H9.084C9.188 2.844 9.276 2.88 9.348 2.952C9.42 3.024 9.456 3.116 9.456 3.228C9.456 3.332 9.42 3.42 9.348 3.492C9.276 3.564 9.188 3.6 9.084 3.6H5.268V4.392C5.268 4.816 5.296 5.144 5.352 5.376C5.416 5.6 5.528 5.784 5.688 5.928C5.904 6.112 6.252 6.232 6.732 6.288C7.22 6.336 7.884 6.308 8.724 6.204C8.836 6.188 8.932 6.216 9.012 6.288C9.1 6.352 9.148 6.436 9.156 6.54C9.172 6.644 9.144 6.74 9.072 6.828C9.008 6.908 8.92 6.956 8.808 6.972Z" fill="black"/>
</svg>
