<svg width="10" height="8" viewBox="0 0 10 8" fill="none" xmlns="http://www.w3.org/2000/svg">
<path d="M8.8812 7.23927C8.7852 7.28727 8.6852 7.29527 8.5812 7.26327C8.4852 7.23127 8.4092 7.16727 8.3532 7.07127C8.2492 6.89527 8.1132 6.69127 7.9452 6.45927C7.7852 6.22727 7.6092 5.98327 7.4172 5.72727C6.9532 5.80727 6.4132 5.89127 5.7972 5.97927C5.1892 6.06727 4.5572 6.15127 3.9012 6.23127C3.2452 6.31127 2.6132 6.38327 2.0052 6.44727C1.3972 6.51127 0.8652 6.55927 0.4092 6.59127C0.3052 6.59927 0.2132 6.56727 0.1332 6.49527C0.0532 6.42327 0.00919996 6.33527 0.00120001 6.23127C-0.00680001 6.11927 0.0252 6.02327 0.0971999 5.94327C0.1692 5.86327 0.2572 5.81927 0.3612 5.81127C0.5132 5.80327 0.6732 5.79127 0.8412 5.77527C1.0172 5.75927 1.2012 5.74727 1.3932 5.73927C1.6732 5.36327 1.9572 4.93927 2.2452 4.46727C2.5332 3.98727 2.8092 3.49527 3.0732 2.99127C3.3452 2.47927 3.5932 1.98727 3.8172 1.51527C4.0412 1.04327 4.2252 0.623273 4.3692 0.255273C4.4092 0.151273 4.4772 0.0792731 4.5732 0.0392731C4.6692 -0.00872719 4.7692 -0.0127274 4.8732 0.0272726C4.9692 0.067273 5.0372 0.135273 5.0772 0.231273C5.1252 0.327273 5.1292 0.427273 5.0892 0.531273C4.9052 0.995273 4.6652 1.52727 4.3692 2.12727C4.0732 2.72727 3.7492 3.33527 3.3972 3.95127C3.0452 4.56727 2.6892 5.13527 2.3292 5.65527C2.8412 5.60727 3.3732 5.55527 3.9252 5.49927C4.4772 5.43527 5.0132 5.37127 5.5332 5.30727C6.0532 5.23527 6.5212 5.16727 6.9372 5.10327C6.7052 4.81527 6.4692 4.53527 6.2292 4.26327C5.9972 3.98327 5.7772 3.73927 5.5692 3.53127C5.4972 3.45927 5.4612 3.37127 5.4612 3.26727C5.4692 3.15527 5.5132 3.06327 5.5932 2.99127C5.6732 2.91927 5.7652 2.88327 5.8692 2.88327C5.9732 2.88327 6.0612 2.92327 6.1332 3.00327C6.3492 3.23527 6.5892 3.51127 6.8532 3.83127C7.1252 4.15127 7.4012 4.48727 7.6812 4.83927C7.9612 5.19127 8.2172 5.53127 8.4492 5.85927C8.6892 6.18727 8.8852 6.47127 9.0372 6.71127C9.0932 6.79927 9.1012 6.89527 9.0612 6.99927C9.0292 7.10327 8.9692 7.18327 8.8812 7.23927Z" fill="black"/>
</svg>
