<svg width="9" height="7" viewBox="0 0 9 7" fill="none" xmlns="http://www.w3.org/2000/svg">
<path d="M0.8868 6.856C0.7828 6.888 0.6828 6.884 0.5868 6.844C0.4988 6.796 0.4348 6.72 0.3948 6.616C0.3628 6.52 0.3668 6.424 0.4068 6.328C0.4468 6.224 0.5188 6.156 0.6228 6.124C1.2948 5.884 1.9668 5.592 2.6388 5.248C3.3188 4.904 3.9668 4.532 4.5828 4.132C5.2068 3.724 5.7708 3.308 6.2748 2.884C6.7868 2.46 7.2068 2.044 7.5348 1.636C7.5988 1.548 7.6828 1.5 7.7868 1.492C7.8988 1.484 7.9948 1.512 8.0748 1.576C8.1628 1.648 8.2108 1.736 8.2188 1.84C8.2268 1.944 8.1988 2.04 8.1348 2.128C7.7988 2.536 7.3588 2.964 6.8148 3.412C6.2788 3.86 5.6788 4.3 5.0148 4.732C4.3508 5.164 3.6628 5.564 2.9508 5.932C2.2468 6.3 1.5588 6.608 0.8868 6.856ZM2.3028 2.248C2.1108 2.08 1.8908 1.904 1.6428 1.72C1.3948 1.528 1.1428 1.348 0.8868 1.18C0.6388 1.004 0.4068 0.852 0.1908 0.724C0.1028 0.668 0.0428 0.588 0.0107999 0.484C-0.0132 0.38 0.00280005 0.284 0.0588 0.196C0.1148 0.108 0.1948 0.0480001 0.2988 0.016C0.4108 -0.016 0.5108 0 0.5988 0.0640001C0.8228 0.208 1.0708 0.376 1.3428 0.568C1.6148 0.76 1.8788 0.952 2.1348 1.144C2.3908 1.336 2.6028 1.5 2.7708 1.636C2.8588 1.7 2.9068 1.784 2.9148 1.888C2.9308 1.992 2.9068 2.088 2.8428 2.176C2.7788 2.256 2.6908 2.308 2.5788 2.332C2.4748 2.348 2.3828 2.32 2.3028 2.248Z" fill="black"/>
</svg>
