<svg width="10" height="10" viewBox="0 0 10 10" fill="none" xmlns="http://www.w3.org/2000/svg">
<path d="M1.596 9.0168C1.5 9.0648 1.4 9.0688 1.296 9.0288C1.192 8.9968 1.12 8.9328 1.08 8.8368C1.032 8.7408 1.024 8.6408 1.056 8.5368C1.096 8.4328 1.164 8.3608 1.26 8.3208C2.212 7.8808 2.94 7.3008 3.444 6.5808C3.956 5.8528 4.276 4.9448 4.404 3.8568H0.384C0.28 3.8568 0.188 3.8208 0.108 3.7488C0.036 3.6688 0 3.5768 0 3.4728C0 3.3608 0.036 3.2688 0.108 3.1968C0.188 3.1168 0.28 3.0768 0.384 3.0768H4.464V2.6808C4.464 2.2888 4.46 1.8928 4.452 1.4928C4.452 1.0848 4.432 0.7328 4.392 0.4368C4.384 0.3248 4.412 0.2288 4.476 0.1488C4.54 0.0607999 4.624 0.0128 4.728 0.00480014C4.832 -0.0112001 4.924 0.0127998 5.004 0.0767999C5.092 0.1408 5.144 0.2288 5.16 0.3408C5.2 0.6608 5.224 1.0328 5.232 1.4568C5.24 1.8728 5.244 2.2848 5.244 2.6928C5.244 2.7568 5.24 2.8208 5.232 2.8848C5.232 2.9488 5.232 3.0128 5.232 3.0768H8.736C8.848 3.0768 8.94 3.1168 9.012 3.1968C9.092 3.2688 9.132 3.3608 9.132 3.4728C9.132 3.5768 9.092 3.6688 9.012 3.7488C8.94 3.8208 8.848 3.8568 8.736 3.8568H5.184C4.912 6.3128 3.716 8.0328 1.596 9.0168Z" fill="black"/>
</svg>
