<svg width="11" height="11" viewBox="0 0 11 11" fill="none" xmlns="http://www.w3.org/2000/svg">
<path d="M5.1552 10.0308C5.0512 10.0308 4.9632 9.9948 4.8912 9.9228C4.8192 9.8508 4.7832 9.7628 4.7832 9.6588V5.5188C4.3752 5.7828 3.9232 6.0468 3.4272 6.3108C2.9392 6.5668 2.4432 6.8068 1.9392 7.0308C1.4352 7.2468 0.9512 7.4308 0.4872 7.5828C0.3912 7.6148 0.2952 7.6068 0.1992 7.5588C0.1112 7.5108 0.0512 7.4348 0.0192 7.3308C-0.0128 7.2268 -0.00480001 7.1308 0.0432 7.0428C0.0912 6.9468 0.1672 6.8828 0.2712 6.8508C0.7192 6.7148 1.2072 6.5308 1.7352 6.2988C2.2632 6.0668 2.7792 5.8148 3.2832 5.5428C3.7872 5.2708 4.2392 5.0028 4.6392 4.7388C5.0392 4.4668 5.3352 4.2308 5.5272 4.0308C5.7432 3.7988 5.8072 3.5908 5.7192 3.4068C5.6392 3.2148 5.4312 3.1188 5.0952 3.1188H2.0472C1.9432 3.1188 1.8552 3.0828 1.7832 3.0108C1.7112 2.9388 1.6752 2.8508 1.6752 2.7468C1.6752 2.6348 1.7112 2.5468 1.7832 2.4828C1.8552 2.4108 1.9432 2.3748 2.0472 2.3748H5.1192C5.6072 2.3748 5.9712 2.4908 6.2112 2.7228C6.4592 2.9468 6.5712 3.2268 6.5472 3.5628C6.5232 3.8908 6.3552 4.2148 6.0432 4.5348C5.9152 4.6788 5.7472 4.8268 5.5392 4.9788V9.6588C5.5392 9.7628 5.5032 9.8508 5.4312 9.9228C5.3592 9.9948 5.2672 10.0308 5.1552 10.0308ZM6.1272 1.2468C5.6632 1.1988 5.1552 1.1308 4.6032 1.0428C4.0512 0.9468 3.5512 0.8468 3.1032 0.7428C2.9992 0.7188 2.9192 0.6628 2.8632 0.5748C2.8152 0.4868 2.8032 0.3908 2.8272 0.2868C2.8512 0.1828 2.9072 0.1068 2.9952 0.0587995C3.0832 0.00279979 3.1792 -0.0132 3.2832 0.0108002C3.5792 0.0828002 3.8992 0.1508 4.2432 0.2148C4.5872 0.2788 4.9272 0.3348 5.2632 0.3828C5.6072 0.4228 5.9152 0.4588 6.1872 0.4908C6.2912 0.4988 6.3752 0.5428 6.4392 0.6228C6.5112 0.7028 6.5432 0.7948 6.5352 0.8988C6.5272 1.0028 6.4832 1.0908 6.4032 1.1628C6.3232 1.2268 6.2312 1.2548 6.1272 1.2468ZM9.5712 7.5228C9.3872 7.4188 9.1392 7.2908 8.8272 7.1388C8.5152 6.9868 8.1952 6.8348 7.8672 6.6828C7.5392 6.5308 7.2512 6.4068 7.0032 6.3108C6.9072 6.2708 6.8392 6.2028 6.7992 6.1068C6.7672 6.0108 6.7712 5.9148 6.8112 5.8188C6.8512 5.7228 6.9192 5.6548 7.0152 5.6148C7.1112 5.5748 7.2072 5.5748 7.3032 5.6148C7.5752 5.7268 7.8752 5.8588 8.2032 6.0108C8.5312 6.1628 8.8472 6.3148 9.1512 6.4668C9.4632 6.6108 9.7192 6.7388 9.9192 6.8508C10.0152 6.8988 10.0792 6.9748 10.1112 7.0788C10.1432 7.1748 10.1352 7.2668 10.0872 7.3548C10.0392 7.4508 9.9632 7.5148 9.8592 7.5468C9.7632 7.5788 9.6672 7.5708 9.5712 7.5228Z" fill="black"/>
</svg>
