<svg width="10" height="6" viewBox="0 0 10 6" fill="none" xmlns="http://www.w3.org/2000/svg">
<path d="M0.384 5.136C0.28 5.136 0.188 5.1 0.108 5.028C0.036 4.948 0 4.856 0 4.752C0 4.64 0.036 4.548 0.108 4.476C0.188 4.404 0.28 4.368 0.384 4.368H8.652C8.756 4.368 8.844 4.404 8.916 4.476C8.996 4.548 9.036 4.64 9.036 4.752C9.036 4.856 8.996 4.948 8.916 5.028C8.844 5.1 8.756 5.136 8.652 5.136H0.384ZM1.848 0.78C1.744 0.78 1.652 0.74 1.572 0.66C1.5 0.58 1.464 0.488 1.464 0.384C1.464 0.28 1.5 0.192 1.572 0.12C1.652 0.04 1.744 0 1.848 0H7.188C7.3 0 7.392 0.04 7.464 0.12C7.544 0.192 7.584 0.28 7.584 0.384C7.584 0.488 7.544 0.58 7.464 0.66C7.392 0.74 7.3 0.78 7.188 0.78H1.848Z" fill="black"/>
</svg>
