<svg width="8" height="8" viewBox="0 0 8 8" fill="none" xmlns="http://www.w3.org/2000/svg">
<path d="M0.593333 7.43127C0.505333 7.48727 0.409333 7.50327 0.305333 7.47927C0.201333 7.45527 0.121333 7.39927 0.0653333 7.31127C0.00933331 7.22327 -0.0106667 7.12727 0.00533335 7.02327C0.0293334 6.91127 0.0893334 6.82727 0.185333 6.77127C0.833333 6.37927 1.46533 5.92727 2.08133 5.41527C2.69733 4.90327 3.27333 4.35927 3.80933 3.78327C4.35333 3.19927 4.83733 2.60727 5.26133 2.00727C5.68533 1.39927 6.02533 0.807273 6.28133 0.231273C6.32133 0.135273 6.38933 0.067273 6.48533 0.0272726C6.58933 -0.0127274 6.69333 -0.00872719 6.79733 0.0392731C6.89333 0.0792731 6.95733 0.151273 6.98933 0.255273C7.02933 0.351273 7.02933 0.447273 6.98933 0.543273C6.71733 1.13527 6.36133 1.74727 5.92133 2.37927C5.48133 3.00327 4.98133 3.61927 4.42133 4.22727C3.86133 4.83527 3.25333 5.41527 2.59733 5.96727C1.94933 6.51127 1.28133 6.99927 0.593333 7.43127Z" fill="black"/>
</svg>
