<svg width="9" height="9" viewBox="0 0 9 9" fill="none" xmlns="http://www.w3.org/2000/svg">
<path d="M0.5712 8.076C0.4752 8.124 0.3752 8.132 0.2712 8.1C0.1672 8.06 0.0912 7.992 0.0432 7.896C-0.00479999 7.8 -0.0128 7.704 0.0192 7.608C0.0592 7.504 0.1272 7.428 0.2232 7.38C1.0152 6.996 1.7712 6.548 2.4912 6.036C3.2192 5.516 3.8752 4.976 4.4592 4.416C4.1872 4.208 3.9192 4.012 3.6552 3.828C3.3992 3.644 3.1592 3.48 2.9352 3.336C2.8472 3.272 2.7912 3.188 2.7672 3.084C2.7432 2.98 2.7592 2.884 2.8152 2.796C2.8792 2.708 2.9632 2.652 3.0672 2.628C3.1712 2.604 3.2672 2.624 3.3552 2.688C3.6112 2.856 3.8752 3.04 4.1472 3.24C4.4272 3.44 4.7112 3.648 4.9992 3.864C5.2552 3.584 5.4872 3.308 5.6952 3.036C5.9112 2.756 6.0952 2.48 6.2472 2.208C6.5032 1.776 6.5632 1.428 6.4272 1.164C6.2912 0.892 5.9432 0.756 5.3832 0.756H1.3392C1.2352 0.756 1.1432 0.72 1.0632 0.648C0.9912 0.576 0.9552 0.488 0.9552 0.384C0.9552 0.272 0.9912 0.18 1.0632 0.108C1.1432 0.036 1.2352 0 1.3392 0H5.3832C5.9832 0 6.4432 0.112 6.7632 0.336C7.0912 0.56 7.2712 0.868 7.3032 1.26C7.3352 1.644 7.2032 2.084 6.9072 2.58C6.7472 2.86 6.5552 3.148 6.3312 3.444C6.1072 3.732 5.8632 4.024 5.5992 4.32C6.1352 4.736 6.6432 5.14 7.1232 5.532C7.6112 5.924 8.0072 6.256 8.3112 6.528C8.3992 6.6 8.4432 6.692 8.4432 6.804C8.4512 6.916 8.4192 7.016 8.3472 7.104C8.2672 7.184 8.1712 7.228 8.0592 7.236C7.9552 7.244 7.8592 7.208 7.7712 7.128C7.4832 6.856 7.0952 6.516 6.6072 6.108C6.1192 5.692 5.6032 5.276 5.0592 4.86C4.4352 5.468 3.7352 6.052 2.9592 6.612C2.1912 7.172 1.3952 7.66 0.5712 8.076Z" fill="black"/>
</svg>
