<svg width="9" height="9" viewBox="0 0 9 9" fill="none" xmlns="http://www.w3.org/2000/svg">
<path d="M4.37346 8.616C4.26945 8.616 4.17745 8.58 4.09746 8.508C4.02545 8.428 3.98945 8.336 3.98945 8.232C3.98945 8.12 4.02545 8.028 4.09746 7.956C4.17745 7.884 4.26945 7.848 4.37346 7.848C4.78146 7.832 5.09345 7.784 5.30945 7.704C5.53345 7.624 5.68545 7.488 5.76545 7.296C5.84545 7.104 5.87745 6.84 5.86145 6.504C5.85345 6.168 5.83345 5.74 5.80145 5.22C5.77745 4.692 5.75345 4.148 5.72945 3.588C5.36945 3.98 4.97345 4.38 4.54145 4.788C4.11745 5.196 3.67345 5.596 3.20945 5.988C2.75345 6.372 2.30145 6.732 1.85345 7.068C1.40545 7.404 0.981455 7.692 0.581455 7.932C0.493455 7.988 0.397455 8 0.293454 7.968C0.189455 7.936 0.109455 7.872 0.0534545 7.776C-0.00254546 7.688 -0.0145455 7.592 0.0174546 7.488C0.0494546 7.384 0.113455 7.304 0.209454 7.248C0.569454 7.032 0.973455 6.76 1.42145 6.432C1.87745 6.096 2.34545 5.728 2.82545 5.328C3.31345 4.928 3.78145 4.516 4.22945 4.092C4.67745 3.668 5.08145 3.26 5.44145 2.868H0.773455C0.669455 2.868 0.577455 2.832 0.497455 2.76C0.425455 2.688 0.389455 2.6 0.389455 2.496C0.389455 2.392 0.425455 2.304 0.497455 2.232C0.577455 2.16 0.669455 2.124 0.773455 2.124H5.65745C5.64145 1.74 5.62545 1.396 5.60946 1.092C5.60145 0.788 5.59345 0.556 5.58545 0.396C5.57745 0.292 5.60945 0.204 5.68145 0.132C5.76145 0.0519998 5.85345 0.0079999 5.95745 0C6.06945 0 6.16145 0.0359998 6.23345 0.107999C6.31345 0.179999 6.35345 0.271999 6.35345 0.383999C6.36145 0.559999 6.36945 0.799999 6.37746 1.104C6.39346 1.408 6.40945 1.748 6.42545 2.124H8.57345C8.67745 2.124 8.76546 2.16 8.83745 2.232C8.90945 2.304 8.94545 2.392 8.94545 2.496C8.94545 2.6 8.90945 2.688 8.83745 2.76C8.76546 2.832 8.67745 2.868 8.57345 2.868H6.44945C6.47345 3.3 6.49345 3.74 6.50945 4.188C6.53345 4.636 6.55345 5.056 6.56945 5.448C6.59345 5.84 6.60946 6.176 6.61746 6.456C6.65745 7.256 6.49345 7.816 6.12545 8.136C5.76545 8.456 5.18145 8.616 4.37346 8.616Z" fill="black"/>
</svg>
