<svg width="7" height="9" viewBox="0 0 7 9" fill="none" xmlns="http://www.w3.org/2000/svg">
<path d="M1.416 8.652C1.312 8.684 1.212 8.68 1.116 8.64C1.028 8.592 0.964 8.516 0.924 8.412C0.892 8.308 0.9 8.208 0.948 8.112C0.996 8.016 1.072 7.952 1.176 7.92C2.208 7.568 3.12 7.088 3.912 6.48C4.704 5.864 5.288 5.168 5.664 4.392C6.12 3.432 5.824 2.952 4.776 2.952H0.384C0.28 2.952 0.188 2.916 0.108 2.844C0.036 2.764 0 2.672 0 2.568C0 2.464 0.036 2.376 0.108 2.304C0.188 2.232 0.28 2.196 0.384 2.196H4.776C5.656 2.196 6.228 2.428 6.492 2.892C6.764 3.356 6.716 3.968 6.348 4.728C6.068 5.304 5.684 5.844 5.196 6.348C4.716 6.852 4.156 7.3 3.516 7.692C2.876 8.076 2.176 8.396 1.416 8.652ZM1.164 0.756C1.06 0.756 0.968 0.72 0.888 0.648C0.816 0.576 0.78 0.488 0.78 0.384C0.78 0.272 0.816 0.18 0.888 0.108C0.968 0.036 1.06 0 1.164 0H5.688C5.8 0 5.892 0.036 5.964 0.108C6.044 0.18 6.084 0.272 6.084 0.384C6.084 0.488 6.044 0.576 5.964 0.648C5.892 0.72 5.8 0.756 5.688 0.756H1.164Z" fill="black"/>
</svg>
