<svg width="9" height="7" viewBox="0 0 9 7" fill="none" xmlns="http://www.w3.org/2000/svg">
<path d="M3.228 6.096C2.212 6.448 1.42 6.488 0.852 6.216C0.284 5.936 0 5.312 0 4.344V0.384C0 0.28 0.036 0.192 0.108 0.12C0.188 0.04 0.28 0 0.384 0C0.496 0 0.588 0.04 0.66 0.12C0.732 0.192 0.768 0.28 0.768 0.384V4.344C0.768 4.968 0.94 5.36 1.284 5.52C1.628 5.68 2.188 5.632 2.964 5.376C3.748 5.112 4.528 4.772 5.304 4.356C6.08 3.932 6.808 3.468 7.488 2.964C7.576 2.9 7.672 2.876 7.776 2.892C7.88 2.9 7.964 2.948 8.028 3.036C8.092 3.116 8.116 3.212 8.1 3.324C8.092 3.428 8.044 3.512 7.956 3.576C7.284 4.088 6.536 4.564 5.712 5.004C4.888 5.436 4.06 5.8 3.228 6.096Z" fill="black"/>
</svg>
