<svg width="5" height="10" viewBox="0 0 5 10" fill="none" xmlns="http://www.w3.org/2000/svg">
<path d="M1.50533 9.3048C1.40933 9.3608 1.30933 9.3728 1.20533 9.3408C1.10133 9.3088 1.02533 9.2448 0.977333 9.1488C0.921333 9.0608 0.909333 8.9648 0.941333 8.8608C0.973334 8.7568 1.03733 8.6768 1.13333 8.6208C1.66133 8.3328 2.10533 8.0088 2.46533 7.6488C2.82533 7.2888 3.11333 6.8688 3.32933 6.3888C3.54533 5.9088 3.70133 5.3488 3.79733 4.7088C3.90133 4.0688 3.95333 3.3248 3.95333 2.4768C3.95333 2.1248 3.94533 1.7648 3.92933 1.3968C3.92133 1.0288 3.89733 0.7088 3.85733 0.4368C3.84133 0.3248 3.86533 0.2288 3.92933 0.1488C4.00133 0.0607999 4.08933 0.0128 4.19333 0.00480014C4.29733 -0.0112001 4.38933 0.0127998 4.46933 0.0767999C4.55733 0.1408 4.60933 0.2248 4.62533 0.3288C4.64933 0.5128 4.66933 0.7328 4.68533 0.9888C4.70133 1.2448 4.70933 1.5048 4.70933 1.7688C4.71733 2.0328 4.72133 2.2688 4.72133 2.4768C4.72133 3.6688 4.62133 4.6888 4.42133 5.5368C4.22133 6.3768 3.88533 7.1008 3.41333 7.7088C2.94933 8.3088 2.31333 8.8408 1.50533 9.3048ZM0.569333 5.3088C0.465333 5.3008 0.377333 5.2568 0.305333 5.1768C0.241333 5.0968 0.213333 5.0048 0.221333 4.9008C0.237333 4.6608 0.241333 4.3528 0.233333 3.9768C0.225333 3.5928 0.209333 3.1928 0.185334 2.7768C0.169334 2.3608 0.145333 1.9768 0.113333 1.6248C0.0813333 1.2648 0.0453333 0.9888 0.00533335 0.7968C-0.0106667 0.6928 0.00933331 0.5968 0.0653333 0.5088C0.121333 0.4208 0.201333 0.3688 0.305333 0.3528C0.417333 0.3288 0.517333 0.3448 0.605334 0.4008C0.701333 0.4568 0.753333 0.5408 0.761333 0.6528C0.801333 0.9008 0.837333 1.2168 0.869333 1.6008C0.901333 1.9768 0.929333 2.3768 0.953333 2.8008C0.977333 3.2248 0.993333 3.6288 1.00133 4.0128C1.00933 4.3968 1.00533 4.7088 0.989334 4.9488C0.981333 5.0688 0.937333 5.1608 0.857333 5.2248C0.777333 5.2888 0.681333 5.3168 0.569333 5.3088Z" fill="black"/>
</svg>
