<svg width="8" height="7" viewBox="0 0 8 7" fill="none" xmlns="http://www.w3.org/2000/svg">
<path d="M3.768 6.612C3 6.612 2.372 6.556 1.884 6.444C1.396 6.332 1.012 6.152 0.732 5.904C0.46 5.648 0.268 5.308 0.156 4.884C0.052 4.46 0 3.936 0 3.312C0 2.688 0.052 2.164 0.156 1.74C0.268 1.308 0.46 0.968 0.732 0.72C1.012 0.464 1.396 0.280001 1.884 0.168001C2.372 0.0560002 3 0 3.768 0C4.536 0 5.164 0.0560002 5.652 0.168001C6.14 0.280001 6.52 0.464 6.792 0.72C7.072 0.968 7.264 1.308 7.368 1.74C7.48 2.164 7.536 2.688 7.536 3.312C7.536 3.936 7.48 4.46 7.368 4.884C7.264 5.308 7.072 5.648 6.792 5.904C6.52 6.152 6.14 6.332 5.652 6.444C5.164 6.556 4.536 6.612 3.768 6.612ZM3.768 5.832C4.376 5.832 4.876 5.8 5.268 5.736C5.66 5.664 5.964 5.54 6.18 5.364C6.396 5.18 6.548 4.924 6.636 4.596C6.724 4.26 6.768 3.832 6.768 3.312C6.768 2.792 6.724 2.368 6.636 2.04C6.548 1.704 6.396 1.448 6.18 1.272C5.964 1.088 5.66 0.96 5.268 0.888001C4.876 0.816001 4.376 0.780001 3.768 0.780001C3.16 0.780001 2.66 0.816001 2.268 0.888001C1.876 0.96 1.572 1.088 1.356 1.272C1.14 1.448 0.988 1.704 0.9 2.04C0.82 2.368 0.78 2.792 0.78 3.312C0.78 3.832 0.82 4.26 0.9 4.596C0.988 4.924 1.14 5.18 1.356 5.364C1.572 5.54 1.876 5.664 2.268 5.736C2.66 5.8 3.16 5.832 3.768 5.832Z" fill="black"/>
</svg>
