<svg width="12" height="7" viewBox="0 0 12 7" fill="none" xmlns="http://www.w3.org/2000/svg">
<path d="M8.42133 5.712C7.50133 6.056 6.76533 6.104 6.21333 5.856C5.66133 5.6 5.38533 5.004 5.38533 4.068V0.384C5.38533 0.28 5.42133 0.192 5.49333 0.12C5.57333 0.04 5.66533 0 5.76933 0C5.88133 0 5.97333 0.04 6.04533 0.12C6.11733 0.192 6.15333 0.28 6.15333 0.384V4.068C6.15333 4.628 6.31733 4.984 6.64533 5.136C6.97333 5.288 7.47733 5.24 8.15733 4.992C8.58133 4.832 8.99333 4.664 9.39333 4.488C9.80133 4.312 10.1853 4.128 10.5453 3.936C10.6413 3.888 10.7373 3.88 10.8333 3.912C10.9373 3.944 11.0133 4.008 11.0613 4.104C11.1093 4.2 11.1173 4.3 11.0853 4.404C11.0533 4.5 10.9893 4.576 10.8933 4.632C10.5013 4.832 10.0973 5.024 9.68133 5.208C9.26533 5.384 8.84533 5.552 8.42133 5.712ZM0.537333 6.456C0.441333 6.496 0.341333 6.5 0.237333 6.468C0.141333 6.428 0.0733333 6.356 0.0333333 6.252C-0.00666667 6.156 -0.0106667 6.06 0.0213333 5.964C0.0613333 5.86 0.129333 5.788 0.225333 5.748C0.921333 5.436 1.47733 5.044 1.89333 4.572C2.31733 4.1 2.62133 3.564 2.80533 2.964C2.99733 2.356 3.09333 1.7 3.09333 0.996C3.09333 0.884 3.12933 0.792 3.20133 0.72C3.28133 0.648 3.37333 0.612 3.47733 0.612C3.58933 0.612 3.68133 0.648 3.75333 0.72C3.82533 0.792 3.86133 0.884 3.86133 0.996C3.86133 2.276 3.57333 3.384 2.99733 4.32C2.42933 5.256 1.60933 5.968 0.537333 6.456Z" fill="black"/>
</svg>
