<svg width="11" height="10" viewBox="0 0 11 10" fill="none" xmlns="http://www.w3.org/2000/svg">
<path d="M3.924 9.37636C3.828 9.41636 3.728 9.41636 3.624 9.37636C3.528 9.34436 3.456 9.28036 3.408 9.18436C3.368 9.08836 3.364 8.99236 3.396 8.89636C3.436 8.79236 3.504 8.72036 3.6 8.68036C4.608 8.20836 5.344 7.56036 5.808 6.73636C6.28 5.90436 6.516 4.85236 6.516 3.58036V3.42436H3.996C4.02 4.20036 4.02 4.88436 3.996 5.47636C3.988 5.58036 3.944 5.66836 3.864 5.74036C3.792 5.81236 3.7 5.84436 3.588 5.83636C3.484 5.82836 3.396 5.78436 3.324 5.70436C3.252 5.62436 3.22 5.53236 3.228 5.42836C3.244 5.14836 3.252 4.83636 3.252 4.49236C3.26 4.14836 3.256 3.79236 3.24 3.42436H0.384C0.28 3.42436 0.188 3.38836 0.108 3.31636C0.036 3.24436 0 3.15636 0 3.05236C0 2.94836 0.036 2.86036 0.108 2.78836C0.188 2.70836 0.28 2.66836 0.384 2.66836H3.216C3.2 2.30036 3.176 1.95236 3.144 1.62436C3.12 1.29636 3.092 1.01636 3.06 0.784364C3.044 0.680363 3.064 0.584363 3.12 0.496364C3.184 0.408364 3.268 0.356364 3.372 0.340364C3.484 0.324364 3.584 0.348364 3.672 0.412363C3.76 0.468364 3.808 0.552364 3.816 0.664364C3.856 0.920364 3.888 1.22436 3.912 1.57636C3.936 1.92836 3.956 2.29236 3.972 2.66836H6.516C6.508 2.26836 6.496 1.86836 6.48 1.46836C6.472 1.06036 6.456 0.712363 6.432 0.424364C6.424 0.312364 6.456 0.216364 6.528 0.136363C6.6 0.0563633 6.688 0.0123634 6.792 0.00436353C6.896 -0.0116363 6.988 0.0163639 7.068 0.0883639C7.148 0.152364 7.192 0.240363 7.2 0.352363C7.224 0.648363 7.24 1.00436 7.248 1.42036C7.264 1.83636 7.272 2.25236 7.272 2.66836H9.972C10.076 2.66836 10.164 2.70836 10.236 2.78836C10.308 2.86036 10.344 2.94836 10.344 3.05236C10.344 3.15636 10.308 3.24436 10.236 3.31636C10.164 3.38836 10.076 3.42436 9.972 3.42436H7.284V3.58036C7.284 4.98836 7 6.18436 6.432 7.16836C5.872 8.14436 5.036 8.88036 3.924 9.37636Z" fill="black"/>
</svg>
