<svg width="10" height="9" viewBox="0 0 10 9" fill="none" xmlns="http://www.w3.org/2000/svg">
<path d="M9.6168 8.388C8.6968 8.476 7.9168 8.516 7.2768 8.508C6.6448 8.5 6.1168 8.436 5.6928 8.316C5.2768 8.188 4.9368 8.004 4.6728 7.764C4.3608 7.484 4.1488 7.144 4.0368 6.744C3.9328 6.344 3.8808 5.908 3.8808 5.436V3.444C3.2488 3.532 2.6208 3.62 1.9968 3.708C1.3728 3.796 0.8528 3.872 0.4368 3.936C0.3328 3.944 0.2368 3.916 0.1488 3.852C0.0688 3.788 0.0208 3.704 0.0048 3.6C-0.0112 3.496 0.0128 3.4 0.0768 3.312C0.1408 3.224 0.2248 3.176 0.3288 3.168C0.5928 3.136 0.9168 3.096 1.3008 3.048C1.6848 2.992 2.0968 2.936 2.5368 2.88C2.9848 2.816 3.4328 2.756 3.8808 2.7V0.384C3.8808 0.272 3.9208 0.18 4.0008 0.108C4.0808 0.036 4.1728 0 4.2768 0C4.3808 0 4.4688 0.04 4.5408 0.12C4.6208 0.192 4.6608 0.28 4.6608 0.384V2.592C5.2368 2.504 5.7488 2.432 6.1968 2.376C6.6528 2.312 6.9608 2.268 7.1208 2.244C7.8808 2.132 8.4208 2.156 8.7408 2.316C9.0688 2.476 9.2728 2.764 9.3528 3.18C9.4408 3.644 9.3088 4.084 8.9568 4.5C8.6048 4.908 7.9848 5.264 7.0968 5.568C6.9928 5.6 6.8928 5.596 6.7968 5.556C6.7088 5.516 6.6448 5.444 6.6048 5.34C6.5728 5.236 6.5768 5.136 6.6168 5.04C6.6568 4.944 6.7288 4.88 6.8328 4.848C7.4728 4.624 7.9328 4.388 8.2128 4.14C8.4928 3.892 8.6128 3.632 8.5728 3.36C8.5408 3.16 8.4368 3.032 8.2608 2.976C8.0848 2.912 7.7488 2.912 7.2528 2.976C7.0688 3 6.7368 3.044 6.2568 3.108C5.7848 3.172 5.2528 3.248 4.6608 3.336V5.436C4.6608 5.884 4.7008 6.248 4.7808 6.528C4.8688 6.8 5.0048 7.02 5.1888 7.188C5.5008 7.468 5.9968 7.644 6.6768 7.716C7.3568 7.78 8.3128 7.748 9.5448 7.62C9.6488 7.604 9.7408 7.632 9.8208 7.704C9.9088 7.768 9.9568 7.856 9.9648 7.968C9.9808 8.072 9.9528 8.168 9.8808 8.256C9.8168 8.336 9.7288 8.38 9.6168 8.388Z" fill="black"/>
</svg>
