<svg width="9" height="8" viewBox="0 0 9 8" fill="none" xmlns="http://www.w3.org/2000/svg">
<path d="M1.2432 7.90145C1.1392 7.93345 1.0392 7.92545 0.9432 7.87745C0.8552 7.82945 0.7912 7.75346 0.7512 7.64946C0.7192 7.54545 0.7272 7.44945 0.7752 7.36145C0.8232 7.26545 0.8992 7.20146 1.0032 7.16946C1.6432 6.96145 2.2992 6.68146 2.9712 6.32945C3.6432 5.96945 4.2952 5.56145 4.9272 5.10545C5.5592 4.64145 6.1392 4.14946 6.6672 3.62945C7.1952 3.10945 7.6352 2.58945 7.9872 2.06945C8.0512 1.98145 8.1352 1.92545 8.2392 1.90145C8.3432 1.87745 8.4392 1.89745 8.5272 1.96145C8.6152 2.01745 8.6672 2.10145 8.6832 2.21345C8.7072 2.31745 8.6872 2.41345 8.6232 2.50145C8.2632 3.03745 7.7992 3.58145 7.2312 4.13345C6.6712 4.67745 6.0512 5.19745 5.3712 5.69345C4.6992 6.18946 4.0072 6.62945 3.2952 7.01345C2.5912 7.39745 1.9072 7.69345 1.2432 7.90145ZM2.0472 4.03745C1.9112 3.93345 1.7312 3.81345 1.5072 3.67745C1.2832 3.53345 1.0552 3.39745 0.8232 3.26945C0.5912 3.13345 0.3872 3.02545 0.2112 2.94545C0.1152 2.90545 0.0512 2.83345 0.0192 2.72945C-0.0128 2.62545 -0.00480001 2.52545 0.0432001 2.42945C0.0912001 2.33345 0.1632 2.26945 0.2592 2.23745C0.3632 2.20545 0.4632 2.21345 0.5592 2.26146C0.7512 2.34145 0.9752 2.45745 1.2312 2.60945C1.4872 2.75345 1.7352 2.90145 1.9752 3.05345C2.2152 3.19745 2.4032 3.32545 2.5392 3.43745C2.6272 3.50145 2.6752 3.58945 2.6832 3.70145C2.6912 3.80545 2.6592 3.90145 2.5872 3.98945C2.5232 4.06946 2.4392 4.11345 2.3352 4.12145C2.2312 4.12145 2.1352 4.09345 2.0472 4.03745ZM3.3552 1.90145C3.2272 1.78945 3.0552 1.66145 2.8392 1.51745C2.6312 1.36545 2.4152 1.22145 2.1912 1.08545C1.9672 0.941454 1.7672 0.821454 1.5912 0.725455C1.4952 0.669455 1.4312 0.589455 1.3992 0.485455C1.3752 0.381455 1.3912 0.285455 1.4472 0.197454C1.5032 0.101455 1.5792 0.0414547 1.6752 0.0174546C1.7792 -0.0145455 1.8792 -0.00254542 1.9752 0.0534548C2.1512 0.149455 2.3632 0.277455 2.6112 0.437455C2.8592 0.589455 3.0992 0.749455 3.3312 0.917454C3.5632 1.07745 3.7472 1.21745 3.8832 1.33745C3.9712 1.40145 4.0152 1.48945 4.0152 1.60145C4.0152 1.70545 3.9792 1.79745 3.9072 1.87745C3.8352 1.95745 3.7472 2.00145 3.6432 2.00945C3.5392 2.00945 3.4432 1.97345 3.3552 1.90145Z" fill="black"/>
</svg>
