<svg width="8" height="8" viewBox="0 0 8 8" fill="none" xmlns="http://www.w3.org/2000/svg">
<path d="M1.6608 7.7328C1.5728 7.7808 1.4768 7.7888 1.3728 7.7568C1.2688 7.7248 1.1928 7.6608 1.1448 7.5648C1.0968 7.4768 1.0888 7.3808 1.1208 7.2768C1.1528 7.1728 1.2128 7.0968 1.3008 7.0488C2.7008 6.3128 3.8128 5.3848 4.6368 4.2648C5.4608 3.1448 6.0088 1.8288 6.2808 0.3168C6.3048 0.2128 6.3608 0.1328 6.4488 0.0767999C6.5368 0.0127998 6.6328 -0.0112001 6.7368 0.00480014C6.8408 0.0287998 6.9208 0.0847998 6.9768 0.1728C7.0408 0.2528 7.0648 0.3488 7.0488 0.4608C6.7528 2.0528 6.1448 3.4728 5.2248 4.7208C4.3048 5.9608 3.1168 6.9648 1.6608 7.7328ZM1.8408 3.1488C1.7368 3.1888 1.6328 3.1928 1.5288 3.1608C1.4328 3.1208 1.3648 3.0528 1.3248 2.9568C1.2128 2.7248 1.0808 2.4688 0.9288 2.1888C0.7848 1.9088 0.6368 1.6368 0.4848 1.3728C0.3408 1.1088 0.2048 0.8928 0.0767999 0.7248C0.0128 0.6368 -0.0112 0.5408 0.00479996 0.4368C0.0208 0.3248 0.0728 0.2368 0.1608 0.1728C0.2488 0.1088 0.3448 0.0888 0.4488 0.1128C0.5608 0.1288 0.6448 0.1808 0.7008 0.2688C0.8448 0.4768 0.9968 0.7208 1.1568 1.0008C1.3248 1.2808 1.4848 1.5648 1.6368 1.8528C1.7888 2.1328 1.9168 2.3928 2.0208 2.6328C2.0608 2.7288 2.0648 2.8288 2.0328 2.9328C2.0008 3.0288 1.9368 3.1008 1.8408 3.1488Z" fill="black"/>
</svg>
