<svg width="10" height="8" viewBox="0 0 10 8" fill="none" xmlns="http://www.w3.org/2000/svg">
<path d="M0.5592 7.632C0.4632 7.68 0.3632 7.688 0.2592 7.656C0.1632 7.616 0.0912 7.548 0.0432 7.452C-0.00480001 7.356 -0.0128 7.26 0.0192 7.164C0.0592 7.06 0.1272 6.984 0.2232 6.936C1.0152 6.552 1.7592 6.104 2.4552 5.592C3.1592 5.072 3.7912 4.508 4.3512 3.9C4.9192 3.284 5.3912 2.644 5.7672 1.98C5.9832 1.604 6.0152 1.308 5.8632 1.092C5.7192 0.876 5.3992 0.768 4.9032 0.768H1.4712C1.3672 0.768 1.2752 0.732 1.1952 0.66C1.1152 0.58 1.0752 0.488 1.0752 0.384C1.0752 0.272 1.1152 0.18 1.1952 0.108C1.2752 0.036 1.3672 0 1.4712 0H4.9032C5.4872 0 5.9352 0.104 6.2472 0.312C6.5592 0.52 6.7312 0.804 6.7632 1.164C6.7952 1.516 6.6832 1.916 6.4272 2.364C6.1712 2.82 5.8712 3.26 5.5272 3.684C5.8232 3.916 6.1272 4.176 6.4392 4.464C6.7592 4.744 7.0712 5.032 7.3752 5.328C7.6872 5.624 7.9752 5.904 8.2392 6.168C8.5032 6.432 8.7272 6.664 8.9112 6.864C8.9912 6.944 9.0312 7.04 9.0312 7.152C9.0312 7.256 8.9912 7.344 8.9112 7.416C8.8312 7.488 8.7392 7.524 8.6352 7.524C8.5312 7.524 8.4392 7.484 8.3592 7.404C8.1752 7.22 7.9512 6.996 7.6872 6.732C7.4312 6.46 7.1512 6.176 6.8472 5.88C6.5432 5.576 6.2392 5.284 5.9352 5.004C5.6312 4.716 5.3392 4.46 5.0592 4.236C4.4512 4.908 3.7592 5.54 2.9832 6.132C2.2152 6.724 1.4072 7.224 0.5592 7.632Z" fill="black"/>
</svg>
