<svg width="8" height="10" viewBox="0 0 8 10" fill="none" xmlns="http://www.w3.org/2000/svg">
<path d="M0.546 9.486C0.442 9.526 0.338 9.526 0.234 9.486C0.138 9.454 0.07 9.386 0.0300001 9.282C-0.01 9.186 -0.01 9.09 0.0300001 8.994C0.07 8.89 0.138 8.818 0.234 8.778C2.066 7.978 3.562 6.93 4.722 5.634C4.49 5.41 4.258 5.198 4.026 4.998C3.802 4.798 3.594 4.622 3.402 4.47C3.322 4.406 3.274 4.322 3.258 4.218C3.242 4.106 3.27 4.01 3.342 3.93C3.406 3.842 3.49 3.794 3.594 3.786C3.706 3.778 3.802 3.806 3.882 3.87C4.09 4.038 4.31 4.222 4.542 4.422C4.774 4.614 5.002 4.814 5.226 5.022C5.434 4.742 5.63 4.458 5.814 4.17C5.998 3.874 6.166 3.57 6.318 3.258C6.502 2.89 6.542 2.598 6.438 2.382C6.334 2.158 6.038 2.046 5.55 2.046H3.618C3.226 2.582 2.774 3.11 2.262 3.63C1.75 4.15 1.254 4.578 0.774 4.914C0.686 4.97 0.59 4.99 0.486 4.974C0.382 4.958 0.298 4.906 0.234 4.818C0.178 4.73 0.158 4.634 0.174 4.53C0.19 4.418 0.242 4.334 0.33 4.278C0.834 3.926 1.31 3.526 1.758 3.078C2.214 2.63 2.618 2.162 2.97 1.674C3.33 1.178 3.614 0.694 3.822 0.222C3.862 0.126 3.93 0.062 4.026 0.03C4.13 -0.00999999 4.234 -0.00999999 4.338 0.03C4.434 0.0699999 4.498 0.142 4.53 0.246C4.57 0.342 4.57 0.442 4.53 0.546C4.474 0.658 4.414 0.778 4.35 0.906C4.286 1.026 4.214 1.154 4.134 1.29H5.55C6.382 1.29 6.918 1.506 7.158 1.938C7.398 2.362 7.346 2.918 7.002 3.606C6.834 3.95 6.646 4.286 6.438 4.614C6.23 4.934 6.006 5.246 5.766 5.55C6.174 5.942 6.53 6.33 6.834 6.714C6.906 6.794 6.934 6.89 6.918 7.002C6.91 7.114 6.862 7.206 6.774 7.278C6.694 7.342 6.598 7.37 6.486 7.362C6.374 7.346 6.282 7.294 6.21 7.206C6.082 7.046 5.934 6.878 5.766 6.702C5.606 6.518 5.434 6.338 5.25 6.162C3.978 7.554 2.41 8.662 0.546 9.486Z" fill="black"/>
</svg>
