<svg width="9" height="9" viewBox="0 0 9 9" fill="none" xmlns="http://www.w3.org/2000/svg">
<path d="M1.38 8.532C1.284 8.588 1.184 8.6 1.08 8.568C0.984 8.536 0.912 8.472 0.864 8.376C0.808 8.28 0.796 8.184 0.828 8.088C0.86 7.984 0.924 7.904 1.02 7.848C1.652 7.52 2.204 7.116 2.676 6.636C3.148 6.148 3.524 5.616 3.804 5.04C4.084 4.456 4.248 3.856 4.296 3.24H0.384C0.28 3.24 0.188 3.204 0.108 3.132C0.036 3.06 0 2.972 0 2.868C0 2.756 0.036 2.664 0.108 2.592C0.188 2.52 0.28 2.484 0.384 2.484H8.412C8.524 2.484 8.616 2.52 8.688 2.592C8.76 2.664 8.796 2.756 8.796 2.868C8.796 2.972 8.76 3.06 8.688 3.132C8.616 3.204 8.524 3.24 8.412 3.24H5.052C5.004 3.952 4.82 4.644 4.5 5.316C4.188 5.98 3.768 6.592 3.24 7.152C2.712 7.704 2.092 8.164 1.38 8.532ZM1.812 0.756C1.708 0.756 1.616 0.72 1.536 0.648C1.464 0.568 1.428 0.476 1.428 0.372C1.428 0.268 1.464 0.18 1.536 0.108C1.616 0.036 1.708 0 1.812 0H7.116C7.228 0 7.32 0.036 7.392 0.108C7.464 0.18 7.5 0.268 7.5 0.372C7.5 0.476 7.464 0.568 7.392 0.648C7.32 0.72 7.228 0.756 7.116 0.756H1.812Z" fill="black"/>
</svg>
