<svg width="5" height="10" viewBox="0 0 5 10" fill="none" xmlns="http://www.w3.org/2000/svg">
<path d="M0.384 9.18C0.28 9.18 0.188 9.14 0.108 9.06C0.036 8.988 0 8.9 0 8.796V0.384C0 0.272 0.036 0.18 0.108 0.108C0.188 0.036 0.28 0 0.384 0C0.496 0 0.588 0.036 0.66 0.108C0.732 0.18 0.768 0.272 0.768 0.384V8.796C0.768 8.9 0.732 8.988 0.66 9.06C0.588 9.14 0.496 9.18 0.384 9.18ZM4.08 5.772C3.856 5.588 3.58 5.384 3.252 5.16C2.924 4.936 2.588 4.716 2.244 4.5C1.9 4.284 1.58 4.1 1.284 3.948C1.188 3.892 1.124 3.816 1.092 3.72C1.06 3.616 1.068 3.516 1.116 3.42C1.164 3.324 1.24 3.26 1.344 3.228C1.448 3.196 1.544 3.204 1.632 3.252C1.952 3.412 2.292 3.604 2.652 3.828C3.02 4.052 3.376 4.28 3.72 4.512C4.064 4.744 4.356 4.96 4.596 5.16C4.676 5.232 4.72 5.32 4.728 5.424C4.736 5.528 4.708 5.624 4.644 5.712C4.572 5.792 4.48 5.84 4.368 5.856C4.264 5.864 4.168 5.836 4.08 5.772Z" fill="black"/>
</svg>
