<svg width="8" height="9" viewBox="0 0 8 9" fill="none" xmlns="http://www.w3.org/2000/svg">
<path d="M1.74533 8.09346C1.64933 8.14146 1.54933 8.14945 1.44533 8.11745C1.34933 8.07745 1.27733 8.00945 1.22933 7.91346C1.18933 7.81745 1.18533 7.71745 1.21733 7.61345C1.24933 7.50945 1.31333 7.43745 1.40933 7.39745C2.52933 6.85345 3.46133 6.25745 4.20533 5.60945C4.94933 4.96145 5.53733 4.21745 5.96933 3.37745C6.40933 2.52945 6.72533 1.54545 6.91733 0.425455C6.93333 0.313455 6.98533 0.229455 7.07333 0.173454C7.16133 0.117455 7.25733 0.0974546 7.36133 0.113454C7.47333 0.129455 7.55733 0.181455 7.61333 0.269455C7.67733 0.349454 7.70133 0.445454 7.68533 0.557454C7.47733 1.77345 7.12133 2.84545 6.61733 3.77345C6.12133 4.70146 5.46933 5.51745 4.66133 6.22145C3.86133 6.91745 2.88933 7.54146 1.74533 8.09346ZM1.68533 3.56945C1.58933 3.60945 1.48933 3.60945 1.38533 3.56945C1.28933 3.52945 1.22133 3.46145 1.18133 3.36545C1.02133 3.01345 0.841333 2.65745 0.641333 2.29745C0.441333 1.93745 0.249333 1.62145 0.0653334 1.34945C0.00933341 1.26145 -0.0106666 1.16545 0.00533328 1.06145C0.0213333 0.957455 0.0693334 0.873455 0.149333 0.809455C0.237333 0.745455 0.333333 0.725455 0.437333 0.749455C0.549333 0.765455 0.633333 0.817455 0.689333 0.905455C0.897334 1.20145 1.10933 1.54545 1.32533 1.93745C1.54133 2.32945 1.72933 2.70145 1.88933 3.05345C1.92933 3.15745 1.92933 3.26145 1.88933 3.36545C1.84933 3.46145 1.78133 3.52945 1.68533 3.56945ZM4.10933 2.93345C4.00533 2.96545 3.90533 2.95745 3.80933 2.90945C3.72133 2.86145 3.65733 2.78545 3.61733 2.68145C3.48933 2.31345 3.34133 1.94145 3.17333 1.56545C3.01333 1.18145 2.85333 0.853455 2.69333 0.581455C2.63733 0.493455 2.62133 0.397454 2.64533 0.293454C2.67733 0.189455 2.73733 0.109455 2.82533 0.0534545C2.91333 -0.00254528 3.00933 -0.0145454 3.11333 0.0174542C3.21733 0.0414544 3.29733 0.0974546 3.35333 0.185455C3.53733 0.505455 3.71733 0.865455 3.89333 1.26545C4.06933 1.65745 4.22133 2.04945 4.34933 2.44145C4.38933 2.54545 4.38133 2.64545 4.32533 2.74145C4.27733 2.82945 4.20533 2.89345 4.10933 2.93345Z" fill="black"/>
</svg>
