<svg width="8" height="10" viewBox="0 0 8 10" fill="none" xmlns="http://www.w3.org/2000/svg">
<path d="M2.35286 9.912C2.25686 9.952 2.15686 9.952 2.05286 9.912C1.95686 9.872 1.88886 9.804 1.84886 9.708C1.80886 9.604 1.80886 9.504 1.84886 9.408C1.88886 9.304 1.95686 9.232 2.05286 9.192C2.99686 8.8 3.76086 8.364 4.34486 7.884C4.93686 7.396 5.39286 6.892 5.71286 6.372C6.03286 5.852 6.25686 5.348 6.38486 4.86C6.48886 4.484 6.54486 4.184 6.55286 3.96C6.56086 3.728 6.51686 3.544 6.42086 3.408C6.27686 3.216 5.98086 3.08 5.53286 3C5.09286 2.92 4.46886 2.88 3.66086 2.88C3.08486 2.88 2.61686 2.896 2.25686 2.928C1.89686 2.952 1.61286 3 1.40486 3.072C1.20486 3.136 1.05286 3.228 0.948857 3.348C0.836857 3.484 0.780857 3.704 0.780857 4.008C0.780857 4.304 0.820857 4.724 0.900857 5.268C0.916857 5.372 0.892857 5.468 0.828857 5.556C0.772857 5.644 0.692857 5.696 0.588857 5.712C0.484857 5.728 0.388857 5.704 0.300857 5.64C0.212857 5.576 0.160857 5.492 0.144857 5.388C0.0408572 4.732 -0.00714287 4.208 0.000857146 3.816C0.00885716 3.416 0.128857 3.088 0.360857 2.832C0.600857 2.552 0.952857 2.368 1.41686 2.28C1.88086 2.184 2.52086 2.132 3.33686 2.124V0.384C3.33686 0.272 3.37686 0.18 3.45686 0.108C3.53686 0.036 3.62886 0 3.73286 0C3.83686 0 3.92486 0.036 3.99686 0.108C4.07686 0.18 4.11686 0.272 4.11686 0.384V2.124C4.95686 2.14 5.60486 2.208 6.06086 2.328C6.51686 2.44 6.85286 2.64 7.06886 2.928C7.26886 3.176 7.36086 3.472 7.34486 3.816C7.33686 4.152 7.26486 4.568 7.12886 5.064C6.98486 5.592 6.73286 6.152 6.37286 6.744C6.02086 7.328 5.52086 7.896 4.87286 8.448C4.22486 8.992 3.38486 9.48 2.35286 9.912Z" fill="black"/>
</svg>
