<svg width="7" height="9" viewBox="0 0 7 9" fill="none" xmlns="http://www.w3.org/2000/svg">
<path d="M1.67148 8.34C1.57548 8.372 1.47948 8.368 1.38348 8.328C1.28748 8.28 1.21948 8.208 1.17948 8.112C1.14748 8.008 1.15148 7.908 1.19148 7.812C1.23148 7.708 1.30348 7.64 1.40748 7.608C2.28748 7.28 3.02748 6.852 3.62748 6.324C4.23548 5.796 4.72348 5.224 5.09148 4.608C5.46748 3.992 5.73548 3.392 5.89548 2.808C6.01548 2.384 6.07948 2.052 6.08748 1.812C6.09548 1.564 6.04748 1.372 5.94348 1.236C5.81548 1.068 5.57148 0.948 5.21148 0.876C4.85948 0.796 4.32748 0.756 3.61548 0.756C3.03948 0.756 2.57548 0.776 2.22348 0.816C1.87148 0.848 1.59548 0.904 1.39548 0.984C1.20348 1.064 1.05548 1.176 0.951484 1.32C0.823484 1.496 0.771484 1.744 0.795484 2.064C0.819484 2.376 0.915484 2.816 1.08348 3.384C1.11548 3.488 1.10748 3.588 1.05948 3.684C1.01148 3.772 0.935484 3.836 0.831484 3.876C0.727484 3.908 0.627484 3.9 0.531484 3.852C0.443484 3.804 0.383484 3.728 0.351484 3.624C0.151484 2.976 0.0354839 2.428 0.00348385 1.98C-0.0205161 1.524 0.079484 1.148 0.303484 0.852C0.463484 0.636 0.671484 0.468 0.927484 0.348C1.18348 0.22 1.52748 0.132 1.95948 0.0839996C2.39148 0.0279999 2.94348 0 3.61548 0C4.50348 0 5.17148 0.0599999 5.61948 0.18C6.06748 0.3 6.38748 0.488 6.57948 0.744C6.78748 1.016 6.87948 1.344 6.85548 1.728C6.83948 2.112 6.76348 2.54 6.62748 3.012C6.49948 3.484 6.29948 3.976 6.02748 4.488C5.76348 5 5.42748 5.5 5.01948 5.988C4.61948 6.476 4.13948 6.924 3.57948 7.332C3.02748 7.74 2.39148 8.076 1.67148 8.34Z" fill="black"/>
</svg>
