<svg width="7" height="9" viewBox="0 0 7 9" fill="none" xmlns="http://www.w3.org/2000/svg">
<path d="M0.924 8.172C0.82 8.204 0.72 8.196 0.624 8.148C0.536 8.1 0.472 8.028 0.432 7.932C0.4 7.828 0.404 7.728 0.444 7.632C0.492 7.536 0.568 7.472 0.672 7.44C1.752 7.072 2.708 6.536 3.54 5.832C4.38 5.12 5.028 4.304 5.484 3.384H0.396C0.292 3.384 0.2 3.348 0.12 3.276C0.04 3.196 0 3.104 0 3C0 2.896 0.04 2.808 0.12 2.736C0.2 2.664 0.292 2.628 0.396 2.628H5.808V2.604C6.032 1.972 6.04 1.508 5.832 1.212C5.632 0.908 5.176 0.756 4.464 0.756H0.468C0.364 0.756 0.272 0.72 0.192 0.648C0.112 0.575999 0.072 0.488 0.072 0.384C0.072 0.272 0.112 0.18 0.192 0.108C0.272 0.036 0.364 0 0.468 0H4.464C6.504 0 7.196 0.948 6.54 2.844C6.116 4.052 5.42 5.116 4.452 6.036C3.484 6.956 2.308 7.668 0.924 8.172Z" fill="black"/>
</svg>
