<svg width="10" height="10" viewBox="0 0 10 10" fill="none" xmlns="http://www.w3.org/2000/svg">
<path d="M5.4615 9.52145C5.3575 9.54545 5.2615 9.52546 5.1735 9.46146C5.0855 9.40546 5.0335 9.32545 5.0175 9.22145C4.9455 8.80545 4.8415 8.28945 4.7055 7.67345C4.5695 7.04945 4.4215 6.38145 4.2615 5.66946C4.1015 4.95745 3.9375 4.25745 3.7695 3.56945C3.1535 3.67345 2.5495 3.77745 1.9575 3.88145C1.3735 3.98545 0.8655 4.07345 0.4335 4.14545C0.3295 4.16145 0.2335 4.13745 0.1455 4.07345C0.0655 4.00945 0.0175 3.92545 0.00150001 3.82145C-0.00650001 3.71745 0.0175 3.62545 0.0735 3.54545C0.1375 3.45745 0.2215 3.40545 0.3255 3.38945C0.7655 3.32545 1.2695 3.24945 1.8375 3.16145C2.4135 3.06545 3.0015 2.96545 3.6015 2.86145C3.4815 2.38945 3.3695 1.95345 3.2655 1.55345C3.1615 1.14545 3.0655 0.793454 2.9775 0.497454C2.9455 0.393455 2.9535 0.297455 3.0015 0.209454C3.0575 0.113455 3.1375 0.0494547 3.2415 0.0174547C3.3455 -0.0145454 3.4415 -0.00254557 3.5295 0.0534542C3.6255 0.101455 3.6855 0.177455 3.7095 0.281454C3.8855 0.921454 4.0895 1.73745 4.3215 2.72945C4.8575 2.64145 5.3695 2.55345 5.8575 2.46545C6.3455 2.37745 6.7735 2.29745 7.1415 2.22545C7.8535 2.08945 8.3855 2.10945 8.7375 2.28545C9.0895 2.46145 9.3175 2.78145 9.4215 3.24545C9.5495 3.78145 9.4095 4.29346 9.0015 4.78146C8.6015 5.26945 7.8775 5.70145 6.8295 6.07745C6.7255 6.10945 6.6255 6.10545 6.5295 6.06545C6.4415 6.01746 6.3775 5.94545 6.3375 5.84945C6.3055 5.74545 6.3095 5.64545 6.3495 5.54945C6.3975 5.45345 6.4735 5.38945 6.5775 5.35745C7.2335 5.14946 7.7135 4.92945 8.0175 4.69745C8.3295 4.45745 8.5255 4.22545 8.6055 4.00145C8.6855 3.77745 8.7015 3.58145 8.6535 3.41345C8.5975 3.18145 8.4775 3.02545 8.2935 2.94545C8.1095 2.86545 7.7735 2.86545 7.2855 2.94545C6.9575 3.00145 6.5455 3.07345 6.0495 3.16145C5.5615 3.24945 5.0455 3.34145 4.5015 3.43745C4.6615 4.11745 4.8215 4.80945 4.9815 5.51345C5.1415 6.21745 5.2895 6.88145 5.4255 7.50546C5.5695 8.12146 5.6855 8.64545 5.7735 9.07745C5.7895 9.18145 5.7695 9.27745 5.7135 9.36545C5.6575 9.45345 5.5735 9.50546 5.4615 9.52145Z" fill="black"/>
</svg>
