<svg width="8" height="7" viewBox="0 0 8 7" fill="none" xmlns="http://www.w3.org/2000/svg">
<path d="M0.396 6.456C0.292 6.456 0.2 6.42 0.12 6.348C0.04 6.276 0 6.188 0 6.084C0 5.972 0.04 5.88 0.12 5.808C0.2 5.736 0.292 5.7 0.396 5.7H4.668C5.084 5.7 5.42 5.676 5.676 5.628C5.94 5.572 6.144 5.468 6.288 5.316C6.44 5.156 6.544 4.932 6.6 4.644C6.656 4.348 6.688 3.96 6.696 3.48H0.48C0.376 3.48 0.284 3.444 0.204 3.372C0.132 3.292 0.096 3.2 0.096 3.096C0.096 2.992 0.132 2.904 0.204 2.832C0.284 2.76 0.376 2.724 0.48 2.724H6.696C6.68 2.156 6.612 1.732 6.492 1.452C6.372 1.172 6.168 0.988 5.88 0.9C5.6 0.804 5.196 0.756 4.668 0.756H0.6C0.496 0.756 0.404 0.72 0.324 0.648C0.252 0.576 0.216 0.488 0.216 0.384C0.216 0.272 0.252 0.18 0.324 0.108C0.404 0.036 0.496 0 0.6 0H4.668C5.228 0 5.688 0.0480001 6.048 0.144C6.416 0.232 6.704 0.396 6.912 0.636C7.12 0.868 7.264 1.196 7.344 1.62C7.432 2.036 7.476 2.572 7.476 3.228C7.476 3.884 7.432 4.424 7.344 4.848C7.264 5.264 7.12 5.592 6.912 5.832C6.704 6.064 6.416 6.228 6.048 6.324C5.688 6.412 5.228 6.456 4.668 6.456H0.396Z" fill="black"/>
</svg>
