<svg width="11" height="5" viewBox="0 0 11 5" fill="none" xmlns="http://www.w3.org/2000/svg">
<path d="M0.372 4.74C0.268 4.74 0.18 4.704 0.108 4.632C0.036 4.552 0 4.46 0 4.356C0 4.252 0.036 4.164 0.108 4.092C0.18 4.02 0.268 3.984 0.372 3.984H6.756C7.06 3.136 7.224 2.48 7.248 2.016C7.28 1.552 7.172 1.228 6.924 1.044C6.676 0.852 6.292 0.756 5.772 0.756H2.292C2.188 0.756 2.096 0.72 2.016 0.648C1.944 0.568 1.908 0.476 1.908 0.372C1.908 0.26 1.944 0.172 2.016 0.108C2.096 0.036 2.188 0 2.292 0H5.772C6.916 0 7.612 0.328 7.86 0.984C8.108 1.64 8 2.64 7.536 3.984H10.26C10.364 3.984 10.452 4.02 10.524 4.092C10.604 4.164 10.644 4.252 10.644 4.356C10.644 4.46 10.604 4.552 10.524 4.632C10.452 4.704 10.364 4.74 10.26 4.74H0.372Z" fill="black"/>
</svg>
