<svg width="16" height="20" viewBox="0 0 16 20" fill="none" xmlns="http://www.w3.org/2000/svg">
<path d="M2.368 19.328C1.70667 19.328 1.152 19.104 0.704 18.656C0.234667 18.2293 0 17.568 0 16.672C0 15.904 0.170667 15.0827 0.512 14.208C0.853333 13.312 1.32267 12.4373 1.92 11.584C2.51733 10.7093 3.18933 9.92 3.936 9.216C4.704 8.49067 5.504 7.91467 6.336 7.488C7.18933 7.06133 8.032 6.848 8.864 6.848C9.696 6.848 10.3893 7.072 10.944 7.52C11.4987 7.94667 11.776 8.52267 11.776 9.248C11.776 9.78133 11.6267 10.144 11.328 10.336C11.0507 10.528 10.6773 10.624 10.208 10.624C10.2507 10.4533 10.2827 10.272 10.304 10.08C10.3467 9.86667 10.368 9.67467 10.368 9.504C10.368 9.01333 10.2507 8.59733 10.016 8.256C9.78133 7.89333 9.376 7.712 8.8 7.712C8.20267 7.712 7.59467 7.92533 6.976 8.352C6.35733 8.75733 5.76 9.312 5.184 10.016C4.608 10.6987 4.096 11.4453 3.648 12.256C3.2 13.0667 2.848 13.8667 2.592 14.656C2.336 15.4453 2.208 16.1493 2.208 16.768C2.208 17.6 2.496 18.016 3.072 18.016C3.56267 18.016 4.096 17.792 4.672 17.344C5.248 16.8747 5.83467 16.288 6.432 15.584C7.05067 14.8587 7.63733 14.112 8.192 13.344C8.74667 12.576 9.23733 11.872 9.664 11.232C9.74933 11.104 9.80267 11.04 9.824 11.04C9.952 11.0613 10.112 11.104 10.304 11.168C10.5173 11.232 10.6987 11.3173 10.848 11.424C10.9973 11.5307 11.072 11.6693 11.072 11.84C11.072 12.032 10.976 12.2987 10.784 12.64C10.592 12.96 10.3787 13.3333 10.144 13.76C9.90933 14.1867 9.696 14.624 9.504 15.072C9.312 15.4987 9.216 15.904 9.216 16.288C9.216 16.608 9.30133 16.928 9.472 17.248C9.64267 17.5467 9.92 17.696 10.304 17.696C10.88 17.696 11.6373 17.28 12.576 16.448C13.5147 15.5947 14.464 14.3253 15.424 12.64L15.744 12.96C15.296 14.112 14.72 15.1253 14.016 16C13.312 16.8747 12.5547 17.5573 11.744 18.048C10.9547 18.5387 10.176 18.784 9.408 18.784C8.61867 18.784 8.032 18.5493 7.648 18.08C7.28533 17.6107 7.104 17.0987 7.104 16.544C7.104 16.416 7.11467 16.2773 7.136 16.128C7.15733 15.9573 7.17867 15.7867 7.2 15.616C6.28267 16.8533 5.44 17.7813 4.672 18.4C3.92533 19.0187 3.15733 19.328 2.368 19.328ZM11.232 4.704C10.7627 4.08533 10.24 3.47733 9.664 2.88C9.088 2.28267 8.416 1.65333 7.648 0.992001C7.69067 0.608 7.776 0.352001 7.904 0.224001C8.032 0.074667 8.18133 0 8.352 0C8.672 0 9.024 0.16 9.408 0.48C9.792 0.800001 10.1547 1.19467 10.496 1.664C10.8373 2.112 11.1147 2.54933 11.328 2.976C11.5627 3.38133 11.68 3.68 11.68 3.872C11.68 3.95733 11.648 4.096 11.584 4.288C11.52 4.48 11.4027 4.61867 11.232 4.704Z" fill="#1A1A1A"/>
</svg>
