<svg width="20" height="21" viewBox="0 0 20 21" fill="none" xmlns="http://www.w3.org/2000/svg">
<g filter="url(#filter0_d_21_340)">
<path d="M7.584 12.608C6.56 12.608 5.70667 12.2667 5.024 11.584C4.34133 10.9013 4 9.87733 4 8.512C4 7.44533 4.20267 6.41067 4.608 5.408C5.03467 4.384 5.58933 3.46667 6.272 2.656C6.95467 1.84533 7.712 1.20533 8.544 0.736C9.376 0.245333 10.1973 0 11.008 0C11.8827 0 12.48 0.256 12.8 0.768001C13.12 1.28 13.28 1.81333 13.28 2.368C13.28 2.98667 13.1307 3.53067 12.832 4C12.5547 4.46933 12.1707 4.704 11.68 4.704C11.3173 4.704 11.008 4.544 10.752 4.224C11.072 4.05333 11.3493 3.712 11.584 3.2C11.8187 2.66667 11.936 2.16533 11.936 1.696C11.936 1.44 11.8827 1.248 11.776 1.12C11.6907 0.970668 11.5093 0.896001 11.232 0.896001C10.656 0.896001 10.0587 1.152 9.44 1.664C8.84267 2.176 8.27733 2.83733 7.744 3.648C7.232 4.45867 6.80533 5.312 6.464 6.208C6.144 7.104 5.984 7.94667 5.984 8.736C5.984 9.39733 6.144 10.0053 6.464 10.56C6.784 11.1147 7.40267 11.392 8.32 11.392C9.17333 11.392 10.0267 11.1573 10.88 10.688C11.7547 10.2187 12.5653 9.54667 13.312 8.672C14.0587 7.79733 14.656 6.77333 15.104 5.6L15.52 5.92C15.0293 7.2 14.3573 8.352 13.504 9.376C12.6507 10.3787 11.712 11.168 10.688 11.744C9.664 12.32 8.62933 12.608 7.584 12.608Z" fill="#1A1A1A"/>
</g>
<defs>
<filter id="filter0_d_21_340" x="0" y="0" width="19.52" height="20.608" filterUnits="userSpaceOnUse" color-interpolation-filters="sRGB">
<feFlood flood-opacity="0" result="BackgroundImageFix"/>
<feColorMatrix in="SourceAlpha" type="matrix" values="0 0 0 0 0 0 0 0 0 0 0 0 0 0 0 0 0 0 127 0" result="hardAlpha"/>
<feOffset dy="4"/>
<feGaussianBlur stdDeviation="2"/>
<feComposite in2="hardAlpha" operator="out"/>
<feColorMatrix type="matrix" values="0 0 0 0 0 0 0 0 0 0 0 0 0 0 0 0 0 0 0.25 0"/>
<feBlend mode="normal" in2="BackgroundImageFix" result="effect1_dropShadow_21_340"/>
<feBlend mode="normal" in="SourceGraphic" in2="effect1_dropShadow_21_340" result="shape"/>
</filter>
</defs>
</svg>
