<svg width="18" height="24" viewBox="0 0 18 24" fill="none" xmlns="http://www.w3.org/2000/svg">
<path d="M2.4 24C2.03733 24 1.664 23.904 1.28 23.712C0.917333 23.5413 0.618667 23.2533 0.384 22.848C0.128 22.4427 0 21.9307 0 21.312C0 20.608 0.170667 19.8187 0.512 18.944C0.853333 18.0693 1.312 17.2053 1.888 16.352C2.464 15.4773 3.12533 14.6773 3.872 13.952C4.61867 13.2053 5.39733 12.6187 6.208 12.192C7.01867 11.744 7.81867 11.52 8.608 11.52C9.056 11.52 9.39733 11.6053 9.632 11.776C9.888 11.9253 10.016 12.1707 10.016 12.512C10.016 12.5973 10.0053 12.672 9.984 12.736C9.984 12.8 9.97333 12.8747 9.952 12.96C9.84533 12.7893 9.68533 12.672 9.472 12.608C9.28 12.5227 9.03467 12.48 8.736 12.48C8.05333 12.48 7.38133 12.6933 6.72 13.12C6.08 13.5253 5.48267 14.0693 4.928 14.752C4.39467 15.4133 3.92533 16.128 3.52 16.896C3.11467 17.664 2.79467 18.4107 2.56 19.136C2.34667 19.84 2.24 20.4373 2.24 20.928C2.24 21.3973 2.34667 21.7707 2.56 22.048C2.77333 22.3253 3.05067 22.464 3.392 22.464C3.968 22.464 4.66133 22.1013 5.472 21.376C6.304 20.6507 7.14667 19.6267 8 18.304C8.85333 16.9813 9.62133 15.4347 10.304 13.664C10.7733 12.4267 11.2533 11.168 11.744 9.888C12.256 8.608 12.768 7.38133 13.28 6.208C13.792 5.01333 14.2827 3.95733 14.752 3.04C15.2427 2.10133 15.7013 1.36533 16.128 0.832001C16.576 0.277334 16.9707 0 17.312 0C17.4827 0 17.632 0.0746663 17.76 0.223999C17.888 0.352 17.952 0.522667 17.952 0.736C17.952 1.07733 17.7707 1.664 17.408 2.496C17.0667 3.30667 16.608 4.288 16.032 5.44C15.4773 6.57067 14.8907 7.808 14.272 9.152C13.6533 10.496 13.056 11.8613 12.48 13.248C11.9253 14.6347 11.4667 15.9787 11.104 17.28C10.7627 18.56 10.592 19.7333 10.592 20.8C10.592 21.3973 10.624 21.8453 10.688 22.144C10.752 22.4427 10.9653 22.592 11.328 22.592C11.776 22.592 12.2987 22.4 12.896 22.016C13.4933 21.632 14.0907 21.088 14.688 20.384C15.2853 19.68 15.808 18.8373 16.256 17.856L16.64 18.144C16.2347 19.232 15.68 20.2133 14.976 21.088C14.272 21.9413 13.5147 22.6133 12.704 23.104C11.9147 23.616 11.1573 23.872 10.432 23.872C9.64267 23.872 9.088 23.6053 8.768 23.072C8.46933 22.56 8.32 22.0267 8.32 21.472C8.32 21.1093 8.37333 20.6293 8.48 20.032C8.58667 19.4347 8.736 18.7733 8.928 18.048C8.24533 19.1787 7.52 20.2027 6.752 21.12C5.984 22.016 5.22667 22.72 4.48 23.232C3.75467 23.744 3.06133 24 2.4 24Z" fill="#1A1A1A"/>
</svg>
