<svg width="15" height="32" viewBox="0 0 15 32" fill="none" xmlns="http://www.w3.org/2000/svg">
<path d="M1.76 32C1.54667 32 1.30133 31.9253 1.024 31.776C0.746667 31.648 0.512 31.3813 0.32 30.976C0.106667 30.5707 0 29.9733 0 29.184C0 28.2453 0.16 27.0187 0.48 25.504C0.8 24.0107 1.23733 22.3573 1.792 20.544C2.34667 18.7307 2.98667 16.8747 3.712 14.976C4.43733 13.056 5.216 11.2107 6.048 9.44C6.90133 7.648 7.76533 6.048 8.64 4.64C9.536 3.21067 10.4107 2.08 11.264 1.248C12.1173 0.416 12.928 0 13.696 0C14.144 0 14.432 0.138667 14.56 0.416C14.7093 0.693334 14.784 1.024 14.784 1.408C14.784 2.32533 14.528 3.328 14.016 4.416C13.5253 5.504 12.864 6.60267 12.032 7.712C11.2 8.8 10.2827 9.84533 9.28 10.848C8.27733 11.8293 7.264 12.672 6.24 13.376C6.13333 13.632 6.02667 13.8987 5.92 14.176C5.83467 14.432 5.73867 14.6987 5.632 14.976C5.86667 15.0187 6.048 15.1467 6.176 15.36C6.32533 15.552 6.41067 15.7653 6.432 16C6.58133 16.96 6.74133 17.824 6.912 18.592C7.08267 19.3387 7.33867 19.9253 7.68 20.352C8.04267 20.7787 8.55467 20.992 9.216 20.992C9.96267 20.992 10.592 20.7253 11.104 20.192C11.616 19.6373 12.1707 18.8587 12.768 17.856L13.248 18.176C12.7147 19.456 12.032 20.384 11.2 20.96C10.3893 21.536 9.67467 21.824 9.056 21.824C8.672 21.824 8.26667 21.728 7.84 21.536C7.43467 21.344 7.05067 21.088 6.688 20.768C6.688 22.112 6.53867 23.4453 6.24 24.768C5.96267 26.0907 5.58933 27.296 5.12 28.384C4.65067 29.472 4.128 30.3467 3.552 31.008C2.976 31.6693 2.37867 32 1.76 32ZM2.592 30.464C2.82667 30.464 3.09333 30.2507 3.392 29.824C3.69067 29.3973 3.97867 28.832 4.256 28.128C4.55467 27.4453 4.82133 26.688 5.056 25.856C5.29067 25.024 5.48267 24.192 5.632 23.36C5.78133 22.528 5.856 21.7813 5.856 21.12C5.856 20.4587 5.77067 19.8613 5.6 19.328C5.42933 18.7733 5.152 18.1227 4.768 17.376C4.23467 18.976 3.75467 20.5227 3.328 22.016C2.90133 23.5093 2.57067 24.8533 2.336 26.048C2.10133 27.2427 1.984 28.2027 1.984 28.928C1.984 29.952 2.18667 30.464 2.592 30.464ZM6.752 12.064C8.13867 10.784 9.33333 9.504 10.336 8.224C11.36 6.92267 12.1493 5.77067 12.704 4.768C13.2587 3.744 13.536 3.01867 13.536 2.592C13.536 2.29333 13.3867 2.144 13.088 2.144C12.5333 2.144 11.904 2.60267 11.2 3.52C10.496 4.416 9.76 5.61067 8.992 7.104C8.224 8.59733 7.47733 10.2507 6.752 12.064Z" fill="#1A1A1A"/>
</svg>
