<svg width="17" height="25" viewBox="0 0 17 25" fill="none" xmlns="http://www.w3.org/2000/svg">
<path d="M1.312 24.064C0.906667 24.064 0.586667 23.7227 0.352 23.04C0.117333 22.3573 0 21.5893 0 20.736C0 19.712 0.170667 18.496 0.512 17.088C0.853333 15.68 1.30133 14.1973 1.856 12.64C2.41067 11.0827 3.02933 9.55733 3.712 8.064C4.416 6.57067 5.13067 5.216 5.856 4C6.58133 2.784 7.264 1.81333 7.904 1.088C8.544 0.362667 9.09867 0 9.568 0C9.952 0 10.2187 0.234667 10.368 0.704C10.5387 1.152 10.624 1.58933 10.624 2.016C10.624 2.61333 10.4853 3.33867 10.208 4.192C9.952 5.04533 9.58933 5.96267 9.12 6.944C8.65067 7.904 8.10667 8.85333 7.488 9.792C6.86933 10.7307 6.19733 11.5947 5.472 12.384C4.74667 13.152 4.01067 13.76 3.264 14.208C3.008 14.8267 2.784 15.52 2.592 16.288C2.42133 17.056 2.29333 17.8133 2.208 18.56C2.12267 19.2853 2.08 19.936 2.08 20.512C2.08 20.7467 2.08 20.9493 2.08 21.12C2.10133 21.2907 2.12267 21.4507 2.144 21.6C2.44267 20.7253 2.76267 19.8827 3.104 19.072C3.46667 18.24 3.85067 17.4827 4.256 16.8C4.66133 16.096 5.088 15.488 5.536 14.976C6.00533 14.4427 6.496 14.0373 7.008 13.76C7.52 13.4613 8.064 13.312 8.64 13.312C9.23733 13.312 9.70667 13.4613 10.048 13.76C10.4107 14.0373 10.6667 14.4 10.816 14.848C10.9867 15.2747 11.072 15.7227 11.072 16.192C11.072 16.8533 10.9547 17.4933 10.72 18.112C10.5067 18.7307 10.2827 19.328 10.048 19.904C9.81333 20.48 9.696 21.0347 9.696 21.568C9.696 21.9947 9.78133 22.304 9.952 22.496C10.144 22.688 10.3787 22.784 10.656 22.784C11.1467 22.784 11.6907 22.5493 12.288 22.08C12.9067 21.6107 13.5147 20.992 14.112 20.224C14.7093 19.4347 15.2213 18.5813 15.648 17.664L16.064 18.048C15.616 19.0933 15.072 20.0427 14.432 20.896C13.792 21.728 13.088 22.3893 12.32 22.88C11.552 23.3707 10.752 23.616 9.92 23.616C9.19467 23.616 8.64 23.424 8.256 23.04C7.89333 22.656 7.712 22.176 7.712 21.6C7.712 21.152 7.79733 20.6507 7.968 20.096C8.13867 19.5413 8.29867 18.976 8.448 18.4C8.61867 17.824 8.704 17.28 8.704 16.768C8.704 16.2133 8.58667 15.8187 8.352 15.584C8.11733 15.3493 7.82933 15.232 7.488 15.232C6.95467 15.232 6.47467 15.4453 6.048 15.872C5.62133 16.2987 5.22667 16.8533 4.864 17.536C4.52267 18.1973 4.192 18.9013 3.872 19.648C3.57333 20.3947 3.28533 21.1093 3.008 21.792C2.73067 22.4533 2.45333 22.9973 2.176 23.424C1.89867 23.8507 1.61067 24.064 1.312 24.064ZM3.68 12.96C4.27733 12.4907 4.85333 11.8933 5.408 11.168C5.984 10.4427 6.51733 9.67467 7.008 8.864C7.49867 8.032 7.936 7.22133 8.32 6.432C8.704 5.64267 9.00267 4.928 9.216 4.288C9.42933 3.648 9.536 3.168 9.536 2.848C9.536 2.74133 9.52533 2.67733 9.504 2.656C9.48267 2.61333 9.45067 2.592 9.408 2.592C9.25867 2.592 8.94933 2.89067 8.48 3.488C8.032 4.064 7.50933 4.84267 6.912 5.824C6.31467 6.80533 5.728 7.91467 5.152 9.152C4.576 10.3893 4.08533 11.6587 3.68 12.96Z" fill="#1A1A1A"/>
</svg>
