<svg width="9" height="19" viewBox="0 0 9 19" fill="none" xmlns="http://www.w3.org/2000/svg">
<path d="M2.464 18.688C1.632 18.688 1.01333 18.4213 0.608 17.888C0.202667 17.376 0 16.7467 0 16C0 15.5093 0.0853333 14.8907 0.256 14.144C0.448 13.3973 0.693333 12.6187 0.992 11.808C1.29067 10.976 1.632 10.1973 2.016 9.472C2.42133 8.74667 2.848 8.16 3.296 7.712C3.744 7.24267 4.18133 7.008 4.608 7.008C4.8 7.008 4.96 7.072 5.088 7.2C5.23733 7.30667 5.312 7.47733 5.312 7.712C5.312 7.968 5.14133 8.384 4.8 8.96C4.48 9.536 4.096 10.1973 3.648 10.944C3.2 11.6907 2.80533 12.48 2.464 13.312C2.144 14.1227 1.984 14.9013 1.984 15.648C1.984 16.416 2.112 16.928 2.368 17.184C2.624 17.44 3.01867 17.568 3.552 17.568C4.27733 17.568 5.04533 17.2053 5.856 16.48C6.688 15.7547 7.56267 14.4853 8.48 12.672L8.768 12.992C8.14933 14.8267 7.25333 16.2347 6.08 17.216C4.928 18.1973 3.72267 18.688 2.464 18.688ZM6.624 4.704C6.15467 4.08533 5.632 3.47733 5.056 2.88C4.48 2.28267 3.808 1.65333 3.04 0.992001C3.08267 0.608 3.168 0.352001 3.296 0.224001C3.424 0.074667 3.57333 0 3.744 0C4.064 0 4.416 0.16 4.8 0.48C5.184 0.800001 5.54667 1.19467 5.888 1.664C6.22933 2.112 6.50667 2.54933 6.72 2.976C6.95467 3.38133 7.072 3.68 7.072 3.872C7.072 3.95733 7.04 4.096 6.976 4.288C6.912 4.48 6.79467 4.61867 6.624 4.704Z" fill="#1A1A1A"/>
</svg>
