<svg width="9" height="18" viewBox="0 0 9 18" fill="none" xmlns="http://www.w3.org/2000/svg">
<path d="M2.464 17.376C1.632 17.376 1.01333 17.1093 0.608 16.576C0.202667 16.064 0 15.4347 0 14.688C0 14.1973 0.0853333 13.5787 0.256 12.832C0.448 12.0853 0.693333 11.3067 0.992 10.496C1.29067 9.664 1.632 8.88533 2.016 8.16C2.42133 7.43467 2.848 6.848 3.296 6.4C3.744 5.93067 4.18133 5.696 4.608 5.696C4.8 5.696 4.96 5.76 5.088 5.888C5.23733 5.99467 5.312 6.16533 5.312 6.4C5.312 6.656 5.14133 7.072 4.8 7.648C4.48 8.224 4.096 8.88533 3.648 9.632C3.2 10.3787 2.80533 11.168 2.464 12C2.144 12.8107 1.984 13.5893 1.984 14.336C1.984 15.104 2.112 15.616 2.368 15.872C2.624 16.128 3.01867 16.256 3.552 16.256C4.27733 16.256 5.04533 15.8933 5.856 15.168C6.688 14.4427 7.56267 13.1733 8.48 11.36L8.768 11.68C8.14933 13.5147 7.25333 14.9227 6.08 15.904C4.928 16.8853 3.72267 17.376 2.464 17.376ZM6.304 2.72C5.96267 2.72 5.65333 2.63467 5.376 2.464C5.12 2.29333 4.992 2.02667 4.992 1.664C4.992 1.216 5.248 0.831999 5.76 0.511999C6.29333 0.170666 6.816 0 7.328 0C7.648 0 7.904 0.0746663 8.096 0.223999C8.288 0.373333 8.384 0.629333 8.384 0.992C8.384 1.39733 8.16 1.792 7.712 2.176C7.28533 2.53867 6.816 2.72 6.304 2.72Z" fill="#1A1A1A"/>
</svg>
