<svg width="11" height="24" viewBox="0 0 11 24" fill="none" xmlns="http://www.w3.org/2000/svg">
<path d="M2.56 24C1.64267 24 0.981333 23.68 0.576 23.04C0.192 22.4213 0 21.6427 0 20.704C0 19.68 0.192 18.464 0.576 17.056C0.96 15.648 1.46133 14.1653 2.08 12.608C2.72 11.0507 3.41333 9.536 4.16 8.064C4.90667 6.57067 5.65333 5.216 6.4 4C7.14667 2.784 7.82933 1.81333 8.448 1.088C9.088 0.362666 9.58933 0 9.952 0C10.1867 0 10.3787 0.138667 10.528 0.416C10.6773 0.672 10.7947 0.991999 10.88 1.376C10.9653 1.73867 11.008 2.06933 11.008 2.368C11.008 2.944 10.8587 3.70133 10.56 4.64C10.2827 5.55733 9.87733 6.592 9.344 7.744C8.832 8.87467 8.21333 10.0267 7.488 11.2C6.784 12.352 6.00533 13.4613 5.152 14.528C4.32 15.5947 3.43467 16.512 2.496 17.28C2.368 17.856 2.26133 18.4213 2.176 18.976C2.112 19.5093 2.08 20.0213 2.08 20.512C2.08 21.344 2.19733 21.9627 2.432 22.368C2.66667 22.7733 3.01867 22.976 3.488 22.976C4.064 22.976 4.62933 22.72 5.184 22.208C5.76 21.696 6.29333 21.056 6.784 20.288C7.296 19.4987 7.73333 18.688 8.096 17.856L8.576 18.112C7.72267 19.9253 6.79467 21.3653 5.792 22.432C4.78933 23.4773 3.712 24 2.56 24ZM2.784 16.192C3.53067 15.4453 4.256 14.592 4.96 13.632C5.664 12.6507 6.31467 11.6373 6.912 10.592C7.53067 9.54667 8.07467 8.53333 8.544 7.552C9.01333 6.57067 9.376 5.696 9.632 4.928C9.888 4.13867 10.016 3.53067 10.016 3.104C10.016 2.89067 9.984 2.752 9.92 2.688C9.87733 2.624 9.83467 2.592 9.792 2.592C9.62133 2.592 9.32267 2.86933 8.896 3.424C8.49067 3.95733 8.01067 4.68267 7.456 5.6C6.90133 6.51733 6.336 7.56267 5.76 8.736C5.184 9.90933 4.62933 11.136 4.096 12.416C3.584 13.696 3.14667 14.9547 2.784 16.192Z" fill="#1A1A1A"/>
</svg>
