<svg width="23" height="12" viewBox="0 0 23 12" fill="none" xmlns="http://www.w3.org/2000/svg">
<path d="M17.248 11.616C16.5013 11.616 15.9573 11.3813 15.616 10.912C15.2747 10.464 15.104 9.92 15.104 9.28C15.104 8.74667 15.1787 8.21333 15.328 7.68C15.4987 7.14667 15.6587 6.624 15.808 6.112C15.9787 5.6 16.064 5.14133 16.064 4.736C16.064 4.30933 15.968 4.01067 15.776 3.84C15.584 3.66933 15.3707 3.584 15.136 3.584C14.6027 3.584 14.016 4 13.376 4.832C12.7573 5.664 11.9467 6.83733 10.944 8.352C10.6027 8.864 10.3147 9.38667 10.08 9.92C9.84533 10.432 9.62133 10.9013 9.408 11.328C9.23733 11.328 9.024 11.3067 8.768 11.264C8.512 11.2213 8.27733 11.1467 8.064 11.04C7.872 10.9547 7.776 10.8373 7.776 10.688C7.776 10.5387 7.872 10.1867 8.064 9.632C8.27733 9.056 8.512 8.39467 8.768 7.648C9.04533 6.88 9.28 6.112 9.472 5.344C9.68533 4.55467 9.792 3.88267 9.792 3.328C9.792 2.96533 9.728 2.67733 9.6 2.464C9.49333 2.22933 9.29067 2.112 8.992 2.112C8.52267 2.112 7.95733 2.4 7.296 2.976C6.63467 3.53067 5.952 4.26667 5.248 5.184C4.544 6.10133 3.872 7.11467 3.232 8.224C2.61333 9.312 2.112 10.4 1.728 11.488C1.536 11.488 1.30133 11.456 1.024 11.392C0.746667 11.328 0.512 11.2427 0.32 11.136C0.106667 11.0293 0 10.9227 0 10.816C0 10.688 0.117333 10.3147 0.352 9.696C0.565333 9.056 0.821333 8.29867 1.12 7.424C1.39733 6.528 1.64267 5.62133 1.856 4.704C2.09067 3.78667 2.208 2.976 2.208 2.272C2.336 2.12267 2.53867 1.97333 2.816 1.824C3.09333 1.67467 3.38133 1.6 3.68 1.6C3.97867 1.6 4.192 1.67467 4.32 1.824C4.46933 1.97333 4.544 2.176 4.544 2.432C4.544 2.70933 4.45867 3.18933 4.288 3.872C4.13867 4.53333 3.94667 5.26933 3.712 6.08C4.13867 5.39733 4.61867 4.704 5.152 4C5.70667 3.27467 6.28267 2.61333 6.88 2.016C7.47733 1.41867 8.07467 0.938667 8.672 0.576C9.29067 0.192 9.888 0 10.464 0C11.1253 0 11.5733 0.245333 11.808 0.736C12.064 1.20533 12.192 1.77067 12.192 2.432C12.192 2.96533 12.128 3.53067 12 4.128C11.8933 4.704 11.7653 5.248 11.616 5.76C11.4667 6.25067 11.328 6.64533 11.2 6.944C11.648 6.13333 12.1387 5.35467 12.672 4.608C13.2267 3.84 13.824 3.22133 14.464 2.752C15.104 2.26133 15.7867 2.016 16.512 2.016C17.1947 2.016 17.664 2.21867 17.92 2.624C18.1973 3.02933 18.336 3.50933 18.336 4.064C18.336 4.61867 18.24 5.22667 18.048 5.888C17.856 6.54933 17.6533 7.18933 17.44 7.808C17.248 8.42667 17.152 8.96 17.152 9.408C17.152 9.68533 17.216 9.94133 17.344 10.176C17.4933 10.3893 17.7493 10.496 18.112 10.496C18.7093 10.496 19.264 10.2293 19.776 9.696C20.3093 9.14133 20.8 8.48 21.248 7.712C21.696 6.92267 22.08 6.16533 22.4 5.44L22.784 5.888C22.4427 6.784 22.0053 7.68 21.472 8.576C20.9387 9.45067 20.3093 10.176 19.584 10.752C18.88 11.328 18.1013 11.616 17.248 11.616Z" fill="#1A1A1A"/>
</svg>
