<svg width="13" height="20" viewBox="0 0 13 20" fill="none" xmlns="http://www.w3.org/2000/svg">
<path d="M2.528 19.296C1.61067 19.296 0.96 19.008 0.576 18.432C0.192 17.8773 0 17.1947 0 16.384C0 15.7227 0.106667 15.04 0.32 14.336C0.533333 13.632 0.810667 12.9707 1.152 12.352C1.51467 11.7333 1.90933 11.232 2.336 10.848C2.784 10.464 3.232 10.272 3.68 10.272C3.78667 10.272 3.89333 10.2933 4 10.336C4.128 10.3573 4.24533 10.3893 4.352 10.432C4.16 10.6027 3.92533 10.9227 3.648 11.392C3.392 11.84 3.14667 12.3627 2.912 12.96C2.67733 13.536 2.47467 14.112 2.304 14.688C2.15467 15.264 2.08 15.7547 2.08 16.16C2.08 16.8 2.18667 17.2693 2.4 17.568C2.61333 17.8453 2.89067 17.984 3.232 17.984C3.68 17.984 4.21333 17.7493 4.832 17.28C5.45067 16.7893 6.05867 16.1707 6.656 15.424C6.05867 14.9333 5.58933 14.2933 5.248 13.504C4.928 12.6933 4.768 11.872 4.768 11.04C4.768 10.336 4.88533 9.67467 5.12 9.056C5.376 8.43733 5.73867 7.94667 6.208 7.584C6.67733 7.2 7.24267 7.008 7.904 7.008C8.77867 7.008 9.36533 7.24267 9.664 7.712C9.96267 8.18133 10.112 8.768 10.112 9.472C10.112 10.304 9.90933 11.232 9.504 12.256C9.09867 13.2587 8.58667 14.2293 7.968 15.168C8.352 15.3813 8.75733 15.488 9.184 15.488C9.52533 15.488 9.90933 15.424 10.336 15.296C10.7627 15.1467 11.1787 14.9013 11.584 14.56C12.0107 14.2187 12.352 13.76 12.608 13.184L12.992 13.504C12.5653 14.5067 11.9573 15.2213 11.168 15.648C10.4 16.0533 9.664 16.256 8.96 16.256C8.68267 16.256 8.416 16.2347 8.16 16.192C7.904 16.128 7.65867 16.0427 7.424 15.936C6.69867 16.896 5.89867 17.696 5.024 18.336C4.17067 18.976 3.33867 19.296 2.528 19.296ZM7.232 14.592C7.76533 13.8027 8.20267 12.9813 8.544 12.128C8.90667 11.2533 9.088 10.432 9.088 9.664C9.088 9.04533 8.992 8.59733 8.8 8.32C8.62933 8.02133 8.40533 7.872 8.128 7.872C7.70133 7.872 7.264 8.18133 6.816 8.8C6.368 9.41867 6.144 10.1973 6.144 11.136C6.144 11.7547 6.22933 12.384 6.4 13.024C6.592 13.6427 6.86933 14.1653 7.232 14.592ZM8.992 4.704C8.84267 4.61867 8.72533 4.48 8.64 4.288C8.576 4.096 8.544 3.95733 8.544 3.872C8.544 3.68 8.65067 3.38133 8.864 2.976C9.09867 2.54933 9.38667 2.112 9.728 1.664C10.0693 1.19467 10.432 0.800001 10.816 0.48C11.2 0.16 11.552 0 11.872 0C12.0427 0 12.192 0.074667 12.32 0.224001C12.4693 0.352001 12.5547 0.608 12.576 0.992001C11.808 1.65333 11.136 2.28267 10.56 2.88C9.984 3.47733 9.46133 4.08533 8.992 4.704Z" fill="#1A1A1A"/>
</svg>
