<svg width="13" height="13" viewBox="0 0 13 13" fill="none" xmlns="http://www.w3.org/2000/svg">
<path d="M2.528 12.288C1.61067 12.288 0.96 12 0.576 11.424C0.192 10.8693 0 10.1867 0 9.376C0 8.71467 0.106667 8.032 0.32 7.328C0.533333 6.624 0.810667 5.96267 1.152 5.344C1.51467 4.72533 1.90933 4.224 2.336 3.84C2.784 3.456 3.232 3.264 3.68 3.264C3.78667 3.264 3.89333 3.28533 4 3.328C4.128 3.34933 4.24533 3.38133 4.352 3.424C4.16 3.59467 3.92533 3.91467 3.648 4.384C3.392 4.832 3.14667 5.35467 2.912 5.952C2.67733 6.528 2.47467 7.104 2.304 7.68C2.15467 8.256 2.08 8.74667 2.08 9.152C2.08 9.792 2.18667 10.2613 2.4 10.56C2.61333 10.8373 2.89067 10.976 3.232 10.976C3.68 10.976 4.21333 10.7413 4.832 10.272C5.45067 9.78133 6.05867 9.16267 6.656 8.416C6.05867 7.92533 5.58933 7.28533 5.248 6.496C4.928 5.68533 4.768 4.864 4.768 4.032C4.768 3.328 4.88533 2.66667 5.12 2.048C5.376 1.42933 5.73867 0.938667 6.208 0.576C6.67733 0.192 7.24267 0 7.904 0C8.77867 0 9.36533 0.234667 9.664 0.704C9.96267 1.17333 10.112 1.76 10.112 2.464C10.112 3.296 9.90933 4.224 9.504 5.248C9.09867 6.25067 8.58667 7.22133 7.968 8.16C8.352 8.37333 8.75733 8.48 9.184 8.48C9.52533 8.48 9.90933 8.416 10.336 8.288C10.7627 8.13867 11.1787 7.89333 11.584 7.552C12.0107 7.21067 12.352 6.752 12.608 6.176L12.992 6.496C12.5653 7.49867 11.9573 8.21333 11.168 8.64C10.4 9.04533 9.664 9.248 8.96 9.248C8.68267 9.248 8.416 9.22667 8.16 9.184C7.904 9.12 7.65867 9.03467 7.424 8.928C6.69867 9.888 5.89867 10.688 5.024 11.328C4.17067 11.968 3.33867 12.288 2.528 12.288ZM7.232 7.584C7.76533 6.79467 8.20267 5.97333 8.544 5.12C8.90667 4.24533 9.088 3.424 9.088 2.656C9.088 2.03733 8.992 1.58933 8.8 1.312C8.62933 1.01333 8.40533 0.864 8.128 0.864C7.70133 0.864 7.264 1.17333 6.816 1.792C6.368 2.41067 6.144 3.18933 6.144 4.128C6.144 4.74667 6.22933 5.376 6.4 6.016C6.592 6.63467 6.86933 7.15733 7.232 7.584Z" fill="#1A1A1A"/>
</svg>
