<svg width="15" height="21" viewBox="0 0 15 21" fill="none" xmlns="http://www.w3.org/2000/svg">
<path d="M0.992 20.896C0.821333 20.896 0.661333 20.8 0.512 20.608C0.341333 20.4373 0.213333 20.2453 0.128 20.032C0.0426667 19.84 0 19.7227 0 19.68C0.298667 18.6347 0.597333 17.696 0.896 16.864C1.17333 16.0533 1.46133 15.2107 1.76 14.336C2.03733 13.4827 2.31467 12.48 2.592 11.328C2.86933 10.1547 3.15733 8.704 3.456 6.976C3.75467 5.248 4.05333 3.104 4.352 0.544001C4.37333 0.352001 4.416 0.213334 4.48 0.128C4.544 0.0426668 4.704 0 4.96 0C5.51467 0 5.90933 0.16 6.144 0.48C6.37867 0.778667 6.496 1.10933 6.496 1.472C6.496 1.77067 6.432 2.304 6.304 3.072C6.176 3.84 5.99467 4.74667 5.76 5.792C6.12267 5.088 6.57067 4.37333 7.104 3.648C7.65867 2.92267 8.288 2.31467 8.992 1.824C9.696 1.33333 10.464 1.088 11.296 1.088C12.2347 1.088 13.0027 1.42933 13.6 2.112C14.2187 2.77333 14.528 3.648 14.528 4.736C14.528 5.568 14.336 6.45333 13.952 7.392C13.5893 8.30933 13.0667 9.184 12.384 10.016C11.7227 10.8267 10.9333 11.488 10.016 12C9.09867 12.512 8.08533 12.768 6.976 12.768C6.42133 12.768 5.97333 12.704 5.632 12.576C5.29067 12.448 5.12 12.32 5.12 12.192C5.12 12.1067 5.19467 12.0533 5.344 12.032C5.51467 12.032 5.70667 12.032 5.92 12.032C6.77333 12.032 7.584 11.8293 8.352 11.424C9.14133 10.9973 9.84533 10.4427 10.464 9.76C11.0827 9.07733 11.5627 8.32 11.904 7.488C12.2667 6.656 12.448 5.83467 12.448 5.024C12.448 4.34133 12.2987 3.76533 12 3.296C11.7227 2.80533 11.264 2.56 10.624 2.56C10.0693 2.56 9.51467 2.74133 8.96 3.104C8.42667 3.44533 7.91467 3.89333 7.424 4.448C6.95467 4.98133 6.528 5.54667 6.144 6.144C5.78133 6.72 5.504 7.24267 5.312 7.712C4.928 9.312 4.544 10.848 4.16 12.32C3.776 13.8133 3.40267 15.1573 3.04 16.352C2.69867 17.568 2.38933 18.56 2.112 19.328C1.81333 20.096 1.568 20.5653 1.376 20.736C1.26933 20.8427 1.14133 20.896 0.992 20.896Z" fill="#1A1A1A"/>
</svg>
