<svg width="15" height="21" viewBox="0 0 15 21" fill="none" xmlns="http://www.w3.org/2000/svg">
<path d="M6.688 20.384C6.38933 20.384 6.12267 20.224 5.888 19.904C5.67467 19.584 5.568 18.9653 5.568 18.048C5.568 17.3013 5.64267 16.3733 5.792 15.264C5.96267 14.1547 6.18667 12.9813 6.464 11.744C6.74133 10.528 7.072 9.376 7.456 8.288C6.60267 9.504 5.73867 10.496 4.864 11.264C4.01067 12.0107 3.18933 12.384 2.4 12.384C2.03733 12.384 1.664 12.288 1.28 12.096C0.917333 11.9253 0.618667 11.6373 0.384 11.232C0.128 10.8267 0 10.2933 0 9.632C0 8.88533 0.170667 8.08533 0.512 7.232C0.853333 6.35733 1.32267 5.49333 1.92 4.64C2.51733 3.78667 3.2 3.01867 3.968 2.336C4.736 1.632 5.54667 1.06667 6.4 0.64C7.25333 0.213333 8.10667 0 8.96 0C9.68533 0 10.2827 0.149333 10.752 0.448C11.2427 0.746667 11.488 1.12 11.488 1.568C11.488 1.76 11.4347 1.96267 11.328 2.176C11.2427 2.368 11.104 2.51733 10.912 2.624C10.8053 2.70933 10.6453 2.752 10.432 2.752C10.432 2.28267 10.2933 1.87733 10.016 1.536C9.73867 1.17333 9.26933 0.992001 8.608 0.992001C7.904 0.992001 7.232 1.20533 6.592 1.632C5.952 2.03733 5.36533 2.57067 4.832 3.232C4.32 3.872 3.86133 4.576 3.456 5.344C3.072 6.09067 2.77333 6.816 2.56 7.52C2.34667 8.224 2.24 8.82133 2.24 9.312C2.24 9.78133 2.336 10.1547 2.528 10.432C2.74133 10.7093 3.01867 10.848 3.36 10.848C3.78667 10.848 4.24533 10.6453 4.736 10.24C5.22667 9.83467 5.728 9.30133 6.24 8.64C6.77333 7.97867 7.296 7.25333 7.808 6.464C8.34133 5.65333 8.85333 4.85333 9.344 4.064C9.49333 3.82933 9.632 3.648 9.76 3.52C9.90933 3.392 10.0587 3.28533 10.208 3.2C10.4427 3.09333 10.6453 3.05067 10.816 3.072C11.008 3.09333 11.1467 3.14667 11.232 3.232C11.3387 3.33867 11.392 3.47733 11.392 3.648C11.392 3.98933 11.2107 4.448 10.848 5.024C10.5067 5.6 10.112 6.336 9.664 7.232C9.23733 8.10667 8.87467 9.19467 8.576 10.496C9.49333 10.4107 10.4107 10.08 11.328 9.504C12.2453 8.90667 13.1093 7.82933 13.92 6.272L14.304 6.624C13.6 8.24533 12.704 9.39733 11.616 10.08C10.5493 10.7627 9.51467 11.1573 8.512 11.264C8.68267 11.8187 8.81067 12.3947 8.896 12.992C9.00267 13.5893 9.056 14.2187 9.056 14.88C9.056 15.8827 8.94933 16.8 8.736 17.632C8.544 18.464 8.26667 19.1253 7.904 19.616C7.54133 20.128 7.136 20.384 6.688 20.384ZM7.552 18.624C7.72267 18.624 7.86133 18.4213 7.968 18.016C8.096 17.6107 8.192 17.088 8.256 16.448C8.32 15.8293 8.352 15.2107 8.352 14.592C8.352 14.1653 8.33067 13.7493 8.288 13.344C8.26667 12.96 8.21333 12.576 8.128 12.192C7.85067 13.3227 7.63733 14.3787 7.488 15.36C7.36 16.3627 7.296 17.152 7.296 17.728C7.296 18.0053 7.31733 18.2187 7.36 18.368C7.40267 18.5387 7.46667 18.624 7.552 18.624Z" fill="#1A1A1A"/>
</svg>
