<svg width="16" height="18" viewBox="0 0 16 18" fill="none" xmlns="http://www.w3.org/2000/svg">
<path d="M2.4 17.504C1.67467 17.504 1.088 17.184 0.64 16.544C0.213333 15.8827 0 15.1253 0 14.272C0 13.6533 0.096 12.9387 0.288 12.128C0.501333 11.3173 0.757333 10.5173 1.056 9.728C1.35467 8.93867 1.664 8.288 1.984 7.776C2.304 7.264 2.58133 7.008 2.816 7.008C2.92267 7.008 3.104 7.072 3.36 7.2C3.616 7.30667 3.82933 7.456 4 7.648C3.76533 8.01067 3.47733 8.56533 3.136 9.312C2.79467 10.0587 2.496 10.8587 2.24 11.712C1.984 12.5653 1.856 13.3547 1.856 14.08C1.856 14.2507 1.87733 14.5173 1.92 14.88C1.96267 15.2213 2.06933 15.5307 2.24 15.808C2.41067 16.0853 2.66667 16.224 3.008 16.224C3.41333 16.224 3.82933 16.0213 4.256 15.616C4.68267 15.1893 5.10933 14.6453 5.536 13.984C5.984 13.3227 6.41067 12.608 6.816 11.84C7.22133 11.072 7.59467 10.336 7.936 9.632C8.29867 8.928 8.59733 8.34133 8.832 7.872C8.96 7.89333 9.14133 7.936 9.376 8C9.632 8.064 9.856 8.14933 10.048 8.256C10.2613 8.36267 10.368 8.512 10.368 8.704C10.368 8.78933 10.2613 9.07733 10.048 9.568C9.83467 10.0373 9.57867 10.624 9.28 11.328C9.00267 12.0107 8.75733 12.704 8.544 13.408C8.33067 14.112 8.224 14.7307 8.224 15.264C8.224 15.648 8.29867 15.9573 8.448 16.192C8.61867 16.4267 8.896 16.544 9.28 16.544C9.728 16.544 10.272 16.3413 10.912 15.936C11.552 15.5307 12.2027 14.944 12.864 14.176C13.5253 13.3867 14.112 12.448 14.624 11.36L15.04 11.648C14.592 12.8 14.0053 13.824 13.28 14.72C12.5547 15.5947 11.7867 16.2773 10.976 16.768C10.1653 17.2587 9.376 17.504 8.608 17.504C8.05333 17.504 7.60533 17.3973 7.264 17.184C6.944 16.9707 6.70933 16.6827 6.56 16.32C6.432 15.9573 6.368 15.5627 6.368 15.136C6.368 14.88 6.38933 14.624 6.432 14.368C6.47467 14.0907 6.528 13.8133 6.592 13.536C6.208 14.24 5.792 14.9013 5.344 15.52C4.896 16.1173 4.42667 16.5973 3.936 16.96C3.44533 17.3227 2.93333 17.504 2.4 17.504ZM8.16 4.704C7.69067 4.08533 7.168 3.47733 6.592 2.88C6.016 2.28267 5.344 1.65333 4.576 0.992C4.61867 0.608 4.704 0.352 4.832 0.223999C4.96 0.0746663 5.10933 0 5.28 0C5.6 0 5.952 0.16 6.336 0.48C6.72 0.8 7.08267 1.19467 7.424 1.664C7.76533 2.112 8.04267 2.54933 8.256 2.976C8.49067 3.38133 8.608 3.68 8.608 3.872C8.608 3.95733 8.576 4.096 8.512 4.288C8.448 4.48 8.33067 4.61867 8.16 4.704Z" fill="#1A1A1A"/>
</svg>
