<svg width="16" height="11" viewBox="0 0 16 11" fill="none" xmlns="http://www.w3.org/2000/svg">
<path d="M2.4 10.496C1.67467 10.496 1.088 10.176 0.64 9.536C0.213333 8.87467 0 8.11733 0 7.264C0 6.64533 0.096 5.93067 0.288 5.12C0.501333 4.30933 0.757333 3.50933 1.056 2.72C1.35467 1.93067 1.664 1.28 1.984 0.768C2.304 0.256 2.58133 0 2.816 0C2.92267 0 3.104 0.0639998 3.36 0.191999C3.616 0.298667 3.82933 0.448 4 0.639999C3.76533 1.00267 3.47733 1.55733 3.136 2.304C2.79467 3.05067 2.496 3.85067 2.24 4.704C1.984 5.55733 1.856 6.34667 1.856 7.072C1.856 7.24267 1.87733 7.50933 1.92 7.872C1.96267 8.21333 2.06933 8.52267 2.24 8.8C2.41067 9.07733 2.66667 9.216 3.008 9.216C3.41333 9.216 3.82933 9.01333 4.256 8.608C4.68267 8.18133 5.10933 7.63733 5.536 6.976C5.984 6.31467 6.41067 5.6 6.816 4.832C7.22133 4.064 7.59467 3.328 7.936 2.624C8.29867 1.92 8.59733 1.33333 8.832 0.863999C8.96 0.885333 9.14133 0.928 9.376 0.992C9.632 1.056 9.856 1.14133 10.048 1.248C10.2613 1.35467 10.368 1.504 10.368 1.696C10.368 1.78133 10.2613 2.06933 10.048 2.56C9.83467 3.02933 9.57867 3.616 9.28 4.32C9.00267 5.00267 8.75733 5.696 8.544 6.4C8.33067 7.104 8.224 7.72267 8.224 8.256C8.224 8.64 8.29867 8.94933 8.448 9.184C8.61867 9.41867 8.896 9.536 9.28 9.536C9.728 9.536 10.272 9.33333 10.912 8.928C11.552 8.52267 12.2027 7.936 12.864 7.168C13.5253 6.37867 14.112 5.44 14.624 4.352L15.04 4.64C14.592 5.792 14.0053 6.816 13.28 7.712C12.5547 8.58667 11.7867 9.26933 10.976 9.76C10.1653 10.2507 9.376 10.496 8.608 10.496C8.05333 10.496 7.60533 10.3893 7.264 10.176C6.944 9.96267 6.70933 9.67467 6.56 9.312C6.432 8.94933 6.368 8.55467 6.368 8.128C6.368 7.872 6.38933 7.616 6.432 7.36C6.47467 7.08267 6.528 6.80533 6.592 6.528C6.208 7.232 5.792 7.89333 5.344 8.512C4.896 9.10933 4.42667 9.58933 3.936 9.952C3.44533 10.3147 2.93333 10.496 2.4 10.496Z" fill="#1A1A1A"/>
</svg>
