<svg width="14" height="12" viewBox="0 0 14 12" fill="none" xmlns="http://www.w3.org/2000/svg">
<path d="M1.76 11.872C1.09867 11.872 0.64 11.5413 0.384 10.88C0.128 10.24 0 9.39733 0 8.352C0 8.30933 0.0106667 7.97867 0.032 7.36C0.0533333 6.72 0.106667 5.65333 0.192 4.16C0.234667 3.584 0.298667 3.18933 0.384 2.976C0.469333 2.76267 0.746667 2.656 1.216 2.656C1.57867 2.656 1.80267 2.73067 1.888 2.88C1.99467 3.008 2.048 3.27467 2.048 3.68C2.048 4.384 1.99467 5.216 1.888 6.176C1.80267 7.11467 1.76 8 1.76 8.832C1.76 9.45067 1.81333 9.90933 1.92 10.208C2.02667 10.4853 2.21867 10.624 2.496 10.624C2.88 10.624 3.30667 10.4107 3.776 9.984C4.24533 9.536 4.72533 8.96 5.216 8.256C5.70667 7.53067 6.16533 6.76267 6.592 5.952C7.04 5.14133 7.43467 4.36267 7.776 3.616C7.81867 2.16533 7.968 1.20533 8.224 0.736C8.50133 0.245333 8.84267 0 9.248 0C9.65333 0 9.94133 0.149333 10.112 0.448C10.304 0.725334 10.4 0.981334 10.4 1.216C10.4 1.49333 10.304 1.78133 10.112 2.08C9.94133 2.37867 9.76 2.784 9.568 3.296C9.376 3.808 9.28 4.544 9.28 5.504C9.28 5.84533 9.312 6.208 9.376 6.592C9.44 6.976 9.57867 7.296 9.792 7.552C10.0053 7.808 10.336 7.936 10.784 7.936C11.232 7.936 11.6587 7.76533 12.064 7.424C12.4907 7.06133 12.9067 6.44267 13.312 5.568L13.728 5.888C13.2587 6.95467 12.736 7.66933 12.16 8.032C11.6053 8.39467 11.072 8.576 10.56 8.576C9.856 8.576 9.26933 8.32 8.8 7.808C8.33067 7.296 8.02133 6.51733 7.872 5.472C7.36 6.51733 6.752 7.53067 6.048 8.512C5.36533 9.472 4.65067 10.272 3.904 10.912C3.15733 11.552 2.44267 11.872 1.76 11.872Z" fill="#1A1A1A"/>
</svg>
