<svg width="15" height="19" viewBox="0 0 15 19" fill="none" xmlns="http://www.w3.org/2000/svg">
<path d="M2.016 18.848C1.48267 18.848 1.01333 18.6987 0.608 18.4C0.202667 18.1227 0 17.7067 0 17.152C0 16.4693 0.170667 15.8613 0.512 15.328C0.853333 14.7947 1.312 14.304 1.888 13.856C2.464 13.408 3.12533 12.9813 3.872 12.576C4.61867 12.1707 5.39733 11.7653 6.208 11.36C6.50667 10.5707 6.80533 9.696 7.104 8.736C7.424 7.75467 7.72267 6.67733 8 5.504C7.31733 6.61333 6.58133 7.57333 5.792 8.384C5.024 9.17333 4.20267 9.568 3.328 9.568C2.92267 9.568 2.51733 9.48267 2.112 9.312C1.728 9.12 1.408 8.832 1.152 8.448C0.896 8.064 0.768 7.57333 0.768 6.976C0.768 6.37867 0.864 5.68533 1.056 4.896C1.26933 4.10667 1.52533 3.33867 1.824 2.592C2.12267 1.84533 2.432 1.22667 2.752 0.736C3.072 0.245333 3.34933 0 3.584 0C3.66933 0 3.81867 0.0319999 4.032 0.0959997C4.26667 0.16 4.48 0.256 4.672 0.384C4.88533 0.490666 4.992 0.608 4.992 0.736C4.8 1.01333 4.58667 1.408 4.352 1.92C4.11733 2.432 3.88267 3.008 3.648 3.648C3.43467 4.26667 3.25333 4.87467 3.104 5.472C2.95467 6.06933 2.88 6.58133 2.88 7.008C2.88 7.392 2.96533 7.70133 3.136 7.936C3.30667 8.17067 3.60533 8.288 4.032 8.288C4.43733 8.288 4.88533 8.096 5.376 7.712C5.888 7.30667 6.38933 6.79467 6.88 6.176C7.392 5.55733 7.86133 4.896 8.288 4.192C8.352 3.95733 8.40533 3.72267 8.448 3.488C8.512 3.232 8.56533 2.976 8.608 2.72C8.672 2.42133 8.82133 2.08 9.056 1.696C9.312 1.29067 9.70667 1.088 10.24 1.088C10.3467 1.088 10.4533 1.09867 10.56 1.12C10.6667 1.12 10.784 1.14133 10.912 1.184C10.912 1.52533 10.8053 2.16533 10.592 3.104C10.4 4.02133 10.112 5.09867 9.728 6.336C9.36533 7.57333 8.928 8.84267 8.416 10.144C9.41867 9.76 10.4 9.13067 11.36 8.256C12.32 7.36 13.0987 6.176 13.696 4.704L14.112 5.024C13.792 6.048 13.3013 6.944 12.64 7.712C12 8.45867 11.2747 9.10933 10.464 9.664C9.65333 10.1973 8.85333 10.6453 8.064 11.008C7.50933 12.3733 6.90133 13.6533 6.24 14.848C5.6 16.0427 4.91733 17.0027 4.192 17.728C3.488 18.4747 2.76267 18.848 2.016 18.848ZM1.856 17.824C2.176 17.824 2.70933 17.3973 3.456 16.544C4.224 15.712 5.03467 14.24 5.888 12.128C5.01333 12.5973 4.20267 13.056 3.456 13.504C2.70933 13.9733 2.112 14.4747 1.664 15.008C1.216 15.5413 0.992 16.16 0.992 16.864C0.992 17.0347 1.056 17.2373 1.184 17.472C1.312 17.7067 1.536 17.824 1.856 17.824Z" fill="#1A1A1A"/>
</svg>
