<svg width="18" height="29" viewBox="0 0 18 29" fill="none" xmlns="http://www.w3.org/2000/svg">
<path d="M0.642 28.5082C0.258 28.2949 0.0446667 28.0602 0.00200001 27.8042C-0.0193334 27.5482 0.13 27.1002 0.45 26.4602C0.77 25.8202 1.27133 24.8282 1.954 23.4842C2.466 22.5242 2.85 21.7776 3.106 21.2442C3.38333 20.6896 3.56467 20.2949 3.65 20.0602C3.75667 19.8256 3.81 19.6762 3.81 19.6122C3.76733 19.4202 3.78867 19.2709 3.874 19.1642C3.95933 19.0362 4.098 18.9296 4.29 18.8442C4.39667 18.7376 4.56733 18.5456 4.802 18.2682C5.058 17.9909 5.29267 17.6602 5.506 17.2762C5.698 16.8282 5.922 16.3696 6.178 15.9002C6.434 15.4309 6.77533 14.8442 7.202 14.1402C7.62867 13.4149 8.18333 12.4762 8.866 11.3242C9.29267 10.5776 9.762 9.82023 10.274 9.05223C10.786 8.2629 11.33 7.48424 11.906 6.71624C12.1407 6.41757 12.354 6.1829 12.546 6.01224C12.738 5.82024 12.93 5.7349 13.122 5.75624C13.378 5.75624 13.666 5.84157 13.986 6.01224C14.3273 6.1829 14.6367 6.4069 14.914 6.68424C15.1913 6.96157 15.394 7.26024 15.522 7.58024C15.6287 7.7509 15.6713 8.11357 15.65 8.66824C15.6287 9.2229 15.586 9.8949 15.522 10.6842C15.458 11.4736 15.3833 12.3162 15.298 13.2122C15.234 14.0869 15.138 15.1216 15.01 16.3162C14.882 17.5109 14.754 18.7589 14.626 20.0602C14.5193 21.3616 14.434 22.6202 14.37 23.8362C14.306 25.0309 14.306 26.0762 14.37 26.9722C14.3913 27.1642 14.3913 27.3456 14.37 27.5162C14.3487 27.6869 14.338 27.8256 14.338 27.9322C14.21 28.0602 13.9967 28.1136 13.698 28.0922C13.4207 28.0922 13.1433 28.0282 12.866 27.9002C12.61 27.7722 12.4607 27.6122 12.418 27.4202C12.354 27.3562 12.3113 27.2709 12.29 27.1642C12.29 27.0362 12.3007 26.7802 12.322 26.3962C12.3433 26.0122 12.3647 25.4042 12.386 24.5722L12.546 19.3882L12.13 19.4202C11.938 19.4202 11.5753 19.4416 11.042 19.4842C10.5087 19.5269 9.93267 19.5909 9.314 19.6762C8.69533 19.7402 8.11933 19.8149 7.586 19.9002C7.074 19.9642 6.722 20.0282 6.53 20.0922C6.338 20.0922 6.10333 20.2202 5.826 20.4762C5.57 20.7322 5.32467 21.0629 5.09 21.4682C5.00467 21.7669 4.84467 22.0869 4.61 22.4282C4.39667 22.7482 4.29 22.9616 4.29 23.0682C4.14067 23.1749 4.01267 23.3029 3.906 23.4522C3.82067 23.6016 3.778 23.6762 3.778 23.6762C3.778 23.8042 3.67133 24.1242 3.458 24.6362C3.266 25.1269 3.02067 25.6816 2.722 26.3002C2.42333 26.8976 2.12467 27.4202 1.826 27.8682L1.154 28.8922L0.642 28.5082ZM7.266 18.2042C7.266 18.2042 7.37267 18.1829 7.586 18.1402C7.82067 18.0976 8.08733 18.0549 8.386 18.0122C8.706 17.9482 8.994 17.9162 9.25 17.9162C10.146 17.7029 10.7967 17.5642 11.202 17.5002C11.6073 17.4149 11.8847 17.3722 12.034 17.3722C12.2047 17.3722 12.354 17.4042 12.482 17.4682C12.5673 17.5749 12.642 17.6389 12.706 17.6602C12.7913 17.6816 12.834 17.6922 12.834 17.6922C12.8553 17.6496 12.8873 17.4042 12.93 16.9562C12.9727 16.5082 13.026 15.9536 13.09 15.2922C13.1753 14.6309 13.25 13.9482 13.314 13.2442C13.3993 12.5189 13.4633 11.8576 13.506 11.2602C13.5487 10.6416 13.5807 10.1722 13.602 9.85224C13.6233 9.4469 13.6447 9.08424 13.666 8.76423C13.6873 8.4229 13.698 8.25224 13.698 8.25224C13.57 8.25224 13.2927 8.4869 12.866 8.95624C12.4607 9.42557 12.002 10.0442 11.49 10.8122C10.978 11.5802 10.498 12.4016 10.05 13.2762C9.83667 13.6816 9.634 14.0442 9.442 14.3642C9.25 14.6842 9.10067 14.8442 8.994 14.8442C8.95133 14.8869 8.82333 15.0789 8.61 15.4202C8.418 15.7402 8.20467 16.1136 7.97 16.5402C7.73533 16.9456 7.54333 17.3189 7.394 17.6602C7.24467 17.9802 7.202 18.1616 7.266 18.2042ZM13.89 4.60424C13.7407 4.4549 13.6233 4.2309 13.538 3.93224C13.474 3.63357 13.4527 3.44157 13.474 3.35624C13.4953 3.24957 13.634 3.03624 13.89 2.71623C14.1673 2.39623 14.4873 2.04423 14.85 1.66023C15.2127 1.27623 15.554 0.934901 15.874 0.636235C16.2153 0.337568 16.4607 0.156235 16.61 0.092236C16.8447 -0.057098 17.0687 -0.0250984 17.282 0.188235C17.4953 0.380235 17.7087 0.646902 17.922 0.988236C17.986 1.18024 17.9007 1.4149 17.666 1.69223C17.4527 1.94823 17.1647 2.22557 16.802 2.52424C16.4393 2.8229 16.0767 3.12157 15.714 3.42024C15.3727 3.69757 15.1167 3.95357 14.946 4.18823C14.7327 4.52957 14.562 4.73224 14.434 4.79624C14.3273 4.86024 14.146 4.79624 13.89 4.60424Z" fill="#1A1A1A"/>
</svg>
