<svg width="18" height="29" viewBox="0 0 18 29" fill="none" xmlns="http://www.w3.org/2000/svg">
<path d="M0.642 28.0036C0.258 27.7902 0.0446667 27.5556 0.00200001 27.2996C-0.0193334 27.0436 0.13 26.5956 0.45 25.9556C0.77 25.3156 1.27133 24.3236 1.954 22.9796C2.466 22.0196 2.85 21.2729 3.106 20.7396C3.38333 20.1849 3.56467 19.7902 3.65 19.5556C3.75667 19.3209 3.81 19.1716 3.81 19.1076C3.76733 18.9156 3.78867 18.7662 3.874 18.6596C3.95933 18.5316 4.098 18.4249 4.29 18.3396C4.39667 18.2329 4.56733 18.0409 4.802 17.7636C5.058 17.4862 5.29267 17.1556 5.506 16.7716C5.698 16.3236 5.922 15.8649 6.178 15.3956C6.434 14.9262 6.77533 14.3396 7.202 13.6356C7.62867 12.9102 8.18333 11.9716 8.866 10.8196C9.29267 10.0729 9.762 9.31556 10.274 8.54756C10.786 7.75822 11.33 6.97956 11.906 6.21156C12.1407 5.91289 12.354 5.67822 12.546 5.50756C12.738 5.31556 12.93 5.23022 13.122 5.25156C13.378 5.25156 13.666 5.33689 13.986 5.50756C14.3273 5.67822 14.6367 5.90222 14.914 6.17956C15.1913 6.45689 15.394 6.75556 15.522 7.07556C15.6287 7.24622 15.6713 7.60889 15.65 8.16356C15.6287 8.71822 15.586 9.39022 15.522 10.1796C15.458 10.9689 15.3833 11.8116 15.298 12.7076C15.234 13.5822 15.138 14.6169 15.01 15.8116C14.882 17.0062 14.754 18.2542 14.626 19.5556C14.5193 20.8569 14.434 22.1156 14.37 23.3316C14.306 24.5262 14.306 25.5716 14.37 26.4676C14.3913 26.6596 14.3913 26.8409 14.37 27.0116C14.3487 27.1822 14.338 27.3209 14.338 27.4276C14.21 27.5556 13.9967 27.6089 13.698 27.5876C13.4207 27.5876 13.1433 27.5236 12.866 27.3956C12.61 27.2676 12.4607 27.1076 12.418 26.9156C12.354 26.8516 12.3113 26.7662 12.29 26.6596C12.29 26.5316 12.3007 26.2756 12.322 25.8916C12.3433 25.5076 12.3647 24.8996 12.386 24.0676L12.546 18.8836L12.13 18.9156C11.938 18.9156 11.5753 18.9369 11.042 18.9796C10.5087 19.0222 9.93267 19.0862 9.314 19.1716C8.69533 19.2356 8.11933 19.3102 7.586 19.3956C7.074 19.4596 6.722 19.5236 6.53 19.5876C6.338 19.5876 6.10333 19.7156 5.826 19.9716C5.57 20.2276 5.32467 20.5582 5.09 20.9636C5.00467 21.2622 4.84467 21.5822 4.61 21.9236C4.39667 22.2436 4.29 22.4569 4.29 22.5636C4.14067 22.6702 4.01267 22.7982 3.906 22.9476C3.82067 23.0969 3.778 23.1716 3.778 23.1716C3.778 23.2996 3.67133 23.6196 3.458 24.1316C3.266 24.6222 3.02067 25.1769 2.722 25.7956C2.42333 26.3929 2.12467 26.9156 1.826 27.3636L1.154 28.3876L0.642 28.0036ZM7.266 17.6996C7.266 17.6996 7.37267 17.6782 7.586 17.6356C7.82067 17.5929 8.08733 17.5502 8.386 17.5076C8.706 17.4436 8.994 17.4116 9.25 17.4116C10.146 17.1982 10.7967 17.0596 11.202 16.9956C11.6073 16.9102 11.8847 16.8676 12.034 16.8676C12.2047 16.8676 12.354 16.8996 12.482 16.9636C12.5673 17.0702 12.642 17.1342 12.706 17.1556C12.7913 17.1769 12.834 17.1876 12.834 17.1876C12.8553 17.1449 12.8873 16.8996 12.93 16.4516C12.9727 16.0036 13.026 15.4489 13.09 14.7876C13.1753 14.1262 13.25 13.4436 13.314 12.7396C13.3993 12.0142 13.4633 11.3529 13.506 10.7556C13.5487 10.1369 13.5807 9.66756 13.602 9.34756C13.6233 8.94222 13.6447 8.57956 13.666 8.25956C13.6873 7.91822 13.698 7.74756 13.698 7.74756C13.57 7.74756 13.2927 7.98222 12.866 8.45156C12.4607 8.92089 12.002 9.53956 11.49 10.3076C10.978 11.0756 10.498 11.8969 10.05 12.7716C9.83667 13.1769 9.634 13.5396 9.442 13.8596C9.25 14.1796 9.10067 14.3396 8.994 14.3396C8.95133 14.3822 8.82333 14.5742 8.61 14.9156C8.418 15.2356 8.20467 15.6089 7.97 16.0356C7.73533 16.4409 7.54333 16.8142 7.394 17.1556C7.24467 17.4756 7.202 17.6569 7.266 17.6996ZM12.258 3.58756C11.8953 3.95022 11.586 4.11022 11.33 4.06756C11.074 4.00356 10.914 3.84356 10.85 3.58756C10.786 3.31022 10.8713 3.02222 11.106 2.72356C11.17 2.63822 11.3193 2.48889 11.554 2.27556C11.7887 2.06222 12.0553 1.81689 12.354 1.53956C12.674 1.26222 12.994 1.00622 13.314 0.771557C13.634 0.53689 13.9007 0.355556 14.114 0.227556C14.306 0.0568894 14.4873 -0.0177776 14.658 0.00355546C14.8287 0.00355546 14.978 0.0995555 15.106 0.291556C15.362 0.50489 15.6713 0.803557 16.034 1.18756C16.418 1.55022 16.77 1.89156 17.09 2.21156C17.41 2.53156 17.5913 2.72356 17.634 2.78756C17.762 2.95822 17.8153 3.16089 17.794 3.39556C17.794 3.60889 17.7193 3.79022 17.57 3.93956C17.442 4.08889 17.2713 4.14222 17.058 4.09956C16.8447 4.03556 16.5887 3.83289 16.29 3.49156C16.1407 3.29956 15.8953 3.04356 15.554 2.72356C15.2127 2.38222 14.882 2.07289 14.562 1.79556C14.306 1.94489 14.018 2.13689 13.698 2.37156C13.3993 2.60622 13.122 2.84089 12.866 3.07556C12.61 3.28889 12.4073 3.45956 12.258 3.58756Z" fill="#1A1A1A"/>
</svg>
