<svg width="17" height="30" viewBox="0 0 17 30" fill="none" xmlns="http://www.w3.org/2000/svg">
<path d="M0.642 28.7078C0.258 28.4944 0.0446667 28.2598 0.00200001 28.0038C-0.0193334 27.7478 0.13 27.2998 0.45 26.6598C0.77 26.0198 1.27133 25.0278 1.954 23.6838C2.466 22.7238 2.85 21.9771 3.106 21.4438C3.38333 20.8891 3.56467 20.4944 3.65 20.2598C3.75667 20.0251 3.81 19.8758 3.81 19.8118C3.76733 19.6198 3.78867 19.4704 3.874 19.3638C3.95933 19.2358 4.098 19.1291 4.29 19.0438C4.39667 18.9371 4.56733 18.7451 4.802 18.4678C5.058 18.1904 5.29267 17.8598 5.506 17.4758C5.698 17.0278 5.922 16.5691 6.178 16.0998C6.434 15.6304 6.77533 15.0438 7.202 14.3398C7.62867 13.6144 8.18333 12.6758 8.866 11.5238C9.29267 10.7771 9.762 10.0198 10.274 9.25176C10.786 8.46243 11.33 7.68376 11.906 6.91577C12.1407 6.6171 12.354 6.38243 12.546 6.21177C12.738 6.01977 12.93 5.93443 13.122 5.95576C13.378 5.95576 13.666 6.0411 13.986 6.21177C14.3273 6.38243 14.6367 6.60643 14.914 6.88376C15.1913 7.1611 15.394 7.45976 15.522 7.77976C15.6287 7.95043 15.6713 8.3131 15.65 8.86777C15.6287 9.42243 15.586 10.0944 15.522 10.8838C15.458 11.6731 15.3833 12.5158 15.298 13.4118C15.234 14.2864 15.138 15.3211 15.01 16.5158C14.882 17.7104 14.754 18.9584 14.626 20.2598C14.5193 21.5611 14.434 22.8198 14.37 24.0358C14.306 25.2304 14.306 26.2758 14.37 27.1718C14.3913 27.3638 14.3913 27.5451 14.37 27.7158C14.3487 27.8864 14.338 28.0251 14.338 28.1318C14.21 28.2598 13.9967 28.3131 13.698 28.2918C13.4207 28.2918 13.1433 28.2278 12.866 28.0998C12.61 27.9718 12.4607 27.8118 12.418 27.6198C12.354 27.5558 12.3113 27.4704 12.29 27.3638C12.29 27.2358 12.3007 26.9798 12.322 26.5958C12.3433 26.2118 12.3647 25.6038 12.386 24.7718L12.546 19.5878L12.13 19.6198C11.938 19.6198 11.5753 19.6411 11.042 19.6838C10.5087 19.7264 9.93267 19.7904 9.314 19.8758C8.69533 19.9398 8.11933 20.0144 7.586 20.0998C7.074 20.1638 6.722 20.2278 6.53 20.2918C6.338 20.2918 6.10333 20.4198 5.826 20.6758C5.57 20.9318 5.32467 21.2624 5.09 21.6678C5.00467 21.9664 4.84467 22.2864 4.61 22.6278C4.39667 22.9478 4.29 23.1611 4.29 23.2678C4.14067 23.3744 4.01267 23.5024 3.906 23.6518C3.82067 23.8011 3.778 23.8758 3.778 23.8758C3.778 24.0038 3.67133 24.3238 3.458 24.8358C3.266 25.3264 3.02067 25.8811 2.722 26.4998C2.42333 27.0971 2.12467 27.6198 1.826 28.0678L1.154 29.0918L0.642 28.7078ZM7.266 18.4038C7.266 18.4038 7.37267 18.3824 7.586 18.3398C7.82067 18.2971 8.08733 18.2544 8.386 18.2118C8.706 18.1478 8.994 18.1158 9.25 18.1158C10.146 17.9024 10.7967 17.7638 11.202 17.6998C11.6073 17.6144 11.8847 17.5718 12.034 17.5718C12.2047 17.5718 12.354 17.6038 12.482 17.6678C12.5673 17.7744 12.642 17.8384 12.706 17.8598C12.7913 17.8811 12.834 17.8918 12.834 17.8918C12.8553 17.8491 12.8873 17.6038 12.93 17.1558C12.9727 16.7078 13.026 16.1531 13.09 15.4918C13.1753 14.8304 13.25 14.1478 13.314 13.4438C13.3993 12.7184 13.4633 12.0571 13.506 11.4598C13.5487 10.8411 13.5807 10.3718 13.602 10.0518C13.6233 9.64643 13.6447 9.28377 13.666 8.96376C13.6873 8.62243 13.698 8.45177 13.698 8.45177C13.57 8.45177 13.2927 8.68643 12.866 9.15577C12.4607 9.6251 12.002 10.2438 11.49 11.0118C10.978 11.7798 10.498 12.6011 10.05 13.4758C9.83667 13.8811 9.634 14.2438 9.442 14.5638C9.25 14.8838 9.10067 15.0438 8.994 15.0438C8.95133 15.0864 8.82333 15.2784 8.61 15.6198C8.418 15.9398 8.20467 16.3131 7.97 16.7398C7.73533 17.1451 7.54333 17.5184 7.394 17.8598C7.24467 18.1798 7.202 18.3611 7.266 18.4038ZM16.098 4.89977C15.9273 5.02776 15.7887 5.10243 15.682 5.12376C15.5967 5.12376 15.522 5.05976 15.458 4.93176C15.394 4.80376 15.3193 4.62243 15.234 4.38776C15.0633 4.0251 14.8073 3.59843 14.466 3.10777C14.1247 2.6171 13.8473 2.1371 13.634 1.66776C13.4207 1.19843 13.3993 0.846431 13.57 0.611765C13.8473 0.377098 14.082 0.195764 14.274 0.0677645C14.4873 -0.0602352 14.7007 -0.00690188 14.914 0.227764C15.0633 0.313098 15.234 0.537098 15.426 0.899765C15.6393 1.2411 15.842 1.63576 16.034 2.08377C16.2473 2.53176 16.418 2.94776 16.546 3.33176C16.674 3.69443 16.738 3.93976 16.738 4.06776C16.7593 4.1531 16.6953 4.30243 16.546 4.51576C16.418 4.7291 16.2687 4.8571 16.098 4.89977Z" fill="#1A1A1A"/>
</svg>
