<svg width="20" height="29" viewBox="0 0 20 29" fill="none" xmlns="http://www.w3.org/2000/svg">
<path d="M0.642 27.888C0.258 27.6747 0.0446667 27.44 0.00200001 27.184C-0.0193334 26.928 0.13 26.48 0.45 25.84C0.77 25.2 1.27133 24.208 1.954 22.864C2.466 21.904 2.85 21.1573 3.106 20.624C3.38333 20.0693 3.56467 19.6747 3.65 19.44C3.75667 19.2053 3.81 19.056 3.81 18.992C3.76733 18.8 3.78867 18.6507 3.874 18.544C3.95933 18.416 4.098 18.3093 4.29 18.224C4.39667 18.1173 4.56733 17.9253 4.802 17.648C5.058 17.3707 5.29267 17.04 5.506 16.656C5.698 16.208 5.922 15.7493 6.178 15.28C6.434 14.8107 6.77533 14.224 7.202 13.52C7.62867 12.7947 8.18333 11.856 8.866 10.704C9.29267 9.95733 9.762 9.2 10.274 8.432C10.786 7.64267 11.33 6.864 11.906 6.096C12.1407 5.79733 12.354 5.56267 12.546 5.392C12.738 5.2 12.93 5.11467 13.122 5.136C13.378 5.136 13.666 5.22133 13.986 5.392C14.3273 5.56267 14.6367 5.78667 14.914 6.064C15.1913 6.34133 15.394 6.64 15.522 6.96C15.6287 7.13067 15.6713 7.49333 15.65 8.048C15.6287 8.60267 15.586 9.27467 15.522 10.064C15.458 10.8533 15.3833 11.696 15.298 12.592C15.234 13.4667 15.138 14.5013 15.01 15.696C14.882 16.8907 14.754 18.1387 14.626 19.44C14.5193 20.7413 14.434 22 14.37 23.216C14.306 24.4107 14.306 25.456 14.37 26.352C14.3913 26.544 14.3913 26.7253 14.37 26.896C14.3487 27.0667 14.338 27.2053 14.338 27.312C14.21 27.44 13.9967 27.4933 13.698 27.472C13.4207 27.472 13.1433 27.408 12.866 27.28C12.61 27.152 12.4607 26.992 12.418 26.8C12.354 26.736 12.3113 26.6507 12.29 26.544C12.29 26.416 12.3007 26.16 12.322 25.776C12.3433 25.392 12.3647 24.784 12.386 23.952L12.546 18.768L12.13 18.8C11.938 18.8 11.5753 18.8213 11.042 18.864C10.5087 18.9067 9.93267 18.9707 9.314 19.056C8.69533 19.12 8.11933 19.1947 7.586 19.28C7.074 19.344 6.722 19.408 6.53 19.472C6.338 19.472 6.10333 19.6 5.826 19.856C5.57 20.112 5.32467 20.4427 5.09 20.848C5.00467 21.1467 4.84467 21.4667 4.61 21.808C4.39667 22.128 4.29 22.3413 4.29 22.448C4.14067 22.5547 4.01267 22.6827 3.906 22.832C3.82067 22.9813 3.778 23.056 3.778 23.056C3.778 23.184 3.67133 23.504 3.458 24.016C3.266 24.5067 3.02067 25.0613 2.722 25.68C2.42333 26.2773 2.12467 26.8 1.826 27.248L1.154 28.272L0.642 27.888ZM7.266 17.584C7.266 17.584 7.37267 17.5627 7.586 17.52C7.82067 17.4773 8.08733 17.4347 8.386 17.392C8.706 17.328 8.994 17.296 9.25 17.296C10.146 17.0827 10.7967 16.944 11.202 16.88C11.6073 16.7947 11.8847 16.752 12.034 16.752C12.2047 16.752 12.354 16.784 12.482 16.848C12.5673 16.9547 12.642 17.0187 12.706 17.04C12.7913 17.0613 12.834 17.072 12.834 17.072C12.8553 17.0293 12.8873 16.784 12.93 16.336C12.9727 15.888 13.026 15.3333 13.09 14.672C13.1753 14.0107 13.25 13.328 13.314 12.624C13.3993 11.8987 13.4633 11.2373 13.506 10.64C13.5487 10.0213 13.5807 9.552 13.602 9.232C13.6233 8.82667 13.6447 8.464 13.666 8.144C13.6873 7.80267 13.698 7.632 13.698 7.632C13.57 7.632 13.2927 7.86667 12.866 8.336C12.4607 8.80533 12.002 9.424 11.49 10.192C10.978 10.96 10.498 11.7813 10.05 12.656C9.83667 13.0613 9.634 13.424 9.442 13.744C9.25 14.064 9.10067 14.224 8.994 14.224C8.95133 14.2667 8.82333 14.4587 8.61 14.8C8.418 15.12 8.20467 15.4933 7.97 15.92C7.73533 16.3253 7.54333 16.6987 7.394 17.04C7.24467 17.36 7.202 17.5413 7.266 17.584ZM16.706 3.504C16.2793 3.504 15.9273 3.42933 15.65 3.28C15.394 3.10933 15.0633 2.88533 14.658 2.608C14.466 2.50133 14.21 2.288 13.89 1.968C13.57 1.648 13.282 1.488 13.026 1.488C12.8127 1.488 12.6313 1.57333 12.482 1.744C12.354 1.91467 12.226 2.096 12.098 2.288C11.97 2.45867 11.7887 2.56533 11.554 2.608C11.5327 2.71467 11.4687 2.85333 11.362 3.024C11.2553 3.17333 11.1807 3.19467 11.138 3.088C10.9247 3.024 10.754 2.91733 10.626 2.768C10.5193 2.61867 10.4767 2.49067 10.498 2.384C10.5193 2.192 10.6793 1.85067 10.978 1.36C11.2767 0.869332 11.7887 0.442666 12.514 0.0799999C12.77 -0.0266666 13.122 -0.0266666 13.57 0.0799999C14.0393 0.186666 14.4447 0.4 14.786 0.719999C15.2767 1.168 15.65 1.49867 15.906 1.712C16.162 1.904 16.4927 1.91467 16.898 1.744C17.218 1.65867 17.5593 1.49867 17.922 1.264C18.306 1.008 18.722 0.794666 19.17 0.623999C19.3193 0.559999 19.458 0.570667 19.586 0.656C19.714 0.719999 19.81 0.826666 19.874 0.976C19.938 1.12533 19.9593 1.264 19.938 1.392C19.938 1.47733 19.8633 1.62667 19.714 1.84C19.586 2.05333 19.426 2.21333 19.234 2.32C18.594 2.68267 18.1033 2.94933 17.762 3.12C17.4207 3.29067 17.1753 3.39733 17.026 3.44C16.898 3.48267 16.7913 3.504 16.706 3.504Z" fill="#1A1A1A"/>
</svg>
