<svg width="15" height="30" viewBox="0 0 15 30" fill="none" xmlns="http://www.w3.org/2000/svg">
<path d="M3.176 23.5543C2.856 23.4263 2.52533 23.2876 2.184 23.1383C1.864 22.989 1.55467 22.765 1.256 22.4663C0.978667 22.189 0.733333 21.7943 0.52 21.2823C0.306667 20.6636 0.157333 20.0556 0.0720001 19.4583C0.00800008 18.861 -0.0133333 18.1676 0.00799993 17.3783C0.00799993 16.269 0.0826667 15.309 0.232 14.4983C0.402667 13.6663 0.658667 12.8236 1 11.9703C1.04267 11.9063 1.11733 11.725 1.224 11.4263C1.352 11.1063 1.49067 10.765 1.64 10.4023C1.81067 10.0396 1.93867 9.76229 2.024 9.57029C2.19467 9.20762 2.45067 8.72762 2.792 8.13029C3.15467 7.51162 3.53867 6.91429 3.944 6.33829C4.56267 5.42095 5.07467 4.69562 5.48 4.16229C5.88533 3.62895 6.26933 3.18095 6.632 2.81829C6.99467 2.45562 7.4 2.11429 7.848 1.79429C8.31733 1.45295 8.91467 1.03695 9.64 0.546285C10.1093 0.204952 10.6213 0.023619 11.176 0.00228592C11.752 -0.0190484 12.2853 0.108951 12.776 0.386285C13.2667 0.642285 13.6293 1.02629 13.864 1.53829C14.0987 1.98629 14.216 2.53029 14.216 3.17029C14.216 3.78895 14.12 4.45028 13.928 5.15428C13.736 5.83695 13.4693 6.48762 13.128 7.10629C12.7867 7.72495 12.392 8.23695 11.944 8.64229C11.6667 8.89829 11.4107 8.99429 11.176 8.93029C10.9627 8.86629 10.7067 8.69562 10.408 8.41829C10.216 8.05562 10.1093 7.84229 10.088 7.77829C10.088 7.71429 10.1307 7.67162 10.216 7.65029C10.344 7.50095 10.5147 7.24495 10.728 6.88229C10.9413 6.51962 11.1547 6.13562 11.368 5.73028C11.5813 5.30362 11.7307 4.96229 11.816 4.70628C11.9867 3.81028 12.104 3.18095 12.168 2.81829C12.232 2.43429 12.168 2.14629 11.976 1.95429C11.8907 1.86895 11.7627 1.83695 11.592 1.85828C11.4427 1.87962 11.1867 1.98628 10.824 2.17828C10.3333 2.39162 9.69333 2.87162 8.904 3.61829C8.11467 4.34362 7.38933 5.15428 6.728 6.05029C5.87467 7.18095 5.16 8.18362 4.584 9.05829C4.008 9.93295 3.57067 10.829 3.272 11.7463C3.22933 11.8316 3.15467 11.9916 3.048 12.2263C2.96267 12.461 2.92 12.5783 2.92 12.5783C2.94133 12.6636 2.90933 12.877 2.824 13.2183C2.73867 13.5383 2.64267 13.8156 2.536 14.0503C2.30133 15.0316 2.16267 16.0556 2.12 17.1223C2.07733 18.1676 2.13067 19.0956 2.28 19.9063C2.45067 20.717 2.696 21.2823 3.016 21.6023C3.29333 21.7943 3.66667 21.8583 4.136 21.7943C4.62667 21.7303 5.18133 21.581 5.8 21.3463C6.41867 21.1116 7.048 20.8556 7.688 20.5783C8.2 20.365 8.66933 20.1303 9.096 19.8743C9.52267 19.6183 9.84267 19.3943 10.056 19.2023C10.2267 19.0743 10.44 18.9463 10.696 18.8183C10.9733 18.669 11.208 18.5943 11.4 18.5943C11.6987 18.4876 11.8693 18.445 11.912 18.4663C11.9547 18.4876 11.976 18.5836 11.976 18.7543C11.976 19.053 11.8053 19.3836 11.464 19.7463C11.144 20.109 10.728 20.4396 10.216 20.7383C10.0453 20.909 9.82133 21.0903 9.544 21.2823C9.26667 21.4743 8.97867 21.6236 8.68 21.7303C8.232 22.0716 7.67733 22.4023 7.016 22.7223C6.35467 23.0423 5.68267 23.2876 5 23.4583C4.33867 23.629 3.73067 23.661 3.176 23.5543ZM3.912 29.7623C3.592 29.8263 3.208 29.8263 2.76 29.7623C2.312 29.7196 1.896 29.645 1.512 29.5383C1.128 29.453 0.872 29.389 0.744 29.3463C0.488 29.261 0.317333 29.133 0.232 28.9623C0.168 28.7916 0.168 28.6103 0.232 28.4183C0.296 28.2476 0.413333 28.109 0.584 28.0023C0.754667 27.917 0.946667 27.9063 1.16 27.9703C1.50133 28.077 1.87467 28.1943 2.28 28.3223C2.70667 28.4503 3.09067 28.5143 3.432 28.5143C3.77333 28.5143 4.01867 28.365 4.168 28.0663C4.31733 27.8316 4.33867 27.597 4.232 27.3623C4.14667 27.149 3.98667 26.9143 3.752 26.6583C3.60267 26.4663 3.42133 26.2316 3.208 25.9543C2.99467 25.6983 2.77067 25.4636 2.536 25.2503C2.36533 24.9943 2.248 24.7383 2.184 24.4823C2.14133 24.2476 2.29067 23.9596 2.632 23.6183C2.97333 23.2983 3.656 22.8823 4.68 22.3703L5.736 23.1063C5.20267 23.3623 4.76533 23.6076 4.424 23.8423C4.104 24.077 3.944 24.333 3.944 24.6103C4.24267 25.037 4.57333 25.4423 4.936 25.8263C5.29867 26.2316 5.53333 26.6476 5.64 27.0743C5.768 27.5863 5.768 28.0236 5.64 28.3863C5.53333 28.7703 5.32 29.069 5 29.2823C4.70133 29.517 4.33867 29.677 3.912 29.7623Z" fill="#1A1A1A"/>
</svg>
