<svg width="18" height="29" viewBox="0 0 18 29" fill="none" xmlns="http://www.w3.org/2000/svg">
<path d="M4.768 28.2202C4.10667 28.1776 3.52 27.9749 3.008 27.6122C2.51733 27.2496 1.99467 26.8762 1.44 26.4922C1.07733 26.1296 0.789333 25.7456 0.576 25.3402C0.362667 24.9136 0.192 24.3589 0.064 23.6762C-0.0213333 23.2709 -0.0213333 22.7589 0.064 22.1402C0.149333 21.5216 0.288 20.9029 0.48 20.2842C0.672 19.6442 0.853333 19.1322 1.024 18.7482C1.28 18.1509 1.6 17.5109 1.984 16.8282C2.38933 16.1242 2.784 15.4629 3.168 14.8442C3.57333 14.2042 3.89333 13.6922 4.128 13.3082C4.27733 13.1589 4.34133 13.0842 4.32 13.0842C4.32 13.0629 4.32 13.0522 4.32 13.0522C4.32 12.9456 4.42667 12.6789 4.64 12.2522C4.87467 11.8042 5.07733 11.4096 5.248 11.0682C5.568 10.7269 5.74933 10.4496 5.792 10.2362C5.83467 10.0229 5.80267 9.85224 5.696 9.72424C5.65333 9.6389 5.728 9.48957 5.92 9.27624C6.112 9.0629 6.4 8.81757 6.784 8.54024C7.168 8.2629 7.60533 7.98557 8.096 7.70824C8.608 7.3029 9.09867 7.08957 9.568 7.06824C10.0587 7.02557 10.3467 7.12157 10.432 7.35624C10.432 7.42024 10.5493 7.44157 10.784 7.42024C11.04 7.37757 11.328 7.32424 11.648 7.26024C11.9893 7.1749 12.288 7.1109 12.544 7.06824C12.6507 6.94024 12.896 6.84424 13.28 6.78024C13.6853 6.6949 14.1547 6.62024 14.688 6.55623C14.9653 6.57757 15.232 6.58824 15.488 6.58824C15.7653 6.5669 15.9893 6.54557 16.16 6.52424C16.352 6.5029 16.448 6.49224 16.448 6.49224C16.5973 6.44957 16.768 6.4709 16.96 6.55623C17.1733 6.64157 17.3653 6.87624 17.536 7.26024C17.6853 7.64424 17.632 7.93224 17.376 8.12424C17.1413 8.31624 16.5867 8.46557 15.712 8.57224C15.072 8.65757 14.5173 8.73224 14.048 8.79624C13.5787 8.8389 13.088 8.9029 12.576 8.98824C12.064 9.05224 11.4347 9.16957 10.688 9.34023C10.1547 9.4469 9.71733 9.5749 9.376 9.72424C9.03467 9.85224 8.736 10.0549 8.48 10.3322C8.224 10.5882 7.936 10.9616 7.616 11.4522C7.46667 11.5589 7.27467 11.8362 7.04 12.2842C6.80533 12.7322 6.57067 13.1802 6.336 13.6282C5.73867 14.4602 5.216 15.1856 4.768 15.8042C4.34133 16.4016 4.17067 16.7536 4.256 16.8602C4.256 16.8602 4.37333 16.8922 4.608 16.9562C4.84267 17.0202 5.00267 17.0522 5.088 17.0522C5.30133 16.9456 5.55733 16.8709 5.856 16.8282C6.176 16.7856 6.432 16.7429 6.624 16.7002C7.94667 16.3589 8.98133 16.0922 9.728 15.9002C10.496 15.7082 11.072 15.5696 11.456 15.4842C11.8613 15.3776 12.1707 15.3136 12.384 15.2922C12.6827 15.0576 12.9707 15.0149 13.248 15.1642C13.5467 15.3136 13.7813 15.5482 13.952 15.8682C14.0587 16.1029 14.0587 16.3056 13.952 16.4762C13.8667 16.6469 13.6 16.8176 13.152 16.9882C12.7253 17.1589 12.0853 17.3616 11.232 17.5962C10.3787 17.8309 9.25867 18.1402 7.872 18.5242C6.69867 18.8656 5.696 19.0682 4.864 19.1322C4.032 19.1962 3.63733 19.0149 3.68 18.5882C3.53067 18.5029 3.36 18.6096 3.168 18.9082C2.99733 19.1856 2.82667 19.5696 2.656 20.0602C2.48533 20.5509 2.336 21.0736 2.208 21.6282C2.10133 22.1829 2.02667 22.7056 1.984 23.1962C1.96267 23.6656 1.99467 24.0176 2.08 24.2522C2.25067 24.7429 2.47467 25.1376 2.752 25.4362C3.02933 25.7136 3.53067 25.9589 4.256 26.1722C4.68267 26.1936 5.09867 26.2256 5.504 26.2682C5.90933 26.3109 6.368 26.2256 6.88 26.0122C8.13867 25.7989 9.13067 25.5749 9.856 25.3402C10.5813 25.1056 10.9973 24.9456 11.104 24.8602C11.2747 24.7749 11.3813 24.7322 11.424 24.7322C11.488 24.7109 11.5733 24.7002 11.68 24.7002C11.616 24.8069 11.6373 24.8176 11.744 24.7322C11.872 24.6256 12.0427 24.4656 12.256 24.2522C12.4907 24.0389 12.8 23.8362 13.184 23.6442C13.568 23.4522 13.9093 23.3029 14.208 23.1962C14.528 23.0896 14.6987 23.0896 14.72 23.1962C14.848 23.4096 14.8267 23.7082 14.656 24.0922C14.4853 24.4549 14.176 24.8602 13.728 25.3082C13.28 25.7349 12.704 26.1509 12 26.5562C10.8693 27.1536 9.64267 27.5696 8.32 27.8042C6.99733 28.0602 5.81333 28.1989 4.768 28.2202ZM13.536 4.60424C13.3867 4.4549 13.2693 4.2309 13.184 3.93224C13.12 3.63357 13.0987 3.44157 13.12 3.35624C13.1413 3.24957 13.28 3.03624 13.536 2.71623C13.8133 2.39623 14.1333 2.04423 14.496 1.66023C14.8587 1.27623 15.2 0.934901 15.52 0.636235C15.8613 0.337568 16.1067 0.156235 16.256 0.092236C16.4907 -0.057098 16.7147 -0.0250984 16.928 0.188235C17.1413 0.380235 17.3547 0.646902 17.568 0.988236C17.632 1.18024 17.5467 1.4149 17.312 1.69223C17.0987 1.94823 16.8107 2.22557 16.448 2.52424C16.0853 2.8229 15.7227 3.12157 15.36 3.42024C15.0187 3.69757 14.7627 3.95357 14.592 4.18823C14.3787 4.52957 14.208 4.73224 14.08 4.79624C13.9733 4.86024 13.792 4.79624 13.536 4.60424Z" fill="#1A1A1A"/>
</svg>
