<svg width="19" height="28" viewBox="0 0 19 28" fill="none" xmlns="http://www.w3.org/2000/svg">
<path d="M4.768 27.7156C4.10667 27.6729 3.52 27.4702 3.008 27.1076C2.51733 26.7449 1.99467 26.3716 1.44 25.9876C1.07733 25.6249 0.789333 25.2409 0.576 24.8356C0.362667 24.4089 0.192 23.8542 0.064 23.1716C-0.0213333 22.7662 -0.0213333 22.2542 0.064 21.6356C0.149333 21.0169 0.288 20.3982 0.48 19.7796C0.672 19.1396 0.853333 18.6276 1.024 18.2436C1.28 17.6462 1.6 17.0062 1.984 16.3236C2.38933 15.6196 2.784 14.9582 3.168 14.3396C3.57333 13.6996 3.89333 13.1876 4.128 12.8036C4.27733 12.6542 4.34133 12.5796 4.32 12.5796C4.32 12.5582 4.32 12.5476 4.32 12.5476C4.32 12.4409 4.42667 12.1742 4.64 11.7476C4.87467 11.2996 5.07733 10.9049 5.248 10.5636C5.568 10.2222 5.74933 9.94489 5.792 9.73156C5.83467 9.51822 5.80267 9.34756 5.696 9.21956C5.65333 9.13422 5.728 8.98489 5.92 8.77156C6.112 8.55822 6.4 8.31289 6.784 8.03556C7.168 7.75822 7.60533 7.48089 8.096 7.20356C8.608 6.79822 9.09867 6.58489 9.568 6.56356C10.0587 6.52089 10.3467 6.61689 10.432 6.85156C10.432 6.91556 10.5493 6.93689 10.784 6.91556C11.04 6.87289 11.328 6.81956 11.648 6.75556C11.9893 6.67022 12.288 6.60622 12.544 6.56356C12.6507 6.43556 12.896 6.33956 13.28 6.27556C13.6853 6.19022 14.1547 6.11556 14.688 6.05156C14.9653 6.07289 15.232 6.08356 15.488 6.08356C15.7653 6.06222 15.9893 6.04089 16.16 6.01956C16.352 5.99822 16.448 5.98756 16.448 5.98756C16.5973 5.94489 16.768 5.96622 16.96 6.05156C17.1733 6.13689 17.3653 6.37156 17.536 6.75556C17.6853 7.13956 17.632 7.42756 17.376 7.61956C17.1413 7.81156 16.5867 7.96089 15.712 8.06756C15.072 8.15289 14.5173 8.22756 14.048 8.29156C13.5787 8.33422 13.088 8.39822 12.576 8.48356C12.064 8.54756 11.4347 8.66489 10.688 8.83556C10.1547 8.94222 9.71733 9.07022 9.376 9.21956C9.03467 9.34756 8.736 9.55022 8.48 9.82756C8.224 10.0836 7.936 10.4569 7.616 10.9476C7.46667 11.0542 7.27467 11.3316 7.04 11.7796C6.80533 12.2276 6.57067 12.6756 6.336 13.1236C5.73867 13.9556 5.216 14.6809 4.768 15.2996C4.34133 15.8969 4.17067 16.2489 4.256 16.3556C4.256 16.3556 4.37333 16.3876 4.608 16.4516C4.84267 16.5156 5.00267 16.5476 5.088 16.5476C5.30133 16.4409 5.55733 16.3662 5.856 16.3236C6.176 16.2809 6.432 16.2382 6.624 16.1956C7.94667 15.8542 8.98133 15.5876 9.728 15.3956C10.496 15.2036 11.072 15.0649 11.456 14.9796C11.8613 14.8729 12.1707 14.8089 12.384 14.7876C12.6827 14.5529 12.9707 14.5102 13.248 14.6596C13.5467 14.8089 13.7813 15.0436 13.952 15.3636C14.0587 15.5982 14.0587 15.8009 13.952 15.9716C13.8667 16.1422 13.6 16.3129 13.152 16.4836C12.7253 16.6542 12.0853 16.8569 11.232 17.0916C10.3787 17.3262 9.25867 17.6356 7.872 18.0196C6.69867 18.3609 5.696 18.5636 4.864 18.6276C4.032 18.6916 3.63733 18.5102 3.68 18.0836C3.53067 17.9982 3.36 18.1049 3.168 18.4036C2.99733 18.6809 2.82667 19.0649 2.656 19.5556C2.48533 20.0462 2.336 20.5689 2.208 21.1236C2.10133 21.6782 2.02667 22.2009 1.984 22.6916C1.96267 23.1609 1.99467 23.5129 2.08 23.7476C2.25067 24.2382 2.47467 24.6329 2.752 24.9316C3.02933 25.2089 3.53067 25.4542 4.256 25.6676C4.68267 25.6889 5.09867 25.7209 5.504 25.7636C5.90933 25.8062 6.368 25.7209 6.88 25.5076C8.13867 25.2942 9.13067 25.0702 9.856 24.8356C10.5813 24.6009 10.9973 24.4409 11.104 24.3556C11.2747 24.2702 11.3813 24.2276 11.424 24.2276C11.488 24.2062 11.5733 24.1956 11.68 24.1956C11.616 24.3022 11.6373 24.3129 11.744 24.2276C11.872 24.1209 12.0427 23.9609 12.256 23.7476C12.4907 23.5342 12.8 23.3316 13.184 23.1396C13.568 22.9476 13.9093 22.7982 14.208 22.6916C14.528 22.5849 14.6987 22.5849 14.72 22.6916C14.848 22.9049 14.8267 23.2036 14.656 23.5876C14.4853 23.9502 14.176 24.3556 13.728 24.8036C13.28 25.2302 12.704 25.6462 12 26.0516C10.8693 26.6489 9.64267 27.0649 8.32 27.2996C6.99733 27.5556 5.81333 27.6942 4.768 27.7156ZM13.184 3.58756C12.8213 3.95022 12.512 4.11022 12.256 4.06756C12 4.00356 11.84 3.84356 11.776 3.58756C11.712 3.31022 11.7973 3.02222 12.032 2.72356C12.096 2.63822 12.2453 2.48889 12.48 2.27556C12.7147 2.06222 12.9813 1.81689 13.28 1.53956C13.6 1.26222 13.92 1.00622 14.24 0.771557C14.56 0.53689 14.8267 0.355556 15.04 0.227556C15.232 0.0568894 15.4133 -0.0177776 15.584 0.00355546C15.7547 0.00355546 15.904 0.0995555 16.032 0.291556C16.288 0.50489 16.5973 0.803557 16.96 1.18756C17.344 1.55022 17.696 1.89156 18.016 2.21156C18.336 2.53156 18.5173 2.72356 18.56 2.78756C18.688 2.95822 18.7413 3.16089 18.72 3.39556C18.72 3.60889 18.6453 3.79022 18.496 3.93956C18.368 4.08889 18.1973 4.14222 17.984 4.09956C17.7707 4.03556 17.5147 3.83289 17.216 3.49156C17.0667 3.29956 16.8213 3.04356 16.48 2.72356C16.1387 2.38222 15.808 2.07289 15.488 1.79556C15.232 1.94489 14.944 2.13689 14.624 2.37156C14.3253 2.60622 14.048 2.84089 13.792 3.07556C13.536 3.28889 13.3333 3.45956 13.184 3.58756Z" fill="#1A1A1A"/>
</svg>
