<svg width="18" height="22" viewBox="0 0 18 22" fill="none" xmlns="http://www.w3.org/2000/svg">
<path d="M4.768 21.7493C4.10667 21.7067 3.52 21.504 3.008 21.1413C2.51733 20.7787 1.99467 20.4053 1.44 20.0213C1.07733 19.6587 0.789333 19.2747 0.576 18.8693C0.362667 18.4427 0.192 17.888 0.064 17.2053C-0.0213333 16.8 -0.0213333 16.288 0.064 15.6693C0.149333 15.0507 0.288 14.432 0.48 13.8133C0.672 13.1733 0.853333 12.6613 1.024 12.2773C1.28 11.68 1.6 11.04 1.984 10.3573C2.38933 9.65333 2.784 8.992 3.168 8.37333C3.57333 7.73333 3.89333 7.22133 4.128 6.83733C4.27733 6.688 4.34133 6.61333 4.32 6.61333C4.32 6.592 4.32 6.58133 4.32 6.58133C4.32 6.47467 4.42667 6.208 4.64 5.78133C4.87467 5.33333 5.07733 4.93867 5.248 4.59733C5.568 4.256 5.74933 3.97867 5.792 3.76533C5.83467 3.552 5.80267 3.38133 5.696 3.25333C5.65333 3.168 5.728 3.01867 5.92 2.80533C6.112 2.592 6.4 2.34667 6.784 2.06933C7.168 1.792 7.60533 1.51467 8.096 1.23733C8.608 0.832 9.09867 0.618666 9.568 0.597333C10.0587 0.554666 10.3467 0.650666 10.432 0.885333C10.432 0.949334 10.5493 0.970667 10.784 0.949333C11.04 0.906666 11.328 0.853333 11.648 0.789333C11.9893 0.703999 12.288 0.639999 12.544 0.597333C12.6507 0.469334 12.896 0.373334 13.28 0.309333C13.6853 0.224 14.1547 0.149333 14.688 0.0853322C14.9653 0.106667 15.232 0.117334 15.488 0.117334C15.7653 0.0959994 15.9893 0.0746657 16.16 0.0533326C16.352 0.0319996 16.448 0.0213331 16.448 0.0213331C16.5973 -0.0213331 16.768 0 16.96 0.0853322C17.1733 0.170666 17.3653 0.405333 17.536 0.789333C17.6853 1.17333 17.632 1.46133 17.376 1.65333C17.1413 1.84533 16.5867 1.99467 15.712 2.10133C15.072 2.18667 14.5173 2.26133 14.048 2.32533C13.5787 2.368 13.088 2.432 12.576 2.51733C12.064 2.58133 11.4347 2.69867 10.688 2.86933C10.1547 2.976 9.71733 3.104 9.376 3.25333C9.03467 3.38133 8.736 3.584 8.48 3.86133C8.224 4.11733 7.936 4.49067 7.616 4.98133C7.46667 5.088 7.27467 5.36533 7.04 5.81333C6.80533 6.26133 6.57067 6.70933 6.336 7.15733C5.73867 7.98933 5.216 8.71467 4.768 9.33333C4.34133 9.93067 4.17067 10.2827 4.256 10.3893C4.256 10.3893 4.37333 10.4213 4.608 10.4853C4.84267 10.5493 5.00267 10.5813 5.088 10.5813C5.30133 10.4747 5.55733 10.4 5.856 10.3573C6.176 10.3147 6.432 10.272 6.624 10.2293C7.94667 9.888 8.98133 9.62133 9.728 9.42933C10.496 9.23733 11.072 9.09867 11.456 9.01333C11.8613 8.90667 12.1707 8.84267 12.384 8.82133C12.6827 8.58667 12.9707 8.544 13.248 8.69333C13.5467 8.84267 13.7813 9.07733 13.952 9.39733C14.0587 9.632 14.0587 9.83467 13.952 10.0053C13.8667 10.176 13.6 10.3467 13.152 10.5173C12.7253 10.688 12.0853 10.8907 11.232 11.1253C10.3787 11.36 9.25867 11.6693 7.872 12.0533C6.69867 12.3947 5.696 12.5973 4.864 12.6613C4.032 12.7253 3.63733 12.544 3.68 12.1173C3.53067 12.032 3.36 12.1387 3.168 12.4373C2.99733 12.7147 2.82667 13.0987 2.656 13.5893C2.48533 14.08 2.336 14.6027 2.208 15.1573C2.10133 15.712 2.02667 16.2347 1.984 16.7253C1.96267 17.1947 1.99467 17.5467 2.08 17.7813C2.25067 18.272 2.47467 18.6667 2.752 18.9653C3.02933 19.2427 3.53067 19.488 4.256 19.7013C4.68267 19.7227 5.09867 19.7547 5.504 19.7973C5.90933 19.84 6.368 19.7547 6.88 19.5413C8.13867 19.328 9.13067 19.104 9.856 18.8693C10.5813 18.6347 10.9973 18.4747 11.104 18.3893C11.2747 18.304 11.3813 18.2613 11.424 18.2613C11.488 18.24 11.5733 18.2293 11.68 18.2293C11.616 18.336 11.6373 18.3467 11.744 18.2613C11.872 18.1547 12.0427 17.9947 12.256 17.7813C12.4907 17.568 12.8 17.3653 13.184 17.1733C13.568 16.9813 13.9093 16.832 14.208 16.7253C14.528 16.6187 14.6987 16.6187 14.72 16.7253C14.848 16.9387 14.8267 17.2373 14.656 17.6213C14.4853 17.984 14.176 18.3893 13.728 18.8373C13.28 19.264 12.704 19.68 12 20.0853C10.8693 20.6827 9.64267 21.0987 8.32 21.3333C6.99733 21.5893 5.81333 21.728 4.768 21.7493Z" fill="#1A1A1A"/>
</svg>
