<svg width="15" height="24" viewBox="0 0 15 24" fill="none" xmlns="http://www.w3.org/2000/svg">
<path d="M1.79467 22.7125C1.21867 22.3498 0.770667 21.8378 0.450667 21.1765C0.130667 20.4938 -0.0186666 19.8111 0.00266664 19.1285C-0.0186666 17.8058 0.0880001 16.4725 0.322667 15.1285C0.578667 13.7631 0.909333 12.4405 1.31467 11.1605C1.592 10.3925 1.89067 9.60314 2.21067 8.79247C2.552 7.96047 2.89333 7.1818 3.23467 6.45647C3.576 5.73114 3.87467 5.15514 4.13067 4.72847C4.792 3.64047 5.48533 2.74447 6.21067 2.04047C6.95733 1.31514 7.512 0.845803 7.87467 0.63247C8.17333 0.461803 8.68533 0.291137 9.41067 0.120471C10.1573 -0.0501961 10.9253 -0.0395295 11.7147 0.152471C12.2693 0.301803 12.7813 0.483137 13.2507 0.696471C13.7413 0.909804 14.0613 1.09114 14.2107 1.24047C14.3813 1.49647 14.5307 1.72047 14.6587 1.91247C14.808 2.08314 14.8827 2.29647 14.8827 2.55247C14.904 2.72314 14.84 2.93647 14.6907 3.19247C14.5627 3.42714 14.392 3.5978 14.1787 3.70447C13.9867 3.81114 13.7947 3.7578 13.6027 3.54447C13.3253 3.1178 13.0373 2.8298 12.7387 2.68047C12.44 2.5098 12.12 2.33914 11.7787 2.16847C11.544 2.01914 11.224 1.94447 10.8187 1.94447C10.4133 1.92314 9.99733 1.9658 9.57067 2.07247C9.144 2.17914 8.77067 2.36047 8.45067 2.61647C8.23733 2.80847 7.96 3.09647 7.61867 3.48047C7.27733 3.84314 6.936 4.24847 6.59467 4.69647C6.25333 5.14447 5.976 5.5818 5.76267 6.00847C5.18667 7.01114 4.664 8.02447 4.19467 9.04847C3.74667 10.0511 3.36267 11.1498 3.04267 12.3445C2.95733 12.6431 2.84 13.0805 2.69067 13.6565C2.56267 14.2325 2.43467 14.8085 2.30667 15.3845C2.17867 15.9605 2.09333 16.4298 2.05067 16.7925C1.90133 17.8378 1.848 18.7551 1.89067 19.5445C1.95467 20.3338 2.232 20.8778 2.72267 21.1765C3.21333 21.4751 4.024 21.4325 5.15467 21.0485C5.64533 20.9845 6.168 20.7711 6.72267 20.4085C7.29867 20.0458 7.85333 19.5978 8.38667 19.0645C8.94133 18.5098 9.41067 17.9231 9.79467 17.3045C10.1573 16.6218 10.4773 15.9498 10.7547 15.2885C11.0533 14.6271 11.2133 14.0831 11.2347 13.6565C11.256 13.2298 11.0533 13.0271 10.6267 13.0485C9.83733 12.9631 9.19733 12.9418 8.70667 12.9845C8.216 13.0058 7.77867 12.9311 7.39467 12.7605C7.24533 12.5258 7.18133 12.2911 7.20267 12.0565C7.224 11.8218 7.352 11.5871 7.58667 11.3525C7.82133 11.2671 8.216 11.2031 8.77067 11.1605C9.32533 11.1178 9.92267 11.1391 10.5627 11.2245C11.2027 11.2885 11.768 11.4378 12.2587 11.6725C12.6213 11.8431 12.8773 12.0991 13.0267 12.4405C13.176 12.7605 13.2507 13.1338 13.2507 13.5605C13.2507 13.9871 13.208 14.4245 13.1227 14.8725C13.016 15.3418 12.7813 15.9071 12.4187 16.5685C12.0773 17.2085 11.6613 17.8911 11.1707 18.6165C10.8507 19.0645 10.4027 19.5551 9.82667 20.0885C9.272 20.6218 8.696 21.1018 8.09867 21.5285C7.52267 21.9551 7.032 22.2431 6.62667 22.3925C5.77333 22.7765 4.89867 23.0218 4.00267 23.1285C3.10667 23.2565 2.37067 23.1178 1.79467 22.7125Z" fill="#1A1A1A"/>
</svg>
