<svg width="18" height="29" viewBox="0 0 18 29" fill="none" xmlns="http://www.w3.org/2000/svg">
<path d="M4.62222 28.4442C4.47289 28.2096 4.13156 28.0602 3.59822 27.9962C3.08622 27.9322 2.45689 27.9216 1.71022 27.9642C1.41156 28.0069 1.12356 27.9856 0.846222 27.9002C0.568889 27.8362 0.344889 27.7189 0.174222 27.5482C0.0248889 27.3989 -0.0284444 27.2389 0.0142222 27.0682C0.0355556 26.8122 0.248889 26.6096 0.654222 26.4602C1.08089 26.3109 1.75289 26.2256 2.67022 26.2042L4.36622 26.1722L4.68622 25.5322C4.77156 25.2976 4.87822 24.9669 5.00622 24.5402C5.13422 24.1136 5.27289 23.6549 5.42222 23.1642C5.50756 22.8656 5.63556 22.4602 5.80622 21.9482C5.97689 21.4362 6.15822 20.8922 6.35022 20.3162C6.54222 19.7402 6.71289 19.2282 6.86222 18.7802C7.01156 18.3109 7.10756 17.9802 7.15022 17.7882C7.23556 17.5962 7.35289 17.2762 7.50222 16.8282C7.65156 16.3589 7.79022 15.8896 7.91822 15.4202C8.06756 14.9296 8.16356 14.5776 8.20622 14.3642C8.76089 12.6789 9.12356 11.4842 9.29422 10.7802C9.46489 10.0549 9.50756 9.68157 9.42222 9.66023C9.33689 9.66023 9.12356 9.6709 8.78222 9.69224C8.46222 9.71357 8.09956 9.74557 7.69422 9.78823C7.31022 9.80957 6.95822 9.84157 6.63822 9.88424C6.33956 9.9269 6.15822 9.96957 6.09422 10.0122C5.98756 10.1616 5.80622 10.1936 5.55022 10.1082C5.29422 10.0229 5.13422 9.87357 5.07022 9.66023C5.04889 9.46824 5.03822 9.3189 5.03822 9.21223C5.05956 9.10557 5.12356 9.02024 5.23022 8.95624C5.37956 8.82823 5.66756 8.68957 6.09422 8.54024C6.52089 8.36957 7.00089 8.22024 7.53422 8.09224C8.08889 7.96424 8.61156 7.86824 9.10222 7.80424C9.46489 7.76157 9.82756 7.6869 10.1902 7.58024C10.5529 7.45224 10.8409 7.3029 11.0542 7.13224C11.2462 7.06824 11.4276 7.0149 11.5982 6.97224C11.7902 6.92957 11.9822 6.9189 12.1742 6.94024C12.3449 7.0469 12.6329 7.10024 13.0382 7.10024C13.4649 7.10024 13.9129 7.08957 14.3822 7.06824C15.5769 6.96157 16.3769 6.92957 16.7822 6.97224C17.2089 7.0149 17.4969 7.18557 17.6462 7.48424C17.7529 7.88957 17.7742 8.20957 17.7102 8.44423C17.6462 8.65757 17.4329 8.75357 17.0702 8.73223C16.8782 8.7749 16.5262 8.81757 16.0142 8.86024C15.5236 8.88157 15.0009 8.9029 14.4462 8.92423C12.9316 9.05224 12.1209 9.20157 12.0142 9.37224C11.9289 9.45757 11.8542 9.5429 11.7902 9.62823C11.7476 9.71357 11.6836 9.80957 11.5982 9.91623C11.6196 10.0016 11.5662 10.2789 11.4382 10.7482C11.3316 11.1962 11.1929 11.6549 11.0222 12.1242C10.9369 12.4016 10.8089 12.7962 10.6382 13.3082C10.4676 13.8202 10.2862 14.3536 10.0942 14.9082C9.92356 15.4416 9.76356 15.9322 9.61422 16.3802C9.46489 16.8069 9.35822 17.0949 9.29422 17.2442C9.20889 17.4362 9.13422 17.6496 9.07022 17.8842C9.02756 18.0976 8.99556 18.2576 8.97422 18.3642C8.67556 19.4096 8.40889 20.2949 8.17422 21.0202C7.96089 21.7456 7.75822 22.3856 7.56622 22.9402C7.39556 23.4736 7.23556 23.9962 7.08622 24.5082C6.93689 24.9989 6.77689 25.5429 6.60622 26.1402C6.60622 26.1402 6.76622 26.1296 7.08622 26.1082C7.42756 26.0656 7.87556 26.0229 8.43022 25.9802C9.43289 25.8736 10.1476 25.8096 10.5742 25.7882C11.0222 25.7669 11.3209 25.7989 11.4702 25.8842C11.6196 25.9482 11.7262 26.0762 11.7902 26.2682C12.2169 26.8442 12.2702 27.2389 11.9502 27.4522C11.6302 27.6656 10.8729 27.7616 9.67822 27.7402C8.56889 27.7829 7.71556 27.8149 7.11822 27.8362C6.54222 27.8789 6.13689 27.9322 5.90222 27.9962C5.68889 28.0602 5.56089 28.1669 5.51822 28.3162C5.51822 28.4869 5.43289 28.5722 5.26222 28.5722C5.09156 28.5722 4.87822 28.5296 4.62222 28.4442ZM11.4062 4.60424C11.2569 4.4549 11.1396 4.2309 11.0542 3.93224C10.9902 3.63357 10.9689 3.44157 10.9902 3.35624C11.0116 3.24957 11.1502 3.03624 11.4062 2.71623C11.6836 2.39623 12.0036 2.04423 12.3662 1.66023C12.7289 1.27623 13.0702 0.934901 13.3902 0.636235C13.7316 0.337568 13.9769 0.156235 14.1262 0.092236C14.3609 -0.057098 14.5849 -0.0250984 14.7982 0.188235C15.0116 0.380235 15.2249 0.646902 15.4382 0.988236C15.5022 1.18024 15.4169 1.4149 15.1822 1.69223C14.9689 1.94823 14.6809 2.22557 14.3182 2.52424C13.9556 2.8229 13.5929 3.12157 13.2302 3.42024C12.8889 3.69757 12.6329 3.95357 12.4622 4.18823C12.2489 4.52957 12.0782 4.73224 11.9502 4.79624C11.8436 4.86024 11.6622 4.79624 11.4062 4.60424Z" fill="#1A1A1A"/>
</svg>
