<svg width="12" height="24" viewBox="0 0 12 24" fill="none" xmlns="http://www.w3.org/2000/svg">
<path d="M3.712 23.138C2.85867 22.9247 2.09067 22.498 1.408 21.858C0.746667 21.218 0.32 20.5567 0.128 19.874C0.106667 19.5967 0.0746667 19.234 0.0320001 18.786C0.0106667 18.338 0 17.922 0 17.538C0.0213334 17.154 0.0533334 16.93 0.096 16.866C0.16 16.8233 0.192 16.6953 0.192 16.482C0.170667 16.3967 0.181333 16.258 0.224 16.066C0.288 15.8527 0.352 15.6393 0.416 15.426C0.522667 15.17 0.576 14.9673 0.576 14.818C0.576 14.6473 0.565333 14.5193 0.544 14.434C0.544 14.434 0.576 14.37 0.64 14.242C0.704 14.0927 0.778667 13.9753 0.864 13.89C0.992 13.762 1.04533 13.634 1.024 13.506C1.024 13.378 1.024 13.314 1.024 13.314C1.00267 13.2287 1.024 13.1113 1.088 12.962C1.152 12.8127 1.216 12.6953 1.28 12.61C1.32267 12.5673 1.376 12.482 1.44 12.354C1.52533 12.2047 1.568 12.13 1.568 12.13C1.568 12.066 1.61067 11.8953 1.696 11.618C1.80267 11.3407 1.92 11.042 2.048 10.722C2.176 10.3807 2.29333 10.0713 2.4 9.794C2.528 9.51667 2.624 9.33533 2.688 9.25V9.186C2.77333 8.97267 2.89067 8.74867 3.04 8.514C3.06133 8.40733 3.11467 8.23667 3.2 8.002C3.28533 7.746 3.38133 7.50067 3.488 7.266C3.72267 6.754 4.01067 6.178 4.352 5.538C4.71467 4.87667 5.09867 4.226 5.504 3.586C5.90933 2.92467 6.29333 2.338 6.656 1.826C7.04 1.29267 7.37067 0.898001 7.648 0.642001C8.01067 0.236668 8.29867 0.0233343 8.512 0.00199994C8.72533 -0.0193331 8.992 0.130001 9.312 0.450002C9.46133 0.599334 9.568 0.780667 9.632 0.994001C9.696 1.20733 9.71733 1.39933 9.696 1.57C9.696 1.71933 9.65333 1.80467 9.568 1.826C9.41867 1.91133 9.19467 2.15667 8.896 2.562C8.59733 2.946 8.256 3.40467 7.872 3.938C7.50933 4.47133 7.14667 5.026 6.784 5.602C6.44267 6.15667 6.144 6.658 5.888 7.106C5.61067 7.72467 5.35467 8.26867 5.12 8.738C4.88533 9.186 4.768 9.41 4.768 9.41C4.74667 9.474 4.72533 9.52733 4.704 9.57C4.68267 9.61267 4.66133 9.65533 4.64 9.698C4.32 10.3593 4.05333 10.9673 3.84 11.522C3.62667 12.0553 3.41333 12.6207 3.2 13.218C3.072 13.3673 2.99733 13.5167 2.976 13.666C2.95467 13.8153 2.944 13.89 2.944 13.89C2.90133 13.8687 2.86933 13.922 2.848 14.05C2.82667 14.1567 2.784 14.2847 2.72 14.434C2.61333 14.5193 2.54933 14.658 2.528 14.85C2.50667 15.0207 2.496 15.1913 2.496 15.362C2.34667 15.746 2.208 16.2153 2.08 16.77C1.952 17.3033 1.856 17.826 1.792 18.338C1.74933 18.8287 1.73867 19.2127 1.76 19.49C1.80267 19.8527 1.984 20.1833 2.304 20.482C2.64533 20.7593 3.05067 20.994 3.52 21.186C3.75467 21.2713 3.95733 21.346 4.128 21.41C4.29867 21.4527 4.45867 21.474 4.608 21.474C4.77867 21.4953 4.992 21.4953 5.248 21.474C5.52533 21.4313 5.89867 21.3673 6.368 21.282H6.336C6.61333 21.2393 6.90133 21.186 7.2 21.122C7.52 21.0367 7.81867 20.962 8.096 20.898C8.352 20.8553 8.59733 20.8127 8.832 20.77C9.06667 20.706 9.248 20.6527 9.376 20.61C9.84533 20.482 10.1867 20.3967 10.4 20.354C10.6133 20.29 10.7733 20.3007 10.88 20.386C10.9867 20.4713 11.0613 20.578 11.104 20.706C11.1467 20.8127 11.136 20.962 11.072 21.154C11.0293 21.2607 10.8587 21.4207 10.56 21.634C10.2613 21.826 9.89867 22.018 9.472 22.21C9.06667 22.402 8.66133 22.562 8.256 22.69C7.82933 22.882 7.31733 23.0313 6.72 23.138C6.144 23.2447 5.57867 23.298 5.024 23.298C4.49067 23.298 4.05333 23.2447 3.712 23.138Z" fill="#1A1A1A"/>
</svg>
