<svg width="16" height="29" viewBox="0 0 16 29" fill="none" xmlns="http://www.w3.org/2000/svg">
<path d="M1.92 28.0922C1.13067 27.4949 0.629333 27.0362 0.416 26.7162C0.202667 26.3749 0.0746667 25.9696 0.0319999 25.5002C-0.0106666 25.1162 -0.0106666 24.5936 0.0319999 23.9322C0.0959999 23.2709 0.170667 22.6202 0.256 21.9802C0.341333 21.3402 0.416 20.8602 0.48 20.5402C0.586667 20.4336 0.629333 20.2949 0.608 20.1242C0.608 19.9322 0.608 19.8362 0.608 19.8362C0.586667 19.7296 0.661333 19.4522 0.832 19.0042C1.00267 18.5349 1.16267 17.9376 1.312 17.2122C1.73867 15.9322 2.144 14.8656 2.528 14.0122C2.93333 13.1376 3.328 12.3909 3.712 11.7722C4.096 11.1536 4.48 10.5882 4.864 10.0762C5.73867 9.18023 6.44267 8.50824 6.976 8.06024C7.50933 7.5909 8.10667 7.2069 8.768 6.90824C9.19467 6.65224 9.58933 6.44957 9.952 6.30024C10.3147 6.1509 10.6133 6.12957 10.848 6.23624C12.0427 6.49224 12.9387 6.9829 13.536 7.70824C14.1333 8.41224 14.5707 9.5109 14.848 11.0042C14.9973 11.9429 15.0827 12.7962 15.104 13.5642C15.1467 14.3109 15.0933 15.0576 14.944 15.8042C14.7947 16.5296 14.5173 17.3296 14.112 18.2042C13.728 19.0789 13.184 20.1029 12.48 21.2762C11.7333 22.7482 10.8907 24.0282 9.952 25.1162C9.03467 26.2042 8.08533 27.0576 7.104 27.6762C6.144 28.3162 5.20533 28.6789 4.288 28.7642C3.392 28.8496 2.60267 28.6256 1.92 28.0922ZM3.968 27.1642C4.45867 27.1002 4.928 26.9509 5.376 26.7162C5.824 26.4816 6.29333 26.1402 6.784 25.6922C7.27467 25.2229 7.82933 24.6362 8.448 23.9322C9.00267 23.2922 9.45067 22.7589 9.792 22.3322C10.1547 21.8842 10.4533 21.4362 10.688 20.9882C10.944 20.5402 11.1787 19.9962 11.392 19.3562C11.6267 18.7162 11.8933 17.8842 12.192 16.8602C12.3627 16.2202 12.4907 15.6869 12.576 15.2602C12.6613 14.8336 12.7147 14.4389 12.736 14.0762C12.7573 13.6922 12.7573 13.2549 12.736 12.7642C12.736 12.2736 12.736 11.6442 12.736 10.8762C12.7147 10.5136 12.64 10.1402 12.512 9.75624C12.384 9.3509 12.2347 9.05224 12.064 8.86024C11.8507 8.62557 11.552 8.46557 11.168 8.38024C10.784 8.27357 10.3573 8.3269 9.888 8.54024C9.632 8.6469 9.30133 8.89224 8.896 9.27624C8.49067 9.6389 8.064 10.0656 7.616 10.5562C7.168 11.0469 6.74133 11.5482 6.336 12.0602C5.952 12.5722 5.632 13.0309 5.376 13.4362C5.14133 13.8202 5.024 14.0869 5.024 14.2362C5.024 14.2362 5.01333 14.2896 4.992 14.3962C4.992 14.5029 4.94933 14.6096 4.864 14.7162C4.58667 15.0149 4.27733 15.5482 3.936 16.3162C3.616 17.0842 3.30667 17.9589 3.008 18.9402C2.70933 19.9002 2.45333 20.8602 2.24 21.8202C2.048 22.7589 1.93067 23.5802 1.888 24.2842C1.84533 24.8602 1.824 25.2549 1.824 25.4682C1.824 25.6816 1.86667 25.8522 1.952 25.9802C2.03733 26.0869 2.176 26.3002 2.368 26.6202C2.496 26.8336 2.70933 26.9936 3.008 27.1002C3.328 27.2069 3.648 27.2282 3.968 27.1642ZM11.616 4.60424C11.4667 4.4549 11.3493 4.2309 11.264 3.93224C11.2 3.63357 11.1787 3.44157 11.2 3.35624C11.2213 3.24957 11.36 3.03624 11.616 2.71623C11.8933 2.39623 12.2133 2.04423 12.576 1.66023C12.9387 1.27623 13.28 0.934901 13.6 0.636235C13.9413 0.337568 14.1867 0.156235 14.336 0.092236C14.5707 -0.057098 14.7947 -0.0250984 15.008 0.188235C15.2213 0.380235 15.4347 0.646902 15.648 0.988236C15.712 1.18024 15.6267 1.4149 15.392 1.69223C15.1787 1.94823 14.8907 2.22557 14.528 2.52424C14.1653 2.8229 13.8027 3.12157 13.44 3.42024C13.0987 3.69757 12.8427 3.95357 12.672 4.18823C12.4587 4.52957 12.288 4.73224 12.16 4.79624C12.0533 4.86024 11.872 4.79624 11.616 4.60424Z" fill="#1A1A1A"/>
</svg>
