<svg width="17" height="29" viewBox="0 0 17 29" fill="none" xmlns="http://www.w3.org/2000/svg">
<path d="M1.92 27.5876C1.13067 26.9902 0.629333 26.5316 0.416 26.2116C0.202667 25.8702 0.0746667 25.4649 0.0319999 24.9956C-0.0106666 24.6116 -0.0106666 24.0889 0.0319999 23.4276C0.0959999 22.7662 0.170667 22.1156 0.256 21.4756C0.341333 20.8356 0.416 20.3556 0.48 20.0356C0.586667 19.9289 0.629333 19.7902 0.608 19.6196C0.608 19.4276 0.608 19.3316 0.608 19.3316C0.586667 19.2249 0.661333 18.9476 0.832 18.4996C1.00267 18.0302 1.16267 17.4329 1.312 16.7076C1.73867 15.4276 2.144 14.3609 2.528 13.5076C2.93333 12.6329 3.328 11.8862 3.712 11.2676C4.096 10.6489 4.48 10.0836 4.864 9.57156C5.73867 8.67556 6.44267 8.00356 6.976 7.55556C7.50933 7.08622 8.10667 6.70222 8.768 6.40356C9.19467 6.14756 9.58933 5.94489 9.952 5.79556C10.3147 5.64622 10.6133 5.62489 10.848 5.73156C12.0427 5.98756 12.9387 6.47822 13.536 7.20356C14.1333 7.90756 14.5707 9.00622 14.848 10.4996C14.9973 11.4382 15.0827 12.2916 15.104 13.0596C15.1467 13.8062 15.0933 14.5529 14.944 15.2996C14.7947 16.0249 14.5173 16.8249 14.112 17.6996C13.728 18.5742 13.184 19.5982 12.48 20.7716C11.7333 22.2436 10.8907 23.5236 9.952 24.6116C9.03467 25.6996 8.08533 26.5529 7.104 27.1716C6.144 27.8116 5.20533 28.1742 4.288 28.2596C3.392 28.3449 2.60267 28.1209 1.92 27.5876ZM3.968 26.6596C4.45867 26.5956 4.928 26.4462 5.376 26.2116C5.824 25.9769 6.29333 25.6356 6.784 25.1876C7.27467 24.7182 7.82933 24.1316 8.448 23.4276C9.00267 22.7876 9.45067 22.2542 9.792 21.8276C10.1547 21.3796 10.4533 20.9316 10.688 20.4836C10.944 20.0356 11.1787 19.4916 11.392 18.8516C11.6267 18.2116 11.8933 17.3796 12.192 16.3556C12.3627 15.7156 12.4907 15.1822 12.576 14.7556C12.6613 14.3289 12.7147 13.9342 12.736 13.5716C12.7573 13.1876 12.7573 12.7502 12.736 12.2596C12.736 11.7689 12.736 11.1396 12.736 10.3716C12.7147 10.0089 12.64 9.63556 12.512 9.25156C12.384 8.84622 12.2347 8.54756 12.064 8.35556C11.8507 8.12089 11.552 7.96089 11.168 7.87556C10.784 7.76889 10.3573 7.82222 9.888 8.03556C9.632 8.14222 9.30133 8.38756 8.896 8.77156C8.49067 9.13422 8.064 9.56089 7.616 10.0516C7.168 10.5422 6.74133 11.0436 6.336 11.5556C5.952 12.0676 5.632 12.5262 5.376 12.9316C5.14133 13.3156 5.024 13.5822 5.024 13.7316C5.024 13.7316 5.01333 13.7849 4.992 13.8916C4.992 13.9982 4.94933 14.1049 4.864 14.2116C4.58667 14.5102 4.27733 15.0436 3.936 15.8116C3.616 16.5796 3.30667 17.4542 3.008 18.4356C2.70933 19.3956 2.45333 20.3556 2.24 21.3156C2.048 22.2542 1.93067 23.0756 1.888 23.7796C1.84533 24.3556 1.824 24.7502 1.824 24.9636C1.824 25.1769 1.86667 25.3476 1.952 25.4756C2.03733 25.5822 2.176 25.7956 2.368 26.1156C2.496 26.3289 2.70933 26.4889 3.008 26.5956C3.328 26.7022 3.648 26.7236 3.968 26.6596ZM11.264 3.58756C10.9013 3.95022 10.592 4.11022 10.336 4.06756C10.08 4.00356 9.92 3.84356 9.856 3.58756C9.792 3.31022 9.87733 3.02222 10.112 2.72356C10.176 2.63822 10.3253 2.48889 10.56 2.27556C10.7947 2.06222 11.0613 1.81689 11.36 1.53956C11.68 1.26222 12 1.00622 12.32 0.771557C12.64 0.53689 12.9067 0.355556 13.12 0.227556C13.312 0.0568894 13.4933 -0.0177776 13.664 0.00355546C13.8347 0.00355546 13.984 0.0995555 14.112 0.291556C14.368 0.50489 14.6773 0.803557 15.04 1.18756C15.424 1.55022 15.776 1.89156 16.096 2.21156C16.416 2.53156 16.5973 2.72356 16.64 2.78756C16.768 2.95822 16.8213 3.16089 16.8 3.39556C16.8 3.60889 16.7253 3.79022 16.576 3.93956C16.448 4.08889 16.2773 4.14222 16.064 4.09956C15.8507 4.03556 15.5947 3.83289 15.296 3.49156C15.1467 3.29956 14.9013 3.04356 14.56 2.72356C14.2187 2.38222 13.888 2.07289 13.568 1.79556C13.312 1.94489 13.024 2.13689 12.704 2.37156C12.4053 2.60622 12.128 2.84089 11.872 3.07556C11.616 3.28889 11.4133 3.45956 11.264 3.58756Z" fill="#1A1A1A"/>
</svg>
