<svg width="18" height="29" viewBox="0 0 18 29" fill="none" xmlns="http://www.w3.org/2000/svg">
<path d="M1.92 27.472C1.13067 26.8747 0.629333 26.416 0.416 26.096C0.202667 25.7547 0.0746667 25.3493 0.0319999 24.88C-0.0106666 24.496 -0.0106666 23.9733 0.0319999 23.312C0.0959999 22.6507 0.170667 22 0.256 21.36C0.341333 20.72 0.416 20.24 0.48 19.92C0.586667 19.8133 0.629333 19.6747 0.608 19.504C0.608 19.312 0.608 19.216 0.608 19.216C0.586667 19.1093 0.661333 18.832 0.832 18.384C1.00267 17.9147 1.16267 17.3173 1.312 16.592C1.73867 15.312 2.144 14.2453 2.528 13.392C2.93333 12.5173 3.328 11.7707 3.712 11.152C4.096 10.5333 4.48 9.968 4.864 9.456C5.73867 8.56 6.44267 7.888 6.976 7.44C7.50933 6.97067 8.10667 6.58667 8.768 6.288C9.19467 6.032 9.58933 5.82933 9.952 5.68C10.3147 5.53067 10.6133 5.50933 10.848 5.616C12.0427 5.872 12.9387 6.36267 13.536 7.088C14.1333 7.792 14.5707 8.89067 14.848 10.384C14.9973 11.3227 15.0827 12.176 15.104 12.944C15.1467 13.6907 15.0933 14.4373 14.944 15.184C14.7947 15.9093 14.5173 16.7093 14.112 17.584C13.728 18.4587 13.184 19.4827 12.48 20.656C11.7333 22.128 10.8907 23.408 9.952 24.496C9.03467 25.584 8.08533 26.4373 7.104 27.056C6.144 27.696 5.20533 28.0587 4.288 28.144C3.392 28.2293 2.60267 28.0053 1.92 27.472ZM3.968 26.544C4.45867 26.48 4.928 26.3307 5.376 26.096C5.824 25.8613 6.29333 25.52 6.784 25.072C7.27467 24.6027 7.82933 24.016 8.448 23.312C9.00267 22.672 9.45067 22.1387 9.792 21.712C10.1547 21.264 10.4533 20.816 10.688 20.368C10.944 19.92 11.1787 19.376 11.392 18.736C11.6267 18.096 11.8933 17.264 12.192 16.24C12.3627 15.6 12.4907 15.0667 12.576 14.64C12.6613 14.2133 12.7147 13.8187 12.736 13.456C12.7573 13.072 12.7573 12.6347 12.736 12.144C12.736 11.6533 12.736 11.024 12.736 10.256C12.7147 9.89333 12.64 9.52 12.512 9.136C12.384 8.73067 12.2347 8.432 12.064 8.24C11.8507 8.00533 11.552 7.84533 11.168 7.76C10.784 7.65333 10.3573 7.70667 9.888 7.92C9.632 8.02667 9.30133 8.272 8.896 8.656C8.49067 9.01867 8.064 9.44533 7.616 9.936C7.168 10.4267 6.74133 10.928 6.336 11.44C5.952 11.952 5.632 12.4107 5.376 12.816C5.14133 13.2 5.024 13.4667 5.024 13.616C5.024 13.616 5.01333 13.6693 4.992 13.776C4.992 13.8827 4.94933 13.9893 4.864 14.096C4.58667 14.3947 4.27733 14.928 3.936 15.696C3.616 16.464 3.30667 17.3387 3.008 18.32C2.70933 19.28 2.45333 20.24 2.24 21.2C2.048 22.1387 1.93067 22.96 1.888 23.664C1.84533 24.24 1.824 24.6347 1.824 24.848C1.824 25.0613 1.86667 25.232 1.952 25.36C2.03733 25.4667 2.176 25.68 2.368 26C2.496 26.2133 2.70933 26.3733 3.008 26.48C3.328 26.5867 3.648 26.608 3.968 26.544ZM14.432 3.504C14.0053 3.504 13.6533 3.42933 13.376 3.28C13.12 3.10933 12.7893 2.88533 12.384 2.608C12.192 2.50133 11.936 2.288 11.616 1.968C11.296 1.648 11.008 1.488 10.752 1.488C10.5387 1.488 10.3573 1.57333 10.208 1.744C10.08 1.91467 9.952 2.096 9.824 2.288C9.696 2.45867 9.51467 2.56533 9.28 2.608C9.25867 2.71467 9.19467 2.85333 9.088 3.024C8.98133 3.17333 8.90667 3.19467 8.864 3.088C8.65067 3.024 8.48 2.91733 8.352 2.768C8.24533 2.61867 8.20267 2.49067 8.224 2.384C8.24533 2.192 8.40533 1.85067 8.704 1.36C9.00267 0.869332 9.51467 0.442666 10.24 0.0799999C10.496 -0.0266666 10.848 -0.0266666 11.296 0.0799999C11.7653 0.186666 12.1707 0.4 12.512 0.719999C13.0027 1.168 13.376 1.49867 13.632 1.712C13.888 1.904 14.2187 1.91467 14.624 1.744C14.944 1.65867 15.2853 1.49867 15.648 1.264C16.032 1.008 16.448 0.794666 16.896 0.623999C17.0453 0.559999 17.184 0.570667 17.312 0.656C17.44 0.719999 17.536 0.826666 17.6 0.976C17.664 1.12533 17.6853 1.264 17.664 1.392C17.664 1.47733 17.5893 1.62667 17.44 1.84C17.312 2.05333 17.152 2.21333 16.96 2.32C16.32 2.68267 15.8293 2.94933 15.488 3.12C15.1467 3.29067 14.9013 3.39733 14.752 3.44C14.624 3.48267 14.5173 3.504 14.432 3.504Z" fill="#1A1A1A"/>
</svg>
