<svg width="16" height="26" viewBox="0 0 16 26" fill="none" xmlns="http://www.w3.org/2000/svg">
<path d="M3.71874 23.344C3.39874 23.28 3.04674 23.152 2.66274 22.96C2.27874 22.768 1.92674 22.5227 1.60674 22.224C1.28674 21.9467 1.05207 21.6587 0.902737 21.36C0.369404 20.272 0.0707369 19.12 0.00673682 17.904C-0.0359298 16.6667 0.12407 15.1733 0.486737 13.424C0.593404 13.0613 0.73207 12.5707 0.902737 11.952C1.09474 11.3333 1.2974 10.7147 1.51074 10.096C1.72407 9.47733 1.91607 8.95467 2.08674 8.528C2.2574 8.10133 2.36407 7.888 2.40674 7.888C2.47074 7.824 2.50274 7.64267 2.50274 7.344C2.50274 7.23733 2.58807 7.01333 2.75874 6.672C2.95074 6.30933 3.1854 5.904 3.46274 5.456C3.7614 5.008 4.06007 4.58133 4.35874 4.176C4.67874 3.74933 4.9774 3.41867 5.25474 3.184C5.6814 2.62933 6.1614 2.16 6.69474 1.776C7.2494 1.37067 7.7934 1.02933 8.32674 0.752C8.45474 0.666666 8.63607 0.570666 8.87074 0.464C9.12674 0.357333 9.40407 0.261333 9.70274 0.175999C10.0014 0.0906672 10.2681 0.037334 10.5027 0.0159996C11.5694 -0.0479995 12.3694 0.0800007 12.9027 0.4C13.4361 0.72 13.9054 1.296 14.3107 2.128C14.7374 2.59733 14.9721 3.04533 15.0147 3.472C15.0574 3.89867 15.1214 4.42133 15.2067 5.04C15.2067 5.616 15.1427 6.29867 15.0147 7.088C14.9081 7.856 14.7587 8.624 14.5667 9.392C14.3747 10.1387 14.1614 10.768 13.9267 11.28C13.6921 11.7707 13.4681 12.016 13.2547 12.016C13.2547 12.016 13.2227 12.0267 13.1587 12.048C13.0947 12.048 13.0627 12.1013 13.0627 12.208C13.1054 12.3573 13.0627 12.6987 12.9347 13.232C12.8067 13.744 12.5827 14.3093 12.2627 14.928C11.5801 16.848 10.7694 18.4587 9.83074 19.76C8.9134 21.04 7.93207 21.9893 6.88674 22.608C5.8414 23.2267 4.7854 23.472 3.71874 23.344ZM10.3107 25.104C9.9694 25.1253 9.62807 24.9973 9.28674 24.72C8.9454 24.464 8.73207 24.1973 8.64674 23.92C8.4974 23.792 8.42274 23.664 8.42274 23.536C8.42274 23.4293 8.4014 23.3547 8.35874 23.312C8.2734 23.2693 8.15607 23.152 8.00674 22.96C7.8574 22.7893 7.75074 22.5867 7.68674 22.352C7.5374 22.0533 7.3134 21.6267 7.01474 21.072C6.7374 20.496 6.43874 19.9093 6.11874 19.312C5.79874 18.6933 5.51074 18.16 5.25474 17.712C5.02007 17.2427 4.8814 16.976 4.83874 16.912C4.66807 16.7413 4.6894 16.528 4.90274 16.272C5.0094 16.016 5.12674 15.8667 5.25474 15.824C5.40407 15.7813 5.6814 15.8133 6.08674 15.92C6.5774 15.92 7.0254 16.432 7.43074 17.456C7.45207 17.5627 7.54807 17.8187 7.71874 18.224C7.8894 18.6293 8.0814 19.0347 8.29474 19.44C8.50807 19.824 8.67874 20.0693 8.80674 20.176C8.9134 20.4107 9.03074 20.6773 9.15874 20.976C9.28674 21.2747 9.4254 21.52 9.57474 21.712C9.63874 21.9467 9.7774 22.2027 9.99074 22.48C10.2041 22.7573 10.3534 23.0453 10.4387 23.344C10.9294 24.112 11.1641 24.6027 11.1427 24.816C11.1427 25.0293 10.8654 25.1253 10.3107 25.104ZM3.97474 21.488C4.87074 21.3813 5.75607 20.88 6.63074 19.984C7.52674 19.0667 8.3694 17.872 9.15874 16.4C9.9694 14.9067 10.6947 13.2533 11.3347 11.44C11.5267 10.9067 11.7614 10.32 12.0387 9.68C12.3161 9.01867 12.5614 8.29333 12.7747 7.504C12.9881 6.71467 13.0947 5.88267 13.0947 5.008C13.2227 4.06933 13.1907 3.376 12.9987 2.928C12.8067 2.48 12.4547 2.13867 11.9427 1.904C11.2601 1.648 10.5027 1.70133 9.67074 2.064C8.86007 2.40533 8.06007 3.03467 7.27074 3.952C6.4814 4.86933 5.7774 6.07467 5.15874 7.568C4.28407 9.424 3.59074 11.088 3.07874 12.56C2.56674 14.032 2.23607 15.3547 2.08674 16.528C1.9374 17.7013 1.9694 18.768 2.18274 19.728C2.2254 20.3893 2.39607 20.88 2.69474 21.2C3.01474 21.5413 3.4414 21.6373 3.97474 21.488Z" fill="#1A1A1A"/>
</svg>
