<svg width="17" height="30" viewBox="0 0 17 30" fill="none" xmlns="http://www.w3.org/2000/svg">
<path d="M3.10539 29.1162C2.12406 28.7536 1.36672 28.1882 0.833391 27.4202C0.321391 26.6309 0.0440579 25.5322 0.00139129 24.1242C-0.0199419 22.6949 0.204058 20.8709 0.673391 18.6522C0.822725 17.9056 1.03606 17.0522 1.31339 16.0922C1.59072 15.1322 1.91072 14.1509 2.27339 13.1482C2.65739 12.1242 3.05206 11.1429 3.45739 10.2042C3.88406 9.24423 4.30006 8.40157 4.70539 7.67624C5.19606 6.80157 5.56939 6.25757 5.82539 6.04424C6.10272 5.80957 6.34806 5.71357 6.56139 5.75624C6.96672 5.8629 7.25472 6.06557 7.42539 6.36424C7.61739 6.64157 7.68139 6.9509 7.61739 7.29223C7.57473 7.61224 7.37206 7.88957 7.00939 8.12424C6.77473 8.40157 6.46539 8.91357 6.08139 9.66023C5.71872 10.3856 5.34539 11.0896 4.96139 11.7722C4.53473 13.0096 4.16139 14.1082 3.84139 15.0682C3.52139 16.0069 3.25472 16.8922 3.04139 17.7242C2.82806 18.5562 2.63606 19.4309 2.46539 20.3482C2.27339 21.2442 2.12406 21.9802 2.01739 22.5562C1.93206 23.1322 1.86806 23.6122 1.82539 23.9962C1.80406 24.3589 1.79339 24.6789 1.79339 24.9562C1.79339 25.2336 1.79339 25.5216 1.79339 25.8202C1.96406 26.0976 2.10272 26.3429 2.20939 26.5562C2.31606 26.7696 2.45472 26.8976 2.62539 26.9402C2.98806 27.1109 3.39339 27.1536 3.84139 27.0682C4.31072 26.9829 4.76939 26.8122 5.21739 26.5562C5.32406 26.3429 5.46272 26.1936 5.63339 26.1082C5.80406 26.0229 5.88939 25.9802 5.88939 25.9802C5.93206 26.0869 5.97472 26.1189 6.01739 26.0762C6.08139 26.0122 6.12406 25.9376 6.14539 25.8522C6.12406 25.7669 6.14539 25.6922 6.20939 25.6282C6.27339 25.5429 6.34806 25.4576 6.43339 25.3722C6.60406 25.3082 6.84939 25.0949 7.16939 24.7322C7.51072 24.3482 7.85206 23.9216 8.19339 23.4522C8.55606 22.9829 8.85473 22.5562 9.08939 22.1722C9.34539 21.7882 9.47339 21.5536 9.47339 21.4682C9.47339 21.3616 9.51606 21.2656 9.60139 21.1802C9.68673 21.0949 9.78273 20.9882 9.88939 20.8602C9.99606 20.7536 10.2094 20.4122 10.5294 19.8362C10.8707 19.2389 11.2334 18.5456 11.6174 17.7562C12.0227 16.9669 12.3854 16.2416 12.7054 15.5802C12.7694 15.3456 12.8867 14.9722 13.0574 14.4602C13.2281 13.9269 13.4094 13.3189 13.6014 12.6362C13.8147 11.9536 14.0174 11.2709 14.2094 10.5882C14.4014 9.88424 14.5721 9.26557 14.7214 8.73223C14.8921 8.17757 14.9987 7.77224 15.0414 7.51624C15.0841 7.2389 15.1481 7.0149 15.2334 6.84423C15.3187 6.65223 15.3721 6.51357 15.3934 6.42824C15.5001 6.38557 15.6281 6.39624 15.7774 6.46024C15.9267 6.52424 16.0761 6.5989 16.2254 6.68424C16.3961 6.76957 16.5454 6.84424 16.6734 6.90824C16.8014 7.0789 16.8547 7.29224 16.8334 7.54824C16.8121 7.80424 16.7374 8.1989 16.6094 8.73223C16.5027 9.24423 16.3427 9.9909 16.1294 10.9722C15.6814 12.7216 15.1374 14.3322 14.4974 15.8042C13.8787 17.2762 13.2067 18.8336 12.4814 20.4762C12.4814 20.4762 12.4814 20.4869 12.4814 20.5082C12.4814 20.5082 12.4814 20.5616 12.4814 20.6682C12.2254 20.8176 12.0227 21.0416 11.8734 21.3402C11.7667 21.5322 11.6707 21.7029 11.5854 21.8522C11.5214 21.9802 11.4361 22.0762 11.3294 22.1402C11.2654 22.3322 11.2014 22.5029 11.1374 22.6522C11.0734 22.8016 11.0414 22.8762 11.0414 22.8762C11.0201 22.9829 10.9454 23.0789 10.8174 23.1642C10.6894 23.2496 10.5614 23.3349 10.4334 23.4202C10.3267 23.4629 10.2627 23.5482 10.2414 23.6762C10.2201 23.8042 10.1774 23.9109 10.1134 23.9962C9.64406 24.7002 9.11073 25.3936 8.51339 26.0762C7.91606 26.7589 7.29739 27.3456 6.65739 27.8362C6.03873 28.3482 5.44139 28.7109 4.86539 28.9242C4.48139 29.0736 4.16139 29.1589 3.90539 29.1802C3.67072 29.2016 3.40406 29.1802 3.10539 29.1162ZM10.8814 4.60424C10.7321 4.4549 10.6147 4.2309 10.5294 3.93224C10.4654 3.63357 10.4441 3.44157 10.4654 3.35624C10.4867 3.24957 10.6254 3.03624 10.8814 2.71623C11.1587 2.39623 11.4787 2.04423 11.8414 1.66023C12.2041 1.27623 12.5454 0.934901 12.8654 0.636235C13.2067 0.337568 13.4521 0.156235 13.6014 0.092236C13.8361 -0.057098 14.0601 -0.0250984 14.2734 0.188235C14.4867 0.380235 14.7001 0.646902 14.9134 0.988236C14.9774 1.18024 14.8921 1.4149 14.6574 1.69223C14.4441 1.94823 14.1561 2.22557 13.7934 2.52424C13.4307 2.8229 13.0681 3.12157 12.7054 3.42024C12.3641 3.69757 12.1081 3.95357 11.9374 4.18823C11.7241 4.52957 11.5534 4.73224 11.4254 4.79624C11.3187 4.86024 11.1374 4.79624 10.8814 4.60424Z" fill="#1A1A1A"/>
</svg>
