<svg width="16" height="24" viewBox="0 0 16 24" fill="none" xmlns="http://www.w3.org/2000/svg">
<path d="M2.24 23.5584C2.13333 23.5157 2.05867 23.4517 2.016 23.3664C1.97333 23.2811 1.93067 23.1104 1.888 22.8544C1.888 22.6197 1.824 22.4491 1.696 22.3424C1.568 22.2357 1.32267 22.1397 0.96 22.0544C0.725333 21.8197 0.554667 21.5531 0.448 21.2544C0.341333 20.9557 0.256 20.4651 0.192 19.7824C0.149333 19.0997 0.0853332 18.0757 0 16.7104C0.0426664 15.9637 0.0746663 15.3344 0.0959997 14.8224C0.138666 14.3104 0.181333 13.8304 0.224 13.3824C0.266667 12.9344 0.309333 12.4544 0.352 11.9424C0.416 11.4304 0.501333 10.7904 0.608 10.0224C0.565333 9.53173 0.586667 8.9984 0.672 8.4224C0.778666 7.8464 0.8 7.38773 0.736 7.0464C0.885333 6.57707 0.981333 6.04373 1.024 5.4464C1.06667 4.82773 1.16267 4.28373 1.312 3.8144C1.35467 3.45173 1.39733 3.1104 1.44 2.7904C1.504 2.4704 1.536 2.20373 1.536 1.9904C1.49333 1.56373 1.51467 1.16907 1.6 0.806399C1.68533 0.443733 1.856 0.209067 2.112 0.102401C2.24 0.0597331 2.42133 0.0277329 2.656 0.00639984C2.89067 -0.0149332 3.06133 0.017067 3.168 0.102401C3.33867 0.187734 3.456 0.3264 3.52 0.518399C3.584 0.710399 3.60533 0.923733 3.584 1.1584C3.62667 1.39307 3.62667 1.7984 3.584 2.3744C3.56267 2.9504 3.50933 3.5904 3.424 4.2944C3.33867 4.97707 3.22133 5.64907 3.072 6.3104C2.90133 7.18507 2.76267 8.08107 2.656 8.9984C2.57067 9.8944 2.50667 10.7797 2.464 11.6544C2.37867 13.4037 2.29333 14.8544 2.208 16.0064C2.12267 17.1584 2.112 17.9904 2.176 18.5024C2.176 18.5664 2.19733 18.7371 2.24 19.0144C2.28267 19.2917 2.336 19.5584 2.4 19.8144C2.464 20.0491 2.528 20.1664 2.592 20.1664C2.76267 20.1451 2.92267 19.9957 3.072 19.7184C3.24267 19.4411 3.392 19.1211 3.52 18.7584C3.66933 18.3744 3.808 18.0437 3.936 17.7664C4.21333 17.2331 4.49067 16.6571 4.768 16.0384C5.06667 15.3984 5.32267 14.7904 5.536 14.2144C5.92 13.3184 6.304 12.5504 6.688 11.9104C7.072 11.2704 7.43467 10.5557 7.776 9.7664C7.904 9.42507 8.128 8.9344 8.448 8.2944C8.78933 7.63307 9.10933 7.02507 9.408 6.4704C9.77067 5.91573 10.112 5.3824 10.432 4.8704C10.7733 4.3584 11.168 3.67573 11.616 2.8224C12.2347 1.7984 12.7147 1.0944 13.056 0.7104C13.3973 0.3264 13.7387 0.1344 14.08 0.1344C14.3147 0.0917327 14.4533 0.0917327 14.496 0.1344C14.56 0.155733 14.6667 0.273066 14.816 0.486399C14.9867 0.721067 15.072 0.9664 15.072 1.2224C15.0933 1.45707 14.9867 1.78773 14.752 2.2144C14.5387 2.64107 14.1547 3.24907 13.6 4.0384C13.1733 4.6784 12.6933 5.42507 12.16 6.2784C11.648 7.13173 11.168 7.9424 10.72 8.7104C10.2933 9.45707 9.984 10.0117 9.792 10.3744C9.68533 10.6091 9.58933 10.8544 9.504 11.1104C9.41867 11.3664 9.29067 11.6011 9.12 11.8144C8.90667 12.0277 8.61867 12.4864 8.256 13.1904C7.89333 13.8944 7.54133 14.5877 7.2 15.2704C6.816 16.1664 6.50667 16.8704 6.272 17.3824C6.05867 17.8731 5.87733 18.2784 5.728 18.5984C5.6 18.9184 5.472 19.2277 5.344 19.5264C5.216 19.8251 5.056 20.1984 4.864 20.6464C4.75733 21.0091 4.608 21.3824 4.416 21.7664C4.24533 22.1717 4.14933 22.4384 4.128 22.5664C3.97867 22.8011 3.776 23.0037 3.52 23.1744C3.28533 23.3664 3.05067 23.4944 2.816 23.5584C2.58133 23.6224 2.38933 23.6224 2.24 23.5584Z" fill="#1A1A1A"/>
</svg>
