<svg width="15" height="24" viewBox="0 0 15 24" fill="none" xmlns="http://www.w3.org/2000/svg">
<path d="M3.5264 13.2114L2.4064 11.8034C1.97973 11.1634 1.6384 10.5661 1.3824 10.0114C1.1264 9.45676 0.945067 8.7741 0.8384 7.96343C0.689067 7.45143 0.593067 6.97143 0.5504 6.52343C0.507733 6.07543 0.4864 5.56343 0.4864 4.98743C0.507733 4.3901 0.529067 3.6541 0.5504 2.77943C0.571733 1.96876 0.657066 1.3821 0.8064 1.01943C0.977067 0.656763 1.10507 0.390096 1.1904 0.219429C1.40373 -0.0365714 1.59573 -0.0685716 1.7664 0.123429C1.9584 0.315429 2.10773 0.646095 2.2144 1.11543C2.3424 1.56343 2.39573 2.09676 2.3744 2.71543C2.4384 4.9981 2.5984 6.81143 2.8544 8.15543C3.13173 9.49943 3.50507 10.3208 3.9744 10.6194C4.2304 10.6834 4.4544 10.6728 4.6464 10.5874C4.85973 10.4808 5.1584 10.2248 5.5424 9.81943C5.94773 9.39276 6.54507 8.75276 7.3344 7.89943C7.9104 7.28076 8.49707 6.61943 9.0944 5.91543C9.71307 5.21143 10.2891 4.53943 10.8224 3.89943C11.3771 3.25943 11.8677 2.71543 12.2944 2.26743C12.7424 1.7981 13.0944 1.48876 13.3504 1.33943C13.4357 1.21143 13.5211 1.11543 13.6064 1.05143C13.7131 0.987429 13.8091 0.955429 13.8944 0.955429C13.9797 0.934096 14.0224 0.92343 14.0224 0.92343C14.1931 0.966096 14.2891 1.10476 14.3104 1.33943C14.3317 1.55276 14.4171 1.7661 14.5664 1.97943C14.6091 2.06476 14.6411 2.16076 14.6624 2.26743C14.6837 2.35276 14.6837 2.44876 14.6624 2.55543C14.6624 2.61943 14.6197 2.70476 14.5344 2.81143C14.4491 2.89676 14.3531 2.99276 14.2464 3.09943C14.1611 3.18476 14.0651 3.28076 13.9584 3.38743C13.6811 3.6221 13.2437 4.0381 12.6464 4.63543C12.0704 5.21143 11.4731 5.84076 10.8544 6.52343C10.2357 7.18476 9.71307 7.7821 9.2864 8.31543C8.34773 9.40343 7.50507 10.3421 6.7584 11.1314C6.03307 11.9208 5.58507 12.3901 5.4144 12.5394C5.39307 12.5821 5.24373 12.7314 4.9664 12.9874C4.68907 13.2434 4.49707 13.4568 4.3904 13.6274L3.5264 13.2114ZM1.2544 23.9314C1.16907 23.9101 1.04107 23.8354 0.8704 23.7074C0.699733 23.6008 0.507733 23.4728 0.2944 23.3234C0.145067 23.1528 0.0490668 22.9928 0.00640003 22.8434C-0.0149333 22.6941 0.0170666 22.4808 0.1024 22.2034C0.187733 21.9261 0.305067 21.4994 0.4544 20.9234C0.475733 20.4328 0.571733 19.8354 0.7424 19.1314C0.9344 18.4274 1.1584 17.8408 1.4144 17.3714C1.4144 17.1368 1.46773 16.8168 1.5744 16.4114C1.68107 16.0061 1.80907 15.5901 1.9584 15.1634C2.12907 14.7154 2.2784 14.3314 2.4064 14.0114L2.9824 12.3474L4.2624 11.2594L5.1584 12.2514C5.07307 12.3794 4.9984 12.5288 4.9344 12.6994C4.8704 12.8701 4.78507 13.1581 4.6784 13.5634C4.57173 13.9688 4.41173 14.5981 4.1984 15.4514C4.02773 16.0274 3.83573 16.6461 3.6224 17.3074C3.4304 17.9688 3.24907 18.5874 3.0784 19.1634C2.90773 19.7394 2.7584 20.2088 2.6304 20.5714C2.3744 21.5314 2.1824 22.2674 2.0544 22.7794C1.9264 23.2914 1.80907 23.6221 1.7024 23.7714C1.61707 23.9421 1.46773 23.9954 1.2544 23.9314Z" fill="#1A1A1A"/>
</svg>
