<svg width="19" height="23" viewBox="0 0 19 23" fill="none" xmlns="http://www.w3.org/2000/svg">
<path d="M1.90629 22.432C1.45829 22.3893 1.05295 22.3253 0.690286 22.24C0.327619 22.176 0.103619 21.9307 0.0182857 21.504C-0.0243809 21.2053 0.00761907 20.9067 0.114286 20.608C0.242286 20.288 0.412952 20.0213 0.626286 19.808C0.988952 19.424 1.38362 18.9973 1.81029 18.528C2.25829 18.0587 2.78095 17.5253 3.37829 16.928C3.99695 16.3307 4.73295 15.6267 5.58629 14.816C6.46095 13.984 7.51695 13.024 8.75429 11.936C9.60762 11.2107 10.2903 10.6133 10.8023 10.144C11.3143 9.65333 11.773 9.20533 12.1783 8.8C12.5836 8.39467 13.0316 7.936 13.5223 7.424C14.269 6.656 14.9196 5.90933 15.4743 5.184C16.0503 4.45867 16.3916 3.88267 16.4983 3.456C16.6263 3.02933 16.5943 2.73067 16.4023 2.56C16.2316 2.368 15.9116 2.24 15.4423 2.176C14.9943 2.09067 14.397 2.02667 13.6503 1.984C12.3276 1.87733 11.1543 1.888 10.1303 2.016C9.12762 2.12267 8.15695 2.26133 7.21829 2.432C7.06895 2.47467 6.88762 2.44267 6.67429 2.336C6.48229 2.208 6.38629 2.10133 6.38629 2.016C6.47162 1.90933 6.51429 1.80267 6.51429 1.696C6.51429 1.58933 6.42895 1.472 6.25829 1.344C6.17295 1.13067 6.17295 0.96 6.25829 0.831999C6.34362 0.703999 6.42895 0.597333 6.51429 0.511999C6.68495 0.426666 6.96229 0.373332 7.34629 0.351999C7.73029 0.309333 8.16762 0.245333 8.65829 0.16C8.97829 0.0959994 9.44762 0.0533326 10.0663 0.0319996C10.7063 0.0106665 11.3463 0 11.9863 0C12.6476 0 13.1703 0.0213331 13.5543 0.0639992C14.3223 0.128 15.0583 0.202667 15.7623 0.288C16.4663 0.351999 17.0743 0.479999 17.5863 0.671999C18.0983 0.863999 18.4503 1.19467 18.6423 1.664C18.877 2.15467 18.9196 2.592 18.7703 2.976C18.6423 3.36 18.461 3.872 18.2263 4.512C17.9703 4.98133 17.533 5.61067 16.9143 6.4C16.317 7.168 15.6236 7.97867 14.8343 8.832C14.0663 9.664 13.277 10.4533 12.4663 11.2C11.2716 12.3093 10.1943 13.3013 9.23429 14.176C8.29562 15.0293 7.35695 15.8613 6.41829 16.672C5.82095 17.184 5.22362 17.7173 4.62629 18.272C4.02895 18.8053 3.43162 19.3493 2.83429 19.904C2.62095 20.1813 2.57829 20.3947 2.70629 20.544C2.85562 20.672 3.36762 20.7147 4.24229 20.672C4.73295 20.6507 5.11695 20.608 5.39429 20.544C5.67162 20.48 5.97029 20.416 6.29029 20.352C6.61029 20.288 7.05829 20.2453 7.63429 20.224C8.74362 20.16 9.78895 20.096 10.7703 20.032C11.7516 19.968 12.541 19.936 13.1383 19.936C13.309 19.936 13.4476 19.9573 13.5543 20C13.6823 20.0427 13.853 20.2133 14.0663 20.512C14.2583 20.576 14.3756 20.672 14.4183 20.8C14.4823 20.9067 14.4823 21.024 14.4183 21.152C14.3543 21.28 14.2263 21.4187 14.0343 21.568C13.885 21.568 13.6183 21.6 13.2343 21.664C12.8716 21.7493 12.4663 21.8133 12.0183 21.856C11.5916 21.92 11.2076 21.9413 10.8663 21.92C10.589 21.8987 10.0556 21.9093 9.26629 21.952C8.49829 22.016 7.66629 22.1013 6.77029 22.208C5.98095 22.336 5.11695 22.4107 4.17829 22.432C3.23962 22.4533 2.48229 22.4533 1.90629 22.432Z" fill="#1A1A1A"/>
</svg>
